<svg id="Icon" xmlns="http://www.w3.org/2000/svg" viewBox="0 0 20 20"><path id="union" d="M1.8217,0H7.3394A1.8854,1.8854,0,0,1,8.7536.76l1.2933,1.9676h7.21a1.8228,1.8228,0,0,1,1.83,1.8178v5.232A6.7647,6.7647,0,0,1,20,13.1815,6.8541,6.8541,0,0,1,7.0947,16.3636H1.8269A1.82,1.82,0,0,1,0,14.55V1.8137A1.8215,1.8215,0,0,1,1.8217,0ZM17.2605,4.5453l0,3.18A6.8372,6.8372,0,0,0,6.4421,14.5473c-2.587.0006-4.6164.0016-4.6164.0028S1.8268,1.8184,1.8213,1.8184l5.4827.0044,1.2146,1.9a1.8281,1.8281,0,0,0,1.528.8225ZM13.1526,18.1816a5,5,0,1,0-5.0217-5A5.0108,5.0108,0,0,0,13.1526,18.1816Zm.9127-5.8046.7237.72a.9158.9158,0,0,0,1.2912,0,.9062.9062,0,0,0,0-1.2856L13.7976,9.5386a.9158.9158,0,0,0-1.2912,0l-2.2826,2.2728a.9062.9062,0,0,0,0,1.2856.9158.9158,0,0,0,1.2912,0l.7243-.7451v3.19a.913.913,0,0,0,1.826,0Z" fill="#252a3a" fill-rule="evenodd"/></svg>