<svg id="Icon" xmlns="http://www.w3.org/2000/svg" viewBox="0 0 20 20"><path id="Black_Fill" data-name="Black Fill" d="M2.5107,17.4326V2.5678A2.1176,2.1176,0,0,1,4.6284.45h7.7889l5.0721,5.24,0,11.7425A2.1178,2.1178,0,0,1,15.3715,19.55H4.6284A2.1176,2.1176,0,0,1,2.5107,17.4326Z" fill="#252a3a"/><path id="Gray_Fill" data-name="Gray Fill" d="M2.5107,17.4326V2.5678A2.1176,2.1176,0,0,1,4.6284.45h7.7889l5.0721,5.24,0,11.7425A2.1178,2.1178,0,0,1,15.3715,19.55H4.6284A2.1176,2.1176,0,0,1,2.5107,17.4326Z" fill="#fff" fill-opacity="0.9"/><path id="Outlines" d="M4.5469.8493A1.6986,1.6986,0,0,0,2.8483,2.5479V17.4521a1.6986,1.6986,0,0,0,1.6986,1.6986H15.4524a1.6986,1.6986,0,0,0,1.6986-1.6986l0-11.349H13.5519a1.4862,1.4862,0,0,1-1.4862-1.4863V.8493Zm8.3681.6246,3.6588,3.78H13.5519a.637.637,0,0,1-.6369-.637ZM1.999,2.5479A2.5479,2.5479,0,0,1,4.5469,0H12.49a.4248.4248,0,0,1,.3051.1293l5.0855,5.2538a.4246.4246,0,0,1,.12.2954l0,11.7736A2.548,2.548,0,0,1,15.4524,20H4.5469A2.5479,2.5479,0,0,1,1.999,17.4521ZM9.84,10.271v-1.08c0-.2159.1736-.3533.3278-.2748l4.4153,2.8269a.3151.3151,0,0,1,0,.53l-4.4153,2.8073c-.1542.0981-.3278-.0393-.3278-.2552v-.9227a.3488.3488,0,0,0-.347-.3534,7.2537,7.2537,0,0,0-3.5862,1.6687.1658.1658,0,0,1-.27-.1374,5.5591,5.5591,0,0,1,3.9526-4.4759A.3357.3357,0,0,0,9.84,10.271Z" fill="#252a3a" fill-rule="evenodd"/></svg>