<svg width="40" height="25" viewBox="0 0 40 25" fill="none" xmlns="http://www.w3.org/2000/svg">
<g clip-path="url(#clip0_15506_63582)">
<path d="M35.9942 21.4853L34.3996 19.7067L32.7436 21.4853H29.493H22.5012V13.2053H19.2506L23.2985 3.944H27.2237L28.6344 7.13333V3.944H33.5409L34.3996 6.336L35.2582 3.944H38.9995V2.53333C38.9995 1.67467 38.3248 1 37.4662 1L1.90712 1C1.04847 1 0.373816 1.67467 0.373816 2.53333V22.4667C0.373816 23.3253 1.04847 24 1.90712 24H37.4662C38.3248 24 38.9995 23.3253 38.9995 22.4667V21.4853H35.9942Z" fill="#0071CE"/>
<path d="M36.4243 20.5041H39.0002L35.6269 16.8855L39.0002 13.3281H36.4856L34.339 15.6588L32.2537 13.3281H29.6777L33.1123 16.9468L29.6777 20.5041H32.1923L34.339 18.1735L36.4243 20.5041Z" fill="#0071CE"/>
<path d="M25.5671 18.8481V17.7441H29.615V16.0881H25.5671V14.9841H29.6764V13.3281H23.6045V20.5041H29.6764V18.8481H25.5671Z" fill="#0071CE"/>
<path d="M37.0989 12.2862H38.9389V5.04883L35.9949 5.11016L34.4003 9.58749L32.7443 5.11016H29.6777V12.2862H31.6404V7.25683L33.4803 12.2862H35.1976L37.0989 7.25683V12.2862Z" fill="#0071CE"/>
<path d="M26.5486 5.10938H24.034L20.8447 12.2854H22.9913L23.6047 10.8747H26.9166L27.5299 12.2854H29.7379L26.5486 5.10938ZM24.2793 9.21871L25.2606 6.88804L26.2419 9.21871H24.2793Z" fill="#0071CE"/>
<path d="M37.2197 16.7019L38.9984 18.6646V14.7393L37.2197 16.7019Z" fill="#0071CE"/>
<rect x="0.5" y="0.5" width="39" height="24" rx="2.5" stroke="#E5E9EE"/>
</g>
<rect x="0.5" y="0.5" width="39" height="24" rx="2.5" stroke="#E5E9EE"/>
<defs>
<clipPath id="clip0_15506_63582">
<rect width="40" height="25" rx="3" fill="white"/>
</clipPath>
</defs>
</svg>
