<svg width="20" height="20" viewBox="0 0 20 20" fill="none" xmlns="http://www.w3.org/2000/svg">
<g clip-path="url(#clip0_9266_239080)">
<path d="M12.5342 0.935857V5.23469C12.9055 5.16413 13.771 5.02301 14.2626 5.02301C14.4502 5.02301 14.808 5.15249 15.2412 5.30931C16.2267 5.66599 17.6028 6.16404 18.2563 5.60149C18.6249 4.66049 18.5379 2.34267 18.4483 1.3014H16.8738C16.2187 1.3014 15.6705 1.02222 15.2335 0.799696C14.9534 0.657004 14.7189 0.537611 14.5314 0.530077C14.5128 0.529333 14.4937 0.528533 14.4741 0.527711C13.9849 0.507224 13.1615 0.472738 12.5342 0.935857Z" fill="#E8E7E9"/>
<path d="M12.1806 8.06214L15.1848 10.944C15.4069 11.1572 15.5326 11.4523 15.5326 11.7608V18.4194C15.5326 19.0432 15.0291 19.5488 14.4079 19.5488H2.57589C1.95476 19.5488 1.45124 19.0432 1.45124 18.4194V12.4965C1.40149 12.1167 1.41065 11.2777 1.84521 10.9603C2.27978 10.6429 5.76873 7.20214 7.45888 5.52144C7.83107 5.15099 8.95683 5.05509 9.48358 5.43862C10.0103 5.82215 11.501 7.34744 12.1806 8.06214Z" fill="#E8E7E9"/>
<path fill-rule="evenodd" clip-rule="evenodd" d="M12.5313 0.227567C12.8346 0.105705 13.2804 0 13.9108 0C14.5805 0 15.1346 0.222739 15.6003 0.409911L15.6262 0.420303C16.1147 0.616565 16.512 0.770946 16.9814 0.770946C17.5025 0.770946 17.8243 0.683914 18.0008 0.61304C18.0894 0.57743 18.1436 0.54501 18.1698 0.527491C18.1791 0.521264 18.185 0.51681 18.1878 0.514622C18.3263 0.386205 18.5271 0.349657 18.7023 0.422542C18.8835 0.497917 19.0016 0.675488 19.0016 0.872452V5.49813C19.0016 5.62728 18.9505 5.75115 18.8596 5.84247L18.5167 5.49813C18.8596 5.84247 18.8598 5.84222 18.8596 5.84247L18.8585 5.8435L18.8575 5.84456L18.8552 5.84678L18.8502 5.85161L18.8383 5.86279C18.8294 5.87089 18.8188 5.88023 18.8062 5.8906C18.7811 5.91137 18.7485 5.93623 18.7077 5.96355C18.6259 6.0183 18.5122 6.08225 18.3609 6.14301C18.0576 6.26487 17.6118 6.37058 16.9814 6.37058C16.3118 6.37058 15.7576 6.14784 15.2919 5.96067L15.266 5.95027C14.7775 5.75401 14.3802 5.59963 13.9108 5.59963C13.3897 5.59963 13.0679 5.68666 12.8915 5.75754C12.8804 5.76198 12.8699 5.76638 12.8599 5.7707L12.8585 8.08823L15.4951 10.6176C15.8061 10.9159 15.9821 11.3291 15.9821 11.761V18.4197C15.9821 19.293 15.2771 20.001 14.4075 20.001H2.57549C1.70591 20.001 1.00098 19.293 1.00098 18.4197V11.761C1.00098 11.3291 1.17692 10.9159 1.48794 10.6176L7.01555 5.31489C7.84142 4.52264 9.14161 4.52264 9.96748 5.31489L11.8892 7.15844L11.8902 5.49675C11.8902 5.49007 11.8904 5.48343 11.8906 5.47682V0.872452C11.8906 0.743297 11.9417 0.619432 12.0326 0.528106L12.3755 0.872452C12.0326 0.528106 12.0324 0.528361 12.0326 0.528106L12.0337 0.52708L12.0347 0.52602L12.037 0.523799L12.042 0.518964L12.0539 0.507788C12.0628 0.499692 12.0735 0.490353 12.086 0.479975C12.1111 0.459205 12.1437 0.434351 12.1845 0.407031C12.2663 0.352273 12.38 0.288325 12.5313 0.227567ZM12.8604 1.14479V4.74601C13.1327 4.67542 13.4783 4.62567 13.9108 4.62567C14.5805 4.62567 15.1346 4.84841 15.6003 5.03558L15.6262 5.04598C16.1147 5.24224 16.512 5.39662 16.9814 5.39662C17.5025 5.39662 17.8243 5.30959 18.0008 5.23871C18.0116 5.23435 18.022 5.23004 18.0318 5.22579V1.62457C17.7595 1.69515 17.4139 1.74491 16.9814 1.74491C16.3118 1.74491 15.7576 1.52217 15.2919 1.33499L15.266 1.3246C14.7775 1.12834 14.3802 0.973959 13.9108 0.973959C13.3897 0.973959 13.0679 1.06099 12.8915 1.13187C12.8806 1.13623 12.8703 1.14054 12.8604 1.14479ZM9.34602 5.96829C8.86789 5.50962 8.11514 5.50962 7.63701 5.96829L2.10939 11.271C1.9761 11.3988 1.9007 11.5759 1.9007 11.761V18.4197C1.9007 18.794 2.20281 19.0974 2.57549 19.0974H5.50586L5.50597 15.0309C5.50623 14.1581 6.21032 13.4511 7.07941 13.451L9.94827 13.451C10.8182 13.451 11.5222 14.1594 11.5222 15.0324V19.0974H14.4075C14.7802 19.0974 15.0823 18.794 15.0823 18.4197V11.761C15.0823 11.5759 15.0069 11.3988 14.8736 11.271L9.34602 5.96829ZM7.07942 14.3546L9.94827 14.3546C10.3206 14.3546 10.6225 14.6578 10.6225 15.0324V19.0958H6.40556L6.40569 15.0311C6.4058 14.6572 6.70721 14.3546 7.07942 14.3546Z" fill="#180B25"/>
</g>
<defs>
<clipPath id="clip0_9266_239080">
<rect width="20" height="20" fill="white"/>
</clipPath>
</defs>
</svg>
