<svg width="20" height="20" viewBox="0 0 20 20" fill="none" xmlns="http://www.w3.org/2000/svg">
<path fill-rule="evenodd" clip-rule="evenodd" d="M0.470703 5.06822H4.02516V15.3169L4.02444 15.3169L4.03594 17.3464C4.06876 17.8014 4.27029 18.227 4.60004 18.5376C4.92979 18.8482 5.36333 19.0209 5.81356 19.0209C5.92474 19.0209 6.03491 19.0103 6.14275 18.9898C6.03334 19.0114 5.92145 19.0226 5.80841 19.0231H17.7492C18.2214 19.0212 18.6736 18.8303 19.0075 18.492C19.3413 18.1537 19.5297 17.6954 19.5316 17.217V15.3581H7.59117H7.59076L7.49547 15.357H15.9755V2.78644C15.9736 2.30802 15.7852 1.84974 15.4514 1.51144C15.1175 1.17315 14.6652 0.982253 14.1931 0.980355L2.33352 0.979602C2.3052 0.97823 2.27679 0.977539 2.24831 0.977539C1.79809 0.977539 1.36455 1.15019 1.0348 1.46081C0.705045 1.77142 0.503517 2.19699 0.470703 2.65199V5.06822Z" fill="#E8E7E9"/>
<path d="M7.11969 6.87261C6.6957 6.87261 6.352 7.15243 6.352 7.49761C6.352 7.84279 6.6957 8.12261 7.11969 8.12261H11.3429C11.7669 8.12261 12.1106 7.84279 12.1106 7.49761C12.1106 7.15243 11.7669 6.87261 11.3429 6.87261H7.11969Z" fill="#180B25"/>
<path d="M7.12555 10.4142C6.70156 10.4142 6.35786 10.6926 6.35786 11.036C6.35786 11.3794 6.70156 11.6578 7.12555 11.6578L12.882 11.6513C13.306 11.6513 13.6497 11.3729 13.6497 11.0295C13.6497 10.6861 13.306 10.4078 12.882 10.4078L7.12555 10.4142Z" fill="#180B25"/>
<path fill-rule="evenodd" clip-rule="evenodd" d="M16.4407 2.85327C16.4407 1.62789 15.5611 0.5 14.1716 0.5L2.25795 0.500714C1.00631 0.500714 0 1.56783 0 2.69438V4.96378C0 5.28381 0.256024 5.54324 0.571846 5.54324H3.55998V17.3957C3.55998 17.5405 3.60176 17.7338 3.66877 17.9247C3.73961 18.1264 3.85198 18.3639 4.02063 18.5931C4.36631 19.0628 4.94669 19.4899 5.82713 19.4899C7.92815 19.4899 11.5064 19.4937 14.2781 19.4967L14.3108 19.4967C15.8418 19.4983 17.1229 19.4997 17.7663 19.5C17.9462 19.5001 18.1477 19.484 18.3554 19.4181C18.8894 19.2486 19.3029 18.9536 19.5832 18.555C19.8615 18.1594 19.9866 17.6934 20 17.2149V15.4497C20 15.1302 19.7445 14.8701 19.4282 14.8701H16.4407V2.85327ZM14.1716 1.44821L4.0695 1.44883C4.33889 1.81842 4.49573 2.25775 4.49573 2.69438V17.3957C4.49573 17.3952 4.49564 17.3952 4.49573 17.3957C4.49581 17.3962 4.49606 17.3971 4.49623 17.3984C4.49839 17.4138 4.50877 17.4884 4.55038 17.6068C4.59532 17.7348 4.66687 17.8851 4.77078 18.0263C4.97021 18.2973 5.28947 18.5417 5.82713 18.5417C6.36582 18.5417 6.67385 18.3012 6.8626 18.0363C6.96183 17.8971 7.02964 17.7473 7.07214 17.6164C7.09322 17.5514 7.10712 17.494 7.11548 17.4487C7.11965 17.4261 7.12222 17.4078 7.12369 17.394C7.12501 17.3817 7.1252 17.3753 7.12523 17.3744V15.4496C7.12523 15.1296 7.38125 14.8701 7.69707 14.8701H15.5049V2.85327C15.5049 2.0768 14.9735 1.44821 14.1716 1.44821ZM14.2727 18.5485C12.1988 18.5462 9.67421 18.5436 7.65528 18.5423C7.94962 18.1062 8.06097 17.6263 8.06097 17.3744V15.8183H19.0643V17.1945C19.0541 17.5216 18.9701 17.793 18.8212 18.0047C18.6734 18.2148 18.4399 18.3977 18.0758 18.5132C17.9912 18.54 17.893 18.5518 17.7668 18.5518C17.1248 18.5515 15.8456 18.5501 14.3163 18.5485L14.2727 18.5485ZM0.935748 2.69438C0.935748 2.10349 1.51121 1.44892 2.25795 1.44892C2.99324 1.44892 3.55998 2.11837 3.55998 2.69438V4.59503H0.935748V2.69438Z" fill="#180B25"/>
</svg>
