<svg width="20" height="20" viewBox="0 0 20 20" fill="none" xmlns="http://www.w3.org/2000/svg">
<g clip-path="url(#clip0_9266_239077)">
<path d="M0.459961 1.45898H6.18371C7.19573 1.45898 8.1663 1.85898 8.88191 2.57097C9.59752 3.28297 9.99954 4.24864 9.99954 5.25555V18.5435C9.99954 17.7884 9.69803 17.0641 9.16132 16.5301C8.62461 15.9961 7.89669 15.6961 7.13767 15.6961H0.459961V1.45898Z" fill="#E8E7E9"/>
<path d="M19.5399 1.45898H13.8161C12.8041 1.45898 11.8335 1.85898 11.1179 2.57097C10.4023 3.28297 9.99954 4.24864 9.99954 5.25555V18.5435C9.99954 17.7884 10.3018 17.0641 10.8385 16.5301C11.3752 15.9961 12.1031 15.6961 12.8622 15.6961H19.5399V1.45898Z" fill="#E8E7E9"/>
<path fill-rule="evenodd" clip-rule="evenodd" d="M0 1.45772C0 1.20493 0.205969 1 0.460044 1H6.18379C7.31783 1 8.40541 1.44822 9.2073 2.24605C10.0092 3.04389 10.4597 4.12598 10.4597 5.25429V18.5423C10.4597 18.7951 10.2537 19 9.99963 19C9.74555 19 9.53958 18.7951 9.53958 18.5423C9.53958 17.9085 9.28653 17.3007 8.8361 16.8525C8.38567 16.4043 7.77476 16.1526 7.13775 16.1526H0.460044C0.205969 16.1526 0 15.9476 0 15.6949V1.45772ZM9.53958 16.259V5.25429C9.53958 4.36877 9.18603 3.51952 8.5567 2.89337C7.92736 2.26721 7.0738 1.91544 6.18379 1.91544H0.920089V15.2371H7.13775C8.01878 15.2371 8.86372 15.5853 9.4867 16.2052C9.50456 16.2229 9.52218 16.2409 9.53958 16.259Z" fill="#180B25"/>
<path fill-rule="evenodd" clip-rule="evenodd" d="M10.7927 2.24605C11.5946 1.44822 12.6822 1 13.8162 1H19.54C19.794 1 20 1.20493 20 1.45772V15.6949C20 15.9476 19.794 16.1526 19.54 16.1526H12.8622C12.2252 16.1526 11.6143 16.4043 11.1639 16.8525C10.7135 17.3007 10.4597 17.9085 10.4597 18.5423C10.4597 18.7951 10.2537 19 9.99963 19C9.74555 19 9.53958 18.7951 9.53958 18.5423V5.25429C9.53958 4.12598 9.99082 3.04389 10.7927 2.24605ZM10.4604 16.259C10.4778 16.2409 10.4954 16.2229 10.5133 16.2052C11.1363 15.5853 11.9812 15.2371 12.8622 15.2371H19.0799V1.91544H13.8162C12.9262 1.91544 12.0726 2.26721 11.4433 2.89337C10.814 3.51952 10.4597 4.36877 10.4597 5.25429L10.4604 16.259Z" fill="#180B25"/>
</g>
<defs>
<clipPath id="clip0_9266_239077">
<rect width="20" height="20" fill="white"/>
</clipPath>
</defs>
</svg>
