<?xml version="1.0" encoding="UTF-8"?><svg id="Icon" xmlns="http://www.w3.org/2000/svg" viewBox="0 0 20 20"><path id="Solid_Fill" d="M2.5107,17.4326V2.5678C2.5107,1.3983,3.4588,.4502,4.6284,.4502h7.7889l5.0721,5.2399-.0002,11.7425c-.0001,1.1695-.9482,2.1176-2.1177,2.1176H4.6284c-1.1695,0-2.1176-.9481-2.1176-2.1176Z" fill="#001531"/><path id="Opacity_Fill" d="M2.5107,17.4326V2.5678C2.5107,1.3983,3.4588,.4502,4.6284,.4502h7.7889l5.0721,5.2399-.0002,11.7425c-.0001,1.1695-.9482,2.1176-2.1177,2.1176H4.6284c-1.1695,0-2.1176-.9481-2.1176-2.1176Z" fill="rgba(255,255,255,.9)"/><path id="Outline" d="M2.8483,2.5479c0-.9381,.7605-1.6986,1.6986-1.6986h7.5188v3.7675c0,.8209,.6654,1.4863,1.4862,1.4863h3.5993l-.0002,11.349c0,.9381-.7605,1.6986-1.6986,1.6986H4.5469c-.9381,0-1.6986-.7605-1.6986-1.6986V2.5479Zm13.7255,2.7059l-3.6588-3.7799v3.1429c0,.3518,.2852,.637,.6369,.637h3.0219ZM4.5469,0C3.1398,0,1.999,1.1407,1.999,2.5479v14.9042c0,1.4072,1.1407,2.5479,2.5479,2.5479H15.4524c1.4071,0,2.5478-1.1407,2.5479-2.5479l.0002-11.7737c0-.1102-.0429-.2161-.1196-.2954L12.7954,.1293c-.08-.0826-.1901-.1293-.3051-.1293H4.5469Zm1.3092,10.165c0-.3451,.3437-.625,.7677-.625h5.2126c.4239,0,.7677,.2798,.7677,.625s-.3438,.625-.7677,.625H6.6238c-.424,0-.7677-.2798-.7677-.625Zm.0059,3.5384c0-.3434,.3437-.6217,.7677-.6217l6.7458-.0065c.424,0,.7677,.2784,.7677,.6218s-.3437,.6217-.7677,.6217l-6.7458,.0065c-.424,0-.7677-.2784-.7677-.6218Z" fill="#001531" fill-rule="evenodd"/></svg>