<svg id="Layer_1" data-name="Layer 1" xmlns="http://www.w3.org/2000/svg" viewBox="0 0 20 20"><path d="M18.75,8.75H17.5c-.0438,0-.08.0212-.1238.025a7.4382,7.4382,0,0,0-1.2887-3.1275c.0312-.0262.07-.0363.1-.0662l.8838-.8838a1.25,1.25,0,0,0-1.736-1.799l-.0008.0008-.0307.0307-.8851.8825c-.0287.0287-.04.0687-.0662.1A7.4166,7.4166,0,0,0,11.225,2.6237c.0038-.0437.025-.08.025-.1237V1.25a1.25,1.25,0,0,0-2.5,0V2.5c0,.0438.0212.08.025.1237A7.4154,7.4154,0,0,0,5.6475,3.9125c-.0262-.0313-.0375-.07-.0662-.1l-.8838-.8837A1.25,1.25,0,1,0,2.9288,4.6962h0l.885.8838a.896.896,0,0,0,.0987.0675A7.4228,7.4228,0,0,0,2.6237,8.775C2.58,8.7712,2.5438,8.75,2.5,8.75H1.25a1.25,1.25,0,0,0,0,2.5H2.5a1.0837,1.0837,0,0,0,.1237-.025,7.4409,7.4409,0,0,0,1.2888,3.1275,1.0552,1.0552,0,0,0-.0987.0662l-.885.8838A1.25,1.25,0,1,0,4.6975,17.07h0l.8838-.8837c.0287-.0288.04-.0688.0662-.1a7.433,7.433,0,0,0,3.1275,1.29c-.0038.0438-.025.08-.025.1238v1.25a1.25,1.25,0,0,0,2.5,0V17.5c0-.0438-.0212-.08-.025-.1238a7.4393,7.4393,0,0,0,3.1275-1.29,1.0879,1.0879,0,0,0,.0662.1l.8851.8837a1.25,1.25,0,0,0,1.7994-1.7355l-.0012-.0013-.0307-.0307-.8838-.8838c-.03-.0287-.0688-.0387-.1-.0662a7.4382,7.4382,0,0,0,1.2887-3.1275,1.0854,1.0854,0,0,0,.1238.025h1.25a1.25,1.25,0,0,0,0-2.5ZM10,15a5,5,0,1,1,5-5A5,5,0,0,1,10,15Z" fill="#252a3a" fill-rule="evenodd"/></svg>