<svg id="Layer_1" data-name="Layer 1" xmlns="http://www.w3.org/2000/svg" viewBox="0 0 20 20"><path d="M18.8889,0h-4.44a1.1111,1.1111,0,0,0,0,2.2222h3.3286V5.5508a1.1111,1.1111,0,0,0,2.2222,0v-4.44A1.1144,1.1144,0,0,0,18.8889,0ZM15.5556,5.5523v8.8954a1.1074,1.1074,0,0,1-1.1069,1.1079H5.5554a1.11,1.11,0,0,1-1.111-1.1079V5.5523A1.1074,1.1074,0,0,1,5.5513,4.4444h8.8933A1.11,1.11,0,0,1,15.5556,5.5523Zm-2.2223,7.781H6.6667V6.6667h6.6666ZM0,14.4492a1.1111,1.1111,0,0,1,2.2222,0h0v3.3286H5.5556a1.1111,1.1111,0,0,1,0,2.2222H1.1111A1.1146,1.1146,0,0,1,0,18.8841Z" fill="#252a3a" fill-rule="evenodd"/></svg>