<svg id="Icon" xmlns="http://www.w3.org/2000/svg" viewBox="0 0 20 20"><path id="union" d="M16.6237,7.7533a3.3767,3.3767,0,1,0-3.3766-3.3767A3.3766,3.3766,0,0,0,16.6237,7.7533ZM8.3151,18.6624a8.3116,8.3116,0,0,0,8.3083-8.3116q0-.4209-.0411-.8312H12.4409a18.077,18.077,0,0,0-.6344-3.3367,10.89,10.89,0,0,0-.8244-1.9236l.0086.0037A4.8069,4.8069,0,0,0,8.7086,2.0484q-.1974-.0093-.3969-.0093a8.3117,8.3117,0,1,0,0,16.6233Zm-2.467-7.4805A11.1151,11.1151,0,0,0,6.92,15.27C7.46,16.3544,8.0922,17,8.3119,17s.852-.6455,1.3915-1.73a11.1131,11.1131,0,0,0,1.0722-4.088Zm-1.6644,0a12.8626,12.8626,0,0,0,1.4806,5.27,6.6562,6.6562,0,0,1-3.9507-5.27ZM5.8475,9.52A11.1668,11.1668,0,0,1,6.9059,5.4289c.5375-1.089,1.1665-1.7277,1.406-1.7277S9.18,4.34,9.7179,5.4289A11.1648,11.1648,0,0,1,10.7762,9.52Zm6.593,1.6624a12.8627,12.8627,0,0,1-1.48,5.2694,6.656,6.656,0,0,0,3.949-5.2694ZM4.183,9.52H1.7135a6.6561,6.6561,0,0,1,3.9289-5.261A12.8563,12.8563,0,0,0,4.183,9.52Z" fill="#252a3a" fill-rule="evenodd"/></svg>