<?xml version="1.0" encoding="UTF-8"?><svg id="Layer_2" xmlns="http://www.w3.org/2000/svg" viewBox="0 0 20.0009 16.2044"><g id="Layer_1-2"><path d="M18.1818,0H1.8191C.8151,0,0,.8041,0,1.7961v12.6123c0,.9925.8144,1.7961,1.8191,1.7961h16.3627c1.004,0,1.8191-.8041,1.8191-1.7961V1.7961c0-.9925-.8144-1.7961-1.8191-1.7961ZM6.8958,8.1021L1.8178,13.1303c0-2.4189-.0001-7.6405.0003-10.0563l5.0777,5.028ZM16.8971,14.4038c-3.0576.0003-10.7409.0011-13.7967.0028l5.0811-5.0314,1.1758,1.1643c.355.3516.9307.3516,1.2857,0l1.1758-1.1643,5.0783,5.0286ZM18.182,13.1299c.0004-2.4158.0004-7.6371.0003-10.056l-5.0778,5.0282,5.0775,5.0279ZM3.099,1.8002c3.0564-.0003,10.7509-.0011,13.8051-.0028l-6.904,6.8621L3.099,1.8002Z" fill="#001531" fill-rule="evenodd" stroke-width="0"/></g></svg>