<?xml version="1.0" encoding="UTF-8"?><svg id="Layer_1" xmlns="http://www.w3.org/2000/svg" xmlns:xlink="http://www.w3.org/1999/xlink" viewBox="0 0 20 20"><defs><clipPath id="clippath"><rect width="20" height="20" fill="none"/></clipPath></defs><g clip-path="url(#clippath)"><path d="M11.098,1.0243c-.6697-.1118-1.2662,.1771-1.6444,.5701-.5485,.57-1.2705,1.3233-2.035,2.1209l-.0011,.0012-.0003,.0004c-.9951,1.0383-2.0622,2.1516-2.9123,3.0335-.5397,.5599-.8417,1.3066-.8417,2.0852v7.1341c0,1.6496,1.3294,2.9935,2.9843,2.9999,2.3456,.009,6.2223,.0238,8.5673,.0313,1.5481,.005,2.9179-1.0108,3.3453-2.5085,.6063-2.1247,1.0494-3.864,1.3652-5.2047,.2455-1.0423-.1506-2.0861-.8259-2.8262-.6883-.7541-1.7271-1.2726-2.9377-1.2726h-3.0992c.2597-.8142,.5231-1.815,.5582-2.7507,.0255-.6789-.0621-1.4447-.4637-2.1045-.4289-.7048-1.1338-1.155-2.0589-1.3095Zm-.2357,1.9906l.0324-.0337c-.0023,.0016-.0075,.0045-.0163,.0079-.0195,.0074-.0587,.0164-.1097,.0079,.0327,.0055,.0639,.0115,.0936,.0179Zm0,0c.3626,.0787,.5061,.2272,.5862,.3587,.114,.1873,.1918,.5033,.1735,.9897-.037,.9877-.4396,2.1754-.7642,3.0989-.299,.8503,.3353,1.7267,1.2244,1.7267h4.0794c.6266,0,1.1361,.2655,1.4604,.6208,.337,.3694,.4175,.7603,.3565,1.0195-.3086,1.3101-.7439,3.0193-1.3417,5.1144-.1791,.6275-.7538,1.0594-1.4156,1.0573-2.3444-.0075-6.2204-.0223-8.5661-.0313-.5481-.0021-.992-.4466-.992-.9999v-7.1341c0-.26,.1006-.5093,.2817-.6972,.8474-.8791,1.9231-2.0014,2.9231-3.0448l.0006-.0006c.7501-.7826,1.4574-1.5206,1.9938-2.0782ZM2.002,9.0049c0-.5523-.4477-1-1-1S.002,8.4526,.002,9.0049v8.5753c0,.5523,.4477,1,1,1s1-.4477,1-1V9.0049Z" fill="#001531" fill-rule="evenodd"/></g></svg>