<svg id="Layer_1" data-name="Layer 1" xmlns="http://www.w3.org/2000/svg" viewBox="0 0 20 20"><path d="M7,1.7391H2.71c.0041,0,.0039,13.9131.0039,13.9131s1.7431-.0008,3.7941-.0007A6.588,6.588,0,0,1,9.3621,7.8261H7.8574A.8634.8634,0,0,1,7,6.9567V1.7391Zm1.7143,0L13,6.087H8.7146Zm4.714,11.8364V11.3081a.8573.8573,0,0,0-1.7143-.0321q0,.016,0,.0321v2.2443l-.68-.689a.8486.8486,0,0,0-1.2-.0123l-.0123.0123a.8783.8783,0,0,0,0,1.23l2.1428,2.1739a.8486.8486,0,0,0,1.2.0123l.0123-.0123L15.32,14.0931a.8785.8785,0,0,0,0-1.23.8486.8486,0,0,0-1.2-.0123l-.0123.0123ZM14.714,7.3273V5.8254a1.2189,1.2189,0,0,0-.3008-.7394L9.7029.3053A1.1808,1.1808,0,0,0,8.9738,0H2.71A1.7263,1.7263,0,0,0,1,1.7391V15.6522a1.7291,1.7291,0,0,0,1.7161,1.7391h4.712A6.3889,6.3889,0,0,0,12.5714,20,6.5365,6.5365,0,0,0,14.7143,7.3276ZM12.5714,18.2609A4.7831,4.7831,0,1,0,7.8576,13.41l0,.0688A4.7489,4.7489,0,0,0,12.5714,18.2609Z" fill="#252a3a" fill-rule="evenodd"/></svg>