<svg id="ArrowLast" xmlns="http://www.w3.org/2000/svg" viewBox="0 0 20 20"><path d="M17.5,20A2.5,2.5,0,0,0,20,17.5V2.5a2.5,2.5,0,0,0-5,0v15A2.5,2.5,0,0,0,17.5,20ZM.7834,4.2656A2.387,2.387,0,0,1,.6189.8939Q.6962.8087.7814.7312A2.7437,2.7437,0,0,1,2.6668,0,2.7437,2.7437,0,0,1,4.5529.7319L5.6243,1.7347l6.723,6.0391a2.9847,2.9847,0,0,1,.2179,4.2154h0q-.099.11-.2086.21L4.5442,19.275A2.7362,2.7362,0,0,1,2.6668,20a2.7418,2.7418,0,0,1-1.8854-.7319,2.3869,2.3869,0,0,1-.1607-3.3718h0q.0765-.0842.1607-.1607l5.6909-5.3041A.5965.5965,0,0,0,6.51,9.5886h0q-.0184-.02-.0387-.0386Z" fill="#252a3a" fill-rule="evenodd"/></svg>