<svg id="Help" xmlns="http://www.w3.org/2000/svg" viewBox="0 0 20 20"><path d="M10,20A10,10,0,1,0,0,10,10,10,0,0,0,10,20ZM5.5,7.55A4.25,4.25,0,0,1,9.75,3.3h0a4.084,4.084,0,0,1,4.2526,3.9081q.003.07.0035.14a3.498,3.498,0,0,1-.35,1.6249A4.19,4.19,0,0,1,12.6,10.243c-.0963.0829-1.1395.93-1.1775.96a1.2222,1.2222,0,0,0-.3426.3494.9172.9172,0,0,0-.0673.4368,1.25,1.25,0,0,1-2.5,0,3.35,3.35,0,0,1,.334-1.5679A3.3134,3.3134,0,0,1,9.59,9.4807l.5305-.4414.2554-.2075c.2763-.2245.5588-.4546.5928-.4838a1.8073,1.8073,0,0,0,.44-.48,1.0448,1.0448,0,0,0,.097-.52A1.5953,1.5953,0,0,0,9.8722,5.7923Q9.811,5.7938,9.75,5.8A1.75,1.75,0,0,0,8,7.55a1.25,1.25,0,0,1-2.5,0ZM9.753,17.5874a1.6667,1.6667,0,1,1,1.667-1.6666,1.6667,1.6667,0,0,1-1.667,1.6666Z" fill="#252a3a" fill-rule="evenodd"/></svg>