<?xml version="1.0" encoding="UTF-8"?><svg id="Layer_2" xmlns="http://www.w3.org/2000/svg" xmlns:xlink="http://www.w3.org/1999/xlink" viewBox="0 0 20 20"><defs><clipPath id="clippath"><rect width="20" height="20" fill="none"/></clipPath></defs><g id="Layer_1-2"><g clip-path="url(#clippath)"><path d="M6,0c.5523,0,1,.4477,1,1v3c0,.7957-.3161,1.5587-.8787,2.1213-.5626,.5626-1.3257,.8787-2.1213,.8787H1c-.5523,0-1-.4477-1-1s.4477-1,1-1h3c.2652,0,.5196-.1054,.7071-.2929,.1875-.1875,.2929-.4419,.2929-.7071V1c0-.5523,.4477-1,1-1ZM14,0c.5523,0,1,.4477,1,1v3c0,.2652,.1054,.5196,.2929,.7071,.1875,.1875,.4419,.2929,.7071,.2929h3c.5523,0,1,.4477,1,1s-.4477,1-1,1h-3c-.7956,0-1.5587-.3161-2.1213-.8787-.5626-.5626-.8787-1.3257-.8787-2.1213V1c0-.5523,.4477-1,1-1ZM0,14c0-.5523,.4477-1,1-1h3c.7957,0,1.5587,.3161,2.1213,.8787,.5626,.5626,.8787,1.3257,.8787,2.1213v3c0,.5523-.4477,1-1,1s-1-.4477-1-1v-3c0-.2652-.1054-.5196-.2929-.7071-.1875-.1875-.4419-.2929-.7071-.2929H1c-.5523,0-1-.4477-1-1Zm16,1c-.2652,0-.5196,.1054-.7071,.2929s-.2929,.4419-.2929,.7071v3c0,.5523-.4477,1-1,1s-1-.4477-1-1v-3c0-.7957,.3161-1.5587,.8787-2.1213s1.3256-.8787,2.1213-.8787h3c.5523,0,1,.4477,1,1s-.4477,1-1,1h-3Z" fill="#180b25" fill-rule="evenodd"/></g></g></svg>