<?xml version="1.0" encoding="UTF-8"?><svg id="Layer_2" xmlns="http://www.w3.org/2000/svg" xmlns:xlink="http://www.w3.org/1999/xlink" viewBox="0 0 20 20"><defs><clipPath id="clippath"><rect width="20" height="20" fill="none"/></clipPath></defs><g id="Layer_1-2"><g clip-path="url(#clippath)"><path d="M.002,3.7779C.002,2.2323,1.2669,1,2.8016,1h14.3969c1.5347,0,2.7996,1.2323,2.7996,2.7779V12.6674c0,1.5456-1.2649,2.7779-2.7996,2.7779h-6.1985v1.5565h2.5998c.5523,0,1,.4478,1,1s-.4477,1-1,1h-3.5646c-.0117,.0004-.0234,.0006-.0352,.0006-.0118,0-.0235-.0002-.0352-.0006h-3.5634c-.5523,0-1-.4477-1-1s.4477-1,1-1h2.5986v-1.5565H2.8016C1.2669,15.4453,.002,14.213,.002,12.6674V3.7779Zm2.7996-.7779c-.4531,0-.7996,.3597-.7996,.7779V12.6674c0,.4183,.3465,.7779,.7996,.7779h14.3969c.4531,0,.7996-.3596,.7996-.7779V3.7779c0-.4182-.3465-.7779-.7996-.7779H2.8016Z" fill="#180b25" fill-rule="evenodd"/></g></g></svg>
