<svg id="Layer_1" data-name="Layer 1" xmlns="http://www.w3.org/2000/svg" viewBox="0 0 20 20"><path d="M4.3636,4.1842,5.1168,2.331A1.4486,1.4486,0,0,1,6.3594,1.5h7.2811a1.4471,1.4471,0,0,1,1.2427.831l.7532,1.8532H18.181A1.8043,1.8043,0,0,1,20,5.9737h0V16.7086A1.8057,1.8057,0,0,1,18.181,18.5H1.819A1.8043,1.8043,0,0,1,0,16.7105H0V5.9756A1.8057,1.8057,0,0,1,1.819,4.1842ZM1.8182,16.7086,1.819,5.9737H4.9216A1,1,0,0,0,5.848,5.35l.8376-2.0609h6.6231l.8426,2.0624a.9985.9985,0,0,0,.9246.6218c1.0851,0,3.1059,0,3.1059.0019L18.181,16.7105Zm3.6363-5.8139a4.5461,4.5461,0,1,1,4.6179,4.4731h0L10,15.3684A4.51,4.51,0,0,1,5.4545,10.8947ZM10,8.2105a2.6871,2.6871,0,1,1-.0428,0Z" fill="#252a3a" fill-rule="evenodd"/></svg>