<svg id="Icon" xmlns="http://www.w3.org/2000/svg" viewBox="0 0 21 20"><path id="union" d="M12.8219,5.1733a1,1,0,0,0-1.8794-.684L7.18,14.8259A1,1,0,0,0,9.06,15.51Zm1.3034,8.1356a1.0618,1.0618,0,0,1,.3453-.78l2.5067-2.33a.2632.2632,0,0,0,.0006-.3889L14.47,7.4707a1.053,1.053,0,0,1,0-1.5578A1.2308,1.2308,0,0,1,16.1281,5.91l3.4431,3.1207a1.3167,1.3167,0,0,1-.0041,1.9514l-2.963,2.6632-.4722.4423a1.2319,1.2319,0,0,1-1.6622,0A1.061,1.061,0,0,1,14.1253,13.3089Zm-8.249.0009a1.062,1.062,0,0,0-.3452-.78L3.0244,10.2a.2631.2631,0,0,1-.0006-.3888L5.5319,7.4717a1.0531,1.0531,0,0,0,0-1.5579,1.2308,1.2308,0,0,0-1.6583-.003L.4305,9.0315a1.3166,1.3166,0,0,0,.0041,1.9513l2.963,2.6633.4722.4422a1.2316,1.2316,0,0,0,1.6621,0A1.0606,1.0606,0,0,0,5.8763,13.31Z" fill="#252a3a" fill-rule="evenodd"/></svg>