<svg id="Layer_1" data-name="Layer 1" xmlns="http://www.w3.org/2000/svg" viewBox="0 0 20 20"><path d="M8.6109.4189.4255,6.1689A1.0013,1.0013,0,0,0,.4242,7.8063L8.61,13.5748a2.5085,2.5085,0,0,0,2.7806,0l8.1855-5.7685a1.0013,1.0013,0,0,0-.0013-1.6374L11.3891.4189A2.5127,2.5127,0,0,0,8.6109.4189Zm8.657,12.5705L10.2388,17.943a.5415.5415,0,0,1-.4776,0L2.7336,12.9976l.359-.2522a1.0005,1.0005,0,0,0-1.1491-1.6382h0l-.6184.4344-.9.6319a1.0013,1.0013,0,0,0-.0013,1.6374L8.61,19.58a2.5089,2.5089,0,0,0,2.7806,0l8.1855-5.7686a1.0013,1.0013,0,0,0-.0013-1.6374l-.8733-.6135-.6005-.4218a1.0005,1.0005,0,1,0-1.149,1.6383h0C17.2246,12.9682,17.2679,12.9894,17.2679,12.9894Zm-.0106-5.9973L10.24,2.0571a.546.546,0,0,0-.48,0L2.7355,6.9916l7.0257,4.9467a.5415.5415,0,0,0,.4776,0Z" fill="#252a3a" fill-rule="evenodd"/></svg>