<?xml version="1.0" encoding="UTF-8"?><svg id="Layer_1" xmlns="http://www.w3.org/2000/svg" viewBox="0 0 20 20"><path d="M6,4c1.1046,0,2-.8954,2-2S7.1046,0,6,0s-2,.8954-2,2,.8954,2,2,2Zm8,0c1.1046,0,2-.8954,2-2s-.8954-2-2-2-2,.8954-2,2,.8954,2,2,2Zm-6,5.999c0,1.1046-.8954,2-2,2s-2-.8954-2-2,.8954-2,2-2,2,.8954,2,2Zm6,2c1.1046,0,2-.8954,2-2s-.8954-2-2-2-2,.8954-2,2,.8954,2,2,2Zm-6,6.001c0,1.1046-.8954,2-2,2s-2-.8954-2-2,.8954-2,2-2,2,.8954,2,2Zm6,2c1.1046,0,2-.8954,2-2s-.8954-2-2-2-2,.8954-2,2,.8954,2,2,2Z" fill="#180b25" fill-rule="evenodd"/></svg>