<svg id="Icon" xmlns="http://www.w3.org/2000/svg" viewBox="0 0 20 20"><path id="union" d="M16.39,9a2.8916,2.8916,0,0,0-5.5014,0H1.9721a1,1,0,0,0,0,2h8.9161A2.8916,2.8916,0,0,0,16.39,11h1.1383a1,1,0,0,0,0-2ZM10.5563,2A2.8916,2.8916,0,0,0,5.0549,2H1.9721A.9846.9846,0,0,0,1,3a.9839.9839,0,0,0,.9721,1H5.0549a2.8916,2.8916,0,0,0,5.5014,0h2.559c-.0292-.17-.0513-.2786-.068-.361a2.3364,2.3364,0,0,1-.05-.639,2.7363,2.7363,0,0,1,.0632-.7206c.0151-.0731.0332-.16.0543-.2794ZM8.6118,16A2.8916,2.8916,0,0,0,3.11,16H1.9721a1,1,0,0,0,0,2H3.11a2.8916,2.8916,0,0,0,5.5014,0h8.9161a1,1,0,0,0,0-2ZM5.8609,16a1,1,0,1,1-.9722,1A.9864.9864,0,0,1,5.8609,16Zm7.7783-7a1,1,0,1,1-.9722,1A.9863.9863,0,0,1,13.6392,9ZM7.8052,2A1,1,0,1,1,6.833,3,.9863.9863,0,0,1,7.8052,2ZM17,6a3,3,0,1,0-3-3A3,3,0,0,0,17,6Z" fill="#252a3a" fill-rule="evenodd"/></svg>