<svg id="Layer_1" data-name="Layer 1" xmlns="http://www.w3.org/2000/svg" viewBox="0 0 20 20"><path d="M17.7139,2.2677a.9056.9056,0,0,0-1.2807-.0049l-.0054.0054-1.8453,1.85A10.5337,10.5337,0,0,0,10,3.0667a10.8278,10.8278,0,0,0-7.2018,2.802C1.1291,7.346,0,9.2136,0,10.5333s1.1309,3.187,2.8017,4.6648q.1938.1713.394.3337l-.9091.9113a.91.91,0,1,0,1.2856,1.2887l1.15-1.1528A10.5717,10.5717,0,0,0,10,18a10.8337,10.8337,0,0,0,7.198-2.7979C18.87,13.7247,20,11.8571,20,10.5333s-1.1284-3.1916-2.7985-4.6685a11.7918,11.7918,0,0,0-1-.7925l1.5118-1.5154A.9128.9128,0,0,0,17.7139,2.2677ZM13.1723,5.5314A8.7177,8.7177,0,0,0,10,4.9333,9.0461,9.0461,0,0,0,3.9854,7.2825a6.09,6.09,0,0,0-2.1672,3.2508,6.0971,6.0971,0,0,0,2.17,3.2506q.2539.2247.5212.4308L7.281,11.4368a2.9993,2.9993,0,0,1-.1381-.9035A2.8959,2.8959,0,0,1,10,7.6a2.7839,2.7839,0,0,1,.9448.1642Zm-.795,3.3743,2.4935-2.4994a9.865,9.865,0,0,1,1.1441.8728,6.074,6.074,0,0,1,2.1669,3.2542,6.08,6.08,0,0,1-2.17,3.254A9.0523,9.0523,0,0,1,10,16.1333a8.75,8.75,0,0,1-3.9086-.9267l2.2669-2.2722A2.7931,2.7931,0,0,0,10,13.4667a2.896,2.896,0,0,0,2.8571-2.9334A2.976,2.976,0,0,0,12.3773,8.9057Z" fill="#252a3a" fill-rule="evenodd"/></svg>