<svg id="Layer_1" data-name="Layer 1" xmlns="http://www.w3.org/2000/svg" viewBox="0 0 20 20"><path d="M13.6389,7A2.9246,2.9246,0,0,1,16.39,9h1.1383a1,1,0,0,1,0,2H16.39a2.8916,2.8916,0,0,1-5.5014,0H1.9721a1,1,0,1,1,0-2h8.9161A2.9245,2.9245,0,0,1,13.6389,7ZM7.8056,0a2.9245,2.9245,0,0,1,2.7507,2h2.559a3.65,3.65,0,0,0-.1175,1,3.507,3.507,0,0,0,.1175,1h-2.559A2.8916,2.8916,0,0,1,5.0549,4H1.9721A.984.984,0,0,1,1,3.0045V3a.9847.9847,0,0,1,.969-1H5.0549A2.9244,2.9244,0,0,1,7.8056,0ZM5.8611,14a2.9245,2.9245,0,0,1,2.7507,2h8.9161a1,1,0,1,1,0,2H8.6118A2.8916,2.8916,0,0,1,3.11,18H1.9721a1,1,0,1,1,0-2H3.11A2.9246,2.9246,0,0,1,5.8611,14Zm.9722,3a.9726.9726,0,1,0-.9722,1A.9863.9863,0,0,0,6.8333,17Zm7.7778-7a.9726.9726,0,1,0-.9722,1A.9863.9863,0,0,0,14.6111,10ZM8.7778,3a.9726.9726,0,1,0-.9722,1A.9863.9863,0,0,0,8.7778,3Z" fill="#252a3a" fill-rule="evenodd"/><circle cx="17" cy="3" r="3" fill="#252a3a"/></svg>