<?xml version="1.0" encoding="UTF-8"?><svg id="Layer_2" xmlns="http://www.w3.org/2000/svg" xmlns:xlink="http://www.w3.org/1999/xlink" viewBox="0 0 20 20"><defs><clipPath id="clippath"><rect width="20" height="20" fill="none"/></clipPath></defs><g id="Layer_1-2"><g clip-path="url(#clippath)"><g><path d="M19.7062,.2939c-.188-.1882-.4431-.2939-.709-.2939l-6.4342,.0004C12.009,.0004,11.56,.4498,11.5601,1.0042c0,.5543,.449,1.0037,1.0029,1.0037l4.0129-.0002L6.8868,11.7049c-.3917,.392-.3917,1.0275,0,1.4195,.3917,.3919,1.0266,.3919,1.4183,0L17.9943,3.4269V7.4637c0,.5543,.449,1.0037,1.0028,1.0037s1.0029-.4494,1.0029-1.0037V1.0037c0-.2662-.1057-.5215-.2938-.7098Z" fill="#180b25"/><path d="M16.046,9.9015c-.5539,0-1.0029,.4494-1.0029,1.0037v6.0836c0,.5544-.449,1.0038-1.0029,1.0038H3.0086c-.5538,0-1.0029-.4494-1.0029-1.0038V5.9479c0-.5544,.449-1.0037,1.0029-1.0037h6.0546c.5539,0,1.0029-.4494,1.0029-1.0037s-.449-1.0037-1.0029-1.0037H3.0086c-1.6616,0-3.0086,1.3481-3.0086,3.0112v11.0409c0,1.6631,1.347,3.0112,3.0086,3.0112H14.0402c1.6616,0,3.0087-1.3481,3.0087-3.0112v-6.0836c0-.5543-.449-1.0037-1.0029-1.0037Z" fill="#180b25"/></g></g></g></svg>
