<svg id="Layer_1" data-name="Layer 1" xmlns="http://www.w3.org/2000/svg" viewBox="0 0 20 20"><path d="M1.8206,1H18.1794a1.9127,1.9127,0,0,1,1.8187,1.9951v14.01A1.9133,1.9133,0,0,1,18.1794,19H1.8206A1.9127,1.9127,0,0,1,.0019,17.0049V2.9951A1.9134,1.9134,0,0,1,1.8206,1ZM18.1794,17l-16.36.0049L1.8206,3l16.36-.0049ZM5.9915,8.2814a1,1,0,0,1,1.7769-.0868L8.77,9.9315a1,1,0,0,0,1.3655.367h0c.0222-.0129.0439-.0265.0651-.041l.7108-.4863a1,1,0,0,1,1.39.2609l0,0,.0138.0207,1.557,2.4033A1,1,0,0,1,13.0323,14h-8.08a1,1,0,0,1-.9112-1.4126ZM14.999,9a1.4366,1.4366,0,0,0,1.3634-1.5,1.37,1.37,0,1,0-2.7267,0A1.4366,1.4366,0,0,0,14.999,9Z" fill="#252a3a" fill-rule="evenodd"/></svg>