<svg id="Layer_1" data-name="Layer 1" xmlns="http://www.w3.org/2000/svg" viewBox="0 0 20 20"><path d="M7.819,15.6387a7.7849,7.7849,0,0,0,4.7427-1.6021l5.66,5.66a1.0426,1.0426,0,0,0,1.4744-1.4744l-5.66-5.66A7.8193,7.8193,0,1,0,7.819,15.6387ZM2.0851,7.8194A5.734,5.734,0,1,0,7.819,2.0852,5.734,5.734,0,0,0,2.0851,7.8194Zm8.6135-2.88a.8471.8471,0,0,1,0,1.198h0L9.017,7.8193l1.6816,1.6816a.8471.8471,0,0,1-1.1979,1.198L7.819,9.0172,6.1375,10.6989A.8471.8471,0,0,1,4.94,9.5009L6.6211,7.8193,4.94,6.1377A.8471.8471,0,0,1,6.1375,4.94L7.819,6.6213,9.5007,4.94a.8471.8471,0,0,1,1.1978,0h0Z" fill="#252a3a" fill-rule="evenodd"/></svg>