<svg data-name="Layer 1" xmlns="http://www.w3.org/2000/svg" viewBox="0 0 20 20"><path d="M6.8016,16.2458a1.1456,1.1456,0,0,0,1.1555.7533L7.9984,17a1.213,1.213,0,0,0,.9612-.7329l3.6036-9.128,1.3563,3.273c.0693.1014.1263.1911.1769.2709a1.0836,1.0836,0,0,0,.8908.6388h3.9017a1.1608,1.1608,0,0,0,0-2.3194H15.7465l-2.141-5.3032A1.0034,1.0034,0,0,0,12.5632,3c-.6683,0-1.0266.2949-1.1.7168L7.9167,12.6992l-1.14-3.0669c-.3138-.49-.37-.5-.7662-.5694h0c-.0871-.0153-.1906-.0336-.3168-.0605H1.1111a1.1608,1.1608,0,0,0,0,2.3194H4.9043Z" fill="#252a3a" fill-rule="evenodd"/></svg>