<svg id="Layer_1" data-name="Layer 1" xmlns="http://www.w3.org/2000/svg" viewBox="0 0 20 20"><path d="M9.71,16.0708V3.93h8.3088V16.0708ZM9.6628,1.9531A1.9294,1.9294,0,0,0,7.7334,3.8825V16.1178a1.9294,1.9294,0,0,0,1.9294,1.9294h8.403a1.9294,1.9294,0,0,0,1.9294-1.9294V3.8825a1.9294,1.9294,0,0,0-1.9294-1.9294ZM4.8322,5.3414H1.9994V14.659H4.8322a.9883.9883,0,0,1,0,1.9765h-2.88A1.93,1.93,0,0,1,.0229,14.7061V5.2943a1.93,1.93,0,0,1,1.93-1.9294h2.88a.9883.9883,0,0,1,0,1.9765Z" fill="#252a3a" fill-rule="evenodd"/></svg>