<svg id="Layer_1" data-name="Layer 1" xmlns="http://www.w3.org/2000/svg" viewBox="0 0 20 20"><path d="M17.4073,3.041H2.5928A1.637,1.637,0,0,0,.9458,4.6672V16.0861a1.6363,1.6363,0,0,0,1.6464,1.6261H17.4073a1.6371,1.6371,0,0,0,1.647-1.6261V4.6672A1.6364,1.6364,0,0,0,17.4078,3.041ZM7.19,10.3766,2.592,14.93V5.8245Zm9.0543,5.7056c-2.7685,0-9.7239.001-12.4907.0025l4.6-4.5554L9.418,12.5831a.8289.8289,0,0,0,1.1641,0l1.0642-1.0538Zm1.1637-1.153V5.8238L12.81,10.3766ZM3.7523,4.6711c2.7672,0,9.7326-.001,12.4981-.0026L10,10.881Z" fill="#252a3a" fill-rule="evenodd"/></svg>