<svg id="Warning" xmlns="http://www.w3.org/2000/svg" viewBox="0 0 20 20"><path d="M12.3416,1.7276,19.53,15.552C20.7191,17.838,19.5537,20,17.1318,20H2.87C.4463,20-.72,17.8428.47,15.5524L7.6515,1.728C8.8476-.5746,11.143-.5773,12.3416,1.7276ZM10,17.4914a1.6667,1.6667,0,1,1,1.6667-1.6667A1.6667,1.6667,0,0,1,10,17.4914ZM10,3.9959A1.7574,1.7574,0,0,0,8.3333,5.4915V10.958A1.8437,1.8437,0,0,0,10,12.5463a1.838,1.838,0,0,0,1.6667-1.5883V5.4915A1.7628,1.7628,0,0,0,10,3.9959Z" fill="#252a3a" fill-rule="evenodd"/></svg>