<svg id="User" xmlns="http://www.w3.org/2000/svg" viewBox="0 0 20 20"><path d="M10,20A10,10,0,1,0,0,10,10,10,0,0,0,10,20ZM6.904,18.1717a8.2242,8.2242,0,0,1-2.7386-1.4943.4432.4432,0,0,1,.0544-.7285l3.4278-1.7932a.616.616,0,0,0,.3446-.56V13.091a.6647.6647,0,0,0-.1451-.411,7.1308,7.1308,0,0,1-1.0882-1.9987.4078.4078,0,0,0-.0907-.1494,1.5393,1.5393,0,0,1-.4171-.9153,1.157,1.157,0,0,1,.2176-1.0273.3741.3741,0,0,0,.1088-.2615v-2.41A2.807,2.807,0,0,1,8.3368,3.6019a5.2136,5.2136,0,0,1,3.2464-.0187A2.814,2.814,0,0,1,13.415,5.9181v2.41a.3741.3741,0,0,0,.1088.2615,1.157,1.157,0,0,1,.2176,1.0273,1.6628,1.6628,0,0,1-.4171.9153.4078.4078,0,0,0-.0907.1494,7.1156,7.1156,0,0,1-1.1063,2.0174.502.502,0,0,0-.127.3549v.5791a.54.54,0,0,0,.29.4856l3.4641,1.8306a.4389.4389,0,0,1,.0906.7285,7.58,7.58,0,0,1-2.63,1.457A9.92,9.92,0,0,1,6.904,18.1717Z" fill="#252a3a" fill-rule="evenodd"/></svg>