<svg id="Layer_1" data-name="Layer 1" xmlns="http://www.w3.org/2000/svg" viewBox="0 0 20 20"><path d="M10.7437,13.736,8.3282,11.3155A4.4429,4.4429,0,0,0,9.003,8.9762,4.5067,4.5067,0,1,0,6.87,12.7768l2.4162,2.4205A1.032,1.032,0,0,0,10.7573,13.75Zm8.4571-5.57H14.3969a.747.747,0,0,0-.5653.2686,1.0133,1.0133,0,0,0-.0022,1.2934l2.2654,2.6854a.9129.9129,0,0,0,1.4166-.0032l1.9333-2.3109.3211-.3683a1.014,1.014,0,0,0,0-1.2964.7473.7473,0,0,0-.565-.2682Zm-17.7571.81a3.0925,3.0925,0,1,0,3.097-3.0987H4.5361A3.0959,3.0959,0,0,0,1.4437,8.9762Z" fill="#252a3a" fill-rule="evenodd"/></svg>