<svg id="Layer_1" data-name="Layer 1" xmlns="http://www.w3.org/2000/svg" viewBox="0 0 20 20"><path d="M11.9347,2.1053a1.1237,1.1237,0,0,0,.19-.6167C12.125.6665,11.1736,0,10,0S7.875.6665,7.875,1.4886a1.1237,1.1237,0,0,0,.19.6167H2.5526a1.0526,1.0526,0,0,0-.0011,2.1052h.0111V17.8951A2.1129,2.1129,0,0,0,4.6835,20H15.3142a2.1158,2.1158,0,0,0,2.1233-2.1049V4.2105h.01a1.0526,1.0526,0,0,0,0-2.1052Zm3.3778,2.1052H4.6875V17.8947h10.625ZM12.125,6.3158a1.0625,1.0625,0,0,0-1.0625,1.0625V14.727a1.0625,1.0625,0,0,0,2.125,0V7.3783A1.0625,1.0625,0,0,0,12.125,6.3158ZM6.8125,7.3783a1.0625,1.0625,0,1,1,2.125,0V14.727a1.0625,1.0625,0,0,1-2.125,0Z" fill="#252a3a" fill-rule="evenodd"/></svg>