<svg id="Icon" xmlns="http://www.w3.org/2000/svg" viewBox="0 0 20 20"><path id="Union" d="M3.3294.5449a.8325.8325,0,0,0-.8325.8325v.8369H2.4934A2.4983,2.4983,0,0,0,0,4.7181v10.85a2.4989,2.4989,0,0,0,2.4934,2.5038H8.1988A7.3885,7.3885,0,0,1,7.04,16.4019H2.495a.8319.8319,0,0,1-.8284-.8347V8.0564H8.223a7.3921,7.3921,0,0,1,2.2964-1.6691H1.6666V4.7178a.8313.8313,0,0,1,.8284-.8347h.0019v.0023a.8325.8325,0,0,0,1.665,0V3.8831H5.8291v.0023a.8325.8325,0,0,0,1.665,0V3.8831H9.1583v.0023a.8325.8325,0,0,0,1.665,0V3.8831h1.6642v.0023a.8325.8325,0,1,0,1.665,0V3.8831h.0057a.8318.8318,0,0,1,.8284.8347V5.8309a7.3152,7.3152,0,0,1,1.6634.5226V4.7181a2.4989,2.4989,0,0,0-2.4934-2.5038h-.0041V1.3774a.8325.8325,0,1,0-1.665,0v.8369H10.8233V1.3774a.8325.8325,0,1,0-1.665,0v.8369H7.4941V1.3774a.8325.8325,0,1,0-1.665,0v.8369H4.1619V1.3774A.8325.8325,0,0,0,3.3294.5449ZM13.622,8.5216a4.5558,4.5558,0,1,0,4.5557,4.5558A4.5558,4.5558,0,0,0,13.622,8.5216ZM7.2439,13.0774a6.3781,6.3781,0,1,1,6.3781,6.378A6.3781,6.3781,0,0,1,7.2439,13.0774ZM13.6224,9.643a.81.81,0,0,1,.81.81v2.47H16.153a.81.81,0,0,1,0,1.62H13.6224a.81.81,0,0,1-.81-.81v-3.28A.81.81,0,0,1,13.6224,9.643Z" fill="#252a3a" fill-rule="evenodd"/></svg>