<svg id="Layer_1" data-name="Layer 1" xmlns="http://www.w3.org/2000/svg" viewBox="0 0 20 20"><path d="M17.198,15.19A10.8071,10.8071,0,0,1,10,18a10.8024,10.8024,0,0,1-7.1983-2.8144C1.1309,13.7012,0,11.8254,0,10.5S1.1291,7.2984,2.7982,5.8146A10.8,10.8,0,0,1,10,3a10.8054,10.8054,0,0,1,7.2015,2.8106C18.8716,7.2941,20,9.17,20,10.5S18.87,13.7056,17.198,15.19ZM10,16.125a9.0257,9.0257,0,0,1-6.0115-2.36A6.1274,6.1274,0,0,1,1.8182,10.5,6.1212,6.1212,0,0,1,3.9854,7.2347,9.0235,9.0235,0,0,1,10,4.875a9.0278,9.0278,0,0,1,6.0149,2.3563A6.1039,6.1039,0,0,1,18.1818,10.5a6.11,6.11,0,0,1-2.17,3.2685A9.03,9.03,0,0,1,10,16.125ZM12.8571,10.5A2.8585,2.8585,0,1,1,10,7.5536,2.9027,2.9027,0,0,1,12.8571,10.5Z" fill="#252a3a" fill-rule="evenodd"/></svg>