<svg id="Layer_1" data-name="Layer 1" xmlns="http://www.w3.org/2000/svg" viewBox="0 0 20 20"><path d="M4.3,0a.95.95,0,0,0-.95.95h0v.9548H3.3453A2.8509,2.8509,0,0,0,.5,4.7613h0V17.1428A2.8516,2.8516,0,0,0,3.3453,20H16.6547A2.8509,2.8509,0,0,0,19.5,17.1435h0V4.762a2.8516,2.8516,0,0,0-2.8453-2.8572H16.65V.95a.95.95,0,1,0-1.9-.0012v.956h-1.9V.95a.95.95,0,1,0-1.9-.0012v.956H9.05V.95a.95.95,0,1,0-1.9,0v.9548H5.25V.95A.95.95,0,0,0,4.3,0ZM14.75,3.8119V3.81h-1.9v.0024a.95.95,0,1,1-1.9.0012V3.81H9.05v.0024a.95.95,0,1,1-1.9,0h0V3.81H5.25v.0024a.95.95,0,1,1-1.9,0h0V3.81H3.3453A.9486.9486,0,0,0,2.4,4.7619h0V6.6667H17.6V4.762a.9492.9492,0,0,0-.9453-.9525H16.65v.0024a.95.95,0,0,1-1.9.0012Zm2.85,4.76H2.4v8.5714a.9492.9492,0,0,0,.9453.9524H16.6547A.9485.9485,0,0,0,17.6,17.144h0Zm-4.3955,1.7418L9.4257,14.0884l-1.5125-1.51a1.0683,1.0683,0,1,0-1.5243,1.4972l.0128.0128L8.67,16.3535a1.0684,1.0684,0,0,0,1.5109.0006l.0006-.0006,4.5344-4.53a1.0683,1.0683,0,0,0-1.4937-1.5277l-.0177.0177Z" fill="#252a3a" fill-rule="evenodd"/></svg>