<svg id="Layer_1" data-name="Layer 1" xmlns="http://www.w3.org/2000/svg" viewBox="0 0 20 20"><path d="M19.9218,13.2308a1.3632,1.3632,0,0,0-1.1307-1.7565,1.8439,1.8439,0,0,0-1.9334,1.1975,7.0149,7.0149,0,0,1-2.0652,2.7307,7.2919,7.2919,0,0,1-9.3047-.1587A6.9562,6.9562,0,0,1,3.14,10.9744,6.8728,6.8728,0,0,1,4.1926,6.2381,7.1481,7.1481,0,0,1,8.14,3.3045a7.32,7.32,0,0,1,4.9516.2747A7.1631,7.1631,0,0,1,15.53,5.2841H13.912a1.1911,1.1911,0,0,0-.0635,2.3814H13.85q.0307.0008.0617,0h4.864a1.2288,1.2288,0,0,0,.865-.3492A1.1621,1.1621,0,0,0,20,6.4748V1.717a1.2187,1.2187,0,0,0-2.4369,0v1.3A10.2444,10.2444,0,0,0,14.3165.8275,10.4569,10.4569,0,0,0,7.2427.4349a10.2113,10.2113,0,0,0-5.64,4.191A9.818,9.818,0,0,0,.1,11.392a9.9368,9.9368,0,0,0,3.3535,6.0991,10.4171,10.4171,0,0,0,13.2925.2268A10.0017,10.0017,0,0,0,19.9218,13.2308Z" fill="#252a3a" fill-rule="evenodd"/></svg>