<?xml version="1.0" encoding="UTF-8"?><svg id="Layer_2" xmlns="http://www.w3.org/2000/svg" xmlns:xlink="http://www.w3.org/1999/xlink" viewBox="0 0 20 20"><defs><clipPath id="clippath"><rect width="20" height="20" fill="none"/></clipPath></defs><g id="Layer_1-2"><g clip-path="url(#clippath)"><path d="M14.4974,1.7998h.7523c.7386,0,1.441,.302,1.9545,.8301,.5125,.5271,.7956,1.2362,.7956,1.9699v12.5995c0,.7336-.2831,1.4427-.7956,1.9698-.5135,.5281-1.2159,.8301-1.9545,.8301H4.7491c-.7386,0-1.441-.302-1.9545-.8301-.5125-.5271-.7956-1.2362-.7956-1.9698V4.5997c0-.7337,.2831-1.4427,.7956-1.9699,.5134-.528,1.2159-.8301,1.9545-.8301h.7532C5.5538,.8211,6.348,.001,7.3747,.001h5.2503C13.6516,.001,14.4459,.8211,14.4974,1.7998Zm-6.9978,1.801v-1.5998h5.0003v.769c-.0003,.0099-.0004,.0198-.0004,.0298,0,.01,0,.0199,.0004,.0298v.7712H7.4997Zm6.9979,.199c-.0504,.9797-.8451,1.801-1.8725,1.801H7.3747c-1.0274,0-1.8221-.8213-1.8725-1.801h-.7531c-.1897,0-.3776,.0773-.5206,.2243-.1439,.148-.2295,.3546-.2295,.5756v12.5995c0,.221,.0857,.4276,.2295,.5756,.143,.147,.3308,.2243,.5206,.2243H15.2497c.1897,0,.3776-.0773,.5205-.2243,.1439-.148,.2296-.3546,.2296-.5756V4.5997c0-.2211-.0857-.4276-.2296-.5756-.1429-.147-.3308-.2243-.5205-.2243h-.7522Z" fill="#180b25" fill-rule="evenodd"/></g></g></svg>
