<?xml version="1.0" encoding="UTF-8"?><svg id="Layer_1" xmlns="http://www.w3.org/2000/svg" viewBox="0 0 20 20"><path d="M5.8454,1.5c-.8614,0-1.5603.6994-1.5603,1.5621,0,.8647.6989,1.5631,1.5603,1.5631h3.1629c-.1255-.3591-.2991-.7826-.5292-1.2015-.5915-1.0768-1.4347-1.9237-2.6337-1.9237ZM16.775,4.6523c.2817-.4636.4439-1.008.4439-1.5902,0-1.6894-1.3687-3.0621-3.0602-3.0621-2.0342,0-3.2695,1.4658-3.9482,2.7016-.0746.1358-.1439.2713-.2083.4049-.0644-.1336-.1337-.2691-.2083-.4049-.6788-1.2358-1.9142-2.7015-3.9484-2.7015-1.6916,0-3.0603,1.3727-3.0603,3.0621,0,.5823.1622,1.1267.444,1.5902h-.4102c-1.4196,0-2.5689,1.1514-2.5689,2.5701v.841c0,1.0899.651,2.0288,1.5859,2.4471v6.1983c0,1.8154,1.4706,3.2892,3.286,3.2892h4.8243c.0181.0013.0363.0019.0547.0019.0184,0,.0366-.0006.0547-.0019h4.8249c1.8158,0,3.285-1.4741,3.285-3.2892v-6.1619c.9302-.3867,1.5844-1.3048,1.5844-2.3754v-.8391c0-1.4794-1.198-2.6801-2.6778-2.6801h-.2972ZM10.751,18.498h4.1296c.9849,0,1.785-.8001,1.785-1.7892v-5.9662h-5.9146v7.7554ZM9.251,10.7426H3.3359v5.9662c0,.9887.8008,1.7892,1.786,1.7892h4.129v-7.7554ZM10.9962,4.6252h3.1625c.8614,0,1.5602-.6984,1.5602-1.5631,0-.8627-.6988-1.5621-1.5602-1.5621-1.199,0-2.0421.8468-2.6335,1.9236-.23.419-.4036.8424-.529,1.2016ZM1.75,7.2224c0-.5914.4788-1.0701,1.0689-1.0701h14.2533c.6497,0,1.1778.5274,1.1778,1.1801v.8391c0,.5924-.4799,1.0711-1.0689,1.0711H2.9278c-.6499,0-1.1778-.5277-1.1778-1.1791v-.841Z" fill="#001531" fill-rule="evenodd" stroke-width="0"/></svg>