<svg id="Layer_1" data-name="Layer 1" xmlns="http://www.w3.org/2000/svg" viewBox="0 0 20 20"><path d="M16.6234,10.3508A8.3117,8.3117,0,1,1,8.3117,2.0391h0q.2,0,.3974.0093a4.8089,4.8089,0,0,1,2.2822,2.215l-.01-.0042a10.9208,10.9208,0,0,1,.8344,1.9548,18.1365,18.1365,0,0,1,.6231,3.2818L12.44,9.52h4.1415A8.2349,8.2349,0,0,1,16.6234,10.3508ZM10.96,16.452a6.6563,6.6563,0,0,0,3.95-5.27H12.44A12.8615,12.8615,0,0,1,10.96,16.452ZM9.7177,5.4291A11.1625,11.1625,0,0,1,10.776,9.52H5.8474A11.1625,11.1625,0,0,1,6.9057,5.4291c.5375-1.089,1.1666-1.7277,1.406-1.7277S9.18,4.34,9.7177,5.4291ZM1.7138,11.1819h2.47a12.8617,12.8617,0,0,0,1.4805,5.27A6.656,6.656,0,0,1,1.7138,11.1819ZM5.6417,4.2592A12.8556,12.8556,0,0,0,4.1826,9.52H1.7138A6.6561,6.6561,0,0,1,5.6417,4.2592ZM6.92,15.27a11.1154,11.1154,0,0,1-1.072-4.0881h4.9274A11.1137,11.1137,0,0,1,9.7032,15.27C9.1638,16.3546,8.5314,17,8.3117,17S7.46,16.3546,6.92,15.27Z" fill="#252a3a" fill-rule="evenodd"/><path d="M20,4.3766A3.3767,3.3767,0,1,1,16.6232,1h0A3.3768,3.3768,0,0,1,20,4.3766Z" fill="#252a3a"/></svg>