<svg id="Layer_1" data-name="Layer 1" xmlns="http://www.w3.org/2000/svg" viewBox="0 0 20 20"><path d="M17.198,14.69A10.8075,10.8075,0,0,1,10,17.5a10.8024,10.8024,0,0,1-7.1983-2.8144C1.1309,13.2012,0,11.3254,0,10S1.1291,6.7984,2.7982,5.3146A10.8,10.8,0,0,1,10,2.5a10.8052,10.8052,0,0,1,7.2015,2.8106C18.8716,6.7941,20,8.67,20,10S18.87,13.2056,17.198,14.69ZM10,15.625a9.0257,9.0257,0,0,1-6.0115-2.36A6.127,6.127,0,0,1,1.8182,10,6.1212,6.1212,0,0,1,3.9854,6.7347,9.0235,9.0235,0,0,1,10,4.375a9.0282,9.0282,0,0,1,6.0149,2.3563A6.1039,6.1039,0,0,1,18.1818,10a6.11,6.11,0,0,1-2.17,3.2685A9.03,9.03,0,0,1,10,15.625ZM12.8571,10A2.8585,2.8585,0,1,1,10,7.0536,2.9027,2.9027,0,0,1,12.8571,10Z" fill="#252a3a" fill-rule="evenodd"/></svg>