<?xml version="1.0" encoding="UTF-8"?><svg id="Layer_1" xmlns="http://www.w3.org/2000/svg" xmlns:xlink="http://www.w3.org/1999/xlink" viewBox="0 0 20 20"><defs><clipPath id="clippath"><rect width="20" height="20" fill="none"/></clipPath></defs><g clip-path="url(#clippath)"><path d="M8.902,18.9767c.6697,.1118,1.2662-.1771,1.6444-.5701,.5484-.57,1.2704-1.3233,2.035-2.121l.0011-.0011,.0004-.0004c.9951-1.0383,2.0621-2.1516,2.9123-3.0335,.5397-.5599,.8417-1.3066,.8417-2.0852V4.0313c0-1.6496-1.3294-2.9935-2.9842-2.9999-2.3456-.0091-6.2223-.0238-8.5674-.0313-1.5481-.005-2.9179,1.0108-3.3453,2.5085C.8337,5.6333,.3906,7.3726,.0748,8.7133c-.2455,1.0422,.1506,2.0861,.8259,2.8261,.6882,.7542,1.7271,1.2727,2.9377,1.2727h3.0992c-.2597,.8142-.5231,1.815-.5582,2.7506-.0254,.6789,.0621,1.4447,.4637,2.1045,.4289,.7048,1.1339,1.1551,2.0589,1.3095Zm.2357-1.9906l-.0324,.0337c.0023-.0016,.0075-.0045,.0164-.0079,.0195-.0074,.0587-.0164,.1097-.0079-.0327-.0055-.0639-.0114-.0936-.0179Zm0,0c-.3626-.0787-.5061-.2272-.5862-.3587-.114-.1873-.1918-.5033-.1735-.9897,.037-.9877,.4396-2.1755,.7642-3.099,.2989-.8502-.3353-1.7266-1.2244-1.7266H3.8384c-.6266,0-1.1362-.2656-1.4604-.6208-.337-.3694-.4175-.7603-.3565-1.0195,.3086-1.3101,.7438-3.0193,1.3417-5.1144,.1791-.6275,.7538-1.0594,1.4156-1.0573,2.3443,.0075,6.2204,.0223,8.5661,.0313,.5481,.0021,.992,.4466,.992,.9999v7.1341c0,.26-.1006,.5093-.2816,.6972-.8474,.879-1.9232,2.0014-2.9232,3.0447l-.0006,.0006c-.75,.7826-1.4574,1.5207-1.9938,2.0782Zm8.8603-5.99c0,.5523,.4478,1,1,1s1-.4477,1-1V2.4207c0-.5523-.4477-1-1-1s-1,.4477-1,1V10.9961Z" fill="#001531" fill-rule="evenodd"/></g></svg>