<svg id="Icon" xmlns="http://www.w3.org/2000/svg" viewBox="0 0 20 20"><path id="Black_Fill" data-name="Black Fill" d="M1.0938.93H19.0722V19.0585H1.0938Z" fill="#252a3a"/><path id="Gray_Fill" data-name="Gray Fill" d="M1.0938.93H19.0722V19.0585H1.0938Z" fill="#fff" fill-opacity="0.9"/><path id="Outlines" d="M.5,1.4661A.9647.9647,0,0,1,1.4632.5H18.5368a.9647.9647,0,0,1,.9632.9661V18.5339a.9647.9647,0,0,1-.9632.9661H1.4632A.9647.9647,0,0,1,.5,18.5339Zm.9632-.1073a.1072.1072,0,0,0-.107.1073v9.2H8.4036a.9648.9648,0,0,1,.9632.9662v7.009h9.17a.1072.1072,0,0,0,.107-.1073V1.4661a.1072.1072,0,0,0-.107-.1073ZM8.5106,18.6412v-7.009a.1072.1072,0,0,0-.107-.1074H1.3562v7.0091a.1072.1072,0,0,0,.107.1073Z" fill="#252a3a" fill-rule="evenodd"/></svg>