<svg id="Layer_1" data-name="Layer 1" xmlns="http://www.w3.org/2000/svg" viewBox="0 0 20 20"><path d="M17.999,8.8879V3.8137C17.999,1.7527,13.97.082,9,.082S0,1.7527,0,3.8137v12.455C0,18.33,4.0292,20,9,20a20.7383,20.7383,0,0,0,2.9489-.2092,6.4418,6.4418,0,0,0,6.05-10.9029Z" fill="#252a3a"/><path d="M17.999,8.8059V3.8137C17.999,1.7527,13.97.082,9,.082S0,1.7527,0,3.8137v12.455C0,18.33,4.0292,20,9,20a20.876,20.876,0,0,0,2.7955-.1859A6.5027,6.5027,0,0,0,17.999,8.8059Z" fill="#fff" fill-opacity="0.9"/><path d="M18,3.5a1.3976,1.3976,0,0,1-.0086.1544A1.57,1.57,0,0,1,18,3.8137V8.88a6.49,6.49,0,0,0-.9208-.7306,1.0268,1.0268,0,0,0,.0083-.13H17.1V5.0278C15.6407,6.1953,12.562,7,9,7S2.3593,6.1953.9,5.0278V8.02H.9056c0,.7.72,1.4666,2.2364,2.0819a14.863,14.863,0,0,0,4.4666.9325,6.4372,6.4372,0,0,0-.2766.7937A15.64,15.64,0,0,1,2.7679,10.84,6.5362,6.5362,0,0,1,.9,9.7447V12.12H.9091c0,.7.7176,1.4667,2.2285,2.0819a14.4654,14.4654,0,0,0,4.1525.91,6.39,6.39,0,0,0,.2694.8342,15.775,15.775,0,0,1-4.7949-1.0052A6.5052,6.5052,0,0,1,.9,13.8424v2.4263c0,.5219.5487,1.2535,2.1121,1.9017A16.2074,16.2074,0,0,0,9,19.1892c.4577,0,.9055-.0148,1.3408-.0431a6.4169,6.4169,0,0,0,1.5981.6508A20.8179,20.8179,0,0,1,9,20C4.03,20,.0005,18.33.0005,16.2687V3.8137a1.5844,1.5844,0,0,1,.0081-.16A1.3836,1.3836,0,0,1,0,3.5C0,1.567,4.0294,0,9,0S18,1.567,18,3.5ZM3.0125,1.912c-1.3868.575-1.9752,1.2156-2.09,1.7173.0887.4722.6658,1.0914,2.0941,1.6469A17.16,17.16,0,0,0,9,6.2309a17.16,17.16,0,0,0,5.9838-.9547c1.4281-.5554,2.0052-1.1745,2.0941-1.6468-.1152-.5017-.7035-1.1423-2.09-1.7174A16.2074,16.2074,0,0,0,9,.8932,16.2054,16.2054,0,0,0,3.0125,1.912ZM18.01,11.8457a.72.72,0,0,0,.0142-1.0181l-.0142-.0142a.7542.7542,0,0,0-1.0523,0l-4.3567,4.274-2.031-1.993a.7544.7544,0,0,0-1.0523,0,.72.72,0,0,0-.0142,1.0181l.0142.0142,2.5577,2.5091a.7541.7541,0,0,0,1.0522,0Z" fill="#252a3a" fill-rule="evenodd"/></svg>