<svg id="Teams_Folder" data-name="Teams Folder" xmlns="http://www.w3.org/2000/svg" viewBox="0 0 20 20"><path d="M2.1663,2.0254H7.4235a1.7857,1.7857,0,0,1,1.3475.74l1.2323,1.12h7.8226a1.7568,1.7568,0,0,1,1.7435,1.77V16.2026a1.7569,1.7569,0,0,1-1.7407,1.7718H2.1713A1.7541,1.7541,0,0,1,.4306,16.207h0V3.7931A1.7556,1.7556,0,0,1,2.1663,2.0254Z" fill="#252a3a"/><path d="M2.1663,2.0254H7.4235a1.7857,1.7857,0,0,1,1.3475.74l1.2323,1.12h7.8226a1.7568,1.7568,0,0,1,1.7435,1.77V16.2026a1.7569,1.7569,0,0,1-1.7407,1.7718H2.1713A1.7541,1.7541,0,0,1,.4306,16.207h0V3.7931A1.7556,1.7556,0,0,1,2.1663,2.0254Z" fill="#fff" fill-opacity="0.9"/><path d="M17.8259,3.4554H10.17L9.0992,2.4821a2.1228,2.1228,0,0,0-.7126-.6174,2.0588,2.0588,0,0,0-.963-.27H2.1663A2.1863,2.1863,0,0,0,0,3.7931V16.2066a2.1846,2.1846,0,0,0,2.1708,2.1983H17.8287A2.1874,2.1874,0,0,0,20,16.2025V5.6578a2.1875,2.1875,0,0,0-2.1723-2.2024Zm1.3129,12.7471a1.3263,1.3263,0,0,1-1.31,1.3412H2.1713a1.3234,1.3234,0,0,1-1.31-1.3367h0V3.7931A1.3251,1.3251,0,0,1,2.1663,2.456H7.4236a1.21,1.21,0,0,1,.5483.1636,1.2328,1.2328,0,0,1,.4369.379l.0306.0477,1.3974,1.27h7.9891a1.3261,1.3261,0,0,1,1.3129,1.3392v10.547Z" fill="#252a3a"/><circle cx="9.0002" cy="7.6249" r="1.6249" fill="#252a3a"/><path d="M12.5,9.25a1.125,1.125,0,1,0-1.1249-1.1251h0A1.125,1.125,0,0,0,12.5,9.25Z" fill="#252a3a"/><path d="M13.4,9.9725H11.5552a.47.47,0,0,0-.3881-.2224H6.5837a.47.47,0,0,0-.4582.4807v2.8847A2.82,2.82,0,0,0,8.8754,16a2.8188,2.8188,0,0,0,2.4167-1.4866,1.7383,1.7383,0,0,0,.8292.2091H12.13a1.7457,1.7457,0,0,0,1.7457-1.7457V10.4475a.475.475,0,0,0-.475-.475H13.4Z" fill="#252a3a"/></svg>