<?xml version="1.0" encoding="UTF-8"?><svg id="Layer_1" xmlns="http://www.w3.org/2000/svg" viewBox="0 0 20 20"><path d="M1.5,3.5c0-1.3807,1.1193-2.5,2.5-2.5h7.9992c.8973,0,1.7475.4016,2.3173,1.0948l1.3329,1.6212,2.1894,2.7255c.428.5327.6612,1.1955.6612,1.8788v8.1798c0,1.3807-1.1193,2.5-2.5,2.5H4c-1.3807,0-2.5-1.1193-2.5-2.5V3.5Z" fill="#001531" stroke-width="0"/><path d="M1.5,3.5c0-1.3807,1.1193-2.5,2.5-2.5h7.9992c.8973,0,1.7475.4016,2.3173,1.0948l1.3329,1.6212,2.1894,2.7255c.428.5327.6612,1.1955.6612,1.8788v8.1798c0,1.3807-1.1193,2.5-2.5,2.5H4c-1.3807,0-2.5-1.1193-2.5-2.5V3.5Z" fill="rgba(255,255,255,.9)" stroke-width="0"/><path d="M4,1.5c-1.1046,0-2,.8954-2,2v13c0,1.1046.8954,2,2,2h2.0027v-4.5c0-1.3807,1.1193-2.5,2.5-2.5h2.9973c1.3807,0,2.5,1.1193,2.5,2.5v4.5h2c1.1046,0,2-.8954,2-2v-8.1798c0-.5694-.1944-1.1217-.551-1.5657l-2.1876-2.7233-1.3311-1.619c-.4749-.5776-1.1833-.9123-1.9311-.9123h-7.9992ZM13,18.5v-4.5c0-.8284-.6716-1.5-1.5-1.5h-2.9973c-.8284,0-1.5.6716-1.5,1.5v4.5h5.9973ZM1,3.5C1,1.8432,2.3431.5,4,.5h7.9992c1.0468,0,2.0387.4686,2.7036,1.2772l1.3364,1.6256,2.1894,2.7256c.4993.6215.7714,1.3947.7714,2.1919v8.1798c0,1.6569-1.3431,3-3,3H4c-1.6569,0-3-1.3431-3-3V3.5ZM6.0027,6.15c0-.2761.2239-.5.5-.5h5.4973c.2761,0,.5.2239.5.5s-.2239.5-.5.5h-5.4973c-.2761,0-.5-.2239-.5-.5Z" fill="#001531" fill-rule="evenodd" stroke-width="0"/></svg>