<?xml version="1.0" encoding="UTF-8"?><svg id="Layer_1" xmlns="http://www.w3.org/2000/svg" viewBox="0 0 20 20"><path d="M10,0c-3.3137,0-6,2.6863-6,6v1.5415c-1.4189.238-2.5,1.472-2.5,2.9585v6.5c0,1.6569,1.3431,3,3,3h11c1.6569,0,3-1.3431,3-3v-6.5c0-1.4865-1.0811-2.7205-2.5-2.9585v-1.5415c0-3.3137-2.6863-6-6-6Z" fill="#001531" stroke-width="0"/><path d="M10,0c-3.3137,0-6,2.6863-6,6v1.5415c-1.4189.238-2.5,1.472-2.5,2.9585v6.5c0,1.6569,1.3431,3,3,3h11c1.6569,0,3-1.3431,3-3v-6.5c0-1.4865-1.0811-2.7205-2.5-2.9585v-1.5415c0-3.3137-2.6863-6-6-6Z" fill="rgba(255,255,255,.9)" stroke-width="0"/><path d="M4.5,8.0086h10.9974M4.5,8.0086c-.1387-3.0015.2461-4.2944,1.2125-5.4798.8241-1.0107,2.3008-2.0288,4.3115-2.0288s3.3662.9713,4.2435,2.0288c.9942,1.1983,1.3806,2.4557,1.2299,5.4798M4.5,8.0086c-1.3807,0-2.5,1.1193-2.5,2.5v6.4914c0,1.3807,1.1193,2.5,2.5,2.5h11c1.3807,0,2.5-1.1193,2.5-2.5v-6.4914c0-1.3807-1.1219-2.5-2.5026-2.5" fill="none" stroke="#001531"/><path d="M8.6875,13.2737c0-.7029.5876-1.2727,1.3125-1.2727s1.3125.5698,1.3125,1.2727c0,.4711-.2639.8824-.6562,1.1025v.489c0,.3511-.2913.6358-.6563.6358-.3624,0-.6562-.2822-.6562-.6358v-.489c-.3923-.2201-.6562-.6314-.6562-1.1025Z" fill="#001531" fill-rule="evenodd" stroke-width="0"/></svg>