<?xml version="1.0" encoding="UTF-8"?><svg id="Layer_1" xmlns="http://www.w3.org/2000/svg" viewBox="0 0 12 12"><path d="M2.4776,1.2526c.0913-.5498.5656-.9528,1.1214-.9528h4.8012c.5558,0,1.0301.403,1.1214.9528l.4096,2.4672h.9c.3139,0,.5684.2552.5684.57v1.425c0,.2237-.1285.4173-.3155.5106l-.6232,4.4915c-.0782.5635-.5586.9829-1.126.9829H2.6643c-.5673,0-1.0478-.4194-1.126-.9829l-.6232-4.4915c-.187-.0933-.3155-.2869-.3155-.5106v-1.425c0-.3148.2545-.57.5684-.57h.9l.4096-2.4672Z" fill="#001531" isolation="isolate" opacity=".1" stroke-width="0"/><path d="M3.6045,1.0859c-.1713,0-.3192.1244-.3478.2964l-.3051,1.8365h6.0943l-.3105-1.8375c-.029-.1716-.1767-.2955-.3476-.2955H3.6045ZM10.0601,3.2189l-.3386-2.0041c-.11-.6508-.6727-1.1289-1.3337-1.1289H3.6045c-.6623,0-1.2259.48-1.3343,1.1326l-.3323,2.0004h-.4857C.7039,3.2189.0996,3.8268.0996,4.5739v1.083c0,.462.2781.8603.6769,1.034l.5615,4.054c.0927.669.6635,1.1688,1.3398,1.1688h6.6436c.6762,0,1.2472-.4998,1.3398-1.1688l.5615-4.054c.3988-.1737.6769-.572.6769-1.034v-1.083c0-.747-.6043-1.355-1.3526-1.355h-.4869ZM10.2003,6.7839H1.7989l.5296,3.8238c.0244.1765.1744.306.3492.306h6.6436c.1749,0,.3248-.1295.3492-.306l.5296-3.8238ZM1.4522,4.2189c-.1934,0-.3526.1576-.3526.355v1.083c0,.0715.0574.127.1253.127h9.5494c.0679,0,.1253-.0556.1253-.127v-1.083c0-.1974-.1592-.355-.3526-.355H1.4522Z" fill="#001531" fill-rule="evenodd" stroke-width="0"/></svg>