<?xml version="1.0" encoding="UTF-8"?><svg id="Layer_1" xmlns="http://www.w3.org/2000/svg" viewBox="0 0 20 20"><path d="M7.25.5c-.5523,0-1,.4477-1,1v1h-1.7773c-1.3807,0-2.5,1.1193-2.5,2.5v12c0,1.3807,1.1193,2.5,2.5,2.5h11.0555c1.3807,0,2.5-1.1193,2.5-2.5V5c0-1.3807-1.1193-2.5-2.5-2.5h-1.7782v-1c0-.5523-.4477-1-1-1h-5.5Z" fill="#001531" stroke-width="0"/><path d="M7.25.5c-.5523,0-1,.4477-1,1v1h-1.7773c-1.3807,0-2.5,1.1193-2.5,2.5v12c0,1.3807,1.1193,2.5,2.5,2.5h11.0555c1.3807,0,2.5-1.1193,2.5-2.5V5c0-1.3807-1.1193-2.5-2.5-2.5h-1.7782v-1c0-.5523-.4477-1-1-1h-5.5Z" fill="rgba(255,255,255,.9)" stroke-width="0"/><path d="M6.2306,2.5l-1.7272-.0024c-1.382-.0019-2.5034,1.118-2.5034,2.5v12.0023c0,1.3807,1.1193,2.5,2.5,2.5h11c1.3807,0,2.5-1.1193,2.5-2.5V4.9976c0-1.382-1.1214-2.5019-2.5034-2.5l-1.7441.0024M6.2306,2.5l.0098-1.0097c.0053-.5485.4515-.9903,1-.9903h5.5122c.5523,0,1,.4477,1,1v1M6.2306,2.5l.0098,1.0097c.0053.5485.4515.9903,1,.9903h5.5122c.5523,0,1-.4477,1-1v-1" fill="none" stroke="#001531" stroke-linecap="round"/><path d="M6.4062,10.1621h5.6562M6.4062,13.7051h7.1953" fill="none" stroke="#001531" stroke-linecap="round" stroke-width="1.2"/></svg>