<?xml version="1.0" encoding="UTF-8"?><svg id="Layer_1" xmlns="http://www.w3.org/2000/svg" viewBox="0 0 20 20"><path d="M7.2317.5c-.5504,0-.9965.4477-.9965,1v1h-1.7712c-1.3759,0-2.4913,1.1193-2.4913,2.5v12c0,1.3807,1.1154,2.5,2.4913,2.5h11.0173c1.3759,0,2.4914-1.1193,2.4914-2.5V5c0-1.3807-1.1155-2.5-2.4914-2.5h-1.7721v-1c0-.5523-.4461-1-.9965-1h-5.481Z" fill="#001531" stroke-width="0"/><path d="M7.25.5c-.5523,0-1,.4477-1,1v1h-1.7773c-1.3807,0-2.5,1.1193-2.5,2.5v12c0,1.3807,1.1193,2.5,2.5,2.5h11.0555c1.3807,0,2.5-1.1193,2.5-2.5V5c0-1.3807-1.1193-2.5-2.5-2.5h-1.7782v-1c0-.5523-.4477-1-1-1h-5.5Z" fill="rgba(255,255,255,.9)" stroke-width="0"/><path d="M6.7403,1.4951c.0027-.2742.2257-.4951.5-.4951h5.5122c.2762,0,.5.2239.5.5v2c0,.2761-.2238.5-.5.5h-5.5122c-.2743,0-.4973-.2209-.5-.4951l-.0098-1.0049.0098-1.0049ZM5.7404,1.4854l-.005.5139-1.2313-.0017c-1.6584-.0023-3.0041,1.3415-3.0041,3v12.0023c0,1.6569,1.3431,3,3,3h11c1.6569,0,3-1.3431,3-3V4.9976c0-1.6584-1.3456-3.0023-3.0041-3l-1.2434.0017v-.4993c0-.8284-.6716-1.5-1.5-1.5h-5.5122c-.8227,0-1.4919.6627-1.4999,1.4854ZM14.2525,3.5v-.5007l1.2448-.0017c1.1056-.0015,2.0027.8944,2.0027,2v12.0024c0,1.1046-.8954,2-2,2H4.5c-1.1046,0-2-.8954-2-2V4.9977c0-1.1056.8971-2.0015,2.0027-2l1.2327.0017.005.5152c.008.8227.6772,1.4854,1.4999,1.4854h5.5122c.8284,0,1.5-.6716,1.5-1.5ZM13.4231,9.9198c.234-.2296.234-.6019,0-.8315-.2341-.2296-.6136-.2296-.8477,0l-3.5095,3.4429-1.6365-1.6054c-.2341-.2296-.6136-.2296-.8476,0-.2341.2296-.2341.6019,0,.8315l2.0603,2.0212c.2341.2297.6136.2297.8476,0l3.9334-3.8586Z" fill="#001531" fill-rule="evenodd" stroke-width="0"/></svg>