<?xml version="1.0" encoding="UTF-8"?><svg id="Icon" xmlns="http://www.w3.org/2000/svg" viewBox="0 0 20 20"><path id="Solid_Fill" d="M3.1103,13.7325V6.2682c0-1.744,1.4138-3.1579,3.1579-3.1579h7.4643c1.7441,0,3.1579,1.4138,3.1579,3.1579v7.4643c0,1.7441-1.4138,3.1579-3.1579,3.1579H6.2682c-1.744,0-3.1579-1.4138-3.1579-3.1579Z" fill="#001531"/><path id="Opacity_Fill" d="M3.1103,13.7325V6.2682c0-1.744,1.4138-3.1579,3.1579-3.1579h7.4643c1.7441,0,3.1579,1.4138,3.1579,3.1579v7.4643c0,1.7441-1.4138,3.1579-3.1579,3.1579H6.2682c-1.744,0-3.1579-1.4138-3.1579-3.1579Z" fill="rgba(255,255,255,.9)"/><path id="Outline" d="M6.4482,0c.2907,0,.5263,.2356,.5263,.5263V2.6895h2.5001V.5263c0-.2907,.2356-.5263,.5263-.5263s.5263,.2356,.5263,.5263V2.6895h2.5001V.5263c0-.2907,.2357-.5263,.5264-.5263s.5263,.2356,.5263,.5263V2.706c1.6997,.1632,3.0522,1.5153,3.2159,3.2149h2.1785c.2907,0,.5263,.2356,.5263,.5263s-.2356,.5263-.5263,.5263h-2.1618v2.5001h2.1609c.2906,0,.5263,.2356,.5263,.5263s-.2357,.5263-.5263,.5263h-2.1609v2.5002h2.1618c.2907,0,.5263,.2356,.5263,.5263s-.2356,.5263-.5263,.5263h-2.1784c-.1632,1.7001-1.5159,3.0528-3.216,3.2161v2.1786c0,.2907-.2357,.5263-.5263,.5263s-.5264-.2356-.5264-.5263v-2.1621h-2.5001v2.1621c0,.2907-.2356,.5263-.5263,.5263s-.5263-.2356-.5263-.5263v-2.1621h-2.5001v2.1621c0,.2907-.2356,.5263-.5263,.5263s-.5263-.2356-.5263-.5263v-2.1788c-1.6996-.1637-3.0517-1.5162-3.2149-3.2159H.5263c-.2907,0-.5263-.2357-.5263-.5263s.2356-.5263,.5263-.5263H2.6904v-2.5002H.5263c-.2907,0-.5263-.2356-.5263-.5263s.2356-.5263,.5263-.5263H2.6904v-2.5001H.5263c-.2907,0-.5263-.2356-.5263-.5263s.2356-.5263,.5263-.5263H2.7071c.1637-1.6992,1.5156-3.0511,3.2148-3.2148V.5263c0-.2907,.2356-.5263,.5263-.5263ZM3.5325,6.2684c0-1.5115,1.2253-2.7368,2.7368-2.7368h7.4644c1.5115,0,2.7368,1.2253,2.7368,2.7368v7.4644c0,1.5115-1.2253,2.7368-2.7368,2.7368H6.2693c-1.5115,0-2.7368-1.2253-2.7368-2.7368V6.2684Zm4.9353,.7268c-.8139,0-1.4737,.6598-1.4737,1.4737v3.0623c0,.8138,.6598,1.4736,1.4737,1.4736h3.0623c.8139,0,1.4737-.6598,1.4737-1.4736v-3.0623c0-.8139-.6598-1.4737-1.4737-1.4737h-3.0623Zm-.6316,1.4737c0-.3488,.2828-.6316,.6316-.6316h3.0623c.3488,0,.6316,.2828,.6316,.6316v3.0623c0,.3488-.2828,.6315-.6316,.6315h-3.0623c-.3488,0-.6316-.2827-.6316-.6315v-3.0623Z" fill="#001531" fill-rule="evenodd"/></svg>