<?xml version="1.0" encoding="UTF-8"?><svg id="Layer_1" xmlns="http://www.w3.org/2000/svg" viewBox="0 0 20 20"><path d="M15.4979,15.5H5.2479c-3.0337,0-4.7479-2.4572-4.7479-4.7121s1.2321-3.825,3.0185-4.4871c.5005-2.8716,2.8234-4.3008,5.0172-4.3008,1.8112,0,3.1964.6619,4.0714,2.1331,2.0536-.6436,3.875,1.0114,3.875,3.0159,2,.6436,3.0179,2.3794,3.0179,4.1928s-1.5595,4.1582-4.0021,4.1582Z" fill="#001531" stroke-width="0"/><path d="M15.4979,15.5H5.2479c-3.0337,0-4.7479-2.4572-4.7479-4.7121s1.2321-3.825,3.0185-4.4871c.5005-2.8716,2.8234-4.3008,5.0172-4.3008,1.8112,0,3.1964.6619,4.0714,2.1331,2.0536-.6436,3.875,1.0114,3.875,3.0159,2,.6436,3.0179,2.3794,3.0179,4.1928s-1.5595,4.1582-4.0021,4.1582Z" fill="rgba(255,255,255,.9)" stroke-width="0"/><path d="M8.5357,1.5c-2.3327,0-4.8096,1.4809-5.4554,4.4376-1.8356.788-3.0803,2.4945-3.0803,4.8503,0,2.481,1.8905,5.2121,5.2479,5.2121.2761,0,.5-.2239.5-.5s-.2239-.5-.5-.5c-2.71,0-4.2479-2.1832-4.2479-4.2121,0-2.0426,1.0989-3.4278,2.6922-4.0182l.2695-.0999.0493-.2831c.4534-2.6017,2.5416-3.8867,4.5247-3.8867,1.6697,0,2.8733.5968,3.6417,1.8887l.2021.3397.3772-.1182c1.6754-.5251,3.2254.8107,3.2254,2.5388v.3643l.3469.1116c1.7687.5692,2.671,2.0935,2.671,3.7169,0,.776-.3395,1.7026-.965,2.4341-.6188.7235-1.4883,1.224-2.5371,1.224-.2762,0-.5.2239-.5.5s.2238.5.5.5c1.3938,0,2.5254-.6718,3.297-1.574.7648-.8943,1.2051-2.0467,1.2051-3.0841,0-1.9025-1.0218-3.754-3.0351-4.5508-.1933-2.0074-1.9905-3.6663-4.1324-3.2318-.9882-1.426-2.4745-2.0592-4.2968-2.0592ZM9.9995,18.5c-.3607,0-.6411-.2659-.6411-.5986l-.012-5.36-.7304.6688c-.2561.2346-.6688.237-.9256.0018-.2551-.2335-.2536-.6136.002-.8476l1.8433-1.6881c.1292-.1183.2961-.1764.4633-.1763.1673-.001.3342.0572.4623.1745l1.8452,1.6899c.2562.2346.2588.6124.002.8476-.255.2336-.6701.2322-.9256-.0018l-.7184-.6688v5.36c0,.3306-.3018.5986-.6651.5986Z" fill="#001531" fill-rule="evenodd" stroke-width="0"/></svg>