<svg id="No_Search_Results" data-name="No Search Results" xmlns="http://www.w3.org/2000/svg" viewBox="0 0 20 20"><path d="M20,10A10,10,0,1,1,10,0,10,10,0,0,1,20,10Z" fill="#252a3a"/><path d="M20,10A10,10,0,1,1,10,0,10,10,0,0,1,20,10Z" fill="#fff" fill-opacity="0.9"/><path d="M16.75,7.9446,15.2786,6.3284,13.7643,4.7207H5.75a2,2,0,0,0-2,2V17.6613A10.166,10.166,0,0,0,9.842,19.879a10.2985,10.2985,0,0,0,5.6294-1.66l.0247.0247.3093-.2517a11.1675,11.1675,0,0,0,.9445-.73Z" fill="#252a3a"/><path d="M13.7758,4.6958H5.7352A2.0064,2.0064,0,0,0,3.7287,6.7021V17.6789a10.2,10.2,0,0,0,6.112,2.225,10.4071,10.4071,0,0,0,6.9306-2.6256V7.93L15.2951,6.3088Z" fill="#fff" fill-opacity="0.8"/><path d="M13.5971,4.2168H5.4746a2.25,2.25,0,0,0-2.25,2.25V17.1836c.1274.1393.245.2591.357.3649a3.8306,3.8306,0,0,1-.607-.6385V6.4668a2.5,2.5,0,0,1,2.5-2.5h8.2475l3.804,3.8316v8.6055c-.0676.0756-.1519.1623-.25.2575V7.9234h-2.804a.8749.8749,0,0,1-.875-.8748h0Zm.5249,14.7619a15.99,15.99,0,0,0,3.1541-2.3173v.0359A11.7409,11.7409,0,0,1,14.122,18.9787Zm0,0a13.5173,13.5173,0,0,1-4.1937.9091A10.1411,10.1411,0,0,0,14.122,18.9787Zm-8.7176-.2269a16.226,16.226,0,0,0,3.0723.9777l-.129-.044H9.57a.1252.1252,0,0,1,.1033.1956q.1275.0053.2551.0067-.1266,0-.2557-.006a.1245.1245,0,0,1-.1027.0537H9.082l-.4633-.1577A9.883,9.883,0,0,1,5.4044,18.7518Zm-.5187-.2889c.3061.1812.5187.2889.5187.2889-.184-.11-.348-.2035-.498-.2889h2.09a.125.125,0,1,0,0-.25h-2.15a.125.125,0,0,0-.125.125l.0017.0208q-.0712-.0408-.1388-.08a8.6881,8.6881,0,0,1-1.0031-.73,4.98,4.98,0,0,0,1.0031.73c.0479.03.0948.06.14.0875a.125.125,0,0,0,.1218.0968ZM13.8471,4.4475,17.05,7.6734H14.4721a.625.625,0,0,1-.625-.625ZM4.6,6.35a.125.125,0,0,1,.125-.125H9.0391a.125.125,0,0,1,0,.25H4.7247A.125.125,0,0,1,4.6,6.35Zm.1247,1.3a.125.125,0,0,0,0,.25h1.87a.125.125,0,0,0,0-.25Zm-.0029,3.5615a.125.125,0,0,1,.125-.125H9.24a.125.125,0,0,1,0,.25H4.8468a.125.125,0,0,1-.125-.1246Zm6.3847-.125a.125.125,0,0,0,0,.25H15.5a.125.125,0,0,0,0-.25ZM4.7218,12.6846a.125.125,0,0,1,.125-.125H14.8789a.125.125,0,0,1,0,.25H4.8468A.125.125,0,0,1,4.7218,12.6846Zm.125,1.3476a.125.125,0,1,0,0,.25H14.8789a.125.125,0,0,0,0-.25Z" fill="#252a3a" fill-rule="evenodd"/><path d="M13.7909,4.3477V7.2a.5.5,0,0,0,.5.5h2.93Zm.8522,11.5681-.5127.5128.5634.5637.5127-.5127Z" fill="#252a3a" fill-rule="evenodd"/><path d="M15.7637,13.2715a4.2774,4.2774,0,1,1-4.2774-4.2774h0a4.2773,4.2773,0,0,1,4.2773,4.2773h0Z" fill="#fff"/><path d="M14.4818,16.9174a.2648.2648,0,0,0,.0516.3633l.9628.9628,1.0617-.8639-1.0617-1.0617a.2648.2648,0,0,0-.3633-.0516Z" fill="#fff" fill-opacity="0.9"/><path d="M16.4712,17.293a9.7266,9.7266,0,1,0-1.088.8375l-.85-.85a.2648.2648,0,0,1-.0516-.3633l.6511-.6511a.2648.2648,0,0,1,.3633.0516Zm-.1895.164-.9623-.9623a.1225.1225,0,0,0-.0358-.0255l-.599.5989a.1225.1225,0,0,0,.0255.0358l.8832.8832Q15.95,17.7372,16.2817,17.457ZM10,20A10,10,0,1,0,0,10,10,10,0,0,0,10,20Zm5.5137-6.7285a4.0274,4.0274,0,1,1-4.0274-4.0274h0a4.0273,4.0273,0,0,1,4.0273,4.0273Zm.25,0a4.2774,4.2774,0,1,1-4.2774-4.2774h0a4.2773,4.2773,0,0,1,4.2773,4.2773h0Zm-3.99-.6151a.6485.6485,0,0,0,.1829-.4357.4413.4413,0,0,0-.0961-.3162l-.0014-.0015a.3665.3665,0,0,0-.29-.097.4684.4684,0,0,0-.3225.0987.2669.2669,0,0,0-.0672.0863.6486.6486,0,0,1-.5539.4055.4806.4806,0,0,1-.4851-.5838,1.2112,1.2112,0,0,1,.3854-.6287,1.375,1.375,0,0,1,.43-.2559h0c.0146-.0057.03-.0111.0458-.0162a1.7774,1.7774,0,0,1,.5675-.0866,1.803,1.803,0,0,1,.5426.0769c.0262.0079.0514.0165.0748.026a1.2362,1.2362,0,0,1,.4284.27,1.334,1.334,0,0,1,.3913,1.0052,1.7412,1.7412,0,0,1-.55,1.1964l-.0025.0026-.32.3175a.596.596,0,0,0-.1294.2937.5639.5639,0,0,1-.541.4757.5025.5025,0,0,1-.51-.4947h0a.4876.4876,0,0,1,.0028-.0616,1.5352,1.5352,0,0,1,.0755-.3367,1.6738,1.6738,0,0,1,.3535-.5378Zm-.7171,2.133h0a.5987.5987,0,0,0,0,.78l.0029.0033.0031.0031a.6327.6327,0,0,0,.8464,0l.0014-.0015.0015-.0016a.58.58,0,0,0-.855-.7833Z" fill="#252a3a" fill-rule="evenodd"/><path d="M11.4629,14.2388a.2526.2526,0,0,1-.2591-.2762,1.2948,1.2948,0,0,1,.0624-.2817,1.43,1.43,0,0,1,.3027-.4541l.3888-.4006a.9.9,0,0,0,.2493-.6055.6865.6865,0,0,0-.1633-.4867.612.612,0,0,0-.4748-.178.7142.7142,0,0,0-.4867.16.5191.5191,0,0,0-.128.1657.4032.4032,0,0,1-.3288.2646h0a.2311.2311,0,0,1-.2461-.2151h0a.2333.2333,0,0,1,.0035-.0584.96.96,0,0,1,.3076-.501,1.2832,1.2832,0,0,1,.8785-.2968,1.2,1.2,0,0,1,.8725.3027,1.0854,1.0854,0,0,1,.3146.825,1.4945,1.4945,0,0,1-.4808,1.0239l-.3235.32a.84.84,0,0,0-.1937.4206.3144.3144,0,0,1-.2951.2709Zm-.3006.9408a.32.32,0,0,1,.08-.2226.33.33,0,0,1,.4867.4452.3236.3236,0,0,1-.5668-.2226Z" fill="#252a3a"/><path d="M11.4629,14.2388a.2526.2526,0,0,1-.2591-.2762,1.2948,1.2948,0,0,1,.0624-.2817,1.43,1.43,0,0,1,.3027-.4541l.3888-.4006a.9.9,0,0,0,.2493-.6055.6865.6865,0,0,0-.1633-.4867.612.612,0,0,0-.4748-.178.7142.7142,0,0,0-.4867.16.5191.5191,0,0,0-.128.1657.4032.4032,0,0,1-.3288.2646h0a.2311.2311,0,0,1-.2461-.2151h0a.2333.2333,0,0,1,.0035-.0584.96.96,0,0,1,.3076-.501,1.2832,1.2832,0,0,1,.8785-.2968,1.2,1.2,0,0,1,.8725.3027,1.0854,1.0854,0,0,1,.3146.825,1.4945,1.4945,0,0,1-.4808,1.0239l-.3235.32a.84.84,0,0,0-.1937.4206.3144.3144,0,0,1-.2951.2709Zm-.3006.9408a.32.32,0,0,1,.08-.2226.33.33,0,0,1,.4867.4452.3236.3236,0,0,1-.5668-.2226Z" fill="#fff" fill-opacity="0.9"/></svg>