<svg id="Layer_1" data-name="Layer 1" xmlns="http://www.w3.org/2000/svg" viewBox="0 0 20 20"><path d="M10.6917,6.4861A3.8881,3.8881,0,0,0,6.8229,9.9916a3.222,3.222,0,0,0-2.867,3.1949,3.186,3.186,0,0,0,.5678,1.8164H2.7324A2.7247,2.7247,0,0,1,2.5342,9.56,3.0768,3.0768,0,0,1,7.2574,6.3519a4.2566,4.2566,0,0,1,8.04,1.46L15.27,7.8106c-.021-.0007-.042-.0014-.0632-.0014a3.4575,3.4575,0,0,0-1.367.28A3.8729,3.8729,0,0,0,10.6917,6.4861Zm7.3936,4.7765c0,.07-.0035.1385-.0083.2069a2.27,2.27,0,0,1,.672,4.2712q-.0832.0421-.1705.0775H7.1617a2.6316,2.6316,0,0,1,.0168-5.2631c.0734,0,.1457.0038.2174.01-.004-.0668-.0067-.1339-.0067-.2018a3.3038,3.3038,0,0,1,6.2415-1.5016,2.8793,2.8793,0,0,1,4.4546,2.4017Z" fill="#252a3a" fill-rule="evenodd"/></svg>