<?xml version="1.0" encoding="UTF-8"?><svg id="Layer_1" xmlns="http://www.w3.org/2000/svg" viewBox="0 0 20 20"><path d="M18.9998,3.6671c-.0296-1.7509-4.0476-3.1671-8.9998-3.1671S1.0298,1.9162,1.0002,3.6671l-.0002.0195v12.6458s0,3.1676,9,3.1676,9-3.1676,9-3.1676V3.6866l-.0002-.0195Z" fill="#001531" stroke-width="0"/><path d="M18.9998,3.667c-.0296-1.7509-4.0476-3.167-8.9998-3.167S1.0298,1.9161,1.0002,3.667l-.0002.0195v12.6453s0,3.1674,9,3.1674,9-3.1674,9-3.1674V3.6865l-.0002-.0195Z" fill="rgba(255,255,255,.9)" stroke-width="0"/><path d="M2.0282,2.8296c-.3956.3312-.5282.623-.5282.8569s.1326.5258.5282.8569c.3929.3289.9914.6476,1.7747.9249,1.5622.5531,3.7532.9046,6.1971.9046s4.6348-.3515,6.1971-.9046c.7833-.2773,1.3818-.596,1.7747-.9249.3956-.3312.5282-.623.5282-.8569s-.1326-.5257-.5282-.8569c-.3929-.3289-.9914-.6476-1.7747-.9249-1.5623-.5531-3.7532-.9046-6.1971-.9046s-4.6348.3515-6.1971.9046c-.7833.2773-1.3818.596-1.7747.9249ZM19.4994,3.6431c-.0161-.6271-.3821-1.1588-.8857-1.5803-.5179-.4335-1.2375-.8015-2.0829-1.1008-1.6951-.6002-4.0041-.962-6.5308-.962S5.1643.3618,3.4692.962c-.8453.2993-1.5649.6673-2.0828,1.1008-.5037.4216-.8696.9533-.8858,1.5804-.0004.0079-.0006.0158-.0006.0238v12.6658h.5c-.5,0-.5.0007-.5.0014v.0015s0,.0032,0,.0032v.0074s.0008.0184.0008.0184c.0006.0139.0017.0309.0036.0508.0038.0398.0107.0913.0231.1528.025.1232.0723.2858.1612.4734.1793.3787.5188.8404,1.1485,1.2837,1.2475.8781,3.6194,1.6748,8.1628,1.6748s6.9152-.7967,8.1628-1.6748c.6297-.4432.9691-.905,1.1485-1.2837.0888-.1876.1361-.3502.1611-.4734.0125-.0615.0194-.113.0232-.1528.0019-.0199.003-.0369.0036-.0508l.0006-.0184.0002-.0074v-.0047c0-.0007,0-.0014-.5-.0014h.5V3.667c0-.008-.0002-.016-.0006-.0239ZM18.5,5.4018c-.5074.394-1.184.7312-1.9692,1.0092-1.6951.6002-4.0041.962-6.5308.962s-4.8357-.3618-6.5308-.962c-.7851-.278-1.4618-.6152-1.9692-1.0092v4.5868c.0007.0068.0026.0232.0076.0478.0101.05.0331.1349.0849.2441.1019.2151.3249.5451.8202.8936,1.0025.7053,3.1306,1.492,7.5872,1.492s6.5849-.7867,7.5873-1.492c.4953-.3485.7183-.6785.8202-.8936.0518-.1092.0748-.1941.0849-.2441.005-.0246.0069-.041.0076-.0478v-4.5868ZM18.5,11.7305c-.102.0873-.2141.1747-.3373.2614-1.2475.8778-3.6194,1.6742-8.1628,1.6742s-6.9152-.7964-8.1627-1.6742c-.1232-.0867-.2353-.1741-.3373-.2614v4.591c.0007.0068.0026.0232.0076.0479.0101.05.0331.135.0849.2443.1019.2152.3249.5453.8203.8939,1.0024.7056,3.1306,1.4926,7.5872,1.4926s6.5847-.787,7.5872-1.4926c.4953-.3486.7184-.6787.8203-.8939.0518-.1093.0748-.1943.0849-.2443.005-.0247.0069-.0411.0076-.0479v-4.591Z" fill="#001531" fill-rule="evenodd" stroke-width="0"/></svg>