<svg id="Cloud_Upload" data-name="Cloud Upload" xmlns="http://www.w3.org/2000/svg" viewBox="0 0 20 20"><path d="M15.6008,15.6265H5.1594A4.6883,4.6883,0,0,1,.325,11.089h0q-.0018-.053-.0022-.1059A4.4894,4.4894,0,0,1,3.3976,6.5614a5.0861,5.0861,0,0,1,5.111-4.2382,4.5,4.5,0,0,1,4.1475,2.1021,3.0607,3.0607,0,0,1,3.9473,2.9719,4.191,4.191,0,0,1-1.0026,8.2293Z" fill="#252a3a"/><path d="M15.6008,15.6616H5.1594a4.6944,4.6944,0,0,1-4.8346-4.55v0c-.0011-.0352-.0017-.07-.002-.1057A4.5,4.5,0,0,1,3.3976,6.5726a5.0893,5.0893,0,0,1,5.111-4.2494,4.4961,4.4961,0,0,1,4.1475,2.1076,3.0625,3.0625,0,0,1,3.9473,2.98,4.2036,4.2036,0,0,1-1.0026,8.251Z" fill="#fff" fill-opacity="0.9"/><path id="Lines" d="M8.5084,2A5.4076,5.4076,0,0,0,3.1151,6.3224,4.8,4.8,0,0,0,0,10.9812,5.01,5.01,0,0,0,5.0528,15.948c.0355,0,.0709-.0009.1064-.002h1.634a.3214.3214,0,0,0,.0113-.6427H5.1592A4.3667,4.3667,0,0,1,.6475,11.0866c-.0012-.0351-.002-.07-.0023-.1054A4.1687,4.1687,0,0,1,3.5066,6.8619L3.682,6.799l.0329-.1827A4.7638,4.7638,0,0,1,8.5084,2.6427a4.1787,4.1787,0,0,1,3.8723,1.9485l.13.212.2386-.0724A2.7384,2.7384,0,0,1,16.28,7.3953v.2363l.2264.0705a3.915,3.915,0,0,1,2.8478,3.825A3.9588,3.9588,0,0,1,18.33,14.0336a3.6081,3.6081,0,0,1-2.7295,1.27H13.9269a.3214.3214,0,0,0-.0113.6427h1.6849a4.2547,4.2547,0,0,0,3.2137-1.4876A4.5968,4.5968,0,0,0,20,11.5271a4.5473,4.5473,0,0,0-3.0822-4.3654A3.38,3.38,0,0,0,12.8,4.0524,4.8468,4.8468,0,0,0,8.5084,2Zm1.8892,16a.6057.6057,0,0,1-.62-.5911v-.01L9.766,12.0161l-.7068.6717a.6554.6554,0,0,1-.8958.0018.5815.5815,0,0,1-.0276-.8219l0,0c.01-.01.0193-.02.0294-.0293l1.7839-1.6952a.6575.6575,0,0,1,.8957-.0018l1.7858,1.697a.58.58,0,0,1,.0339.8195l0,.0005c-.01.0109-.0207.0215-.0316.0317a.6577.6577,0,0,1-.8958-.0018l-.6952-.6717v5.3827A.6261.6261,0,0,1,10.3976,18Z" fill="#252a3a" fill-rule="evenodd"/></svg>