<?xml version="1.0" encoding="UTF-8"?><svg id="Layer_1" xmlns="http://www.w3.org/2000/svg" viewBox="0 0 20 20"><path d="M9.5.5c4.9522,0,8.9702,1.4161,8.9998,3.167l.0002.0195v6.0013c.9352,1.0925,1.5,2.5114,1.5,4.0622,0,3.4518-2.7982,6.25-6.25,6.25-.9081,0-1.7711-.1937-2.5497-.542-.5277.0268-1.0936.0412-1.7003.0412C.5,19.4992.5,16.3318.5,16.3318V3.667c.0296-1.7509,4.0478-3.167,9-3.167Z" fill="#001531" stroke-width="0"/><path d="M9.5.5c4.9522,0,8.9702,1.4161,8.9998,3.167l.0002.0195v6.0013c.9352,1.0925,1.5,2.5114,1.5,4.0622,0,3.4518-2.7982,6.25-6.25,6.25-.9081,0-1.7711-.1937-2.5497-.542-.5277.0268-1.0936.0412-1.7003.0412C.5,19.4992.5,16.3318.5,16.3318V3.667c.0296-1.7509,4.0478-3.167,9-3.167Z" fill="rgba(255,255,255,.9)" stroke-width="0"/><path d="M.5,3.667v6.3329M.5,9.9999s0,3.1662,9,3.1662,9-3.1662,9-3.1662M.5,9.9999v6.3329s0,3.1674,9,3.1674,9-3.1674,9-3.1674v-6.3329M18.5,9.9999V3.667M18.5,3.6865c0,1.7598-4.0294,3.1865-9,3.1865S.5,5.4463.5,3.6865,4.5294.5,9.5.5s9,1.4266,9,3.1865Z" fill="none" stroke="#000" stroke-linecap="round" stroke-linejoin="round"/><path d="M20,13.75c0,3.4518-2.7982,6.25-6.25,6.25s-6.25-2.7982-6.25-6.25,2.7982-6.25,6.25-6.25,6.25,2.7982,6.25,6.25Z" fill="#001531" stroke-width="0"/><path d="M20,13.75c0,3.4518-2.7982,6.25-6.25,6.25s-6.25-2.7982-6.25-6.25,2.7982-6.25,6.25-6.25,6.25,2.7982,6.25,6.25Z" fill="rgba(255,255,255,.9)" stroke-width="0"/><path d="M11.229,10.418c-.224-.224-.5871-.224-.811,0-.224.2239-.224.587,0,.811l2.521,2.5209-2.5209,2.5207c-.2239.2239-.2239.587,0,.811.224.2239.5871.2239.8111,0l2.5208-2.5207,2.5208,2.5207c.224.2239.5871.2239.8111,0,.2239-.224.2239-.5871,0-.811l-2.5209-2.5207,2.521-2.5209c.224-.224.224-.5871,0-.811-.2239-.224-.587-.224-.811,0l-2.521,2.5209-2.521-2.5209Z" fill="#001531" stroke-width="0"/></svg>