<?xml version="1.0" encoding="UTF-8"?><svg id="Layer_1" xmlns="http://www.w3.org/2000/svg" viewBox="0 0 20 20"><path d="M14.4688,5c0,2.4853-2.0148,4.5-4.5,4.5s-4.5-2.0147-4.5-4.5S7.4835.5,9.9688.5s4.5,2.0147,4.5,4.5ZM2.0057,17.6007c-.0098.6351-.0197,1.2759.0852,1.8993h15.8182c.1048-.6233.0949-1.2641.0852-1.8991-.0029-.185-.0057-.3695-.0057-.553,0-3.0641-2.4054-5.5479-5.3728-5.5479h-5.2316c-2.9673,0-5.3728,2.4838-5.3728,5.5479,0,.1834-.0028.3679-.0057.5528Z" fill="#001531" fill-rule="evenodd" stroke-width="0"/><path d="M14.4688,5c0,2.4853-2.0148,4.5-4.5,4.5s-4.5-2.0147-4.5-4.5S7.4835.5,9.9688.5s4.5,2.0147,4.5,4.5ZM2.0057,17.6007c-.0098.6351-.0197,1.2759.0852,1.8993h15.8182c.1048-.6233.0949-1.2641.0852-1.8991-.0029-.185-.0057-.3695-.0057-.553,0-3.0641-2.4054-5.5479-5.3728-5.5479h-5.2316c-2.9673,0-5.3728,2.4838-5.3728,5.5479,0,.1834-.0028.3679-.0057.5528Z" fill="rgba(255,255,255,.9)" fill-rule="evenodd" stroke-width="0"/><path d="M9.9689,1c-2.2091,0-4,1.7909-4,4s1.7909,4,4,4,4-1.7909,4-4-1.7909-4-4-4ZM4.9689,5C4.9689,2.2386,7.2075,0,9.9689,0s5,2.2386,5,5-2.2386,5-5,5-5-2.2386-5-5ZM7.3843,12c-2.6762,0-4.8727,2.2447-4.8727,5.0479,0,.2018-.003.3981-.0059.5901-.0094.6255-.0182,1.205.0784,1.7791.0458.2723-.1378.5302-.4102.576-.2723.0458-.5302-.1379-.576-.4102-.1132-.6732-.1021-1.3764-.092-2.0181.0028-.1776.0056-.3506.0056-.5169,0-3.325,2.6143-6.0479,5.8727-6.0479h5.2317c3.2585,0,5.8727,2.7229,5.8727,6.0479,0,.1663.0027.3393.0055.5171.0102.6416.0213,1.3448-.0918,2.0179-.0458.2723-.3037.456-.576.4102-.2723-.0458-.456-.3037-.4102-.576.0965-.574.0878-1.1535.0783-1.779-.0029-.192-.0058-.3883-.0058-.5902,0-2.8032-2.1965-5.0479-4.8727-5.0479h-5.2317Z" fill="#001531" fill-rule="evenodd" stroke-width="0"/></svg>