<?xml version="1.0" encoding="UTF-8"?><svg id="Layer_1" xmlns="http://www.w3.org/2000/svg" viewBox="0 0 20 20"><path d="M7.9648,2.6847c.9045-1.5796,3.1659-1.5796,4.0704,0l7.0214,12.2613c.9046,1.5796-.2261,3.554-2.0352,3.554H2.9786c-1.8091,0-2.9397-1.9744-2.0352-3.554L7.9648,2.6847Z" fill="#001531" stroke-width="0"/><path d="M7.9648,2.6847c.9045-1.5796,3.1659-1.5796,4.0704,0l7.0214,12.2613c.9046,1.5796-.2261,3.554-2.0352,3.554H2.9786c-1.8091,0-2.9397-1.9744-2.0352-3.554L7.9648,2.6847Z" fill="rgba(255,255,255,.9)" stroke-width="0"/><path d="M7.9648,2.6847c.9045-1.5796,3.1659-1.5796,4.0704,0l7.0214,12.2613c.9046,1.5796-.2261,3.554-2.0352,3.554H2.9786c-1.8091,0-2.9397-1.9744-2.0352-3.554L7.9648,2.6847Z" fill="none" stroke="#001531"/><path d="M10,7.25v3.9923M10,14.75v-.0489" fill="none" stroke="#001531" stroke-linecap="round" stroke-linejoin="round" stroke-width="1.5"/></svg>