<?xml version="1.0" encoding="UTF-8"?><svg id="Layer_1" xmlns="http://www.w3.org/2000/svg" viewBox="0 0 20 20"><path d="M12.0781,7.1579V3.3684c0-.7538-.3043-1.4767-.8459-2.0096-.5416-.533-1.2761-.8324-2.042-.8324l-3.8506,8.5263v10.421h10.8586c.4643,.0052,.9149-.155,1.2687-.4509,.3538-.296,.587-.7078,.6566-1.1596l1.3284-8.5263c.0419-.2716,.0233-.5488-.0545-.8126-.0778-.2638-.213-.5077-.3961-.715-.1832-.2073-.4099-.3729-.6645-.4853-.2546-.1125-.5311-.1691-.8102-.166h-5.4485Zm-6.7385,12.3157H2.4516c-.5106,0-1.0003-.1996-1.3614-.5549-.3611-.3554-.5639-.8373-.5639-1.3398v-6.6315c0-.5026,.2028-.9845,.5639-1.3398,.3611-.3553,.8508-.5549,1.3614-.5549h2.8879" fill="#e8e7e9"/><path d="M8.7104,.3097c.0851-.1885,.2728-.3097,.4797-.3097,.9028,0,1.7703,.3529,2.4113,.9836,.6412,.631,1.0029,1.4887,1.0029,2.3848v3.2631h4.9195c.3531-.0035,.7029,.0683,1.0256,.2109,.3236,.143,.6125,.3537,.8462,.6183,.2338,.2646,.4068,.5766,.5065,.9146,.0998,.338,.1236,.6935,.0699,1.0417l-1.3284,8.5262s0-.0002,0,0c-.0894,.5793-.3883,1.106-.8391,1.4831-.45,.3764-1.0214,.5794-1.6092,.5736H2.4516c-.6475,0-1.2702-.2531-1.7306-.7062-.4607-.4533-.721-1.07-.721-1.7149v-6.6315c0-.6448,.2604-1.2615,.721-1.7149,.4604-.4531,1.083-.7061,1.7306-.7061h2.5481L8.7104,.3097Zm-3.8972,9.2692H2.4516c-.3737,0-.7305,.1462-.9922,.4038-.2615,.2573-.4068,.6045-.4068,.9647v6.6315c0,.3602,.1453,.7074,.4068,.9647,.2617,.2576,.6185,.4037,.9922,.4037h2.3616V9.5789Zm1.0526,9.3683h10.3382c.3398,.0038,.6683-.1134,.9251-.3283,.2567-.2147,.4242-.5119,.4742-.836l1.3284-8.5263s0,0,0,0c.0301-.1949,.0167-.394-.0392-.5835-.0559-.1896-.1532-.3655-.2857-.5154-.1325-.15-.2971-.2704-.4827-.3524-.1857-.082-.3876-.1234-.5916-.1212h-.0059s-5.4486,0-5.4486,0c-.2906,0-.5263-.2356-.5263-.5263V3.3684c0-.6114-.2467-1.1996-.6887-1.6345-.3642-.3585-.8366-.5886-1.3433-.6586l-3.6538,8.0906v9.7813Z" fill="#180b25" fill-rule="evenodd"/></svg>