<svg id="Icon" xmlns="http://www.w3.org/2000/svg" viewBox="0 0 20 20"><path id="Gray_Bg" data-name="Gray Bg" d="M20,10a10,10,0,1,1-2.9289-7.0711A10,10,0,0,1,20,10Z" fill="#252a3a"/><path id="Gray_Bg-2" data-name="Gray Bg" d="M20,10a10,10,0,1,1-2.9289-7.0711A10,10,0,0,1,20,10Z" fill="#fff" fill-opacity="0.9"/><path id="Black_Fill" data-name="Black Fill" d="M16.75,7.9446,15.2786,6.3284,13.7643,4.7207H5.75a2,2,0,0,0-2,2V17.6613A10.166,10.166,0,0,0,9.842,19.879a10.2985,10.2985,0,0,0,5.6294-1.66l.0247.0247.3093-.2517a11.1675,11.1675,0,0,0,.9445-.73Z" fill="#252a3a"/><path id="Gray_Fill" data-name="Gray Fill" d="M13.7756,4.6953H5.735A2.0065,2.0065,0,0,0,3.7285,6.7019V17.6784a10.2,10.2,0,0,0,6.112,2.225,10.4071,10.4071,0,0,0,6.9306-2.6256V7.93L15.2949,6.3083Z" fill="#fff" fill-opacity="0.8"/><path id="Outlines" d="M13.5971,4.2168H5.4746a2.25,2.25,0,0,0-2.25,2.25V17.1836c.1274.1393.245.2591.357.3649a3.8306,3.8306,0,0,1-.607-.6385V6.4668a2.5,2.5,0,0,1,2.5-2.5h8.2475l3.804,3.8316v8.6055c-.0676.0756-.1519.1623-.25.2575V7.9234h-2.804a.8748.8748,0,0,1-.875-.8748Zm.5249,14.7619a15.99,15.99,0,0,0,3.1541-2.3173v.0359a11.7409,11.7409,0,0,1-3.1541,2.2814Zm0,0a13.5173,13.5173,0,0,1-4.1937.9091,10.14,10.14,0,0,0,4.1937-.9091Zm-8.7176-.2269a16.226,16.226,0,0,0,3.0723.9777l-.129-.044H9.57a.1252.1252,0,0,1,.1033.1956q.1275.0053.2551.0067-.1266,0-.2557-.006a.1246.1246,0,0,1-.1027.0537H9.082l-.4633-.1577a9.883,9.883,0,0,1-3.2143-1.026Zm-.5187-.2889c.3061.1812.5187.2889.5187.2889-.184-.11-.348-.2035-.498-.2889h2.09a.125.125,0,1,0,0-.25h-2.15a.125.125,0,0,0-.125.125l.0017.0208q-.0712-.0408-.1388-.08a8.6881,8.6881,0,0,1-1.0031-.73,4.98,4.98,0,0,0,1.0031.73c.0479.03.0948.06.14.0875a.1249.1249,0,0,0,.1218.0968ZM13.8471,4.4475,17.05,7.6734H14.4721a.6251.6251,0,0,1-.625-.625ZM4.6,6.35a.125.125,0,0,1,.125-.125H9.0391a.125.125,0,1,1,0,.25H4.7247A.125.125,0,0,1,4.6,6.35Zm.1247,1.3a.125.125,0,1,0,0,.25h1.87a.125.125,0,1,0,0-.25Zm-.0029,3.5615a.125.125,0,0,1,.125-.125H9.24a.125.125,0,1,1,0,.25H4.8468a.1251.1251,0,0,1-.125-.1246Zm6.3847-.125a.125.125,0,1,0,0,.25H15.5a.125.125,0,1,0,0-.25ZM4.7218,12.6846a.125.125,0,0,1,.125-.125H14.8789a.125.125,0,1,1,0,.25H4.8468a.125.125,0,0,1-.125-.125Zm.125,1.3476a.125.125,0,1,0,0,.25H14.8789a.125.125,0,1,0,0-.25Z" fill="#252a3a" fill-rule="evenodd"/><path id="White_Fill" data-name="White Fill" d="M15.7638,13.2715a4.2774,4.2774,0,1,1-4.2774-4.2774h0a4.2773,4.2773,0,0,1,4.2773,4.2773Z" fill="#fff"/><path id="White_Fill-2" data-name="White Fill" d="M14.4816,16.9179a.2649.2649,0,0,0,.0516.3633l.9628.9628,1.0617-.8639L15.496,16.3184a.2646.2646,0,0,0-.3633-.0516Z" fill="#fff" fill-opacity="0.9"/><path id="Outlines-2" data-name="Outlines" d="M19.7073,10.7657a9.727,9.727,0,0,1-3.2361,6.5273l-.9752-.9753a.2649.2649,0,0,0-.3633-.0516l-.07.07-.3067-.3069a4.278,4.278,0,0,0,1.0074-2.7574l0,0a4.2775,4.2775,0,1,0-1.52,3.27l.3068.3069-.0687.0687a.2649.2649,0,0,0,.0516.3633l.85.85a9.7265,9.7265,0,1,1,4.3241-7.3648Zm-4.3879,5.729.9623.9623q-.3316.28-.6884.53l-.8832-.8832a.1225.1225,0,0,1-.0255-.0358l.599-.5989A.1225.1225,0,0,1,15.3194,16.4947Zm.2363,1.82a10,10,0,1,1,3.6831-4.4879A10,10,0,0,1,15.5557,18.3147ZM14.835,15.509a4.0277,4.0277,0,0,0,.6787-2.2375l0,0a4.0268,4.0268,0,1,0-.6786,2.2376Zm-2.8784-3.2883a.6485.6485,0,0,1-.1829.4357l-.3886.402a1.6738,1.6738,0,0,0-.3535.5378,1.5352,1.5352,0,0,0-.0755.3367.4876.4876,0,0,0-.0028.0616.5024.5024,0,0,0,.51.4948.5638.5638,0,0,0,.541-.4757.596.596,0,0,1,.1294-.2937l.32-.3175.0025-.0026a1.7412,1.7412,0,0,0,.55-1.1964,1.3339,1.3339,0,0,0-.3913-1.0052,1.2362,1.2362,0,0,0-.4284-.27c-.0234-.01-.0486-.0181-.0748-.026a1.803,1.803,0,0,0-.5426-.0769,1.7774,1.7774,0,0,0-.5675.0866c-.0158.0051-.0312.0105-.0458.0162a1.375,1.375,0,0,0-.43.2559,1.2112,1.2112,0,0,0-.3854.6287.4806.4806,0,0,0,.4851.5838.6483.6483,0,0,0,.5539-.4055.2669.2669,0,0,1,.0672-.0863.4684.4684,0,0,1,.3225-.0987.3664.3664,0,0,1,.29.097l.0014.0015A.4413.4413,0,0,1,11.9566,12.2207Zm-1.0445,2.9587a.5988.5988,0,0,1,.1445-.39h0a.58.58,0,0,1,.855.7833l-.0015.0016-.0014.0015a.6326.6326,0,0,1-.8464,0l-.0031-.0031-.0029-.0033A.5988.5988,0,0,1,10.9121,15.1794ZM13.791,7.2V4.3477L17.221,7.7h-2.93a.5.5,0,0,1-.5-.5Z" fill="#252a3a" fill-rule="evenodd"/><path id="Black_Fill-2" data-name="Black Fill" d="M11.463,14.2393a.2526.2526,0,0,1-.2591-.2762,1.2994,1.2994,0,0,1,.0624-.2817,1.43,1.43,0,0,1,.3027-.4541l.3888-.4006a.9.9,0,0,0,.2493-.6055.6863.6863,0,0,0-.1633-.4867.6119.6119,0,0,0-.4748-.178.7142.7142,0,0,0-.4867.16.518.518,0,0,0-.128.1657.4034.4034,0,0,1-.3288.2646h0a.2311.2311,0,0,1-.2426-.2735.96.96,0,0,1,.3076-.501,1.2827,1.2827,0,0,1,.8785-.2968,1.2,1.2,0,0,1,.8725.3027,1.085,1.085,0,0,1,.3146.825,1.4945,1.4945,0,0,1-.4808,1.0239l-.3235.32a.84.84,0,0,0-.1937.4206.3144.3144,0,0,1-.2951.2709Zm-.3006.9408a.32.32,0,0,1,.08-.2226.33.33,0,0,1,.4867.4452.3236.3236,0,0,1-.5668-.2226Z" fill="#252a3a"/><path id="Gray_Fill-2" data-name="Gray Fill" d="M11.463,14.2393a.2526.2526,0,0,1-.2591-.2762,1.2994,1.2994,0,0,1,.0624-.2817,1.43,1.43,0,0,1,.3027-.4541l.3888-.4006a.9.9,0,0,0,.2493-.6055.6863.6863,0,0,0-.1633-.4867.6119.6119,0,0,0-.4748-.178.7142.7142,0,0,0-.4867.16.518.518,0,0,0-.128.1657.4034.4034,0,0,1-.3288.2646h0a.2311.2311,0,0,1-.2426-.2735.96.96,0,0,1,.3076-.501,1.2827,1.2827,0,0,1,.8785-.2968,1.2,1.2,0,0,1,.8725.3027,1.085,1.085,0,0,1,.3146.825,1.4945,1.4945,0,0,1-.4808,1.0239l-.3235.32a.84.84,0,0,0-.1937.4206.3144.3144,0,0,1-.2951.2709Zm-.3006.9408a.32.32,0,0,1,.08-.2226.33.33,0,0,1,.4867.4452.3236.3236,0,0,1-.5668-.2226Z" fill="#fff" fill-opacity="0.9"/></svg>