<svg id="Icon" xmlns="http://www.w3.org/2000/svg" viewBox="0 0 20 20"><path id="Black_Fill" data-name="Black Fill" d="M1.0938.9141H19.0722V19.0429H1.0938Z" fill="#252a3a"/><path id="Gray_Fill" data-name="Gray Fill" d="M1.0938.9141H19.0722V19.0429H1.0938Z" fill="#fff" fill-opacity="0.9"/><path id="Outline" d="M.5,1.4661A.9647.9647,0,0,1,1.4632.5H18.5368a.9647.9647,0,0,1,.9632.9661V18.5339a.9647.9647,0,0,1-.9632.9661H1.4632A.9647.9647,0,0,1,.5,18.5339Zm.9632-.1073a.1072.1072,0,0,0-.107.1073V6.1517H18.6438V1.4661a.1072.1072,0,0,0-.107-.1073ZM18.6438,7.0105H7.055V18.6412H18.5368a.1072.1072,0,0,0,.107-.1073ZM6.1988,18.6412V7.0105H1.3562V18.5339a.1072.1072,0,0,0,.107.1073Z" fill="#252a3a" fill-rule="evenodd"/></svg>