<?xml version="1.0" encoding="UTF-8"?><svg id="Layer_1" xmlns="http://www.w3.org/2000/svg" viewBox="0 0 20 20"><path d="M16.7039,19.4778c.7161,0,1.2961-.5597,1.2961-1.261l-.0094-3.9856-.0004-12.2234c0-.6406-.8691-1.5059-1.4707-1.5059H4.7765c-1.538,0-2.7765,1.2241-2.7765,2.7327v13.6254l1.0601.1888c.3938.3069.889.4897,1.4269.4897h1.3241l2.9857.5316v1.142c0,.1613.1361.2846.3005.2846.0481,0,.0963-.0093.135-.0288l1.8185-.9965.4564.0812,1.6428.906c.1456.0852.3193.0288.3968-.1047.0294-.0473.0388-.0945.0388-.1418v-.2894l3.1182.5551Z" fill="#001531" stroke-width="0"/><path d="M16.7039,19.4778c.7161,0,1.2961-.5597,1.2961-1.261l-.0094-3.9856-.0004-12.2234c0-.6406-.8691-1.5059-1.4707-1.5059H4.7765c-1.538,0-2.7765,1.2241-2.7765,2.7327v13.6254l1.0601.1888c.3938.3069.889.4897,1.4269.4897h1.3241l2.9857.5316v1.142c0,.1613.1361.2846.3005.2846.0481,0,.0963-.0093.135-.0288l1.8185-.9965.4564.0812,1.6428.906c.1456.0852.3193.0288.3968-.1047.0294-.0473.0388-.0945.0388-.1418v-.2894l3.1182.5551Z" fill="rgba(255,255,255,.9)" stroke-width="0"/><path d="M4.5017,1c-1.1052,0-2.0011.8954-2.0011,2v11.577c.5679-.5252,1.3321-.8458,2.172-.8458h.9128V1h-1.0837ZM6.5859,1v12.7312l10.9135-.0008V2.5c0-.8284-.6719-1.5-1.5008-1.5H6.5859ZM18.5,14.2304V2.5c0-1.3807-1.1199-2.5-2.5014-2.5H4.5017C2.8439,0,1.5,1.3431,1.5,3v13.8592c0,.863.3604,1.6447.9346,2.2075.5736.5622,1.3557.9112,2.238.9112h1.1418c.2763,0,.5003-.2239.5003-.5s-.224-.5-.5003-.5h-1.1418c-.6095,0-1.143-.2386-1.5374-.6251-.3938-.386-.6346-.9148-.6346-1.4936,0-1.169.96-2.128,2.172-2.128h3.6312s0,4.4876,0,4.4876c0,.2421.1151.4382.2506.5647.1322.1233.3216.2165.5357.2165h.0104c.0685.0004.2214.0011.3905-.0916l1.7285-.9521,1.7103.9477c.1684.098.3273.0966.3944.0961.0045,0,.0087,0,.0123,0,.2534,0,.4408-.1434.5418-.2561.1071-.1195.2087-.3037.2087-.5251v-4.4881l3.4124-.0003v3.5446c0,.3293-.3302.7029-.7957.7029-.2763,0-.5003.2238-.5003.5s.224.5.5003.5c.965,0,1.7963-.7697,1.7963-1.7029v-4.0446ZM13.0864,14.7307l-3.7821.0003v4.1384l1.6745-.9223c.1507-.083.3335-.0827.484.0006l1.6236.8997v-4.1167Z" fill="#001531" fill-rule="evenodd" stroke-width="0"/></svg>