<?xml version="1.0" encoding="UTF-8"?><svg id="Layer_1" xmlns="http://www.w3.org/2000/svg" viewBox="0 0 30 30"><path d="M.75,5.025C.75,2.664,2.664.75,5.025.75h19.95c2.361,0,4.275,1.914,4.275,4.275v19.95c0,2.361-1.914,4.275-4.275,4.275H5.025c-2.361,0-4.275-1.914-4.275-4.275V5.025Z" fill="#001531" stroke-width="0"/><path d="M.75,5.025C.75,2.664,2.664.75,5.025.75h19.95c2.361,0,4.275,1.914,4.275,4.275v19.95c0,2.361-1.914,4.275-4.275,4.275H5.025c-2.361,0-4.275-1.914-4.275-4.275V5.025Z" fill="rgba(255,255,255,.9)" stroke-width="0"/><path d="M.25,4.5C.25,2.1528,2.1528.25,4.5.25h21c2.3472,0,4.25,1.9028,4.25,4.25v21c0,2.3472-1.9028,4.25-4.25,4.25H4.5c-2.3472,0-4.25-1.9028-4.25-4.25V4.5ZM4.5,1.25c-1.7949,0-3.25,1.4551-3.25,3.25v4.75h27.5v-4.75c0-1.7949-1.4551-3.25-3.25-3.25H4.5ZM28.75,10.25H10.2557l-.0055,18.5h15.2498c1.7949,0,3.25-1.4551,3.25-3.25v-15.25ZM9.2501,28.75l.0056-18.5H1.25v15.25c0,1.7949,1.4551,3.25,3.25,3.25h4.7501Z" fill="#001531" fill-rule="evenodd" stroke-width="0"/></svg>