<?xml version="1.0" encoding="UTF-8"?><svg id="Layer_1" xmlns="http://www.w3.org/2000/svg" viewBox="0 0 20 20"><path d="M1.625,5.2231v9.9039l8.6988,4.748.9329-.6667,7.1183-4.1242V5.1973L10.0512.125,1.625,5.2231Z" fill="#001531" stroke-width="0"/><path d="M1.625,5.2231v9.9039l8.6988,4.748.9329-.6667,7.1183-4.1242V5.1973L10.0512.125,1.625,5.2231Z" fill="rgba(255,255,255,.9)" stroke-width="0"/><path d="M7.1855,18.4207c-1.7043-.9379-4.1087-2.2389-5.1582-2.8059-.3238-.175-.5244-.5135-.5245-.8828l-.0028-8.655c-.0001-.3502.1816-.675.4793-.8571L9.4595.6462c.3124-.191.7038-.1952,1.0202-.0109l6.9515,4.0499c.675.3933.6602,1.3775-.0263,1.7501l-7.4385,4.0371M9.9664,10.4724s-3.2783-2.0031-5.3871-3.291M9.9664,10.4724v8.0231c0,.7699.8277,1.2527,1.4933.8712l6.5366-3.7463c.3115-.1785.5037-.511.5037-.8712v-5.998" fill="none" stroke="#001531" stroke-linecap="round"/></svg>