<?xml version="1.0" encoding="UTF-8"?><svg id="Layer_1" xmlns="http://www.w3.org/2000/svg" viewBox="0 0 25 25"><path d="M14.6504.7609L2.9125,14.0037c-.2267.2558-.0428.6562.3015.6562h6.1444c.1475,0,.2671.1181.2671.2638v9.0549c0,.3646.4571.5351.7013.2616l11.7598-13.1734c.2281-.2555.0444-.6572-.3006-.6572h-6.1662c-.1475,0-.2671-.1181-.2671-.2638V1.0214c0-.3653-.4586-.5355-.7023-.2606Z" fill="#f5f7f9" stroke-width="0"/><path d="M14.853,1.2861L3.4424,14.1595h5.9162c.4177,0,.7671.336.7671.7638v8.7912l11.4313-12.8053h-5.937c-.4176,0-.7671-.336-.7671-.7638V1.2861ZM9.9541,23.9068s0,0,.0001-.0002v.0002ZM14.2766.4288c.5397-.6089,1.5764-.247,1.5764.5922v8.8882h5.9333c.7639,0,1.198.9028.6736,1.4902l-11.7598,13.1733c-.5408.6059-1.5743.243-1.5743-.5945v-8.8187H3.2143c-.7624,0-1.197-.8998-.6757-1.4878l.3742.3316-.3742-.3316L14.2766.4288Z" fill="#001531" fill-rule="evenodd" stroke-width="0"/></svg>