<?xml version="1.0" encoding="UTF-8"?><svg id="Layer_1" xmlns="http://www.w3.org/2000/svg" viewBox="0 0 20 20"><path d="M18.4998,3.667c-.0296-1.7509-4.0476-3.167-8.9998-3.167S.5296,1.9161.5,3.667v12.6648s0,3.1674,9,3.1674c.6067,0,1.1726-.0144,1.7003-.0412.7786.3483,1.6416.542,2.5497.542,3.4518,0,6.25-2.7982,6.25-6.25,0-.0969-.0022-.1933-.0066-.2892-.0654-1.4377-.6167-2.7488-1.4934-3.773V3.6865l-.0002-.0195Z" fill="#001531" fill-rule="evenodd" stroke-width="0"/><path d="M18.4998,3.667c-.0296-1.7509-4.0476-3.167-8.9998-3.167S.5296,1.9161.5,3.667v12.6648s0,3.1674,9,3.1674c.6067,0,1.1726-.0144,1.7003-.0412.7786.3483,1.6416.542,2.5497.542,3.4518,0,6.25-2.7982,6.25-6.25,0-.0969-.0022-.1933-.0066-.2892-.0654-1.4377-.6167-2.7488-1.4934-3.773V3.6865l-.0002-.0195Z" fill="rgba(255,255,255,.9)" fill-rule="evenodd" stroke-width="0"/><path d="M1.5282,2.8296c-.3956.3312-.5282.623-.5282.8569s.1326.5258.5282.8569c.3929.3289.9914.6476,1.7747.9249,1.5622.5531,3.7532.9046,6.1971.9046s4.6348-.3515,6.1971-.9046c.7833-.2773,1.3818-.596,1.7747-.9249.3956-.3312.5282-.623.5282-.8569s-.1326-.5257-.5282-.8569c-.3929-.3289-.9914-.6476-1.7747-.9249-1.5623-.5531-3.7532-.9046-6.1971-.9046s-4.6348.3515-6.1971.9046c-.7833.2773-1.3818.596-1.7747.9249ZM18.9994,3.6431c-.0161-.6271-.3821-1.1588-.8857-1.5803-.5179-.4335-1.2375-.8015-2.0829-1.1008-1.6951-.6002-4.0041-.962-6.5308-.962S4.6643.3618,2.9692.962c-.8453.2993-1.5649.6673-2.0828,1.1008C.3826,2.4844.0167,3.016.0006,3.6432c-.0004.0079-.0006.0158-.0006.0238v12.6658h.5c-.5,0-.5.0007-.5.0014v.0015s0,.0032,0,.0032v.0074s.0008.0184.0008.0184c.0006.0139.0017.0309.0036.0508.0038.0398.0107.0913.0231.1528.025.1232.0723.2858.1612.4734.1793.3787.5188.8404,1.1485,1.2837,1.2475.8781,3.6194,1.6748,8.1628,1.6748,1.1128,0,2.0953-.0478,2.9629-.1329-.768-.1607-1.4841-.4625-2.1202-.8769-.2712.0065-.552.0098-.8427.0098-4.4566,0-6.5847-.787-7.5872-1.4926-.4953-.3486-.7184-.6787-.8203-.8939-.0518-.1093-.0748-.1943-.0849-.2443-.005-.0247-.0069-.0411-.0076-.0479v-4.591c.102.0873.2141.1747.3373.2614,1.0501.7389,2.8967,1.4201,6.1643,1.6172.0075-.3392.042-.6718.1015-.9957-3.1882-.1875-4.8422-.8425-5.6904-1.4393-.4953-.3485-.7183-.6785-.8202-.8936-.0518-.1092-.0748-.1941-.0849-.2441-.005-.0246-.0069-.041-.0076-.0478v-4.5868c.5073.394,1.184.7312,1.9692,1.0092,1.6951.6002,4.0041.962,6.5308.962s4.8357-.3618,6.5308-.962c.7852-.278,1.4618-.6152,1.9692-1.0092v3.7656c.3804.353.7168.7527,1,1.1901V3.667c0-.008-.0002-.016-.0006-.0239ZM10.418,10.418c.2239-.224.587-.224.811,0l2.521,2.5209,2.521-2.5209c.224-.224.5871-.224.811,0,.224.2239.224.587,0,.811l-2.521,2.5209,2.5209,2.5207c.2239.2239.2239.587,0,.811-.224.2239-.5871.2239-.8111,0l-2.5208-2.5207-2.5208,2.5207c-.224.2239-.5871.2239-.8111,0-.2239-.224-.2239-.5871,0-.811l2.5209-2.5207-2.521-2.5209c-.224-.224-.224-.5871,0-.811Z" fill="#001531" fill-rule="evenodd" stroke-width="0"/></svg>