<svg width="20" height="20" viewBox="0 0 20 20" fill="none" xmlns="http://www.w3.org/2000/svg">
<g clip-path="url(#clip0_9266_239079)">
<path d="M14.5638 4.97127C14.5638 7.4396 12.5205 9.44058 10 9.44058C7.4795 9.44058 5.43624 7.4396 5.43624 4.97127C5.43624 2.50293 7.4795 0.501953 10 0.501953C12.5205 0.501953 14.5638 2.50293 14.5638 4.97127Z" fill="#E8E7E9"/>
<path d="M17.9868 16.9823V19.4988H2.01367V16.9823C2.01367 15.6474 2.43439 14.3673 3.18328 13.4234C3.93217 12.4795 4.94788 11.9492 6.00696 11.9492H13.9935C15.0526 11.9492 16.0683 12.4795 16.8172 13.4234C17.5661 14.3673 17.9868 15.6474 17.9868 16.9823Z" fill="#E8E7E9"/>
<path fill-rule="evenodd" clip-rule="evenodd" d="M9.99373 0C7.22109 0 4.97342 2.22609 4.97342 4.97211C4.97342 7.71814 7.22109 9.94423 9.99373 9.94423C12.7664 9.94423 15.014 7.71814 15.014 4.97211C15.014 2.22609 12.7664 0 9.99373 0ZM5.98876 4.97211C5.98876 2.78147 7.78185 1.0056 9.99373 1.0056C12.2056 1.0056 13.9987 2.78147 13.9987 4.97211C13.9987 7.16276 12.2056 8.93863 9.99373 8.93863C7.78185 8.93863 5.98876 7.16276 5.98876 4.97211Z" fill="#180B25"/>
<path d="M6.00574 11.4453C4.76265 11.4453 3.606 12.0684 2.77663 13.1138C1.94958 14.1562 1.49902 15.5484 1.49902 16.9812V19.4977C1.49902 19.7754 1.72889 20.0005 2.01245 20.0005C2.296 20.0005 2.52587 19.7754 2.52587 19.4977V16.9812C2.52587 15.7443 2.91675 14.5761 3.58748 13.7308C4.25588 12.8883 5.13065 12.4509 6.00574 12.4509H13.9923C14.8674 12.4509 15.7422 12.8883 16.4106 13.7308C17.0813 14.5761 17.4722 15.7443 17.4722 16.9812V19.4977C17.4722 19.7754 17.702 20.0005 17.9856 20.0005C18.2692 20.0005 18.499 19.7754 18.499 19.4977V16.9812C18.499 15.5484 18.0485 14.1562 17.2214 13.1138C16.392 12.0684 15.2354 11.4453 13.9923 11.4453H6.00574Z" fill="#180B25"/>
</g>
<defs>
<clipPath id="clip0_9266_239079">
<rect width="20" height="20" fill="white"/>
</clipPath>
</defs>
</svg>
