<?xml version="1.0" encoding="UTF-8"?><svg id="Layer_1" xmlns="http://www.w3.org/2000/svg" viewBox="0 0 20 20"><path d="M9.5,.8271c1.202,4.5792,4.8405,8.1551,9.5,9.3364-4.6595,1.1813-8.298,4.7571-9.5,9.3364C8.298,14.9206,4.6595,11.3448,0,10.1635,4.6595,8.9823,8.298,5.4064,9.5,.8271Z" fill="#e8e7e9"/><g><path d="M10.0371,2.4337c-.2127-.5194-.3925-1.0557-.5371-1.6066-.1446,.5508-.3244,1.0872-.537,1.6066-1.34,3.2729-3.9822,5.8732-7.31,7.1948-.5342,.2121-1.086,.3913-1.653,.535,.567,.1437,1.1188,.3229,1.653,.5351,3.3278,1.3215,5.97,3.9218,7.31,7.1947,.2126,.5194,.3925,1.0557,.537,1.6066,.1446-.5509,.3244-1.0872,.5371-1.6066,1.3399-3.2729,3.9821-5.8732,7.3099-7.1947,.5342-.2122,1.086-.3914,1.653-.5351-.567-.1437-1.1188-.3229-1.653-.535-3.3278-1.3216-5.97-3.9218-7.3099-7.1948Zm-.5371,14.2172c-1.3903-2.8283-3.7108-5.1145-6.5766-6.4874,2.8658-1.3729,5.1863-3.6591,6.5766-6.4874,1.3903,2.8283,3.7108,5.1146,6.5766,6.4874-2.8658,1.3729-5.1863,3.6591-6.5766,6.4874Z" fill="#180b25"/><path d="M17,6.3967c0-1.3707,1.5297-2.9484,3-2.9484-1.4158,0-3-1.5941-3-2.9483,0,1.3542-1.5705,2.9483-3,2.9483,1.375,0,3,1.5687,3,2.9484Z" fill="#180b25"/></g></svg>