<svg id="Icon" xmlns="http://www.w3.org/2000/svg" xmlns:xlink="http://www.w3.org/1999/xlink" viewBox="0 0 20 20"><defs><linearGradient id="linear-gradient" x1="13.9827" y1="21.1316" x2="13.9827" y2="8.036" gradientTransform="matrix(1, 0, 0, -1, 0, 22)" gradientUnits="userSpaceOnUse"><stop offset="0" stop-color="#fff"/><stop offset="1" stop-color="#fff" stop-opacity="0"/></linearGradient></defs><path id="Black_Fill" data-name="Black Fill" d="M20,10A10,10,0,1,1,10,0,10,10,0,0,1,20,10Z" fill="#252a3a"/><path id="Gray_Fill" data-name="Gray Fill" d="M20,10A10,10,0,1,1,10,0,10,10,0,0,1,20,10Z" fill="#fff" fill-opacity="0.9"/><path id="Black_Fill-2" data-name="Black Fill" d="M14.0153,5.793H5.9976v.0057A3.4139,3.4139,0,0,0,2.8227,7.9129a.33.33,0,0,0-.0258.1278v6.1806H9.3135v0h1.6779v-6.06a3.1155,3.1155,0,0,1,1.91-1.9684Z" fill="#252a3a" fill-rule="evenodd"/><path id="Gray_Fill-2" data-name="Gray Fill" d="M14.0153,5.793H5.9976v.0057A3.4139,3.4139,0,0,0,2.8227,7.9129a.33.33,0,0,0-.0258.1278v6.1806H9.3135v0h1.6779v-6.06a3.1155,3.1155,0,0,1,1.91-1.9684Z" fill="#fff" fill-opacity="0.8" fill-rule="evenodd"/><path id="Linear_Fill" data-name="Linear Fill" d="M10.9766,8.2281a.6011.6011,0,0,1,.0459-.23h0a3.2052,3.2052,0,0,1,5.92,0h0a.6011.6011,0,0,1,.0459.23V13.964H10.9766Z" fill="url(#linear-gradient)"/><path id="White_Fill" data-name="White Fill" d="M10.424,3.374H8.4065v1.25h2.0224a.025.025,0,0,0,.0212-.0383l-.4044-.6427.3983-.5289A.025.025,0,0,0,10.424,3.374Zm-1.65,6.2666a.375.375,0,1,1-.375-.375A.375.375,0,0,1,8.7744,9.6406ZM4.0225,8.92a.17.17,0,0,1,.17-.17H5.5545a.17.17,0,0,1,0,.34H4.1926A.17.17,0,0,1,4.0225,8.92Zm.17,2.5526a.17.17,0,0,0,0,.34h2.382a.17.17,0,0,0,0-.34Zm0,1.164a.17.17,0,0,0,0,.34h3.75a.17.17,0,0,0,0-.34Z" fill="#fff" fill-rule="evenodd"/><path id="Fill" d="M7.0753,19.4632a3.8926,3.8926,0,0,1-1.4327-3.16c2.7088.6053,3.6609,2.2321,3.8722,3.5585A10.283,10.283,0,0,1,7.0753,19.4632Z" fill="#252a3a"/><path id="Gray_Fill-3" data-name="Gray Fill" d="M7.0753,19.4632a3.8926,3.8926,0,0,1-1.4327-3.16c2.7088.6053,3.6609,2.2321,3.8722,3.5585A10.283,10.283,0,0,1,7.0753,19.4632Z" fill="#fff" fill-opacity="0.8"/><path id="Black_Fill-3" data-name="Black Fill" d="M10.5366,19.8564c.335-1.1716,1.3116-2.4,3.82-2.791a3.152,3.152,0,0,1-.6965,2.1077A11.3629,11.3629,0,0,1,10.5366,19.8564ZM5.1621,17.7671a2.5684,2.5684,0,0,0,.1731.8337,9.0369,9.0369,0,0,0,3.82,1.2333C8.6266,18.8056,7.499,17.8579,5.1621,17.7671Z" fill="#252a3a" fill-rule="evenodd"/><path id="Outlines" d="M9.9043,19.75v-5.521H8.76v3.67q.1211.1455.2239.2958a4.0149,4.0149,0,0,1,.6387,1.5488Q9.7628,19.7482,9.9043,19.75Zm-.539-.02a3.7622,3.7622,0,0,0-.5877-1.3941,4.8744,4.8744,0,0,0-3.0261-1.88,2.7583,2.7583,0,0,0,.2256,1.2574A4.4716,4.4716,0,0,1,8.669,18.9418a3.4708,3.4708,0,0,1,.568.7788Q9.3011,19.7255,9.3653,19.73Zm-.432-.0374a3.2094,3.2094,0,0,0-.4438-.5765A4.1388,4.1388,0,0,0,6.101,17.9841a4.7565,4.7565,0,0,0,.6739.9895q.153.1746.3228.3371A9.691,9.691,0,0,0,8.9333,19.6923Zm-2.35-.5576a4.92,4.92,0,0,1-.78-1.1927q-.2435-.0291-.5089-.0439a2.5466,2.5466,0,0,0,.1923.747A9.6945,9.6945,0,0,0,6.5836,19.1347ZM5.1552,18.463a9.7493,9.7493,0,1,1,8.8427.4323,3.0982,3.0982,0,0,0,.4833-1.84l-.0113-.1337-.1325.0206a4.9235,4.9235,0,0,0-3.329,1.6953l-.0323.0427V14.2285h6.4933a.125.125,0,0,0,0-.25h-.2307v-5.75a.8517.8517,0,0,0-.065-.3264A3.42,3.42,0,0,0,13.5914,5.793H8.5244V4.749h1.9045a.15.15,0,0,0,.127-.23l-.3585-.57.3465-.46a.15.15,0,0,0-.12-.24h-1.9V2.7422a.125.125,0,0,0-.25,0V5.793H5.9976v.0057A3.4139,3.4139,0,0,0,2.8227,7.9129a.33.33,0,0,0-.0258.1278v6.1806h.0058v.0072H8.51v3.3951a5.6242,5.6242,0,0,0-2.839-1.444L5.54,16.15l-.02.1326a2.8323,2.8323,0,0,0,.1757,1.3955q-.2541-.0258-.529-.0366l-.134-.0053.0042.1341A2.6288,2.6288,0,0,0,5.1552,18.463Zm8.4249.6087a3.0884,3.0884,0,0,0,.6592-1.86A4.596,4.596,0,0,0,11.2067,18.79a3.1971,3.1971,0,0,0-.2306.3449v.5669A9.689,9.689,0,0,0,13.58,19.0717Zm-2.854.6517v-.0473l-.0169.0485Zm-.2849.0168a3.5873,3.5873,0,0,1,.2849-.6713v-4.84h-.5678v5.52Q10.3,19.7465,10.4412,19.74ZM20,10A10,10,0,1,1,10,0,10,10,0,0,1,20,10ZM8.2744,6.043H6.2476v.0038L6,6.0487A3.1636,3.1636,0,0,0,3.0531,8.01a.0786.0786,0,0,0-.0062.0306v5.9306H9.9083v-.0006h.8181V8.2281a.85.85,0,0,1,.0651-.3264,3.4141,3.4141,0,0,1,1.2617-1.554,3.36,3.36,0,0,1,.549-.3047H8.5244V9.0281a.625.625,0,1,1-.25,0Zm.2571-1.544v-1h1.692l-.3295.4376.3538.5624Zm8.4572,9.465H10.9914V8.1611a3.1155,3.1155,0,0,1,1.1545-1.5733,3.2133,3.2133,0,0,1,4.7969,1.41.6011.6011,0,0,1,.0459.23ZM4.1926,12.3867a.42.42,0,1,0,0,.84h3.75a.42.42,0,1,0,0-.84Zm-.17.42a.17.17,0,0,1,.17-.17h3.75a.17.17,0,0,1,0,.34h-3.75A.17.17,0,0,1,4.0225,12.8068Zm-.25-1.164a.42.42,0,0,1,.42-.42H6.5747a.42.42,0,0,1,0,.84H4.1926A.42.42,0,0,1,3.7725,11.6428Zm.42-.17a.17.17,0,0,0,0,.34H6.5747a.17.17,0,0,0,0-.34Zm0-2.9727a.42.42,0,0,0,0,.84h1.362a.42.42,0,1,0,0-.84Zm-.17.42a.17.17,0,0,1,.17-.17h1.362a.17.17,0,0,1,0,.34H4.1926A.17.17,0,0,1,4.0225,8.92Zm4.3769,1.0955a.375.375,0,1,0-.375-.375A.375.375,0,0,0,8.3994,10.0156Z" fill="#252a3a" fill-rule="evenodd"/></svg>