<?xml version="1.0" encoding="UTF-8"?><svg id="Layer_1" xmlns="http://www.w3.org/2000/svg" viewBox="0 0 20 20"><path d="M.5,9c0-1.3807,1.1193-2.5,2.5-2.5h14c1.3807,0,2.5,1.1193,2.5,2.5v8c0,1.3807-1.1193,2.5-2.5,2.5H3c-1.3807,0-2.5-1.1193-2.5-2.5v-8Z" fill="#001531" stroke-width="0"/><path d="M.5,9c0-1.3807,1.1193-2.5,2.5-2.5h14c1.3807,0,2.5,1.1193,2.5,2.5v8c0,1.3807-1.1193,2.5-2.5,2.5H3c-1.3807,0-2.5-1.1193-2.5-2.5v-8Z" fill="rgba(255,255,255,.9)" stroke-width="0"/><path d="M6.5,0c-.2761,0-.5.2239-.5.5s.2239.5.5.5h7c.2761,0,.5-.2239.5-.5s-.2239-.5-.5-.5h-7ZM4,3c-.2761,0-.5.2239-.5.5s.2239.5.5.5h12c.2761,0,.5-.2239.5-.5s-.2239-.5-.5-.5H4ZM3,6c-1.6568,0-3,1.3432-3,3v8c0,1.6569,1.3432,3,3,3h14c1.6569,0,3-1.3431,3-3v-8c0-1.6568-1.3431-3-3-3H3ZM1,9c0-1.1046.8954-2,2-2h14c1.1046,0,2,.8954,2,2v8c0,1.1046-.8954,2-2,2H3c-1.1046,0-2-.8954-2-2v-8ZM10.5993,10.5c0-.3314-.2686-.6-.6-.6s-.6.2686-.6.6v1.8993h-1.8993c-.3314,0-.6.2686-.6.6s.2686.6.6.6h1.8993v1.9007c0,.3314.2686.6.6.6s.6-.2686.6-.6v-1.9007h1.9007c.3314,0,.6-.2687.6-.6s-.2686-.6-.6-.6h-1.9007v-1.8993Z" fill="#001531" fill-rule="evenodd" stroke-width="0"/></svg>