<svg id="Icon" xmlns="http://www.w3.org/2000/svg" viewBox="0 0 20 20"><path id="Black_Fill" data-name="Black Fill" d="M3.61,16.1449a8.1918,8.1918,0,0,0,6.2521,3.4323,7.0006,7.0006,0,0,0,4.9608-1.97c3.8458-3.5371,2.8208-8.7256-.8287-10.8226A5.5366,5.5366,0,0,1,11.4587.4229C8.0949,1.7391,6.8518,6.37,7.6562,10.0511c-1.122-.195-2.6333-1.365-3.0717-4.1926A8.9427,8.9427,0,0,0,3.61,16.1449Z" fill="#252a3a"/><path id="Gray_Fill" data-name="Gray Fill" d="M3.61,16.1449a8.1918,8.1918,0,0,0,6.2521,3.4323,7.0006,7.0006,0,0,0,4.9608-1.97c3.8458-3.5371,2.8208-8.7256-.8287-10.8226A5.5366,5.5366,0,0,1,11.4587.4229C8.0949,1.7391,6.8518,6.37,7.6562,10.0511c-1.122-.195-2.6333-1.365-3.0717-4.1926A8.9427,8.9427,0,0,0,3.61,16.1449Z" fill="#fff" fill-opacity="0.9"/><path id="Outline" d="M11.7392.1064a.4227.4227,0,0,1,.1291.422,5.1144,5.1144,0,0,0,2.3362,5.89c3.8938,2.2374,4.9634,7.7672.9044,11.5-.0091.0083-.0185.0163-.0283.0238-.0865.0666-.1745.1356-.2645.2062a9.9746,9.9746,0,0,1-1.7207,1.1543A7.01,7.01,0,0,1,9.8617,20a7.7763,7.7763,0,0,1-3.9382-1.1747,8.54,8.54,0,0,1-2.6657-2.4459A9.3623,9.3623,0,0,1,4.2557,5.5928a.4228.4228,0,0,1,.7467.2009c.3309,2.1342,1.2821,3.1976,2.11,3.6261a11.12,11.12,0,0,1,.4837-5.2106,6.6717,6.6717,0,0,1,3.7089-4.18A.4226.4226,0,0,1,11.7392.1064ZM8.3931,4.4913a10.28,10.28,0,0,0-.3237,5.47.4229.4229,0,0,1-.4855.5068c-1.1931-.2073-2.5964-1.2948-3.2188-3.6A8.4536,8.4536,0,0,0,3.9615,15.91,7.7017,7.7017,0,0,0,6.3581,18.1a6.9351,6.9351,0,0,0,3.5036,1.0545,6.1674,6.1674,0,0,0,2.8559-.6081A9.0421,9.0421,0,0,0,14.28,17.4938c.089-.07.1785-.14.2695-.21,3.6166-3.34,2.6345-8.1781-.7666-10.1324A5.9018,5.9018,0,0,1,10.8823,1.18,6.1983,6.1983,0,0,0,8.3931,4.4913Z" fill="#252a3a" fill-rule="evenodd"/></svg>