<?xml version="1.0" encoding="UTF-8"?><svg id="Layer_1" xmlns="http://www.w3.org/2000/svg" viewBox="0 0 20 20"><path d="M.5,4.0001C.5,2.6194,1.6193,1.5001,3,1.5001h4.688c.953,0,1.8494.4527,2.4148,1.2199l.5415.7345c.1885.2557.4872.4066.8049.4066h5.5508c1.3807,0,2.5,1.1193,2.5,2.5v9.6389c0,1.3807-1.1193,2.5-2.5,2.5H3c-1.3807,0-2.5-1.1193-2.5-2.5V4.0001Z" fill="#001531" stroke-width="0"/><path d="M.5,4.0001C.5,2.6194,1.6193,1.5001,3,1.5001h4.688c.953,0,1.8494.4527,2.4148,1.2199l.5415.7345c.1885.2557.4872.4066.8049.4066h5.5508c1.3807,0,2.5,1.1193,2.5,2.5v9.6389c0,1.3807-1.1193,2.5-2.5,2.5H3c-1.3807,0-2.5-1.1193-2.5-2.5V4.0001Z" fill="rgba(255,255,255,.9)" stroke-width="0"/><path d="M.5,12.65h2.65M19.5,12.65v-6.2889c0-1.3807-1.1193-2.5-2.5-2.5h-5.5508c-.3177,0-.6164-.1509-.8049-.4066l-.5415-.7345c-.5655-.7671-1.4618-1.2199-2.4148-1.2199H3c-1.3807,0-2.5,1.1194-2.5,2.5001v11.9999c0,1.3807,1.1193,2.5,2.5,2.5h14c1.3807,0,2.5-1.1193,2.5-2.5v-3.35ZM19.5,12.65h-2.7M3.15,12.65l2.0309-3.2171c.8497-1.3461,2.6028-1.7941,3.9942-1.0208l7.6249,4.2379M3.15,12.65h13.65" fill="none" stroke="#001531"/></svg>