<?xml version="1.0" encoding="UTF-8"?><svg id="Layer_1" xmlns="http://www.w3.org/2000/svg" viewBox="0 0 20 20"><path d="M10.8652.4143l7.8728,3.0044c.6112.2333,1.0251.8021,1.0117,1.451-.0303,1.4677-.2248,4.2063-1.1624,6.6564-1.3822,3.612-4.6149,7.2911-8.4527,8.2034-.1248.0296-.2555.0268-.3791-.0073-4.1746-1.1487-7.1916-4.7645-8.4371-8.1961C.4377,9.0993.2698,6.3382.2501,4.8637c-.0086-.6462.4034-1.2116,1.0114-1.4451L9.0764.4163c.5753-.221,1.213-.2217,1.7888-.002Z" fill="#001531" stroke-width="0"/><path d="M10.8652.4143l7.8728,3.0044c.6112.2333,1.0251.8021,1.0117,1.451-.0303,1.4677-.2248,4.2063-1.1624,6.6564-1.3822,3.612-4.6149,7.2911-8.4527,8.2034-.1248.0296-.2555.0268-.3791-.0073-4.1746-1.1487-7.1916-4.7645-8.4371-8.1961C.4377,9.0993.2698,6.3382.2501,4.8637c-.0086-.6462.4034-1.2116,1.0114-1.4451L9.0764.4163c.5753-.221,1.213-.2217,1.7888-.002Z" fill="rgba(255,255,255,.9)" stroke-width="0"/><path d="M11.0213.1929c-.6762-.2581-1.4249-.2572-2.1006.0023L1.3063,3.1205C.5344,3.4171-.0112,4.1464.0002,5.002c.0194,1.4535.1837,4.2112,1.0708,6.6556,1.2539,3.455,4.2965,7.1248,8.5581,8.2975.2001.0551.4128.0602.6177.0114,3.9508-.9391,7.2029-4.6831,8.5873-8.3008.9444-2.468,1.1356-5.2047,1.1655-6.6541.0178-.8609-.5314-1.5952-1.3074-1.8913L11.0213.1929ZM9.2794,1.1287c.4455-.1711.9395-.1717,1.3853-.0015l7.671,2.9274c.4151.1584.6724.5326.6641.9364-.0291,1.4108-.217,4.0107-1.0997,6.3173-1.3091,3.4211-4.3567,6.8468-7.8846,7.6854-.0383.0091-.0802.0085-.1211-.0027-3.8734-1.0659-6.7103-4.4423-7.8834-7.6746-.8292-2.2848-.992-4.9079-1.0109-6.3277-.0054-.4037.2519-.7761.6648-.9347l7.6144-2.9253ZM12.718,13.5c.5524,0,.9303-.5417.7256-1.0401l-2.351-5.7225c-.1829-.4453-.6267-.7373-1.1203-.7373-.4977,0-.9443.2969-1.1244.7476l-2.2955,5.7441c-.1939.4853.1747,1.0083.7106,1.0083.3209,0,.6074-.1952.7167-.4883l.4531-1.2153h3.076l.4797,1.2162c.1157.2936.4059.4874.7295.4874ZM9.9498,7.7497l1.0603,2.783h-2.0996l1.0393-2.783Z" fill="#001531" fill-rule="evenodd" stroke-width="0"/></svg>