<?xml version="1.0" encoding="UTF-8"?><svg id="Layer_1" xmlns="http://www.w3.org/2000/svg" viewBox="0 0 30 30"><path d="M10.5221,8.524c-.7606.9778-1.5212,1.9556-2.2838,2.9317v1.7653c-.0009-.7338-.0099-1.1309-.1041-1.4615-.262-.9192-.9876-1.6375-1.916-1.8968-.3693-.1032-.8209-.1032-1.7239-.1032s-1.3547,0-1.724.1032c-.9285.2593-1.6541.9776-1.916,1.8968-.1042.3656-.1042.8125-.1042,1.7064v11.3271c0,.8938,0,1.3407.1042,1.7063.2619.9192.9876,1.6375,1.916,1.8969.3693.103.8209.1032,1.724.1032s1.3547-.0002,1.724-.1032c.9285-.2594,1.6541-.9777,1.916-1.8969.0942-.3306.1032-.7276.1041-1.4615v.3513c1.7264,1.7184,4.0028,2.7951,6.4472,2.9294,2.6601.1463,6.1834.2463,8.7074-.031,1.8693-.2054,4.0275-1.6212,4.7924-3.6801,1.1327-3.0474,1.3603-7.4197.6995-9.715-.317-1.1008-1.0447-2.0413-2.0358-2.6309-1.0837-.6446-2.5962-.6446-5.7795-.6446-1.4557,0-2.0603-.6141-1.563-2.3843.6704-2.3872,1.3248-6.8884-1.2388-7.6262-1.1495-.3308-2.4299.1345-3.1611,1.0582-1.5392,1.9444-3.0619,3.9019-4.5845,5.8594Z" fill="#001531" stroke-width="0"/><path d="M10.5221,8.524c-.7606.9778-1.5212,1.9556-2.2838,2.9317v1.7653c-.0009-.7338-.0099-1.1309-.1041-1.4615-.262-.9192-.9876-1.6375-1.916-1.8968-.3693-.1032-.8209-.1032-1.7239-.1032s-1.3547,0-1.724.1032c-.9285.2593-1.6541.9776-1.916,1.8968-.1042.3656-.1042.8125-.1042,1.7064v11.3271c0,.8938,0,1.3407.1042,1.7063.2619.9192.9876,1.6375,1.916,1.8969.3693.103.8209.1032,1.724.1032s1.3547-.0002,1.724-.1032c.9285-.2594,1.6541-.9777,1.916-1.8969.0942-.3306.1032-.7276.1041-1.4615v.3513c1.7264,1.7184,4.0028,2.7951,6.4472,2.9294,2.6601.1463,6.1834.2463,8.7074-.031,1.8693-.2054,4.0275-1.6212,4.7924-3.6801,1.1327-3.0474,1.3603-7.4197.6995-9.715-.317-1.1008-1.0447-2.0413-2.0358-2.6309-1.0837-.6446-2.5962-.6446-5.7795-.6446-1.4557,0-2.0603-.6141-1.563-2.3843.6704-2.3872,1.3248-6.8884-1.2388-7.6262-1.1495-.3308-2.4299.1345-3.1611,1.0582-1.5392,1.9444-3.0619,3.9019-4.5845,5.8594Z" fill="rgba(255,255,255,.9)" stroke-width="0"/><path d="M16.3352,2.3182c-.4575.2561-.8146.6121-1.003.859l-.0038.005-6.6825,8.5341c.0473.2044.0725.4215.0748.5935.0438,3.2575.0311,8.4794.0243,11.2988-.0014.5779-.0026,1.0549-.0029,1.3933v.0918c.5725.7128,1.4083,1.3173,2.3414,1.7765.986.4853,2.0475.7917,2.9513.8957.935.1075,2.743.1756,4.5687.1858,1.8287.0102,3.6229-.0382,4.5368-.1542,1.7609-.2236,3.2191-1.2075,3.9857-2.3148.6401-.9244,1.1779-2.7769,1.4471-4.8156.2679-2.0278.2526-4.1071-.1214-5.4479-.5489-1.9676-2.0059-2.9173-3.6155-3.0234-.6969-.0459-1.5642-.063-2.2629-.0685-.3481-.0027-.6522-.0025-.869-.0016-.1084.0004-.195.001-.2544.0015l-.0679.0007h-.0035c-.7174.0636-1.4504-.0548-1.963-.4817-.5603-.4666-.7339-1.1925-.5071-2.0431.201-.7536.6818-2.5584.7008-4.2534.0095-.8489-.0984-1.6202-.3775-2.2053-.2678-.5613-.6923-.9558-1.3795-1.1025-.5444-.1163-1.0633.0223-1.517.2763ZM21.3471,11.1282l-.0204.0002-.0202.0019c-.5932.0556-1.0221-.0619-1.2511-.2526-.1864-.1552-.3349-.439-.1808-1.0169l.0047-.0173c.2017-.7562.7094-2.6596.7298-4.4826.0103-.9171-.1013-1.864-.4749-2.6471-.385-.8069-1.0466-1.4306-2.0731-1.6499-.8489-.1813-1.6172.0474-2.2144.3817-.5918.3313-1.0482.7832-1.3075,1.1224l-6.3518,8.1117c-.2973-.4597-.7484-.899-1.492-1.1801-.4976-.1881-1.3213-.2687-2.0797-.2796-.7638-.011-1.5837.0473-2.088.198-1.0098.3018-2.2543,1.3311-2.2543,3.0227,0,.5387-.0041,3.3836-.0083,6.3411-.0044,3.0684-.0089,6.2582-.0093,7.1197,0,.3743.1348.8958.424,1.3945.2949.5086.7681,1.0245,1.4727,1.3468.6433.2943,1.5435.364,2.3192.3567.7937-.0074,1.5513-.0978,1.964-.1809.5786-.1165,1.0435-.4383,1.3806-.7857.3347-.3449.5722-.7442.6858-1.0733.0635-.1837.1063-.3607.1359-.5267.5895.5344,1.2844.9804,2.0038,1.3345,1.0825.5327,2.2543.874,3.2786.9918.993.1142,2.8474.1822,4.6774.1924,1.8268.0102,3.6814-.0369,4.6684-.1622,2.041-.2591,3.7528-1.3957,4.6819-2.7375.782-1.1295,1.3428-3.1827,1.6163-5.2539.275-2.0822.2773-4.3172-.1496-5.8476-.6709-2.4048-2.5099-3.6205-4.5129-3.7525-.7268-.0479-1.6175-.0652-2.3209-.0706-.3529-.0028-.661-.0026-.8809-.0017-.11.0004-.198.0011-.2586.0016l-.0698.0006-.0247.0003ZM7.7421,25.2243v-.2235c.0004-.3405.0015-.8194.0029-1.3992.0068-2.8214.0194-8.0302-.0242-11.2784-.0022-.165-.0424-.4003-.0934-.5323-.212-.5483-.509-1.0624-1.2855-1.3559-.3223-.1218-.9942-.2043-1.7405-.215-.7409-.0107-1.4349.0509-1.7872.1562-.7033.2102-1.5407.9261-1.5407,2.0646,0,.5375-.0041,3.3854-.0083,6.3451-.0044,3.0686-.0089,6.2574-.0093,7.1159M7.7421,25.2243c-.015.1016-.0214.2073-.0259.301-.0018.0366-.0033.0721-.0049.1073-.0034.0793-.0068.157-.0128.2434-.0165.2398-.0504.4936-.1415.7573-.0621.1797-.2173.4551-.4583.7033-.2385.2458-.532.4357-.8604.5018-.3447.0694-1.0389.1543-1.776.1613-.7549.0071-1.4642-.0696-1.8939-.2662-.4843-.2215-.8134-.5765-1.0236-.939-.2158-.3722-.289-.7223-.289-.8927" fill="#001531" fill-rule="evenodd" stroke-width="0"/></svg>