<?xml version="1.0" encoding="UTF-8"?><svg id="Layer_1" xmlns="http://www.w3.org/2000/svg" viewBox="0 0 20 20"><path d="M2.7954,16.7209c2.508.1805,4.6915,1.2048,5.9784,1.9493.761.4398,1.6915.4398,2.4524,0,1.287-.7445,3.4704-1.7688,5.9784-1.9493,1.2827-.0922,2.2954-1.1176,2.2954-2.4014V3.4212c0-1.4457-.824-2.6038-2.7062-2.3973-2.3345.2553-4.3516,1.2079-5.5676,1.9123-.7609.4399-1.6915.4399-2.4524,0-1.216-.7044-3.2331-1.657-5.5675-1.9123C1.408.8277.5,1.9755.5,3.4212v10.8983c0,1.2838,1.0127,2.3092,2.2954,2.4014Z" fill="#001531" stroke-width="0"/><path d="M2.7954,16.7209c2.508.1805,4.6915,1.2048,5.9784,1.9493.761.4398,1.6915.4398,2.4524,0,1.287-.7445,3.4704-1.7688,5.9784-1.9493,1.2827-.0922,2.2954-1.1176,2.2954-2.4014V3.4212c0-1.4457-.824-2.6038-2.7062-2.3973-2.3345.2553-4.3516,1.2079-5.5676,1.9123-.7609.4399-1.6915.4399-2.4524,0-1.216-.7044-3.2331-1.657-5.5675-1.9123C1.408.8277.5,1.9755.5,3.4212v10.8983c0,1.2838,1.0127,2.3092,2.2954,2.4014Z" fill="rgba(255,255,255,.9)" stroke-width="0"/><path d="M6.2867,7.7062l-2.2711-.9009M6.2867,12.3799l-2.2711-.901M10,3.6388v15.1745M2.7954,16.7208c2.508.1806,4.6915,1.2049,5.9784,1.9493.761.4399,1.6915.4399,2.4524,0,1.287-.7444,3.4704-1.7687,5.9784-1.9493,1.2827-.0922,2.2954-1.1175,2.2954-2.4013V3.4212c0-1.4457-.824-2.6038-2.7062-2.3973-2.3345.2553-4.3516,1.2079-5.5676,1.9123-.7609.4399-1.6915.4399-2.4524,0-1.216-.7044-3.2331-1.657-5.5675-1.9123C1.408.8277.5,1.9755.5,3.4212v10.8983c0,1.2838,1.0127,2.3091,2.2954,2.4013Z" fill="none" stroke="#001531" stroke-linecap="round" stroke-linejoin="round"/></svg>