<?xml version="1.0" encoding="UTF-8"?><svg id="Layer_1" xmlns="http://www.w3.org/2000/svg" viewBox="0 0 20 20"><path d="M15.4979,16.75H5.2479c-3.0337,0-4.7479-2.4572-4.7479-4.7121s1.2321-3.825,3.0185-4.4871c.5005-2.8716,2.8234-4.3008,5.0172-4.3008,1.8112,0,3.1964.6619,4.0714,2.1331,2.0536-.6436,3.875,1.0114,3.875,3.0159,2,.6436,3.0179,2.3794,3.0179,4.1928s-1.5595,4.1582-4.0021,4.1582Z" fill="#001531" stroke-width="0"/><path d="M15.4979,16.75H5.2479c-3.0337,0-4.7479-2.4572-4.7479-4.7121s1.2321-3.825,3.0185-4.4871c.5005-2.8716,2.8234-4.3008,5.0172-4.3008,1.8112,0,3.1964.6619,4.0714,2.1331,2.0536-.6436,3.875,1.0114,3.875,3.0159,2,.6436,3.0179,2.3794,3.0179,4.1928s-1.5595,4.1582-4.0021,4.1582Z" fill="rgba(255,255,255,.9)" stroke-width="0"/><path d="M15.4979,16.75c2.4426,0,4.0021-2.3447,4.0021-4.1581s-1.0179-3.5493-3.0179-4.1929c0-2.0045-1.8214-3.6595-3.875-3.0159-.875-1.4712-2.2602-2.1331-4.0714-2.1331-2.1938,0-4.5168,1.4292-5.0172,4.3008-1.7864.662-3.0185,2.2321-3.0185,4.4871s1.7143,4.7121,4.7479,4.7121" fill="none" stroke="#001531" stroke-linecap="round"/><path d="M11.7615,9.1556c.238-.1407.3229-.4527.1515-.6715-.3798-.4844-.8902-.8515-1.4763-1.0551-.7445-.2586-1.562-.2364-2.3044.0627-.7424.2991-1.3607.8552-1.743,1.5678-.2581.4811-.397,1.0119-.4102,1.5469l-.2934-.3135c-.1487-.1589-.3995-.1635-.5594-.0094-.161.1551-.1688.408-.0198.5672l1.0736,1.1473c.0745.0796.1739.12.2751.1208.101.0015.2034-.0358.2844-.1138l1.1559-1.1134c.1602-.1544.1705-.4087.0222-.5673-.1494-.1596-.3989-.1617-.5595-.007l-.3856.3715c.0006-.0117.001-.0235.0011-.0353.0022-.3897.0999-.7778.2878-1.1281.2676-.4988.7004-.8881,1.2201-1.0974.5197-.2094,1.0919-.2249,1.6131-.0439.359.1247.6775.3371.9296.6155.1891.2089.4957.2989.7373.1561ZM6.9975,13.0041c-.2384.1413-.3228.4544-.15.6728.37.468.8628.8258,1.4286,1.0311.724.2627,1.5219.2592,2.2556-.01.7336-.2692,1.3569-.7872,1.762-1.4642.2757-.4609.4385-.9758.4795-1.5013l.2762.3291c.1399.1667.3901.1851.558.04.1691-.146.1903-.3981.05-.5653l-1.0108-1.2045c-.0701-.0836-.1672-.1294-.2682-.1358-.1008-.007-.205.0247-.2901.0981l-1.2135,1.0483c-.1683.1453-.1921.3987-.0524.5652.1407.1677.3897.1834.5583.0377l.407-.3516c-.0029.0194-.005.0389-.0064.0585-.0255.3761-.1402.7451-.3374,1.0747-.2835.4739-.7198.8365-1.2334,1.0249-.5136.1885-1.0721.191-1.5789.0071-.3456-.1255-.6524-.3322-.897-.6005-.1896-.208-.4959-.2972-.7371-.1543Z" fill="#001531" fill-rule="evenodd" stroke-width="0"/></svg>