<svg width="20" height="20" viewBox="0 0 20 20" fill="none" xmlns="http://www.w3.org/2000/svg">
<g clip-path="url(#clip0_9266_239084)">
<path d="M2.42904 0.499023H11.2196C12.2984 0.499023 13.173 1.34554 13.173 2.38978V7.2041H17.5672C18.6461 7.2041 19.5207 8.05062 19.5207 9.09486V17.6032C19.5207 18.6475 18.6461 19.494 17.5672 19.494H8.77669C7.69783 19.494 6.82324 18.6475 6.82324 17.6032V12.7889H2.42904C1.35018 12.7889 0.475586 11.9424 0.475586 10.8982V2.38978C0.475586 1.34554 1.35018 0.499023 2.42904 0.499023Z" fill="#E8E7E9"/>
<path fill-rule="evenodd" clip-rule="evenodd" d="M6.34766 13.2954L2.42961 13.2954C1.12762 13.2954 0 12.2641 0 10.9019V2.39352C0 1.03133 1.12762 0 2.42961 0H11.2201C12.5221 0 13.6497 1.03133 13.6497 2.39352V6.70508H17.5678C18.8698 6.70508 19.9974 7.73641 19.9974 9.0986V17.607C19.9974 18.9692 18.8698 20.0005 17.5678 20.0005H8.77726C7.47528 20.0005 6.34766 18.9692 6.34766 17.607V13.2954ZM0.952308 2.39352C0.952308 1.66724 1.57387 1.00554 2.42961 1.00554H11.2201C12.0759 1.00554 12.6974 1.66724 12.6974 2.39352V6.70508H8.77726C7.47528 6.70508 6.34766 7.73641 6.34766 9.0986V12.2899L2.42961 12.2899C1.57387 12.2899 0.952308 11.6282 0.952308 10.9019V2.39352ZM7.29996 9.0986C7.29996 8.37232 7.92153 7.71062 8.77726 7.71062H17.5678C18.4235 7.71062 19.0451 8.37232 19.0451 9.0986V17.607C19.0451 18.3333 18.4235 18.995 17.5678 18.995H8.77726C7.92153 18.995 7.29996 18.3333 7.29996 17.607V9.0986Z" fill="#180B25"/>
</g>
<defs>
<clipPath id="clip0_9266_239084">
<rect width="20" height="20" fill="white"/>
</clipPath>
</defs>
</svg>
