<?xml version="1.0" encoding="UTF-8"?><svg id="Layer_1" xmlns="http://www.w3.org/2000/svg" viewBox="0 0 25 25"><path d="M12.5,1.25l3.6694,7.4054,8.2056,1.1948-5.9375,5.761,1.4012,8.1388-7.3387-3.8446-7.3387,3.8446,1.4012-8.1388L.625,9.8502l8.2056-1.1948,3.6694-7.4054Z" fill="#f5f7f9" stroke-width="0"/><path d="M12.5.75c.1901,0,.3637.1077.448.278l3.553,7.1704,7.9461,1.157c.1885.0274.345.1596.4036.3409.0587.1812.0092.38-.1275.5127l-5.7482,5.5773,1.3565,7.8789c.0323.1875-.0446.377-.1984.489-.1538.112-.3578.127-.5264.0387l-7.1067-3.7231-7.1067,3.7231c-.1685.0883-.3725.0733-.5263-.0387s-.2307-.3015-.1984-.489l1.3565-7.8789L.2768,10.209c-.1367-.1327-.1862-.3315-.1275-.5127.0586-.1813.2152-.3134.4037-.3409l7.9461-1.157,3.5529-7.1704c.0844-.1703.258-.278.448-.278ZM12.5,2.3762l-3.2213,6.5012c-.0729.1472-.2135.2491-.376.2728l-7.2005,1.0485,5.2086,5.0538c.1185.1149.1726.2809.1446.4436l-1.2295,7.1414,6.4423-3.3749c.1453-.0762.3187-.0762.464,0l6.4423,3.3749-1.2295-7.1414c-.028-.1627.0261-.3287.1445-.4436l5.2086-5.0538-7.2006-1.0485c-.1625-.0237-.303-.1256-.3759-.2728l-3.2214-6.5012Z" fill="#001531" fill-rule="evenodd" stroke-width="0"/></svg>