<svg id="Layer_1" data-name="Layer 1" xmlns="http://www.w3.org/2000/svg" viewBox="0 0 20 20"><path d="M17.4986,8.0272a1.82,1.82,0,0,1,0-3.34,1.7843,1.7843,0,0,1,1.3925,0,1.8134,1.8134,0,0,1,.9549.9658,1.8435,1.8435,0,0,1,0,1.4084,1.8148,1.8148,0,0,1-.9549.9658A1.7843,1.7843,0,0,1,17.4986,8.0272Zm-1.0944,6.7454V9.3183h3.5946v3.5745a1.5138,1.5138,0,0,1-.2561.9046,1.9484,1.9484,0,0,1-.6492.5793,2.8442,2.8442,0,0,1-.8709.3075,5.0539,5.0539,0,0,1-.92.0884ZM14.187,6.89a1.7232,1.7232,0,0,1-.6954.1418,1.6981,1.6981,0,0,1-.6938-.1418.9028.9028,0,0,1-.1912-.1176,1.4591,1.4591,0,0,0-.2472-.1551V3.8225a1.4414,1.4414,0,0,0,.2471-.155.9.9,0,0,1,.1913-.1177,1.7,1.7,0,0,1,.6913-.1419,1.722,1.722,0,0,1,.6962.1419,1.8134,1.8134,0,0,1,.9549.9658,1.8394,1.8394,0,0,1,.0009,1.4084A1.8127,1.8127,0,0,1,14.187,6.89Zm-1.6,9.3821c-.0611-.0167-.1312-.0358-.2279-.057V8.1818h3.37v6.3113a1.6678,1.6678,0,0,1-.2259.9038,1.7752,1.7752,0,0,1-.5728.5751,2.379,2.379,0,0,1-.7684.3032,3.9392,3.9392,0,0,1-.81.0884,3.7856,3.7856,0,0,1-.5275-.0391,1.7168,1.7168,0,0,1-.2372-.0526ZM11.685,20,0,17.9546V2.0454L11.685,0ZM3.1461,6.4684l5.3928-.3322V7.5l-2.0224.0909v5.9664l-1.348-.08V7.644l-2.0224.0824Z" fill="#252a3a" fill-rule="evenodd"/></svg>