<?xml version="1.0" encoding="UTF-8"?><svg id="Layer_1" xmlns="http://www.w3.org/2000/svg" viewBox="0 0 20 20"><path d="M19,6.5005v9c0,2.2091-1.7909,4-4,4H5c-2.2091,0-4-1.7909-4-4V6.5005c0-2.2091,1.7909-4,4-4h2.9951v-1.0005c0-.5523.4477-1,1-1h2.0137c.5558,0,1.0049.4531,1,1.0089l-.0088.9916h3c2.2091,0,4,1.7909,4,4Z" fill="#001531" stroke-width="0"/><path d="M19,6.5005v9c0,2.2091-1.7909,4-4,4H5c-2.2091,0-4-1.7909-4-4V6.5005c0-2.2091,1.7909-4,4-4h2.9951v-1.0005c0-.5523.4477-1,1-1h2.0137c.5558,0,1.0049.4531,1,1.0089l-.0088.9916h3c2.2091,0,4,1.7909,4,4Z" fill="rgba(255,255,255,.9)" stroke-width="0"/><path d="M8.4951,1.5c0-.2761.2239-.5.5-.5h2.0137c.2779,0,.5025.2266.5.5044l-.0088.9916h0v1.004c0,.2761-.2239.5-.5.5h-2.0049c-.2761,0-.5-.2239-.5-.5V1.5ZM8.9951,0c-.8284,0-1.5.6716-1.5,1.5v.5005h-2.4951C2.5147,2.0005.5,4.0152.5,6.5005v9c0,2.4852,2.0147,4.5,4.5,4.5h10c2.4853,0,4.5-2.0148,4.5-4.5V6.5005c0-2.4853-2.0147-4.5-4.5-4.5h-2.4955l.0043-.4871c.0074-.8336-.6663-1.5133-1.5-1.5133h-2.0137ZM5,3.0005h2.4951v.4995c0,.8284.6716,1.5,1.5,1.5h2.0049c.8284,0,1.5-.6716,1.5-1.5v-.4995h2.5c1.933,0,3.5,1.567,3.5,3.5v9c0,1.933-1.567,3.5-3.5,3.5H5c-1.933,0-3.5-1.567-3.5-3.5V6.5005c0-1.933,1.567-3.5,3.5-3.5ZM7.8714,9.8898c0-1.1886.9478-2.1398,2.1016-2.1398s2.1016.9511,2.1016,2.1398-.9478,2.1397-2.1016,2.1397-2.1016-.9511-2.1016-2.1397ZM9.973,6.75c-1.7198,0-3.1016,1.4126-3.1016,3.1398,0,.9691.4351,1.8392,1.1208,2.4163-1.2238.3606-2.112,1.5055-2.112,2.8521,0,.065-.0012.1356-.0024.2104h0c-.0048.2877-.0106.6372.0456.9658.0466.2722.305.455.5772.4084.2722-.0466.4551-.305.4085-.5772-.039-.2277-.0356-.4513-.0316-.7223.0013-.0893.0027-.1837.0027-.2851,0-1.095.8729-1.9702,1.9346-1.9702h2.3706c1.0616,0,1.9345.8752,1.9345,1.9702,0,.1012.0014.1955.0028.2847h0c.004.2712.0073.4949-.0316.7228-.0466.2722.1363.5306.4085.5771.2722.0466.5306-.1363.5771-.4085.0563-.3286.0504-.6781.0457-.9658v-.0002c-.0013-.0746-.0025-.1452-.0025-.2101,0-1.3613-.9078-2.5166-2.1523-2.8637.6778-.5771,1.1071-1.4421,1.1071-2.4047,0-1.7272-1.3818-3.1398-3.1016-3.1398Z" fill="#001531" fill-rule="evenodd" stroke-width="0"/></svg>