<?xml version="1.0" encoding="UTF-8"?><svg id="Layer_1" xmlns="http://www.w3.org/2000/svg" viewBox="0 0 20 20"><path d="M17.6.5H2.4C1.3507.5.5,1.3954.5,2.5v4c0,1.1046.8507,2,1.9,2h15.2c1.0493,0,1.9-.8954,1.9-2V2.5c0-1.1046-.8507-2-1.9-2ZM17.6,11.5H2.4c-1.0493,0-1.9.8954-1.9,2v4c0,1.1046.8507,2,1.9,2h15.2c1.0493,0,1.9-.8954,1.9-2v-4c0-1.1046-.8507-2-1.9-2Z" fill="#001531" fill-rule="evenodd" stroke-width="0"/><path d="M17.6.5H2.4C1.3507.5.5,1.3954.5,2.5v4c0,1.1046.8507,2,1.9,2h15.2c1.0493,0,1.9-.8954,1.9-2V2.5c0-1.1046-.8507-2-1.9-2ZM17.6,11.5H2.4c-1.0493,0-1.9.8954-1.9,2v4c0,1.1046.8507,2,1.9,2h15.2c1.0493,0,1.9-.8954,1.9-2v-4c0-1.1046-.8507-2-1.9-2Z" fill="rgba(255,255,255,.9)" fill-rule="evenodd" stroke-width="0"/><path d="M2.4,0C1.0507,0,0,1.1438,0,2.5v4c0,1.3562,1.0507,2.5,2.4,2.5h15.2c1.3493,0,2.4-1.1438,2.4-2.5V2.5c0-1.3562-1.0507-2.5-2.4-2.5H2.4ZM1,2.5c0-.8529.6507-1.5,1.4-1.5h15.2c.7493,0,1.4.6471,1.4,1.5v4c0,.8529-.6507,1.5-1.4,1.5H2.4c-.7493,0-1.4-.6471-1.4-1.5V2.5ZM2.4,11c-1.3493,0-2.4,1.1438-2.4,2.5v4c0,1.3562,1.0507,2.5,2.4,2.5h15.2c1.3493,0,2.4-1.1438,2.4-2.5v-4c0-1.3562-1.0507-2.5-2.4-2.5H2.4ZM1,13.5c0-.8529.6507-1.5,1.4-1.5h15.2c.7493,0,1.4.6471,1.4,1.5v4c0,.8529-.6507,1.5-1.4,1.5H2.4c-.7493,0-1.4-.6471-1.4-1.5v-4ZM5.5,4.5c0,.5523-.4477,1-1,1s-1-.4477-1-1,.4477-1,1-1,1,.4477,1,1ZM5.5,15.5c0,.5523-.4477,1-1,1s-1-.4477-1-1,.4477-1,1-1,1,.4477,1,1Z" fill="#001531" fill-rule="evenodd" stroke-width="0"/></svg>