<?xml version="1.0" encoding="UTF-8"?><svg id="Layer_1" xmlns="http://www.w3.org/2000/svg" viewBox="0 0 20 20"><path d="M10,1l2.9355,5.9243,6.5645.9558-4.75,4.6089,1.121,6.511-5.871-3.0757-5.871,3.0757,1.121-6.511L.5,7.8801l6.5645-.9558,2.9355-5.9243Z" fill="#001531" stroke-width="0"/><path d="M10,1l2.9355,5.9243,6.5645.9558-4.75,4.6089,1.121,6.511-5.871-3.0757-5.871,3.0757,1.121-6.511L.5,7.8801l6.5645-.9558,2.9355-5.9243Z" fill="rgba(255,255,255,.9)" stroke-width="0"/><path d="M10,.5c.1901,0,.3637.1077.448.278l2.8191,5.6893,6.305.918c.1885.0274.345.1596.4036.3409.0587.1813.0092.3801-.1275.5127l-4.5607,4.4251,1.0763,6.2511c.0322.1875-.0447.377-.1985.489-.1538.112-.3578.127-.5263.0387l-5.639-2.9542-5.639,2.9542c-.1685.0883-.3725.0733-.5263-.0387s-.2307-.3015-.1984-.489l1.0762-6.2511L.1518,8.239c-.1367-.1327-.1862-.3315-.1275-.5127.0586-.1813.2152-.3134.4037-.3409l6.305-.918L9.552.778c.0844-.1703.258-.278.448-.278ZM10,2.1262l-2.4875,5.0201c-.0729.1472-.2134.2491-.376.2728l-5.5594.8095,4.0211,3.9015c.1185.115.1726.281.1446.4437l-.9493,5.5136,4.9745-2.606c.1453-.0761.3187-.0761.464,0l4.9745,2.606-.9492-5.5136c-.028-.1627.0261-.3287.1445-.4437l4.0211-3.9015-5.5594-.8095c-.1625-.0237-.3031-.1256-.376-.2728l-2.4875-5.0201Z" fill="#001531" fill-rule="evenodd" stroke-width="0"/></svg>