<?xml version="1.0" encoding="UTF-8"?><svg id="Icon" xmlns="http://www.w3.org/2000/svg" viewBox="0 0 20 20"><path id="Solid_Fill" d="M7.922,12.8423v3.7894c0,.7537,.3043,1.4766,.8458,2.0096,.5416,.533,1.2761,.8324,2.042,.8324l3.8506-8.5261V.5267H3.8019c-.4643-.0052-.9149,.155-1.2687,.4509-.3538,.2959-.587,.7078-.6566,1.1596L.5482,10.6634c-.0419,.2715-.0233,.5488,.0545,.8126,.0778,.2637,.213,.5077,.3961,.715,.1831,.2072,.4099,.3728,.6645,.4853,.2546,.1124,.5311,.1691,.8101,.166H7.922ZM14.6605,.5267h2.5703c.5448-.0095,1.0742,.1782,1.4877,.5275,.4134,.3493,.6822,.8358,.7552,1.3672v6.6315c-.073,.5314-.3418,1.0179-.7552,1.3672-.4135,.3492-.9429,.537-1.4877,.5275h-2.5703" fill="#001531"/><path id="Opacity_Fill" d="M7.922,12.8423v3.7894c0,.7537,.3043,1.4766,.8458,2.0096,.5416,.533,1.2761,.8324,2.042,.8324l3.8506-8.5261V.5267H3.8019c-.4643-.0052-.9149,.155-1.2687,.4509-.3538,.2959-.587,.7078-.6566,1.1596L.5482,10.6634c-.0419,.2715-.0233,.5488,.0545,.8126,.0778,.2637,.213,.5077,.3961,.715,.1831,.2072,.4099,.3728,.6645,.4853,.2546,.1124,.5311,.1691,.8101,.166H7.922ZM14.6605,.5267h2.5703c.5448-.0095,1.0742,.1782,1.4877,.5275,.4134,.3493,.6822,.8358,.7552,1.3672v6.6315c-.073,.5314-.3418,1.0179-.7552,1.3672-.4135,.3492-.9429,.537-1.4877,.5275h-2.5703" fill="rgba(255,255,255,.9)"/><path id="Outline" d="M18.3788,1.4562c-.3154-.2664-.7206-.4106-1.1389-.4033l-.0092,.0002h-2.0439s0,9.3681,0,9.3681h2.0531c.4183,.0073,.8235-.1368,1.1389-.4032,.3064-.2589,.507-.6152,.5686-1.0037V2.4599c-.0616-.3885-.2622-.7448-.5686-1.0037Zm-4.2446,9.378V1.053H3.796c-.3398-.0038-.6683,.1135-.9251,.3283-.2567,.2147-.4242,.5119-.4741,.836L1.0683,10.7435s0-.0001,0,0c-.03,.1948-.0167,.3941,.0392,.5835,.0559,.1895,.1532,.3655,.2857,.5154,.1325,.15,.2971,.2704,.4827,.3524,.1856,.082,.3875,.1234,.5916,.1211H7.922c.2907,0,.5263,.2356,.5263,.5263v3.7894c0,.6115,.2467,1.1996,.6887,1.6345,.3643,.3585,.8366,.5886,1.3433,.6586l3.6539-8.0905Zm.8661,.6396l-3.7107,8.2165c-.0852,.1885-.2729,.3097-.4797,.3097-.9028,0-1.7703-.3529-2.4113-.9836-.6412-.631-1.003-1.4887-1.003-2.3848v-3.2631H2.4762c-.353,.0035-.7029-.0683-1.0256-.2108-.3236-.143-.6125-.3537-.8463-.6183-.2338-.2646-.4068-.5766-.5065-.9146-.0997-.338-.1236-.6935-.0699-1.0417L1.3564,2.057s0,.0001,0,0c.0894-.5793,.3883-1.106,.8391-1.4831C2.6454,.1975,3.2168-.0055,3.8046,.0003h13.4218c.6696-.0105,1.3213,.2206,1.8316,.6518,.5118,.4323,.8462,1.0361,.9371,1.6976,.0033,.0238,.0049,.0477,.0049,.0717v6.6315c0,.024-.0016,.0479-.0049,.0717-.0909,.6615-.4253,1.2652-.9371,1.6976-.5103,.4311-1.162,.6622-1.8316,.6517h-2.2261Z" fill="#001531" fill-rule="evenodd"/></svg>