<svg id="Icon" xmlns="http://www.w3.org/2000/svg" viewBox="0 0 20 20"><path id="Black_Fill" data-name="Black Fill" d="M13.5421,16.36v1.1585a2.0682,2.0682,0,0,1-2.0682,2.0681H3.4783A2.0682,2.0682,0,0,1,1.41,17.5182V5.7088A2.0682,2.0682,0,0,1,3.4783,3.6406h2.98V2.4822A2.0682,2.0682,0,0,1,8.5262.4141h5.6474L18.59,4.7886l0,9.5031A2.0681,2.0681,0,0,1,16.5218,16.36Z" fill="#252a3a" fill-rule="evenodd"/><path id="Gray_Fill" data-name="Gray Fill" d="M13.5421,16.36v1.1585a2.0682,2.0682,0,0,1-2.0682,2.0681H3.4783A2.0682,2.0682,0,0,1,1.41,17.5182V5.7088A2.0682,2.0682,0,0,1,3.4783,3.6406h2.98V2.4822A2.0682,2.0682,0,0,1,8.5262.4141h5.6474L18.59,4.7886l0,9.5031A2.0681,2.0681,0,0,1,16.5218,16.36Z" fill="#fff" fill-opacity="0.9" fill-rule="evenodd"/><path id="Outlines" d="M6.8722,2.4818A1.6545,1.6545,0,0,1,8.5267.8273h5.2338l0,2.9269a1.4477,1.4477,0,0,0,1.4477,1.4476H18.177l0,9.09a1.6546,1.6546,0,0,1-1.6546,1.6545h-2.567l0-7.931a.4138.4138,0,0,0-.1225-.2939L9.4164,3.3463a.4138.4138,0,0,0-.2911-.12H6.8722Zm-.8273.7448,0-.7448A2.4817,2.4817,0,0,1,8.5267,0h5.6474a.4131.4131,0,0,1,.2911.12l4.4165,4.3745a.4134.4134,0,0,1,.1226.2939l0,9.5031a2.4817,2.4817,0,0,1-2.4818,2.4817h-2.567v.7448A2.4818,2.4818,0,0,1,11.4735,20H3.4779A2.4817,2.4817,0,0,1,.9961,17.5178V5.7084A2.4817,2.4817,0,0,1,3.4779,3.2266Zm-2.567.8272A1.6545,1.6545,0,0,0,1.8234,5.7084V17.5178a1.6544,1.6544,0,0,0,1.6545,1.6545h7.9956a1.6545,1.6545,0,0,0,1.6545-1.6545l0-9.0894H10.16A1.4477,1.4477,0,0,1,8.7118,6.9807l0-2.9269Zm6.0611.5783,2.9974,2.969H10.16a.62.62,0,0,1-.62-.62ZM3.2412,10.5712a.5946.5946,0,0,1,.5946-.5946h6.6169a.5946.5946,0,0,1,0,1.1892H3.8358A.5946.5946,0,0,1,3.2412,10.5712Zm.5946,2.3a.5946.5946,0,0,0,0,1.1892h6.6169a.5946.5946,0,0,0,0-1.1892ZM3.2412,16.36a.5946.5946,0,0,1,.5946-.5946H7.1449a.5946.5946,0,0,1,0,1.1892H3.8358A.5946.5946,0,0,1,3.2412,16.36Z" fill="#252a3a" fill-rule="evenodd"/></svg>