<svg id="No_Connection" data-name="No Connection" xmlns="http://www.w3.org/2000/svg" viewBox="0 0 20 20"><path id="Dark_Fil" data-name="Dark Fil" d="M20,10A10,10,0,1,1,10,0,10,10,0,0,1,20,10Z" fill="#252a3a"/><path id="Grey_Fill" data-name="Grey Fill" d="M20,10A10,10,0,1,1,10,0,10,10,0,0,1,20,10Z" fill="#fff" fill-opacity="0.9"/><path id="Cloud_Fill" data-name="Cloud Fill" d="M6.4,19.22a10.3042,10.3042,0,0,1-4.998-4.3325A8.5874,8.5874,0,0,1,.2409,11.0854a9.208,9.208,0,0,1,1.9874-.5211q.1154,0,.2293.0051A7.6579,7.6579,0,0,1,9.9825,5.1973a7.6508,7.6508,0,0,1,7.5387,5.4239,7.3707,7.3707,0,0,1,2.1038.98c.1211.5507-.1149,1.2655-.715,2.65a9.2575,9.2575,0,0,1-3.7854,4.2A10.195,10.195,0,0,1,6.4,19.22Z" fill="#fff" fill-rule="evenodd"/><path id="Stroke" d="M10.1452,11.63a3.0108,3.0108,0,0,0-2.3066.89.6175.6175,0,1,1-.9422-.7985,4.23,4.23,0,0,1,3.2562-1.3263,4.2116,4.2116,0,0,1,3.2043,1.33.6175.6175,0,1,1-.9488.7906A2.9955,2.9955,0,0,0,10.1452,11.63Zm.9926,2.394a1.2686,1.2686,0,0,0-2.03.0055.6175.6175,0,1,1-.9457-.7944h0a2.5014,2.5014,0,0,1,3.9306.0055.6175.6175,0,0,1-.9548.7834Zm-.2115.94a.8013.8013,0,1,1-.8014-.8012h0a.8012.8012,0,0,1,.8013.8011Zm-.78-3.5843a3.256,3.256,0,0,0-2.4988.9782.3675.3675,0,0,1-.564-.4713l.0033-.0039a3.9819,3.9819,0,0,1,3.0639-1.238,3.9642,3.9642,0,0,1,3.0137,1.24.3675.3675,0,0,1-.5647.4706h0a3.24,3.24,0,0,0-2.453-.9753Zm-1.23,2.4887a1.5179,1.5179,0,0,1,2.4148-.0033.3675.3675,0,0,0,.5682-.4662,2.252,2.252,0,0,0-3.5459-.0033.3676.3676,0,0,0,.5629.4728Zm1.2087,1.6469a.5513.5513,0,1,0-.5513-.5513.5513.5513,0,0,0,.5513.5513Z" fill="#252a3a" fill-rule="evenodd"/><path id="Fill" d="M10.0513,17.5524A4.5269,4.5269,0,0,0,13.79,10.4738l-.0735.0623-1.0433.8844a2.9116,2.9116,0,0,1,.4918.4644.3675.3675,0,0,1-.5647.4706h0a2.2545,2.2545,0,0,0-.5071-.4434l-.9956.8439a2.4038,2.4038,0,0,1,.8019.6428.3675.3675,0,0,1-.5682.4662,1.5927,1.5927,0,0,0-.88-.5611L6.9864,16.2407l-.065.055A4.51,4.51,0,0,0,10.0513,17.5524Zm.4907-4.9811a2.2988,2.2988,0,0,0-2.1886.8242.3676.3676,0,0,0,.5629.4728,1.6965,1.6965,0,0,1,.6845-.4992l-2.9377,2.49-.0837.0709a4.5263,4.5263,0,0,1,6.9054-5.8533l-.0918.0778L12.23,11.14a4.5443,4.5443,0,0,0-2.0791-.4957,3.9819,3.9819,0,0,0-3.0639,1.238.3675.3675,0,0,0,.5574.4791l.0033-.0039a3.256,3.256,0,0,1,2.4988-.9782,3.9319,3.9319,0,0,1,1.4677.2827Zm-.4907,5.4811a5.0262,5.0262,0,1,0-5.0262-5.0262h0A5.0262,5.0262,0,0,0,10.0513,18.0524Zm.0737-2.5372a.5513.5513,0,1,0-.5513-.5513A.5513.5513,0,0,0,10.125,15.5152Z" fill="#252a3a" fill-rule="evenodd"/><path id="Fill-2" d="M10.0513,17.5524A4.5269,4.5269,0,0,0,13.79,10.4738l-.0735.0623-1.0433.8844a2.9116,2.9116,0,0,1,.4918.4644.3675.3675,0,0,1-.5647.4706h0a2.2545,2.2545,0,0,0-.5071-.4434l-.9956.8439a2.4038,2.4038,0,0,1,.8019.6428.3675.3675,0,0,1-.5682.4662,1.5927,1.5927,0,0,0-.88-.5611L6.9864,16.2407l-.065.055A4.51,4.51,0,0,0,10.0513,17.5524Zm.4907-4.9811a2.2988,2.2988,0,0,0-2.1886.8242.3676.3676,0,0,0,.5629.4728,1.6965,1.6965,0,0,1,.6845-.4992l-2.9377,2.49-.0837.0709a4.5263,4.5263,0,0,1,6.9054-5.8533l-.0918.0778L12.23,11.14a4.5443,4.5443,0,0,0-2.0791-.4957,3.9819,3.9819,0,0,0-3.0639,1.238.3675.3675,0,0,0,.5574.4791l.0033-.0039a3.256,3.256,0,0,1,2.4988-.9782,3.9319,3.9319,0,0,1,1.4677.2827Zm-.4907,5.4811a5.0262,5.0262,0,1,0-5.0262-5.0262h0A5.0262,5.0262,0,0,0,10.0513,18.0524Zm.0737-2.5372a.5513.5513,0,1,0-.5513-.5513A.5513.5513,0,0,0,10.125,15.5152Z" fill="#fff" fill-opacity="0.9" fill-rule="evenodd"/><path id="Stroke-2" d="M6.6152,15.5721a4.2764,4.2764,0,0,1,6.51-5.5184Zm6.7014-5.68A4.5263,4.5263,0,0,0,6.4242,15.734q.0749.1.1552.1962l6.9054-5.8533q-.0816-.0949-.1682-.1851Zm-3.2653,7.4106A4.2773,4.2773,0,0,0,13.733,10.85L7.3016,16.3012a4.2576,4.2576,0,0,0,2.75,1.0012Zm-2.943-.8373a4.5268,4.5268,0,0,0,6.818-5.7793q-.0654-.108-.1365-.212L6.9214,16.2957q.091.0873.1869.1694Zm8.2192-3.4389A5.2762,5.2762,0,1,1,10.0513,7.75a5.2762,5.2762,0,0,1,5.2762,5.2765v0Zm-5.2762,5.0262a5.0262,5.0262,0,1,0-5.0262-5.0262h0a5.0262,5.0262,0,0,0,5.0262,5.0259Z" fill="#252a3a" fill-rule="evenodd"/><path id="Lines" d="M19.5971,11.7278A9.7516,9.7516,0,0,1,.3229,11.2006a4.8631,4.8631,0,0,1,1.9054-.3863q.11,0,.2184.0048l.2.0088.0525-.1929A7.4084,7.4084,0,0,1,9.9825,5.4473a7.4015,7.4015,0,0,1,7.297,5.2376l.0419.1592.1628.0244A4.8477,4.8477,0,0,1,19.5971,11.7278Zm.045-.2737a5.0969,5.0969,0,0,0-2.1209-.8329A7.6508,7.6508,0,0,0,9.9825,5.1973a7.6579,7.6579,0,0,0-7.5249,5.3721q-.114-.0051-.2293-.0051a5.1115,5.1115,0,0,0-1.9337.3773Q.25,10.4768.25,10a9.75,9.75,0,1,1,19.3923,1.4541ZM20,10A10,10,0,1,1,10,0,10,10,0,0,1,20,10Z" fill="#252a3a" fill-rule="evenodd"/></svg>