<?xml version="1.0" encoding="UTF-8"?><svg id="Icon" xmlns="http://www.w3.org/2000/svg" viewBox="0 0 20 20"><path id="Solid_Fill" d="M2.8603,2.8912C2.8603,1.5878,3.9169,.5312,5.2203,.5312h11.2099c1.3034,0,2.36,1.0566,2.36,2.36v14.2181c0,1.3034-1.0566,2.36-2.36,2.36H5.2203c-1.3034,0-2.36-1.0566-2.36-2.36V2.8912Z" fill="#001531"/><path id="Opacity_Fill" d="M2.8603,2.8912C2.8603,1.5878,3.9169,.5312,5.2203,.5312h11.2099c1.3034,0,2.36,1.0566,2.36,2.36v14.2181c0,1.3034-1.0566,2.36-2.36,2.36H5.2203c-1.3034,0-2.36-1.0566-2.36-2.36V2.8912Z" fill="rgba(255,255,255,.9)"/><g id="Outline"><path d="M13.7356,7.6549l-3.5096,3.4429-1.6365-1.6054c-.2341-.2296-.6135-.2296-.8476,0s-.2341,.6019,0,.8315l2.0603,2.0212c.2341,.2296,.6135,.2296,.8477,0l3.9333-3.8586c.234-.2296,.234-.6019,0-.8315-.2341-.2296-.6136-.2296-.8476,0Z" fill="#001531" fill-rule="evenodd"/><path d="M16.431,0H5.2211c-1.5966,0-2.8909,1.2943-2.8909,2.891v.9139H1.2087c-.2933,0-.531,.2377-.531,.531s.2377,.531,.531,.531h1.1215v2.7142H1.2087c-.2933,0-.531,.2377-.531,.531s.2377,.531,.531,.531h1.1215v2.7136H1.2087c-.2933,0-.531,.2377-.531,.531s.2377,.531,.531,.531h1.1215v2.7142H1.2087c-.2933,0-.531,.2377-.531,.531s.2377,.531,.531,.531h1.1215v.9141c0,1.5967,1.2943,2.891,2.8909,2.891h11.2099c1.5967,0,2.891-1.2943,2.891-2.891V2.891c0-1.5967-1.2943-2.891-2.891-2.891Zm1.829,17.109c0,1.0101-.8188,1.829-1.829,1.829H5.2211c-1.0101,0-1.829-.8189-1.829-1.829v-.9141h1.1205c.2933,0,.531-.2378,.531-.531s-.2377-.531-.531-.531h-1.1205v-2.7142h1.1205c.2933,0,.531-.2377,.531-.531s-.2377-.531-.531-.531h-1.1205v-2.7136h1.1205c.2933,0,.531-.2377,.531-.531s-.2377-.531-.531-.531h-1.1205v-2.7142h1.1205c.2933,0,.531-.2377,.531-.531s-.2377-.531-.531-.531h-1.1205v-.9139c0-1.0101,.8189-1.829,1.829-1.829h11.2099c1.0102,0,1.829,.8188,1.829,1.829v14.218Z" fill="#001531" fill-rule="evenodd"/></g></svg>