<?xml version="1.0" encoding="UTF-8"?><svg id="Icon" xmlns="http://www.w3.org/2000/svg" xmlns:xlink="http://www.w3.org/1999/xlink" viewBox="0 0 20 20"><defs><clipPath id="clippath"><path d="M10,0h0c5.5228,0,10,4.4772,10,10h0c0,5.5228-4.4772,10-10,10h0C4.4772,20,0,15.5228,0,10H0C0,4.4772,4.4772,0,10,0Z" fill="none"/></clipPath></defs><g id="Group"><g clip-path="url(#clippath)"><path id="Bg_Fill" d="M20,10c0,1.9778-.5865,3.9112-1.6853,5.5557-1.0988,1.6445-2.6606,2.9262-4.4879,3.6831-1.8272,.7569-3.8379,.9549-5.7777,.5691-1.9398-.3859-3.7216-1.3383-5.1202-2.7368C1.5304,15.6725,.578,13.8907,.1922,11.9509-.1937,10.0111,.0043,8.0004,.7612,6.1732c.7569-1.8273,2.0386-3.3891,3.6831-4.4879,1.6445-1.0988,3.5779-1.6853,5.5557-1.6853,2.6522,0,5.1957,1.0536,7.0711,2.9289,1.8753,1.8754,2.9289,4.4189,2.9289,7.0711Z" fill="#001531"/><path id="Bg_Opacity" d="M20,10c0,1.9778-.5865,3.9112-1.6853,5.5557-1.0988,1.6445-2.6606,2.9262-4.4879,3.6831-1.8272,.7569-3.8379,.9549-5.7777,.5691-1.9398-.3859-3.7216-1.3383-5.1202-2.7368C1.5304,15.6725,.578,13.8907,.1922,11.9509-.1937,10.0111,.0043,8.0004,.7612,6.1732c.7569-1.8273,2.0386-3.3891,3.6831-4.4879,1.6445-1.0988,3.5779-1.6853,5.5557-1.6853,2.6522,0,5.1957,1.0536,7.0711,2.9289,1.8753,1.8754,2.9289,4.4189,2.9289,7.0711Z" fill="rgba(255,255,255,.9)"/><path id="Ears" d="M6.7857,9.3337h6.4286c.4736,0,.9278-.1932,1.2627-.537,.3349-.3438,.523-.8101,.523-1.2964s-.1881-.9525-.523-1.2964c-.3349-.3438-.7891-.537-1.2627-.537-2.5,0-3.2143,3.6667-3.2143,3.6667,0,0-.7143-3.6667-3.2143-3.6667-.4736,0-.9278,.1932-1.2627,.537-.3349,.3438-.523,.8101-.523,1.2964s.1881,.9525,.523,1.2964c.3349,.3438,.7891,.537,1.2627,.537Z" fill="#fff"/><g id="Inner_Fill"><rect x="3.333" y="10" width="13.3333" height="2" rx=".3333" ry=".3333" fill="#001531"/><rect x="5" y="12.667" width="10" height="7.3333" fill="#001531"/></g><g id="Inner_Opacity"><rect x="3.333" y="10" width="13.3333" height="2" rx=".3333" ry=".3333" fill="rgba(255,255,255,.8)"/><rect x="5" y="12.667" width="10" height="7.3333" fill="rgba(255,255,255,.8)"/></g><path id="Dot" d="M15.6637,14.6956c.0921,0,.1667-.0746,.1667-.1666,0-.0921-.0746-.1667-.1667-.1667-.092,0-.1666,.0746-.1666,.1667,0,.092,.0746,.1666,.1666,.1666Z" fill="#001531"/><path id="Outline" d="M20,10c0,1.9778-.5865,3.9112-1.6853,5.5557-.6776,1.014-1.5312,1.8902-2.5145,2.5903v1.8539c0,.0736-.0597,.1333-.1333,.1333H4.3335c-.0736,0-.1333-.0597-.1333-.1333v-1.8536c-.4509-.321-.8764-.6803-1.2713-1.0752C1.5304,15.6725,.578,13.8907,.1922,11.9509-.1937,10.0111,.0043,8.0004,.7612,6.1732c.7569-1.8273,2.0386-3.3891,3.6831-4.4879,1.6445-1.0988,3.5779-1.6853,5.5557-1.6853,2.6522,0,5.1957,1.0536,7.0711,2.9289,1.8753,1.8754,2.9289,4.4189,2.9289,7.0711Zm-15.7998,7.8167c-.3818-.2833-.7438-.5953-1.0827-.9342-1.3612-1.3612-2.2882-3.0955-2.6638-4.9836-.3756-1.8881-.1828-3.8451,.5539-5.6237,.7367-1.7785,1.9842-3.2987,3.5849-4.3682C6.1931,.8375,8.0749,.2667,10,.2667c2.5814,0,5.0572,1.0255,6.8825,2.8508,1.8254,1.8254,2.8508,4.3011,2.8508,6.8825,0,1.9251-.5708,3.8069-1.6403,5.4075-.6237,.9335-1.4007,1.7469-2.2928,2.4089v-2.6518c0-.0736-.0597-.1333-.1333-.1333-.0737,0-.1334,.0597-.1334,.1333v2.8428c-.5635,.3894-1.1694,.7202-1.8087,.985-.6233,.2582-1.2685,.4496-1.9249,.5731v-6.7653h3.7336v1.0881c0,.0736,.0597,.1333,.1334,.1333,.0736,0,.1333-.0597,.1333-.1333v-1.0881h.8663c.4419,0,.8-.3582,.8-.8v-2c0-.4418-.3581-.8-.8-.8h-2.4883c.1427-.085,.2753-.1892,.3938-.3109,.3595-.3691,.5609-.8689,.5609-1.3894s-.2014-1.0203-.5609-1.3894c-.3596-.3692-.8481-.5773-1.3582-.5773-1.3259,0-2.1641,.974-2.6621,1.9037-.2508,.4681-.4212,.935-.5289,1.2841-.0081,.0263-.0158,.0519-.0233,.0768-.0074-.0249-.0152-.0505-.0233-.0768-.1077-.3491-.2781-.816-.5289-1.2841-.498-.9297-1.3362-1.9037-2.6622-1.9037-.5101,0-.9986,.2081-1.3582,.5773-.3595,.3691-.5608,.8689-.5608,1.3894s.2014,1.0203,.5608,1.3894c.1186,.1217,.2511,.2259,.3938,.3109H3.3332c-.4418,0-.8,.3582-.8,.8v2c0,.4418,.3582,.8,.8,.8h.867v5.0165Zm.2667,.1909v-5.2074h.6918c.0736,0,.1333-.0597,.1333-.1333,0-.0737-.0597-.1334-.1333-.1334h-.8157c-.0031-.0002-.0062-.0003-.0094-.0003-.0032,0-.0063,.0001-.0094,.0003h-.9909c-.2945,0-.5333-.2388-.5333-.5333v-2c0-.2946,.2388-.5333,.5333-.5333H7.5332v3.0666h-1.0938c-.0736,0-.1333,.0597-.1333,.1334,0,.0736,.0597,.1333,.1333,.1333h1.7608v6.7653c-.0331-.0062-.0661-.0126-.0991-.0192-1.3098-.2605-2.5457-.7865-3.6343-1.5387Zm0,.3221v1.5368h3.9048c-.1077-.0177-.2153-.0373-.3226-.0586-1.2853-.2557-2.5012-.7601-3.5822-1.4782Zm7.1614,1.5368h3.9052v-1.537c-.5356,.3558-1.1068,.6608-1.7067,.9093-.7101,.2941-1.4479,.5039-2.1985,.6277Zm4.0479-7.333h.9903c.2946,0,.5334-.2388,.5334-.5333v-2c0-.2946-.2388-.5333-.5334-.5333h-5.5336v3.0666h.5243c.0031-.0002,.0062-.0003,.0093-.0003h.0041s.0053,.0003,.0053,.0003h3.9816c.0031-.0002,.0062-.0003,.0094-.0003,.0031,0,.0062,.0001,.0093,.0003Zm-4.143,.2667v6.8116c-1.0118,.1614-2.0467,.1627-3.0663,0v-6.8116h3.0663Zm-.667-.2667v-3.0666h-3.0663v3.0666h.5243c.0031-.0002,.0062-.0003,.0094-.0003h.0031l.0063,.0003h2.5233Zm-.4419-3.3336c.6992-.7641,1.4835-1.1436,2.3247-1.2437,.0732-.0087,.1254-.075,.1167-.1482-.0087-.0731-.075-.1253-.1482-.1166-.9166,.1091-1.7654,.5275-2.5103,1.3508,.0195-.0715,.0428-.153,.0704-.2426,.1044-.3384,.2688-.7882,.5091-1.2368,.4841-.9036,1.2531-1.763,2.4271-1.763,.4371,0,.857,.1782,1.1672,.4967,.3103,.3186,.4852,.7514,.4852,1.2033s-.1749,.8848-.4852,1.2033c-.3102,.3184-.7301,.4967-1.1672,.4967h-2.7895Zm-.7028-.4003c.0367,.1188,.0658,.2237,.0882,.3095-.2429-.4045-.6417-.7399-1.0929-.9909-.4685-.2607-1.0031-.436-1.5025-.5036-.073-.0099-.1401,.0412-.15,.1142-.0099,.073,.0413,.1401,.1142,.15,.4662,.0632,.9691,.2278,1.4087,.4724,.4066,.2262,.7508,.5162,.965,.8487h-2.7669c-.4371,0-.857-.1782-1.1672-.4967-.3103-.3186-.4852-.7514-.4852-1.2033s.1749-.8848,.4852-1.2033c.3102-.3184,.7301-.4967,1.1672-.4967,1.174,0,1.943,.8593,2.4271,1.763,.2403,.4485,.4047,.8983,.5091,1.2368Z" fill="#001531" fill-rule="evenodd"/></g></g></svg>