<?xml version="1.0" encoding="UTF-8"?><svg id="Layer_1" xmlns="http://www.w3.org/2000/svg" viewBox="0 0 20 20"><path d="M4.286,14.75h.5565l.4075-.4075v1.1808c0,2.3333,1.4522,3.981,3.7869,3.981h6.6773c2.3336,0,3.7858-1.6477,3.7858-3.981v-6.2932c0-2.3324-1.4592-3.9801-3.7858-3.9801h-1.371l.4068-.4068v-.3576c0-2.3353-1.4607-3.9856-3.786-3.9856h-5.0085c-.5163,0-1.0136.219-1.3812.5966l-3.5379,3.6863c-.3375.3576-.5364.8347-.5364,1.3219v4.6606c0,2.3353,1.4505,3.9846,3.786,3.9846Z" fill="#001531" stroke-width="0"/><path d="M4.286,14.75h.5565l.4075-.4075v1.1808c0,2.3333,1.4522,3.981,3.7869,3.981h6.6773c2.3336,0,3.7858-1.6477,3.7858-3.981v-6.2932c0-2.3324-1.4592-3.9801-3.7858-3.9801h-1.371l.4068-.4068v-.3576c0-2.3353-1.4607-3.9856-3.786-3.9856h-5.0085c-.5163,0-1.0136.219-1.3812.5966l-3.5379,3.6863c-.3375.3576-.5364.8347-.5364,1.3219v4.6606c0,2.3353,1.4505,3.9846,3.786,3.9846Z" fill="rgba(255,255,255,.9)" stroke-width="0"/><path d="M10.5455,5.2529c-.4617.0394-.8955.2455-1.2195.5822l-3.5427,3.6915c-.3111.3249-.4981.7475-.5291,1.1938M10.5455,5.2529c.0538-.0046.1079-.0069.1624-.0069h4.0431M10.5455,5.2529v3.4675c0,1.1046-.8954,2-2,2h-3.2912M5.2543,10.7204c-.003.0439-.0046.0879-.0046.1322v3.8964M14.751,5.246h.9629c2.3266,0,3.7858,1.6477,3.7858,3.9801v6.2933c0,2.3333-1.4522,3.981-3.7858,3.981h-6.6773c-2.3347,0-3.7869-1.6477-3.7869-3.981v-.7703M14.751,5.246v-.7613c0-2.3353-1.4607-3.9856-3.786-3.9856h-4.923M5.2497,14.749h-.9627c-2.3355,0-3.786-1.6493-3.786-3.9846v-4.5724M6.042.499h-.0856c-.5163,0-1.0135.219-1.3812.5966l-3.5379,3.6863c-.3375.3576-.5364.8347-.5364,1.3218v.0882M6.042.499v3.693c0,1.1046-.8954,2-2,2H.501" fill="none" stroke="#001531" stroke-linecap="round" stroke-linejoin="round"/></svg>