<?xml version="1.0" encoding="UTF-8"?><svg id="Layer_1" xmlns="http://www.w3.org/2000/svg" viewBox="0 0 20 20"><path d="M2.5,3c0-1.3807,1.1193-2.5,2.5-2.5h11c1.3807,0,2.5,1.1193,2.5,2.5v14c0,1.3807-1.1193,2.5-2.5,2.5H5c-1.3807,0-2.5-1.1193-2.5-2.5V3Z" fill="#001531" stroke-width="0"/><path d="M2.5,3c0-1.3807,1.1193-2.5,2.5-2.5h11c1.3807,0,2.5,1.1193,2.5,2.5v14c0,1.3807-1.1193,2.5-2.5,2.5H5c-1.3807,0-2.5-1.1193-2.5-2.5V3Z" fill="rgba(255,255,255,.9)" stroke-width="0"/><path d="M5,0c-1.6569,0-3,1.3432-3,3v1.5h-1c-.2761,0-.5.2239-.5.5s.2239.5.5.5h1v3.9995h-1c-.2761,0-.5.2239-.5.5s.2239.5.5.5h1v4.0005h-1c-.2761,0-.5.2239-.5.5s.2239.5.5.5h1v1.5c0,1.6569,1.3431,3,3,3h11c1.6569,0,3-1.3431,3-3V3c0-1.6568-1.3431-3-3-3H5ZM4,5.5h-1v3.9995h1c.2761,0,.5.2239.5.5s-.2239.5-.5.5h-1v4.0005h1c.2761,0,.5.2239.5.5s-.2239.5-.5.5h-1v1.5c0,1.1046.8954,2,2,2h11c1.1046,0,2-.8954,2-2V3c0-1.1046-.8954-2-2-2H5c-1.1046,0-2,.8954-2,2v1.5h1c.2761,0,.5.2239.5.5s-.2239.5-.5.5ZM8.2031,7.3941c-.3314,0-.6.2686-.6.6s.2686.6.6.6h2.8491c.3313,0,.6-.2686.6-.6s-.2687-.6-.6-.6h-2.8491ZM8.2031,11.4055c-.3314,0-.6.2687-.6.6s.2686.6.6.6h5.5802c.3314,0,.6-.2686.6-.6s-.2686-.6-.6-.6h-5.5802Z" fill="#001531" fill-rule="evenodd" stroke-width="0"/></svg>