<?xml version="1.0" encoding="UTF-8"?><svg id="Icon" xmlns="http://www.w3.org/2000/svg" viewBox="0 0 20 20"><path id="Solid_Fill" d="M1.5469,5.4792V14.9751l5.6069,3.2383,2.8159,1.6516,8.5122-4.8773V5.3798L9.978,.4727,1.5469,5.4792Z" fill="#001531"/><path id="Opacity_Fill" d="M1.5469,5.4792V14.9751l5.6069,3.2383,2.8159,1.6516,8.5122-4.8773V5.3798L9.978,.4727,1.5469,5.4792Z" fill="rgba(255,255,255,.9)"/><path id="Outline" d="M9.5677,.1151c.259-.1532,.5832-.1534,.8423-.0005l7.8784,4.6499c.5326,.3143,.5254,1.0739-.0131,1.3784l-7.7967,4.4089v8.3727l7.5423-4.183v-6.1519c0-.2651,.2192-.48,.4896-.48s.4895,.2149,.4895,.48v6.2453c0,.2883-.1583,.5543-.4142,.6963l-7.8687,4.364c-.5439,.3016-1.2176-.0837-1.2176-.6964V10.5449l-5.1631-3.068c-.2312-.1374-.3051-.4325-.1649-.6593,.1401-.2267,.4411-.2991,.6724-.1617l5.1514,3.061,7.551-4.27L9.9894,.9868,1.9791,5.7267V14.745c.813,.4627,3.4872,1.989,5.3195,3.084,.2309,.138,.3039,.4333,.1632,.6597-.1407,.2263-.4419,.298-.6728,.16-1.8894-1.1291-4.6855-2.7231-5.3834-3.1201-.2534-.1442-.4056-.4082-.4056-.6916V5.6364c0-.2803,.1496-.5401,.3943-.6849L9.5677,.1151Z" fill="#001531" fill-rule="evenodd"/></svg>