<?xml version="1.0" encoding="UTF-8"?><svg id="Layer_1" xmlns="http://www.w3.org/2000/svg" viewBox="0 0 20 20"><path d="M10,19.5c5.2467,0,9.5-4.2533,9.5-9.5S15.2467.5,10,.5.5,4.7533.5,10s4.2533,9.5,9.5,9.5Z" fill="#001531" stroke-width="0"/><path d="M10,19.5c5.2467,0,9.5-4.2533,9.5-9.5S15.2467.5,10,.5.5,4.7533.5,10s4.2533,9.5,9.5,9.5Z" fill="rgba(255,255,255,.9)" stroke-width="0"/><path d="M19,10c0,4.9706-4.0294,9-9,9S1,14.9706,1,10,5.0294,1,10,1s9,4.0294,9,9ZM10,20c5.5228,0,10-4.4772,10-10S15.5228,0,10,0,0,4.4771,0,10s4.4771,10,10,10ZM5.4967,7.5436c.3742-.787,1.0813-1.492,1.924-1.9876.8446-.4967,1.7699-.7506,2.5431-.6997.3031.02.565-.2096.5849-.5127.02-.3031-.2096-.565-.5127-.5849-1.0446-.0688-2.1878.2697-3.173.8491-.9871.5805-1.871,1.4353-2.3598,2.4635-.1304.2743-.0138.6024.2606.7329.2743.1304.6024.0138.7329-.2606ZM8.55,9.9999c0-.8008.6492-1.45,1.45-1.45s1.45.6492,1.45,1.45-.6492,1.45-1.45,1.45-1.45-.6492-1.45-1.45ZM10,7.4499c-1.4083,0-2.55,1.1417-2.55,2.55s1.1417,2.55,2.55,2.55,2.55-1.1417,2.55-2.55-1.1417-2.55-2.55-2.55ZM15.4967,12.9283c.1304-.2743.0138-.6024-.2605-.7328-.2744-.1305-.6025-.0138-.7329.2605-.3742.787-1.0813,1.492-1.9241,1.9877-.8446.4967-1.7698.7506-2.5431.6997-.3031-.02-.565.2095-.5849.5126-.02.3031.2096.565.5127.585,1.0446.0688,2.1878-.2698,3.173-.8492.9871-.5805,1.871-1.4353,2.3598-2.4635Z" fill="#001531" fill-rule="evenodd" stroke-width="0"/></svg>