<?xml version="1.0" encoding="UTF-8"?><svg id="Layer_2" xmlns="http://www.w3.org/2000/svg" xmlns:xlink="http://www.w3.org/1999/xlink" viewBox="0 0 20 20"><defs><clipPath id="clippath"><rect width="20" height="20" fill="none"/></clipPath></defs><g id="Layer_1-2"><g clip-path="url(#clippath)"><g><path d="M1.2775,11.9611L3.2087,3.5849c.3463-1.5028,1.6844-2.5673,3.2265-2.5673h7.2876c1.562,0,2.9116,1.0916,3.2381,2.6191l1.7843,8.3473c.7761,.7894,1.2548,1.8722,1.2548,3.0667,0,2.4162-1.9587,4.375-4.375,4.375H4.375c-2.4162,0-4.375-1.9587-4.375-4.375,0-1.2061,.4881-2.2982,1.2775-3.0896Z" fill="#e8e7e9"/><path d="M13.0769,15.9868c.5181,0,.9382-.4201,.9382-.9382s-.42-.9382-.9382-.9382-.9382,.4201-.9382,.9382,.4201,.9382,.9382,.9382Z" fill="#180b25"/><path d="M17.2161,15.0486c0,.5181-.42,.9382-.9382,.9382s-.9381-.4201-.9381-.9382,.42-.9382,.9381-.9382,.9382,.42,.9382,.9382Z" fill="#180b25"/><path d="M3.7003,14.6064c-.2438,0-.4415,.1976-.4415,.4415s.1977,.4415,.4415,.4415h3.3113c.2438,0,.4415-.1976,.4415-.4415s-.1977-.4415-.4415-.4415H3.7003Z" fill="#180b25"/><path d="M3.4869,3.6822c.3075-1.3024,1.4949-2.225,2.8635-2.225h7.4623c1.3862,0,2.5839,.946,2.8737,2.2699l1.743,7.9634c.5967,.4987,1.0585,1.1535,1.3226,1.9017l-2.1814-10.0497c-.3789-1.7312-1.9451-2.9683-3.7579-2.9683H6.3503c-1.7897,0-3.3424,1.2066-3.7445,2.9097L.2933,13.4707c-.1894,.4895-.2933,1.0217-.2933,1.5781,0,2.4162,1.9587,4.375,4.375,4.375H15.625c2.4163,0,4.375-1.9588,4.375-4.375s-1.9587-4.375-4.375-4.375H4.375c-1.0524,0-2.0179,.3716-2.7727,.9907L3.4869,3.6822Zm12.1381,7.8746H4.375c-1.9286,0-3.492,1.5634-3.492,3.492s1.5634,3.492,3.492,3.492H15.625c1.9286,0,3.492-1.5635,3.492-3.492s-1.5634-3.492-3.492-3.492Z" fill="#180b25" fill-rule="evenodd"/></g></g></g></svg>