<?xml version="1.0" encoding="UTF-8"?><svg id="Layer_1" xmlns="http://www.w3.org/2000/svg" viewBox="0 0 20 20"><path d="M4.6768,18.3411l-.8195.3841c-.8615.4036-1.8584-.2116-1.8573-1.1462l.0105-12.9369C2.0105,2.0848,3.4648.5,6.0724.5h7.8721c2.6148,0,4.0366,1.5848,4.0366,4.1421l.0189,12.9338c.0011.9357-.9958,1.5519-1.8584,1.1472l-.8131-.381c-.4891-.2301-1.0546-.2465-1.5572-.0452l-2.3148.9244c-.9328.3718-1.979.3718-2.9119-.001l-2.3106-.9234c-.5026-.2013-1.0682-.1849-1.5572.0442Z" fill="#001531" stroke-width="0"/><path d="M4.6768,18.3411l-.8195.3841c-.8615.4036-1.8584-.2116-1.8573-1.1462l.0105-12.9369C2.0105,2.0848,3.4648.5,6.0724.5h7.8721c2.6148,0,4.0366,1.5848,4.0366,4.1421l.0189,12.9338c.0011.9357-.9958,1.5519-1.8584,1.1472l-.8131-.381c-.4891-.2301-1.0546-.2465-1.5572-.0452l-2.3148.9244c-.9328.3718-1.979.3718-2.9119-.001l-2.3106-.9234c-.5026-.2013-1.0682-.1849-1.5572.0442Z" fill="rgba(255,255,255,.9)" stroke-width="0"/><path d="M2.501,4.454c0-.7745.2104-1.6411.7441-2.3033.5184-.6432,1.3869-1.1508,2.8336-1.1508h8.0644c1.1949.0001,2.0196.442,2.5512,1.0464.5416.6156.8048,1.4304.8048,2.1996,0,.4023-.0015,1.1564-.0034,2.1205-.0062,3.0456-.0166,8.1877.0034,10.9615-.0004.6412-.2534.8616-.4587.9478-.2638.1108-.6008.0643-.7957-.0491-.8308-.4835-1.6665-.6954-2.3536-.4931-.3983.1172-1.2646.4717-1.9993.7723-.236.0966-.4583.1876-.6473.2634-.9715.3898-1.9968.2297-2.6748-.0688-.2625-.1156-.8426-.3544-1.3895-.5695-.2741-.1077-.5438-.2111-.7642-.291-.1983-.0719-.41-.1453-.5337-.1665-.5659-.097-1.3135.0819-2.0777.5255-.2917.1693-.6344.1883-.8773.0776-.2059-.0938-.4264-.3201-.4264-.8607V4.454ZM6.0787,0c-1.7108,0-2.8811.6161-3.6122,1.5232-.7158.8881-.9655,1.9986-.9655,2.9308v12.9619c0,.8703.396,1.4903,1.0119,1.7708.579.2637,1.2636.1849,1.7938-.1228.6499-.3772,1.1555-.4478,1.4066-.4048-.0011-.0002-.0004,0,.0022.0007.0087.0023.0386.0102.098.0294.0686.0222.157.053.2615.0909.2085.0756.4689.1753.7392.2816.5419.2131,1.1078.4463,1.3524.554.8607.379,2.1712.5948,3.4501.0817.2183-.0876.4644-.1882.7173-.2917.72-.2945,1.495-.6115,1.8393-.7128.3043-.0896.8406-.0255,1.5683.398.4393.2557,1.1052.3508,1.6859.107.6389-.2684,1.0715-.8984,1.0716-1.8716v-.0036c-.0201-2.7677-.0097-7.8981-.0035-10.9457v-.0013c.0019-.9672.0034-1.7245.0034-2.1297,0-.9826-.3332-2.0407-1.0539-2.8601C16.7145.5552,15.6112,0,14.1431,0H6.0787ZM10.5578,5.8027c0-.3038-.2462-.55-.55-.55s-.55.2463-.55.55v.7117h-.3374c-1.1359,0-2.0766.9048-2.0766,2.0456,0,1.1398.941,2.0444,2.0766,2.0444h1.7455c.5515,0,.9779.434.9779.9455,0,.5101-.4262.9444-.9779.9444h-3.2722c-.3038,0-.55.2462-.55.55s.2462.55.55.55h1.8641v.7094c0,.3038.2462.55.55.55s.55-.2462.55-.55v-.7094h.3081c1.1364,0,2.0779-.9042,2.0779-2.0444,0-1.1411-.9413-2.0455-2.0779-2.0455h-1.7455c-.5503,0-.9766-.4341-.9766-.9444,0-.5119.4266-.9456.9766-.9456h.8157c.0235.0031.0474.0046.0717.0046s.0483-.0016.0718-.0046h1.8775c.3038,0,.55-.2462.55-.55s-.2462-.55-.55-.55h-1.3993v-.7117Z" fill="#001531" fill-rule="evenodd" stroke-width="0"/></svg>