<?xml version="1.0" encoding="UTF-8"?><svg id="Layer_1" xmlns="http://www.w3.org/2000/svg" viewBox="0 0 20 20"><path d="M7.0147,5.6826c-.5071.6519-1.0141,1.3038-1.5225,1.9545v1.1769c-.0006-.4892-.0066-.754-.0694-.9743-.1746-.6128-.6584-1.0917-1.2773-1.2645-.2462-.0688-.5472-.0688-1.1493-.0688s-.9031,0-1.1493.0688c-.619.1729-1.1027.6518-1.2773,1.2645-.0695.2437-.0695.5417-.0695,1.1376v7.5515c0,.5958,0,.8938.0695,1.1375.1746.6128.6584,1.0917,1.2773,1.2646.2462.0687.5472.0688,1.1493.0688s.9031,0,1.1493-.0688c.619-.1729,1.1027-.6518,1.2773-1.2646.0628-.2204.0688-.4851.0694-.9743v.2342c1.1509,1.1456,2.6686,1.8633,4.2982,1.9529,1.7734.0975,4.1222.1642,5.8049-.0207,1.2462-.1369,2.6849-1.0808,3.1949-2.4534.7551-2.0316.9068-4.9465.4663-6.4766-.2113-.7338-.6964-1.3609-1.3571-1.7539-.7225-.4298-1.7309-.4298-3.8531-.4298-.9704,0-1.3735-.4093-1.042-1.5895.447-1.5915.8833-4.5923-.8258-5.0841-.7663-.2205-1.6199.0897-2.1074.7055-1.0262,1.2962-2.0413,2.6013-3.0564,3.9062Z" fill="#001531" stroke-width="0"/><path d="M7.0147,5.6826c-.5071.6519-1.0141,1.3038-1.5225,1.9545v1.1769c-.0006-.4892-.0066-.754-.0694-.9743-.1746-.6128-.6584-1.0917-1.2773-1.2645-.2462-.0688-.5472-.0688-1.1493-.0688s-.9031,0-1.1493.0688c-.619.1729-1.1027.6518-1.2773,1.2645-.0695.2437-.0695.5417-.0695,1.1376v7.5515c0,.5958,0,.8938.0695,1.1375.1746.6128.6584,1.0917,1.2773,1.2646.2462.0687.5472.0688,1.1493.0688s.9031,0,1.1493-.0688c.619-.1729,1.1027-.6518,1.2773-1.2646.0628-.2204.0688-.4851.0694-.9743v.2342c1.1509,1.1456,2.6686,1.8633,4.2982,1.9529,1.7734.0975,4.1222.1642,5.8049-.0207,1.2462-.1369,2.6849-1.0808,3.1949-2.4534.7551-2.0316.9068-4.9465.4663-6.4766-.2113-.7338-.6964-1.3609-1.3571-1.7539-.7225-.4298-1.7309-.4298-3.8531-.4298-.9704,0-1.3735-.4093-1.042-1.5895.447-1.5915.8833-4.5923-.8258-5.0841-.7663-.2205-1.6199.0897-2.1074.7055-1.0262,1.2962-2.0413,2.6013-3.0564,3.9062Z" fill="rgba(255,255,255,.9)" stroke-width="0"/><path d="M10.9716,1.6908c-.2824.1581-.5038.3792-.6176.5283l-.0038.005-4.4072,5.6283c.0237.1245.0361.2491.0375.3518.0292,2.1732.0208,5.6566.0162,7.5359-.0009.385-.0017.7026-.0019.9279v.0015c.3609.4316.8803.8052,1.4679,1.0944.6413.3156,1.3306.514,1.913.581.6137.0706,1.8113.116,3.0276.1228,1.2196.0068,2.4056-.0257,3.0027-.1015,1.1272-.1431,2.057-.7736,2.5411-1.4727.403-.5821.7577-1.7836.9365-3.1373.1774-1.3428.1643-2.7031-.0762-3.5654-.3457-1.2389-1.2533-1.8276-2.2608-1.894-.4596-.0303-1.0339-.0417-1.4989-.0453-.2313-.0018-.4333-.0017-.5774-.0011-.072.0003-.1295.0007-.1688.001l-.041.0004c-.4985.043-1.0357-.0369-1.4234-.3597-.4358-.3629-.5558-.9206-.3924-1.5331.1344-.504.4491-1.6882.4615-2.7945.0062-.5546-.0651-1.0395-.2354-1.3966-.159-.3333-.4025-.558-.8041-.6438-.3122-.0667-.6165.0107-.895.1666ZM14.2294,7.252l-.0203.0002-.0203.0019c-.3736.035-.6073-.0434-.7119-.1305-.0619-.0516-.1567-.1671-.0661-.5069l.0039-.0145c.1347-.505.4775-1.7902.4914-3.0265.0069-.6228-.0681-1.2833-.3329-1.8384-.2762-.5789-.7568-1.0329-1.4977-1.1911-.6166-.1317-1.1704.0357-1.5924.272-.4167.2332-.7373.5502-.9221.7917l-4.0975,5.2329c-.2102-.2606-.5064-.5014-.941-.6656-.3609-.1364-.9354-.1898-1.443-.1971-.513-.0074-1.0806.031-1.4421.139C.9131,6.3355.0156,7.0739.0156,8.2938c0,.3593-.0027,2.2554-.0055,4.2267-.0029,2.0456-.0059,4.1722-.0062,4.7471,0,.2835.1001.6598.3051,1.0133.2107.3634.5502.7342,1.0567.9659.4645.2124,1.0964.2578,1.6171.2529.5386-.0051,1.0542-.0662,1.3407-.1239.4274-.0861.766-.3226,1.0071-.5711.2387-.2461.4108-.533.4951-.7772.0118-.0341.0225-.0678.0324-.1011.357.2892.7557.5343,1.163.7347.7377.3631,1.5373.5964,2.2403.6773.6717.0772,1.9157.1225,3.1364.1293,1.2175.0068,2.464-.0244,3.1341-.1094,1.4074-.1787,2.5909-.9619,3.2373-1.8955.5451-.7872.9227-2.1894,1.1058-3.5757.1846-1.3972.189-2.9131-.1044-3.965-.4676-1.6761-1.7573-2.5309-3.1582-2.6232-.4895-.0323-1.0872-.0438-1.5569-.0474-.2361-.0018-.4421-.0017-.5893-.0011-.0735.0003-.1325.0007-.1731.001l-.0468.0004-.0168.0002ZM4.9947,16.8043v-.1374c.0002-.2273.001-.5469.002-.9337.0045-1.8812.0129-5.3516-.0161-7.5155-.0013-.0947-.0257-.2313-.0511-.297-.1327-.3432-.3051-.636-.7605-.8081-.1857-.0702-.6083-.1255-1.1038-.1326-.4901-.007-.9318.0346-1.1414.0972-.4178.1249-.9082.5498-.9082,1.2167,0,.3581-.0027,2.2572-.0055,4.2307-.0029,2.0457-.0059,4.1714-.0062,4.7433,0,.0795.0385.2843.1702.5115.126.2174.3214.4272.6076.5581.2508.1147.6919.167,1.1917.1623.4819-.0045.9341-.0602,1.1526-.1042.1772-.0357.3443-.1403.4869-.2872.145-.1494.2348-.3123.2676-.4073.054-.1564.0751-.3095.0856-.4619.0038-.0554.0059-.104.0082-.1558.001-.0239.0021-.0484.0034-.0746.0029-.059.007-.1315.0171-.2044Z" fill="#001531" fill-rule="evenodd" stroke-width="0"/></svg>