<?xml version="1.0" encoding="UTF-8"?><svg id="Layer_1" xmlns="http://www.w3.org/2000/svg" viewBox="0 0 20 20"><path d="M16.5,6.8914c0-3.5298-2.9097-6.3914-6.5-6.3914S3.5,3.3616,3.5,6.8914c0,1.9897.9251,3.7674,2.3757,4.9395l-.586.0006.0195,6.8186c.001.6611.7434,1.0671,1.3272.7271l2.9251-1.7044c.277-.1621.6241-.1621.902,0l2.9199,1.7024c.5849.3401,1.3272-.068,1.3272-.7302v-6.8226l-.5764.0006c1.445-1.1722,2.3659-2.9463,2.3659-4.9316Z" fill="#001531" stroke-width="0"/><path d="M16.5,6.8914c0-3.5298-2.9097-6.3914-6.5-6.3914S3.5,3.3616,3.5,6.8914c0,1.9897.9251,3.7674,2.3757,4.9395l-.586.0006.0195,6.8186c.001.6611.7434,1.0671,1.3272.7271l2.9251-1.7044c.277-.1621.6241-.1621.902,0l2.9199,1.7024c.5849.3401,1.3272-.068,1.3272-.7302v-6.8226l-.5764.0006c1.445-1.1722,2.3659-2.9463,2.3659-4.9316Z" fill="rgba(255,255,255,.9)" stroke-width="0"/><path d="M5.3092,11.3152v7.3349c.001.6611.7434,1.0671,1.3272.7271l2.9251-1.7044c.277-.1621.6241-.1621.902,0l2.9199,1.7024c.5849.3401,1.3272-.068,1.3272-.7302v-7.3502M10,.5c3.5903,0,6.5,2.8616,6.5,6.3914s-2.9097,6.3905-6.5,6.3905-6.5-2.8617-6.5-6.3905S6.4097.5,10,.5Z" fill="none" stroke="#001531" stroke-linecap="round" stroke-linejoin="round"/></svg>