<?xml version="1.0" encoding="UTF-8"?><svg id="Layer_1" xmlns="http://www.w3.org/2000/svg" viewBox="0 0 20 20"><path d="M6.2404,2h7.5266c2.6186,0,4.2403,1.4215,4.2331,4.0328v7.9271c0,2.6113-1.6228,4.0401-4.2415,4.0401h-7.5182c-2.6104,0-4.2404-1.4538-4.2404-4.1069v-7.8602c0-2.6114,1.63-4.0328,4.2404-4.0328Z" fill="#001531" stroke-width="0"/><path d="M6.2404,2h7.5266c2.6186,0,4.2403,1.4215,4.2331,4.0328v7.9271c0,2.6113-1.6228,4.0401-4.2415,4.0401h-7.5182c-2.6104,0-4.2404-1.4538-4.2404-4.1069v-7.8602c0-2.6114,1.63-4.0328,4.2404-4.0328Z" fill="rgba(255,255,255,.9)" stroke-width="0"/><path d="M5.7266,0c.2761,0,.5.2239.5.5v1h3.2746V.5c0-.2761.2239-.5.5-.5s.5.2239.5.5v1h3.2745V.5c0-.2761.2239-.5.5-.5s.5.2239.5.5v1.0666c1.8634.3238,3.3335,1.7937,3.6576,3.657h1.0667c.2761,0,.5.2239.5.5s-.2239.5-.5.5h-1v3.2746h1c.2761,0,.5.2239.5.5s-.2239.5-.5.5h-1v3.2745h1c.2761,0,.5.2239.5.5s-.2239.5-.5.5h-1.0661c-.3228,1.865-1.7936,3.3366-3.6582,3.6606v1.0666c0,.2761-.2238.5-.5.5s-.5-.2239-.5-.5v-1h-3.2745v1c0,.2761-.2239.5-.5.5s-.5-.2239-.5-.5v-1h-3.2746v1c0,.2761-.2239.5-.5.5s-.5-.2239-.5-.5v-1.0662c-1.8657-.3232-3.3375-1.7952-3.6605-3.661H.5c-.2761,0-.5-.2239-.5-.5s.2239-.5.5-.5h1v-3.2745H.5c-.2761,0-.5-.2239-.5-.5s.2239-.5.5-.5h1v-3.2746H.5c-.2761,0-.5-.2238-.5-.5s.2239-.5.5-.5h1.0667c.3242-1.8641,1.7954-3.3344,3.6598-3.6574V.5c0-.2761.2239-.5.5-.5ZM14,17.5c1.933,0,3.5-1.567,3.5-3.5V6c0-1.933-1.567-3.5-3.5-3.5H6c-1.933,0-3.5,1.567-3.5,3.5v8c0,1.933,1.567,3.5,3.5,3.5h8ZM5.75,8.25c0-1.3807,1.1193-2.5,2.5-2.5h3.5c1.3807,0,2.5,1.1193,2.5,2.5v3.5c0,1.3807-1.1193,2.5-2.5,2.5h-3.5c-1.3807,0-2.5-1.1193-2.5-2.5v-3.5ZM8.25,6.75c-.8284,0-1.5.6716-1.5,1.5v3.5c0,.8284.6716,1.5,1.5,1.5h3.5c.8284,0,1.5-.6716,1.5-1.5v-3.5c0-.8284-.6716-1.5-1.5-1.5h-3.5Z" fill="#001531" fill-rule="evenodd" stroke-width="0"/></svg>