<?xml version="1.0" encoding="UTF-8"?><svg id="Icon" xmlns="http://www.w3.org/2000/svg" viewBox="0 0 20 20"><path id="Solid_Fill" d="M13.2685,11.6334c1.6639-1.0799,2.7653-2.9602,2.7653-5.0991C16.0338,3.1844,13.3321,.4688,9.9993,.4688S3.9648,3.1844,3.9648,6.5343c0,2.1416,1.1042,4.024,2.7717,5.1033h-.0031l-1.0431,7.8938,4.3103-2.5995,4.3103,2.5995-1.0425-7.898Z" fill="#001531"/><path id="Opacity_Fill" d="M13.2685,11.6334c1.6639-1.0799,2.7653-2.9602,2.7653-5.0991C16.0338,3.1844,13.3321,.4688,9.9993,.4688S3.9648,3.1844,3.9648,6.5343c0,2.1416,1.1042,4.024,2.7717,5.1033h-.0031l-1.0431,7.8938,4.3103-2.5995,4.3103,2.5995-1.0425-7.898Z" fill="rgba(255,255,255,.9)"/><g id="Outline"><path d="M11.4794,8.3379l-.1893-1.1547,.8022-.8177c.2689-.274,.186-.543-.1863-.5995l-1.1087-.1685-.4958-1.0505c-.1661-.3521-.4363-.3527-.6028,0l-.4958,1.0505-1.1087,.1685c-.3715,.0565-.4556,.325-.1863,.5995l.8023,.8177-.1894,1.1547c-.0635,.387,.1547,.5535,.4877,.3705l.9916-.5452,.9917,.5452c.3323,.1827,.5512,.0171,.4875-.3705Z" fill="#001531" fill-rule="evenodd"/><path d="M16.501,6.5334c0-3.6083-2.9102-6.5334-6.5-6.5334S3.501,2.9251,3.501,6.5334c0,2.1979,1.0798,4.1423,2.7353,5.3267l-1.0057,7.6109c-.0235,.1781,.0565,.354,.2059,.4526,.1494,.0987,.3419,.1026,.4951,.0102l4.0709-2.4551,4.0708,2.4551c.1533,.0924,.3457,.0885,.4951-.0101,.1494-.0987,.2294-.2746,.2059-.4527l-1.005-7.6135c1.6535-1.1844,2.7318-3.1277,2.7318-5.324Zm-12.069,0C4.432,3.442,6.9253,.9359,10.001,.9359s5.5689,2.5061,5.5689,5.5976c0,1.9571-.9992,3.6796-2.513,4.6802-.0274,.0142-.0532,.031-.077,.05-.8614,.5493-1.8832,.8673-2.9789,.8673-3.0757,0-5.569-2.5061-5.569-5.5975Zm5.8099,9.9984c-.1475-.0889-.3316-.0889-.479,0l-3.4822,2.1001,.8255-6.2472c.8717,.4366,1.8547,.6821,2.8948,.6821,1.0415,0,2.0258-.2462,2.8984-.6838l.8248,6.249-3.4823-2.1002Z" fill="#001531" fill-rule="evenodd"/></g></svg>