<?xml version="1.0" encoding="UTF-8"?><svg id="Layer_1" xmlns="http://www.w3.org/2000/svg" viewBox="0 0 20 20"><path d="M.4062,10.3741c0-2.764,1.954-4.3871,4.3717-4.409,0-1.7384,1.3649-5.2151,5.2179-5.2151s5.218,3.4767,5.218,5.2151c2.4176.022,4.3705,1.645,4.3705,4.409,0,1.7877-1.0616,3.3307-2.5913,4.0225-.6529.2602-1.2957.3557-1.7837.3557h-2.5615c.0156.1171.0237.2365.0237.3579,0,1.4779-1.1975,2.6757-2.6767,2.6757-1.4778,0-2.6774-1.1978-2.6774-2.6757,0-.1214.0081-.2408.0237-.3579h-2.5665c-.4868,0-1.1286-.0999-1.7726-.3613-1.5309-.6907-2.5958-2.2292-2.5958-4.0169Z" fill="#001531" fill-rule="evenodd" stroke-width="0"/><path d="M.4062,10.3741c0-2.764,1.954-4.3871,4.3717-4.409,0-1.7384,1.3649-5.2151,5.2179-5.2151s5.218,3.4767,5.218,5.2151c2.4176.022,4.3705,1.645,4.3705,4.409,0,1.7877-1.0616,3.3307-2.5913,4.0225-.6529.2602-1.2957.3557-1.7837.3557h-2.5615c.0156.1171.0237.2365.0237.3579,0,1.4779-1.1975,2.6757-2.6767,2.6757-1.4778,0-2.6774-1.1978-2.6774-2.6757,0-.1214.0081-.2408.0237-.3579h-2.5665c-.4868,0-1.1286-.0999-1.7726-.3613-1.5309-.6907-2.5958-2.2292-2.5958-4.0169Z" fill="rgba(255,255,255,.9)" fill-rule="evenodd" stroke-width="0"/><path d="M16.9284,14.3467c1.5158-.6838,2.5716-2.2071,2.5716-3.9766,0-2.735-1.9319-4.3608-4.3309-4.3629,0-1.7202-1.3517-5.1605-5.1691-5.1605s-5.169,3.4404-5.169,5.1605c-2.3961.0215-4.331,1.6279-4.331,4.3629,0,1.7695,1.0547,3.2928,2.5717,3.9766" fill="none" stroke="#001531" stroke-linecap="round" stroke-linejoin="round"/><path d="M7.4088,13.3175c-.2731.3859-.4623.8355-.5406,1.3222h-.8579c-.2819,0-.5103.2287-.5103.5107s.2285.5107.5103.5107h.859c.0763.468.2551.9015.5125,1.2769l-.6237.5953c-.2039.1946-.2114.5177-.0168.7215.1946.2039.5176.2114.7215.0168l.6235-.5952c.4033.3053.8818.5165,1.4026.6006v.8631c0,.2818.2285.5103.5103.5103s.5103-.2285.5103-.5103v-.8635c.5035-.0816.9671-.2819,1.3613-.5711l.6137.6037c.201.1976.5241.195.7217-.006.1977-.2009.195-.524-.0059-.7217l-.6139-.6038c.272-.3844.4607-.832.5396-1.3166h.8635c.2818,0,.5103-.2286.5103-.5107s-.2285-.5107-.5103-.5107h-.8624c-.0756-.4705-.2546-.9063-.513-1.2834l.622-.593c.204-.1944.2118-.5175.0173-.7215-.1945-.204-.5175-.2117-.7215-.0173l-.6223.5932c-.4024-.3048-.8799-.5157-1.4001-.6v-.857c0-.2818-.2285-.5103-.5103-.5103s-.5103.2285-.5103.5103v.8566c-.5047.0815-.9695.2822-1.3648.5723l-.6143-.6034c-.2011-.1975-.5242-.1946-.7217.0065-.1975.2011-.1946.5242.0065.7217l.6141.6031ZM9.9551,12.998c-1.152.0241-2.0823.9554-2.1035,2.1092.0012.0143.0018.0288.0018.0435,0,.0142-.0006.0283-.0017.0422.0243,1.1664.978,2.1044,2.1491,2.1044.5927,0,1.1292-.2398,1.5178-.6277l.0042-.0046.01-.0104.0077-.0076.0069-.0067c.3729-.3866.6022-.9129.6022-1.493,0-.5633-.2162-1.0758-.5701-1.459-.0085-.0077-.0168-.0158-.0248-.0243-.008-.0083-.0156-.0169-.0229-.0257-.3793-.3851-.9027-.6276-1.4832-.6403-.0153.0014-.0308.0021-.0465.0021-.0159,0-.0316-.0007-.0471-.0021Z" fill="#001531" fill-rule="evenodd" stroke-width="0"/></svg>