<?xml version="1.0" encoding="UTF-8"?><svg id="Layer_1" xmlns="http://www.w3.org/2000/svg" viewBox="0 0 30 30"><path d="M.6094,15.5611c0-4.146,2.9309-6.5806,6.5575-6.6135,0-2.6075,2.0474-7.8226,7.8269-7.8226s7.8269,5.2151,7.8269,7.8226c3.6265.0329,6.5558,2.4675,6.5558,6.6135,0,2.6816-1.5924,4.996-3.8871,6.0338-.9792.3902-1.9435.5336-2.6755.5336h-3.8422c.0234.1755.0355.3547.0355.5367,0,2.2169-1.7962,4.0137-4.015,4.0137-2.2167,0-4.0161-1.7968-4.0161-4.0137,0-.182.0121-.3612.0356-.5367h-3.8497c-.7303,0-1.693-.1499-2.659-.542-2.2963-1.0361-3.8936-3.3438-3.8936-6.0254Z" fill="#001531" fill-rule="evenodd" stroke-width="0"/><path d="M.6094,15.5611c0-4.146,2.9309-6.5806,6.5575-6.6135,0-2.6075,2.0474-7.8226,7.8269-7.8226s7.8269,5.2151,7.8269,7.8226c3.6265.0329,6.5558,2.4675,6.5558,6.6135,0,2.6816-1.5924,4.996-3.8871,6.0338-.9792.3902-1.9435.5336-2.6755.5336h-3.8422c.0234.1755.0355.3547.0355.5367,0,2.2169-1.7962,4.0137-4.015,4.0137-2.2167,0-4.0161-1.7968-4.0161-4.0137,0-.182.0121-.3612.0356-.5367h-3.8497c-.7303,0-1.693-.1499-2.659-.542-2.2963-1.0361-3.8936-3.3438-3.8936-6.0254Z" fill="rgba(255,255,255,.9)" fill-rule="evenodd" stroke-width="0"/><path d="M15,.7695c-3.0367,0-5.1163,1.3777-6.4225,3.1007-1.1489,1.5154-1.7031,3.2997-1.8111,4.6576-1.7213.1123-3.2895.7505-4.4608,1.8662-1.2826,1.2219-2.0556,2.985-2.0556,5.1606,0,2.8581,1.7041,5.3172,4.152,6.4207.2517.1134.5478.0014.6613-.2504.1135-.2517.0014-.5478-.2503-.6613-2.1029-.9479-3.563-3.0588-3.563-5.509,0-1.927.6782-3.4199,1.7453-4.4365,1.0714-1.0207,2.5685-1.5928,4.2556-1.6079.2744-.0025.4955-.2256.4955-.5,0-1.1849.4735-3.0132,1.6279-4.5359,1.139-1.5023,2.9362-2.7049,5.6257-2.7049s4.4867,1.2025,5.6257,2.7049c1.1544,1.5227,1.6279,3.351,1.6279,4.5359,0,.276.2236.4998.4996.5,1.6865.0014,3.182.5726,4.2525,1.5963,1.0667,1.02,1.7443,2.5205,1.7443,4.4481,0,2.4501-1.4615,4.5611-3.5631,5.5091-.2517.1135-.3637.4096-.2501.6613.1135.2517.4096.3638.6613.2502,2.4461-1.1034,4.1519-3.5623,4.1519-6.4206,0-2.1749-.7714-3.9451-2.0532-5.1709-1.1704-1.1192-2.7389-1.7584-4.4634-1.8593-.1086-1.3575-.663-3.1401-1.8109-4.6542-1.3063-1.723-3.3858-3.1007-6.4225-3.1007ZM10.3024,21.9596c.1175-.7301.4011-1.4045.8108-1.9833l-.9211-.9047c-.3016-.2963-.3059-.7809-.0097-1.0826.2963-.3016.7809-.3059,1.0825-.0097l.9216.9052c.5928-.4352,1.2901-.7363,2.0471-.8586v-1.2848c0-.4228.3427-.7655.7655-.7655s.7655.3427.7655.7655v1.2854c.7802.1265,1.4965.4428,2.1002.9l.9333-.8897c.306-.2917.7906-.2801,1.0823.0259s.2801.7906-.0259,1.0823l-.9331.8894c.3876.5657.6561,1.2195.7695,1.9252h1.2936c.4228,0,.7655.343.7655.7661s-.3427.766-.7655.766h-1.2952c-.1184.7268-.4013,1.3982-.8094,1.9748l.9208.9058c.3014.2965.3054.7811.0089,1.0825-.2964.3014-.7811.3054-1.0825.0089l-.9205-.9055c-.5913.4339-1.2867.7343-2.042.8568v1.2951c0,.4228-.3427.7655-.7655.7655s-.7655-.3427-.7655-.7655v-1.2946c-.7813-.1262-1.499-.4429-2.1039-.9009l-.9353.8928c-.3058.2919-.7903.2806-1.0823-.0252-.2919-.3058-.2806-.7903.0252-1.0822l.9355-.8931c-.3861-.563-.6543-1.2132-.7688-1.9152h-1.2885c-.4228,0-.7655-.343-.7655-.766s.3427-.7661.7655-.7661h1.2869ZM11.7775,22.6608c.0317-1.7306,1.4272-3.1277,3.1552-3.1638.0232.0021.0468.0032.0706.0032.0235,0,.0468-.0011.0698-.0032.8706.019,1.6559.3829,2.2247.9605.011.0131.0224.026.0344.0385.0121.0127.0245.0249.0372.0365.5309.5748.8552,1.3435.8552,2.1885,0,.8701-.344,1.6595-.9034,2.2395l-.0104.01-.0114.0113-.015.0157-.0063.0069c-.583.5819-1.3877.9415-2.2767.9415-1.7568,0-3.1873-1.407-3.2237-3.1566.0017-.0209.0026-.042.0026-.0633,0-.0219-.0009-.0437-.0028-.0652Z" fill="#001531" fill-rule="evenodd" stroke-width="0"/></svg>