<?xml version="1.0" encoding="UTF-8"?><svg id="Layer_1" xmlns="http://www.w3.org/2000/svg" viewBox="0 0 20 20"><path d="M6.2404,2h7.5266c2.6186,0,4.2403,1.4215,4.2331,4.0328v7.9271c0,2.6113-1.6228,4.0401-4.2415,4.0401h-7.5182c-2.6104,0-4.2404-1.4538-4.2404-4.1069v-7.8602c0-2.6114,1.63-4.0328,4.2404-4.0328Z" fill="#001531" stroke-width="0"/><path d="M6.2404,2h7.5266c2.6186,0,4.2403,1.4215,4.2331,4.0328v7.9271c0,2.6113-1.6228,4.0401-4.2415,4.0401h-7.5182c-2.6104,0-4.2404-1.4538-4.2404-4.1069v-7.8602c0-2.6114,1.63-4.0328,4.2404-4.0328Z" fill="rgba(255,255,255,.9)" stroke-width="0"/><path d="M14.2757,2V.5M10.0012,2V.5M5.7266,2V.5M5.7266,18v1.5M10.0012,18v1.5M14.2757,18v1.5M2,5.7236H.5M2,9.9983H.5M2,14.2728H.5M18,14.2728h1.5M18,9.9983h1.5M18,5.7236h1.5M6,18h8c2.2091,0,4-1.7909,4-4V6c0-2.2091-1.7909-4-4-4H6c-2.2091,0-4,1.7909-4,4v8c0,2.2091,1.7909,4,4,4ZM8.25,13.75h3.5c1.1046,0,2-.8954,2-2v-3.5c0-1.1046-.8954-2-2-2h-3.5c-1.1046,0-2,.8954-2,2v3.5c0,1.1046.8954,2,2,2Z" fill="none" stroke="#001531" stroke-linecap="round"/></svg>