<?xml version="1.0" encoding="UTF-8"?><svg id="Layer_1" xmlns="http://www.w3.org/2000/svg" viewBox="0 0 20 20"><path d="M2.6003,4.9245c0-1.2824,1.0387-2.3215,2.3206-2.3226h1.0561c.6127,0,1.1998-.2433,1.635-.6746l.7379-.7393c.9042-.9097,2.374-.9138,3.2833-.0103l.001.001.0093.0082.7389.7393c.4342.4323,1.0223.6746,1.6351.6746h1.0581c1.282,0,2.3217,1.0401,2.3217,2.3226v1.0555c0,.614.2422,1.2013.6742,1.6367l.7391.7392c.9092.9047.9144,2.3749.0113,3.2847l-.7493.7496c-.4321.4343-.6743,1.0226-.6743,1.6346v1.0596c-.0021,1.2824-1.0418,2.3195-2.3227,2.3184h-1.0603c-.6127,0-1.2007.2434-1.6349.6757l-.7389.7382c-.9022.9108-2.372.9169-3.2814.0144l-.0031-.002-.7472-.7475c-.4342-.4323-1.0223-.6746-1.635-.6756h-1.0541c-1.2819,0-2.3206-1.0392-2.3206-2.3216v-1.0617c0-.613-.2432-1.2003-.6753-1.6346l-.738-.7393c-.9104-.9025-.9165-2.3708-.0154-3.2816,0,0,.0031-.002.0041-.004l.7472-.7486c.4321-.4343.6753-1.0227.6753-1.6367v-1.0525" fill="#001531" stroke-width="0"/><path d="M2.6003,4.9245c0-1.2824,1.0387-2.3215,2.3206-2.3226h1.0561c.6127,0,1.1998-.2433,1.635-.6746l.7379-.7393c.9042-.9097,2.374-.9138,3.2833-.0103l.001.001.0093.0082.7389.7393c.4342.4323,1.0223.6746,1.6351.6746h1.0581c1.282,0,2.3217,1.0401,2.3217,2.3226v1.0555c0,.614.2422,1.2013.6742,1.6367l.7391.7392c.9092.9047.9144,2.3749.0113,3.2847l-.7493.7496c-.4321.4343-.6743,1.0226-.6743,1.6346v1.0596c-.0021,1.2824-1.0418,2.3195-2.3227,2.3184h-1.0603c-.6127,0-1.2007.2434-1.6349.6757l-.7389.7382c-.9022.9108-2.372.9169-3.2814.0144l-.0031-.002-.7472-.7475c-.4342-.4323-1.0223-.6746-1.635-.6756h-1.0541c-1.2819,0-2.3206-1.0392-2.3206-2.3216v-1.0617c0-.613-.2432-1.2003-.6753-1.6346l-.738-.7393c-.9104-.9025-.9165-2.3708-.0154-3.2816,0,0,.0031-.002.0041-.004l.7472-.7486c.4321-.4343.6753-1.0227.6753-1.6367v-1.0525" fill="rgba(255,255,255,.9)" stroke-width="0"/><path d="M2.6003,4.9245c0-1.2824,1.0387-2.3215,2.3206-2.3226h1.0561c.6127,0,1.1998-.2433,1.635-.6746l.7379-.7393c.9042-.9097,2.374-.9138,3.2833-.0103l.001.001.0093.0082.7389.7393c.4342.4323,1.0223.6746,1.6351.6746h1.0581c1.282,0,2.3217,1.0401,2.3217,2.3226v1.0555c0,.614.2422,1.2013.6742,1.6367l.7391.7392c.9092.9047.9144,2.3749.0113,3.2847l-.7493.7496c-.4321.4343-.6743,1.0226-.6743,1.6346v1.0596c-.0021,1.2824-1.0418,2.3195-2.3227,2.3184h-1.0603c-.6127,0-1.2007.2434-1.6349.6757l-.7389.7382c-.9022.9108-2.372.9169-3.2814.0144l-.0031-.002-.7472-.7475c-.4342-.4323-1.0223-.6746-1.635-.6756h-1.0541c-1.2819,0-2.3206-1.0392-2.3206-2.3216v-1.0617c0-.613-.2432-1.2003-.6753-1.6346l-.738-.7393c-.9104-.9025-.9165-2.3708-.0154-3.2816,0,0,.0031-.002.0041-.004l.7472-.7486c.4321-.4343.6753-1.0227.6753-1.6367v-1.0525" fill="none" stroke="#001531" stroke-linecap="round" stroke-linejoin="round"/><path d="M13.0952,7.8794c.2116.2076.2116.5443,0,.7519l-3.5569,3.4893c-.2117.2077-.5548.2077-.7665,0l-1.8631-1.8277c-.2117-.2076-.2117-.5443,0-.752.2117-.2077.5548-.2077.7665,0l1.4799,1.4517,3.1736-3.1133c.2116-.2077.5548-.2077.7665,0Z" fill="#001531" stroke-width="0"/></svg>