<?xml version="1.0" encoding="UTF-8"?><svg id="Layer_1" xmlns="http://www.w3.org/2000/svg" viewBox="0 0 20 20"><path d="M13.1006,0h-6.2011c-.6649,0-1.3038.2638-1.7741.7351L.7351,5.1254c-.4703.4703-.7351,1.1081-.7351,1.773v6.2022c0,.6648.2649,1.3037.7351,1.774l4.3903,4.3903c.4703.4702,1.1092.7351,1.7741.7351h6.2011c.6658,0,1.3037-.2649,1.774-.7351l4.3914-4.3903c.4702-.4703.734-1.1092.734-1.774v-6.2022c0-.6649-.2638-1.3027-.734-1.773L14.8746.7351c-.4703-.4713-1.1082-.7351-1.774-.7351Z" fill="#001531" stroke-width="0"/><path d="M13.1006,0h-6.2011c-.6649,0-1.3038.2638-1.7741.7351L.7351,5.1254c-.4703.4703-.7351,1.1081-.7351,1.773v6.2022c0,.6648.2649,1.3037.7351,1.774l4.3903,4.3903c.4703.4702,1.1092.7351,1.7741.7351h6.2011c.6658,0,1.3037-.2649,1.774-.7351l4.3914-4.3903c.4702-.4703.734-1.1092.734-1.774v-6.2022c0-.6649-.2638-1.3027-.734-1.773L14.8746.7351c-.4703-.4713-1.1082-.7351-1.774-.7351Z" fill="rgba(255,255,255,.9)" stroke-width="0"/><path d="M5.479,1.0887l.0004-.0004c.3761-.3769.8875-.5883,1.4201-.5883h6.2011c.5335,0,1.0439.2113,1.42.5883l.0005.0005,4.3913,4.3902c.3764.3764.5876.887.5876,1.4194v6.2022c0,.5327-.2114,1.0443-.5876,1.4204l-4.3914,4.3903h0c-.3766.3767-.8874.5887-1.4204.5887h-6.2011c-.5321,0-1.0439-.2121-1.4205-.5887L1.0887,14.521h0c-.3766-.3766-.5887-.8883-.5887-1.4204v-6.2022c0-.5319.2119-1.0427.5887-1.4194h0L5.479,1.0887Z" fill="none" stroke="#001531" stroke-linecap="round" stroke-linejoin="round"/><path d="M10,6.25v3.9923M10,13.75v-.0489" fill="none" stroke="#001531" stroke-linecap="round" stroke-linejoin="round" stroke-width="1.5"/></svg>