<svg width="20" height="20" viewBox="0 0 20 20" fill="none" xmlns="http://www.w3.org/2000/svg">
<g clip-path="url(#clip0_9294_237104)">
<path d="M6.20467 0.833008H13.7947L19.1663 6.20467V13.7947L13.7947 19.1663H6.20467L0.833008 13.7947V6.20467L6.20467 0.833008Z" fill="#E8E7E9"/>
<path d="M9.11762 12.6694C9.3656 12.4235 9.69002 12.3436 9.9965 12.3436C10.3016 12.3436 10.6246 12.4228 10.8721 12.6662C11.0945 12.8812 11.2058 13.1595 11.2058 13.4624C11.2058 13.7667 11.0934 14.0462 10.869 14.2616L10.8656 14.2648L10.8622 14.268C10.6134 14.4988 10.294 14.5704 9.9965 14.5704C9.69896 14.5704 9.37964 14.4988 9.13079 14.268L9.12374 14.2614L9.11693 14.2546C8.8989 14.0376 8.79319 13.7603 8.79319 13.4624C8.79319 13.1644 8.89959 12.8864 9.11762 12.6694Z" fill="#180B25"/>
<path d="M9.09353 10.5406L9.0304 6.56853C9.02171 5.9424 9.39716 5.42904 10.0233 5.42904C10.65 5.42904 10.9992 5.94201 10.9899 6.5686L10.9219 10.5406C10.9132 11.1182 10.6011 11.4901 10.0233 11.4901C9.44519 11.4901 9.10156 11.1187 9.09353 10.5406Z" fill="#180B25"/>
<path fill-rule="evenodd" clip-rule="evenodd" d="M6.20565 0.333008C6.07304 0.333008 5.94587 0.385686 5.8521 0.479454L0.480431 5.85112C0.386663 5.94489 0.333984 6.07207 0.333984 6.20467V13.7947C0.333984 13.9273 0.386663 14.0545 0.480431 14.1482L5.8521 19.5199C5.94587 19.6137 6.07304 19.6663 6.20565 19.6663H13.7957C13.9283 19.6663 14.0554 19.6137 14.1492 19.5199L19.5209 14.1482C19.6146 14.0545 19.6673 13.9273 19.6673 13.7947V6.20467C19.6673 6.07207 19.6146 5.94489 19.5209 5.85112L14.1492 0.479454C14.0554 0.385686 13.9283 0.333008 13.7957 0.333008H6.20565ZM1.33398 6.41178L6.41276 1.33301H13.5885L18.6673 6.41178V13.5876L13.5885 18.6663H6.41276L1.33398 13.5876V6.41178Z" fill="#180B25"/>
</g>
<defs>
<clipPath id="clip0_9294_237104">
<rect width="20" height="20" fill="white"/>
</clipPath>
</defs>
</svg>
