<svg id="Icon" xmlns="http://www.w3.org/2000/svg" viewBox="0 0 20 20"><path id="Black_Fill" data-name="Black Fill" d="M3.2972,13.7557A3.1235,3.1235,0,0,1,3.5755,8.46a.7475.7475,0,0,0,.3015-.9437,4.9807,4.9807,0,0,1,1.4015-6.189A4.9356,4.9356,0,0,1,12.8808,4.015a1.214,1.214,0,0,0,.7116.7615c1.7281.6554,2.9651,1.5892,3.3781,3.3522l-2.0377.8385,2.788,2.6631a1.0443,1.0443,0,0,1,.3228.7548v6.153A1.0437,1.0437,0,0,1,17,19.5818H6.0193a1.0437,1.0437,0,0,1-1.0437-1.0437V13.0649Z" fill="#252a3a" fill-rule="evenodd"/><path id="Gray_Fill" data-name="Gray Fill" d="M3.2972,13.7557A3.1235,3.1235,0,0,1,3.5755,8.46a.7475.7475,0,0,0,.3015-.9437,4.9807,4.9807,0,0,1,1.4015-6.189A4.9356,4.9356,0,0,1,12.8808,4.015a1.214,1.214,0,0,0,.7116.7615c1.7281.6554,2.9651,1.5892,3.3781,3.3522l-2.0377.8385,2.788,2.6631a1.0443,1.0443,0,0,1,.3228.7548v6.153A1.0437,1.0437,0,0,1,17,19.5818H6.0193a1.0437,1.0437,0,0,1-1.0437-1.0437V13.0649Z" fill="#fff" fill-opacity="0.9" fill-rule="evenodd"/><path id="Outlines" d="M5.53,1.6616a4.5184,4.5184,0,0,1,6.9553,2.4843,1.6306,1.6306,0,0,0,.96,1.0209c1.6648.6314,2.7518,1.4865,3.12,3.057a.4175.4175,0,0,0,.813-.19c-.458-1.9553-1.8451-2.9679-3.6366-3.6473a.797.797,0,0,1-.4632-.5022A5.3525,5.3525,0,0,0,5.044.982L5.0283.9927l-.0148.0122a5.3978,5.3978,0,0,0-1.51,6.6961.3322.3322,0,0,1-.136.3973,3.7147,3.7147,0,0,0-1.8182,2.92,3.2756,3.2756,0,0,0,1.5261,3.091.4175.4175,0,1,0,.445-.7065,2.4411,2.4411,0,0,1-1.1386-2.32A2.88,2.88,0,0,1,3.7848,8.8213a1.1645,1.1645,0,0,0,.467-1.49A4.5625,4.5625,0,0,1,5.53,1.6616Zm6.7725,5.3711a1.1481,1.1481,0,0,0-1.586,0l-5.13,4.9a.6264.6264,0,0,0-.1937.4529v6.153a.6263.6263,0,0,0,.6262.6263h2.72l0-3.7578a1.46,1.46,0,0,1,1.46-1.46H12.861a1.4608,1.4608,0,0,1,1.4607,1.4612v3.7564h2.6777a.6263.6263,0,0,0,.6262-.6263v-6.153a.6264.6264,0,0,0-.1937-.4529Zm-2.1628-.6038a1.9833,1.9833,0,0,1,2.7395,0l5.13,4.9a1.4611,1.4611,0,0,1,.452,1.0567v6.153A1.4612,1.4612,0,0,1,16.9994,20H6.0188a1.4612,1.4612,0,0,1-1.4612-1.4612v-6.153A1.4616,1.4616,0,0,1,5.01,11.3289Zm.0593,8.3533H12.861a.6258.6258,0,0,1,.6257.6263v3.7549H9.5732l0-3.756A.6251.6251,0,0,1,10.1986,14.7822Z" fill="#252a3a" fill-rule="evenodd"/></svg>