<?xml version="1.0" encoding="UTF-8"?><svg id="Icon" xmlns="http://www.w3.org/2000/svg" viewBox="0 0 20 20"><path id="Solid_Fill" d="M2.429,.499H11.2196c1.0788,0,1.9534,.8465,1.9534,1.8908V7.2041h4.3942c1.0789,0,1.9535,.8465,1.9535,1.8908v8.5083c0,1.0443-.8746,1.8908-1.9535,1.8908H8.7767c-1.0789,0-1.9534-.8465-1.9534-1.8908v-4.8143H2.429c-1.0789,0-1.9535-.8465-1.9535-1.8907V2.3898C.4756,1.3455,1.3502,.499,2.429,.499Z" fill="#001531"/><path id="Opacity_Fill" d="M2.429,.499H11.2196c1.0788,0,1.9534,.8465,1.9534,1.8908V7.2041h4.3942c1.0789,0,1.9535,.8465,1.9535,1.8908v8.5083c0,1.0443-.8746,1.8908-1.9535,1.8908H8.7767c-1.0789,0-1.9534-.8465-1.9534-1.8908v-4.8143H2.429c-1.0789,0-1.9535-.8465-1.9535-1.8907V2.3898C.4756,1.3455,1.3502,.499,2.429,.499Z" fill="rgba(255,255,255,.9)"/><path id="Outline" d="M6.3477,13.2954H2.4296c-1.302,0-2.4296-1.0313-2.4296-2.3935V2.3935C0,1.0313,1.1276,0,2.4296,0H11.2201c1.302,0,2.4296,1.0313,2.4296,2.3935V6.7051h3.9181c1.302,0,2.4296,1.0313,2.4296,2.3935v8.5084c0,1.3622-1.1276,2.3935-2.4296,2.3935H8.7773c-1.302,0-2.4296-1.0313-2.4296-2.3935v-4.3116ZM.9523,2.3935c0-.7263,.6216-1.388,1.4773-1.388H11.2201c.8558,0,1.4773,.6617,1.4773,1.388V6.7051h-3.9201c-1.302,0-2.4296,1.0313-2.4296,2.3935v3.1913H2.4296c-.8557,0-1.4773-.6617-1.4773-1.388V2.3935Zm6.3477,6.7051c0-.7263,.6216-1.388,1.4773-1.388h8.7905c.8557,0,1.4773,.6617,1.4773,1.388v8.5084c0,.7263-.6216,1.388-1.4773,1.388H8.7773c-.8557,0-1.4773-.6617-1.4773-1.388V9.0986Z" fill="#001531" fill-rule="evenodd"/></svg>