<svg width="20" height="20" viewBox="0 0 20 20" fill="none" xmlns="http://www.w3.org/2000/svg">
<g clip-path="url(#clip0_9266_239083)">
<path d="M15.6884 6.18771C17.259 6.18771 18.5322 4.90792 18.5322 3.32921C18.5322 1.7505 17.259 0.470703 15.6884 0.470703C14.1178 0.470703 12.8446 1.7505 12.8446 3.32921C12.8446 4.90792 14.1178 6.18771 15.6884 6.18771Z" fill="#E8E7E9"/>
<path d="M4.31254 12.8596C5.88313 12.8596 7.15634 11.5798 7.15634 10.0011C7.15634 8.42237 5.88313 7.14258 4.31254 7.14258C2.74196 7.14258 1.46875 8.42237 1.46875 10.0011C1.46875 11.5798 2.74196 12.8596 4.31254 12.8596Z" fill="#E8E7E9"/>
<path d="M18.5322 16.6712C18.5322 18.2499 17.259 19.5297 15.6884 19.5297C14.1178 19.5297 12.8446 18.2499 12.8446 16.6712C12.8446 15.0925 14.1178 13.8127 15.6884 13.8127C17.259 13.8127 18.5322 15.0925 18.5322 16.6712Z" fill="#E8E7E9"/>
<path fill-rule="evenodd" clip-rule="evenodd" d="M13.0907 5.39823C13.6975 6.1673 14.6354 6.66056 15.6878 6.66056C17.5176 6.66056 19.001 5.16954 19.001 3.33028C19.001 1.49102 17.5176 0 15.6878 0C13.858 0 12.3747 1.49102 12.3747 3.33028C12.3747 3.77357 12.4608 4.19663 12.6172 4.58346L6.9092 7.93178C6.30224 7.16422 5.36536 6.67209 4.31412 6.67209C2.48432 6.67209 1.00098 8.16311 1.00098 10.0024C1.00098 11.8416 2.48432 13.3327 4.31412 13.3327C5.36704 13.3327 6.30525 12.8389 6.91212 12.0693L12.6192 15.4121C12.4616 15.8003 12.3747 16.225 12.3747 16.6701C12.3747 18.5094 13.858 20.0004 15.6878 20.0004C17.5176 20.0004 19.001 18.5094 19.001 16.6701C19.001 14.8309 17.5176 13.3398 15.6878 13.3398C14.6372 13.3398 13.7009 13.8314 13.0939 14.5981L7.38519 11.2543C7.54128 10.8678 7.62726 10.4452 7.62726 10.0024C7.62726 9.55789 7.54063 9.13375 7.38342 8.74607L13.0907 5.39823ZM15.6878 0.943552C14.3764 0.943552 13.3134 2.01213 13.3134 3.33028C13.3134 3.75296 13.4227 4.14998 13.6144 4.49433C13.6228 4.50605 13.6306 4.51826 13.638 4.53094C13.6453 4.54355 13.652 4.55636 13.658 4.56933C14.0746 5.25746 14.8278 5.71701 15.6878 5.71701C16.9992 5.71701 18.0623 4.64843 18.0623 3.33028C18.0623 2.01213 16.9992 0.943552 15.6878 0.943552ZM6.34279 8.76143C6.3487 8.77405 6.35521 8.78652 6.36234 8.7988C6.3697 8.81148 6.37756 8.82368 6.38587 8.8354C6.57864 9.18043 6.68857 9.5785 6.68857 10.0024C6.68857 10.418 6.58285 10.8089 6.39697 11.1493C6.38442 11.1655 6.37279 11.1828 6.36219 11.2011C6.35167 11.2193 6.3425 11.2378 6.33463 11.2567C5.91615 11.9363 5.16774 12.3891 4.31412 12.3891C3.00275 12.3891 1.93967 11.3205 1.93967 10.0024C1.93967 8.68422 3.00275 7.61564 4.31412 7.61564C5.17331 7.61564 5.92592 8.07435 6.34279 8.76143ZM13.3134 16.6701C13.3134 16.2624 13.4151 15.8785 13.5944 15.5427C13.6142 15.5202 13.632 15.4954 13.6476 15.4685C13.6627 15.4423 13.6751 15.4154 13.6848 15.3879C14.1064 14.7238 14.846 14.2834 15.6878 14.2834C16.9992 14.2834 18.0623 15.352 18.0623 16.6701C18.0623 17.9883 16.9992 19.0569 15.6878 19.0569C14.3764 19.0569 13.3134 17.9883 13.3134 16.6701Z" fill="#180B25"/>
</g>
<defs>
<clipPath id="clip0_9266_239083">
<rect width="20" height="20" fill="white"/>
</clipPath>
</defs>
</svg>
