<?xml version="1.0" encoding="UTF-8"?><svg id="Layer_1" xmlns="http://www.w3.org/2000/svg" viewBox="0 0 20 20"><path d="M0,5c0-1.6568,1.3431-3,3-3h3.7358c.9497,0,1.8434.4496,2.4093,1.2123l.4494.6057c.1886.2542.4865.4041.803.4041h4.6025c1.6569,0,3,1.3432,3,3v7.7778c0,1.6568-1.3431,3-3,3H3c-1.6568,0-3-1.3432-3-3V5Z" fill="#001531" stroke-width="0"/><path d="M0,5c0-1.6568,1.3431-3,3-3h3.7358c.9497,0,1.8434.4496,2.4093,1.2123l.4494.6057c.1886.2542.4865.4041.803.4041h4.6025c1.6569,0,3,1.3432,3,3v7.7778c0,1.6568-1.3431,3-3,3H3c-1.6568,0-3-1.3432-3-3V5Z" fill="rgba(255,255,255,.9)" stroke-width="0"/><path d="M17.5,7.2222v7.7778c0,1.3807-1.1193,2.5-2.5,2.5H3c-1.3807,0-2.5-1.1193-2.5-2.5V5c0-1.3807,1.1193-2.5,2.5-2.5h3.7358c.7914,0,1.5361.3747,2.0077,1.0103l.4494.6057c.2829.3814.7298.6062,1.2046.6062h4.6025c1.3807,0,2.5,1.1193,2.5,2.5Z" fill="none" stroke="#001531"/><path d="M2.5476,9.5414l-1.2945,4.0414c-.6201,1.936.6186,3.9151,2.857,3.9151h10.7996c1.3018,0,2.455-.8395,2.855-2.0783l1.6014-4.9607c.3127-.9687-.4097-1.9609-1.4276-1.9609l-13.9625.0009c-.6521,0-1.2295.4214-1.4284,1.0424Z" fill="#001531" stroke="#001531"/></svg>