<?xml version="1.0" encoding="UTF-8"?><svg id="Layer_1" xmlns="http://www.w3.org/2000/svg" viewBox="0 0 20 20"><path d="M.5,4.0001C.5,2.6194,1.6193,1.5001,3,1.5001h4.688c.953,0,1.8494.4527,2.4148,1.2199l.5415.7345c.1885.2557.4872.4066.8049.4066h5.5508c1.3807,0,2.5,1.1193,2.5,2.5v9.6389c0,1.3807-1.1193,2.5-2.5,2.5H3c-1.3807,0-2.5-1.1193-2.5-2.5V4.0001Z" fill="#001531" stroke-width="0"/><path d="M.5,4.0001C.5,2.6194,1.6193,1.5001,3,1.5001h4.688c.953,0,1.8494.4527,2.4148,1.2199l.5415.7345c.1885.2557.4872.4066.8049.4066h5.5508c1.3807,0,2.5,1.1193,2.5,2.5v9.6389c0,1.3807-1.1193,2.5-2.5,2.5H3c-1.3807,0-2.5-1.1193-2.5-2.5V4.0001Z" fill="rgba(255,255,255,.9)" stroke-width="0"/><path d="M7.688,2H3c-1.1046,0-2,.8955-2,2.0001v11.9999c0,1.1045.8954,2,2,2h14c1.1046,0,2-.8955,2-2V6.3611c0-1.1046-.8954-2-2-2h-5.5508c-.4765,0-.9247-.2264-1.2074-.61l-.5414-.7345c-.4712-.6393-1.2182-1.0166-2.0124-1.0166ZM3,1.0001h4.688c1.1119,0,2.1576.5282,2.8173,1.4232l.5414.7345c.0943.1279.2437.2033.4025.2033h5.5508c1.6569,0,3,1.3431,3,3v9.6389c0,1.6568-1.3431,3-3,3H3c-1.6569,0-3-1.3432-3-3V4.0001C0,2.3432,1.3431,1.0001,3,1.0001Z" fill="#001531" fill-rule="evenodd" stroke-width="0"/></svg>