<?xml version="1.0" encoding="UTF-8"?><svg id="Layer_1" xmlns="http://www.w3.org/2000/svg" viewBox="0 0 21 20"><path d="M4.0031,16.1449c1.0692,1.6043,3.5964,3.4323,6.2521,3.4323s3.8101-1.0836,4.9609-1.9698c3.8457-3.5371,2.8207-8.7256-.8288-10.8226-1.9617-1.1272-3.2727-3.5001-2.535-6.3619-3.3638,1.3163-4.6069,5.9476-3.8025,9.6282-1.122-.195-2.6333-1.365-3.0717-4.1926-3.3877,4.1926-2.0441,8.682-.9749,10.2864Z" fill="#180b25"/><path d="M4.0031,16.1449c1.0692,1.6043,3.5964,3.4323,6.2521,3.4323s3.8101-1.0836,4.9609-1.9698c3.8457-3.5371,2.8207-8.7256-.8288-10.8226-1.9617-1.1272-3.2727-3.5001-2.535-6.3619-3.3638,1.3163-4.6069,5.9476-3.8025,9.6282-1.122-.195-2.6333-1.365-3.0717-4.1926-3.3877,4.1926-2.0441,8.682-.9749,10.2864Z" fill="rgba(255,255,255,.9)"/><path d="M12.1328,.1064c.1188,.1053,.1687,.2683,.129,.422-.6873,2.6666,.5294,4.8515,2.3363,5.8898,3.8937,2.2374,4.9633,7.7672,.9043,11.5004-.009,.0083-.0185,.0163-.0282,.0238-.0865,.0666-.1745,.1356-.2645,.2062-.4883,.3829-1.0358,.8123-1.7207,1.1543-.8254,.4121-1.8429,.6971-3.2337,.6971-1.4229,0-2.7931-.4885-3.9383-1.1747-1.1438-.6853-2.0918-1.5849-2.6656-2.4459-1.143-1.715-2.5357-6.4137,.9978-10.7866,.1052-.1302,.2772-.186,.4388-.1425,.1616,.0435,.2823,.1782,.308,.3435,.3309,2.1342,1.2821,3.1975,2.1098,3.626-.251-1.7229-.0928-3.5814,.4837-5.2105C8.6472,2.3504,9.8683,.7452,11.6983,.0291c.1479-.0579,.3157-.028,.4345,.0773Zm-3.3461,4.385c-.6035,1.7055-.7097,3.7032-.3237,5.4694,.0301,.1375-.0103,.281-.1077,.3827-.0974,.1017-.239,.1482-.3778,.1241-1.1931-.2073-2.5964-1.2948-3.2188-3.5999-2.5353,3.7852-1.3377,7.6409-.4035,9.0427,.4953,.7432,1.3456,1.5598,2.3966,2.1895,1.0497,.629,2.2708,1.0544,3.5036,1.0544,1.2649,0,2.1525-.2567,2.8559-.608,.6018-.3005,1.0746-.6705,1.5626-1.0525,.089-.0697,.1786-.1398,.2695-.2099,3.6167-3.3405,2.6345-8.1782-.7665-10.1325-1.9142-1.0999-3.2467-3.2997-2.901-5.9717-1.1513,.7037-1.9863,1.8907-2.4891,3.3117Z" fill="#180b25" fill-rule="evenodd"/></svg>