<?xml version="1.0" encoding="UTF-8"?><svg id="Layer_1" xmlns="http://www.w3.org/2000/svg" viewBox="0 0 20 20"><path d="M4.13,2.088c.1521-.9163.9427-1.588,1.869-1.588h8.002c.9264,0,1.7169.6717,1.869,1.588l.6827,4.112h1.4999c.5232,0,.9474.4253.9474.95v2.375c0,.3728-.2142.6955-.5259.851l-1.0386,7.4858c-.1303.9392-.9311,1.6382-1.8766,1.6382H4.4411c-.9456,0-1.7464-.699-1.8767-1.6382l-1.0386-7.4858c-.3117-.1555-.5259-.4782-.5259-.851v-2.375c0-.5247.4241-.95.9474-.95h1.4999l.6827-4.112Z" fill="#001531" stroke-width="0"/><path d="M4.13,2.088c.1521-.9163.9427-1.588,1.869-1.588h8.002c.9264,0,1.7169.6717,1.869,1.588l.6827,4.112h1.4999c.5232,0,.9474.4253.9474.95v2.375c0,.3728-.2142.6955-.5259.851l-1.0386,7.4858c-.1303.9392-.9311,1.6382-1.8766,1.6382H4.4411c-.9456,0-1.7464-.699-1.8767-1.6382l-1.0386-7.4858c-.3117-.1555-.5259-.4782-.5259-.851v-2.375c0-.5247.4241-.95.9474-.95h1.4999l.6827-4.112Z" fill="rgba(255,255,255,.9)" stroke-width="0"/><path d="M3.9368,6.1981h-1.5158c-.7848,0-1.4211.638-1.4211,1.425v1.805c0,.5772.4666,1.045,1.0421,1.045M3.9368,6.1981h12.1264M3.9368,6.1981l.6696-4.0307c.1142-.6872.707-1.1908,1.4017-1.1908h7.9722c.6932,0,1.2853.5016,1.4011,1.187l.6817,4.0346M16.0632,6.1981h1.5157c.7849,0,1.4211.638,1.4211,1.425v1.805c0,.5772-.4666,1.045-1.0421,1.045M2.0421,10.4731h15.9158M2.0421,10.4731l1.014,7.3208c.0976.7045.6983,1.229,1.4076,1.229h11.0728c.7093,0,1.3099-.5245,1.4075-1.229l1.014-7.3208" fill="none" stroke="#001531"/></svg>