<?xml version="1.0" encoding="UTF-8"?><svg id="Layer_1" xmlns="http://www.w3.org/2000/svg" viewBox="0 0 20 20"><path d="M6.0335,2.8946c0-.8653.8366-1.4425,1.5624-1.0703l.6879.3629c.409.2143.8837.2235,1.3112.0369l1.9449-.8642c.7904-.3445,1.6649-.3445,2.4553,0l1.9438.8642c.4286.1866.9022.1774,1.3123-.0369l.6879-.3629c.7258-.3721,1.5624.1958,1.5624,1.0703l-.0093,12.0923c0,2.3907-1.2179,3.8691-3.4139,3.8691H3.7799c-.4417.0808-.8314.0459-1.1275-.1118-.6686-.3559-2.1665-1.597-2.1523-3.4231.0143-1.826.0729-6.8324.13-7.1462.0064-.0351.011-.0714.0156-.1079.0368-.2895.1243-.9232,1.0745-.8345.856.0799,1.5063.7029,1.7488.8407l2.3681-.8407c.0356,1.8612.0178,5.2999.0067,7.4531-.0037.719-.0067,1.2946-.0067,1.6203,0,.3721-.0124.6691-.0318.904.1468-.336.2282-.7071.2282-1.0972V2.8946Z" fill="#001531" stroke-width="0"/><path d="M6.0335,2.8946c0-.8653.8366-1.4425,1.5624-1.0703l.6879.3629c.409.2143.8837.2235,1.3112.0369l1.9449-.8642c.7904-.3445,1.6649-.3445,2.4553,0l1.9438.8642c.4286.1866.9022.1774,1.3123-.0369l.6879-.3629c.7258-.3721,1.5624.1958,1.5624,1.0703l-.0093,12.0923c0,2.3907-1.2179,3.8691-3.4139,3.8691H3.7799c-.4417.0808-.8314.0459-1.1275-.1118-.6686-.3559-2.1665-1.597-2.1523-3.4231.0143-1.826.0729-6.8324.13-7.1462.0064-.0351.011-.0714.0156-.1079.0368-.2895.1098-.9232,1.0599-.8345.8559.0799,1.5209.7029,1.7634.8407l2.3681-.8407c.0356,1.8612.0178,5.2999.0067,7.4531-.0037.719-.0067,1.2946-.0067,1.6203,0,.3721-.0124.6691-.0318.904.1468-.336.2282-.7071.2282-1.0972V2.8946Z" fill="rgba(255,255,255,.9)" stroke-width="0"/><path d="M3.2928,18.8564c-.7628,0-1.4507-.3065-1.9438-.7997-.5023-.5023-.8099-1.1903-.8099-1.9438v-7.6367c0-.8755.8376-1.4424,1.5634-1.0703l.6879.3629c.409.2142.8837.2235,1.3112.0369l1.3123-.5854c.1015-.0472.3619.0738.6233.2132M6.0335,2.8946c0-.8653.8366-1.4425,1.5624-1.0703l.6879.3629c.409.2143.8837.2235,1.3112.0369l1.9449-.8642c.7904-.3445,1.6649-.3445,2.4553,0l1.9438.8642c.4286.1866.9022.1774,1.3123-.0369l.6879-.3629c.7258-.3721,1.5624.1958,1.5624,1.0703l-.0093,12.0923c0,2.3907-1.2179,3.8691-3.4139,3.8691H3.2891c1.5163,0,2.7445-1.2282,2.7445-2.7434V2.8946Z" fill="none" stroke="#001531" stroke-linecap="round" stroke-linejoin="round"/><path d="M10.3125,13.1377h5.148M10.7109,8.4879l1.5547,1.5547,3.1813-3.1813" fill="none" stroke="#001531" stroke-linecap="round" stroke-linejoin="round" stroke-width="1.2"/></svg>