<svg id="User_Folder" data-name="User Folder" xmlns="http://www.w3.org/2000/svg" viewBox="0 0 20 20"><path d="M2.1663,2.0254H7.4236a1.7863,1.7863,0,0,1,1.3475.74l1.2322,1.12H17.826a1.7567,1.7567,0,0,1,1.7434,1.77V16.2026a1.7569,1.7569,0,0,1-1.7407,1.7718H2.1713A1.7541,1.7541,0,0,1,.4307,16.2069h0V3.7931A1.7557,1.7557,0,0,1,2.1663,2.0254Z" fill="#252a3a"/><path d="M2.1663,2.0254H7.4236a1.7863,1.7863,0,0,1,1.3475.74l1.2322,1.12H17.826a1.7567,1.7567,0,0,1,1.7434,1.77V16.2026a1.7569,1.7569,0,0,1-1.7407,1.7718H2.1713A1.7541,1.7541,0,0,1,.4307,16.2069h0V3.7931A1.7557,1.7557,0,0,1,2.1663,2.0254Z" fill="#fff" fill-opacity="0.9"/><g id="Lines"><path d="M17.8259,3.4554H10.17L9.0992,2.4821a2.1228,2.1228,0,0,0-.7126-.6174,2.0588,2.0588,0,0,0-.963-.27H2.1663A2.1863,2.1863,0,0,0,0,3.7931V16.2066a2.1846,2.1846,0,0,0,2.1708,2.1983H17.8287A2.1874,2.1874,0,0,0,20,16.2025V5.6578a2.1875,2.1875,0,0,0-2.1723-2.2024Zm1.3129,12.7471a1.3263,1.3263,0,0,1-1.31,1.3412H2.1713a1.3234,1.3234,0,0,1-1.31-1.3367h0V3.7931A1.3251,1.3251,0,0,1,2.1663,2.456H7.4236a1.21,1.21,0,0,1,.5483.1636,1.2328,1.2328,0,0,1,.4369.379l.0306.0477,1.3974,1.27h7.9891a1.3261,1.3261,0,0,1,1.3129,1.3392v10.547Z" fill="#252a3a"/><path d="M10,10.2453a2.1173,2.1173,0,0,0,2.1592-2.0728,2.161,2.161,0,0,0-4.3184,0A2.1173,2.1173,0,0,0,10,10.2453Z" fill="#252a3a"/><path d="M10.7917,10.7426H9.2083a3.1054,3.1054,0,0,0-3.1669,3.04v.9714a.8631.8631,0,0,0,.88.845h6.1567a.8631.8631,0,0,0,.88-.845v-.9714A3.1054,3.1054,0,0,0,10.7917,10.7426Z" fill="#252a3a"/></g></svg>