<?xml version="1.0" encoding="UTF-8"?><svg id="Layer_1" xmlns="http://www.w3.org/2000/svg" viewBox="0 0 20 20"><path d="M1.5,3.5c0-1.3807,1.1193-2.5,2.5-2.5h7.9992c.8973,0,1.7475.4016,2.3173,1.0948l1.3329,1.6212,2.1894,2.7255c.4279.5327.6612,1.1955.6612,1.8788v8.1798c0,1.3807-1.1193,2.5-2.5,2.5H4c-1.3807,0-2.5-1.1193-2.5-2.5V3.5Z" fill="#001531" stroke-width="0"/><path d="M1.5,3.5c0-1.3807,1.1193-2.5,2.5-2.5h7.9992c.8973,0,1.7475.4016,2.3173,1.0948l1.3329,1.6212,2.1894,2.7255c.4279.5327.6612,1.1955.6612,1.8788v8.1798c0,1.3807-1.1193,2.5-2.5,2.5H4c-1.3807,0-2.5-1.1193-2.5-2.5V3.5Z" fill="rgba(255,255,255,.9)" stroke-width="0"/><path d="M6.5027,19h-2.5027c-1.3807,0-2.5-1.1193-2.5-2.5V3.5c0-1.3807,1.1193-2.5,2.5-2.5h7.9992c.8973,0,1.7475.4016,2.3173,1.0948l1.3329,1.6212,2.1894,2.7255c.4279.5327.6612,1.1955.6612,1.8788v8.1798c0,1.3807-1.1193,2.5-2.5,2.5h-2.5M6.5027,19h6.9973M6.5027,19v-5c0-1.1046.8954-2,2-2h2.9973c1.1046,0,2,.8954,2,2v5M6.5027,6.15h5.4973" fill="none" stroke="#001531" stroke-linecap="round"/></svg>