<?xml version="1.0" encoding="UTF-8"?><svg id="Layer_1" xmlns="http://www.w3.org/2000/svg" viewBox="0 0 20 20"><path d="M19.75,10c0,5.3848-4.3652,9.75-9.75,9.75S.25,15.3848.25,10,4.6152.25,10,.25s9.75,4.3652,9.75,9.75Z" fill="#001531" stroke-width="0"/><path d="M19.75,10c0,5.3848-4.3652,9.75-9.75,9.75S.25,15.3848.25,10,4.6152.25,10,.25s9.75,4.3652,9.75,9.75Z" fill="rgba(255,255,255,.9)" stroke-width="0"/><path d="M1.8008,9.2h-.7657c.3497-3.9718,3.2799-7.2032,7.1036-8.0073-.1869.2648-.3595.5648-.5181.8907-.5774,1.1864-1.014,2.8093-1.2521,4.6177-.1105.7909-.1808,1.6269-.2077,2.4988H1.8008ZM.0049,9.6845C.1717,4.3075,4.5827,0,10,0c5.5228,0,10,4.4771,10,10,0,.2761-.2239.5-.5.5s-.5-.2239-.5-.5c0-4.3307-3.0588-7.9469-7.1337-8.8062.1866.2648.3587.5646.5167.8901.5759,1.1865,1.0098,2.8093,1.2483,4.6169.1052.7458.172,1.5289.2007,2.3395.0097.276-.2061.5076-.4821.5174-.2759.0098-.5076-.206-.5173-.482-.0276-.7796-.0918-1.5285-.1918-2.2375l-.0006-.0045h0c-.2299-1.7434-.6427-3.2539-1.1568-4.3132-.2575-.5305-.5292-.9243-.796-1.1789-.2649-.2529-.4947-.3417-.6874-.3417-.1894,0-.4178.088-.6831.3415-.2668.2549-.5389.649-.7972,1.1796-.5155,1.0594-.9307,2.5699-1.16,4.3126l-.0005.004h0c-.1041.7446-.1713,1.5349-.1979,2.3624h2.3887c.2761,0,.5.2239.5.5s-.2239.5-.5.5h-2.4009c.0078,1.0547.0803,2.0621.21,2.9901l.0005.0034c.3146,2.3689,1.2132,4.6609,2.1705,5.7945.1556.008.3122.012.4698.012.2761,0,.5.2239.5.5s-.2239.5-.5.5c-.2485,0-.495-.0091-.7391-.0269C4.0829,19.5945,0,15.2743,0,10c0-.1055.0016-.2107.0049-.3155ZM1.8008,10.2h4.3483c.0078,1.0972.083,2.1505.2194,3.1268.2699,2.0307.9545,4.0823,1.8162,5.4901-4.0372-.8267-7.0897-4.3573-7.1826-8.6169h.7986ZM12.5469,14.4787c0-1.6435,1.3322-2.9758,2.9759-2.9758s2.9759,1.3323,2.9759,2.9758c0,1.0541-.6332,2.1471-1.4033,3.014-.3776.425-.7692.774-1.0922,1.0128-.162.1198-.2993.2063-.4028.2603-.0337.0176-.0593.0293-.0776.0371-.0184-.0078-.044-.0195-.0777-.0371-.1035-.054-.2407-.1405-.4028-.2603-.3229-.2388-.7145-.5878-1.0922-1.0128-.77-.8669-1.4032-1.9599-1.4032-3.014ZM15.5228,10.5029c-2.1959,0-3.9759,1.78-3.9759,3.9758,0,1.4197.8268,2.7451,1.6556,3.6781.4219.4749.8645.8712,1.2454,1.1528.1899.1404.3719.2578.5345.3427.1384.0722.3392.1631.5404.1631.2011,0,.4019-.0909.5403-.1631.1626-.0849.3447-.2023.5346-.3427.3809-.2816.8235-.6779,1.2453-1.1528.8289-.933,1.6557-2.2584,1.6557-3.6781,0-2.1958-1.78-3.9758-3.9759-3.9758ZM15.5,13.6396c-.4142,0-.75.3358-.75.75s.3358.75.75.75h.0473c.4142,0,.75-.3357.75-.75s-.3358-.75-.75-.75h-.0473Z" fill="#001531" fill-rule="evenodd" stroke-width="0"/></svg>