<?xml version="1.0" encoding="UTF-8"?><svg id="Layer_1" xmlns="http://www.w3.org/2000/svg" viewBox="0 0 25 25"><path d="M4.6246,20.1192c1.3511,1.9892,4.5444,4.2558,7.9001,4.2558s4.8145-1.3435,6.2686-2.4424c4.8595-4.3857,3.5643-10.8191-1.0472-13.4193-2.4788-1.3976-4.1354-4.3398-3.2033-7.8883-4.2505,1.6321-5.8213,7.3745-4.8049,11.9383-1.4178-.2418-3.3274-1.6925-3.8815-5.1985-4.2808,5.1985-2.583,10.7651-1.2319,12.7544Z" fill="#f5f7f9" stroke-width="0"/><path d="M14.8766.2526c.1397.1252.1976.318.15.4994-.8699,3.3114.6684,6.0307,2.9652,7.3258,4.9021,2.764,6.2557,9.606,1.1367,14.226-.0108.0097-.022.019-.0336.0277-.1096.0829-.2211.1687-.3351.2563-.617.4749-1.3057,1.0048-2.1675,1.4271-1.0374.5082-2.3167.8601-4.0674.8601-1.7881,0-3.5122-.6025-4.9553-1.4509-1.4412-.8473-2.6357-1.9597-3.3585-3.024-1.4407-2.1212-3.1984-7.9395,1.2595-13.3531.1251-.1519.3276-.2163.5175-.1646.1898.0517.3317.21.3624.4044.4265,2.699,1.6696,4.0272,2.7421,4.544-.328-2.1487-.1309-4.4718.6025-6.5056.8304-2.3028,2.3696-4.2842,4.6686-5.1669.1752-.0672.3732-.0308.5129.0944ZM10.6358,5.6644c-.7637,2.1177-.898,4.5976-.4097,6.7902.0362.1626-.0109.3326-.1257.4533-.1148.1207-.2822.1763-.4464.1483-1.5001-.2558-3.2853-1.6119-4.0605-4.5157-3.2684,4.7223-1.7444,9.5467-.5552,11.2978.6282.9249,1.7059,1.9405,3.0381,2.7238,1.3304.7821,2.8807,1.3129,4.4484,1.3129,1.6049,0,2.7329-.3199,3.6274-.7581.7641-.3744,1.3646-.8356,1.9812-1.3093.1127-.0866.226-.1736.3409-.2606,4.5812-4.151,3.3423-10.1645-.9737-12.5981-2.4206-1.3648-4.108-4.1074-3.6443-7.4416-1.4963.8727-2.5755,2.368-3.2206,4.1571Z" fill="#001531" fill-rule="evenodd" stroke-width="0"/></svg>