<?xml version="1.0" encoding="UTF-8"?><svg id="Layer_1" xmlns="http://www.w3.org/2000/svg" viewBox="0 0 20 20"><path d="M3.6997,16.0953c1.0809,1.5915,3.6355,3.4047,6.3202,3.4047s3.8515-1.0748,5.0149-1.9539c3.8875-3.5086,2.8514-8.6553-.8378-10.7354-1.9831-1.1181-3.3084-3.4719-2.5627-6.3107-3.4004,1.3056-4.657,5.8996-3.8439,9.5506-1.1342-.1934-2.662-1.354-3.1052-4.1587-3.4246,4.1587-2.0664,8.612-.9855,10.2034Z" fill="#001531" stroke-width="0"/><path d="M3.6997,16.0953c1.0809,1.5915,3.6355,3.4047,6.3202,3.4047s3.8515-1.0748,5.0149-1.9539c3.8875-3.5086,2.8514-8.6553-.8378-10.7354-1.9831-1.1181-3.3084-3.4719-2.5627-6.3107-3.4004,1.3056-4.657,5.8996-3.8439,9.5506-1.1342-.1934-2.662-1.354-3.1052-4.1587-3.4246,4.1587-2.0664,8.612-.9855,10.2034Z" fill="rgba(255,255,255,.9)" stroke-width="0"/><path d="M11.968.1276c.1398.1252.1977.318.15.4994-.6834,2.6017.5235,4.7326,2.3246,5.7481,3.9798,2.244,5.0743,7.7994.9272,11.5421-.0108.0097-.022.0189-.0335.0277-.0867.0655-.1751.1335-.2658.2033-.4935.3799-1.0534.8108-1.7527,1.1534-.8441.4136-1.8827.6983-3.2979.6983-1.4525,0-2.8492-.4892-4.0148-1.1745-1.1639-.6843-2.1311-1.5839-2.7189-2.4492-1.1705-1.7234-2.5886-6.4284,1.0131-10.8023.1251-.1519.3276-.2163.5175-.1646.1898.0517.3317.21.3624.4044.3141,1.9878,1.1841,3.0178,1.9681,3.4704-.2243-1.6795-.0557-3.4763.5147-5.058.671-1.8608,1.9191-3.4734,3.7932-4.193.1751-.0672.3731-.0308.5128.0944ZM8.6027,4.5654c-.6043,1.6757-.7109,3.6403-.3242,5.3765.0362.1625-.0109.3326-.1257.4532-.1148.1207-.2822.1763-.4464.1483-1.2092-.2062-2.6126-1.2657-3.2693-3.4766-2.4274,3.6789-1.2433,7.3935-.3237,8.7475.4931.7261,1.3436,1.5289,2.3985,2.149,1.053.6192,2.276,1.0366,3.508,1.0366,1.2694,0,2.1567-.2527,2.858-.5963.6015-.2947,1.0731-.6569,1.5663-1.0357.0895-.0687.1797-.1379.2715-.2074,3.6093-3.2738,2.6295-8.0008-.7642-9.9144-1.9194-1.0822-3.2718-3.23-2.991-5.8467-1.082.6956-1.8731,1.8219-2.3578,3.1659Z" fill="#001531" fill-rule="evenodd" stroke-width="0"/></svg>