<?xml version="1.0" encoding="UTF-8"?><svg id="Group" xmlns="http://www.w3.org/2000/svg" viewBox="0 0 20 20"><path id="Solid_Fill" d="M2.5107,17.4326V2.5678C2.5107,1.3983,3.4588,.4502,4.6284,.4502h7.7889l5.0721,5.2399-.0002,11.7425c-.0001,1.1695-.9482,2.1176-2.1177,2.1176H4.6284c-1.1695,0-2.1176-.9481-2.1176-2.1176Z" fill="#001531"/><path id="Opacity_Fill" d="M2.5107,17.4326V2.5678C2.5107,1.3983,3.4588,.4502,4.6284,.4502h7.7889l5.0721,5.2399-.0002,11.7425c-.0001,1.1695-.9482,2.1176-2.1177,2.1176H4.6284c-1.1695,0-2.1176-.9481-2.1176-2.1176Z" fill="rgba(255,255,255,.9)"/><g id="Outline"><path d="M10.4983,10.8415h-.7011v-2.0944h1.8062c.2761,0,.5-.2239,.5-.5s-.2239-.5-.5-.5h-1.8062v-.7126c0-.2761-.2238-.5-.5-.5s-.5,.2239-.5,.5v.7126h-.5092c-.5429,0-1.0637,.2157-1.4476,.5996s-.5996,.9047-.5996,1.4476,.2157,1.0637,.5996,1.4476c.3839,.3839,.9047,.5996,1.4476,.5996h.5092v2.0944h-2.0564c-.2761,0-.5,.2238-.5,.5s.2239,.5,.5,.5h2.0564v1.0198c0,.2761,.2239,.5,.5,.5s.5-.2239,.5-.5v-1.0198h.7011c.5429,0,1.0636-.2157,1.4476-.5996,.3839-.384,.5995-.9047,.5995-1.4476s-.2157-1.0637-.5995-1.4476c-.384-.3839-.9047-.5996-1.4476-.5996Zm-1.7011,0h-.5092c-.2777,0-.5441-.1104-.7405-.3067-.1964-.1964-.3067-.4628-.3067-.7405s.1104-.5441,.3067-.7405c.1964-.1964,.4628-.3067,.7405-.3067h.5092v2.0944Zm2.4415,2.7877c-.1963,.1963-.4627,.3067-.7404,.3067h-.7011v-2.0944h.7011c.2777,0,.5441,.1103,.7404,.3067,.1964,.1964,.3068,.4627,.3068,.7405s-.1104,.5441-.3068,.7405Z" fill="#001531" fill-rule="evenodd"/><path d="M17.8809,5.3831L12.7954,.1293c-.08-.0827-.1901-.1293-.3051-.1293H4.5469C3.1398,0,1.999,1.1407,1.999,2.5479v14.9042c0,1.4072,1.1407,2.5479,2.5479,2.5479H15.4524c1.4071,0,2.5478-1.1407,2.5479-2.5479l.0002-11.7736c0-.1102-.0429-.2162-.1196-.2953ZM12.915,1.4739l3.6588,3.7798h-3.0219c-.3517,0-.6369-.2852-.6369-.637V1.4739Zm4.236,15.9781c0,.9381-.7605,1.6986-1.6986,1.6986H4.5469c-.9381,0-1.6986-.7605-1.6986-1.6986V2.5479c0-.9381,.7605-1.6986,1.6986-1.6986h7.5187v3.7675c0,.8209,.6654,1.4863,1.4862,1.4863h3.5993l-.0002,11.349Z" fill="#001531" fill-rule="evenodd"/></g></svg>