<?xml version="1.0" encoding="UTF-8"?><svg id="Layer_1" xmlns="http://www.w3.org/2000/svg" viewBox="0 0 20 20"><path d="M.5,3.35C.5,1.776,1.776.5,3.35.5h13.3c1.574,0,2.85,1.276,2.85,2.85v13.3c0,1.574-1.276,2.85-2.85,2.85H3.35c-1.574,0-2.85-1.276-2.85-2.85V3.35Z" fill="#001531" stroke-width="0"/><path d="M.5,3.35C.5,1.776,1.776.5,3.35.5h13.3c1.574,0,2.85,1.276,2.85,2.85v13.3c0,1.574-1.276,2.85-2.85,2.85H3.35c-1.574,0-2.85-1.276-2.85-2.85V3.35Z" fill="rgba(255,255,255,.9)" stroke-width="0"/><path d="M6.5,19.5l.0039-13M6.5039,6.5H.5h19H6.5039ZM3,19.5h14c1.3807,0,2.5-1.1193,2.5-2.5V3c0-1.3807-1.1193-2.5-2.5-2.5H3C1.6193.5.5,1.6193.5,3v14c0,1.3807,1.1193,2.5,2.5,2.5Z" fill="none" stroke="#001531"/></svg>