<?xml version="1.0" encoding="UTF-8"?><svg id="Icon" xmlns="http://www.w3.org/2000/svg" viewBox="0 0 20 20"><path id="Solid_Fill" d="M11.072,.4189h4.8734c1.318,0,2.3864,1.0679,2.3864,2.3853v14.3924c0,1.3174-1.0684,2.3853-2.3864,2.3853H3.091c-.8276,0-1.4042-.7396-1.4235-1.5259-.0007-.0275-.0007-.055,0-.0823V2.8043C1.6675,1.4869,2.7359,.4189,4.0539,.4189h7.0181Z" fill="#001531" fill-rule="evenodd"/><path id="Opacity_Fill" d="M11.072,.4189h4.8734c1.318,0,2.3864,1.0679,2.3864,2.3853v14.3924c0,1.3174-1.0684,2.3853-2.3864,2.3853H3.091c-.8276,0-1.4042-.7396-1.4235-1.5259-.0007-.0275-.0007-.055,0-.0823V2.8043C1.6675,1.4869,2.7359,.4189,4.0539,.4189h7.0181Z" fill="rgba(255,255,255,.9)" fill-rule="evenodd"/><path id="Outline" d="M15.1839,.0021v-.0021l-.2677,.0021h-3.4036c-.2883-.0005-.556-.0007-.7899,0H4.0545C2.5059,.0021,1.2505,1.2569,1.2505,2.8048v15.1647c-.0007,.0323-.0007,.0648,.0001,.0974,.0234,.9526,.731,1.9331,1.841,1.9331H15.946c1.5486,0,2.804-1.2548,2.804-2.8027V2.8048C18.75,1.2569,17.4946,.0021,15.946,.0021h-.7621Zm-4.2905,.8349h.6182c.2368,.0004,.488,.0012,.7468,.0019h0l.2293,.0006c.6227,.0017,1.2754,.0032,1.861,.001V5.607l-1.7682-1.3122-1.6871,1.2762V.8369Zm-.8352,0V6.4104c0,.1584,.0897,.3032,.2317,.3738,.1419,.0705,.3115,.0547,.4379-.0409l1.8575-1.4051,1.932,1.4338c.1267,.094,.2957,.1086,.4366,.0378,.141-.0709,.23-.2152,.23-.3729V.8369h.7621c1.0873,0,1.9688,.881,1.9688,1.9679v13.3298H5.0286V.8369h5.0296ZM2.0857,2.8048c0-1.0868,.8814-1.9679,1.9687-1.9679h.1389v15.2977h-1.1018c-.3899,0-.7288,.1058-1.0059,.2843V2.8048Zm1.0059,14.1647h14.8232v.2278c0,1.0868-.8815,1.9678-1.9688,1.9678H3.0916c-.5438,0-.9885-.4961-1.0059-1.1139v-.0714c.0161-.5677,.4041-1.0103,1.0059-1.0103Z" fill="#001531" fill-rule="evenodd"/></svg>