<?xml version="1.0" encoding="UTF-8"?><svg id="Layer_1" xmlns="http://www.w3.org/2000/svg" viewBox="0 0 20 20"><path d="M15.4979,15.5H5.2479c-3.0337,0-4.7479-2.4572-4.7479-4.7121s1.2321-3.825,3.0185-4.4871c.5005-2.8716,2.8234-4.3008,5.0172-4.3008,1.8112,0,3.1964.6619,4.0714,2.1331,2.0536-.6436,3.875,1.0114,3.875,3.0159,2,.6436,3.0179,2.3794,3.0179,4.1928s-1.5595,4.1582-4.0021,4.1582Z" fill="#001531" stroke-width="0"/><path d="M15.4979,15.5H5.2479c-3.0337,0-4.7479-2.4572-4.7479-4.7121s1.2321-3.825,3.0185-4.4871c.5005-2.8716,2.8234-4.3008,5.0172-4.3008,1.8112,0,3.1964.6619,4.0714,2.1331,2.0536-.6436,3.875,1.0114,3.875,3.0159,2,.6436,3.0179,2.3794,3.0179,4.1928s-1.5595,4.1582-4.0021,4.1582Z" fill="rgba(255,255,255,.9)" stroke-width="0"/><path d="M15.4979,15.5c2.4426,0,4.0021-2.3447,4.0021-4.1581s-1.0179-3.5493-3.0179-4.1929c0-2.0045-1.8214-3.6595-3.875-3.0159-.875-1.4712-2.2602-2.1331-4.0714-2.1331-2.1938,0-4.5168,1.4293-5.0172,4.3008-1.7864.662-3.0185,2.2321-3.0185,4.4871s1.7143,4.7121,4.7479,4.7121" fill="none" stroke="#001531" stroke-linecap="round"/><path d="M9.3584,17.9014c0,.3327.2804.5986.6411.5986.3632,0,.6651-.268.6651-.5986v-5.36l.7184.6688c.2555.234.6706.2354.9256.0018.2568-.2352.2542-.613-.002-.8476,0,0-1.8439-1.6887-1.8452-1.6899-.1281-.1173-.295-.1755-.4623-.1745-.1672-.0001-.3341.058-.4633.1763l-1.8433,1.6881c-.2555.234-.257.6141-.002.8476.2568.2352.6695.2328.9256-.0018l.7304-.6688.012,5.36Z" fill="#001531" fill-rule="evenodd" stroke-width="0"/></svg>