<svg id="Icon" xmlns="http://www.w3.org/2000/svg" viewBox="0 0 20 20"><path d="M20,10A10,10,0,1,1,10,0,10,10,0,0,1,20,10Z" fill="#252a3a"/><path d="M20,10A10,10,0,1,1,10,0,10,10,0,0,1,20,10Z" fill="#fff" fill-opacity="0.9"/><path d="M6.4,19.22a10.3049,10.3049,0,0,1-4.998-4.3325A8.588,8.588,0,0,1,.2408,11.0854a9.2114,9.2114,0,0,1,1.9875-.5211q.1152,0,.2293.0051A7.6577,7.6577,0,0,1,9.9824,5.1973a7.6511,7.6511,0,0,1,7.5388,5.4239,7.37,7.37,0,0,1,2.1037.98c.1211.5507-.1148,1.2655-.715,2.65a9.2564,9.2564,0,0,1-3.7854,4.1995A10.1949,10.1949,0,0,1,6.4,19.22Z" fill="#fff" fill-rule="evenodd"/><path d="M10.125,14.1627a.8013.8013,0,1,0,.8013.8012A.8013.8013,0,0,0,10.125,14.1627Zm-.5513.8012a.5513.5513,0,0,1,.5513-.5512l0,0a.5512.5512,0,1,0,0,1.1023l0,0A.5513.5513,0,0,1,9.5737,14.9639Z" fill="#252a3a"/><path d="M10.0516,8a5.0262,5.0262,0,1,0,5.0262,5.0262A5.0262,5.0262,0,0,0,10.0516,8ZM6.58,15.93a4.5263,4.5263,0,0,1,6.9053-5.8533l-.0918.0778-.9779.8289a4.7317,4.7317,0,0,0-2.2627-.589,4.23,4.23,0,0,0-3.2562,1.3263.6175.6175,0,1,0,.9422.7985,3.0106,3.0106,0,0,1,2.3066-.89,3.7073,3.7073,0,0,1,1.2469.2214l-.622.5272a2.5292,2.5292,0,0,0-2.6081.8565.6177.6177,0,0,0,.0757.87.6007.6007,0,0,0,.3412.1307L6.6633,15.8593Zm.5077-4.0476a.3674.3674,0,0,0,.3105.6038.3674.3674,0,0,1-.3107-.6038,3.9821,3.9821,0,0,1,3.0639-1.238h0A3.9822,3.9822,0,0,0,7.0874,11.8826Zm3.06-.503.0041,0-.0042,0Zm1.4678.2827-.0052.0044c-.01-.0039-.0168-.01-.0264-.0137C11.5931,11.6569,11.6049,11.6582,11.6147,11.6623Zm-.4881-.1447c-.0781-.02-.15-.05-.2307-.0651C10.9767,11.4678,11.0483,11.4977,11.1266,11.5176Zm-.2174-.8026c.0558.0091.11.0177.1654.0287C11.02,10.7328,10.9645,10.724,10.9092,10.715Zm1.1841,1.1971c.0077.005.0122.0123.02.0173-.0076-.005-.0172-.008-.0248-.013Zm-.3012-.9668c.0333.0128.0636.0294.0964.0429C11.8558,10.9747,11.8252,10.9579,11.7921,10.9453Zm.8083,1.41a.3657.3657,0,0,0,.249.1306.3661.3661,0,0,1-.2493-.1306l-.0123-.011ZM8.3987,13.9133a.3666.3666,0,0,0,.2681.0847.3675.3675,0,0,1-.3133-.6025,2.5084,2.5084,0,0,1,.4387-.405,2.5112,2.5112,0,0,0-.4385.405A.3675.3675,0,0,0,8.3987,13.9133Zm1.1523-.5169c.0172-.0074.0327-.0206.05-.0273l-.0192.0162C9.5716,13.3894,9.5612,13.392,9.551,13.3964Zm-.3346.1914c.0335-.0252.0689-.0431.1035-.0653C9.2855,13.5446,9.25,13.5627,9.2164,13.5878Zm-.2715-.692a2.3265,2.3265,0,0,1,.3454-.1822A2.3409,2.3409,0,0,0,8.9449,12.8958Zm.5332-.2485a2.2114,2.2114,0,0,1,.3552-.0793A2.2306,2.2306,0,0,0,9.4781,12.6473Zm.5441-.1022a2.1526,2.1526,0,0,1,.4064.0205A2.1694,2.1694,0,0,0,10.0222,12.5451Zm.4291.7588.0014.0006-.0015-.0005Zm.88.5611a.3659.3659,0,0,0,.248.1327.3663.3663,0,0,1-.2482-.1327l-.0016-.0017Zm-.3671-.3269q-.0489-.0333-.0992-.0624C10.8989,13.4952,10.9313,13.5157,10.9642,13.5381Zm.4126-.6052c.0449.03.0929.052.1363.0863C11.47,12.9849,11.4217,12.9634,11.3768,12.9329Zm-1.3252,4.6195a4.5108,4.5108,0,0,1-3.13-1.2567l.065-.055,3.203-2.7149a1.2991,1.2991,0,0,1,.9482.4978.6175.6175,0,1,0,.9548-.7834,2.64,2.64,0,0,0-.7984-.6508l.5895-.5a2.0771,2.0771,0,0,1,.5244.4257.6175.6175,0,0,0,.9488-.7906,3.1325,3.1325,0,0,0-.5049-.456l.8645-.7328.0735-.0623a4.5268,4.5268,0,0,1-3.7384,7.0786Z" fill="#252a3a"/><path d="M10.0516,17.5524A4.5268,4.5268,0,0,0,13.79,10.4738l-.0735.0623-1.0433.8844a2.9142,2.9142,0,0,1,.4919.4644.3675.3675,0,0,1-.5647.4706,2.2546,2.2546,0,0,0-.5071-.4434l-.9957.8439a2.4029,2.4029,0,0,1,.8019.6428.3675.3675,0,0,1-.5682.4662,1.5923,1.5923,0,0,0-.88-.5611L6.9866,16.2407l-.065.055A4.5106,4.5106,0,0,0,10.0516,17.5524Zm.4907-4.9811a2.2988,2.2988,0,0,0-2.1886.8242.3675.3675,0,0,0,.5628.4728,1.6955,1.6955,0,0,1,.6845-.4992l-2.9377,2.49L6.58,15.93a4.5263,4.5263,0,0,1,6.9053-5.8533l-.0918.0778L12.23,11.14a4.5443,4.5443,0,0,0-2.0791-.4957,3.9822,3.9822,0,0,0-3.0639,1.238.3675.3675,0,1,0,.5607.4752,3.2564,3.2564,0,0,1,2.4988-.9782,3.9332,3.9332,0,0,1,1.4678.2827Zm-.4907,5.4811a5.0262,5.0262,0,1,0-5.0262-5.0262A5.0262,5.0262,0,0,0,10.0516,18.0524Zm.0737-2.5372a.5513.5513,0,1,0-.5513-.5513A.5512.5512,0,0,0,10.1253,15.5152Z" fill="#fff" fill-opacity="0.9" fill-rule="evenodd"/><path d="M10,19.75a9.7529,9.7529,0,0,0,9.5974-8.0222,4.849,4.849,0,0,0-2.113-.8593l-.1627-.0244-.042-.1592a7.4015,7.4015,0,0,0-7.297-5.2376A7.4084,7.4084,0,0,0,2.6991,10.635l-.0525.1929-.2-.0088q-.1084-.0048-.2183-.0048a4.8609,4.8609,0,0,0-1.9054.3863A9.7517,9.7517,0,0,0,10,19.75Zm7.5215-9.1288a5.0968,5.0968,0,0,1,2.1208.8329A9.7506,9.7506,0,1,0,.25,10q0,.4764.0449.9416a5.112,5.112,0,0,1,1.9337-.3773q.1152,0,.2293.0051A7.6577,7.6577,0,0,1,9.9827,5.1973,7.6511,7.6511,0,0,1,17.5215,10.6212ZM10,20A10,10,0,1,0,0,10,10,10,0,0,0,10,20ZM5.7754,13.0262a4.2558,4.2558,0,0,0,.84,2.5459l6.51-5.5184a4.2762,4.2762,0,0,0-7.35,2.9725ZM10.0516,8.5a4.5127,4.5127,0,0,1,3.2652,1.3918q.0867.09.1682.1851L6.58,15.93q-.08-.0958-.1553-.1962A4.5265,4.5265,0,0,1,10.0516,8.5Zm4.2762,4.5262a4.2764,4.2764,0,0,1-7.026,3.275L13.7333,10.85A4.255,4.255,0,0,1,14.3278,13.0262Zm-4.2762,4.5262a4.5081,4.5081,0,0,1-2.943-1.0874q-.0959-.082-.187-.1693L13.79,10.4738q.0711.104.1365.212a4.5272,4.5272,0,0,1-3.8749,6.8666Zm0,.75a5.2762,5.2762,0,1,0-5.2762-5.2762A5.2762,5.2762,0,0,0,10.0516,18.3024Zm5.0262-5.2762A5.0262,5.0262,0,1,1,10.0516,8,5.0262,5.0262,0,0,1,15.0778,13.0262Z" fill="#252a3a" fill-rule="evenodd"/></svg>