<svg id="Folder_-_Library" data-name="Folder - Library" xmlns="http://www.w3.org/2000/svg" viewBox="0 0 21 20"><path id="Black_Fill" data-name="Black Fill" d="M2.3226,2.0312H7.58a1.7857,1.7857,0,0,1,1.3474.74L10.16,3.892h7.8226a1.7568,1.7568,0,0,1,1.7435,1.7718V16.2084A1.7568,1.7568,0,0,1,17.985,17.98H2.3276A1.754,1.754,0,0,1,.5869,16.2125V3.799A1.7557,1.7557,0,0,1,2.3226,2.0312Z" fill="#252a3a"/><path id="Grey_Fill" data-name="Grey Fill" d="M2.3226,2.0312H7.58a1.7857,1.7857,0,0,1,1.3474.74L10.16,3.892h7.8226a1.7568,1.7568,0,0,1,1.7435,1.7718V16.2084A1.7568,1.7568,0,0,1,17.985,17.98H2.3276A1.754,1.754,0,0,1,.5869,16.2125V3.799A1.7557,1.7557,0,0,1,2.3226,2.0312Z" fill="#fff" fill-opacity="0.9"/><g id="Outlines"><path d="M17.9822,3.4613H10.326L9.2554,2.488a2.12,2.12,0,0,0-.7126-.6174,2.06,2.06,0,0,0-.963-.27H2.3225A2.1863,2.1863,0,0,0,.1562,3.799V16.2124a2.1847,2.1847,0,0,0,2.1714,2.1984H17.985a2.1874,2.1874,0,0,0,2.1712-2.2024V5.6637A2.1873,2.1873,0,0,0,17.9822,3.4613ZM19.295,16.2084a1.3262,1.3262,0,0,1-1.31,1.3411H2.3276a1.3235,1.3235,0,0,1-1.31-1.3371V3.799a1.325,1.325,0,0,1,1.305-1.3371H7.58a1.2083,1.2083,0,0,1,.5483.1635,1.2327,1.2327,0,0,1,.4369.3791l.0306.0476,1.3974,1.27h7.9892A1.3261,1.3261,0,0,1,19.295,5.6637Z" fill="#252a3a" fill-rule="evenodd"/><path d="M13.0681,6.5059A4.9233,4.9233,0,0,0,10.1563,7.3a4.9233,4.9233,0,0,0-2.9118-.7941A4.9232,4.9232,0,0,0,4.3328,7.3v7.7559a.2847.2847,0,0,0,.2647.2647.1953.1953,0,0,0,.0661-.0133.197.197,0,0,1,.0662-.0132,6.4622,6.4622,0,0,1,2.5147-.5824,4.9234,4.9234,0,0,1,2.9118.7942,6.3771,6.3771,0,0,1,2.9118-.7942,5.3894,5.3894,0,0,1,2.5147.5559.2382.2382,0,0,0,.1323.0265.2847.2847,0,0,0,.2647-.2647V7.3a3.6092,3.6092,0,0,0-1.0588-.5294A6.2489,6.2489,0,0,0,13.0681,6.5059Zm1.8529,7.4117a6.1517,6.1517,0,0,0-1.8529-.2647,6.377,6.377,0,0,0-2.9118.7941V8.3588a6.377,6.377,0,0,1,2.9118-.7941,6.1517,6.1517,0,0,1,1.8529.2647Z" fill="#252a3a" fill-rule="evenodd"/></g></svg>