<?xml version="1.0" encoding="UTF-8"?><svg id="Layer_2" xmlns="http://www.w3.org/2000/svg" viewBox="0 0 20 20"><g id="Layer_1-2"><path d="M.625,.4355H19.5497V19.5185H.625V.4355Z" fill="#e8e7e9"/><path d="M0,1.017C0,.4553,.4539,0,1.0139,0H18.9861c.56,0,1.0139,.4553,1.0139,1.017V18.983c0,.5617-.4539,1.017-1.0139,1.017H1.0139c-.56,0-1.0139-.4553-1.0139-1.017V1.017Zm1.0139-.113c-.0622,0-.1127,.0506-.1127,.113V5.9491H19.0988V1.017c0-.0624-.0505-.113-.1127-.113H1.0139ZM19.0988,6.8531H6.9v12.2429h12.0861c.0622,0,.1127-.0506,.1127-.113V6.8531ZM5.9987,19.096V6.8531H.9013v12.1299c0,.0624,.0504,.113,.1127,.113H5.9987Z" fill="#180b25" fill-rule="evenodd"/></g></svg>