<?xml version="1.0" encoding="UTF-8"?><svg id="Layer_1" xmlns="http://www.w3.org/2000/svg" viewBox="0 0 20 20"><path d="M13.031,18.5504c-1.3927,1.3927-3.3171,1.1848-4.6591-.1572-.3976-.3976-5.341-5.3466-6.2665-6.2721-.9824-.9824-1.5938-2.1597-1.5938-3.812V3.5898C.5117,2.1797,1.7173.5117,3.6406.5117h4.954c1.6055,0,2.951,1.0145,3.1982,1.2617.2473.2473,5.7283,5.7183,6.8162,6.8063,1.088,1.088,1.3127,3.0883-.0779,4.4789-.6711.6711-4.2549,4.2466-5.5001,5.4918Z" fill="#001531" stroke-width="0"/><path d="M13.031,18.5504c-1.3927,1.3927-3.3171,1.1848-4.6591-.1572-.3976-.3976-5.341-5.3466-6.2665-6.2721-.9824-.9824-1.5938-2.1597-1.5938-3.812V3.5898C.5117,2.1797,1.7173.5117,3.6406.5117h4.954c1.6055,0,2.951,1.0145,3.1982,1.2617.2473.2473,5.7283,5.7183,6.8162,6.8063,1.088,1.088,1.3127,3.0883-.0779,4.4789-.6711.6711-4.2549,4.2466-5.5001,5.4918Z" fill="rgba(255,255,255,.9)" stroke-width="0"/><path d="M3.6308,0C1.3885,0,0,1.9363,0,3.5797v4.7217c0,1.8023.6767,3.1032,1.7412,4.1676.4629.4628,1.9309,1.9321,3.333,3.3355l.8742.8751.0299.0299c1.0306,1.0316,1.8778,1.8796,2.0331,2.0348.7456.7455,1.6745,1.197,2.6377,1.2504.9712.0538,1.938-.2999,2.7312-1.0931.6228-.6227,1.8306-1.8283,2.9668-2.9624l.5171-.5161.0107-.0107c.9249-.9231,1.7256-1.7223,2.0088-2.0054,1.6017-1.6016,1.3466-3.9199.078-5.1884-.5445-.5445-2.1879-2.1853-3.7259-3.7206l-1.5443-1.5416-1.5501-1.5476c-.1686-.1686-.6135-.5136-1.2201-.8174-.6118-.3065-1.4281-.5914-2.3336-.5914H3.6308ZM1,3.5797c0-1.1784,1.0241-2.5797,2.6308-2.5797h4.9569c.7009,0,1.361.2226,1.8858.4855.5301.2655.882.5517.9608.6305l1.5574,1.5548,1.5376,1.5349c1.5382,1.5356,3.1812,3.176,3.7253,3.72.9086.9085,1.1033,2.5929-.078,3.774-.2846.2846-1.0933,1.0918-2.0256,2.0223l-.5103.5093c-1.1361,1.134-2.3443,2.3399-2.9674,2.9631-.6004.6002-1.2931.8392-1.9688.8017-.6836-.0379-1.3888-.3618-1.9861-.959-.1581-.1581-1.0355-1.0363-2.0934-2.0952l-.0004-.0005-.843-.8438c-1.402-1.4033-2.8702-2.8728-3.3334-3.3359-.9015-.9014-1.4482-1.9563-1.4482-3.4604V3.5797ZM6.1564,4.9697c-.6489,0-1.175.5261-1.175,1.175s.5261,1.175,1.175,1.175,1.175-.5261,1.175-1.175-.5261-1.175-1.175-1.175ZM3.9815,6.1447c0-1.2012.9738-2.175,2.175-2.175s2.175.9738,2.175,2.175-.9738,2.175-2.175,2.175-2.175-.9738-2.175-2.175ZM14.3545,10.6474c.1953.1953.1953.5119,0,.7071l-3.0039,3.0039c-.1952.1953-.5118.1953-.7071,0-.1952-.1952-.1952-.5118,0-.7071l3.0039-3.0039c.1953-.1952.5119-.1952.7071,0Z" fill="#001531" fill-rule="evenodd" stroke-width="0"/></svg>