<?xml version="1.0" encoding="UTF-8"?><svg id="Layer_1" xmlns="http://www.w3.org/2000/svg" viewBox="0 0 20 20"><path d="M2,3.3531c0-1.5754,1.2641-2.8524,2.8235-2.8524h7.4315c.3306-.0108.6501.1212.8785.3629l2.1731,2.2997,2.3323,2.4565c.2317.244.3611.5691.3611.9072v10.1207c0,1.5753-1.2641,2.8524-2.8235,2.8524H4.8235c-1.5594,0-2.8235-1.2771-2.8235-2.8524V3.3531Z" fill="#001531" stroke-width="0"/><path d="M2,3.3531c0-1.5754,1.2641-2.8524,2.8235-2.8524h7.4315c.3306-.0108.6501.1212.8785.3629l2.1731,2.2997,2.3323,2.4565c.2317.244.3611.5691.3611.9072v10.1207c0,1.5753-1.2641,2.8524-2.8235,2.8524H4.8235c-1.5594,0-2.8235-1.2771-2.8235-2.8524V3.3531Z" fill="rgba(255,255,255,.9)" stroke-width="0"/><path d="M13.4952.5183C13.1718.176,12.718-.0122,12.2476.0006h-7.7476C2.8427.0006,1.5,1.3451,1.5,3.0028v13.9951c0,1.6576,1.3427,3.0021,3,3.0021h11c1.6573,0,3-1.3445,3-3.0021V6.5269c0-.4664-.179-.915-.5001-1.2532l-2.3299-2.4539-.0008-.0009-2.174-2.3007ZM4.5,1.0006h7.255v3.5246c0,1.3813,1.1189,2.5017,2.5,2.5017h3.245v9.971c0,1.1061-.8958,2.0021-2,2.0021H4.5c-1.1042,0-2-.896-2-2.0021V3.0028c0-1.1062.8958-2.0021,2-2.0021ZM17.2747,5.9623c.0197.0207.0381.0423.0553.0646h-3.075c-.828,0-1.5-.6719-1.5-1.5017V1.1914l.0134.0137,2.1748,2.3015.0008.0009,2.3307,2.4548ZM9.4641,7.5c0-.3038-.2462-.55-.55-.55s-.55.2462-.55.55v.7117h-.3374c-1.1355,0-2.0766.904-2.0766,2.0446,0,1.1395.9414,2.0433,2.0766,2.0433h1.7455c.5519,0,.9778.4339.9778.9444,0,.5092-.4257.9434-.9778.9434h-3.2722c-.3038,0-.55.2462-.55.55s.2462.55.55.55h1.8641v.7089c0,.3037.2462.55.55.55s.55-.2463.55-.55v-.7089h.3081c1.1361,0,2.0779-.9034,2.0779-2.0434,0-1.1408-.9416-2.0444-2.0779-2.0444h-1.7455c-.5507,0-.9766-.434-.9766-.9433,0-.5109.4262-.9446.9766-.9446h.823c.0211.0025.0426.0037.0644.0037s.0433-.0013.0644-.0037h1.8849c.3037,0,.55-.2462.55-.55s-.2463-.55-.55-.55h-1.3993v-.7117Z" fill="#001531" fill-rule="evenodd" stroke-width="0"/></svg>