<?xml version="1.0" encoding="UTF-8"?><svg id="Layer_1" xmlns="http://www.w3.org/2000/svg" viewBox="0 0 20 20"><path d="M4.286,14.75h.5565l.4075-.4075v1.1808c0,2.3333,1.4522,3.981,3.7869,3.981h6.6773c2.3336,0,3.7858-1.6477,3.7858-3.981v-6.2932c0-2.3324-1.4592-3.9801-3.7858-3.9801h-1.371l.4068-.4068v-.3576c0-2.3353-1.4607-3.9856-3.786-3.9856h-5.0085c-.5163,0-1.0136.219-1.3812.5966l-3.5379,3.6863c-.3375.3576-.5364.8347-.5364,1.3219v4.6606c0,2.3353,1.4505,3.9846,3.786,3.9846Z" fill="#001531" stroke-width="0"/><path d="M4.286,14.75h.5565l.4075-.4075v1.1808c0,2.3333,1.4522,3.981,3.7869,3.981h6.6773c2.3336,0,3.7858-1.6477,3.7858-3.981v-6.2932c0-2.3324-1.4592-3.9801-3.7858-3.9801h-1.371l.4068-.4068v-.3576c0-2.3353-1.4607-3.9856-3.786-3.9856h-5.0085c-.5163,0-1.0136.219-1.3812.5966l-3.5379,3.6863c-.3375.3576-.5364.8347-.5364,1.3219v4.6606c0,2.3353,1.4505,3.9846,3.786,3.9846Z" fill="rgba(255,255,255,.9)" stroke-width="0"/><path d="M4.9347,1.4433l-3.535,3.6833c-.154.1636-.2679.3587-.3336.5655h2.9759c.8284,0,1.5-.6716,1.5-1.5V1.0644c-.2238.0716-.4333.2005-.6073.3788ZM6.542.999v3.193c0,1.3807-1.1193,2.5-2.5,2.5H1.001v4.0724c0,1.0648.3296,1.9318.8834,2.5277.55.5917,1.3585.9569,2.4026.9569h.4627v-3.3964c0-.0558.0019-.1115.0058-.1668.0391-.5633.275-1.0959.6668-1.505l3.543-3.6919c.408-.4241.9551-.6846,1.5377-.7342.0679-.0058.1362-.0087.2049-.0087h3.5431v-.2613c0-1.0639-.3316-1.9313-.887-2.5279-.5517-.5927-1.3606-.9578-2.399-.9578h-4.423ZM15.251,4.746v-.2613c0-1.2714-.3988-2.3969-1.1551-3.2093C13.336.4591,12.2518-.001,10.965-.001h-5.0086C5.2979-.001,4.6735.2779,4.217.7469L.6766,4.4358l-.0029.003C.2535,4.884.001,5.4821.001,6.1038v4.6606C.001,12.0349.3967,13.1603,1.1519,13.9729c.7591.8167,1.8437,1.2761,3.135,1.2761h.4627v.2703c0,1.2698.3963,2.3943,1.152,3.2061.7594.816,1.8441,1.2749,3.1349,1.2749h6.6773c1.2904,0,2.3748-.459,3.134-1.2749.7555-.8118,1.1518-1.9363,1.1518-3.2061v-6.2933c0-1.27-.3984-2.3942-1.1547-3.2056-.7598-.8153-1.8439-1.2745-3.1311-1.2745h-.4629ZM11.0455,5.746v2.9745c0,1.3807-1.1193,2.5-2.5,2.5h-2.7958v4.2989c0,1.0635.3298,1.9295.8839,2.5248.5503.5913,1.3591.9562,2.4029.9562h6.6773c1.0432,0,1.8517-.3649,2.402-.9561.554-.5954.8838-1.4614.8838-2.5249v-6.2933c0-1.0624-.3312-1.9282-.8862-2.5238-.5514-.5916-1.3602-.9563-2.3996-.9563h-4.6684ZM5.8992,10.2204h2.6463c.8284,0,1.5-.6716,1.5-1.5v-2.8096c-.1318.0699-.2532.1608-.3589.2706,0,.0001,0,0,0,0l-3.5421,3.691s0-.0001,0,0c-.0995.104-.1821.2217-.2453.3479Z" fill="#001531" fill-rule="evenodd" stroke-width="0"/></svg>