<?xml version="1.0" encoding="UTF-8"?><svg id="Layer_1" xmlns="http://www.w3.org/2000/svg" viewBox="0 0 20 20"><path d="M12.9931,14.3174c.5071-.6519,1.0141-1.3038,1.5225-1.9545v-1.1769c.0006.4892.0066.7539.0694.9744.1747.6127.6584,1.0916,1.2774,1.2645.2462.0688.5472.0688,1.1493.0688s.9031,0,1.1493-.0688c.619-.1729,1.1027-.6518,1.2774-1.2645.0694-.2438.0694-.5417.0694-1.1376V3.4713c0-.5959,0-.8938-.0694-1.1375-.1747-.6128-.6584-1.0917-1.2774-1.2646-.2462-.0687-.5472-.0688-1.1493-.0688s-.9031.0001-1.1493.0688c-.619.173-1.1027.6518-1.2774,1.2646-.0628.2204-.0688.4851-.0694.9743v-.2342c-1.1509-1.1456-2.6685-1.8633-4.2982-1.9529-1.7733-.0975-4.1222-.1642-5.8049.0207-1.2462.1369-2.6849,1.0808-3.1949,2.4534-.7551,2.0316-.9068,4.9465-.4663,6.4766.2113.7339.6964,1.3609,1.3572,1.754.7225.4297,1.7308.4297,3.853.4297.9705,0,1.3735.4094,1.042,1.5895-.447,1.5915-.8833,4.5923.8258,5.0842.7663.2205,1.6199-.0897,2.1074-.7055,1.0261-1.2963,2.0412-2.6013,3.0563-3.9062Z" fill="#001531" stroke-width="0"/><path d="M12.9931,14.3174c.5071-.6519,1.0141-1.3038,1.5225-1.9545v-1.1769c.0006.4892.0066.7539.0694.9744.1747.6127.6584,1.0916,1.2774,1.2645.2462.0688.5472.0688,1.1493.0688s.9031,0,1.1493-.0688c.619-.1729,1.1027-.6518,1.2774-1.2645.0694-.2438.0694-.5417.0694-1.1376V3.4713c0-.5959,0-.8938-.0694-1.1375-.1747-.6128-.6584-1.0917-1.2774-1.2646-.2462-.0687-.5472-.0688-1.1493-.0688s-.9031.0001-1.1493.0688c-.619.173-1.1027.6518-1.2774,1.2646-.0628.2204-.0688.4851-.0694.9743v-.2342c-1.1509-1.1456-2.6685-1.8633-4.2982-1.9529-1.7733-.0975-4.1222-.1642-5.8049.0207-1.2462.1369-2.6849,1.0808-3.1949,2.4534-.7551,2.0316-.9068,4.9465-.4663,6.4766.2113.7339.6964,1.3609,1.3572,1.754.7225.4297,1.7308.4297,3.853.4297.9705,0,1.3735.4094,1.042,1.5895-.447,1.5915-.8833,4.5923.8258,5.0842.7663.2205,1.6199-.0897,2.1074-.7055,1.0261-1.2963,2.0412-2.6013,3.0563-3.9062Z" fill="rgba(255,255,255,.9)" stroke-width="0"/><path d="M9.0363,18.3091c.2824-.1581.5038-.3792.6176-.5283l.0038-.005,4.4073-5.6284c-.0238-.1245-.0361-.249-.0375-.3517-.0292-2.1732-.0208-5.6567-.0162-7.5359.0009-.385.0017-.7027.0019-.9279v-.0015c-.3609-.4316-.8803-.8053-1.4679-1.0944-.6412-.3156-1.3305-.5141-1.9129-.5811-.6138-.0706-1.8114-.116-3.0277-.1228-1.2195-.0068-2.4056.0257-3.0027.1015-1.1272.1431-2.057.7736-2.5411,1.4727-.403.5821-.7578,1.7837-.9366,3.1374-.1773,1.3428-.1643,2.7031.0763,3.5653.3456,1.2389,1.2533,1.8277,2.2607,1.8941.4597.0303,1.034.0417,1.499.0453.2313.0018.4333.0017.5774.0011.072-.0003.1295-.0007.1688-.001l.0409-.0004c.4985-.043,1.0358.0369,1.4234.3597.4358.3629.5558.9205.3924,1.533-.1344.504-.4492,1.6882-.4616,2.7946-.0062.5546.0651,1.0395.2354,1.3965.159.3333.4025.5581.804.6438.3122.0667.6166-.0107.8951-.1666ZM5.7784,12.7478l.0203-.0002.0203-.0019c.3736-.035.6073.0434.7119.1305.062.0516.1568.1671.0661.5069l-.0039.0145c-.1347.505-.4776,1.7902-.4914,3.0266-.007.6227.068,1.2833.3328,1.8383.2762.5789.7568,1.0329,1.4977,1.1912.6166.1317,1.1705-.0358,1.5925-.272.4166-.2333.7373-.5503.9221-.7917l4.0975-5.2329c.2102.2607.5065.5014.941.6657.3609.1364.9353.1898,1.443.1971.513.0074,1.0806-.031,1.4421-.139.7243-.2165,1.6218-.9549,1.6218-2.1748,0-.3593.0027-2.2554.0055-4.2268.0029-2.0455.006-4.1721.0062-4.7471,0-.2835-.1001-.6598-.3051-1.0133-.2107-.3634-.5502-.7342-1.0567-.9658-.4644-.2125-1.0964-.2578-1.617-.2529-.5386.0051-1.0542.0662-1.3407.1239-.4274.0861-.766.3226-1.0071.5711-.2388.246-.4108.5329-.4952.7772-.0117.0341-.0225.0678-.0324.1011-.357-.2892-.7556-.5343-1.1629-.7347-.7377-.3631-1.5373-.5964-2.2403-.6773-.6716-.0772-1.9157-.1225-3.1364-.1293-1.2175-.0068-2.464.0244-3.1342.1094-1.4073.1787-2.5909.9619-3.2373,1.8955-.545.7871-.9227,2.1894-1.1058,3.5757-.1845,1.3972-.189,2.9131.1044,3.9649.4676,1.6761,1.7572,2.5309,3.1582,2.6232.4895.0323,1.0872.0438,1.5569.0475.2361.0018.4421.0017.5892.0011.0736-.0003.1325-.0007.1732-.0011l.0468-.0004.0168-.0002ZM15.0131,3.1956v.1374c-.0002.2273-.001.5469-.002.9337-.0045,1.8813-.0129,5.3517.0162,7.5156.0013.0947.0257.2313.0511.2971.1327.3431.3051.636.7605.8081.1856.0701.6083.1255,1.1037.1326.4902.007.9318-.0346,1.1414-.0972.4178-.1249.9082-.5499.9082-1.2167,0-.3581.0027-2.2572.0055-4.2307.0029-2.0457.006-4.1714.0062-4.7433,0-.0795-.0385-.2843-.1702-.5115-.126-.2174-.3214-.4272-.6076-.5581-.2508-.1147-.6918-.167-1.1916-.1623-.482.0045-.9342.0602-1.1527.1042-.1772.0357-.3443.1403-.4869.2872-.1449.1494-.2348.3123-.2675.4072-.0541.1565-.0751.3096-.0856.4619-.0039.0554-.006.104-.0082.1558-.0011.0239-.0021.0484-.0034.0747-.0029.059-.007.1315-.0171.2044Z" fill="#001531" fill-rule="evenodd" stroke-width="0"/></svg>