<svg id="Icon" xmlns="http://www.w3.org/2000/svg" viewBox="0 0 20 20"><path id="Black_Fill" data-name="Black Fill" d="M3.182,13.9437H6.5378l7.2694.0118,2.7845.0282a3.2153,3.2153,0,0,0,.7531-6.2957A4.991,4.991,0,0,0,14.2,1.2829,5.0918,5.0918,0,0,0,7.7859,4.72a4.226,4.226,0,0,0-3.4089.2569A4.14,4.14,0,0,0,2.4761,7.7518,3.2074,3.2074,0,0,0,.3516,10.76,3.2591,3.2591,0,0,0,3.182,13.9437Z" fill="#252a3a"/><path id="Gray_FIll" data-name="Gray FIll" d="M3.182,13.9437H6.5378l7.2694.0118,2.7845.0282a3.2153,3.2153,0,0,0,.7531-6.2957A4.991,4.991,0,0,0,14.2,1.2829,5.0918,5.0918,0,0,0,7.7859,4.72a4.226,4.226,0,0,0-3.4089.2569A4.14,4.14,0,0,0,2.4761,7.7518,3.2074,3.2074,0,0,0,.3516,10.76,3.2591,3.2591,0,0,0,3.182,13.9437Z" fill="#fff" fill-opacity="0.9"/><path id="Outlines" d="M8.1291,4.7923a4.5737,4.5737,0,0,1,1.8737-2.5671,4.645,4.645,0,0,1,4.0792-.611,4.7871,4.7871,0,0,1,2.9718,2.9819,4.9218,4.9218,0,0,1-.0411,2.9762.3511.3511,0,0,0,.22.4483,2.8641,2.8641,0,0,1-.6481,5.6115L13.81,13.604a.3512.3512,0,1,0-.0071.7024l2.7845.0283.02,0A3.5741,3.5741,0,0,0,20,10.6476a3.5277,3.5277,0,0,0-2.2237-3.1693,5.6417,5.6417,0,0,0-.0518-3.0926A5.4915,5.4915,0,0,0,14.333.9578C14.3221.9534,14.311.9494,14.3.9461a5.3492,5.3492,0,0,0-4.6964.7012A5.4766,5.4766,0,0,0,7.5443,4.2742a4.6112,4.6112,0,0,0-3.333.3923A4.2087,4.2087,0,0,0,2.8269,5.9858,4.0886,4.0886,0,0,0,2.1526,7.517,3.4916,3.4916,0,0,0,0,10.7593a3.441,3.441,0,0,0,1.2672,2.7,4.0034,4.0034,0,0,0,1.03.6257,2.4616,2.4616,0,0,0,.8843.21H6.5375a.3513.3513,0,0,0,0-.7025H3.1817a1.8,1.8,0,0,1-.6161-.1563,3.3014,3.3014,0,0,1-.8473-.5148A2.7393,2.7393,0,0,1,.7025,10.7593,2.86,2.86,0,0,1,2.6228,8.07a.351.351,0,0,0,.203-.29,3.1544,3.1544,0,0,1,.58-1.3976A3.5212,3.5212,0,0,1,4.5421,5.2862a3.875,3.875,0,0,1,3.1223-.237.3511.3511,0,0,0,.4647-.2569Zm2.2374,4.7669a.3512.3512,0,0,0-.7024,0v9.3956a.3512.3512,0,1,0,.7024,0Zm-1.905.69a.3512.3512,0,0,1,.3512.3513v6.2954a1.37,1.37,0,0,1-1.359,1.3591H5.9391a.3513.3513,0,0,1,0-.7025H7.45a.6672.6672,0,0,0,.6608-.6608V10.6A.3512.3512,0,0,1,8.4615,10.249Zm3.448.3473a.3513.3513,0,0,0-.7025,0l0,2.9842c0,1.5241,0,3.1119,0,3.367a1.2733,1.2733,0,0,0,.4758.9632,1.3792,1.3792,0,0,0,.8341.3475h1.5974a.3513.3513,0,1,0-.0008-.7025H12.5169a.7117.7117,0,0,1-.3789-.18.575.575,0,0,1-.2285-.428c0-.2559,0-1.8436,0-3.3672Z" fill="#252a3a" fill-rule="evenodd"/></svg>