<svg id="No_Backups" data-name="No Backups" xmlns="http://www.w3.org/2000/svg" viewBox="0 0 20 20"><path d="M18,8.8878V3.8137C18,1.7527,13.9707.082,9.0005.082s-9,1.6707-9,3.7317v12.455C.001,18.33,4.03,20,9.0005,20a20.7383,20.7383,0,0,0,2.9489-.2092A6.4418,6.4418,0,0,0,18,8.8878Z" fill="#252a3a"/><path d="M18,8.8544V3.8137C18,1.7527,13.9707.082,9.0005.082s-9,1.6707-9,3.7317v12.455C.001,18.33,4.03,20,9.0005,20a20.8019,20.8019,0,0,0,2.8865-.2A6.4664,6.4664,0,0,0,18,8.8544Z" fill="#fff" fill-opacity="0.9"/><path id="Lines" d="M3.013,1.912C1.6262,2.487,1.0378,3.1276.923,3.6293c.0887.4722.6658,1.0914,2.0941,1.6469a17.16,17.16,0,0,0,5.9838.9547,17.16,17.16,0,0,0,5.9838-.9547c1.4281-.5554,2.0052-1.1745,2.0941-1.6468-.1152-.5017-.7035-1.1423-2.09-1.7174A16.2051,16.2051,0,0,0,9.0005.8932,16.2054,16.2054,0,0,0,3.013,1.912ZM18.0005,3.5a1.3976,1.3976,0,0,1-.0086.1544A1.5691,1.5691,0,0,1,18,3.8137V8.88a6.4766,6.4766,0,0,0-.9207-.7306,1.0456,1.0456,0,0,0,.0082-.13H17.1V5.0278C15.6411,6.1953,12.5625,7,9.0005,7S2.36,6.1953.9009,5.0278V8.02H.9061c0,.7.72,1.4666,2.2364,2.0819a14.863,14.863,0,0,0,4.4666.9325,6.4372,6.4372,0,0,0-.2766.7937A15.64,15.64,0,0,1,2.7684,10.84,6.54,6.54,0,0,1,.9009,9.7447V12.12H.91c0,.7.7176,1.4667,2.2285,2.0819a14.4654,14.4654,0,0,0,4.1525.91,6.4051,6.4051,0,0,0,.2693.8342,15.7774,15.7774,0,0,1-4.7948-1.0052A6.5052,6.5052,0,0,1,.9009,13.8424v2.4263c0,.5219.5487,1.2535,2.1121,1.9017a16.2054,16.2054,0,0,0,5.9875,1.0188c.4577,0,.9055-.0148,1.3408-.0431a6.4169,6.4169,0,0,0,1.5981.6508A20.8179,20.8179,0,0,1,9.0005,20c-4.97,0-9-1.6707-9-3.7317V8.02H.001V3.8137a1.5844,1.5844,0,0,1,.0081-.16A1.3836,1.3836,0,0,1,.0005,3.5c0-1.933,4.0294-3.5,9-3.5S18.0005,1.567,18.0005,3.5Zm-1.1682,6.668a.5733.5733,0,0,0-.8108,0l0,0h0L13.5,12.689l-2.52-2.5206a.5735.5735,0,0,0-.8111.811l2.52,2.5206-2.5207,2.5206a.5735.5735,0,0,0,.811.811L13.5,14.311l2.5212,2.5211a.5735.5735,0,0,0,.811-.811L14.3112,13.5l2.5211-2.521a.5733.5733,0,0,0,0-.8108l0,0Z" fill="#252a3a" fill-rule="evenodd"/></svg>