<svg id="Layer_1" data-name="Layer 1" xmlns="http://www.w3.org/2000/svg" viewBox="0 0 20 20"><path d="M3.2783,13.5386l4.2512.3979v-1.61l-2.6546-.1512V10.2817l2.3185.0257V8.71l-2.3185.059V6.9273l2.4915-.1749v-1.61L3.2783,5.58ZM0,17.5859V2.4129L11.2041.4756V19.5232ZM18.5864,8.3592V5.8527a.25.25,0,0,0-.25-.2495H15.7259c-.2989.0408-2.7212,3.2323-2.36,3.57.1637.1534.5324-.2611,1.0317-.8225A11.0326,11.0326,0,0,1,15.9447,6.832h1.4125v1.61a.05.05,0,0,1-.0143.0351l-.4484.4541a.1748.1748,0,0,0,0,.2471l.3638.3637a.1748.1748,0,0,0,.2471,0l1.0082-1.0063A.25.25,0,0,0,18.5864,8.3592Zm0,5.7868v-2.61c-.0408-.2989-3.2334-2.72-3.5716-2.36-.1534.1636.2612.5322.8228,1.0314a11.0319,11.0319,0,0,1,1.5191,1.5466v1.412h-1.61a.0493.0493,0,0,1-.035-.0143l-.4543-.4482a.1749.1749,0,0,0-.2472,0l-.3638.3637a.1747.1747,0,0,0,0,.247l1.0068,1.0078a.25.25,0,0,0,.1766.0733H18.337A.25.25,0,0,0,18.5864,14.146ZM12.2611,4.19h6.74A.9987.9987,0,0,1,20,5.1885h0V14.81a.9987.9987,0,0,1-.9988.9985h-6.74V14.3957h.39c.299-.0408,2.7212-3.2324,2.3605-3.57-.1636-.1535-.5324.2611-1.0319.8226a11.0188,11.0188,0,0,1-1.5469,1.5185h-.1721v-2.75c.54.3289.9864.5289,1.1016.4062.1534-.1637-.2615-.5325-.8233-1.0319q-.135-.12-.2783-.2486v-2.71h.37a.05.05,0,0,1,.0351.0144l.4542.4481a.1747.1747,0,0,0,.2471,0h0l.3639-.3637a.1747.1747,0,0,0,0-.247L12.7247,5.6764a.25.25,0,0,0-.1768-.0732h-.2868Z" fill="#252a3a" fill-rule="evenodd"/></svg>