<svg id="Storage" xmlns="http://www.w3.org/2000/svg" viewBox="0 0 20 20"><path d="M18.31,11.8909,16.6133,3.954a3.1457,3.1457,0,0,0-3.0762-2.4882H6.6139a3.1457,3.1457,0,0,0-3.0653,2.439L1.7141,11.8619a4.1557,4.1557,0,0,0,2.9421,7.0912H15.3438A4.1524,4.1524,0,0,0,18.31,11.8909Z" fill="#252a3a"/><path d="M18.31,11.8909,16.6133,3.954a3.1457,3.1457,0,0,0-3.0762-2.4882H6.6139a3.1457,3.1457,0,0,0-3.0653,2.439L1.7141,11.8619a4.1557,4.1557,0,0,0,2.9421,7.0912H15.3438A4.1524,4.1524,0,0,0,18.31,11.8909Z" fill="#fff" fill-opacity="0.9"/><g id="Lines"><path d="M19.2,13.2647c.02.05.0459.0972.064.1483L17.1917,3.8658a3.6318,3.6318,0,0,0-3.57-2.82H6.5325A3.6334,3.6334,0,0,0,2.9752,3.81L.7781,13.299c.01-.0254.0238-.0486.0342-.0737a4.1486,4.1486,0,0,0,3.8439,5.7278H15.3438A4.1409,4.1409,0,0,0,19.2,13.2647Zm-.426-.8111a4.1616,4.1616,0,0,0-.448-.5432A4.1616,4.1616,0,0,1,18.774,12.4536Zm.3489.6325a4.16,4.16,0,0,0-.2932-.54A4.136,4.136,0,0,1,19.1229,13.0861ZM3.8123,3.9985a2.7785,2.7785,0,0,1,2.72-2.1137h7.0892a2.7771,2.7771,0,0,1,2.73,2.1563l1.6559,7.5653c.0671.0561.1261.1208.1895.181a4.133,4.133,0,0,0-2.8533-1.1468H4.6562a4.1344,4.1344,0,0,0-2.863,1.1547c.0755-.072.148-.1472.2288-.2134ZM1.6879,11.8936a4.1846,4.1846,0,0,0-.4441.5383A4.1778,4.1778,0,0,1,1.6879,11.8936Zm-.526.6679a4.1392,4.1392,0,0,0-.2868.5282A4.1392,4.1392,0,0,1,1.1619,12.5615Zm14.1819,5.5527H4.6562a3.3174,3.3174,0,0,1,0-6.6347H15.3438a3.3174,3.3174,0,0,1,0,6.6347Z" fill="#252a3a" fill-rule="evenodd"/><path d="M12.9226,13.9056a.8913.8913,0,1,0,.8912.8914h0a.8912.8912,0,0,0-.8912-.8914Z" fill="#252a3a" fill-rule="evenodd"/><circle cx="15.9637" cy="14.7969" r="0.8913" fill="#252a3a"/><path d="M7.161,14.3768H4.0153a.4195.4195,0,0,0,0,.8389H7.161a.4195.4195,0,0,0,0-.8389Z" fill="#252a3a" fill-rule="evenodd"/></g></svg>