<?xml version="1.0" encoding="UTF-8"?><svg id="Icon" xmlns="http://www.w3.org/2000/svg" viewBox="0 0 20 20"><path id="Solid_Fill" d="M13.5421,16.3598v1.1585c0,1.1422-.926,2.0681-2.0682,2.0681H3.4783c-1.1422,0-2.0682-.926-2.0682-2.0682V5.7088c0-1.1422,.9259-2.0682,2.0682-2.0682h2.9797v-1.1584c0-1.1422,.9259-2.0682,2.0682-2.0682h5.6474l4.4165,4.3746-.0002,9.5031c0,1.1422-.9259,2.0681-2.0681,2.0681h-2.9797Z" fill="#001531" fill-rule="evenodd"/><path id="Opacity_Fill" d="M13.5421,16.3598v1.1585c0,1.1422-.926,2.0681-2.0682,2.0681H3.4783c-1.1422,0-2.0682-.926-2.0682-2.0682V5.7088c0-1.1422,.9259-2.0682,2.0682-2.0682h2.9797v-1.1584c0-1.1422,.9259-2.0682,2.0682-2.0682h5.6474l4.4165,4.3746-.0002,9.5031c0,1.1422-.9259,2.0681-2.0681,2.0681h-2.9797Z" fill="rgba(255,255,255,.9)" fill-rule="evenodd"/><path id="Outlines" d="M6.8722,2.4818c0-.9138,.7408-1.6545,1.6545-1.6545h5.2338l.0002,2.9269c0,.7995,.6482,1.4477,1.4477,1.4477h2.9686V14.2913c0,.9137-.7409,1.6545-1.6547,1.6545h-2.567v-7.931c.0001-.1104-.044-.2162-.1224-.2939L9.4164,3.3463c-.0775-.0767-.1821-.1198-.2911-.1198h-2.2531v-.7448Zm-.8273,.7448v-.7448c0-1.3707,1.1112-2.4818,2.4818-2.4818h5.6474c.1091,0,.2137,.043,.2911,.1198l4.4165,4.3746c.0785,.0777,.1226,.1835,.1226,.2939l-.0002,9.5031c0,1.3706-1.1111,2.4817-2.4818,2.4817h-2.567v.7448c0,1.3707-1.1112,2.4818-2.4818,2.4818H3.4779c-1.3707,0-2.4818-1.1111-2.4818-2.4818V5.7084c0-1.3707,1.1111-2.4818,2.4818-2.4818h2.567Zm-2.567,.8273c-.9138,0-1.6545,.7408-1.6545,1.6545v11.8094c0,.9138,.7408,1.6545,1.6545,1.6545h7.9956c.9137,0,1.6545-.7407,1.6545-1.6545l.0002-9.0894h-2.9687c-.7995,0-1.4477-.6481-1.4477-1.4476v-2.9269H3.4779Zm6.0611,.5783l2.9974,2.969h-2.3769c-.3426,0-.6204-.2778-.6204-.6204v-2.3486ZM3.2412,10.5712c0-.3284,.2662-.5946,.5946-.5946h6.6169c.3284,0,.5946,.2662,.5946,.5946s-.2662,.5946-.5946,.5946H3.8358c-.3284,0-.5946-.2663-.5946-.5946Zm.5946,2.2999c-.3284,0-.5946,.2662-.5946,.5946s.2662,.5946,.5946,.5946h6.6169c.3284,0,.5946-.2662,.5946-.5946s-.2662-.5946-.5946-.5946H3.8358Zm-.5946,3.4891c0-.3284,.2662-.5946,.5946-.5946h3.3091c.3284,0,.5946,.2662,.5946,.5946s-.2662,.5946-.5946,.5946H3.8358c-.3284,0-.5946-.2662-.5946-.5946Z" fill="#001531" fill-rule="evenodd"/></svg>