<?xml version="1.0" encoding="UTF-8"?><svg id="Layer_2" xmlns="http://www.w3.org/2000/svg" viewBox="0 0 20 20"><g id="Layer_1-2"><path d="M10.8874,.1685l8.0747,3.0815c.6269,.2392,1.0513,.8226,1.0376,1.4883-.0311,1.5053-.2306,4.3141-1.1922,6.8271-1.4176,3.7046-4.7333,7.4781-8.6695,8.4138-.128,.0304-.262,.0274-.3888-.0075-4.2816-1.1782-7.376-4.8867-8.6534-8.4063C.1925,9.0762,.0203,6.2443,.0001,4.732c-.0088-.6628,.4137-1.2426,1.0373-1.4822L9.0527,.1705c.59-.2267,1.2441-.2274,1.8347-.002Z" fill="#e8e7e9"/><path d="M10.7607,1.0212l7.8965,3.0135c.3182,.1214,.5001,.4004,.4942,.6863-.0304,1.4733-.2272,4.1679-1.1373,6.5461-1.2947,3.3837-4.222,6.732-7.5984,7.765l1.9502-7.9552c.1394-.569-.065-1.167-.5236-1.5315l-3.5229-2.7998c-.1856-.1475-.2421-.405-.1353-.6166L10.7607,1.0212Zm-1.0384-.1619c-.1233,.0182-.245,.05-.363,.0953L1.3441,4.0338c-.3166,.1216-.4994,.3996-.4956,.6871,.0198,1.4842,.1907,4.204,1.0457,6.5598,1.1503,3.1696,3.8471,6.452,7.5039,7.7025l1.9965-8.1444c.0465-.1897-.0216-.389-.1745-.5105l-3.5228-2.7998c-.5567-.4424-.7262-1.215-.406-1.8499L9.7223,.8593Zm1.1651-.6908l8.0747,3.0815c.6269,.2392,1.0513,.8226,1.0376,1.4883-.0311,1.5053-.2306,4.3141-1.1922,6.8271-1.4176,3.7046-4.7333,7.4781-8.6694,8.4138-.1281,.0304-.2621,.0274-.3889-.0075-4.2816-1.1782-7.376-4.8867-8.6534-8.4063C.1925,9.0762,.0203,6.2443,.0001,4.732c-.0088-.6628,.4137-1.2426,1.0373-1.4822L9.0527,.1705c.59-.2267,1.2441-.2274,1.8347-.002Z" fill="#180b25" fill-rule="evenodd"/></g></svg>