<?xml version="1.0" encoding="UTF-8"?><svg id="Layer_1" xmlns="http://www.w3.org/2000/svg" viewBox="0 0 20 20"><path d="M.5,4.0001C.5,2.6194,1.6193,1.5001,3,1.5001h4.688c.953,0,1.8494.4527,2.4148,1.2199l.5415.7345c.1885.2557.4872.4066.8049.4066h5.5508c1.3807,0,2.5,1.1193,2.5,2.5v9.6389c0,1.3807-1.1193,2.5-2.5,2.5H3c-1.3807,0-2.5-1.1193-2.5-2.5V4.0001Z" fill="#001531" stroke-width="0"/><path d="M.5,4.0001C.5,2.6194,1.6193,1.5001,3,1.5001h4.688c.953,0,1.8494.4527,2.4148,1.2199l.5415.7345c.1885.2557.4872.4066.8049.4066h5.5508c1.3807,0,2.5,1.1193,2.5,2.5v9.6389c0,1.3807-1.1193,2.5-2.5,2.5H3c-1.3807,0-2.5-1.1193-2.5-2.5V4.0001Z" fill="rgba(255,255,255,.9)" stroke-width="0"/><path d="M.5,4.0001C.5,2.6194,1.6193,1.5001,3,1.5001h4.688c.953,0,1.8494.4527,2.4148,1.2199l.5415.7345c.1885.2557.4872.4066.8049.4066h5.5508c1.3807,0,2.5,1.1193,2.5,2.5v9.6389c0,1.3807-1.1193,2.5-2.5,2.5H3c-1.3807,0-2.5-1.1193-2.5-2.5V4.0001Z" fill="none" stroke="#001531"/><path d="M14.9242,7.0186c-.5877-.1853-1.2336-.2647-1.853-.2647-1.0323,0-2.1441.2118-2.9117.7941-.7677-.5823-1.8794-.7941-2.9118-.7941s-2.1441.2118-2.9118.7941v7.7559c0,.1324.1323.2647.2647.2647.0265,0,.0463-.0066.0662-.0132.0198-.0066.0397-.0133.0662-.0133.7147-.3441,1.7471-.5823,2.5147-.5823,1.0324,0,2.1441.2118,2.9118.7941.7147-.45,2.0117-.7941,2.9117-.7941.8736,0,1.7736.1588,2.5147.5559.053.0264.0794.0264.1324.0264.1323,0,.2647-.1323.2647-.2647v-7.7294c-.3176-.2382-.6618-.3971-1.0588-.5294ZM14.9242,14.1657c-.5824-.1853-1.2177-.2647-1.853-.2647-.9,0-2.197.3441-2.9117.7941v-6.0883c.7147-.45,2.0117-.7941,2.9117-.7941.6353,0,1.2706.0794,1.853.2647v6.0883Z" fill="#001531" fill-rule="evenodd" stroke-width="0"/></svg>