<?xml version="1.0" encoding="UTF-8"?><svg id="Icon" xmlns="http://www.w3.org/2000/svg" viewBox="0 0 20 20"><path id="Solid_Fill" d="M.4707,5.0682h3.5545V15.3169h-.0007l.0115,2.0295c.0328,.455,.2343,.8806,.5641,1.1912s.7633,.4833,1.2135,.4833c.1112,0,.2214-.0106,.3292-.0311-.1094,.0216-.2213,.0328-.3343,.0333h11.9408c.4722-.0019,.9244-.1928,1.2583-.5311,.3338-.3383,.5222-.7966,.5241-1.275v-1.8589H7.5908l-.0953-.0011H15.9755V2.7864c-.0019-.4784-.1903-.9367-.5242-1.275-.3338-.3383-.7861-.5292-1.2582-.5311l-11.8596-.0008c-.0283-.0014-.0567-.0021-.0852-.0021-.4502,0-.8838,.1727-1.2135,.4833-.3298,.3106-.5313,.7362-.5641,1.1912v2.4162Z" fill="#001531" fill-rule="evenodd"/><path id="Opacity_Fill" d="M.4707,5.0682h3.5545V15.3169h-.0007l.0115,2.0295c.0328,.455,.2343,.8806,.5641,1.1912s.7633,.4833,1.2135,.4833c.1112,0,.2214-.0106,.3292-.0311-.1094,.0216-.2213,.0328-.3343,.0333h11.9408c.4722-.0019,.9244-.1928,1.2583-.5311,.3338-.3383,.5222-.7966,.5241-1.275v-1.8589H7.5908l-.0953-.0011H15.9755V2.7864c-.0019-.4784-.1903-.9367-.5242-1.275-.3338-.3383-.7861-.5292-1.2582-.5311l-11.8596-.0008c-.0283-.0014-.0567-.0021-.0852-.0021-.4502,0-.8838,.1727-1.2135,.4833-.3298,.3106-.5313,.7362-.5641,1.1912v2.4162Z" fill="rgba(255,255,255,.9)" fill-rule="evenodd"/><path id="Outline" d="M14.1716,.5c1.3895,0,2.2691,1.1279,2.2691,2.3533V14.8701h2.9875c.3163,0,.5718,.2601,.5718,.5796v1.7652c-.0134,.4785-.1385,.9445-.4168,1.3401-.2803,.3986-.6938,.6936-1.2278,.8631-.2077,.0659-.4092,.082-.5891,.0819-.6461-.0003-1.9352-.0017-3.4747-.0033-2.7735-.003-6.36-.0068-8.4645-.0068-.8804,0-1.4608-.4271-1.8065-.8968-.1686-.2292-.281-.4667-.3519-.6684-.067-.1908-.1088-.3842-.1088-.529V5.5432H.5718c-.3158,0-.5718-.2594-.5718-.5795V2.6944C0,1.5678,1.0063,.5007,2.258,.5007l11.9137-.0007ZM4.0695,1.4488l10.1021-.0006c.8019,0,1.3333,.6286,1.3333,1.4051V14.8701H7.6971c-.3158,0-.5718,.2595-.5718,.5795v1.9248s0-.0002,0,0c0,.0009-.0002,.0073-.0015,.0196-.0015,.0138-.004,.0321-.0082,.0547-.0084,.0453-.0223,.1027-.0433,.1677-.0425,.1309-.1103,.2807-.2095,.4199-.1887,.2649-.4968,.5054-1.0355,.5054-.5377,0-.8569-.2444-1.0563-.5154-.1039-.1412-.1755-.2915-.2204-.4195-.0416-.1184-.052-.193-.0542-.2084-.0004-.0027-.0005-.0036-.0005-.0027V2.6944c0-.4366-.1568-.876-.4262-1.2456Zm3.5858,17.0935c2.0256,.0013,4.5603,.004,6.6381,.0062,1.5395,.0016,2.8282,.003,3.4734,.0033,.1262,.0001,.2244-.0118,.309-.0386,.3641-.1155,.5976-.2984,.7454-.5085,.1489-.2117,.2329-.4831,.2431-.8102v-1.3762H8.061v1.5561c0,.2519-.1114,.7318-.4057,1.1679ZM2.258,1.4489c-.7467,0-1.3222,.6546-1.3222,1.2455v1.9006H3.56v-1.9006c0-.576-.5667-1.2455-1.302-1.2455Z" fill="#001531" fill-rule="evenodd"/></svg>