<?xml version="1.0" encoding="UTF-8"?><svg id="Layer_1" xmlns="http://www.w3.org/2000/svg" viewBox="0 0 20 20"><path d="M9.5.5c4.9522,0,8.9702,1.4161,8.9998,3.167l.0002.0195v6.0013c.9352,1.0925,1.5,2.5114,1.5,4.0622,0,3.4518-2.7982,6.25-6.25,6.25-.9081,0-1.7711-.1937-2.5497-.542-.5277.0268-1.0936.0412-1.7003.0412C.5,19.4992.5,16.3318.5,16.3318V3.667c.0296-1.7509,4.0478-3.167,9-3.167Z" fill="#001531" stroke-width="0"/><path d="M9.5.5c4.9522,0,8.9702,1.4161,8.9998,3.167l.0002.0195v6.0013c.9352,1.0925,1.5,2.5114,1.5,4.0622,0,3.4518-2.7982,6.25-6.25,6.25-.9081,0-1.7711-.1937-2.5497-.542-.5277.0268-1.0936.0412-1.7003.0412C.5,19.4992.5,16.3318.5,16.3318V3.667c.0296-1.7509,4.0478-3.167,9-3.167Z" fill="rgba(255,255,255,.9)" stroke-width="0"/><path d="M.5,9.6994v6.533s0,3.2676,9,3.2676,9-3.2676,9-3.2676v-6.533M.5,4.0254v6.1904s0,3.0951,9,3.0951,9-3.0951,9-3.0951v-6.1904M18.5,3.75c0,1.7949-4.0294,3.25-9,3.25S.5,5.5449.5,3.75,4.5294.5,9.5.5s9,1.4551,9,3.25Z" fill="none" stroke="#001531" stroke-linecap="round" stroke-linejoin="round"/><path d="M20,13.75c0,3.4518-2.7982,6.25-6.25,6.25s-6.25-2.7982-6.25-6.25,2.7982-6.25,6.25-6.25,6.25,2.7982,6.25,6.25Z" fill="#001531" stroke-width="0"/><path d="M20,13.75c0,3.4518-2.7982,6.25-6.25,6.25s-6.25-2.7982-6.25-6.25,2.7982-6.25,6.25-6.25,6.25,2.7982,6.25,6.25Z" fill="rgba(255,255,255,.9)" stroke-width="0"/><path d="M17.9997,10.8388c.2906.285.2906.7472,0,1.0323l-4.8828,4.7901c-.2906.2851-.7617.2851-1.0522,0l-2.5577-2.5091c-.2906-.2851-.2906-.7472,0-1.0323.2906-.285.7617-.285,1.0522,0l2.0316,1.993,4.3567-4.274c.2905-.2851.7616-.2851,1.0522,0Z" fill="#001531" fill-rule="evenodd" stroke-width="0"/></svg>