<?xml version="1.0" encoding="UTF-8"?><svg id="Layer_1" xmlns="http://www.w3.org/2000/svg" viewBox="0 0 20 20"><path d="M17.6.5H2.4C1.3506.5.5,1.3954.5,2.5v4c0,1.1046.8506,2,1.9,2h15.2c1.0493,0,1.9-.8954,1.9-2V2.5c0-1.1046-.8507-2-1.9-2Z" fill="#001531" stroke-width="0"/><path d="M17.6,11.5H2.4c-1.0494,0-1.9.8954-1.9,2v4c0,1.1046.8506,2,1.9,2h15.2c1.0493,0,1.9-.8954,1.9-2v-4c0-1.1046-.8507-2-1.9-2Z" fill="#001531" stroke-width="0"/><path d="M17.6.5H2.4C1.3506.5.5,1.3954.5,2.5v4c0,1.1046.8506,2,1.9,2h15.2c1.0493,0,1.9-.8954,1.9-2V2.5c0-1.1046-.8507-2-1.9-2Z" fill="rgba(255,255,255,.9)" stroke-width="0"/><path d="M17.6,11.5H2.4c-1.0494,0-1.9.8954-1.9,2v4c0,1.1046.8506,2,1.9,2h15.2c1.0493,0,1.9-.8954,1.9-2v-4c0-1.1046-.8507-2-1.9-2Z" fill="rgba(255,255,255,.9)" stroke-width="0"/><path d="M17.6.5H2.4C1.3506.5.5,1.3954.5,2.5v4c0,1.1046.8506,2,1.9,2h15.2c1.0493,0,1.9-.8954,1.9-2V2.5c0-1.1046-.8507-2-1.9-2Z" fill="none" stroke="#001531" stroke-linecap="round" stroke-linejoin="round"/><path d="M17.6,11.5H2.4c-1.0494,0-1.9.8954-1.9,2v4c0,1.1046.8506,2,1.9,2h15.2c1.0493,0,1.9-.8954,1.9-2v-4c0-1.1046-.8507-2-1.9-2Z" fill="none" stroke="#001531" stroke-linecap="round" stroke-linejoin="round"/><circle cx="4.5" cy="4.5" r="1" fill="#001531" stroke-width="0"/><circle cx="4.5" cy="15.5" r="1" fill="#001531" stroke-width="0"/></svg>