<?xml version="1.0" encoding="UTF-8"?><svg id="Layer_1" xmlns="http://www.w3.org/2000/svg" viewBox="0 0 20 20"><path d="M19,6.5005v9c0,2.2091-1.7909,4-4,4H5c-2.2091,0-4-1.7909-4-4V6.5005c0-2.2091,1.7909-4,4-4h2.9951v-1.0005c0-.5523.4477-1,1-1h2.0137c.5558,0,1.0049.4531,1,1.0089l-.0088.9916h3c2.2091,0,4,1.7909,4,4Z" fill="#001531" stroke-width="0"/><path d="M19,6.5005v9c0,2.2091-1.7909,4-4,4H5c-2.2091,0-4-1.7909-4-4V6.5005c0-2.2091,1.7909-4,4-4h2.9951v-1.0005c0-.5523.4477-1,1-1h2.0137c.5558,0,1.0049.4531,1,1.0089l-.0088.9916h3c2.2091,0,4,1.7909,4,4Z" fill="rgba(255,255,255,.9)" stroke-width="0"/><path d="M7.9951,2.5005h-2.9951c-2.2091,0-4,1.7909-4,4v9c0,2.2091,1.7909,4,4,4h10c2.2091,0,4-1.7909,4-4V6.5005c0-2.2091-1.7909-4-4-4h-3M7.9951,2.5005v-1.0005c0-.5523.4477-1,1-1h2.0137c.5558,0,1.0049.4531,1,1.0089l-.0088.9916M7.9951,2.5005v.9995c0,.5523.4477,1,1,1h2.0049c.5523,0,1-.4477,1-1v-.9995" fill="none" stroke="#001531"/><path d="M6.4162,16.25c-.0614-.3584-.036-.7297-.036-1.0918,0-1.3642,1.09-2.4702,2.4346-2.4702h2.3706c1.3445,0,2.4345,1.106,2.4345,2.4702,0,.3621.0253.7334-.036,1.0918M12.5746,9.8898c0,1.4579-1.1648,2.6397-2.6016,2.6397s-2.6016-1.1818-2.6016-2.6397,1.1648-2.6398,2.6016-2.6398,2.6016,1.1819,2.6016,2.6398Z" fill="none" stroke="#001531" stroke-linecap="round" stroke-linejoin="round"/></svg>