<?xml version="1.0" encoding="UTF-8"?><svg id="Layer_1" xmlns="http://www.w3.org/2000/svg" viewBox="0 0 20 20"><path d="M1.625,5.4435v9.683l8.6988,4.748.9329-.6667,7.1183-4.1241V5.6079l-.5463-.7484-6.8622-3.8383c-.625-.3496-1.3892-.3383-2.0036.0295L1.625,5.4435Z" fill="#001531" stroke-width="0"/><path d="M1.625,5.4435v9.683l8.6988,4.748.9329-.6667,7.1183-4.1241V5.6079l-.5463-.7484-6.8622-3.8383c-.625-.3496-1.3892-.3383-2.0036.0295L1.625,5.4435Z" fill="rgba(255,255,255,.9)" stroke-width="0"/><path d="M10.228,1.0674c-.1575-.0918-.3521-.0897-.5076.0054L2.2402,5.6465c-.1485.0908-.2402.2537-.2402.4303l.0028,8.655c0,.1874.1014.3562.2621.4431,1.0494.5669,3.4553,1.8688,5.1615,2.8078.2419.1331.3301.4371.197.6791-.1331.2419-.4372.3301-.6791.197-1.7024-.9369-4.1052-2.2371-5.1548-2.8041-.4868-.2631-.7866-.7713-.7868-1.3226l-.0028-8.6549c-.0002-.5236.2715-1.0105.7185-1.2838L9.1987.2197c.4692-.2869,1.0574-.2932,1.5326-.0163l6.9516,4.0499c1.0118.5895.9898,2.0629-.0395,2.6216l-7.177,3.8951v7.7256c0,.3895.4157.6259.7447.4374l6.5366-3.7463c.1553-.089.2523-.2557.2523-.4374v-5.998c0-.2761.2239-.5.5-.5s.5.2239.5.5v5.998c0,.5386-.2875,1.037-.7551,1.305l-6.5366,3.7463c-1.0023.5745-2.2419-.1548-2.2419-1.305v-7.7426l-1.6634-1.0163c-1.0832-.6618-2.4299-1.4845-3.4843-2.1284-.2357-.1439-.31-.4517-.1661-.6873.1439-.2357.4516-.31.6873-.1661,1.0545.644,2.4013,1.4667,3.4844,2.1285l1.6569,1.0123,7.1851-3.8996c.3438-.1866.3514-.6815.0132-.8786L10.228,1.0674Z" fill="#001531" fill-rule="evenodd" stroke-width="0"/></svg>