<svg id="Icon" xmlns="http://www.w3.org/2000/svg" viewBox="0 0 20 20"><path id="Bg_Fill" data-name="Bg Fill" d="M20,10a10,10,0,1,1-2.9289-7.0711A10,10,0,0,1,20,10Z" fill="#252a3a"/><path id="Bg_Fill-2" data-name="Bg Fill" d="M20,10a10,10,0,1,1-2.9289-7.0711A10,10,0,0,1,20,10Z" fill="#fff" fill-opacity="0.9"/><path id="White_Fill" data-name="White Fill" d="M2,15.6836V12.273L4.6975,8.4822a.75.75,0,0,1,.6111-.3152h9.447a.75.75,0,0,1,.616.3221L18,12.273v3.44a9.3065,9.3065,0,0,1-3.368,3.0046c-1.46.7051-1.6907.9063-4.6235,1.1791a9.7713,9.7713,0,0,1-4.6044-1.176C3.7733,17.9972,2,16.0978,2,15.6836Z" fill="#fff"/><path id="Black_Fill" data-name="Black Fill" d="M14.8731,9.0073l1.8619,2.6288H3.2656L5.1277,9.0073a.735.735,0,0,1,.5995-.31h8.5459a.735.735,0,0,1,.6.31Zm-1.2709,3.2652H17.75a.25.25,0,0,1,.25.25v3.076c0,.5878-2.4055,3.03-5.0226,3.8425a9.1153,9.1153,0,0,1-2.9679.4541,8.365,8.365,0,0,1-3.1234-.5485C4.1741,18.6914,2,15.9789,2,15.5647V12.5225a.25.25,0,0,1,.25-.25H6.3978a.75.75,0,0,1,.75.75v.471a.75.75,0,0,0,.75.75h4.2044a.75.75,0,0,0,.75-.75v-.471a.75.75,0,0,1,.75-.75Z" fill="#252a3a" fill-rule="evenodd"/><path id="Grey_2_Fill" data-name="Grey 2 Fill" d="M2,15.5647V12.5225a.25.25,0,0,1,.25-.25H6.3978a.75.75,0,0,1,.75.75v.471a.75.75,0,0,0,.75.75h4.2044a.75.75,0,0,0,.75-.75v-.471a.75.75,0,0,1,.75-.75H17.75a.25.25,0,0,1,.25.25v3.076c0,.5878-2.4055,3.03-5.0226,3.8425a9.1153,9.1153,0,0,1-2.9679.4541,8.361,8.361,0,0,1-3.1234-.5485C4.1741,18.6914,2,15.9789,2,15.5647Z" fill="#fff" fill-opacity="0.8"/><path id="White_Fill-2" data-name="White Fill" d="M11.031,16.5424H8.9686a.3139.3139,0,0,1-.0592-.625.3081.3081,0,0,1,.0592,0H11.031a.3139.3139,0,0,1,.0592.625.3081.3081,0,0,1-.0592,0Z" fill="#fff"/><path id="Gray_1_Fill" data-name="Gray 1 Fill" d="M5.0259,8.9835a.75.75,0,0,1,.612-.3165h8.7243a.75.75,0,0,1,.6121.3165L16.875,11.667H3.125Z" fill="#fff" fill-opacity="0.9"/><path id="Outlines" d="M10,19.75a9.7361,9.7361,0,0,0,7.875-4V12.5225a.1251.1251,0,0,0-.113-.1245h-4.16a.6251.6251,0,0,0-.625.625v.471a.8751.8751,0,0,1-.875.875H7.8978a.8751.8751,0,0,1-.875-.875v-.471a.6251.6251,0,0,0-.625-.625H2.238a.1251.1251,0,0,0-.113.1245V15.75a9.7361,9.7361,0,0,0,7.875,4Zm8.125-7.2029v2.8443a9.75,9.75,0,1,0-16.25,0V12.5225a.3718.3718,0,0,1,.0031-.0483,1,1,0,0,1,.1821-.5014L4.5956,8.41a.8749.8749,0,0,1,.713-.3677h9.447a.8747.8747,0,0,1,.7186.3758l2.4721,3.5588a1,1,0,0,1,.1766.5063.3814.3814,0,0,1,.0021.04ZM10,20a10,10,0,1,0-7.0711-2.9289A10,10,0,0,0,10,20ZM4.7993,8.5546a.6251.6251,0,0,1,.5093-.2626h9.447a.6254.6254,0,0,1,.5133.2684l2.4918,3.5872H13.6022a.8748.8748,0,0,0-.875.8748v.4712a.6251.6251,0,0,1-.625.625H7.8978a.6251.6251,0,0,1-.625-.625v-.471a.8748.8748,0,0,0-.8748-.875H2.2427ZM8.5514,16.641a.6118.6118,0,0,0,.4174.151h2.0624a.6118.6118,0,0,0,.4174-.151.5683.5683,0,0,0,.02-.8035l-.02-.02a.6124.6124,0,0,0-.4174-.1509H8.9688a.6124.6124,0,0,0-.4174.1509.5683.5683,0,0,0-.02.8035Zm2.48-.099H8.9688a.3139.3139,0,0,1-.0592-.625.3081.3081,0,0,1,.0592,0h2.0624a.3139.3139,0,0,1,.0592.625.3081.3081,0,0,1-.0592,0Z" fill="#252a3a" fill-rule="evenodd"/></svg>