<?xml version="1.0" encoding="UTF-8"?><svg id="Icon" xmlns="http://www.w3.org/2000/svg" viewBox="0 0 20 20"><path id="Solid_Fill" d="M.4707,5.0682h3.5545V15.3169h-.0007l.0115,2.0295c.0328,.455,.2343,.8806,.5641,1.1912s.7633,.4833,1.2135,.4833c.1112,0,.2214-.0106,.3292-.0311-.1094,.0216-.2213,.0328-.3343,.0333h11.9408c.4722-.0019,.9244-.1928,1.2583-.5311,.3338-.3383,.5222-.7966,.5241-1.275v-1.8589H7.5908l-.0953-.0011H15.9755V2.7864c-.0019-.4784-.1903-.9367-.5241-1.275-.3339-.3383-.7862-.5292-1.2583-.5311l-11.8596-.0008c-.0283-.0014-.0567-.0021-.0852-.0021-.4502,0-.8838,.1727-1.2135,.4833-.3298,.3106-.5313,.7362-.5641,1.1912v2.4162Z" fill="#001531" fill-rule="evenodd"/><path id="Opacity_Fill" d="M.4707,5.0682h3.5545V15.3169h-.0007l.0115,2.0295c.0328,.455,.2343,.8806,.5641,1.1912s.7633,.4833,1.2135,.4833c.1112,0,.2214-.0106,.3292-.0311-.1094,.0216-.2213,.0328-.3343,.0333h11.9408c.4722-.0019,.9244-.1928,1.2583-.5311,.3338-.3383,.5222-.7966,.5241-1.275v-1.8589H7.5908l-.0953-.0011H15.9755V2.7864c-.0019-.4784-.1903-.9367-.5241-1.275-.3339-.3383-.7862-.5292-1.2583-.5311l-11.8596-.0008c-.0283-.0014-.0567-.0021-.0852-.0021-.4502,0-.8838,.1727-1.2135,.4833-.3298,.3106-.5313,.7362-.5641,1.1912v2.4162Z" fill="rgba(255,255,255,.9)" fill-rule="evenodd"/><g id="Outline"><path d="M7.1197,8.1226h4.2232c.424,0,.7677-.2798,.7677-.625s-.3437-.625-.7677-.625H7.1197c-.424,0-.7677,.2798-.7677,.625s.3437,.625,.7677,.625Z" fill="#001531" fill-rule="evenodd"/><path d="M13.6497,11.0295c0-.3434-.3437-.6217-.7677-.6217l-5.7565,.0064c-.424,0-.7677,.2784-.7677,.6218s.3437,.6218,.7677,.6218l5.7565-.0065c.424,0,.7677-.2784,.7677-.6218Z" fill="#001531" fill-rule="evenodd"/><path d="M19.4282,14.8701h-2.9875V2.8533c0-1.2254-.8796-2.3533-2.269-2.3533l-11.9137,.0007C1.0063,.5007,0,1.5678,0,2.6944v2.2694c0,.32,.256,.5794,.5718,.5794H3.56v11.8525c0,.1448,.0417,.3381,.1088,.529,.0709,.2017,.1832,.4392,.3519,.6684,.3457,.4697,.9261,.8969,1.8065,.8969,2.101,0,5.6793,.0038,8.4509,.0068h.0327c1.531,.0016,2.8121,.003,3.4555,.0033,.1799,.0001,.3814-.016,.5891-.0819,.534-.1695,.9475-.4645,1.2278-.8631,.2783-.3956,.4034-.8616,.4168-1.3401v-1.7652c0-.3195-.2555-.5796-.5718-.5796ZM3.56,4.595H.9357v-1.9006c0-.5909,.5755-1.2455,1.3222-1.2455,.7353,0,1.3021,.6694,1.3021,1.2455v1.9006Zm3.5652,10.8546v1.9248c0,.0009-.0002,.0073-.0015,.0196-.0015,.0138-.0041,.0321-.0082,.0547-.0084,.0453-.0223,.1027-.0433,.1677-.0425,.1309-.1103,.2807-.2095,.4199-.1888,.2649-.4968,.5054-1.0355,.5054-.5377,0-.8569-.2444-1.0564-.5154-.1039-.1412-.1754-.2915-.2204-.4195-.0416-.1184-.0519-.193-.0541-.2084-.0002-.0013-.0004-.0022-.0005-.0027V2.6944c0-.4366-.1569-.876-.4262-1.2455l10.1021-.0007c.8019,0,1.3333,.6286,1.3333,1.4051V14.8701H7.6971c-.3159,0-.5718,.2595-.5718,.5795Zm11.9391,1.7449c-.0103,.3271-.0942,.5984-.2431,.8102-.1478,.2101-.3813,.393-.7454,.5085-.0846,.0268-.1828,.0386-.309,.0386-.642-.0003-1.9212-.0017-3.4505-.0033h-.0436c-2.0739-.0023-4.5985-.0049-6.6174-.0062,.2944-.4361,.4057-.916,.4057-1.1679v-1.5561h11.0034v1.3762Z" fill="#001531" fill-rule="evenodd"/></g></svg>