<svg width="20" height="20" viewBox="0 0 20 20" fill="none" xmlns="http://www.w3.org/2000/svg">
<g clip-path="url(#clip0_9266_239074)">
<path d="M10.8808 5.77779C10.8808 7.74609 9.30987 9.34171 7.372 9.34171C5.43413 9.34171 3.86317 7.74609 3.86317 5.77779C3.86317 3.80949 5.43413 2.21387 7.372 2.21387C9.30987 2.21387 10.8808 3.80949 10.8808 5.77779Z" fill="#E8E7E9"/>
<path d="M14.3002 15.3665L14.3003 18.0173H0.475643L0.475586 15.3665C0.475586 14.4213 0.845265 13.5148 1.5033 12.8465C2.16133 12.1781 3.05381 11.8026 3.98441 11.8026H10.7914C11.722 11.8026 12.6145 12.1781 13.2725 12.8465C13.9306 13.5148 14.3002 14.4213 14.3002 15.3665Z" fill="#E8E7E9"/>
<path d="M13.3879 2.32454C14.1427 2.52083 15.0587 2.96503 15.5364 3.59015C16.0141 4.21527 16.2734 4.9841 16.2734 5.77545C16.2734 6.56679 16.0141 7.33562 15.5364 7.96074C15.0587 8.58587 14.1427 9.03336 13.3879 9.22964V2.32454Z" fill="#E8E7E9"/>
<path d="M19.3507 18.0159H16.7191V11.6008L19.3507 13.7392V18.0159Z" fill="#E8E7E9"/>
<path fill-rule="evenodd" clip-rule="evenodd" d="M7.36814 1.49902C5.0427 1.49902 3.15755 3.40172 3.15755 5.74881C3.15755 8.0959 5.0427 9.99859 7.36814 9.99859C9.69359 9.99859 11.5787 8.0959 11.5787 5.74881C11.5787 3.40172 9.69359 1.49902 7.36814 1.49902ZM4.15919 5.74881C4.15919 3.96005 5.59589 2.50998 7.36814 2.50998C9.1404 2.50998 10.5771 3.96005 10.5771 5.74881C10.5771 7.53756 9.1404 8.98763 7.36814 8.98763C5.59589 8.98763 4.15919 7.53756 4.15919 5.74881Z" fill="#180B25"/>
<path d="M3.91723 11.2649C2.87831 11.2649 1.88195 11.691 1.14733 12.4496C0.412707 13.2082 0 14.2371 0 15.3099V18.0183C0 18.284 0.208602 18.4994 0.465926 18.4994C0.72325 18.4994 0.931852 18.284 0.931852 18.0183V15.3099C0.931852 14.4923 1.24638 13.7082 1.80625 13.1301C2.36612 12.5519 3.12546 12.2271 3.91723 12.2271H10.8198C11.6116 12.2271 12.3709 12.5519 12.9308 13.1301C13.4907 13.7082 13.8052 14.4923 13.8052 15.3099V18.0183C13.8052 18.284 14.0138 18.4994 14.2711 18.4994C14.5285 18.4994 14.7371 18.284 14.7371 18.0183V15.3099C14.7371 14.2371 14.3244 13.2082 13.5897 12.4496C12.8551 11.691 11.8587 11.2649 10.8198 11.2649H3.91723Z" fill="#180B25"/>
<path d="M13.1738 1.89C13.2443 1.61191 13.5249 1.44419 13.8004 1.51539C14.7317 1.75607 15.5572 2.30275 16.1467 3.06926C16.7362 3.83576 17.0561 4.77848 17.0561 5.74881C17.0561 6.71913 16.7362 7.66185 16.1467 8.42835C15.5572 9.19486 14.7317 9.74154 13.8004 9.98222C13.5249 10.0534 13.2443 9.8857 13.1738 9.60761C13.1032 9.32952 13.2694 9.04636 13.5449 8.97515C14.2547 8.79173 14.8838 8.37509 15.3331 7.79093C15.7823 7.20676 16.0262 6.4883 16.0262 5.74881C16.0262 5.00931 15.7823 4.29085 15.3331 3.70668C14.8838 3.12252 14.2547 2.70588 13.5449 2.52246C13.2694 2.45126 13.1032 2.16809 13.1738 1.89Z" fill="#180B25"/>
<path d="M17.0115 11.2529C16.7582 11.1865 16.4998 11.3412 16.4344 11.5985C16.369 11.8558 16.5213 12.1182 16.7747 12.1846C17.4258 12.3554 18.0027 12.741 18.4147 13.2808C18.8266 13.8205 19.0504 14.4843 19.051 15.1672V18.018C19.051 18.2837 19.2631 18.4991 19.5247 18.4991C19.7863 18.4991 19.9984 18.2837 19.9984 18.018V15.1665C19.9977 14.2702 19.704 13.3996 19.1634 12.6912C18.6228 11.9829 17.8659 11.477 17.0115 11.2529Z" fill="#180B25"/>
</g>
<defs>
<clipPath id="clip0_9266_239074">
<rect width="20" height="20" fill="white"/>
</clipPath>
</defs>
</svg>
