<svg width="20" height="20" viewBox="0 0 20 20" fill="none" xmlns="http://www.w3.org/2000/svg">
<g clip-path="url(#clip0_9294_237102)">
<path d="M12.0803 5.08263C11.9069 5.25945 11.8099 5.49718 11.8099 5.74478C11.8099 5.99237 11.9069 6.2301 12.0803 6.40692L13.5937 7.9204C13.7706 8.09372 14.0083 8.1908 14.2559 8.1908C14.5035 8.1908 14.7412 8.09372 14.918 7.9204L18.4842 4.35427C18.9598 5.40537 19.1038 6.57646 18.897 7.71149C18.6902 8.84651 18.1424 9.89156 17.3266 10.7074C16.5108 11.5231 15.4658 12.0709 14.3308 12.2778C13.1957 12.4846 12.0246 12.3405 10.9735 11.8649L4.43721 18.4012C4.0609 18.7775 3.55051 18.9889 3.01832 18.9889C2.48614 18.9889 1.97575 18.7775 1.59944 18.4012C1.22313 18.0249 1.01172 17.5145 1.01172 16.9823C1.01172 16.4502 1.22313 15.9398 1.59944 15.5635L8.13577 9.02713C7.66012 7.97603 7.51611 6.80494 7.72291 5.66991C7.92971 4.53489 8.47752 3.48984 9.29331 2.67405C10.1091 1.85825 11.1542 1.31045 12.2892 1.10365C13.4242 0.896844 14.5953 1.04086 15.6464 1.5165L12.0803 5.08263Z" fill="#E8E7E9" stroke="#180B25" stroke-width="0.9" stroke-linecap="round" stroke-linejoin="round"/>
</g>
<defs>
<clipPath id="clip0_9294_237102">
<rect width="20" height="20" fill="white"/>
</clipPath>
</defs>
</svg>
