<?xml version="1.0" encoding="UTF-8"?><svg id="Layer_1" xmlns="http://www.w3.org/2000/svg" viewBox="0 0 20 20"><path d="M2,3.3531c0-1.5754,1.2641-2.8524,2.8235-2.8524h7.4315c.3306-.0108.6501.1212.8785.3629l2.1731,2.2997,2.3323,2.4565c.2317.244.3611.5691.3611.9072v10.1207c0,1.5753-1.2641,2.8524-2.8235,2.8524H4.8235c-1.5594,0-2.8235-1.2771-2.8235-2.8524V3.3531Z" fill="#001531" stroke-width="0"/><path d="M2,3.3531c0-1.5754,1.2641-2.8524,2.8235-2.8524h7.4315c.3306-.0108.6501.1212.8785.3629l2.1731,2.2997,2.3323,2.4565c.2317.244.3611.5691.3611.9072v10.1207c0,1.5753-1.2641,2.8524-2.8235,2.8524H4.8235c-1.5594,0-2.8235-1.2771-2.8235-2.8524V3.3531Z" fill="rgba(255,255,255,.9)" stroke-width="0"/><path d="M12.255.5006h-7.755c-1.3807,0-2.5,1.1202-2.5,2.5021v13.9951c0,1.3818,1.1193,2.5021,2.5,2.5021h11c1.3807,0,2.5-1.1203,2.5-2.5021V6.5269M12.255.5006v4.0246c0,1.1055.8954,2.0017,2,2.0017h3.745M12.255.5006c.3304-.0108.6496.1207.8768.3611l2.1748,2.3015,2.3307,2.4548c.2329.2452.3627.5706.3627.9089" fill="none" stroke="#001531"/><path d="M7.437,15.75l.839-7M10.7474,15.75l.839-7M13,10.5262h-6.7122M12.7123,13.9734h-6.7123" fill="none" stroke="#001531" stroke-linecap="round" stroke-linejoin="round"/></svg>