<?xml version="1.0" encoding="UTF-8"?><svg id="Layer_1" xmlns="http://www.w3.org/2000/svg" viewBox="0 0 20 20"><path d="M.5,3.35C.5,1.776,1.776.5,3.35.5h13.3c1.574,0,2.85,1.276,2.85,2.85v13.3c0,1.574-1.276,2.85-2.85,2.85H3.35c-1.574,0-2.85-1.276-2.85-2.85V3.35Z" fill="#001531" stroke-width="0"/><path d="M.5,3.35C.5,1.776,1.776.5,3.35.5h13.3c1.574,0,2.85,1.276,2.85,2.85v13.3c0,1.574-1.276,2.85-2.85,2.85H3.35c-1.574,0-2.85-1.276-2.85-2.85V3.35Z" fill="rgba(255,255,255,.9)" stroke-width="0"/><path d="M0,3C0,1.3431,1.3432,0,3,0h14c1.6569,0,3,1.3432,3,3v14c0,1.6569-1.3431,3-3,3H3c-1.6568,0-3-1.3431-3-3V3ZM3,1c-1.1046,0-2,.8954-2,2v6.9737l7.0504-.0179c1.1097-.0028,2.0096.8984,2.0051,2.0081l-.0285,7.0361h6.973c1.1046,0,2-.8954,2-2V3c0-1.1046-.8954-2-2-2H3ZM9.027,19l.0285-7.0402c.0022-.5548-.4477-1.0054-1.0025-1.004l-7.0529.0179v6.0263c0,1.1046.8954,2,2,2h6.027Z" fill="#001531" fill-rule="evenodd" stroke-width="0"/></svg>