<?xml version="1.0" encoding="UTF-8"?><svg id="Layer_1" xmlns="http://www.w3.org/2000/svg" viewBox="0 0 20 20"><path d="M8.9324,1.9548c.0953-.2731.534-.2731.6294,0,1.304,3.7356,4.2449,6.6765,7.9804,7.9805.2731.0954.2731.534,0,.6294-3.7355,1.304-6.6764,4.2449-7.9804,7.9805-.0953.2731-.534.2731-.6294,0-1.304-3.7356-4.2449-6.6765-7.9805-7.9805-.2731-.0954-.2731-.534,0-.6294,3.7356-1.304,6.6765-4.2449,7.9805-7.9805Z" fill="#001531" stroke-width="0"/><path d="M8.9324,1.9548c.0953-.2731.534-.2731.6294,0,1.304,3.7356,4.2449,6.6765,7.9804,7.9805.2731.0954.2731.534,0,.6294-3.7355,1.304-6.6764,4.2449-7.9804,7.9805-.0953.2731-.534.2731-.6294,0-1.304-3.7356-4.2449-6.6765-7.9805-7.9805-.2731-.0954-.2731-.534,0-.6294,3.7356-1.304,6.6765-4.2449,7.9805-7.9805Z" fill="rgba(255,255,255,.9)" stroke-width="0"/><path d="M9.2471,18.602c-1.4621-3.8471-4.5049-6.8899-8.352-8.352,3.8471-1.4621,6.8899-4.5049,8.352-8.352,1.4621,3.8471,4.5049,6.8899,8.352,8.352-3.8471,1.4621-6.8899,4.5049-8.352,8.352Z" fill="none" stroke="#001531" stroke-linecap="round" stroke-linejoin="round"/><path d="M20,3.5c-1.4158,0-3-1.6221-3-3,0,1.3779-1.5705,3-3,3,1.375,0,3,1.5962,3,3,0-1.3947,1.5297-3,3-3Z" fill="#001531" stroke-width="0"/></svg>