<svg id="Icon" xmlns="http://www.w3.org/2000/svg" viewBox="0 0 20 20"><path id="Black_FIll" data-name="Black FIll" d="M7.3421,14.3628A7.0115,7.0115,0,1,0,.34,7.3513,7.0068,7.0068,0,0,0,7.3421,14.3628Zm5.4764-.3515-1.1408-1.1422L12.9292,11.78l1.0874,1.0888Zm6.0421,2.66-4.1994-4.325-2.2833,2.2825,4.094,4.0478a2.0378,2.0378,0,0,0,1.466.7863,1.6362,1.6362,0,0,0,1.061-.5124,1.4752,1.4752,0,0,0,.4792-1.2833A1.89,1.89,0,0,0,18.8606,16.6717Z" fill="#252a3a" fill-rule="evenodd"/><path id="Gray_Fil" data-name="Gray Fil" d="M7.3421,14.3628A7.0115,7.0115,0,1,0,.34,7.3513,7.0068,7.0068,0,0,0,7.3421,14.3628Zm5.4764-.3515-1.1408-1.1422L12.9292,11.78l1.0874,1.0888Zm6.0421,2.66-4.1994-4.325-2.2833,2.2825,4.094,4.0478a2.0378,2.0378,0,0,0,1.466.7863,1.6362,1.6362,0,0,0,1.061-.5124,1.4752,1.4752,0,0,0,.4792-1.2833A1.89,1.89,0,0,0,18.8606,16.6717Z" fill="#fff" fill-opacity="0.9" fill-rule="evenodd"/><path id="Outline" d="M.679,7.3515a6.6628,6.6628,0,1,1,11.092,4.9839l-.1237.1076A6.661,6.661,0,0,1,.679,7.3515Zm10.9618,5.96a7.3515,7.3515,0,1,1,1.65-1.6512l.8532.8544.3561-.3565a.3394.3394,0,0,1,.4837.0036l4.2773,4.4111a2.245,2.245,0,0,1,.7217,1.2062,1.8444,1.8444,0,0,1-.5844,1.5956,2.0043,2.0043,0,0,1-1.2974.6215,1.6824,1.6824,0,0,1-1.0124-.28,4.3727,4.3727,0,0,1-.7429-.6192l-4.17-4.1284a.34.34,0,0,1-.0013-.4822l.32-.32Zm.5345-.4264.6487.6495.7062-.6732-.6175-.6183-.6928.6027Zm.721,1.84,3.927,3.888a3.7412,3.7412,0,0,0,.6235.525,1.01,1.01,0,0,0,.6077.1795,1.3265,1.3265,0,0,0,.8639-.4239,1.1675,1.1675,0,0,0,.3919-1.022,1.6193,1.6193,0,0,0-.5362-.8253l-4.0373-4.1636Z" fill="#242a3b" fill-rule="evenodd"/></svg>