<?xml version="1.0" encoding="UTF-8"?><svg id="Layer_1" xmlns="http://www.w3.org/2000/svg" viewBox="0 0 21 20"><path d="M10.2786,.834c1.1809,4.5777,4.7556,8.1525,9.3334,9.3333-4.5778,1.1809-8.1525,4.7556-9.3334,9.3334C9.0978,14.9229,5.5231,11.3482,.9453,10.1673,5.5231,8.9865,9.0978,5.4117,10.2786,.834Z" fill="#180b25"/><path d="M10.2786,.834c1.1809,4.5777,4.7556,8.1525,9.3334,9.3333-4.5778,1.1809-8.1525,4.7556-9.3334,9.3334C9.0978,14.9229,5.5231,11.3482,.9453,10.1673,5.5231,8.9865,9.0978,5.4117,10.2786,.834Z" fill="rgba(255,255,255,.9)"/><path d="M20.9453,3.5c-1.4158,0-3-1.6221-3-3,0,1.3779-1.5705,3-3,3,1.375,0,3,1.5962,3,3,0-1.3947,1.5297-3,3-3Z" fill="#180b25"/><path d="M.9453,10.1673c.39-.1006,.7727-.2186,1.1473-.3531,3.6476-1.3097,6.5233-4.1854,7.833-7.833,.1345-.3746,.2524-.7573,.353-1.1473,.1006,.39,.2186,.7727,.3531,1.1473,1.3097,3.6476,4.1854,6.5233,7.833,7.833,.3746,.1345,.7573,.2524,1.1473,.3531-.39,.1006-.7727,.2186-1.1473,.3531-3.6476,1.3097-6.5233,4.1854-7.833,7.833-.1345,.3746-.2525,.7573-.3531,1.1473-.1006-.39-.2185-.7727-.353-1.1473-1.3097-3.6476-4.1854-6.5233-7.833-7.833-.3746-.1345-.7573-.2525-1.1473-.3531Zm9.3333,7.2582c-1.3822-3.2693-3.9888-5.876-7.2582-7.2582,3.2694-1.3822,5.876-3.9888,7.2582-7.2582,1.3823,3.2694,3.9889,5.876,7.2583,7.2582-3.2694,1.3822-5.876,3.9889-7.2583,7.2582Z" fill="#180b25" fill-rule="evenodd"/></svg>