<?xml version="1.0" encoding="UTF-8"?><svg id="Layer_1" xmlns="http://www.w3.org/2000/svg" viewBox="0 0 20 20"><path d="M10.6354,1.38l-.7768,1.4049c-.4303.7779-.2939,1.7458.3353,2.3739l.2994.2995-8.0936,1.3389c-.5499.0972-.941.5644-.9265,1.121.0525,1.9805.0447,6.6712-.9332,10.1795-.1129.4135.0224.8058.2928,1.0762.2638.2638.6561.3991,1.0696.2862,3.5161-.9712,8.199-.9869,10.1862-.9265.5499.0078,1.0159-.3834,1.1143-.9333l1.3387-8.0927.2984.2984c.6281.6281,1.5971.7645,2.3739.3342l1.4048-.7768c.9925-.5488,1.1825-1.8955.3801-2.6969L13.3323,1c-.8014-.8025-2.1482-.6125-2.6969.38Z" fill="#001531" stroke-width="0"/><path d="M10.6354,1.38l-.7768,1.4049c-.4303.7779-.2939,1.7458.3353,2.3739l.2994.2995-8.0936,1.3389c-.5499.0972-.941.5644-.9265,1.121.0525,1.9805.0447,6.6712-.9332,10.1795-.1129.4135.0224.8058.2928,1.0762.2638.2638.6561.3991,1.0696.2862,3.5161-.9712,8.199-.9869,10.1862-.9265.5499.0078,1.0159-.3834,1.1143-.9333l1.3387-8.0927.2984.2984c.6281.6281,1.5971.7645,2.3739.3342l1.4048-.7768c.9925-.5488,1.1825-1.8955.3801-2.6969L13.3323,1c-.8014-.8025-2.1482-.6125-2.6969.38Z" fill="rgba(255,255,255,.9)" stroke-width="0"/><path d="M14.543,9.4995l-1.3401,8.1007c-.0984.5499-.5644.9411-1.1143.9333-1.9872-.0604-6.6701-.0447-10.1862.9266-.4135.1128-.8058-.0225-1.0696-.2863-.2705-.2704-.4057-.6627-.2928-1.0762.9779-3.5083.9858-8.199.9332-10.1795-.0145-.5566.3767-1.0238.9265-1.121l8.1007-1.3401M6.3269,13.6777L.8281,19.1765M9.8586,2.7848l.7768-1.4049c.5487-.9925,1.8955-1.1825,2.6969-.38l5.6665,5.6665c.8024.8014.6124,2.1481-.3801,2.6969l-1.4048.7768c-.7768.4303-1.7458.2939-2.3739-.3342l-4.6461-4.6472c-.6292-.6281-.7655-1.596-.3353-2.3739ZM8.7969,11.2065c.6829.6818.6829,1.7894,0,2.4723-.6829.6828-1.7894.6828-2.4723,0-.6829-.6829-.6829-1.7905,0-2.4723.6829-.6829,1.7894-.6829,2.4723,0Z" fill="none" stroke="#001531" stroke-linecap="round" stroke-linejoin="round"/></svg>