<svg id="Icon" xmlns="http://www.w3.org/2000/svg" viewBox="0 0 20 20"><path id="Black_Fill" data-name="Black Fill" d="M11.0189.8984h4.6278a2.2661,2.2661,0,0,1,2.266,2.2661V16.8376a2.2661,2.2661,0,0,1-2.266,2.2661H3.44a1.4237,1.4237,0,0,1-1.3518-1.45q-.0011-.0393,0-.0782V3.1645A2.2661,2.2661,0,0,1,4.3544.8984h6.6645Z" fill="#252a3a" fill-rule="evenodd"/><path id="Gray_Fill" data-name="Gray Fill" d="M11.0189.8984h4.6278a2.2661,2.2661,0,0,1,2.266,2.2661V16.8376a2.2661,2.2661,0,0,1-2.266,2.2661H3.44a1.4237,1.4237,0,0,1-1.3518-1.45q-.0011-.0393,0-.0782V3.1645A2.2661,2.2661,0,0,1,4.3544.8984h6.6645Z" fill="#fff" fill-opacity="0.9" fill-rule="evenodd"/><path id="Outlines" d="M14.923.502V.5l-.2542.002H11.4367c-.2737-.0006-.5279-.0007-.75,0H4.3545A2.6626,2.6626,0,0,0,1.6919,3.1646V17.5713c-.0007.0307-.0007.0616,0,.0925A1.82,1.82,0,0,0,3.44,19.5H15.6467a2.6626,2.6626,0,0,0,2.6627-2.6626V3.1646A2.6626,2.6626,0,0,0,15.6467.502Zm-4.0742.7931h.587c.2248,0,.4634.0011.7092.0018h0l.2177.0006c.5914.0016,1.2111.003,1.7672.0009V5.8268L12.4508,4.58l-1.602,1.2124Zm-.7931,0V6.59a.3965.3965,0,0,0,.6358.3162l1.7639-1.3348L14.29,6.9335a.3966.3966,0,0,0,.633-.3184v-5.32h.7237a1.87,1.87,0,0,1,1.87,1.87V15.8281H5.28V1.2951ZM2.485,3.1646a1.87,1.87,0,0,1,1.87-1.87h.132v14.533H3.44a1.7409,1.7409,0,0,0-.9552.27ZM3.44,16.6212H17.5163v.2165a1.87,1.87,0,0,1-1.87,1.8695H3.44a1.0279,1.0279,0,0,1-.9552-1.0583v-.0678A.9343.9343,0,0,1,3.44,16.6212Z" fill="#252a3a" fill-rule="evenodd"/></svg>