<?xml version="1.0" encoding="UTF-8"?><svg id="Layer_1" xmlns="http://www.w3.org/2000/svg" viewBox="0 0 20 20"><path d="M10,0c-3.3137,0-6,2.6863-6,6v1.5415c-1.4189.238-2.5,1.472-2.5,2.9585v6.5c0,1.6569,1.3431,3,3,3h11c1.6569,0,3-1.3431,3-3v-6.5c0-1.4865-1.0811-2.7205-2.5-2.9585v-1.5415c0-3.3137-2.6863-6-6-6Z" fill="#001531" stroke-width="0"/><path d="M10,0c-3.3137,0-6,2.6863-6,6v1.5415c-1.4189.238-2.5,1.472-2.5,2.9585v6.5c0,1.6569,1.3431,3,3,3h11c1.6569,0,3-1.3431,3-3v-6.5c0-1.4865-1.0811-2.7205-2.5-2.9585v-1.5415c0-3.3137-2.6863-6-6-6Z" fill="rgba(255,255,255,.9)" stroke-width="0"/><path d="M6.1001,2.8447c.7491-.9188,2.0926-1.8447,3.9239-1.8447,1.8252,0,3.0502.8735,3.8587,1.848.4554.549.7611,1.0951.9429,1.8526.1653.689.2319,1.5692.1921,2.8079H4.9815c-.035-1.2288.0333-2.1121.197-2.8062.1805-.7654.4811-1.3174.9215-1.8577ZM15.798,4.4674c.1949.8123.261,1.7961.2188,3.086,1.4093.2459,2.4832,1.4749,2.4832,2.9552v6.4914c0,1.6569-1.3431,3-3,3H4.5c-1.6569,0-3-1.3431-3-3v-6.4914c0-1.4804,1.0722-2.7103,2.4824-2.9555-.0373-1.2816.0309-2.2662.2228-3.0802.2188-.9278.5939-1.615,1.1198-2.26.899-1.1027,2.509-2.2128,4.699-2.2128,2.1961,0,3.6822,1.0691,4.6283,2.2095.5387.6494.9233,1.331,1.1457,2.2578ZM2.5,10.5086c0-1.1046.8954-2,2-2h10.9974c1.1053,0,2.0026.8961,2.0026,2v6.4914c0,1.1046-.8954,2-2,2H4.5c-1.1046,0-2-.8954-2-2v-6.4914ZM10,12.001c-.7249,0-1.3125.5698-1.3125,1.2727,0,.4711.2639.8824.6562,1.1025v.489c0,.3536.2938.6358.6562.6358.365,0,.6563-.2847.6563-.6358v-.489c.3923-.2201.6562-.6314.6562-1.1025,0-.7029-.5876-1.2727-1.3125-1.2727Z" fill="#001531" fill-rule="evenodd" stroke-width="0"/></svg>