<?xml version="1.0" encoding="UTF-8"?><svg id="Layer_1" xmlns="http://www.w3.org/2000/svg" viewBox="0 0 20 20"><path d="M.5,4.0001C.5,2.6194,1.6193,1.5001,3,1.5001h4.688c.953,0,1.8494.4527,2.4148,1.2199l.5415.7345c.1885.2557.4872.4066.8049.4066h5.5508c1.3807,0,2.5,1.1193,2.5,2.5v9.6389c0,1.3807-1.1193,2.5-2.5,2.5H3c-1.3807,0-2.5-1.1193-2.5-2.5V4.0001Z" fill="#001531" stroke-width="0"/><path d="M.5,4.0001C.5,2.6194,1.6193,1.5001,3,1.5001h4.688c.953,0,1.8494.4527,2.4148,1.2199l.5415.7345c.1885.2557.4872.4066.8049.4066h5.5508c1.3807,0,2.5,1.1193,2.5,2.5v9.6389c0,1.3807-1.1193,2.5-2.5,2.5H3c-1.3807,0-2.5-1.1193-2.5-2.5V4.0001Z" fill="rgba(255,255,255,.9)" stroke-width="0"/><path d="M3,2.0001h4.688c.7942,0,1.5412.3773,2.0124,1.0166l.5414.7345c.2827.3836.7309.61,1.2074.61h5.5508c1.1046,0,2,.8954,2,2v9.6389c0,1.1045-.8954,2-2,2H3c-1.1046,0-2-.8955-2-2V4.0001c0-1.1046.8954-2,2-2ZM7.688,1H3c-1.6568,0-3,1.3432-3,3.0001v11.9999c0,1.6568,1.3431,3,3,3h14c1.6569,0,3-1.3432,3-3V6.3611c0-1.6569-1.3431-3-3-3h-5.5508c-.1588,0-.3082-.0755-.4025-.2033l-.5414-.7345c-.6597-.895-1.7055-1.4233-2.8173-1.4233ZM9.0005,9.5077c.8974,0,1.625-.7275,1.625-1.625s-.7275-1.6249-1.625-1.6249-1.6249.7275-1.6249,1.6249.7275,1.625,1.6249,1.625ZM13.6253,8.3832c0,.6213-.5036,1.125-1.1249,1.125s-1.125-.5037-1.125-1.125.5037-1.125,1.125-1.125,1.1249.5037,1.1249,1.125ZM8.8757,16.2577c1.0503-.0257,1.9525-.6226,2.4166-1.4866.2467.1334.5292.2091.8293.2091h.0082c.9642,0,1.7457-.7816,1.7457-1.7457v-2.5292c0-.2623-.2126-.475-.475-.475h-1.8451c-.0808-.1302-.2235-.2183-.388-.2224h-4.5834c-.2592.0064-.4643.2215-.4582.4807v2.8847c-.0362,1.5555,1.1944,2.8463,2.7499,2.8844Z" fill="#001531" fill-rule="evenodd" stroke-width="0"/></svg>