<?xml version="1.0" encoding="UTF-8"?><svg id="Layer_1" xmlns="http://www.w3.org/2000/svg" viewBox="0 0 20 20"><path d="M14.4542,6.8337h3.0535c.8236,0,1.4923.6296,1.4923,1.405v9.8564c0,.7763-.6687,1.4049-1.4923,1.4049H2.4924c-.8247,0-1.4924-.6286-1.4924-1.4049V4.9624c0-.7754.6676-1.405,1.4924-1.405h5.2342v-1.6525c0-.7754.6687-1.405,1.4934-1.405h3.7418c.8237,0,1.4924.6296,1.4924,1.405v4.9287ZM14.4542,6.8337v12.6663V6.8337Z" fill="#001531" stroke-width="0"/><path d="M14.4542,6.8337h3.0535c.8236,0,1.4923.6296,1.4923,1.405v9.8564c0,.7763-.6687,1.4049-1.4923,1.4049H2.4924c-.8247,0-1.4924-.6286-1.4924-1.4049V4.9624c0-.7754.6676-1.405,1.4924-1.405h5.2342v-1.6525c0-.7754.6687-1.405,1.4934-1.405h3.7418c.8237,0,1.4924.6296,1.4924,1.405v4.9287ZM14.4542,6.8337v12.6663V6.8337Z" fill="rgba(255,255,255,.9)" stroke-width="0"/><path d="M14.4542,6.8337h3.0535c.8236,0,1.4923.6296,1.4923,1.405v9.8564c0,.7763-.6687,1.4049-1.4923,1.4049H2.4924c-.8247,0-1.4924-.6286-1.4924-1.4049V4.9624c0-.7754.6676-1.405,1.4924-1.405h5.2342v-1.6525c0-.7754.6687-1.405,1.4934-1.405h3.7418c.8237,0,1.4924.6296,1.4924,1.405v4.9287ZM14.4542,6.8337v12.6663" fill="none" stroke="#001531" stroke-linecap="round" stroke-linejoin="round"/><path d="M5.4844,15.2861l.0022.0113M5.4844,11.5005l.0022.0113M5.4844,7.6328l.0022.0113M9.9688,15.2861l.0021.0113M9.9688,11.5005l.0021.0113M9.9688,7.6328l.0021.0113" fill="none" stroke="#001531" stroke-linecap="round" stroke-linejoin="round" stroke-width="1.5"/></svg>