<?xml version="1.0" encoding="UTF-8"?><svg id="Layer_1" xmlns="http://www.w3.org/2000/svg" viewBox="0 0 20 20"><path d="M7.2317.5c-.5504,0-.9965.4477-.9965,1v1h-1.7712c-1.3759,0-2.4913,1.1193-2.4913,2.5v12c0,1.3807,1.1154,2.5,2.4913,2.5h11.0173c1.3759,0,2.4914-1.1193,2.4914-2.5V5c0-1.3807-1.1155-2.5-2.4914-2.5h-1.7721v-1c0-.5523-.4461-1-.9965-1h-5.481Z" fill="#001531" stroke-width="0"/><path d="M7.25.5c-.5523,0-1,.4477-1,1v1h-1.7773c-1.3807,0-2.5,1.1193-2.5,2.5v12c0,1.3807,1.1193,2.5,2.5,2.5h11.0555c1.3807,0,2.5-1.1193,2.5-2.5V5c0-1.3807-1.1193-2.5-2.5-2.5h-1.7782v-1c0-.5523-.4477-1-1-1h-5.5Z" fill="rgba(255,255,255,.9)" stroke-width="0"/><path d="M6.7403,1.4951c.0027-.2742.2257-.4951.5-.4951h5.5122c.2762,0,.5.2239.5.5v2c0,.2761-.2238.5-.5.5h-5.5122c-.2743,0-.4973-.2209-.5-.4951l-.0098-1.0049.0098-1.0049ZM5.7404,1.4854l-.005.5139-1.2313-.0017c-1.6584-.0023-3.0041,1.3415-3.0041,3v12.0023c0,1.6569,1.3431,3,3,3h11c1.6569,0,3-1.3431,3-3V4.9976c0-1.6584-1.3456-3.0023-3.0041-3l-1.2434.0017v-.4993c0-.8284-.6716-1.5-1.5-1.5h-5.5122c-.8227,0-1.4919.6627-1.4999,1.4854ZM14.2525,3.5v-.5007l1.2448-.0017c1.1056-.0015,2.0027.8944,2.0027,2v12.0024c0,1.1046-.8954,2-2,2H4.5c-1.1046,0-2-.8954-2-2V4.9977c0-1.1056.8971-2.0015,2.0027-2l1.2327.0017.005.5152c.008.8227.6772,1.4854,1.4999,1.4854h5.5122c.8284,0,1.5-.6716,1.5-1.5ZM14.0807,10.286c.158-.2265.1024-.5382-.1241-.6961-.2265-.158-.5382-.1024-.6961.1241l-1.9821,2.8424-2.2624-1.9729c-.1072-.0935-.2492-.1369-.3904-.1193-.1412.0176-.2682.0945-.3492.2114l-2.3515,3.3947c-.1572.227-.1007.5385.1263.6957.227.1573.5385.1007.6957-.1263l2.0332-2.9351,2.2611,1.9717c.107.0933.2487.1367.3896.1194.141-.0173.2679-.0938.3491-.2103l2.3008-3.2994Z" fill="#001531" fill-rule="evenodd" stroke-width="0"/></svg>