<?xml version="1.0" encoding="UTF-8"?><svg id="Layer_1" xmlns="http://www.w3.org/2000/svg" viewBox="0 0 20 20"><path d="M2.6003,4.9245c0-1.2824,1.0387-2.3215,2.3206-2.3226h1.0561c.6127,0,1.1998-.2433,1.635-.6746l.7379-.7393c.9042-.9097,2.374-.9138,3.2833-.0103l.001.001.0093.0082.7389.7393c.4342.4323,1.0223.6746,1.6351.6746h1.0581c1.282,0,2.3217,1.0401,2.3217,2.3226v1.0555c0,.614.2422,1.2013.6742,1.6367l.7391.7392c.9092.9047.9144,2.3749.0113,3.2847l-.7493.7496c-.4321.4343-.6743,1.0226-.6743,1.6346v1.0596c-.0021,1.2824-1.0418,2.3195-2.3227,2.3184h-1.0603c-.6127,0-1.2007.2434-1.6349.6757l-.7389.7382c-.9022.9108-2.372.9169-3.2814.0144l-.0031-.002-.7472-.7475c-.4342-.4323-1.0223-.6746-1.635-.6756h-1.0541c-1.2819,0-2.3206-1.0392-2.3206-2.3216v-1.0617c0-.613-.2432-1.2003-.6753-1.6346l-.738-.7393c-.9104-.9025-.9165-2.3708-.0154-3.2816,0,0,.0031-.002.0041-.004l.7472-.7486c.4321-.4343.6753-1.0227.6753-1.6367v-1.0525" fill="#001531" stroke-width="0"/><path d="M2.6003,4.9245c0-1.2824,1.0387-2.3215,2.3206-2.3226h1.0561c.6127,0,1.1998-.2433,1.635-.6746l.7379-.7393c.9042-.9097,2.374-.9138,3.2833-.0103l.001.001.0093.0082.7389.7393c.4342.4323,1.0223.6746,1.6351.6746h1.0581c1.282,0,2.3217,1.0401,2.3217,2.3226v1.0555c0,.614.2422,1.2013.6742,1.6367l.7391.7392c.9092.9047.9144,2.3749.0113,3.2847l-.7493.7496c-.4321.4343-.6743,1.0226-.6743,1.6346v1.0596c-.0021,1.2824-1.0418,2.3195-2.3227,2.3184h-1.0603c-.6127,0-1.2007.2434-1.6349.6757l-.7389.7382c-.9022.9108-2.372.9169-3.2814.0144l-.0031-.002-.7472-.7475c-.4342-.4323-1.0223-.6746-1.635-.6756h-1.0541c-1.2819,0-2.3206-1.0392-2.3206-2.3216v-1.0617c0-.613-.2432-1.2003-.6753-1.6346l-.738-.7393c-.9104-.9025-.9165-2.3708-.0154-3.2816,0,0,.0031-.002.0041-.004l.7472-.7486c.4321-.4343.6753-1.0227.6753-1.6367v-1.0525" fill="rgba(255,255,255,.9)" stroke-width="0"/><path d="M8.7046,1.5405c.7082-.7125,1.8585-.7171,2.5724-.012.0076.0078.0156.0154.0237.0227l.7282.7285.0008.0009c.5281.5258,1.2432.8203,1.9879.8203h1.0581c1.0056,0,1.8217.8161,1.8217,1.8226v1.0555c0,.746.2944,1.4599.8193,1.9889l.0013.0013.7391.7392.0009.0009c.7137.7101.7176,1.8636.0098,2.5773l-.7488.7491-.0008.0009c-.5254.5282-.8198,1.2433-.8198,1.9872v1.0588c-.0016,1.0066-.8176,1.8201-1.8223,1.8192h-1.0607c-.7452,0-1.46.296-1.9877.8214l-.7395.7388-.0018.0018c-.7078.7146-1.8607.7193-2.5739.0114-.006-.006-.0121-.0118-.0184-.0174l-.7304-.7307-.0008-.0008c-.5281-.5259-1.2429-.8201-1.987-.8213h-1.0549c-1.0056,0-1.8206-.8151-1.8206-1.8216v-1.0617c0-.7456-.2959-1.4595-.8209-1.9873l-.7385-.7398-.0018-.0019c-.7102-.7041-.7192-1.847-.0239-2.5627.0072-.0067.0158-.0152.0253-.0254l.7364-.7378c.5252-.5279.8215-1.2436.8215-1.9899v-1.0069c.0013-.015.002-.0302.002-.0456,0-1.0063.8149-1.8216,1.8207-1.8226h1.056c.7455,0,1.4588-.2961,1.9869-.8194l.0019-.0019.738-.7393.0008-.0008ZM4.9205,2.1019c-1.5411.0012-2.793,1.2371-2.8198,2.7724-.0016.0165-.0025.0332-.0025.0501v1.0525c0,.4816-.1907.943-.5295,1.2837l-.745.7464-.0076.0075c-1.0947,1.1065-1.0877,2.8904.0179,3.9875l-.0009-.0009.3539-.3533-.352.3551.7355.7368c.339.3409.5298.8017.5298,1.282v1.0617c0,1.5583,1.2623,2.8216,2.8206,2.8216h1.0533c.4811.0007.9423.1909,1.2824.5293l.7469.7472c.0073.0074.0149.0145.0226.0213,1.1066,1.079,2.879,1.0658,3.9698-.0343l-.001.0009-.3533-.3537.3552.3519.7365-.7358c.3407-.3392.8019-.53,1.2821-.53h1.0599c1.5571.0013,2.8206-1.2594,2.8231-2.8176v-1.0604c0-.48.19-.9412.5285-1.2817l.7487-.749.0012-.0012c1.0976-1.1057,1.0912-2.8917-.0129-3.9908l-.7374-.7376c-.3387-.3417-.5291-.8028-.5291-1.2845v-1.0555c0-1.5584-1.2634-2.8226-2.8217-2.8226h-1.0581c-.4807,0-.9418-.19-1.282-.5286l-.7384-.7388c-.0066-.0066-.0134-.013-.0203-.0192-1.1057-1.0892-2.8852-1.0814-3.9812.0209l-.7356.737-.0009.0009c-.3421.3386-.8026.5289-1.2822.5289h-1.0565ZM8.083,19.2462l-.0569-.0434c.0179.0158.0369.0303.0569.0434ZM.8238,8.007c.0224-.0217.0469-.0413.073-.0585l-.002.0013-.0045.003-.0102.0071c-.007.005-.0167.0123-.0278.0216-.0075.0063-.0181.0155-.0303.0276l-.0059.0054-.0093.0104c-.0144.0156-.041.0464-.0664.0912.0209-.0369.0462-.0711.0757-.1016l.0059-.0054.0017-.0021ZM13.0952,8.6313c.2116-.2076.2116-.5443,0-.7519-.2117-.2077-.5549-.2077-.7665,0l-3.1736,3.1133-1.4799-1.4517c-.2117-.2077-.5548-.2077-.7665,0-.2117.2076-.2117.5443,0,.752l1.8631,1.8277c.2117.2077.5548.2077.7665,0l3.5569-3.4893Z" fill="#001531" fill-rule="evenodd" stroke-width="0"/></svg>