<svg id="Icon" xmlns="http://www.w3.org/2000/svg" viewBox="0 0 20 20"><path id="Black_Fill" data-name="Black Fill" d="M1.1138.4014A.3013.3013,0,0,0,.8125.7027V3.0888a.3014.3014,0,0,0,.3013.3014h2.279a.3014.3014,0,0,0,.3014-.3014V.7027A.3013.3013,0,0,0,3.3928.4014Zm15.4942,0a.3014.3014,0,0,0-.3014.3013V3.0888a.3015.3015,0,0,0,.3014.3014h2.279a.3014.3014,0,0,0,.3013-.3014V.7027A.3013.3013,0,0,0,18.887.4014ZM6.3486,17.3961a.3013.3013,0,0,1,.3014-.3014h6.7a.3013.3013,0,0,1,.3014.3014v1.9007a.3013.3013,0,0,1-.3014.3013H6.65a.3013.3013,0,0,1-.3014-.3013Zm1.1479-.3223A6.9992,6.9992,0,0,0,5.13,12.7456c.4241-.8669,1.3787-2.6709,2.3718-4.5479C8.4365,6.4311,9.4054,4.6,9.9984,3.4248L14.87,12.7456a7.3484,7.3484,0,0,0-2.3735,4.3282Z" fill="#252a3a" fill-rule="evenodd"/><path id="Gray_Fill" data-name="Gray Fill" d="M1.1138.4014A.3013.3013,0,0,0,.8125.7027V3.0888a.3014.3014,0,0,0,.3013.3014h2.279a.3014.3014,0,0,0,.3014-.3014V.7027A.3013.3013,0,0,0,3.3928.4014Zm15.4942,0a.3014.3014,0,0,0-.3014.3013V3.0888a.3015.3015,0,0,0,.3014.3014h2.279a.3014.3014,0,0,0,.3013-.3014V.7027A.3013.3013,0,0,0,18.887.4014ZM6.3486,17.3961a.3013.3013,0,0,1,.3014-.3014h6.7a.3013.3013,0,0,1,.3014.3014v1.9007a.3013.3013,0,0,1-.3014.3013H6.65a.3013.3013,0,0,1-.3014-.3013Zm1.1479-.3223A6.9992,6.9992,0,0,0,5.13,12.7456c.4241-.8669,1.3787-2.6709,2.3718-4.5479C8.4365,6.4311,9.4054,4.6,9.9984,3.4248L14.87,12.7456a7.3484,7.3484,0,0,0-2.3735,4.3282Z" fill="#fff" fill-opacity="0.9" fill-rule="evenodd"/><path id="Outlines" d="M1.1133,0A.7031.7031,0,0,0,.41.7031V3.0892a.7031.7031,0,0,0,.7031.7031h2.279a.7031.7031,0,0,0,.7031-.7031V2.2977h2.869a8.0034,8.0034,0,0,0-1.2171.7613A5.7976,5.7976,0,0,0,3.293,7.709a.4018.4018,0,0,0,.8035,0,4.9963,4.9963,0,0,1,2.1372-4.01,6.6907,6.6907,0,0,1,3.72-1.4009A6.8312,6.8312,0,0,1,13.765,3.7813,5.0246,5.0246,0,0,1,15.9267,7.709a.4018.4018,0,0,0,.8036,0,5.8234,5.8234,0,0,0-2.4741-4.5637,8.5156,8.5156,0,0,0-1.3444-.8476h2.9935v.7915a.7031.7031,0,0,0,.7031.7031h2.279a.7031.7031,0,0,0,.7031-.7031V.7031A.7031.7031,0,0,0,18.8874,0h-2.279a.7031.7031,0,0,0-.7031.7031v.791H4.0954V.7031A.7031.7031,0,0,0,3.3923,0Zm.1,2.9888V.8036H3.2918V2.9888Zm15.4951,0V.8036h2.0781V2.9888ZM6.65,16.6924a.7031.7031,0,0,0-.7031.7031v1.9007a.7031.7031,0,0,0,.7031.7032h6.7a.7031.7031,0,0,0,.7031-.7032V17.3955a.7031.7031,0,0,0-.7031-.7031h-.4131a6.221,6.221,0,0,1,.7115-1.7739,6.5454,6.5454,0,0,1,1.4638-1.8538.4017.4017,0,0,0,.1127-.5058L10.3539,3.2381a.4018.4018,0,0,0-.7147.0051c-.5913,1.1717-1.5587,3-2.4947,4.7689l-.086.1626c-.96,1.8134-1.8748,3.5451-2.29,4.3937a.4019.4019,0,0,0,.1244.5013,5.61,5.61,0,0,1,1.5314,1.9484,6.8611,6.8611,0,0,1,.6141,1.6743Zm.1,2.5034v-1.7H13.25v1.7ZM9.5961,5.0825c-.5214,1-1.1375,2.1643-1.7382,3.3l-.0891.1683c-.863,1.631-1.6811,3.1787-2.1355,4.083A6.8166,6.8166,0,0,1,7.14,14.6524a7.4279,7.4279,0,0,1,.7121,2.0191h4.2748a6.7242,6.7242,0,0,1,.8228-2.148,8.1027,8.1027,0,0,1,1.4155-1.8769L10.4,5.06v4.9451a1.5429,1.5429,0,1,1-.8035.0011ZM9.2606,11.496A.7393.7393,0,1,1,10,12.2353.7393.7393,0,0,1,9.2606,11.496Z" fill="#252a3a" fill-rule="evenodd"/></svg>