<?xml version="1.0" encoding="UTF-8"?><svg id="Layer_1" xmlns="http://www.w3.org/2000/svg" viewBox="0 0 20 20"><path d="M6.3601.5c-1.873,0-3.4952,1.2997-3.9037,3.1276L.25,13.5h.0061c-.1658.4692-.2561.974-.2561,1.5,0,2.4853,2.0147,4.5,4.5,4.5h11c2.4853,0,4.5-2.0147,4.5-4.5,0-.526-.0902-1.0308-.2561-1.5h.0061l-2.066-9.8233c-.3894-1.8513-2.0226-3.1767-3.9144-3.1767h-7.4095Z" fill="#001531" stroke-width="0"/><path d="M6.3601.5c-1.873,0-3.4952,1.2997-3.9037,3.1276L.25,13.5h.0061c-.1658.4692-.2561.974-.2561,1.5,0,2.4853,2.0147,4.5,4.5,4.5h11c2.4853,0,4.5-2.0147,4.5-4.5,0-.526-.0902-1.0308-.2561-1.5h.0061l-2.066-9.8233c-.3894-1.8513-2.0226-3.1767-3.9144-3.1767h-7.4095Z" fill="rgba(255,255,255,.9)" stroke-width="0"/><path d="M5.7689.5049c-1.6571,0-3.0871,1.1621-3.426,2.7842L.0106,14.4526l.0218.0046c-.0214.1779-.0324.3591-.0324.5428,0,2.4853,2.0147,4.5,4.5,4.5h11c2.4853,0,4.5-2.0147,4.5-4.5,0-.1818-.0108-.361-.0317-.5372l.0223-.0044-2.188-11.1287c-.3227-1.6412-1.7616-2.8248-3.4343-2.8248H5.7689ZM4.5,10.5c-1.0841,0-2.0787.3834-2.8556,1.0219L3.3217,3.4936c.2421-1.1586,1.2635-1.9887,2.4472-1.9887h8.5994c1.1948,0,2.2226.8454,2.4531,2.0177l1.5803,8.0378c-.7835-.6616-1.796-1.0604-2.9017-1.0604H4.5ZM1,15c0-1.933,1.567-3.5,3.5-3.5h11c1.933,0,3.5,1.567,3.5,3.5s-1.567,3.5-3.5,3.5H4.5c-1.933,0-3.5-1.567-3.5-3.5ZM13.5,15c0,.5523-.4477,1-1,1s-1-.4477-1-1,.4477-1,1-1,1,.4477,1,1ZM3,15c0-.2761.2239-.5.5-.5h3.5c.2761,0,.5.2239.5.5s-.2239.5-.5.5h-3.5c-.2761,0-.5-.2239-.5-.5ZM17,15c0,.5523-.4477,1-1,1s-1-.4477-1-1,.4477-1,1-1,1,.4477,1,1Z" fill="#001531" fill-rule="evenodd" stroke-width="0"/></svg>