<svg id="Icon" xmlns="http://www.w3.org/2000/svg" viewBox="0 0 20 20"><path id="Black_Fill" data-name="Black Fill" d="M.4551,10.239A1.0667,1.0667,0,0,1,1.5272,9.2h3.66A3.2425,3.2425,0,0,0,8.2505,7.019l.0555-.16,2.19-5.0215a1.0808,1.0808,0,0,1,1.6261-.4423l.9851.7159a1.0809,1.0809,0,0,1,.4234,1.091L12.706,7.2348a1.0808,1.0808,0,0,0,.2145.8913l.47.5876a1.1154,1.1154,0,0,0,1.0042.4059c1.3124-.155,4.3126-.4211,4.8962.3009.7526.6423.1543,1.7191-1.1024,7.0185a4.6481,4.6481,0,0,1-3.378,2.537s-8.4478.3-12.4614.2238A1.8338,1.8338,0,0,1,.5311,17.4717C.3708,15.06.4163,11.8614.4551,10.239Z" fill="#252a3a"/><path id="Gray_Fill" data-name="Gray Fill" d="M.4551,10.239A1.0667,1.0667,0,0,1,1.5272,9.2h3.66A3.2425,3.2425,0,0,0,8.2505,7.019l.0555-.16,2.19-5.0215a1.0808,1.0808,0,0,1,1.6261-.4423l.9851.7159a1.0809,1.0809,0,0,1,.4234,1.091L12.706,7.2348a1.0808,1.0808,0,0,0,.2145.8913l.47.5876a1.1154,1.1154,0,0,0,1.0042.4059c1.3124-.155,4.3126-.4211,4.8962.3009.7526.6423.1543,1.7191-1.1024,7.0185a4.6481,4.6481,0,0,1-3.378,2.537s-8.4478.3-12.4614.2238A1.8338,1.8338,0,0,1,.5311,17.4717C.3708,15.06.4163,11.8614.4551,10.239Z" fill="#fff" fill-opacity="0.9"/><path id="Outlines" d="M11.7124,1.3973a.5494.5494,0,0,0-.794.272C10.119,3.393,8.7455,6.3737,8.3754,7.2,7.607,8.9136,6.3928,9.4888,5.7809,9.4888H5.004V18.687h9.141a3.8917,3.8917,0,0,0,3.6158-2.4528H16.0014a.6215.6215,0,0,1,0-1.243h2.0715l.0138,0,.3891-1.7787H16.54a.6215.6215,0,1,1,0-1.243h2.1462a.6356.6356,0,0,1,.065.0034l.3669-1.6108a.6483.6483,0,0,0-.632-.7925H14.2309L14.205,9.569a2.2186,2.2186,0,0,1-1.2877-.5483,1.5219,1.5219,0,0,1-.5526-1.3838l.0054-.0275a44.0572,44.0572,0,0,0,.7312-4.3527,1.3284,1.3284,0,0,0-.3637-.9689A4.652,4.652,0,0,0,11.7124,1.3973Zm7.7656,11.28-.6627,3.0292-.0343.15a4.7558,4.7558,0,0,1-4.636,3.6952H1.5132A1.5132,1.5132,0,0,1,0,18.0385V10.1373A1.5132,1.5132,0,0,1,1.5132,8.6241H5.7809c.1816,0,1.1357-.2842,1.8054-1.7783.3728-.8319,1.7489-3.8179,2.5477-5.54A1.413,1.413,0,0,1,12.1925.6781a5.501,5.501,0,0,1,1.2183,1.067,2.18,2.18,0,0,1,.55,1.61c-.1772,1.5537-.4924,3.335-.7441,4.4327a.6707.6707,0,0,0,.274.5858,1.3631,1.3631,0,0,0,.7547.3319h4.2414a1.513,1.513,0,0,1,1.4751,1.8492l-.4828,2.12ZM4.1393,9.4888H1.5132a.6486.6486,0,0,0-.6485.6485v7.9012a.6485.6485,0,0,0,.6485.6485H4.1393Z" fill="#252a3a" fill-rule="evenodd"/></svg>