<?xml version="1.0" encoding="UTF-8"?><svg id="Layer_1" xmlns="http://www.w3.org/2000/svg" viewBox="0 0 20 20"><path d="M.5,4.5c0-1.3807,1.1193-2.5,2.5-2.5h14c1.3807,0,2.5,1.1193,2.5,2.5v11c0,1.3807-1.1193,2.5-2.5,2.5H3c-1.3807,0-2.5-1.1193-2.5-2.5V4.5Z" fill="#001531" stroke-width="0"/><path d="M.5,4.5c0-1.3807,1.1193-2.5,2.5-2.5h14c1.3807,0,2.5,1.1193,2.5,2.5v11c0,1.3807-1.1193,2.5-2.5,2.5H3c-1.3807,0-2.5-1.1193-2.5-2.5V4.5Z" fill="rgba(255,255,255,.9)" stroke-width="0"/><path d="M3,2h14c1.3807,0,2.5,1.1193,2.5,2.5v11c0,1.3807-1.1193,2.5-2.5,2.5H3c-1.3807,0-2.5-1.1193-2.5-2.5V4.5c0-1.3807,1.1193-2.5,2.5-2.5Z" fill="none" stroke="#001531"/><path d="M15.5423,7.0459l-4.1695,3.3904c-.7877.6249-1.896.6249-2.6838,0l-4.2046-3.3904" fill="none" stroke="#001531" stroke-linecap="round" stroke-linejoin="round"/></svg>