<svg width="20" height="20" viewBox="0 0 20 20" fill="none" xmlns="http://www.w3.org/2000/svg">
<path d="M3.27734 3.30621C3.27734 2.07891 4.27227 1.08398 5.49957 1.08398H16.0551C17.2824 1.08398 18.2773 2.07891 18.2773 3.30621V6.3096V16.6943C18.2773 17.9216 17.2824 18.9166 16.0551 18.9166H5.49957C4.27227 18.9166 3.27734 17.9216 3.27734 16.6943V6.3096V3.30621Z" fill="#E8E7E9"/>
<path d="M14.3154 7.79205C14.5359 8.00827 14.5359 8.35883 14.3154 8.57505L10.6117 12.2085C10.3913 12.4247 10.034 12.4247 9.81357 12.2085L7.87353 10.3053C7.65312 10.089 7.65312 9.73848 7.87353 9.52226C8.09393 9.30603 8.45127 9.30603 8.67168 9.52226L10.2126 11.034L13.5173 7.79205C13.7377 7.57583 14.095 7.57583 14.3154 7.79205Z" fill="#180B25"/>
<path fill-rule="evenodd" clip-rule="evenodd" d="M5.49989 0.583984C3.99645 0.583984 2.77767 1.80277 2.77767 3.30621V4.16678H1.72168C1.44554 4.16678 1.22168 4.39063 1.22168 4.66677C1.22168 4.94292 1.44554 5.16677 1.72168 5.16677H2.77767V7.72255H1.72168C1.44554 7.72255 1.22168 7.9464 1.22168 8.22255C1.22168 8.49869 1.44554 8.72255 1.72168 8.72255H2.77767V11.2778H1.72168C1.44554 11.2778 1.22168 11.5016 1.22168 11.7778C1.22168 12.0539 1.44554 12.2778 1.72168 12.2778H2.77767V14.8335H1.72168C1.44554 14.8335 1.22168 15.0574 1.22168 15.3335C1.22168 15.6097 1.44554 15.8335 1.72168 15.8335H2.77767V16.6943C2.77767 18.1978 3.99645 19.4166 5.49989 19.4166H16.0554C17.5589 19.4166 18.7777 18.1978 18.7777 16.6943V3.30621C18.7777 1.80277 17.5589 0.583984 16.0554 0.583984H5.49989ZM4.83279 5.16677H3.77767V7.72255H4.83279C5.10893 7.72255 5.33279 7.9464 5.33279 8.22255C5.33279 8.49869 5.10893 8.72255 4.83279 8.72255H3.77767V11.2778H4.83279C5.10893 11.2778 5.33279 11.5016 5.33279 11.7778C5.33279 12.0539 5.10893 12.2778 4.83279 12.2778H3.77767V14.8335H4.83279C5.10893 14.8335 5.33279 15.0574 5.33279 15.3335C5.33279 15.6097 5.10893 15.8335 4.83279 15.8335H3.77767V16.6943C3.77767 17.6455 4.54873 18.4166 5.49989 18.4166H16.0554C17.0066 18.4166 17.7777 17.6455 17.7777 16.6943V3.30621C17.7777 2.35505 17.0066 1.58398 16.0554 1.58398H5.49989C4.54873 1.58398 3.77767 2.35505 3.77767 3.30621V4.16678H4.83279C5.10893 4.16678 5.33279 4.39063 5.33279 4.66677C5.33279 4.94292 5.10893 5.16677 4.83279 5.16677Z" fill="#180B25"/>
</svg>
