<?xml version="1.0" encoding="UTF-8"?><svg id="Icon" xmlns="http://www.w3.org/2000/svg" viewBox="0 0 20 20"><g id="Solid_Fill"><path d="M18.4483,1.3014h-1.5745c-.6551,0-1.2033-.2792-1.6403-.5017-.2801-.1427-.5146-.2621-.7021-.2696-.0186-.0007-.0377-.0016-.0573-.0024-.4892-.0205-1.3126-.055-1.9399,.4081V5.2347c.3713-.0706,1.2368-.2117,1.7284-.2117,.1876,0,.5454,.1295,.9786,.2863,.9855,.3567,2.3616,.8547,3.0151,.2922,.3686-.941,.2816-3.2589,.192-4.3001Z" fill="#001531"/><path d="M12.1806,8.0621c-.6796-.7147-2.1703-2.24-2.697-2.6235-.5267-.3835-1.6525-.2876-2.0247,.0828-1.6901,1.6807-5.1791,5.1215-5.6136,5.4389-.4346,.3174-.4437,1.1564-.394,1.5362v5.9229c0,.6238,.5035,1.1295,1.1246,1.1295H14.4079c.6212,0,1.1247-.5056,1.1247-1.1295v-6.6586c0-.3085-.1257-.6036-.3478-.8168l-3.0042-2.8818Z" fill="#001531"/></g><g id="Opacity_Fill"><path d="M18.4483,1.3014h-1.5745c-.6551,0-1.2033-.2792-1.6403-.5017-.2801-.1427-.5146-.2621-.7021-.2696-.0186-.0007-.0377-.0016-.0573-.0024-.4892-.0205-1.3126-.055-1.9399,.4081V5.2347c.3713-.0706,1.2368-.2117,1.7284-.2117,.1876,0,.5454,.1295,.9786,.2863,.9855,.3567,2.3616,.8547,3.0151,.2922,.3686-.941,.2816-3.2589,.192-4.3001Z" fill="rgba(255,255,255,.9)"/><path d="M12.1806,8.0621c-.6796-.7147-2.1703-2.24-2.697-2.6235-.5267-.3835-1.6525-.2876-2.0247,.0828-1.6901,1.6807-5.1791,5.1215-5.6136,5.4389-.4346,.3174-.4437,1.1564-.394,1.5362v5.9229c0,.6238,.5035,1.1295,1.1246,1.1295H14.4079c.6212,0,1.1247-.5056,1.1247-1.1295v-6.6586c0-.3085-.1257-.6036-.3478-.8168l-3.0042-2.8818Z" fill="rgba(255,255,255,.9)"/></g><path id="Outline" d="M12.5313,.2276c.3033-.1219,.7491-.2276,1.3795-.2276,.6697,0,1.2238,.2227,1.6895,.4099l.0259,.0104c.4885,.1963,.8858,.3506,1.3552,.3506,.5211,0,.8429-.087,1.0194-.1579,.0886-.0356,.1428-.068,.169-.0855,.0093-.0062,.0152-.0107,.018-.0129,.1385-.1284,.3393-.165,.5145-.0921,.1812,.0754,.2993,.2529,.2993,.4499V5.4981c0,.1292-.0511,.253-.142,.3443l-.3429-.3443q.3429,.3443,.3429,.3443l-.0011,.001-.001,.0011-.0023,.0022-.005,.0048-.0119,.0112c-.0089,.0081-.0195,.0174-.0321,.0278-.0251,.0208-.0577,.0456-.0985,.0729-.0818,.0547-.1955,.1187-.3468,.1795-.3033,.1219-.7491,.2276-1.3795,.2276-.6696,0-1.2238-.2227-1.6895-.4099l-.0259-.0104c-.4885-.1963-.8858-.3506-1.3552-.3506-.5211,0-.8429,.087-1.0193,.1579-.0111,.0044-.0216,.0088-.0316,.0132l-.0014,2.3175,2.6366,2.5294c.311,.2983,.487,.7115,.487,1.1434v6.6587c0,.8733-.705,1.5813-1.5746,1.5813H2.5755c-.8696,0-1.5745-.708-1.5745-1.5813v-6.6587c0-.4319,.1759-.8451,.487-1.1434L7.0156,5.3149c.8259-.7922,2.1261-.7922,2.9519,0l1.9217,1.8436,.001-1.6617c0-.0067,.0002-.0133,.0004-.0199V.8725c0-.1292,.0511-.253,.142-.3443l.3429,.3443q-.3429-.3443-.3429-.3443l.0011-.001,.001-.0011,.0023-.0022,.005-.0048,.0119-.0112c.0089-.0081,.0196-.0174,.0321-.0278,.0251-.0208,.0577-.0456,.0985-.0729,.0818-.0548,.1955-.1187,.3468-.1795Zm.3291,.9172v3.6012c.2723-.0706,.6179-.1203,1.0504-.1203,.6697,0,1.2238,.2227,1.6895,.4099l.0259,.0104c.4885,.1963,.8858,.3506,1.3552,.3506,.5211,0,.8429-.087,1.0194-.1579,.0108-.0044,.0212-.0087,.031-.0129V1.6246c-.2723,.0706-.6179,.1203-1.0504,.1203-.6696,0-1.2238-.2227-1.6895-.4099l-.0259-.0104c-.4885-.1963-.8858-.3506-1.3552-.3506-.5211,0-.8429,.087-1.0193,.1579-.0109,.0044-.0212,.0087-.0311,.0129Zm-3.5144,4.8235c-.4781-.4587-1.2309-.4587-1.709,0L2.1094,11.271c-.1333,.1278-.2087,.3049-.2087,.49v6.6587c0,.3743,.3021,.6777,.6748,.6777h2.9304v-4.0665c.0004-.8728,.7045-1.5798,1.5736-1.5799h2.8689c.8699,0,1.5739,.7084,1.5739,1.5814v4.065h2.8853c.3727,0,.6748-.3034,.6748-.6777v-6.6587c0-.1851-.0754-.3622-.2087-.49l-5.5276-5.3027Zm-2.2666,8.3863h2.8688c.3723,0,.6742,.3032,.6742,.6778v4.0634H6.4056v-4.0647c.0002-.3739,.3017-.6765,.6739-.6765Z" fill="#001531" fill-rule="evenodd"/></svg>