<?xml version="1.0" encoding="UTF-8"?><svg id="Icon" xmlns="http://www.w3.org/2000/svg" viewBox="0 0 20 20"><path id="Solid_Fill" d="M7.169,.4648h5.6562c.5207,0,.9427,.427,.9427,.9537v.9506h1.8888c.5001,0,.9796,.201,1.3332,.5587,.3536,.3577,.5522,.8428,.5522,1.3487v13.3515c0,.5059-.1986,.9911-.5522,1.3488-.3536,.3577-.8331,.5586-1.3332,.5586H4.3444c-.5,0-.9796-.2009-1.3332-.5586-.3536-.3577-.5522-.8429-.5522-1.3488V4.2765c0-.5059,.1986-.991,.5522-1.3487,.3536-.3577,.8331-.5587,1.3332-.5587h1.882v-.9506c0-.5267,.4221-.9537,.9427-.9537Z" fill="#001531"/><path id="Opacity_Fill" d="M7.169,.4648h5.6562c.5207,0,.9427,.427,.9427,.9537v.9506h1.8888c.5001,0,.9796,.201,1.3332,.5587,.3536,.3577,.5522,.8428,.5522,1.3487v13.3515c0,.5059-.1986,.9911-.5522,1.3488-.3536,.3577-.8331,.5586-1.3332,.5586H4.3444c-.5,0-.9796-.2009-1.3332-.5586-.3536-.3577-.5522-.8429-.5522-1.3488V4.2765c0-.5059,.1986-.991,.5522-1.3487,.3536-.3577,.8331-.5587,1.3332-.5587h1.882v-.9506c0-.5267,.4221-.9537,.9427-.9537Z" fill="rgba(255,255,255,.9)"/><g id="Outline"><path d="M6.6251,10.791h5.2126c.424,0,.7677-.2798,.7677-.625s-.3437-.625-.7677-.625H6.6251c-.424,0-.7677,.2798-.7677,.625s.3437,.625,.7677,.625Z" fill="#001531" fill-rule="evenodd"/><path d="M13.3768,13.0762l-6.7458,.0064c-.424,0-.7677,.2784-.7677,.6218s.3437,.6218,.7677,.6218l6.7458-.0065c.424,0,.7677-.2784,.7677-.6218s-.3438-.6217-.7677-.6217Z" fill="#001531" fill-rule="evenodd"/><path d="M17.3145,2.6007c-.4396-.4447-1.0357-.6945-1.6573-.6945h-1.4293v-.4888c0-.7828-.6273-1.4174-1.4011-1.4174H7.1706c-.7738,0-1.4011,.6346-1.4011,1.4174v.4888h-1.4247c-.6216,0-1.2178,.2498-1.6573,.6945-.4396,.4446-.6865,1.0478-.6865,1.6766v13.3516c0,.6288,.2469,1.2319,.6865,1.6766,.4395,.4447,1.0357,.6945,1.6573,.6945H15.6572c.6216,0,1.2177-.2498,1.6573-.6945,.4395-.4447,.6865-1.0478,.6865-1.6766V4.2773c0-.6288-.2469-1.232-.6865-1.6766Zm-10.6282-.184c.0015-.0154,.0023-.031,.0023-.0468,0-.0158-.0007-.0314-.0023-.0468v-.9058c0-.2706,.2168-.4899,.4843-.4899h5.6562c.2674,0,.4842,.2193,.4842,.4899v1.9074c0,.2706-.2168,.4899-.4842,.4899H7.1706c-.2675,0-.4843-.2194-.4843-.4899v-.9081Zm10.3978,15.2122c0,.3828-.1503,.75-.4179,1.0207-.2676,.2708-.6306,.4229-1.009,.4229H4.3448c-.3784,0-.7414-.1521-1.009-.4229-.2676-.2707-.4179-.6379-.4179-1.0207V4.2773c0-.3829,.1503-.7501,.4179-1.0208,.2676-.2707,.6306-.4228,1.009-.4228h1.4247v.4911c0,.7828,.6273,1.4174,1.4011,1.4174h5.6562c.7738,0,1.4011-.6346,1.4011-1.4174v-.4911h1.4293c.3784,0,.7414,.1521,1.009,.4228,.2676,.2708,.4179,.6379,.4179,1.0208v13.3516Z" fill="#001531" fill-rule="evenodd"/></g></svg>