<?xml version="1.0" encoding="UTF-8"?><svg id="Icon" xmlns="http://www.w3.org/2000/svg" viewBox="0 0 20 20"><path id="Solid_Fill" d="M13.8161,1.459c-1.012,0-1.9826,.4-2.6982,1.112-.7156,.712-1.1184,1.6777-1.1184,2.6846,0-1.0069-.402-1.9726-1.1176-2.6846-.7156-.712-1.6862-1.112-2.6982-1.112H.46V15.6961H7.1377c.759,0,1.4869,.3,2.0236,.834,.5367,.534,.8382,1.2583,.8382,2.0134,0-.7551,.3023-1.4794,.839-2.0134s1.2646-.834,2.0237-.834h6.6777V1.459h-5.7238Z" fill="#001531"/><path id="Opacity_Fill" d="M13.8161,1.459c-1.012,0-1.9826,.4-2.6982,1.112-.7156,.712-1.1184,1.6777-1.1184,2.6846,0-1.0069-.402-1.9726-1.1176-2.6846-.7156-.712-1.6862-1.112-2.6982-1.112H.46V15.6961H7.1377c.759,0,1.4869,.3,2.0236,.834,.5367,.534,.8382,1.2583,.8382,2.0134,0-.7551,.3023-1.4794,.839-2.0134s1.2646-.834,2.0237-.834h6.6777V1.459h-5.7238Z" fill="rgba(255,255,255,.9)"/><path id="Outline" d="M19.54,1h-5.7238c-1.134,0-2.2216,.4482-3.0235,1.246-.3324,.3307-.5881,.7184-.7928,1.1298-.2046-.4114-.4602-.7991-.7926-1.1298-.8019-.7978-1.8895-1.246-3.0235-1.246H.46c-.254,0-.46,.205-.46,.4577V15.6949c0,.2527,.206,.4577,.46,.4577H7.1378c.637,0,1.2479,.2517,1.6984,.6999,.4504,.4482,.7034,1.056,.7034,1.6898,0,.2528,.206,.4577,.4601,.4577s.4601-.2049,.4601-.4577c0-.6338,.2538-1.2416,.7042-1.6898,.4504-.4482,1.0613-.6999,1.6983-.6999h6.6778c.254,0,.46-.205,.46-.4577V1.4577c0-.2527-.206-.4577-.46-.4577Zm-10.0004,15.259c-.0174-.0181-.035-.0361-.0529-.0538-.623-.6199-1.4679-.9681-2.3489-.9681H.9201V1.9155H6.1838c.89,0,1.7436,.3517,2.3729,.9779s.9828,1.4754,.9828,2.3609v11.0047Zm9.5403-1.0219h-6.2177c-.881,0-1.7259,.3482-2.3489,.9681-.0179,.0177-.0355,.0357-.0529,.0538l-.0007-11.0047c0-.8855,.3543-1.7347,.9836-2.3609s1.4829-.9779,2.3729-.9779h5.2637V15.2371Z" fill="#001531" fill-rule="evenodd"/></svg>