<?xml version="1.0" encoding="UTF-8"?><svg id="Layer_1" xmlns="http://www.w3.org/2000/svg" viewBox="0 0 20 20"><path d="M15.4979,16.75H5.2479c-3.0337,0-4.7479-2.4572-4.7479-4.7121s1.2321-3.825,3.0185-4.4871c.5005-2.8716,2.8234-4.3008,5.0172-4.3008,1.8112,0,3.1964.6619,4.0714,2.1331,2.0536-.6436,3.875,1.0114,3.875,3.0159,2,.6436,3.0179,2.3794,3.0179,4.1928s-1.5595,4.1582-4.0021,4.1582Z" fill="#001531" stroke-width="0"/><path d="M15.4979,16.75H5.2479c-3.0337,0-4.7479-2.4572-4.7479-4.7121s1.2321-3.825,3.0185-4.4871c.5005-2.8716,2.8234-4.3008,5.0172-4.3008,1.8112,0,3.1964.6619,4.0714,2.1331,2.0536-.6436,3.875,1.0114,3.875,3.0159,2,.6436,3.0179,2.3794,3.0179,4.1928s-1.5595,4.1582-4.0021,4.1582Z" fill="rgba(255,255,255,.9)" stroke-width="0"/><path d="M8.5357,2.75c-2.3327,0-4.8096,1.4809-5.4554,4.4376-1.8356.788-3.0803,2.4945-3.0803,4.8503,0,2.481,1.8905,5.2121,5.2479,5.2121.2761,0,.5-.2239.5-.5s-.2239-.5-.5-.5c-2.71,0-4.2479-2.1832-4.2479-4.2121,0-2.0426,1.0989-3.4277,2.6922-4.0182l.2695-.0999.0493-.2831c.4534-2.6017,2.5416-3.8867,4.5247-3.8867,1.6697,0,2.8733.5968,3.6417,1.8887l.2021.3397.3772-.1182c1.6754-.5251,3.2254.8107,3.2254,2.5388v.3643l.3469.1116c1.7687.5692,2.671,2.0935,2.671,3.7168,0,.7761-.3395,1.7027-.965,2.4342-.6188.7235-1.4883,1.224-2.5371,1.224-.2762,0-.5.2239-.5.5s.2238.5.5.5c1.3938,0,2.5254-.6718,3.297-1.574.7648-.8943,1.2051-2.0467,1.2051-3.0842,0-1.9024-1.0218-3.7539-3.0351-4.5507-.1933-2.0074-1.9905-3.6663-4.1324-3.2319-.9882-1.426-2.4745-2.0592-4.2968-2.0592ZM11.913,8.4842c.1714.2187.0865.5308-.1515.6715-.2416.1428-.5482.0528-.7373-.1561-.2521-.2784-.5706-.4907-.9296-.6155-.5212-.1811-1.0934-.1655-1.6131.0439-.5197.2093-.9525.5987-1.2201,1.0974-.1879.3503-.2856.7384-.2878,1.1281,0,.0118-.0004.0236-.0011.0353l.3856-.3715c.1606-.1547.4101-.1526.5595.007.1484.1586.1381.4129-.0222.5673l-1.1559,1.1134c-.081.078-.1834.1153-.2844.1138-.1012-.0008-.2006-.0412-.2751-.1208l-1.0736-1.1473c-.149-.1592-.1413-.4121.0198-.5672.1599-.1541.4107-.1495.5594.0094l.2934.3135c.0131-.535.1521-1.0659.4102-1.5469.3823-.7125,1.0006-1.2687,1.743-1.5678.7424-.2991,1.5599-.3213,2.3044-.0627.5861.2036,1.0965.5707,1.4763,1.0551ZM6.8475,13.6769c-.1727-.2184-.0883-.5315.15-.6728.2411-.1429.5474-.0537.7371.1543.2446.2683.5514.475.897.6005.5068.1839,1.0653.1814,1.5789-.0071.5136-.1884.9499-.551,1.2334-1.0249.1972-.3296.3119-.6986.3374-1.0747.0014-.0196.0035-.0391.0064-.0585l-.407.3516c-.1686.1457-.4176.13-.5583-.0377-.1397-.1665-.1159-.4199.0524-.5652l1.2135-1.0483c.0851-.0734.1893-.1051.2901-.0981.101.0064.1981.0522.2682.1358l1.0108,1.2045c.1403.1672.1191.4193-.05.5653-.1679.1451-.4181.1267-.558-.0401l-.2762-.329c-.041.5255-.2038,1.0404-.4795,1.5013-.4051.677-1.0284,1.195-1.762,1.4642-.7337.2692-1.5316.2727-2.2556.01-.5658-.2053-1.0586-.5631-1.4286-1.0311Z" fill="#001531" fill-rule="evenodd" stroke-width="0"/></svg>