<?xml version="1.0" encoding="UTF-8"?><svg id="Layer_1" xmlns="http://www.w3.org/2000/svg" viewBox="0 0 20 20"><path d="M14.25,7.375c0,1.5516-.514,2.9831-1.3809,4.1336l1.4531,1.4892.5055-.5051s4.1026,4.1736,4.4464,4.6898c.3438.5161.3541,1.1332-.359,1.847-.7978.7986-1.6177.3845-1.8958.172-.278-.2125-2.9042-2.7975-4.5037-4.3984l.4952-.4949-1.4657-1.4668c-1.1567.8837-2.6021,1.4086-4.1701,1.4086-3.797,0-6.875-3.078-6.875-6.875S3.578.5,7.375.5s6.875,3.078,6.875,6.875Z" fill="#001531" stroke-width="0"/><path d="M14.25,7.375c0,1.5516-.514,2.9831-1.381,4.1336l1.4532,1.4892.5055-.5051s4.1026,4.1736,4.4464,4.6898c.3438.5161.3541,1.1332-.359,1.847-.7978.7986-1.6177.3846-1.8958.172-.278-.2125-2.9042-2.7975-4.5037-4.3984l.4952-.4949-1.4658-1.4668c-1.1566.8837-2.602,1.4086-4.17,1.4086-3.797,0-6.875-3.078-6.875-6.875S3.578.5,7.375.5s6.875,3.078,6.875,6.875Z" fill="rgba(255,255,255,.9)" stroke-width="0"/><path d="M13.023,14.297l-1.4712-1.4517M13.023,14.297l1.2858-1.2935M13.023,14.297l-.4418.4385c-.0396.0393-.042.1009-.0021.14.5498.5375,4.1568,4.0645,4.3578,4.2654.295.2951,1.2318.6903,2.0222-.1291.6978-.7234.6469-1.4724.2865-1.8909-.3889-.4516-3.8137-4.0236-4.3419-4.5743-.0389-.0404-.1009-.0385-.1405.0012l-.4544.4557M14.3088,13.0035l-1.4192-1.5103M14.256,7.378c0-3.7986-3.0794-6.878-6.878-6.878S.5,3.5794.5,7.378s3.0794,6.878,6.878,6.878c1.5515,0,2.983-.5137,4.1337-1.3803,1.6667-1.2551,2.7443-3.2506,2.7443-5.4977Z" fill="none" stroke="#001531"/></svg>