<?xml version="1.0" encoding="UTF-8"?><svg id="Layer_1" xmlns="http://www.w3.org/2000/svg" viewBox="0 0 20 20"><path d="M3.6997,16.0953c1.0809,1.5915,3.6355,3.4047,6.3202,3.4047s3.8515-1.0748,5.0149-1.9539c3.8875-3.5086,2.8514-8.6553-.8378-10.7354-1.9831-1.1181-3.3084-3.4719-2.5627-6.3107-3.4004,1.3056-4.657,5.8996-3.8439,9.5506-1.1342-.1934-2.662-1.354-3.1052-4.1587-3.4246,4.1587-2.0664,8.612-.9855,10.2034Z" fill="#001531" stroke-width="0"/><path d="M3.6997,16.0953c1.0809,1.5915,3.6355,3.4047,6.3202,3.4047s3.8515-1.0748,5.0149-1.9539c3.8875-3.5086,2.8514-8.6553-.8378-10.7354-1.9831-1.1181-3.3084-3.4719-2.5627-6.3107-3.4004,1.3056-4.657,5.8996-3.8439,9.5506-1.1342-.1934-2.662-1.354-3.1052-4.1587-3.4246,4.1587-2.0664,8.612-.9855,10.2034Z" fill="rgba(255,255,255,.9)" stroke-width="0"/><path d="M3.6997,16.0953c1.0809,1.5915,3.6355,3.4047,6.3202,3.4047s3.8515-1.0748,5.0149-1.9539c3.8875-3.5086,2.8514-8.6553-.8378-10.7354-1.9831-1.1181-3.3084-3.4719-2.5627-6.3107-3.4004,1.3056-4.657,5.8996-3.8439,9.5506-1.1342-.1934-2.662-1.354-3.1052-4.1587-3.4246,4.1587-2.0664,8.612-.9855,10.2034Z" fill="none" stroke="#001531" stroke-linecap="round" stroke-linejoin="round"/></svg>