<svg id="Protected_VM" data-name="Protected VM" xmlns="http://www.w3.org/2000/svg" viewBox="0 0 20 20"><path d="M10.8874.1685,18.9621,3.25A1.57,1.57,0,0,1,20,4.7382a21.3488,21.3488,0,0,1-1.1922,6.8271c-1.4176,3.7046-4.7333,7.4781-8.67,8.4138a.784.784,0,0,1-.3888-.0075,13.5544,13.5544,0,0,1-8.6534-8.4063A22.0758,22.0758,0,0,1,0,4.732,1.5766,1.5766,0,0,1,1.0375,3.25L9.0527.1705A2.5671,2.5671,0,0,1,10.8874.1685Z" fill="#252a3a"/><path d="M10.8874.1685,18.9621,3.25A1.57,1.57,0,0,1,20,4.7382a21.3488,21.3488,0,0,1-1.1922,6.8271c-1.4176,3.7046-4.7333,7.4781-8.67,8.4138a.784.784,0,0,1-.3888-.0075,13.5544,13.5544,0,0,1-8.6534-8.4063A22.0758,22.0758,0,0,1,0,4.732,1.5766,1.5766,0,0,1,1.0375,3.25L9.0527.1705A2.5671,2.5671,0,0,1,10.8874.1685Z" fill="#fff" fill-opacity="0.9"/><path d="M10.5825.9532l8.0747,3.0815a.73.73,0,0,1,.4942.6863,20.5234,20.5234,0,0,1-1.1373,6.5461c-1.3527,3.5352-4.4876,7.0319-8.0547,7.89A12.7174,12.7174,0,0,1,1.8942,11.281,21.2552,21.2552,0,0,1,.8485,4.721a.7362.7362,0,0,1,.4956-.6871L9.3594.9546A1.7115,1.7115,0,0,1,10.5825.9532Zm.3049-.7847L18.9621,3.25A1.57,1.57,0,0,1,20,4.7382a21.3488,21.3488,0,0,1-1.1922,6.8271c-1.4176,3.7046-4.7333,7.4781-8.6694,8.4138a.7844.7844,0,0,1-.3889-.0075,13.5544,13.5544,0,0,1-8.6534-8.4063A22.0763,22.0763,0,0,1,0,4.732,1.5766,1.5766,0,0,1,1.0375,3.25L9.0527.1705A2.5671,2.5671,0,0,1,10.8874.1685Zm3.7607,7.9526a.72.72,0,0,0,.0142-1.0181l-.0142-.0142a.7541.7541,0,0,0-1.0522,0l-4.3567,4.274L7.2077,9.37a.7544.7544,0,0,0-1.0523,0,.72.72,0,0,0-.0142,1.0181l.0142.0142,2.5577,2.5091a.7541.7541,0,0,0,1.0522,0Z" fill="#252a3a" fill-rule="evenodd"/></svg>