<?xml version="1.0" encoding="UTF-8"?><svg id="Layer_1" xmlns="http://www.w3.org/2000/svg" viewBox="0 0 20 20"><path d="M2.5,3c0-1.3807,1.1193-2.5,2.5-2.5h11c1.3807,0,2.5,1.1193,2.5,2.5v14c0,1.3807-1.1193,2.5-2.5,2.5H5c-1.3807,0-2.5-1.1193-2.5-2.5V3Z" fill="#001531" stroke-width="0"/><path d="M2.5,3c0-1.3807,1.1193-2.5,2.5-2.5h11c1.3807,0,2.5,1.1193,2.5,2.5v14c0,1.3807-1.1193,2.5-2.5,2.5H5c-1.3807,0-2.5-1.1193-2.5-2.5V3Z" fill="rgba(255,255,255,.9)" stroke-width="0"/><path d="M1,15h3M1,9.9995h3M1,5h3M5,19.5h11c1.3807,0,2.5-1.1193,2.5-2.5V3c0-1.3807-1.1193-2.5-2.5-2.5H5c-1.3807,0-2.5,1.1193-2.5,2.5v14c0,1.3807,1.1193,2.5,2.5,2.5Z" fill="none" stroke="#001531" stroke-linecap="round" stroke-linejoin="round"/><path d="M8.2031,7.9941h2.8491M8.2031,12.0055h5.5802" fill="none" stroke="#001531" stroke-linecap="round" stroke-linejoin="round" stroke-width="1.2"/></svg>