<?xml version="1.0" encoding="UTF-8"?><svg id="Layer_1" xmlns="http://www.w3.org/2000/svg" viewBox="0 0 20 20"><path d="M.5,4.0001C.5,2.6194,1.6193,1.5001,3,1.5001h4.688c.953,0,1.8494.4527,2.4148,1.2199l.5415.7345c.1885.2557.4872.4066.8049.4066h5.5508c1.3807,0,2.5,1.1193,2.5,2.5v9.6389c0,1.3807-1.1193,2.5-2.5,2.5H3c-1.3807,0-2.5-1.1193-2.5-2.5V4.0001Z" fill="#001531" stroke-width="0"/><path d="M.5,4.0001C.5,2.6194,1.6193,1.5001,3,1.5001h4.688c.953,0,1.8494.4527,2.4148,1.2199l.5415.7345c.1885.2557.4872.4066.8049.4066h5.5508c1.3807,0,2.5,1.1193,2.5,2.5v9.6389c0,1.3807-1.1193,2.5-2.5,2.5H3c-1.3807,0-2.5-1.1193-2.5-2.5V4.0001Z" fill="rgba(255,255,255,.9)" stroke-width="0"/><path d="M3,2.0001h4.688c.7942,0,1.5412.3773,2.0124,1.0166l.5414.7345c.2827.3836.7309.61,1.2074.61h5.5508c1.1046,0,2,.8954,2,2v9.6389c0,1.1045-.8954,2-2,2H3c-1.1046,0-2-.8955-2-2V4.0001c0-1.1046.8954-2,2-2ZM7.688,1H3c-1.6568,0-3,1.3432-3,3.0001v11.9999c0,1.6568,1.3431,3,3,3h14c1.6569,0,3-1.3432,3-3V6.3611c0-1.6569-1.3431-3-3-3h-5.5508c-.1588,0-.3082-.0755-.4025-.2033l-.5414-.7345c-.6597-.895-1.7055-1.4233-2.8173-1.4233ZM6.044,11.9133c-.3778.0651-.6351.4283-.5087.7902.2742.7851.7669,1.4854,1.429,2.0188.846.6815,1.9132,1.0457,3.0094,1.027,1.0962-.0187,2.1497-.419,2.971-1.129s1.3562-1.683,1.5088-2.744c.1526-1.0611-.0873-2.1405-.6764-3.0441-.5891-.9037-1.4888-1.5723-2.5374-1.8855-1.0485-.3133-2.177-.2506-3.1825.1766-.5519.2345-1.0469.5705-1.4607.9851v-.5849c0-.2964-.2454-.538-.5482-.538-.3049,0-.5482.2409-.5482.538v2.1406c0,.1486.0613.2822.1613.3786.0991.097.2359.1571.3892.1571h2.1881c.3033,0,.5505-.2398.5505-.5357,0-.2979-.2465-.5357-.5505-.5357h-.7279c.304-.326.677-.5885,1.0972-.767.7038-.2991,1.4938-.3429,2.2277-.1236.734.2193,1.3638.6873,1.7762,1.3199.4124.6326.5803,1.3882.4734,2.1309-.1068.7427-.4813,1.4238-1.0561,1.9208-.5748.497-1.3123.7772-2.0797.7903-.7674.0131-1.5144-.2418-2.1066-.7189-.4109-.331-.7286-.7539-.9292-1.2286-.1475-.3492-.4962-.6031-.8698-.5387Z" fill="#001531" fill-rule="evenodd" stroke-width="0"/></svg>