<svg id="Not_Protected_VM" data-name="Not Protected VM" xmlns="http://www.w3.org/2000/svg" viewBox="0 0 20 20"><path d="M10.8874.1685,18.9621,3.25A1.57,1.57,0,0,1,20,4.7382a21.3488,21.3488,0,0,1-1.1922,6.8271c-1.4176,3.7046-4.7333,7.4781-8.6694,8.4138a.7844.7844,0,0,1-.3889-.0075,13.5544,13.5544,0,0,1-8.6534-8.4063A22.0763,22.0763,0,0,1,0,4.732,1.5766,1.5766,0,0,1,1.0375,3.25L9.0527.1705A2.5671,2.5671,0,0,1,10.8874.1685Z" fill="#252a3a"/><path d="M10.8874.1685,18.9621,3.25A1.57,1.57,0,0,1,20,4.7382a21.3488,21.3488,0,0,1-1.1922,6.8271c-1.4176,3.7046-4.7333,7.4781-8.6694,8.4138a.7844.7844,0,0,1-.3889-.0075,13.5544,13.5544,0,0,1-8.6534-8.4063A22.0763,22.0763,0,0,1,0,4.732,1.5766,1.5766,0,0,1,1.0375,3.25L9.0527.1705A2.5671,2.5671,0,0,1,10.8874.1685Z" fill="#fff" fill-opacity="0.9"/><path d="M10.5825.9532l8.0747,3.0815a.73.73,0,0,1,.4942.6863,20.5234,20.5234,0,0,1-1.1373,6.5461c-1.3527,3.5352-4.4876,7.0319-8.0547,7.89A12.7174,12.7174,0,0,1,1.8942,11.281,21.2552,21.2552,0,0,1,.8485,4.721a.7362.7362,0,0,1,.4956-.6871L9.3594.9546A1.7115,1.7115,0,0,1,10.5825.9532Zm.3049-.7847L18.9621,3.25A1.57,1.57,0,0,1,20,4.7382a21.3488,21.3488,0,0,1-1.1922,6.8271c-1.4176,3.7046-4.7333,7.4781-8.6694,8.4138a.7844.7844,0,0,1-.3889-.0075,13.5544,13.5544,0,0,1-8.6534-8.4063A22.0763,22.0763,0,0,1,0,4.732,1.5766,1.5766,0,0,1,1.0375,3.25L9.0527.1705A2.5671,2.5671,0,0,1,10.8874.1685ZM13.8079,6.192a.6553.6553,0,0,0-.9267,0h0L10,9.073,7.1191,6.1924a.6554.6554,0,1,0-.9269.9269h0L9.0729,10,6.192,12.8807a.6554.6554,0,0,0,.9269.9268L10,10.9267l2.8814,2.8813a.6554.6554,0,0,0,.9269-.9268L10.9267,10l2.8812-2.8811a.6513.6513,0,0,0,.0123-.9211l-.0023-.0024Z" fill="#252a3a" fill-rule="evenodd"/></svg>