<?xml version="1.0" encoding="UTF-8"?><svg id="Layer_1" xmlns="http://www.w3.org/2000/svg" viewBox="0 0 20 20"><path d="M16.7039,19.4778c.7161,0,1.2961-.5597,1.2961-1.261l-.0094-3.9856-.0004-12.2234c0-.6406-.8691-1.5059-1.4707-1.5059H4.7765c-1.538,0-2.7765,1.2241-2.7765,2.7327v13.6254l1.0601.1888c.3938.3069.889.4897,1.4269.4897h1.3241l2.9857.5316v1.142c0,.1613.1361.2846.3005.2846.0481,0,.0963-.0093.135-.0288l1.8185-.9965.4564.0812,1.6428.906c.1456.0852.3193.0288.3968-.1047.0294-.0473.0388-.0945.0388-.1418v-.2894l3.1182.5551Z" fill="#001531" stroke-width="0"/><path d="M16.7039,19.4778c.7161,0,1.2961-.5597,1.2961-1.261l-.0094-3.9856-.0004-12.2234c0-.6406-.8691-1.5059-1.4707-1.5059H4.7765c-1.538,0-2.7765,1.2241-2.7765,2.7327v13.6254l1.0601.1888c.3938.3069.889.4897,1.4269.4897h1.3241l2.9857.5316v1.142c0,.1613.1361.2846.3005.2846.0481,0,.0963-.0093.135-.0288l1.8185-.9965.4564.0812,1.6428.906c.1456.0852.3193.0288.3968-.1047.0294-.0473.0388-.0945.0388-.1418v-.2894l3.1182.5551Z" fill="rgba(255,255,255,.9)" stroke-width="0"/><path d="M17.9906,14.2304V2.5c0-1.1046-.8954-2-2-2H6.0831M17.9906,14.2304v4.0446c0,.6312-.5804,1.2029-1.2953,1.2029M17.9906,14.2304l-4.4106.0003M6.0831,14.2312h-1.4123c-1.4804,0-2.6708,1.1759-2.6708,2.628M6.0831,14.2312V.5M6.0831,14.2312l2.7169-.0002M2,16.8592c0,.7209.3005,1.3761.7842,1.8505.4837.4744,1.1412.7682,1.8866.7682h1.1412M2,16.8592V3c0-1.3807,1.1193-2.5,2.5-2.5h1.5831M8.8,14.231v4.9878c0,.1562.1492.2812.2859.2812.0636,0,.1055,0,.1601-.03l1.9687-1.085,1.9571,1.085c.0494.03.0883.03.1581.03.1175,0,.25-.1456.25-.2812v-4.9881M8.8,14.231l4.78-.0003" fill="none" stroke="#001531" stroke-linecap="round" stroke-linejoin="round"/></svg>