<?xml version="1.0" encoding="UTF-8"?><svg id="Layer_1" xmlns="http://www.w3.org/2000/svg" viewBox="0 0 20 20"><path d="M14.25,7.375c0,1.5516-.514,2.9831-1.3809,4.1336l1.4531,1.4892.5055-.5051s4.1026,4.1736,4.4464,4.6898c.3438.5161.3541,1.1332-.359,1.847-.7978.7986-1.6177.3845-1.8958.172-.278-.2125-2.9042-2.7975-4.5037-4.3984l.4952-.4949-1.4657-1.4668c-1.1567.8837-2.6021,1.4086-4.1701,1.4086-3.797,0-6.875-3.078-6.875-6.875S3.578.5,7.375.5s6.875,3.078,6.875,6.875Z" fill="#001531" stroke-width="0"/><path d="M14.25,7.375c0,1.5516-.514,2.9831-1.381,4.1336l1.4532,1.4892.5055-.5051s4.1026,4.1736,4.4464,4.6898c.3438.5161.3541,1.1332-.359,1.847-.7978.7986-1.6177.3846-1.8958.172-.278-.2125-2.9042-2.7975-4.5037-4.3984l.4952-.4949-1.4658-1.4668c-1.1566.8837-2.602,1.4086-4.17,1.4086-3.797,0-6.875-3.078-6.875-6.875S3.578.5,7.375.5s6.875,3.078,6.875,6.875Z" fill="rgba(255,255,255,.9)" stroke-width="0"/><path d="M7.378,1C3.8555,1,1,3.8555,1,7.378s2.8555,6.378,6.378,6.378c1.4393,0,2.7659-.4761,3.8329-1.2797,1.5467-1.1648,2.5451-3.0149,2.5451-5.0983,0-3.5225-2.8555-6.378-6.378-6.378ZM0,7.378C0,3.3032,3.3032,0,7.378,0s7.378,3.3032,7.378,7.378c0,1.5042-.4503,2.9033-1.2231,4.0697l.7866.837.0897-.0899c.2203-.221.6057-.2544.8553.0057.5185.5406,3.9595,4.129,4.36,4.5941.5634.6543.5322,1.6958-.3056,2.5644-.5054.5239-1.0884.6794-1.6015.6333-.4843-.0436-.9022-.2659-1.1341-.4978-.1983-.1983-3.8016-3.7217-4.3537-4.2615-.2566-.2509-.2209-.6338-.0006-.8524l.0832-.0825-.8114-.8006c-1.1772.7945-2.5964,1.2585-4.1228,1.2585C3.3032,14.756,0,11.4528,0,7.378ZM12.2964,12.8776l.7232.7136.5939-.5975-.6968-.7415c-.1942.2206-.4014.4294-.6203.6254ZM13.3753,14.6519l-.1537.1525c1.0258,1.003,3.8882,3.8024,4.0688,3.983.0632.0632.2612.1859.5166.2089.2266.0204.5072-.0362.7922-.3316.5579-.5783.4248-1.0349.2675-1.2175-.3344-.3885-3.0511-3.2267-4.0383-4.2566l-.1656.166-1.2875,1.2953Z" fill="#001531" fill-rule="evenodd" stroke-width="0"/></svg>