<svg id="Icon" xmlns="http://www.w3.org/2000/svg" viewBox="0 0 20 20"><path id="Black_Fill" data-name="Black Fill" d="M16.314,1.3164H3.6866a.5343.5343,0,0,0-.5343.5342v16.3a.5343.5343,0,0,0,.5343.5342H16.314a.5342.5342,0,0,0,.5342-.5342v-16.3A.5342.5342,0,0,0,16.314,1.3164Z" fill="#252a3a"/><path id="Gray_Fill" data-name="Gray Fill" d="M16.314,1.3164H3.6866a.5343.5343,0,0,0-.5343.5342v16.3a.5343.5343,0,0,0,.5343.5342H16.314a.5342.5342,0,0,0,.5342-.5342v-16.3A.5342.5342,0,0,0,16.314,1.3164Z" fill="#fff" fill-opacity="0.9"/><path id="Outlines" d="M3.4675,1.85a.2184.2184,0,0,1,.2185-.2184h.9283V4.817a.4736.4736,0,0,0,.7265.4005l1.0373-.655,1.003.6486a.4737.4737,0,0,0,.7309-.3978V1.6316h8.2014a.2184.2184,0,0,1,.2184.2184v16.3a.2184.2184,0,0,1-.2184.2184H3.686a.2184.2184,0,0,1-.2185-.2184ZM7.48,1.6316H5.2458v2.899l.9658-.61a.3158.3158,0,0,1,.34.0018l.9287.6006ZM3.686,1a.85.85,0,0,0-.85.85v16.3a.85.85,0,0,0,.85.85H16.3134a.85.85,0,0,0,.85-.85V1.85a.85.85,0,0,0-.85-.85ZM4.9535,7.8066a.3158.3158,0,1,0,0,.6316H15.0463a.3158.3158,0,1,0,0-.6316Zm-.3158,2.4272a.3158.3158,0,0,1,.3158-.3158H15.0463a.3158.3158,0,1,1,0,.6315H4.9535A.3157.3157,0,0,1,4.6377,10.2338Zm.3158,1.9244a.3158.3158,0,1,0,0,.6316H15.0463a.3158.3158,0,0,0,0-.6316Zm-.3158,2.6205a.3158.3158,0,0,1,.3158-.3158H15.0463a.3158.3158,0,1,1,0,.6316H4.9535A.3158.3158,0,0,1,4.6377,14.7787Z" fill="#252a3a" fill-rule="evenodd"/></svg>