<?xml version="1.0" encoding="UTF-8"?><svg id="Icon" xmlns="http://www.w3.org/2000/svg" viewBox="0 0 20 20"><g id="Solid_Fill"><path d="M15.6884,6.1877c1.5706,0,2.8438-1.2798,2.8438-2.8585S17.259,.4707,15.6884,.4707s-2.8438,1.2798-2.8438,2.8585,1.2732,2.8585,2.8438,2.8585Z" fill="#001531"/><path d="M4.3126,7.1426c-1.5706,0-2.8438,1.2798-2.8438,2.8585s1.2732,2.8585,2.8438,2.8585,2.8438-1.2798,2.8438-2.8585-1.2732-2.8585-2.8438-2.8585Z" fill="#001531"/><ellipse cx="15.6884" cy="16.6712" rx="2.8438" ry="2.8585" fill="#001531"/></g><g id="Opacity_Fill"><path d="M15.6884,6.1877c1.5706,0,2.8438-1.2798,2.8438-2.8585S17.259,.4707,15.6884,.4707s-2.8438,1.2798-2.8438,2.8585,1.2732,2.8585,2.8438,2.8585Z" fill="rgba(255,255,255,.9)"/><path d="M4.3126,7.1426c-1.5706,0-2.8438,1.2798-2.8438,2.8585s1.2732,2.8585,2.8438,2.8585,2.8438-1.2798,2.8438-2.8585-1.2732-2.8585-2.8438-2.8585Z" fill="rgba(255,255,255,.9)"/><ellipse cx="15.6884" cy="16.6712" rx="2.8438" ry="2.8585" fill="rgba(255,255,255,.9)"/></g><path id="Outline" d="M13.0907,5.3982c.6068,.7691,1.5447,1.2623,2.5971,1.2623,1.8298,0,3.3132-1.491,3.3132-3.3303s-1.4834-3.3303-3.3132-3.3303-3.3131,1.491-3.3131,3.3303c0,.4433,.0861,.8663,.2425,1.2532l-5.708,3.3483c-.607-.7676-1.5438-1.2597-2.5951-1.2597-1.8298,0-3.3131,1.491-3.3131,3.3303s1.4833,3.3303,3.3131,3.3303c1.0529,0,1.9911-.4938,2.598-1.2634l5.7071,3.3428c-.1576,.3882-.2445,.8129-.2445,1.258,0,1.8393,1.4833,3.3303,3.3131,3.3303s3.3132-1.491,3.3132-3.3303-1.4834-3.3303-3.3132-3.3303c-1.0506,0-1.9869,.4916-2.5939,1.2583l-5.7087-3.3438c.1561-.3865,.2421-.8091,.2421-1.2519,0-.4445-.0866-.8687-.2438-1.2563l5.7073-3.3478ZM15.6878,.9436c-1.3114,0-2.3744,1.0686-2.3744,2.3867,0,.4227,.1093,.8197,.301,1.164,.0084,.0117,.0162,.0239,.0236,.0366,.0073,.0126,.014,.0254,.02,.0384,.4166,.6881,1.1698,1.1477,2.0298,1.1477,1.3114,0,2.3745-1.0686,2.3745-2.3867s-1.0631-2.3867-2.3745-2.3867ZM6.3428,8.7614c.0059,.0126,.0124,.0251,.0195,.0374,.0074,.0127,.0152,.0249,.0235,.0366,.1928,.345,.3027,.7431,.3027,1.167,0,.4156-.1057,.8065-.2916,1.1469-.0125,.0162-.0242,.0335-.0348,.0518-.0105,.0182-.0197,.0367-.0276,.0556-.4185,.6796-1.1669,1.1324-2.0205,1.1324-1.3114,0-2.3744-1.0686-2.3744-2.3867s1.0631-2.3868,2.3744-2.3868c.8592,0,1.6118,.4587,2.0287,1.1458Zm6.9706,7.9087c0-.4077,.1017-.7916,.281-1.1274,.0198-.0225,.0376-.0473,.0532-.0742,.0151-.0262,.0275-.0531,.0372-.0806,.4216-.6641,1.1612-1.1045,2.003-1.1045,1.3114,0,2.3745,1.0686,2.3745,2.3867s-1.0631,2.3868-2.3745,2.3868-2.3744-1.0686-2.3744-2.3868Z" fill="#001531" fill-rule="evenodd"/></svg>