<?xml version="1.0" encoding="UTF-8"?><svg id="Layer_1" xmlns="http://www.w3.org/2000/svg" viewBox="0 0 20 20"><path d="M19.5,10c0,1.3471-.2804,2.6288-.786,3.7898.4914.6026.786,1.372.786,2.2102,0,1.933-1.567,3.5-3.5,3.5-.8382,0-1.6076-.2946-2.2102-.786-1.161.5056-2.4427.786-3.7898.786C4.7533,19.5.5,15.2467.5,10c0-1.3471.2804-2.6288.786-3.7898-.4914-.6026-.786-1.372-.786-2.2102C.5,2.067,2.067.5,4,.5c.8382,0,1.6076.2947,2.2102.786,1.161-.5056,2.4426-.786,3.7898-.786,5.2467,0,9.5,4.2533,9.5,9.5Z" fill="#001531" stroke-width="0"/><path d="M19.5,10c0,1.3471-.2804,2.6288-.786,3.7898.4914.6026.786,1.372.786,2.2102,0,1.933-1.567,3.5-3.5,3.5-.8382,0-1.6076-.2946-2.2102-.786-1.161.5056-2.4427.786-3.7898.786C4.7533,19.5.5,15.2467.5,10c0-1.3471.2804-2.6288.786-3.7898-.4914-.6026-.786-1.372-.786-2.2102C.5,2.067,2.067.5,4,.5c.8382,0,1.6076.2947,2.2102.786,1.161-.5056,2.4426-.786,3.7898-.786,5.2467,0,9.5,4.2533,9.5,9.5Z" fill="rgba(255,255,255,.9)" stroke-width="0"/><path d="M4,1c-1.6569,0-3,1.3431-3,3,0,.7189.2522,1.3776.6735,1.8943.5509.6757,1.3883,1.1057,2.3265,1.1057,1.6568,0,3-1.3432,3-3,0-.9382-.4301-1.7755-1.1057-2.3265-.5167-.4213-1.1753-.6735-1.8943-.6735ZM0,4C0,1.7909,1.7909,0,4,0c.8476,0,1.6346.2641,2.2817.7143,1.15-.4609,2.4051-.7143,3.7183-.7143,5.5228,0,10,4.4771,10,10,0,1.3131-.2534,2.5682-.7142,3.7182.4502.6472.7142,1.4337.7142,2.2818,0,2.2091-1.7909,4-4,4-.8476,0-1.6346-.2641-2.2817-.7143-1.15.4609-2.4051.7143-3.7183.7143C4.4771,20,0,15.5228,0,10c0-1.3132.2534-2.5683.7143-3.7183-.4501-.6472-.7143-1.4341-.7143-2.2817ZM1.4762,7.1034c-.3086.9085-.4762,1.8826-.4762,2.8966,0,4.9706,4.0294,9,9,9,1.0141,0,1.9881-.1675,2.8966-.4762-.5602-.6881-.8966-1.5668-.8966-2.5238,0-2.2091,1.7909-4,4-4,.957,0,1.8354.3361,2.5239.8966.3086-.9085.4761-1.8826.4761-2.8966,0-4.9706-4.0294-9-9-9-1.014,0-1.9881.1675-2.8966.4762.5602.6881.8966,1.5668.8966,2.5238,0,2.2091-1.7909,4-4,4-.957,0-1.8357-.3364-2.5238-.8966ZM16,13c-1.6569,0-3,1.3431-3,3,0,.9382.4301,1.7756,1.1057,2.3265.5167.4212,1.1754.6735,1.8943.6735,1.6569,0,3-1.3431,3-3s-1.3431-3-3-3Z" fill="#001531" fill-rule="evenodd" stroke-width="0"/></svg>