<?xml version="1.0" encoding="UTF-8"?><svg id="Layer_1" xmlns="http://www.w3.org/2000/svg" viewBox="0 0 20 20"><path d="M17.3907,12.8091c-2.1019,2.1054-5.1778,2.6353-7.7738,1.596l-4.1822,4.1903c-1.0848,1.0855-2.8708,1.2416-4.0058.2085-1.2078-1.099-1.2334-2.964-.1015-4.099l4.294-4.3011c-1.0438-2.6076-.5147-5.6887,1.5871-7.7941C9.3175.4971,12.4006-.0257,14.9966,1.027l-3.5875,3.5936c-.3241.3245-.4655.7898-.3752,1.2406l.3383,1.7028c.1087.5453.5352.9715,1.0796,1.0794l1.6938.3358c.4491.0884.9126-.0534,1.2365-.3768l3.5886-3.5946c1.0581,2.5932.529,5.6887-1.58,7.8013Z" fill="#001531" fill-rule="evenodd" stroke-width="0"/><path d="M17.3907,12.8091c-2.1019,2.1054-5.1778,2.6353-7.7738,1.596l-4.1822,4.1903c-1.0848,1.0855-2.8708,1.2416-4.0058.2085-1.2078-1.099-1.2334-2.964-.1015-4.099l4.294-4.3011c-1.0438-2.6076-.5147-5.6887,1.5871-7.7941C9.3175.4971,12.4006-.0257,14.9966,1.027l-3.5875,3.5936c-.3241.3245-.4655.7898-.3752,1.2406l.3383,1.7028c.1087.5453.5352.9715,1.0796,1.0794l1.6938.3358c.4491.0884.9126-.0534,1.2365-.3768l3.5886-3.5946c1.0581,2.5932.529,5.6887-1.58,7.8013Z" fill="rgba(255,255,255,.9)" fill-rule="evenodd" stroke-width="0"/><path d="M17.3907,12.8091c-2.1019,2.1054-5.1778,2.6353-7.7738,1.596l-4.1822,4.1903c-1.0848,1.0855-2.8708,1.2416-4.0058.2085-1.2078-1.099-1.2334-2.964-.1015-4.099l4.294-4.3011c-1.0438-2.6076-.5147-5.6887,1.5871-7.7941C9.3175.4971,12.4006-.0257,14.9966,1.027l-3.5875,3.5936c-.3241.3245-.4655.7898-.3752,1.2406l.3383,1.7028c.1087.5453.5352.9715,1.0796,1.0794l1.6938.3358c.4491.0884.9126-.0534,1.2365-.3768l3.5886-3.5946c1.0581,2.5932.529,5.6887-1.58,7.8013Z" fill="none" stroke="#001531" stroke-linecap="round" stroke-linejoin="round"/></svg>