<svg id="Icon" xmlns="http://www.w3.org/2000/svg" viewBox="0 0 20 20"><path id="Black_Fill" data-name="Black Fill" d="M5.4463,1.4266a1.0171,1.0171,0,0,1,1.7457,0L9.0953,4.6079a5.6412,5.6412,0,1,1,5.8915,7.6364v4.79a2.0343,2.0343,0,0,1-2.0343,2.0343H6.8487a2.0343,2.0343,0,0,1-2.0343-2.0343V11.8252H1.0187a1.0171,1.0171,0,0,1-.8728-1.5394Z" fill="#252a3a" fill-rule="evenodd"/><path id="Gray_Fill" data-name="Gray Fill" d="M5.4463,1.4266a1.0171,1.0171,0,0,1,1.7457,0L9.0953,4.6079a5.6412,5.6412,0,1,1,5.8915,7.6364v4.79a2.0343,2.0343,0,0,1-2.0343,2.0343H6.8487a2.0343,2.0343,0,0,1-2.0343-2.0343V11.8252H1.0187a1.0171,1.0171,0,0,1-.8728-1.5394Z" fill="#fff" fill-opacity="0.9" fill-rule="evenodd"/><path id="Outline" d="M6.4937,1.8443a.2035.2035,0,0,0-.3492,0l-5.3,8.8593a.2035.2035,0,0,0,.1746.3079H4.8144v-.2868A2.0343,2.0343,0,0,1,6.8487,8.69H10.59ZM11.5379,8.69h1.4146a2.0343,2.0343,0,0,1,2.0343,2.0343v.7a4.827,4.827,0,1,0-5.33-5.8788Zm3.4489,3.5539A5.6407,5.6407,0,1,0,9.0953,4.6078L7.192,1.4266a1.0171,1.0171,0,0,0-1.7457,0l-5.3,8.8592a1.0171,1.0171,0,0,0,.8728,1.5394H4.8144v5.2089a2.0343,2.0343,0,0,0,2.0343,2.0343h6.1038a2.0343,2.0343,0,0,0,2.0343-2.0343Zm-8.1381-2.74h6.1038a1.2206,1.2206,0,0,1,1.2206,1.2206v6.3094a1.2206,1.2206,0,0,1-1.2206,1.2206H6.8487a1.2205,1.2205,0,0,1-1.2205-1.2206V10.7247A1.2205,1.2205,0,0,1,6.8487,9.5041Z" fill="#252a3a" fill-rule="evenodd"/></svg>