<?xml version="1.0" encoding="UTF-8"?><svg id="Layer_1" xmlns="http://www.w3.org/2000/svg" viewBox="0 0 20 20"><path d="M11.7203.6087L2.33,11.203c-.1814.2046-.0342.5249.2412.5249h4.9155c.118,0,.2137.0945.2137.211v7.244c0,.2916.3657.4281.561.2092l9.4079-10.5386c.1825-.2044.0355-.5258-.2405-.5258h-4.9329c-.1181,0-.2138-.0945-.2138-.211V.8171c0-.2922-.3668-.4284-.5618-.2084Z" fill="#001531" stroke-width="0"/><path d="M11.7203.6087L2.33,11.203c-.1814.2046-.0342.5249.2412.5249h4.9155c.118,0,.2137.0945.2137.211v7.244c0,.2916.3657.4281.561.2092l9.4079-10.5386c.1825-.2044.0355-.5258-.2405-.5258h-4.9329c-.1181,0-.2138-.0945-.2138-.211V.8171c0-.2922-.3668-.4284-.5618-.2084Z" fill="rgba(255,255,255,.9)" stroke-width="0"/><path d="M11.7203.6087L2.33,11.203c-.1814.2046-.0342.5249.2412.5249h4.9155c.118,0,.2137.0945.2137.211v7.244c0,.2916.3657.4281.561.2092l9.4079-10.5386c.1825-.2044.0355-.5258-.2405-.5258h-4.9329c-.1181,0-.2138-.0945-.2138-.211V.8171c0-.2922-.3668-.4284-.5618-.2084Z" fill="none" stroke="#001531"/></svg>