<?xml version="1.0" encoding="UTF-8"?><svg id="Layer_1" xmlns="http://www.w3.org/2000/svg" viewBox="0 0 20 20"><path d="M16.5,6.8914c0-3.5298-2.9097-6.3914-6.5-6.3914S3.5,3.3616,3.5,6.8914c0,1.9897.9251,3.7674,2.3757,4.9395l-.586.0006.0195,6.8186c.001.6611.7434,1.0671,1.3272.7271l2.9251-1.7044c.277-.1621.6241-.1621.902,0l2.9199,1.7024c.5849.3401,1.3272-.068,1.3272-.7302v-6.8226l-.5764.0006c1.445-1.1722,2.3659-2.9463,2.3659-4.9316Z" fill="#001531" stroke-width="0"/><path d="M16.5,6.8914c0-3.5298-2.9097-6.3914-6.5-6.3914S3.5,3.3616,3.5,6.8914c0,1.9897.9251,3.7674,2.3757,4.9395l-.586.0006.0195,6.8186c.001.6611.7434,1.0671,1.3272.7271l2.9251-1.7044c.277-.1621.6241-.1621.902,0l2.9199,1.7024c.5849.3401,1.3272-.068,1.3272-.7302v-6.8226l-.5764.0006c1.445-1.1722,2.3659-2.9463,2.3659-4.9316Z" fill="rgba(255,255,255,.9)" stroke-width="0"/><path d="M10,.999c-3.3137,0-6,2.6863-6,6,0,1.6331.6178,3.0892,1.6669,4.1669,1.0911,1.1207,2.6478,1.8331,4.3331,1.8331,1.7096,0,3.2515-.7143,4.345-1.8622,1.0259-1.077,1.655-2.5334,1.655-4.1378,0-3.3137-2.6863-6-6-6ZM3,6.999C3,3.133,6.134-.001,10-.001s7,3.134,7,7c0,1.7982-.6787,3.439-1.793,4.6784v6.8529c0,.6576-.3103,1.1418-.8119,1.3484-.4559.1877-.9774.1063-1.3703-.1244-.0895-.0525-.2482-.1444-.4452-.2585-.5965-.3454-1.5435-.8939-1.9803-1.1664-.3123-.1947-.4302-.2596-.5215-.2811-.0381-.009-.1005-.0216-.3067.0752-.0489.0229-.2026.1102-.4484.2553-.1846.109-.4046.2406-.64.3815-.0637.0381-.1286.0769-.1942.1161-.6065.3626-1.287.7672-1.6583.958-.4641.2384-.9798.2193-1.3853-.0452-.4032-.263-.6362-.7272-.6362-1.2589v-6.8169c-1.1442-1.2478-1.8086-2.8946-1.8086-4.7144ZM5.8086,12.612v5.9183c0,.2378.0973.3658.1825.4213.0829.0541.2136.0798.382-.0067.3356-.1724.9825-.5563,1.6022-.9268.0647-.0387.129-.0771.1923-.115.2358-.1411.4593-.2748.6467-.3854.2265-.1337.4296-.2514.5319-.2994.3177-.1491.6211-.2235.9612-.1434.2748.0648.5366.2283.788.3853.0111.0069.0221.0138.0331.0207.4211.2626,1.3309.7896,1.9284,1.1356.2063.1195.3754.2174.4742.2754.173.1015.366.1104.4832.0621.0515-.0212.0921-.0537.1232-.1044.0325-.0528.0696-.15.0696-.3193v-5.9361c-1.1709.8817-2.6281,1.4048-4.207,1.4048-1.5589,0-3.0198-.5213-4.1914-1.387Z" fill="#001531" fill-rule="evenodd" stroke-width="0"/></svg>