<svg id="Database" xmlns="http://www.w3.org/2000/svg" viewBox="0 0 20 20"><path d="M18.2852,3.753V3.7516c0-2.0687-3.6456-3.7457-8.1426-3.7457S2,1.6829,2,3.7516v12.502c0,2.0687,3.6456,3.7457,8.1426,3.7457s8.1426-1.677,8.1426-3.7457v-12.5" fill="#252a3a" fill-rule="evenodd"/><path d="M18.2852,3.753V3.7516c0-2.0687-3.6456-3.7457-8.1426-3.7457S2,1.6829,2,3.7516v12.502c0,2.0687,3.6456,3.7457,8.1426,3.7457s8.1426-1.677,8.1426-3.7457v-12.5" fill="#fff" fill-opacity="0.9" fill-rule="evenodd"/><path id="Lines" d="M18.29,12.0917h-.005V8.0188c0-.0151.0049-.0291.0049-.0442H18.285V3.7516c0-1.4256-1.7316-2.6647-4.28-3.2977A15.9644,15.9644,0,0,0,10.142,0,15.9538,15.9538,0,0,0,6.2742.4551C3.7291,1.0884,2,2.327,2,3.7516v12.502c0,2.0687,3.6456,3.7457,8.1426,3.7457s8.1426-1.677,8.1426-3.7457V12.137C18.2856,12.1215,18.29,12.1072,18.29,12.0917ZM2.8143,9.6963a5.783,5.783,0,0,0,1.6921,1.11,14.1428,14.1428,0,0,0,5.6387,1.0555,14.1424,14.1424,0,0,0,5.6386-1.0555,5.79,5.79,0,0,0,1.6872-1.105v2.3908H17.47c0,.7025-.652,1.4722-2.0246,2.09a13.3308,13.3308,0,0,1-5.3.9828,13.3308,13.3308,0,0,1-5.3-.9828c-1.3726-.6175-2.0246-1.3872-2.0246-2.09H2.8143ZM17.47,7.9746c0,.7025-.652,1.4721-2.0247,2.09a13.3309,13.3309,0,0,1-5.3.9829,13.3309,13.3309,0,0,1-5.3-.9829C3.4723,9.4467,2.82,8.6771,2.82,7.9746H2.8143V5.2386C4.0827,6.5193,6.8829,7.4114,10.142,7.4114s6.061-.8925,7.3289-2.1739V7.9746ZM10.1426.82a14.7786,14.7786,0,0,1,4.2608.59,9.0366,9.0366,0,0,1,1.0944.4146c1.3988.6435,1.8855,1.3678,1.8855,1.8806s-.4867,1.2372-1.8855,1.8807A13.2293,13.2293,0,0,1,10.142,6.5972,13.2313,13.2313,0,0,1,4.7861,5.5864C3.3874,4.9429,2.9007,4.2186,2.9007,3.7057s.4867-1.2371,1.8854-1.8806a9.057,9.057,0,0,1,1.0922-.4138A14.7711,14.7711,0,0,1,10.1426.82ZM15.56,18.1625a13.3823,13.3823,0,0,1-5.4174,1.0226,13.38,13.38,0,0,1-5.4174-1.0226c-1.4145-.6507-1.9109-1.385-1.9109-1.9089v-2.44a5.7848,5.7848,0,0,0,1.6922,1.11,14.1428,14.1428,0,0,0,5.6387,1.0555,14.1441,14.1441,0,0,0,5.6386-1.0555,5.79,5.79,0,0,0,1.6871-1.105v2.4356C17.4709,16.7775,16.9745,17.5118,15.56,18.1625Z" fill="#252a3a" fill-rule="evenodd"/></svg>