<?xml version="1.0" encoding="UTF-8"?><svg id="Layer_1" xmlns="http://www.w3.org/2000/svg" viewBox="0 0 20 20"><path d="M2.5,3c0-1.3807,1.1193-2.5,2.5-2.5h11c1.3807,0,2.5,1.1193,2.5,2.5v14c0,1.3807-1.1193,2.5-2.5,2.5H5c-1.3807,0-2.5-1.1193-2.5-2.5V3Z" fill="#001531" stroke-width="0"/><path d="M2.5,3c0-1.3807,1.1193-2.5,2.5-2.5h11c1.3807,0,2.5,1.1193,2.5,2.5v14c0,1.3807-1.1193,2.5-2.5,2.5H5c-1.3807,0-2.5-1.1193-2.5-2.5V3Z" fill="rgba(255,255,255,.9)" stroke-width="0"/><path d="M5,0c-1.6569,0-3,1.3432-3,3v1.5h-1c-.2761,0-.5.2239-.5.5s.2239.5.5.5h1v3.9995h-1c-.2761,0-.5.2239-.5.5s.2239.5.5.5h1v4.0005h-1c-.2761,0-.5.2239-.5.5s.2239.5.5.5h1v1.5c0,1.6569,1.3431,3,3,3h11c1.6569,0,3-1.3431,3-3V3c0-1.6568-1.3431-3-3-3H5ZM4,5.5h-1v3.9995h1c.2761,0,.5.2239.5.5s-.2239.5-.5.5h-1v4.0005h1c.2761,0,.5.2239.5.5s-.2239.5-.5.5h-1v1.5c0,1.1046.8954,2,2,2h11c1.1046,0,2-.8954,2-2V3c0-1.1046-.8954-2-2-2H5c-1.1046,0-2,.8954-2,2v1.5h1c.2761,0,.5.2239.5.5s-.2239.5-.5.5ZM8.9964,8.1398c0-1.1886.9478-2.1398,2.1016-2.1398s2.1016.9511,2.1016,2.1398-.9478,2.1397-2.1016,2.1397-2.1016-.9511-2.1016-2.1397ZM11.098,5c-1.7198,0-3.1016,1.4126-3.1016,3.1398,0,.9691.4351,1.8392,1.1208,2.4163-1.2238.3606-2.112,1.5055-2.112,2.8521,0,.065-.0012.1356-.0024.2104h0c-.0048.2877-.0106.6372.0456.9658.0466.2722.305.455.5772.4084.2722-.0466.4551-.305.4085-.5772-.039-.2277-.0356-.4513-.0316-.7223.0013-.0893.0027-.1837.0027-.2851,0-1.095.8729-1.9702,1.9346-1.9702h2.3706c1.0616,0,1.9345.8752,1.9345,1.9702,0,.1012.0014.1955.0028.2847h0c.004.2712.0073.4949-.0316.7228-.0466.2722.1363.5306.4085.5771.2722.0466.5306-.1363.5771-.4085.0563-.3286.0504-.6781.0457-.9658v-.0002c-.0013-.0746-.0025-.1452-.0025-.2101,0-1.3613-.9078-2.5166-2.1523-2.8637.6778-.5771,1.1071-1.442,1.1071-2.4047,0-1.7271-1.3818-3.1398-3.1016-3.1398Z" fill="#001531" fill-rule="evenodd" stroke-width="0"/></svg>