<svg width="20" height="20" viewBox="0 0 20 20" fill="none" xmlns="http://www.w3.org/2000/svg">
<g clip-path="url(#clip0_9294_237101)">
<path d="M10 19C14.9706 19 19 14.9706 19 10C19 5.02944 14.9706 1 10 1C5.02944 1 1 5.02944 1 10C1 14.9706 5.02944 19 10 19Z" fill="#E8E7E9"/>
<path fill-rule="evenodd" clip-rule="evenodd" d="M10.0008 7.69401C8.72744 7.69401 7.6952 8.72624 7.6952 9.99957C7.6952 11.2729 8.72744 12.3051 10.0008 12.3051C11.2741 12.3051 12.3063 11.2729 12.3063 9.99957C12.3063 8.72624 11.2741 7.69401 10.0008 7.69401ZM8.80632 9.99957C8.80632 9.33989 9.34109 8.80512 10.0008 8.80512C10.6604 8.80512 11.1952 9.33989 11.1952 9.99957C11.1952 10.6592 10.6604 11.194 10.0008 11.194C9.34109 11.194 8.80632 10.6592 8.80632 9.99957Z" fill="#180B25"/>
<path d="M10.1548 5.16516C8.5958 5.16249 6.68722 6.21021 5.90747 7.83712C5.77486 8.11381 5.44306 8.2306 5.16638 8.09799C4.88969 7.96538 4.77289 7.63358 4.9055 7.35689C5.88362 5.31606 8.2011 4.0507 10.1567 4.05405C10.4635 4.05457 10.7118 4.30373 10.7113 4.61055C10.7108 4.91738 10.4616 5.16568 10.1548 5.16516Z" fill="#180B25"/>
<path d="M14.236 12.2565C13.4009 13.8557 11.4575 14.8374 9.89956 14.7813C9.59294 14.7702 9.33541 15.0098 9.32437 15.3165C9.31332 15.6231 9.55294 15.8806 9.85956 15.8917C11.8139 15.9621 14.1734 14.7769 15.2209 12.7708C15.3629 12.4988 15.2576 12.1632 14.9856 12.0212C14.7136 11.8792 14.378 11.9845 14.236 12.2565Z" fill="#180B25"/>
<path fill-rule="evenodd" clip-rule="evenodd" d="M9.99902 0.5C4.75232 0.5 0.499023 4.75329 0.499023 10C0.499023 15.2467 4.75232 19.5 9.99902 19.5C15.2457 19.5 19.499 15.2467 19.499 10C19.499 4.7533 15.2457 0.5 9.99902 0.5ZM1.49902 10C1.49902 5.30558 5.3046 1.5 9.99902 1.5C14.6934 1.5 18.499 5.30558 18.499 10C18.499 14.6944 14.6934 18.5 9.99902 18.5C5.3046 18.5 1.49902 14.6944 1.49902 10Z" fill="#180B25"/>
</g>
<defs>
<clipPath id="clip0_9294_237101">
<rect width="20" height="20" fill="white"/>
</clipPath>
</defs>
</svg>
