<?xml version="1.0" encoding="UTF-8"?><svg id="Layer_1" xmlns="http://www.w3.org/2000/svg" viewBox="0 0 20 20"><circle cx="10" cy="10" r="10" fill="#001531" stroke-width="0"/><circle cx="10" cy="10" r="10" fill="rgba(255,255,255,.9)" stroke-width="0"/><path d="M7.1189,6.192c-.256-.2559-.6709-.2559-.9269,0s-.256.6709,0,.9269l2.8811,2.881-2.881,2.881c-.256.2559-.256.6709,0,.9268.256.256.6709.256.9269,0l2.881-2.8809,2.881,2.8809c.256.256.671.256.927,0s.2559-.6709,0-.9268l-2.8811-2.881,2.8811-2.881c.256-.256.256-.6709,0-.9269-.2559-.2559-.6709-.2559-.9269,0l-2.8811,2.881-2.8811-2.881Z" fill="#001531" fill-rule="evenodd" stroke-width="0"/></svg>