<svg width="20" height="20" viewBox="0 0 20 20" fill="none" xmlns="http://www.w3.org/2000/svg">
<path d="M1.54688 5.47924V14.9751L7.15381 18.2134L9.96973 19.865L18.4819 14.9877V5.37979L9.97804 0.472656L1.54688 5.47924Z" fill="#E8E7E9"/>
<path fill-rule="evenodd" clip-rule="evenodd" d="M9.5677 0.115059C9.82668 -0.038184 10.1509 -0.0383648 10.41 0.114589L18.2884 4.76445C18.821 5.07879 18.8138 5.83834 18.2753 6.14286L10.4786 10.5518V18.9245L18.0209 14.7415V8.5896C18.0209 8.32451 18.2401 8.10961 18.5105 8.10961C18.7808 8.10961 19 8.32451 19 8.5896V14.8349C19 15.1232 18.8417 15.3892 18.5858 15.5312L10.7171 19.8952C10.1732 20.1968 9.49951 19.8115 9.49951 19.1988V10.5449L4.33636 7.47691C4.10514 7.33952 4.0313 7.04436 4.17142 6.81764C4.31154 6.59093 4.61256 6.51852 4.84378 6.65591L9.99521 9.71694L17.5462 5.44691L9.98936 0.986805L1.97906 5.72671V14.745C2.79204 15.2077 5.46622 16.734 7.29851 17.829C7.52937 17.967 7.60246 18.2623 7.46176 18.4887C7.32105 18.715 7.01984 18.7867 6.78898 18.6487C4.89954 17.5196 2.10346 15.9256 1.40558 15.5286C1.15216 15.3844 1 15.1204 1 14.837V5.63639C1 5.35611 1.1496 5.09627 1.39433 4.95146L9.5677 0.115059Z" fill="#180B25"/>
</svg>
