<?xml version="1.0" encoding="UTF-8"?><svg id="Layer_1" xmlns="http://www.w3.org/2000/svg" viewBox="0 0 20 20"><circle cx="9.9688" cy="5" r="4.5" transform="translate(-.6722 1.6614) rotate(-9.2174)" fill="#001531" stroke-width="0"/><path d="M17.9943,17.6009c-.0029-.185-.0057-.3695-.0057-.553,0-3.0641-2.4054-5.5479-5.3728-5.5479h-5.2316c-2.9673,0-5.3728,2.4838-5.3728,5.5479,0,.1834-.0028.3679-.0057.5528-.0098.6351-.0197,1.2759.0851,1.8993h15.8182c.1048-.6233.0949-1.2641.0852-1.8991Z" fill="#001531" stroke-width="0"/><circle cx="9.9688" cy="5" r="4.5" transform="translate(-.6722 1.6614) rotate(-9.2174)" fill="rgba(255,255,255,.9)" stroke-width="0"/><path d="M17.9943,17.6009c-.0029-.185-.0057-.3695-.0057-.553,0-3.0641-2.4054-5.5479-5.3728-5.5479h-5.2316c-2.9673,0-5.3728,2.4838-5.3728,5.5479,0,.1834-.0028.3679-.0057.5528-.0098.6351-.0197,1.2759.0851,1.8993h15.8182c.1048-.6233.0949-1.2641.0852-1.8991Z" fill="rgba(255,255,255,.9)" stroke-width="0"/><path d="M2.0909,19.5c-.1354-.8049-.0795-1.6391-.0795-2.4521,0-3.0641,2.4055-5.5479,5.3728-5.5479h5.2316c2.9674,0,5.3728,2.4838,5.3728,5.5479,0,.813.0559,1.6472-.0795,2.4521M14.4688,5c0,2.4853-2.0148,4.5-4.5,4.5s-4.5-2.0147-4.5-4.5S7.4835.5,9.9688.5s4.5,2.0147,4.5,4.5Z" fill="none" stroke="#001531" stroke-linecap="round" stroke-linejoin="round"/></svg>