<?xml version="1.0" encoding="UTF-8"?><svg id="Layer_1" xmlns="http://www.w3.org/2000/svg" viewBox="0 0 20 20"><path d="M5.9686,7.2814V2.7641c0-.8847,.8457-1.4749,1.5795-1.0944l.6954,.3711c.4135,.2191,.8934,.2285,1.3256,.0377l1.9662-.8837c.7991-.3522,1.6832-.3522,2.4822,0l1.9651,.8837c.4332,.1908,.9121,.1813,1.3267-.0377l.6954-.3711c.7338-.3805,1.5795,.2002,1.5795,1.0944l-.0093,12.3643c0,2.4445-1.2313,3.9562-3.4513,3.9562H3.1941c.2456,0,.4838-.0323,.7105-.0928-.3743,.0614-.8041,.0606-1.2955-.0267-2.3275-.4136-2.2411-2.9339-2.1562-5.4078,.0241-.7013,.048-1.3988,.0168-2.0436-.1131-2.3354,.0846-3.5931,.3404-3.93,.2269-.2989,.4915-.2152,.9773-.0614,.0617,.0196,.1271,.0402,.1963,.0614,1.1303,.5,1.9579,.2349,2.6441-.2346,.472-.323,1.0276-.2063,1.3409-.0677Z" fill="#001531" fill-rule="evenodd"/><path d="M5.9686,7.2814V2.7641c0-.8847,.8457-1.4749,1.5795-1.0944l.6954,.3711c.4135,.2191,.8934,.2285,1.3256,.0377l1.9662-.8837c.7991-.3522,1.6832-.3522,2.4822,0l1.9651,.8837c.4332,.1908,.9121,.1813,1.3267-.0377l.6954-.3711c.7338-.3805,1.5795,.2002,1.5795,1.0944l-.0093,12.3643c0,2.4445-1.2313,3.9562-3.4513,3.9562H3.1941c.2456,0,.4838-.0323,.7105-.0928-.3743,.0614-.8041,.0606-1.2955-.0267-2.3275-.4136-2.2411-2.9339-2.1562-5.4078,.0241-.7013,.048-1.3988,.0168-2.0436-.1131-2.3354,.0846-3.5931,.3404-3.93,.2269-.2989,.4915-.2152,.9773-.0614,.0617,.0196,.1271,.0402,.1963,.0614,1.1303,.5,1.9579,.2349,2.6441-.2346,.472-.323,1.0276-.2063,1.3409-.0677Z" fill="rgba(255,255,255,.9)" fill-rule="evenodd"/><path d="M16.9416,1.7558c-.1669,.0459-.3919,.0617-.7246-.0261-.2203-.0836-.4726-.2026-.7593-.3409l-.1039-.0502c-.2605-.1259-.543-.2625-.8302-.3862-.6387-.275-1.3822-.5244-2.0812-.4331-.6984,.0912-1.424,.4409-2.0312,.7336l-.0237,.0115c-.3181,.1533-.6049,.2915-.8669,.3928-.2661,.1028-.4677,.1515-.6165,.1515-.1379,0-.2998-.0521-.4985-.1512-.097-.0483-.1931-.1027-.2947-.1607l-.0171-.0098c-.0928-.053-.1937-.1105-.2906-.1589-.4966-.2476-1.0716-.2607-1.5339,.049-.4649,.3114-.7212,.8842-.7212,1.6121,0,.5654,.0051,2.0037,.0115,3.7906-.0167-.0037-.0335-.007-.0505-.0098-.0696-.0114-.2028-.0247-.339,.0378l-1.3233,.5971c-.3229,.1421-.6711,.1321-.9687-.0254l-.6949-.3708-.0043-.0023c-1.0532-.5461-2.1789,.3121-2.1789,1.4641v7.8086c0,.8859,.358,1.6935,.9391,2.2813,.5734,.58,1.3725,.9394,2.2556,.9394,.0137,0,.0273-.0007,.0407-.002h12.9766c1.1521,0,2.116-.408,2.785-1.2031,.6614-.7861,.9937-1.9017,.9937-3.2464,0-.4342,.0013-1.6544,.0028-3.2098l.0019-1.8836c.0023-2.4037,.0046-5.1201,.0046-6.9688,0-.7881-.2986-1.4015-.8459-1.6847-.5358-.2773-1.1754-.1662-1.7092,.1929-.1804,.1214-.3249,.2122-.5033,.2612ZM3.2059,18.669v-.0021c.8229,0,1.3778-.3648,1.7524-.8293,.376-.4662,.5673-1.0327,.6273-1.4162-.0001-1.9564-.0094-4.9196-.0188-7.5899l-.0042-1.1691c-.042-.0198-.0804-.0365-.1144-.0496-.0093-.0036-.0176-.0066-.0249-.0091l-1.2465,.5624c-.5409,.2388-1.1516,.2297-1.6806-.0505l-.0011-.0006-.6931-.3698c-.4143-.213-.9804,.0882-.9804,.7255v7.8086c0,.6549,.2639,1.2541,.6984,1.6937,.4237,.4285,1.0155,.6959,1.6746,.6959h.0112Zm13.0061-.002H5.3171c.1004-.0967,.193-.1986,.2779-.304,.4963-.6153,.7361-1.3471,.8081-1.8509l.0042-.0296v-.0298c0-1.9578-.0094-4.9398-.0188-7.6241l-.0063-1.7848v-.001c-.0069-1.9095-.0124-3.4617-.0124-4.0534,0-.5382,.1829-.8052,.3531-.9192,.1728-.1158,.4292-.14,.7169,.0035,.0758,.0378,.1583,.0849,.2586,.1421l.0089,.0051c.1001,.0571,.2148,.1223,.3351,.1822,.2357,.1175,.5342,.2368,.8618,.2368,.3007,0,.6151-.0924,.9098-.2062,.2928-.1132,.6046-.2635,.9086-.41h0s.0185-.0089,.0185-.0089c.6439-.3103,1.2546-.599,1.8067-.6711,.4636-.0606,1.0293,.1046,1.654,.3735,.2696,.1161,.535,.2444,.7971,.3711l.1051,.0508c.2903,.14,.5812,.2781,.8462,.3771l.0175,.0066,.0181,.0049c.4638,.1262,.8431,.1206,1.1713,.0304,.3198-.0878,.5621-.2495,.743-.3713,.3628-.2441,.6815-.2477,.8799-.145,.1869,.0968,.3984,.3578,.3984,.9448,0,1.8482-.0023,4.5642-.0047,6.968l-.0018,1.8865v.0372c-.0016,1.5362-.0028,2.7396-.0028,3.1705,0,1.2158-.3007,2.1171-.7978,2.7078-.4895,.5818-1.2096,.9106-2.1592,.9106Zm-6.3884-6.0074c0-.2677,.2146-.4848,.4794-.4848h5.1925c.2647,0,.4793,.2171,.4793,.4848s-.2146,.4849-.4793,.4849h-5.1925c-.2648,0-.4794-.2171-.4794-.4849Zm6.0098-6.0603c.1872-.1893,.1872-.4963,0-.6856s-.4907-.1893-.6779,0l-2.8698,2.9026-1.2292-1.2432c-.1872-.1893-.4907-.1893-.6779,0-.1872,.1893-.1872,.4963,0,.6856l1.5681,1.586c.0899,.0909,.2118,.142,.339,.142,.1271,0,.249-.0511,.3389-.142l3.2088-3.2454Z" fill="#001531" fill-rule="evenodd"/></svg>