<svg width="20" height="20" viewBox="0 0 20 20" fill="none" xmlns="http://www.w3.org/2000/svg">
<g clip-path="url(#clip0_9266_239075)">
<path d="M2.38201 2H17.6178C18.6652 2 19.5223 2.89983 19.5223 3.99963V15.9974C19.5223 17.0972 18.6652 17.9971 17.6178 17.9971H2.38201C1.33455 17.9971 0.477539 17.0972 0.477539 15.9974V3.99963C0.477539 2.89983 1.33455 2 2.38201 2Z" fill="#E8E7E9"/>
<path fill-rule="evenodd" clip-rule="evenodd" d="M19.9999 15.9979C19.9999 17.3747 18.9291 18.499 17.6178 18.499H2.38207C1.07084 18.499 0 17.3747 0 15.9979L6.16461e-07 3.99831C0.000938276 2.62239 1.07142 1.49902 2.38207 1.49902H17.6178C18.9254 1.49902 19.9939 2.61711 19.9999 3.98861C19.9999 3.99244 19.9999 3.99628 19.9999 4.00012V15.9979ZM0.974846 3.75287C1.08822 3.04622 1.67853 2.50196 2.38207 2.50196H17.6178C18.3214 2.50196 18.9117 3.04624 19.0251 3.75293L10 10.3862L0.974846 3.75287ZM0.955204 4.96267L9.72611 11.4091C9.89056 11.53 10.1094 11.53 10.2739 11.4091L19.0447 4.96273V15.9979C19.0447 16.8208 18.4015 17.4961 17.6178 17.4961H2.38207C1.59839 17.4961 0.955204 16.8208 0.955204 15.9979V4.96267Z" fill="#180B25"/>
</g>
<defs>
<clipPath id="clip0_9266_239075">
<rect width="20" height="20" fill="white"/>
</clipPath>
</defs>
</svg>
