<?xml version="1.0" encoding="UTF-8"?><svg id="Layer_1" xmlns="http://www.w3.org/2000/svg" viewBox="0 0 30 30"><path d="M24.7395,28.3504H4.8224c-1.7676,0-4.0724-1.4476-4.0724-4.022v-11.3407c0-1.5746,1.0626-2.3324,2.2279-1.9239.8881.3113.9488.7059,1.93.8546,1.0997.1667,2.8022-1.081,3.2359-1.081.347,0,.8362.2526.8692.4289,0-2.9993-.0235-6.3852-.0235-6.9233,0-1.5374,1.5162-2.133,2.4369-1.572.2451.1493.5699.2821.9987.5112.4953.2648,1.1888.387,1.8381.0999,1.063-.47,1.8399-.8346,2.8484-1.2747,1.39-.6067,2.7511-.545,3.6235-.1881.5453.2231,2.1612.9811,2.8835,1.2923.345.1486,1.1805.5816,2.2435.0881.3002-.1394.5461-.2996,1.0982-.5757,1.0477-.5241,2.2896.314,2.2896,1.6356v18.2233c0,4.7039-3.0551,5.5566-4.5105,5.7675Z" fill="#001531" stroke-width="0"/><path d="M24.7395,28.3504H4.8224c-1.7676,0-4.0724-1.4476-4.0724-4.022v-11.3407c0-1.5746,1.0626-2.3324,2.2279-1.9239.8881.3113.9488.7059,1.93.8546,1.0997.1667,2.8022-1.081,3.2359-1.081.347,0,.8362.2526.8692.4289,0-2.9993-.0235-6.3852-.0235-6.9233,0-1.5374,1.5162-2.133,2.4369-1.572.2451.1493.5699.2821.9987.5112.4953.2648,1.1888.387,1.8381.0999,1.063-.47,1.8399-.8346,2.8484-1.2747,1.39-.6067,2.7511-.545,3.6235-.1881.5453.2231,2.1612.9811,2.8835,1.2923.345.1486,1.1805.5816,2.2435.0881.3002-.1394.5461-.2996,1.0982-.5757,1.0477-.5241,2.2896.314,2.2896,1.6356v18.2233c0,4.7039-3.0551,5.5566-4.5105,5.7675Z" fill="rgba(255,255,255,.9)" stroke-width="0"/><path d="M20.9245,1.4565c-1.0065-.4118-2.5082-.4641-4.0128.1926-.5516.2407-1.0442.4635-1.5498.6921h0c-.4121.1864-.8327.3766-1.3007.5836-.4764.2106-1.0061.1272-1.4004-.0835-.2033-.1087-.3847-.1968-.5382-.2714l-.0469-.0228c-.1683-.0819-.2898-.1426-.389-.2031-1.242-.7567-3.1971.0575-3.1971,1.999,0,.1612.0021.5756.005,1.1563v.0009c.002.3938.0044.8641.0067,1.3837.0047,1.0386.0095,2.2766.0111,3.5025-.1201-.0303-.2455-.0491-.3686-.0491-.1501,0-.2959.0484-.3939.0851-.1117.0418-.2343.0977-.3568.1567-.1207.058-.232.1139-.3458.1711h-.0001c-.1482.0744-.3009.1511-.4849.2379-.2996.1412-.6017.2688-.8857.3516-.2893.0843-.5215.1104-.6938.0843-.4078-.0618-.6039-.1668-.8091-.2956-.0332-.0208-.0677-.0431-.104-.0666h0c-.2143-.1386-.4908-.3173-.9264-.47-.7252-.2542-1.4692-.1563-2.0323.3026-.5563.4534-.8611,1.1967-.8611,2.0932v11.3407c0,2.9199,2.6034,4.522,4.5724,4.522h19.9532l.0357-.0052c.7654-.1109,2.0061-.3965,3.0585-1.3174,1.0714-.9375,1.8802-2.4734,1.8802-4.9449V4.3596c0-1.6192-1.5691-2.8052-3.0133-2.0828-.2847.1424-.4909.2552-.66.3478-.1709.0936-.2927.1602-.4251.2216-.7882.3659-1.3977.0981-1.7671-.0642-.0237-.0104-.0463-.0203-.068-.0296-.3048-.1313-.813-.3628-1.3286-.5975-.6289-.2864-1.2687-.5777-1.5634-.6983ZM8.472,11.4327c.0151.0075.0288.0149.041.0219,0,2.0244-.0015,4.3409-.0029,6.559l-.0002.3862v.0082c-.0014,2.1426-.0027,4.1704-.0027,5.7247,0,1.8304-1.262,3.7177-3.6848,3.7177-1.5663,0-3.5724-1.293-3.5724-3.522v-11.3407c0-.6781.2265-1.101.4928-1.318.2595-.2116.6295-.2884,1.0697-.1341.3175.1113.4971.2268.705.3605.0401.0257.0813.0522.1247.0795.2924.1835.6173.3502,1.1908.4372.3776.0572.7706-.0102,1.1234-.1129.358-.1043.7148-.2574,1.0325-.4072.1745-.0823.3692-.1796.5398-.2649h.0001c.1146-.0574.2184-.1092.2979-.1475.1153-.0554.2054-.0956.2741-.1214.0325-.0122.0526-.0181.0624-.0208.03.0021.0723.0088.1244.0233.0629.0174.1274.0426.1844.0713ZM24.7029,27.8504H7.7946c1.1352-.9252,1.7126-2.3586,1.7126-3.7177,0-1.5556.0013-3.5858.0027-5.731v-.0042l.0003-.3832c.0015-2.2872.0029-4.6794.0029-6.748,0-1.5008-.0059-3.098-.0118-4.3869-.0024-.5231-.0048-.9948-.0068-1.3887v-.0022s0-.0009,0-.0009c-.0029-.5765-.005-.9857-.005-1.1446,0-1.1333,1.0773-1.5103,1.6768-1.145.1458.0889.3093.1692.4718.2483l.0466.0227h0c.1544.075.3192.1551.5047.2543.5965.3188,1.4537.4798,2.276.1162.4907-.217.9123-.4077,1.321-.5926h.0002c.4939-.2235.9691-.4385,1.525-.6811,1.2755-.5567,2.4959-.4856,3.2342-.1836.2969.1215.8806.3878,1.4766.6598.5164.2356,1.042.4754,1.3984.6289.0203.0087.0432.0189.0686.0303h0c.3893.1736,1.3748.6131,2.5831.0521.1636-.076.3116-.157.4719-.2448h.0001s.0123-.0067.0123-.0067c.1669-.0914.3597-.1968.627-.3305.6512-.3257,1.566.1643,1.566,1.1885v18.2233c0,2.2324-.7188,3.4749-1.5387,4.1924-.825.7218-1.8195.9719-2.5084,1.0751ZM23.5869,10.7308c.2343-.2343.2342-.6142-.0001-.8485-.2344-.2343-.6143-.2342-.8486.0002l-4.3585,4.3602-1.913-1.9138c-.2342-.2343-.6141-.2344-.8485-.0001-.2344.2342-.2344.6141-.0002.8485l2.3374,2.3383c.1125.1125.2652.1758.4243.1758.1592,0,.3119-.0633.4244-.1758l4.7828-4.7848ZM15.4434,19.1464c-.3314,0-.6.2687-.6.6s.2686.6.6.6h7.7397c.3314,0,.6-.2686.6-.6s-.2686-.6-.6-.6h-7.7397Z" fill="#001531" fill-rule="evenodd" stroke-width="0"/></svg>