<?xml version="1.0" encoding="UTF-8"?><svg id="Layer_1" xmlns="http://www.w3.org/2000/svg" viewBox="0 0 21 20"><path d="M15.1323,7.3202c0,1.6779-.5653,3.224-1.5161,4.4587l1.2366,1.2672,.5045-.5041s4.1188,4.19,4.4639,4.7082c.3451,.5182,.3555,1.1377-.3604,1.8543-.801,.8017-1.6241,.3861-1.9032,.1727-.2792-.2134-2.9157-2.8085-4.5215-4.4157l.5001-.4998-1.2496-1.2505c-1.2395,.9587-2.7951,1.5292-4.4841,1.5292C3.7543,14.6404,.4727,11.363,.4727,7.3202S3.7543,0,7.8025,0s7.3298,3.2774,7.3298,7.3202Z" fill="#180b25" fill-rule="evenodd"/><path d="M15.1323,7.3202c0,1.6779-.5653,3.224-1.5161,4.4587l1.2366,1.2672,.5045-.5041s4.1188,4.19,4.4639,4.7082c.3451,.5182,.3555,1.1377-.3604,1.8543-.801,.8017-1.6241,.3861-1.9032,.1727-.2792-.2134-2.9157-2.8085-4.5215-4.4157l.5001-.4998-1.2496-1.2505c-1.2395,.9587-2.7951,1.5292-4.4841,1.5292C3.7543,14.6404,.4727,11.363,.4727,7.3202S3.7543,0,7.8025,0s7.3298,3.2774,7.3298,7.3202Z" fill="rgba(255,255,255,.9)" fill-rule="evenodd"/><path d="M7.8025,13.795c3.5835,0,6.4852-2.9007,6.4852-6.4748S11.386,.8454,7.8025,.8454,1.3173,3.7461,1.3173,7.3202s2.9017,6.4748,6.4852,6.4748Zm0,.8454c1.5442,0,2.9769-.4769,4.1585-1.2913l.9953,.9961-.2181,.2179c-.0793,.0793-.1239,.1868-.1239,.299-.0001,.1122,.0444,.2198,.1237,.2991,.8039,.8047,1.8656,1.8564,2.7614,2.7338,.4478,.4386,.855,.8345,1.1682,1.1345,.3011,.2885,.5404,.5129,.6341,.5845,.1821,.1392,.5318,.3399,.9748,.3794,.465,.0414,.9942-.0995,1.4834-.5892,.3994-.3997,.637-.8132,.6976-1.2412,.0614-.4346-.0684-.822-.2845-1.1464-.0623-.0936-.1852-.238-.3265-.3973-.1491-.168-.341-.3772-.5594-.6111-.437-.4682-.9861-1.0425-1.523-1.5992-.5372-.557-1.0635-1.0976-1.4554-1.4989-.196-.2006-.3584-.3665-.4719-.4823l-.178-.1814c-.079-.0803-.1866-.1258-.2992-.1263-.1125-.0005-.2206,.044-.3002,.1236l-.2203,.2201-.9861-1.0105c.8071-1.1762,1.2793-2.5996,1.2793-4.1331C15.1323,3.2774,11.8506,0,7.8025,0S.4727,3.2774,.4727,7.3202s3.2817,7.3202,7.3298,7.3202Zm6.474-1.6144l-.9085-.931-.067,.066c-.2192,.2481-.455,.4813-.7056,.6978l.9235,.9242,.7576-.757Zm-.6422,1.8363l1.7204-1.7191c.0976,.0997,.2159,.2206,.35,.3579,.3911,.4005,.9161,.9398,1.4517,1.4951,.5359,.5556,1.0812,1.126,1.5135,1.5892,.2164,.2317,.4028,.435,.5451,.5953,.1499,.169,.2313,.2689,.2552,.3048,.1291,.1938,.177,.3752,.151,.559-.027,.1905-.142,.4451-.4586,.7619-.3118,.3121-.5946,.3642-.8112,.3449-.2387-.0213-.4401-.1351-.5371-.2092-.0002-.0002-.0017-.0013-.0044-.0035l-.0119-.0099c-.01-.0086-.0229-.0198-.0388-.0339-.032-.0284-.073-.0658-.1228-.1119-.0995-.0923-.2298-.2157-.3848-.3642-.3099-.2968-.7146-.6902-1.1615-1.1279-.7864-.7703-1.7012-1.6754-2.4558-2.4285Z" fill="#180b25" fill-rule="evenodd"/></svg>