<?xml version="1.0" encoding="UTF-8"?><svg id="Layer_1" xmlns="http://www.w3.org/2000/svg" viewBox="0 0 20 20"><path d="M19.75,10c0,5.3848-4.3652,9.75-9.75,9.75S.25,15.3848.25,10,4.6152.25,10,.25s9.75,4.3652,9.75,9.75Z" fill="#001531" stroke-width="0"/><path d="M19.75,10c0,5.3848-4.3652,9.75-9.75,9.75S.25,15.3848.25,10,4.6152.25,10,.25s9.75,4.3652,9.75,9.75Z" fill="rgba(255,255,255,.9)" stroke-width="0"/><path d="M19.5,10C19.5,4.7533,15.2467.5,10,.5M10,19.5c-.2363,0-.4707-.0086-.7027-.0256M10,.5C4.8537.5.6631,4.5921.5046,9.7M10,.5c1.4424,0,2.6675,2.7165,3.1359,6.2684.1027.7277.1682,1.4941.1964,2.2896M10,.5c-1.4322,0-2.6687,2.7165-3.136,6.2684-.141,1.0086-.2155,2.0954-.2155,3.2407s.0745,2.2417.2155,3.2502c.3274,2.465,1.2764,4.9064,2.3431,6.1196l.0903.0955M9.55,9.7H.5046M.5046,9.7c-.0031.0996-.0046.1996-.0046.3,0,5.0104,3.8787,9.1148,8.7973,9.4744M15.5228,19.3154c-.556,0-3.4759-2.3629-3.4759-4.8367,0-1.9196,1.5561-3.4758,3.4759-3.4758s3.4759,1.5562,3.4759,3.4758c0,2.4738-2.92,4.8367-3.4759,4.8367Z" fill="none" stroke="#001531" stroke-linecap="round"/><path d="M15.5,14.3896h.0473" fill="none" stroke="#001531" stroke-linecap="round" stroke-linejoin="round" stroke-width="1.5"/></svg>