<?xml version="1.0" encoding="UTF-8"?><svg id="Layer_1" xmlns="http://www.w3.org/2000/svg" viewBox="0 0 20 20"><path d="M2,3.3531c0-1.5754,1.2641-2.8524,2.8235-2.8524h7.4315c.3306-.0108.6501.1212.8785.3629l2.1731,2.2997,2.3323,2.4565c.2317.244.3611.5691.3611.9072v10.1207c0,1.5753-1.2641,2.8524-2.8235,2.8524H4.8235c-1.5594,0-2.8235-1.2771-2.8235-2.8524V3.3531Z" fill="#001531" stroke-width="0"/><path d="M2,3.3531c0-1.5754,1.2641-2.8524,2.8235-2.8524h7.4315c.3306-.0108.6501.1212.8785.3629l2.1731,2.2997,2.3323,2.4565c.2317.244.3611.5691.3611.9072v10.1207c0,1.5753-1.2641,2.8524-2.8235,2.8524H4.8235c-1.5594,0-2.8235-1.2771-2.8235-2.8524V3.3531Z" fill="rgba(255,255,255,.9)" stroke-width="0"/><path d="M13.4952.5183C13.1718.176,12.718-.0122,12.2476.0006h-7.7476C2.8427.0006,1.5,1.3451,1.5,3.0028v13.9951c0,1.6576,1.3427,3.0021,3,3.0021h11c1.6573,0,3-1.3445,3-3.0021V6.5269c0-.4664-.179-.915-.5001-1.2532l-2.3299-2.4539-.0008-.0009-2.174-2.3007ZM4.5,1.0006h7.255v3.5246c0,1.3813,1.1189,2.5017,2.5,2.5017h3.245v9.971c0,1.1061-.8958,2.0021-2,2.0021H4.5c-1.1042,0-2-.896-2-2.0021V3.0028c0-1.1062.8958-2.0021,2-2.0021ZM17.2747,5.9623c.0197.0207.0381.0423.0553.0646h-3.075c-.828,0-1.5-.6719-1.5-1.5017V1.1914l.0134.0137,2.1748,2.3015.0008.0009,2.3307,2.4548ZM8.7725,8.8095c.0329-.2742-.1628-.5231-.4369-.556-.2742-.0329-.5231.1628-.556.437l-.1601,1.3357h-1.3317c-.2761,0-.5.2239-.5.5s.2239.5.5.5h1.2119l-.2933,2.4472h-1.2063c-.2761,0-.5.2239-.5.5s.2239.5.5.5h1.0865l-.1459,1.2171c-.0329.2742.1628.5231.4369.5559.2742.0329.5231-.1627.5559-.4369l.1601-1.3361h2.3032l-.1459,1.2171c-.0328.2742.1628.5231.437.5559.2742.0329.5231-.1627.5559-.4369l.1602-1.3361h1.3083c.2761,0,.5-.2238.5-.5s-.2239-.5-.5-.5h-1.1885l.2933-2.4472h1.1829c.2761,0,.5-.2238.5-.5s-.2239-.5-.5-.5h-1.063l.1458-1.2167c.0329-.2742-.1628-.5231-.4369-.556-.2742-.0329-.5231.1628-.556.437l-.1601,1.3357h-2.3031l.1458-1.2167ZM8.2135,13.4734l.2933-2.4472h2.3032l-.2933,2.4472h-2.3032Z" fill="#001531" fill-rule="evenodd" stroke-width="0"/></svg>