<?xml version="1.0" encoding="UTF-8"?><svg id="Layer_1" xmlns="http://www.w3.org/2000/svg" xmlns:xlink="http://www.w3.org/1999/xlink" viewBox="0 0 20 20"><defs><clipPath id="clippath"><rect width="20" height="20" fill="none"/></clipPath></defs><g clip-path="url(#clippath)"><g><path d="M12.2041,4.7899c-.1836,.1874-.2865,.4392-.2865,.7016s.1029,.5142,.2865,.7016l1.6036,1.6036c.1874,.1836,.4393,.2865,.7016,.2865s.5142-.1029,.7016-.2865l3.7784-3.7785c.504,1.1137,.6566,2.3545,.4375,3.5571-.2191,1.2026-.7996,2.3099-1.6639,3.1743-.8644,.8644-1.9717,1.4448-3.1743,1.6639-1.2026,.2191-2.4434,.0665-3.5571-.4374l-6.9255,6.9255c-.3987,.3987-.9395,.6227-1.5034,.6227s-1.1046-.224-1.5034-.6227c-.3987-.3988-.6227-.9395-.6227-1.5034,0-.5639,.224-1.1047,.6227-1.5034l6.9255-6.9255c-.504-1.1137-.6566-2.3545-.4374-3.5571,.2191-1.2026,.7995-2.3099,1.6639-3.1742,.8643-.8644,1.9717-1.4448,3.1742-1.6639,1.2026-.2191,2.4434-.0665,3.5571,.4374l-3.7785,3.7785Z" fill="#e8e7e9"/><path d="M15.1247,1.1952c-.8434-.2583-1.7398-.3124-2.6142-.1531-1.1074,.2018-2.127,.7362-2.9229,1.5321-.7959,.7959-1.3304,1.8155-1.5321,2.9229-.2018,1.1074-.0613,2.2499,.4028,3.2754,.0817,.1806,.043,.3929-.0971,.533L1.4356,16.2311c-.3094,.3094-.4832,.729-.4832,1.1666s.1738,.8573,.4832,1.1667c.3094,.3094,.7291,.4832,1.1666,.4832s.8572-.1738,1.1667-.4832l6.9255-6.9255c.1402-.1402,.3525-.1789,.5331-.0972,1.0255,.4641,2.168,.6046,3.2754,.4028,1.1074-.2017,2.127-.7362,2.9229-1.5321,.7959-.7959,1.3304-1.8155,1.5321-2.9229,.1594-.8745,.1053-1.7708-.1531-2.6142l-3.2609,3.261c-.2764,.2709-.648,.4226-1.035,.4226s-.7585-.1517-1.0349-.4226l-.0034-.0033-1.6069-1.607c-.2709-.2764-.4226-.6479-.4226-1.0349s.1517-.7585,.4226-1.0349l.0033-.0034,3.2577-3.2576ZM12.3398,.1051c1.2978-.2365,2.6369-.0718,3.8388,.4721,.1424,.0644,.2441,.1947,.2721,.3485,.028,.1538-.0212,.3115-.1317,.4221l-3.7766,3.7765c-.0955,.0982-.1489,.2298-.1489,.3668s.0534,.2686,.1489,.3668l1.5997,1.5997c.0982,.0955,.2298,.149,.3668,.149,.1371,0,.2687-.0535,.3668-.149,.0005-.0005,.001-.0009,.0015-.0014l3.7751-3.7751c.1105-.1105,.2682-.1598,.422-.1318,.1538,.028,.2841,.1297,.3485,.2722,.5439,1.2019,.7086,2.541,.4721,3.8388-.2365,1.2978-.8629,2.4928-1.7957,3.4256-.9328,.9329-2.1277,1.5592-3.4256,1.7957-1.1885,.2165-2.4116,.0967-3.5322-.3427l-6.699,6.699c-.488,.488-1.1499,.7622-1.8401,.7622s-1.3521-.2742-1.8401-.7622c-.488-.488-.7622-1.1499-.7622-1.8401s.2742-1.352,.7622-1.8401l6.699-6.699c-.4394-1.1206-.5593-2.3437-.3427-3.5322,.2365-1.2978,.8628-2.4928,1.7957-3.4256,.9328-.9328,2.1277-1.5592,3.4256-1.7957Z" fill="#180b25" fill-rule="evenodd"/></g></g></svg>