<?xml version="1.0" encoding="UTF-8"?><svg id="Layer_1" xmlns="http://www.w3.org/2000/svg" viewBox="0 0 20 20"><path d="M.5,4.5c0-1.3807,1.1193-2.5,2.5-2.5h14c1.3807,0,2.5,1.1193,2.5,2.5v11c0,1.3807-1.1193,2.5-2.5,2.5H3c-1.3807,0-2.5-1.1193-2.5-2.5V4.5Z" fill="#001531" stroke-width="0"/><path d="M.5,4.5c0-1.3807,1.1193-2.5,2.5-2.5h14c1.3807,0,2.5,1.1193,2.5,2.5v11c0,1.3807-1.1193,2.5-2.5,2.5H3c-1.3807,0-2.5-1.1193-2.5-2.5V4.5Z" fill="rgba(255,255,255,.9)" stroke-width="0"/><path d="M3,2.5h14c1.1046,0,2,.8954,2,2v11c0,1.1046-.8954,2-2,2H3c-1.1046,0-2-.8954-2-2V4.5c0-1.1046.8954-2,2-2ZM0,4.5C0,2.8431,1.3432,1.5,3,1.5h14c1.6569,0,3,1.3431,3,3v11c0,1.6569-1.3431,3-3,3H3c-1.6568,0-3-1.3431-3-3V4.5ZM4.7982,6.6567c-.215-.1733-.5297-.1396-.7031.0754-.1733.215-.1396.5297.0754.7031l4.2046,3.3904h0l.0031.0025c.9698.7693,2.3356.7693,3.3054,0h0l.0047-.0038,4.1694-3.3904c.2143-.1742.2467-.4891.0725-.7034-.1742-.2143-.4891-.2467-.7034-.0725l-4.1669,3.3883c-.6051.4784-1.4538.4782-2.0587-.0006l-4.203-3.389Z" fill="#001531" fill-rule="evenodd" stroke-width="0"/></svg>