<?xml version="1.0" encoding="UTF-8"?><svg id="Layer_1" xmlns="http://www.w3.org/2000/svg" viewBox="0 0 20 20"><path d="M11.7133,.5363L2.3696,11.2129c-.1805,.2063-.034,.5291,.24,.5291H7.5007c.1174,0,.2126,.0952,.2126,.2126v7.3002c0,.294,.3639,.4315,.5583,.211l9.3611-10.6206c.1815-.206,.0353-.5299-.2393-.5299h-4.9085c-.1174,0-.2126-.0952-.2126-.2126V.7464c0-.2945-.3651-.4317-.559-.2101Z" fill="#180b25"/><path d="M11.7133,.5363L2.3696,11.2129c-.1805,.2063-.034,.5291,.24,.5291H7.5007c.1174,0,.2126,.0952,.2126,.2126v7.3002c0,.294,.3639,.4315,.5583,.211l9.3611-10.6206c.1815-.206,.0353-.5299-.2393-.5299h-4.9085c-.1174,0-.2126-.0952-.2126-.2126V.7464c0-.2945-.3651-.4317-.559-.2101Z" fill="rgba(255,255,255,.9)"/><path d="M11.8454,1.0287L2.8424,11.3161H7.4991c.3523,0,.6379,.2856,.6379,.6379v7.0188l9.0193-10.2328h-4.673c-.3523,0-.6379-.2856-.6379-.6379V1.0287Zm-.4538-.7731c.4526-.5171,1.3044-.197,1.3044,.4902V7.8894h4.6958c.6407,0,.982,.7557,.5583,1.2364l-9.3611,10.6206c-.4535,.5145-1.3026,.1937-1.3026-.4922v-7.0875H2.608c-.6395,0-.9812-.7532-.5601-1.2345L11.3916,.2556Z" fill="#180b25" fill-rule="evenodd"/></svg>