<?xml version="1.0" encoding="UTF-8"?><svg id="Icon" xmlns="http://www.w3.org/2000/svg" viewBox="0 0 20 20"><g id="Solid_Fill"><rect x=".4258" y=".9258" width="19.149" height="7.6596" rx="1.9149" ry="1.9149" fill="#001531"/><rect x=".4258" y="11.4258" width="19.149" height="7.6596" rx="1.9149" ry="1.9149" fill="#001531"/></g><g id="Opacity_Fill"><rect x=".4258" y=".9258" width="19.149" height="7.6596" rx="1.9149" ry="1.9149" fill="rgba(255,255,255,.9)"/><rect x=".4258" y="11.4258" width="19.149" height="7.6596" rx="1.9149" ry="1.9149" fill="rgba(255,255,255,.9)"/></g><g id="Outline"><path d="M4.2645,3.957h-.0096c-.4406,0-.7979,.3572-.7979,.7979s.3572,.7979,.7979,.7979h.0096c.4407,0,.7979-.3572,.7979-.7979s-.3572-.7979-.7979-.7979Z" fill="#001531" fill-rule="evenodd"/><path d="M17.6596,.5H2.3405C1.0479,.5,0,1.5465,0,2.8375v3.825c0,1.291,1.0479,2.3375,2.3405,2.3375h15.3192c1.2926,0,2.3405-1.0465,2.3405-2.3375V2.8375c0-1.291-1.0479-2.3375-2.3405-2.3375Zm1.4894,6.1625c0,.8215-.6668,1.4875-1.4894,1.4875H2.3405c-.8226,0-1.4894-.666-1.4894-1.4875V2.8375c0-.8215,.6668-1.4875,1.4894-1.4875h15.3192c.8226,0,1.4894,.666,1.4894,1.4875v3.825Z" fill="#001531" fill-rule="evenodd"/><path d="M4.2645,14.457h-.0096c-.4406,0-.7979,.3573-.7979,.7979s.3572,.7979,.7979,.7979h.0096c.4407,0,.7979-.3572,.7979-.7979s-.3572-.7979-.7979-.7979Z" fill="#001531" fill-rule="evenodd"/><path d="M17.6596,11H2.3405c-1.2926,0-2.3405,1.0465-2.3405,2.3375v3.825c0,1.291,1.0479,2.3375,2.3405,2.3375h15.3192c1.2926,0,2.3405-1.0465,2.3405-2.3375v-3.825c0-1.291-1.0479-2.3375-2.3405-2.3375Zm1.4894,6.1625c0,.8215-.6668,1.4875-1.4894,1.4875H2.3405c-.8226,0-1.4894-.666-1.4894-1.4875v-3.825c0-.8215,.6668-1.4875,1.4894-1.4875h15.3192c.8226,0,1.4894,.666,1.4894,1.4875v3.825Z" fill="#001531" fill-rule="evenodd"/></g></svg>