<?xml version="1.0" encoding="UTF-8"?><svg id="Layer_2" xmlns="http://www.w3.org/2000/svg" xmlns:xlink="http://www.w3.org/1999/xlink" viewBox="0 0 20 20"><defs><clipPath id="clippath"><rect width="20" height="20" fill="none"/></clipPath></defs><g id="Layer_1-2"><g clip-path="url(#clippath)"><g><path d="M.3506,5.0726H3.9493V15.3126l.011,2.0278c.0332,.4546,.2373,.8798,.5711,1.1902,.3339,.3103,.7728,.4828,1.2286,.4828,.1126,0,.2241-.0105,.3333-.031-.1108,.0215-.2241,.0328-.3385,.0332h12.0895c.478-.0019,.9359-.1926,1.2739-.5306,.338-.338,.5287-.7959,.5306-1.2739v-1.8574H7.5593l-.0965-.0011h8.5856V2.7927c-.0019-.478-.1926-.9359-.5306-1.2739-.338-.338-.7959-.5287-1.2739-.5306l-12.0073-.0008c-.0287-.0014-.0574-.0021-.0863-.0021-.4558,0-.8948,.1725-1.2286,.4829-.3339,.3104-.5379,.7355-.5711,1.1902v2.4142Z" fill="#e8e7e9" fill-rule="evenodd"/><path d="M3.5987,2.7933v1.9287H.7018V2.6722c.0295-.3617,.1932-.6994,.4591-.9467,.2602-.2419,.5997-.3798,.954-.3885,.0108,.001,.0219,.0016,.033,.0016,.3845,.001,.7524,.1549,1.025,.4279,.2721,.2725,.4252,.6417,.4258,1.0268ZM.6831,1.2115c.3988-.3707,.9231-.5767,1.4675-.5767,.0315,0,.063,.0007,.0943,.0021l12.0006,.0008c.5705,.0023,1.1171,.2299,1.5206,.6334,.4035,.4035,.6311,.95,.6334,1.5206V15.002h3.2495c.1938,0,.3509,.1571,.3509,.3509v1.8588c-.0023,.5705-.2299,1.1171-.6334,1.5206-.4035,.4035-.9501,.6311-1.5206,.6334H5.7551c-.015,0-.0298-.0009-.0443-.0028-.527-.0118-1.0321-.2165-1.4191-.5762-.3988-.3707-.6425-.8786-.6822-1.4216-.0006-.0078-.0009-.0157-.0009-.0235l-.0116-2.0278c0-.0126,.0005-.0251,.0017-.0374V5.4238H.3509c-.1938,0-.3509-.1571-.3509-.3509V2.6587c0-.0085,.0003-.0171,.0009-.0256,.0397-.543,.2834-1.0509,.6822-1.4216ZM6.7809,18.2361c.2638-.2638,.4163-.6181,.4272-.9901v-1.8931c0-.1938,.1571-.3509,.3509-.3509H15.6978V2.7938c-.0017-.3852-.1554-.7542-.4278-1.0266-.2724-.2724-.6414-.4262-1.0266-.4279l-10.4993-.0007c.324,.3557,.5209,.8111,.5563,1.2944,.0006,.0085,.0009,.0171,.0009,.0256v2.4142c0,.0079-.0003,.0158-.0008,.0236V15.3528c0,.0104-.0005,.0207-.0013,.0309l.0112,1.9414c.0293,.362,.193,.7002,.4592,.9476,.2689,.25,.6225,.389,.9897,.389,.0999,0,.1987-.0103,.2951-.0303,.2731-.0586,.526-.1948,.7265-.3953Zm1.1281-.871c-.0355,.4853-.2339,.9425-.5603,1.2988h10.4951c.3852-.0017,.7542-.1555,1.0266-.4278,.2723-.2724,.4261-.6413,.4278-1.0264v-1.5059H7.9105v1.5079c0,.0146-.0003,.0292-.0006,.0437v.0842c0,.0085-.0003,.017-.0009,.0255Zm-2.1474-8.4966c0-2.3402,1.8971-4.2373,4.2373-4.2373s4.2373,1.8971,4.2373,4.2373-1.8971,4.2373-4.2373,4.2373-4.2373-1.8971-4.2373-4.2373ZM9.9988,3.9295c-2.7278,0-4.9391,2.2113-4.9391,4.939s2.2113,4.9391,4.9391,4.9391,4.9391-2.2113,4.9391-4.9391-2.2113-4.939-4.9391-4.939Zm.0971,2.1732c.1454,0,.2632,.1178,.2632,.2632v.0626c.3702,.0524,.7496,.2033,1.0904,.4801,.1129,.0916,.1301,.2574,.0384,.3702-.0916,.1128-.2573,.13-.3702,.0384-.2393-.1944-.5015-.3069-.7586-.3554v1.6323c.2804,.0707,.5797,.1594,.8221,.3107,.159,.0992,.3026,.23,.4052,.4076,.1029,.1782,.1555,.3878,.1555,.6304,0,.6884-.517,1.0474-.9377,1.2108-.1279,.0497-.2836,.0726-.4451,.078v.2805c0,.1453-.1178,.2632-.2632,.2632-.1453,0-.2631-.1179-.2631-.2632v-.3148c-.088-.0133-.1772-.0302-.2659-.0508-.4451-.1028-.9414-.3096-1.2179-.6535-.0911-.1132-.0731-.2789,.0401-.37,.1133-.0911,.2789-.0731,.37,.0402,.1644,.2044,.518,.3761,.9263,.4705,.0494,.0114,.0986,.0215,.1474,.0302v-1.657c-.2885-.0731-.5982-.1662-.8461-.3297-.1578-.104-.298-.2405-.3958-.4237-.0975-.1826-.1446-.3962-.1399-.6423,.0017-.5847,.5194-.9932,1.0787-1.1382,.0974-.0252,.1988-.0437,.3032-.0545v-.0526c0-.1453,.1177-.2632,.263-.2632Zm-.2631,.8458c-.0587,.0082-.1159,.0196-.1711,.0339-.4558,.1181-.6844,.3956-.6844,.6315v.0054c-.0035,.1727,.0293,.2951,.0779,.3861,.0487,.0911,.1215,.1664,.2212,.2322,.1469,.0969,.3351,.1637,.5564,.2246v-1.5137Zm.5263,2.1899v1.5664c.1164-.0051,.2024-.0216,.2546-.0419,.3439-.1336,.6019-.358,.6019-.7202,0-.1645-.0349-.2805-.0849-.3671-.0504-.0872-.1252-.1601-.2281-.2244-.1461-.0912-.3297-.1546-.5435-.2128Z" fill="#180b25" fill-rule="evenodd"/></g></g></g></svg>