<?xml version="1.0" encoding="UTF-8"?><svg id="Layer_1" xmlns="http://www.w3.org/2000/svg" viewBox="0 0 20 20"><path d="M.5,4.0001C.5,2.6194,1.6193,1.5001,3,1.5001h4.688c.953,0,1.8494.4527,2.4148,1.2199l.5415.7345c.1885.2557.4872.4066.8049.4066h5.5508c1.3807,0,2.5,1.1193,2.5,2.5v9.6389c0,1.3807-1.1193,2.5-2.5,2.5H3c-1.3807,0-2.5-1.1193-2.5-2.5V4.0001Z" fill="#001531" stroke-width="0"/><path d="M.5,4.0001C.5,2.6194,1.6193,1.5001,3,1.5001h4.688c.953,0,1.8494.4527,2.4148,1.2199l.5415.7345c.1885.2557.4872.4066.8049.4066h5.5508c1.3807,0,2.5,1.1193,2.5,2.5v9.6389c0,1.3807-1.1193,2.5-2.5,2.5H3c-1.3807,0-2.5-1.1193-2.5-2.5V4.0001Z" fill="rgba(255,255,255,.9)" stroke-width="0"/><path d="M.5,4.0001C.5,2.6194,1.6193,1.5001,3,1.5001h4.688c.953,0,1.8494.4527,2.4148,1.2199l.5415.7345c.1885.2557.4872.4066.8049.4066h5.5508c1.3807,0,2.5,1.1193,2.5,2.5v9.6389c0,1.3807-1.1193,2.5-2.5,2.5H3c-1.3807,0-2.5-1.1193-2.5-2.5V4.0001Z" fill="none" stroke="#001531"/><path d="M5.5352,12.7035c-.1264-.3619.131-.7251.5087-.7902.3736-.0644.7223.1895.8698.5387.2005.4747.5182.8976.9292,1.2286.5922.4771,1.3392.732,2.1066.7189.7674-.0131,1.5049-.2933,2.0797-.7903.5748-.497.9493-1.1781,1.0561-1.9208.1069-.7427-.061-1.4983-.4734-2.1309-.4124-.6326-1.0422-1.1006-1.7762-1.3199-.7339-.2193-1.5239-.1755-2.2277.1236-.4202.1785-.7932.441-1.0972.767h.7279c.304,0,.5505.2378.5505.5357,0,.2959-.2472.5357-.5505.5357h-2.1881c-.1533,0-.2901-.0601-.3892-.1571-.1-.0964-.1613-.23-.1613-.3786v-2.1406c0-.2971.2433-.538.5482-.538.3028,0,.5482.2416.5482.538v.5849c.4138-.4146.9088-.7506,1.4607-.9851,1.0055-.4272,2.134-.4899,3.1825-.1766,1.0486.3133,1.9483.9819,2.5374,1.8855.5891.9037.829,1.983.6764,3.0441-.1526,1.061-.6876,2.034-1.5088,2.744s-1.8747,1.1103-2.971,1.129c-1.0963.0187-2.1634-.3455-3.0094-1.027-.6621-.5334-1.1548-1.2337-1.429-2.0188Z" fill="#001531" stroke-width="0"/></svg>