<?xml version="1.0" encoding="UTF-8"?><svg id="Layer_1" xmlns="http://www.w3.org/2000/svg" viewBox="0 0 20 20"><path d="M7.0147,5.6826c-.5071.6519-1.0141,1.3038-1.5225,1.9545v1.1769c-.0006-.4892-.0066-.754-.0694-.9743-.1746-.6128-.6584-1.0917-1.2773-1.2645-.2462-.0688-.5472-.0688-1.1493-.0688s-.9031,0-1.1493.0688c-.619.1729-1.1027.6518-1.2773,1.2645-.0695.2437-.0695.5417-.0695,1.1376v7.5515c0,.5958,0,.8938.0695,1.1375.1746.6128.6584,1.0917,1.2773,1.2646.2462.0687.5472.0688,1.1493.0688s.9031,0,1.1493-.0688c.619-.1729,1.1027-.6518,1.2773-1.2646.0628-.2204.0688-.4851.0694-.9743v.2342c1.1509,1.1456,2.6686,1.8633,4.2982,1.9529,1.7734.0975,4.1222.1642,5.8049-.0207,1.2462-.1369,2.6849-1.0808,3.1949-2.4534.7551-2.0316.9068-4.9465.4663-6.4766-.2113-.7338-.6964-1.3609-1.3571-1.7539-.7225-.4298-1.7309-.4298-3.8531-.4298-.9704,0-1.3735-.4093-1.042-1.5895.447-1.5915.8833-4.5923-.8258-5.0841-.7663-.2205-1.6199.0897-2.1074.7055-1.0262,1.2962-2.0413,2.6013-3.0564,3.9062Z" fill="#001531" stroke-width="0"/><path d="M7.0147,5.6826c-.5071.6519-1.0141,1.3038-1.5225,1.9545v1.1769c-.0006-.4892-.0066-.754-.0694-.9743-.1746-.6128-.6584-1.0917-1.2773-1.2645-.2462-.0688-.5472-.0688-1.1493-.0688s-.9031,0-1.1493.0688c-.619.1729-1.1027.6518-1.2773,1.2645-.0695.2437-.0695.5417-.0695,1.1376v7.5515c0,.5958,0,.8938.0695,1.1375.1746.6128.6584,1.0917,1.2773,1.2646.2462.0687.5472.0688,1.1493.0688s.9031,0,1.1493-.0688c.619-.1729,1.1027-.6518,1.2773-1.2646.0628-.2204.0688-.4851.0694-.9743v.2342c1.1509,1.1456,2.6686,1.8633,4.2982,1.9529,1.7734.0975,4.1222.1642,5.8049-.0207,1.2462-.1369,2.6849-1.0808,3.1949-2.4534.7551-2.0316.9068-4.9465.4663-6.4766-.2113-.7338-.6964-1.3609-1.3571-1.7539-.7225-.4298-1.7309-.4298-3.8531-.4298-.9704,0-1.3735-.4093-1.042-1.5895.447-1.5915.8833-4.5923-.8258-5.0841-.7663-.2205-1.6199.0897-2.1074.7055-1.0262,1.2962-2.0413,2.6013-3.0564,3.9062Z" fill="rgba(255,255,255,.9)" stroke-width="0"/><path d="M5.4922,7.6371c1.5262-1.9534,3.0402-3.917,4.5789-5.8607.4875-.6158,1.3411-.926,2.1074-.7055,1.7091.4919,1.2728,3.4927.8258,5.0841-.3315,1.1802.0716,1.5895,1.042,1.5895,2.1222,0,3.1306,0,3.8531.4298.6607.3931,1.1458,1.0201,1.3571,1.7539.4405,1.5301.2888,4.445-.4663,6.4766-.51,1.3726-1.9487,2.3165-3.1949,2.4534-1.6827.1849-4.0315.1182-5.8049.0207-1.6296-.0896-3.1473-.8073-4.2982-1.9529M2.9961,6.5064c-.6021,0-.9031,0-1.1493.0688-.619.1729-1.1027.6518-1.2773,1.2645-.0695.2437-.0695.5417-.0695,1.1376v7.5515c0,.5958,0,.8938.0695,1.1375.1746.6128.6584,1.0917,1.2773,1.2646.2462.0687.5472.0688,1.1493.0688s.9031,0,1.1493-.0688c.619-.1729,1.1027-.6518,1.2773-1.2646.0695-.2437.0695-.5417.0695-1.1375v-7.5515c0-.5959,0-.8938-.0695-1.1376-.1746-.6128-.6584-1.0917-1.2773-1.2645-.2462-.0688-.5472-.0688-1.1493-.0688Z" fill="none" stroke="#001531" stroke-linecap="round" stroke-linejoin="round"/></svg>