<svg id="Layer_1" data-name="Layer 1" xmlns="http://www.w3.org/2000/svg" viewBox="0 0 20 20"><path d="M16.2773,19.57H3.6628a1.1071,1.1071,0,0,1-1.117-.9587L1.39,8.4849H1.0113A.55.55,0,0,1,.45,7.9471V6.3581A.55.55,0,0,1,1.0113,5.82H4.0237l.9432-4.5246A1.1125,1.1125,0,0,1,6.0688.4307H13.912a1.1124,1.1124,0,0,1,1.1018.865L15.9571,5.82l3.03-.01a.55.55,0,0,1,.5638.5359v1.596a.55.55,0,0,1-.5547.5378l-.4327.0052L17.3941,18.6128A1.107,1.107,0,0,1,16.2773,19.57Z" fill="#252a3a"/><path d="M16.2773,19.57H3.6628a1.1071,1.1071,0,0,1-1.117-.9587L1.39,8.4849H1.0113A.55.55,0,0,1,.45,7.9471V6.3581A.55.55,0,0,1,1.0113,5.82H4.0237l.9432-4.5246A1.1125,1.1125,0,0,1,6.0688.4307H13.912a1.1124,1.1124,0,0,1,1.1018.865L15.9571,5.82l3.03-.01a.55.55,0,0,1,.5638.5359v1.596a.55.55,0,0,1-.5547.5378l-.4327.0052L17.3941,18.6128A1.107,1.107,0,0,1,16.2773,19.57Z" fill="#fff" fill-opacity="0.9"/><path d="M6.0688.86a.6676.6676,0,0,0-.6612.5191l-.836,4.01H15.4091l-.836-4.01A.6676.6676,0,0,0,13.9119.86ZM16.3254,5.388l-.8708-4.1773A1.5576,1.5576,0,0,0,13.9119,0H6.0688A1.5576,1.5576,0,0,0,4.5261,1.2111L3.655,5.39H1.0112A.99.99,0,0,0,0,6.3576V7.9467a.9892.9892,0,0,0,.9873.9677L2.099,18.6577A1.55,1.55,0,0,0,3.6627,20H16.2773a1.55,1.55,0,0,0,1.5635-1.34l1.1607-9.75A.99.99,0,0,0,20,7.9415V6.3475A.99.99,0,0,0,18.9881,5.38l-.0028,0ZM18.56,8.0542l.43-.0051a.11.11,0,0,0,.1109-.1076V6.3475a.11.11,0,0,0-.1124-.1075h0l-3.03.01H1.0112a.11.11,0,0,0-.1123.1075V7.9467a.11.11,0,0,0,.1123.1075Zm-.4637.8605H1.8915l1.1011,9.65a.6641.6641,0,0,0,.67.5753H16.2773a.6643.6643,0,0,0,.67-.5745Z" fill="#252a3a" fill-rule="evenodd"/></svg>