<?xml version="1.0" encoding="UTF-8"?><svg id="Layer_1" xmlns="http://www.w3.org/2000/svg" viewBox="0 0 16 16"><path d="M6.3718,2.1479c.7236-1.2636,2.5327-1.2636,3.2563,0l5.6171,9.8091c.7236,1.2636-.1809,2.8432-1.6281,2.8432H2.3828c-1.4473,0-2.3518-1.5796-1.6282-2.8432L6.3718,2.1479Z" fill="#001531" isolation="isolate" opacity=".1" stroke-width="0"/><path d="M10.0623,1.8995c-.9157-1.599-3.2085-1.599-4.1241,0L.321,11.7085c-.911,1.5909.2237,3.5917,2.0621,3.5917h11.2343c1.8384,0,2.973-2.0008,2.062-3.5917L10.0623,1.8995ZM6.8059,2.3964c.5316-.9283,1.857-.9283,2.3885,0l5.6171,9.8091c.5363.9364-.1381,2.0947-1.1942,2.0947H2.3831c-1.0561,0-1.7305-1.1583-1.1943-2.0947L6.8059,2.3964ZM8.7502,5.7998c0-.4142-.3358-.75-.75-.75s-.75.3358-.75.75v3.1938c0,.4142.3358.75.75.75s.75-.3358.75-.75v-3.1938ZM8.7502,11.7607c0-.4143-.3358-.75-.75-.75s-.75.3357-.75.75v.0391c0,.4142.3358.75.75.75s.75-.3358.75-.75v-.0391Z" fill="#001531" fill-rule="evenodd" stroke-width="0"/></svg>