<svg id="Folder" xmlns="http://www.w3.org/2000/svg" viewBox="0 0 20 20"><path d="M2.1663,2.0254H7.4236a1.7863,1.7863,0,0,1,1.3475.74l1.2322,1.12H17.826a1.7567,1.7567,0,0,1,1.7434,1.77V16.2026a1.7569,1.7569,0,0,1-1.7407,1.7718H2.1713A1.7541,1.7541,0,0,1,.4307,16.2069h0V3.7931A1.7557,1.7557,0,0,1,2.1663,2.0254Z" fill="#252a3a"/><path d="M2.1663,2.0254H7.4236a1.7863,1.7863,0,0,1,1.3475.74l1.2322,1.12H17.826a1.7567,1.7567,0,0,1,1.7434,1.77V16.2026a1.7569,1.7569,0,0,1-1.7407,1.7718H2.1713A1.7541,1.7541,0,0,1,.4307,16.2069h0V3.7931A1.7557,1.7557,0,0,1,2.1663,2.0254Z" fill="#fff" fill-opacity="0.9"/><path d="M2.1663,2.456A1.3251,1.3251,0,0,0,.8612,3.7931V16.2066a1.3236,1.3236,0,0,0,1.31,1.3371H17.8287a1.3262,1.3262,0,0,0,1.31-1.3412V5.6578a1.3262,1.3262,0,0,0-1.3111-1.3411H9.8368l-1.3974-1.27L8.4088,2.999a1.2328,1.2328,0,0,0-.4369-.379,1.211,1.211,0,0,0-.5483-.1635ZM0,3.7931A2.1863,2.1863,0,0,1,2.1663,1.5947H7.4236a2.06,2.06,0,0,1,.963.27,2.1238,2.1238,0,0,1,.7126.6174l1.0706.9733h7.6561A2.1873,2.1873,0,0,1,20,5.6558V16.2025a2.1874,2.1874,0,0,1-2.1713,2.2024H2.1713A2.1846,2.1846,0,0,1,0,16.2071Z" fill="#252a3a" fill-rule="evenodd"/></svg>