<?xml version="1.0" encoding="UTF-8"?><svg id="Layer_2" xmlns="http://www.w3.org/2000/svg" viewBox="0 0 20 20"><g id="Layer_1-2"><path d="M.625,.4521H19.5497V19.5351H.625V.4521Z" fill="#e8e7e9"/><path d="M0,1.017C0,.4553,.4539,0,1.0139,0H18.9861c.56,0,1.0139,.4553,1.0139,1.017V18.983c0,.5617-.4539,1.017-1.0139,1.017H1.0139c-.56,0-1.0139-.4553-1.0139-1.017V1.017Zm1.0139-.113c-.0622,0-.1127,.0506-.1127,.113V10.7011h7.4183c.56,0,1.0139,.4553,1.0139,1.017v7.3779h9.6526c.0622,0,.1127-.0506,.1127-.113V1.017c0-.0624-.0505-.113-.1127-.113H1.0139Zm7.4183,18.192v-7.3779c0-.0624-.0504-.113-.1127-.113H.9013v7.3779c0,.0624,.0504,.113,.1127,.113h7.4183Z" fill="#180b25" fill-rule="evenodd"/></g></svg>