<?xml version="1.0" encoding="UTF-8"?><svg id="Layer_1" xmlns="http://www.w3.org/2000/svg" viewBox="0 0 20 20"><path d="M19.5,10c0,1.3471-.2804,2.6288-.786,3.7898.4914.6026.786,1.372.786,2.2102,0,1.933-1.567,3.5-3.5,3.5-.8382,0-1.6076-.2946-2.2102-.786-1.161.5056-2.4427.786-3.7898.786C4.7533,19.5.5,15.2467.5,10c0-1.3471.2804-2.6288.786-3.7898-.4914-.6026-.786-1.372-.786-2.2102C.5,2.067,2.067.5,4,.5c.8382,0,1.6076.2947,2.2102.786,1.161-.5056,2.4426-.786,3.7898-.786,5.2467,0,9.5,4.2533,9.5,9.5Z" fill="#001531" stroke-width="0"/><path d="M19.5,10c0,1.3471-.2804,2.6288-.786,3.7898.4914.6026.786,1.372.786,2.2102,0,1.933-1.567,3.5-3.5,3.5-.8382,0-1.6076-.2946-2.2102-.786-1.161.5056-2.4427.786-3.7898.786C4.7533,19.5.5,15.2467.5,10c0-1.3471.2804-2.6288.786-3.7898-.4914-.6026-.786-1.372-.786-2.2102C.5,2.067,2.067.5,4,.5c.8382,0,1.6076.2947,2.2102.786,1.161-.5056,2.4426-.786,3.7898-.786,5.2467,0,9.5,4.2533,9.5,9.5Z" fill="rgba(255,255,255,.9)" stroke-width="0"/><path d="M1.286,6.2102c.6418.7871,1.6192,1.2898,2.714,1.2898,1.933,0,3.5-1.567,3.5-3.5,0-1.0948-.5027-2.0722-1.2898-2.714M1.286,6.2102c-.4914-.6026-.786-1.372-.786-2.2102C.5,2.067,2.067.5,4,.5c.8382,0,1.6076.2947,2.2102.786M1.286,6.2102c-.5056,1.161-.786,2.4426-.786,3.7898,0,5.2467,4.2533,9.5,9.5,9.5,1.3471,0,2.6288-.2804,3.7898-.786M6.2102,1.286c1.161-.5056,2.4426-.786,3.7898-.786,5.2467,0,9.5,4.2533,9.5,9.5,0,1.3462-.28,2.6271-.785,3.7874M13.7898,18.714c.6026.4914,1.372.786,2.2102.786,1.933,0,3.5-1.567,3.5-3.5s-1.567-3.5-3.5-3.5-3.5,1.567-3.5,3.5c0,1.0948.5027,2.0722,1.2898,2.714Z" fill="none" stroke="#001531"/></svg>