<svg id="Cloud_Backup" data-name="Cloud Backup" xmlns="http://www.w3.org/2000/svg" viewBox="0 0 20 20"><path d="M15.7872,17H4.9978A4.889,4.889,0,0,1,.0012,12.221h0C0,12.1851,0,12.1493,0,12.1134A4.72,4.72,0,0,1,3.1773,7.46,5.28,5.28,0,0,1,8.4586,3a4.625,4.625,0,0,1,4.2857,2.2121A3.1752,3.1752,0,0,1,16.8233,8.34,4.4219,4.4219,0,0,1,15.7872,17Z" fill="#252a3a"/><path d="M15.7872,17H4.9978A4.889,4.889,0,0,1,.0012,12.221h0C0,12.1851,0,12.1493,0,12.1134A4.72,4.72,0,0,1,3.1773,7.46,5.28,5.28,0,0,1,8.4586,3a4.625,4.625,0,0,1,4.2857,2.2121A3.1752,3.1752,0,0,1,16.8233,8.34,4.4219,4.4219,0,0,1,15.7872,17Z" fill="#fff" fill-opacity="0.9"/><path id="Lines" d="M16.1566,8.34v.497l.4679.1483a3.7751,3.7751,0,0,1,2.7088,3.7025,3.8683,3.8683,0,0,1-.9758,2.4143,3.3708,3.3708,0,0,1-2.57,1.2215H4.9978a4.2176,4.2176,0,0,1-4.33-4.1021V12.221q-.0013-.0537-.0015-.1074A4.0459,4.0459,0,0,1,3.4031,8.0965l.3624-.1323.068-.3846A4.6107,4.6107,0,0,1,8.4586,3.6764a3.9665,3.9665,0,0,1,3.7172,1.889l.2694.4461.4933-.1523A2.5065,2.5065,0,0,1,16.1566,8.34ZM15.7872,17H4.9978A4.889,4.889,0,0,1,.0012,12.221h0C0,12.1851,0,12.1493,0,12.1134A4.72,4.72,0,0,1,3.1773,7.46,5.28,5.28,0,0,1,8.4586,3a4.625,4.625,0,0,1,4.2857,2.2121A3.1752,3.1752,0,0,1,16.8233,8.34,4.4219,4.4219,0,0,1,15.7872,17Zm-3.81-8.6086a.4572.4572,0,0,1-.1.6388l0,0a.4515.4515,0,0,1-.0515.0326.6.6,0,0,1-.7373-.1561,2.2483,2.2483,0,0,0-.93-.6155,2.2972,2.2972,0,0,0-1.613.0439,2.4211,2.4211,0,0,0-1.5079,2.2255l-.0011.0353.3856-.3714a.3908.3908,0,0,1,.5527-.0005h0l.0073.0075a.406.406,0,0,1-.0221.5672L6.8043,11.9122a.3993.3993,0,0,1-.2844.1138.3786.3786,0,0,1-.2751-.1208L5.1713,10.758a.4045.4045,0,0,1,.02-.5673.3918.3918,0,0,1,.5541.0046l0,0L5.75,10.2l.2934.3135A3.46,3.46,0,0,1,8.1969,7.3989a3.2813,3.2813,0,0,1,2.3044-.0627,3.2168,3.2168,0,0,1,1.4763,1.0552ZM6.9121,13.5842a.4573.4573,0,0,1,.0972-.6394h0a.4752.4752,0,0,1,.0528-.0335.6.6,0,0,1,.737.1543,2.2539,2.2539,0,0,0,.897.6005,2.3018,2.3018,0,0,0,1.5789-.007,2.4176,2.4176,0,0,0,1.5709-2.1c.0013-.02.0035-.0392.0064-.0586l-.4071.3516a.3908.3908,0,0,1-.5518-.03l-.0065-.0074a.4059.4059,0,0,1,.0524-.5652l1.2136-1.0483a.3991.3991,0,0,1,.29-.098.379.379,0,0,1,.2683.1357l1.0108,1.2045a.4045.4045,0,0,1-.05.5654.392.392,0,0,1-.5533-.0345l0,0-.0047-.0054-.2761-.3291a3.4539,3.4539,0,0,1-2.2416,2.9655,3.2876,3.2876,0,0,1-2.2556.01A3.2218,3.2218,0,0,1,6.9121,13.5842Z" fill="#252a3a" fill-rule="evenodd"/></svg>