<?xml version="1.0" encoding="UTF-8"?><svg id="Layer_1" xmlns="http://www.w3.org/2000/svg" viewBox="0 0 20 20"><path d="M.5,9c0-1.3807,1.1193-2.5,2.5-2.5h14c1.3807,0,2.5,1.1193,2.5,2.5v8c0,1.3807-1.1193,2.5-2.5,2.5H3c-1.3807,0-2.5-1.1193-2.5-2.5v-8Z" fill="#001531" stroke-width="0"/><path d="M.5,9c0-1.3807,1.1193-2.5,2.5-2.5h14c1.3807,0,2.5,1.1193,2.5,2.5v8c0,1.3807-1.1193,2.5-2.5,2.5H3c-1.3807,0-2.5-1.1193-2.5-2.5v-8Z" fill="rgba(255,255,255,.9)" stroke-width="0"/><path d="M4,3.5h12M6.5.5h7M3,19.5h14c1.3807,0,2.5-1.1193,2.5-2.5v-8c0-1.3807-1.1193-2.5-2.5-2.5H3c-1.3807,0-2.5,1.1193-2.5,2.5v8c0,1.3807,1.1193,2.5,2.5,2.5Z" fill="none" stroke="#001531" stroke-linecap="round"/><path d="M7.5,12.9993h5M9.9993,10.5v5" fill="none" stroke="#001531" stroke-linecap="round" stroke-linejoin="round" stroke-width="1.2"/></svg>