<?xml version="1.0" encoding="UTF-8"?><svg id="Layer_1" xmlns="http://www.w3.org/2000/svg" viewBox="0 0 20 20"><path d="M17.3907,12.8091c-2.1019,2.1054-5.1778,2.6353-7.7738,1.596l-4.1822,4.1903c-1.0848,1.0855-2.8708,1.2416-4.0058.2085-1.2078-1.099-1.2334-2.964-.1015-4.099l4.294-4.3011c-1.0438-2.6076-.5147-5.6887,1.5871-7.7941C9.3175.4971,12.4006-.0257,14.9966,1.027l-3.5875,3.5936c-.3241.3245-.4655.7898-.3752,1.2406l.3383,1.7028c.1087.5453.5352.9715,1.0796,1.0794l1.6938.3358c.4491.0884.9126-.0534,1.2365-.3768l3.5886-3.5946c1.0581,2.5932.529,5.6887-1.58,7.8013Z" fill="#001531" fill-rule="evenodd" stroke-width="0"/><path d="M17.3907,12.8091c-2.1019,2.1054-5.1778,2.6353-7.7738,1.596l-4.1822,4.1903c-1.0848,1.0855-2.8708,1.2416-4.0058.2085-1.2078-1.099-1.2334-2.964-.1015-4.099l4.294-4.3011c-1.0438-2.6076-.5147-5.6887,1.5871-7.7941C9.3175.4971,12.4006-.0257,14.9966,1.027l-3.5875,3.5936c-.3241.3245-.4655.7898-.3752,1.2406l.3383,1.7028c.1087.5453.5352.9715,1.0796,1.0794l1.6938.3358c.4491.0884.9126-.0534,1.2365-.3768l3.5886-3.5946c1.0581,2.5932.529,5.6887-1.58,7.8013Z" fill="rgba(255,255,255,.9)" fill-rule="evenodd" stroke-width="0"/><path d="M7.3504,1.8189C10.2844-.7005,13.8393-.0779,15.2151.5959c.1471.072.2496.2115.2744.3733.0248.1619-.0313.3256-.15.4383-.6341.6019-1.7152,1.6961-2.4753,2.4654l-.058.0587c-.2977.3013-.542.5483-.678.6829-.4916.4864-.5424.596-.5994.7778,0,0,.0001-.0002,0,0-.0007.0047-.012.0731-.0001.2409.0111.1559.0377.3478.0742.5598.0496.2889.1116.5841.168.8531.0277.1324.0542.2585.0772.3742.0957.4822.4025.6428.5332.6784.3677.1003,1.0004.2388,1.7669.3832.2999.0565.4952.0182.6217-.0334.1302-.0531.2236-.1353.2954-.2177.0074-.0086.0152-.0169.0232-.025l3.5313-3.5352c.1163-.1165.2825-.1682.4444-.1384.1618.0298.2987.1374.3658.2877.8186,1.8312,1.067,5.3523-1.4071,8.048-2.3328,2.5418-5.6416,3.0568-8.2731,2.1147l-4.1078,4.1196c-.4564.4564-1.2336.8165-2.0714.8864-.8565.0716-1.8209-.1567-2.6043-.9403-.8355-.8356-1.046-1.8133-.9447-2.6672.0985-.8296.4917-1.5585.8971-1.9635l4.1263-4.1216c-.8892-2.7808-.5222-6.0491,2.3055-8.4773ZM14.0799,1.2364c-1.4257-.4017-3.9454-.4901-6.078,1.3412-2.5495,2.1892-2.8211,5.1402-1.9129,7.6847.065.1821.0192.3853-.1176.5219L1.6255,15.1252s0,0,0,0c-.2415.2413-.5381.7604-.6109,1.374-.0699.5894.0668,1.2502.6588,1.8423.5411.5412,1.1987.7022,1.814.6508.6341-.053,1.1791-.3286,1.447-.5965l4.3369-4.3494c.1426-.143.3574-.1862.5442-.1093,2.3192.9537,5.348.5677,7.4707-1.7451,1.8527-2.0186,1.9428-4.5886,1.4822-6.255l-2.9611,2.9644c-.1394.1572-.351.3472-.6597.4731-.3215.1312-.7141.1788-1.1846.0902-.7744-.1459-1.4381-.2903-1.8448-.4012-.4362-.1189-1.07-.5365-1.251-1.4485-.0191-.0963-.0432-.211-.0695-.3366-.0582-.278-.1278-.6098-.1804-.916-.0388-.2258-.0716-.4546-.0861-.6583-.0131-.185-.0174-.4167.0433-.6106.1344-.4292.3388-.6837.8504-1.1899.1309-.1296.3701-.3714.67-.6749l.0656-.0664c.5615-.5682,1.3079-1.3237,1.9194-1.9259Z" fill="#001531" fill-rule="evenodd" stroke-width="0"/></svg>