<?xml version="1.0" encoding="UTF-8"?><svg id="Layer_1" xmlns="http://www.w3.org/2000/svg" viewBox="0 0 20 20"><path d="M.5,4.0001C.5,2.6194,1.6193,1.5001,3,1.5001h4.688c.953,0,1.8494.4527,2.4148,1.2199l.5415.7345c.1885.2557.4872.4066.8049.4066h5.5508c1.3807,0,2.5,1.1193,2.5,2.5v9.6389c0,1.3807-1.1193,2.5-2.5,2.5H3c-1.3807,0-2.5-1.1193-2.5-2.5V4.0001Z" fill="#001531" stroke-width="0"/><path d="M.5,4.0001C.5,2.6194,1.6193,1.5001,3,1.5001h4.688c.953,0,1.8494.4527,2.4148,1.2199l.5415.7345c.1885.2557.4872.4066.8049.4066h5.5508c1.3807,0,2.5,1.1193,2.5,2.5v9.6389c0,1.3807-1.1193,2.5-2.5,2.5H3c-1.3807,0-2.5-1.1193-2.5-2.5V4.0001Z" fill="rgba(255,255,255,.9)" stroke-width="0"/><path d="M3,2.0001h4.688c.7942,0,1.5412.3773,2.0124,1.0166l.5414.7345c.2827.3836.7309.61,1.2074.61h5.5508c1.1046,0,2,.8954,2,2v9.6389c0,1.1045-.8954,2-2,2H3c-1.1046,0-2-.8955-2-2V4.0001c0-1.1046.8954-2,2-2ZM7.688,1H3c-1.6568,0-3,1.3432-3,3.0001v11.9999c0,1.6568,1.3431,3,3,3h14c1.6569,0,3-1.3432,3-3V6.3611c0-1.6569-1.3431-3-3-3h-5.5508c-.1588,0-.3082-.0755-.4025-.2033l-.5414-.7345c-.6597-.895-1.7055-1.4233-2.8173-1.4233ZM9.9977,6.5c1.1924,0,2.1592.9281,2.1592,2.0729s-.9668,2.0728-2.1592,2.0728-2.1592-.928-2.1592-2.0728.9667-2.0729,2.1592-2.0729ZM13.9562,15.1545c0,.4667-.3941.845-.8803.845h-6.1566c-.4862,0-.8803-.3783-.8803-.845v-.9714c0-1.679,1.4178-3.0401,3.1669-3.0401h1.5835c1.749,0,3.1668,1.3611,3.1668,3.0401v.9714Z" fill="#001531" fill-rule="evenodd" stroke-width="0"/></svg>