<?xml version="1.0" encoding="UTF-8"?><svg id="Layer_1" xmlns="http://www.w3.org/2000/svg" viewBox="0 0 30 30"><path d="M13.3991,2.9323c.143-.4097.801-.4097.944,0,1.956,5.6033,6.3674,10.0147,11.9707,11.9707.4097.143.4097.801,0,.944-5.6033,1.956-10.0147,6.3674-11.9707,11.9708-.143.4096-.801.4096-.944-.0001-1.956-5.6033-6.3674-10.0147-11.9708-11.9707-.4097-.143-.4097-.801,0-.944,5.6033-1.956,10.0148-6.3674,11.9708-11.9707Z" fill="#001531" stroke-width="0"/><path d="M13.3991,2.9323c.143-.4097.801-.4097.944,0,1.956,5.6033,6.3674,10.0147,11.9707,11.9707.4097.143.4097.801,0,.944-5.6033,1.956-10.0147,6.3674-11.9707,11.9708-.143.4096-.801.4096-.944-.0001-1.956-5.6033-6.3674-10.0147-11.9708-11.9707-.4097-.143-.4097-.801,0-.944,5.6033-1.956,10.0148-6.3674,11.9708-11.9707Z" fill="rgba(255,255,255,.9)" stroke-width="0"/><path d="M25.5.75c0,2.0669,2.3763,4.5,4.5,4.5-2.2055,0-4.5,2.408-4.5,4.5,0-2.1057-2.4375-4.5-4.5-4.5,2.1443,0,4.5-2.4331,4.5-4.5ZM13.8706,27.2247c-2.2184-5.3635-6.4866-9.6317-11.8501-11.8502,5.3636-2.2184,9.6317-6.4866,11.8501-11.8502,2.2185,5.3636,6.4866,9.6318,11.8502,11.8502-5.3636,2.2185-9.6317,6.4867-11.8502,11.8502ZM13.3649,2.044c.1532-.4389.8582-.4389,1.0114,0,2.0956,6.0031,6.8217,10.7293,12.8248,12.8248.4389.1532.4389.8582,0,1.0114-6.0031,2.0956-10.7292,6.8217-12.8248,12.8249-.1532.4388-.8582.4388-1.0114,0-2.0955-6.0032-6.8217-10.7293-12.8248-12.8249-.4389-.1532-.4389-.8582,0-1.0114,6.0031-2.0955,10.7293-6.8217,12.8248-12.8248Z" fill="#001531" fill-rule="evenodd" stroke-width="0"/></svg>