<svg id="Icon" xmlns="http://www.w3.org/2000/svg" viewBox="0 0 20 20"><path id="Black_Fill" data-name="Black Fill" d="M.833,5.3173H4.2517v9.7276H4.251l.011,1.9263a1.7148,1.7148,0,0,0,2.0264,1.56,1.7323,1.7323,0,0,1-.3216.0316H17.4514a1.7212,1.7212,0,0,0,1.7143-1.7143V15.084H7.6811l-.0917-.0011h8.156V3.1515a1.7212,1.7212,0,0,0-1.7142-1.7143L2.6247,1.4365q-.0409-.002-.082-.0019A1.7144,1.7144,0,0,0,.833,3.0239Z" fill="#252a3a" fill-rule="evenodd"/><path id="Gray_Fill" data-name="Gray Fill" d="M.833,5.3173H4.2517v9.7276H4.251l.011,1.9263a1.7148,1.7148,0,0,0,2.0264,1.56,1.7323,1.7323,0,0,1-.3216.0316H17.4514a1.7212,1.7212,0,0,0,1.7143-1.7143V15.084H7.6811l-.0917-.0011h8.156V3.1515a1.7212,1.7212,0,0,0-1.7142-1.7143L2.6247,1.4365q-.0409-.002-.082-.0019A1.7144,1.7144,0,0,0,.833,3.0239Z" fill="#fff" fill-opacity="0.9" fill-rule="evenodd"/><path id="Outlines" d="M3.9187,3.1521V4.9843H1.1667V3.037A1.3806,1.3806,0,0,1,2.5091,1.7687l.0314.0015A1.3845,1.3845,0,0,1,3.9187,3.1521Zm-2.77-1.5027A2.0479,2.0479,0,0,1,2.543,1.1016c.03,0,.06.0006.09.0019l11.4.0007a2.0546,2.0546,0,0,1,2.0463,2.0463v11.6H19.166a.3334.3334,0,0,1,.3334.3333v1.7644l0,.0014a2.0544,2.0544,0,0,1-2.0462,2.0462H5.9671a.3448.3448,0,0,1-.0421-.0026,2.0476,2.0476,0,0,1-1.996-1.8978l-.0009-.0224L3.917,15.0462a.32.32,0,0,1,.0017-.0355v-9.36H.8333A.3333.3333,0,0,1,.5,5.3176V3.0242L.5009,3A2.048,2.048,0,0,1,1.1489,1.6494ZM6.9416,17.8222a1.3877,1.3877,0,0,0,.4059-.9405V15.0833a.3333.3333,0,0,1,.3333-.3333h7.7316V3.1526a1.3878,1.3878,0,0,0-1.3816-1.3817L4.0568,1.77A2.0478,2.0478,0,0,1,4.5852,3l.0009.0243V5.3176L4.5853,5.34v9.7433l-.0012.0293.01,1.8442a1.3757,1.3757,0,0,0,2.347.8654Zm1.0717-.8273a2.0475,2.0475,0,0,1-.5323,1.2338h9.97a1.3879,1.3879,0,0,0,1.3817-1.3815V15.4167H8.0147v1.4324l-.0006.0416v.08Zm-2.04-8.0715a4.0253,4.0253,0,1,1,4.0253,4.0252A4.0253,4.0253,0,0,1,5.9733,8.9234ZM9.9986,4.2315a4.6919,4.6919,0,1,0,4.6919,4.6919A4.6919,4.6919,0,0,0,9.9986,4.2315Zm.0922,2.0644a.25.25,0,0,1,.25.25v.06a2.1048,2.1048,0,0,1,1.0359.4561.25.25,0,1,1-.3152.3881,1.6146,1.6146,0,0,0-.7207-.3376V8.6626a2.7684,2.7684,0,0,1,.781.2952,1.1145,1.1145,0,0,1,.3849.3871,1.1755,1.1755,0,0,1,.1477.5989,1.2463,1.2463,0,0,1-.8907,1.15,1.3146,1.3146,0,0,1-.4229.0741v.2665a.25.25,0,0,1-.5,0v-.2991c-.0836-.0126-.1683-.0287-.2526-.0482a2.123,2.123,0,0,1-1.157-.6208.25.25,0,1,1,.39-.3134,1.6528,1.6528,0,0,0,.88.4471c.0469.0108.0937.02.14.0286V9.0548a2.6589,2.6589,0,0,1-.8038-.3133,1.1045,1.1045,0,0,1-.376-.4025,1.1566,1.1566,0,0,1,.8918-1.6914,1.977,1.977,0,0,1,.288-.0518v-.05A.25.25,0,0,1,10.0908,6.2959Zm-.25.8035a1.4416,1.4416,0,0,0-.1625.0322c-.433.1123-.65.3759-.65.6v.0051h0a.7316.7316,0,0,0,.074.3668.607.607,0,0,0,.21.2206,1.8651,1.8651,0,0,0,.5286.2133Zm.5,2.08v1.4881a.8121.8121,0,0,0,.2418-.04.752.752,0,0,0,.5718-.6842.679.679,0,0,0-.0806-.3487.6167.6167,0,0,0-.2167-.2132A1.9536,1.9536,0,0,0,10.3408,9.18Z" fill="#252a3a" fill-rule="evenodd"/></svg>