<?xml version="1.0" encoding="UTF-8"?><svg id="Layer_1" xmlns="http://www.w3.org/2000/svg" viewBox="0 0 20 20"><path d="M7.9648,2.6847c.9045-1.5796,3.1659-1.5796,4.0704,0l7.0214,12.2613c.9046,1.5796-.2261,3.554-2.0352,3.554H2.9786c-1.8091,0-2.9397-1.9744-2.0352-3.554L7.9648,2.6847Z" fill="#001531" stroke-width="0"/><path d="M7.9648,2.6847c.9045-1.5796,3.1659-1.5796,4.0704,0l7.0214,12.2613c.9046,1.5796-.2261,3.554-2.0352,3.554H2.9786c-1.8091,0-2.9397-1.9744-2.0352-3.554L7.9648,2.6847Z" fill="rgba(255,255,255,.9)" stroke-width="0"/><path d="M12.4693,2.4362c-1.0966-1.9149-3.8416-1.9149-4.9382,0L.5097,14.6975c-1.0919,1.9068.2689,4.3025,2.4691,4.3025h14.0429c2.2002,0,3.561-2.3957,2.4691-4.3025L12.4693,2.4362ZM8.3989,2.9331c.7125-1.2442,2.4901-1.2442,3.2026,0l7.0215,12.2614c.7171,1.2523-.1834,2.8055-1.6013,2.8055H2.9788c-1.4179,0-2.3185-1.5532-1.6013-2.8055L8.3989,2.9331ZM10.7502,7.25c0-.4142-.3358-.75-.75-.75s-.75.3358-.75.75v3.9923c0,.4142.3358.75.75.75s.75-.3358.75-.75v-3.9923ZM10.7502,14.7011c0-.4142-.3358-.75-.75-.75s-.75.3358-.75.75v.0489c0,.4142.3358.75.75.75s.75-.3358.75-.75v-.0489Z" fill="#001531" fill-rule="evenodd" stroke-width="0"/></svg>