<?xml version="1.0" encoding="UTF-8"?><svg id="Layer_1" xmlns="http://www.w3.org/2000/svg" viewBox="0 0 30 30"><path d="M23.2468,23.25H7.8719c-4.5505,0-7.1219-3.6857-7.1219-7.0681s1.8482-5.7376,4.5277-6.7306c.7507-4.3074,4.2351-6.4513,7.5258-6.4513,2.7169,0,4.7947.9929,6.1072,3.1996,3.0804-.9655,5.8125,1.5172,5.8125,4.5239,3,.9655,4.5268,3.569,4.5268,6.2893s-2.3392,6.2372-6.0032,6.2372Z" fill="#001531" stroke-width="0"/><path d="M23.2468,23.25H7.8719c-4.5505,0-7.1219-3.6857-7.1219-7.0681s1.8482-5.7376,4.5277-6.7306c.7507-4.3074,4.2351-6.4513,7.5258-6.4513,2.7169,0,4.7947.9929,6.1072,3.1996,3.0804-.9655,5.8125,1.5172,5.8125,4.5239,3,.9655,4.5268,3.569,4.5268,6.2893s-2.3392,6.2372-6.0032,6.2372Z" fill="rgba(255,255,255,.9)" stroke-width="0"/><path d="M12.8035,2.5c-3.4295,0-7.0679,2.1951-7.9656,6.5863C2.1097,10.2064.25,12.6992.25,16.1819c0,3.6084,2.7477,7.5681,7.6219,7.5681.2761,0,.5-.2239.5-.5s-.2239-.5-.5-.5c-4.2268,0-6.6219-3.4118-6.6219-6.5681,0-3.1701,1.715-5.3403,4.2014-6.2618l.2695-.0999.0493-.2831c.7037-4.0375,3.9533-6.0371,7.0332-6.0371,2.5754,0,4.4716.9277,5.6775,2.9552l.202.3397.3772-.1182c2.7023-.8469,5.163,1.3164,5.163,4.0467v.3643l.3468.1117c2.7687.891,4.18,3.2832,4.18,5.8133,0,1.2294-.5344,2.6758-1.5076,3.8137-.9663,1.1299-2.3361,1.9235-3.9956,1.9235-.2761,0-.5.2239-.5.5s.2239.5.5.5c2.0045,0,3.6363-.9649,4.7556-2.2735,1.1124-1.3007,1.7476-2.9729,1.7476-4.4637,0-2.8081-1.5289-5.5274-4.5388-6.6491-.2015-3.0059-2.9026-5.491-6.0744-4.7442-1.4271-2.1576-3.608-3.1194-6.3333-3.1195ZM14.9993,27.75c-.541,0-.9617-.3989-.9617-.898l-.0179-8.04-1.0956,1.0034c-.3842.3518-1.0031.3555-1.3884.0027-.3826-.3504-.3803-.9205.003-1.2715l2.7649-2.5322c.1938-.1774.4443-.2645.695-.2644.2511-.0016.5013.0857.6934.2617l2.768,2.5349c.3842.3518.3882.9187.0029,1.2715-.3826.3503-1.0051.3483-1.3884-.0027l-1.0776-1.0034v8.04c0,.496-.4528.898-.9976.898Z" fill="#001531" fill-rule="evenodd" stroke-width="0"/></svg>