<?xml version="1.0" encoding="UTF-8"?><svg id="Layer_1" xmlns="http://www.w3.org/2000/svg" viewBox="0 0 30 30"><path d="M2.4375,8.1647v14.5246l8.2446,4.5449,4.9894,2.3685,1.2135-.7915,10.6775-6.1862-.1714-14.2541L15.9688,1.322c-.6356-.3922-1.4368-.3976-2.0776-.014L2.4375,8.1647Z" fill="#001531" stroke-width="0"/><path d="M2.4375,8.1647v14.5246l8.2446,4.5449,4.9894,2.3685,1.2135-.7915,10.6775-6.1862-.1714-14.2541L15.9688,1.322c-.6356-.3922-1.4368-.3976-2.0776-.014L2.4375,8.1647Z" fill="rgba(255,255,255,.9)" stroke-width="0"/><path d="M15.4678,1.3851c-.3157-.1839-.7059-.1798-1.0177.0109L3.2298,8.2564c-.2974.1819-.4799.5072-.4798.8589l.0042,12.9824c.0001.372.2017.7101.5244.8844,1.5742.8505,5.1822,2.8029,7.7406,4.2108.242.1332.3302.4372.197.6791-.1331.242-.4372.3302-.6791.197-2.5546-1.4058-6.1595-3.3565-7.7338-4.2071-.6487-.3505-1.0488-1.0279-1.049-1.7639l-.0042-12.9824c-.0002-.6987.3623-1.348.9582-1.7124L13.9285.5428c.6254-.3824,1.4093-.3908,2.0427-.0218l10.4272,6.0748c1.3494.7861,1.32,2.7516-.0526,3.4966l-10.8962,5.9137v11.7372c0,.7744.8296,1.2522,1.4913.8729l9.805-5.6194c.311-.1783.5041-.5112.5041-.873v-8.9971c0-.2761.2239-.5.5-.5s.5.2239.5.5v8.9971c0,.7187-.3836,1.3833-1.0069,1.7406l-9.8049,5.6194c-1.3352.7653-2.9886-.2055-2.9886-1.7405v-11.7542l-2.6148-1.5976c-1.6248-.9926-3.6449-2.2268-5.2265-3.1927-.2357-.1439-.31-.4516-.1661-.6873.1439-.2357.4516-.31.6873-.1661,1.5817.966,3.6019,2.2001,5.2266,3.1927l2.6082,1.5936,10.9045-5.9182c.687-.3729.702-1.3599.0262-1.7536L15.4678,1.3851Z" fill="#001531" fill-rule="evenodd" stroke-width="0"/></svg>