<?xml version="1.0" encoding="UTF-8"?><svg id="Layer_1" xmlns="http://www.w3.org/2000/svg" viewBox="0 0 20 20"><path d="M10,1l2.9355,5.9243,6.5645.9558-4.75,4.6089,1.121,6.511-5.871-3.0757-5.871,3.0757,1.121-6.511L.5,7.8801l6.5645-.9558,2.9355-5.9243Z" fill="#001531" stroke-width="0"/><path d="M10,1l2.9355,5.9243,6.5645.9558-4.75,4.6089,1.121,6.511-5.871-3.0757-5.871,3.0757,1.121-6.511L.5,7.8801l6.5645-.9558,2.9355-5.9243Z" fill="rgba(255,255,255,.9)" stroke-width="0"/><path d="M10,1l2.9355,5.9243,6.5645.9558-4.75,4.6089,1.121,6.511-5.871-3.0757-5.871,3.0757,1.121-6.511L.5,7.8801l6.5645-.9558,2.9355-5.9243Z" fill="none" stroke="#001531" stroke-linecap="round" stroke-linejoin="round"/></svg>