<?xml version="1.0" encoding="UTF-8"?><svg id="Layer_1" xmlns="http://www.w3.org/2000/svg" viewBox="0 0 20 20"><path d="M10.8874.1685l8.0747,3.0815c.6269.2392,1.0513.8226,1.0376,1.4883-.0311,1.5053-.2306,4.3141-1.1922,6.8271-1.4176,3.7046-4.7333,7.4781-8.6694,8.4138-.1281.0304-.2621.0274-.3889-.0075-4.2816-1.1782-7.376-4.8867-8.6534-8.4063C.1925,9.0762.0203,6.2443.0001,4.732c-.0088-.6628.4137-1.2426,1.0373-1.4822L9.0527.1705c.59-.2267,1.2441-.2274,1.8347-.002Z" fill="#001531" stroke-width="0"/><path d="M10.8874.1685l8.0747,3.0815c.6269.2392,1.0513.8226,1.0376,1.4883-.0311,1.5053-.2306,4.3141-1.1922,6.8271-1.4176,3.7046-4.7333,7.4781-8.6694,8.4138-.1281.0304-.2621.0274-.3889-.0075-4.2816-1.1782-7.376-4.8867-8.6534-8.4063C.1925,9.0762.0203,6.2443.0001,4.732c-.0088-.6628.4137-1.2426,1.0373-1.4822L9.0527.1705c.59-.2267,1.2441-.2274,1.8347-.002Z" fill="rgba(255,255,255,.9)" stroke-width="0"/><path d="M10.843.6601l7.671,2.9274c.5955.2273.9987.7815.9857,1.4138-.0295,1.4301-.2191,4.0984-1.1326,6.4857-1.3467,3.5194-4.4966,7.1043-8.2359,7.9931-.1217.0289-.249.0261-.3695-.007-4.0675-1.1194-7.0072-4.6425-8.2207-7.9861-.8582-2.3646-1.0217-5.0549-1.0409-6.4916-.0084-.6297.393-1.1805.9855-1.4081L9.1.662c.5605-.2153,1.1819-.216,1.743-.0019Z" fill="none" stroke="#001531"/><path d="M13.4436,12.4599c.2047.4984-.1732,1.0401-.7256,1.0401-.3236,0-.6138-.1938-.7295-.4874l-.4797-1.2162h-3.076l-.4531,1.2153c-.1093.2931-.3958.4883-.7167.4883-.5359,0-.9045-.523-.7106-1.0083l2.2955-5.7441c.1801-.4507.6267-.7476,1.1244-.7476.4936,0,.9374.2921,1.1203.7373l2.351,5.7225ZM11.0101,10.5327l-1.0603-2.783-1.0393,2.783h2.0996Z" fill="#001531" stroke-width="0"/></svg>