<?xml version="1.0" encoding="UTF-8"?><svg id="Layer_1" xmlns="http://www.w3.org/2000/svg" viewBox="0 0 20 20"><path d="M2.5,3c0-1.3807,1.1193-2.5,2.5-2.5h11c1.3807,0,2.5,1.1193,2.5,2.5v14c0,1.3807-1.1193,2.5-2.5,2.5H5c-1.3807,0-2.5-1.1193-2.5-2.5V3Z" fill="#001531" stroke-width="0"/><path d="M2.5,3c0-1.3807,1.1193-2.5,2.5-2.5h11c1.3807,0,2.5,1.1193,2.5,2.5v14c0,1.3807-1.1193,2.5-2.5,2.5H5c-1.3807,0-2.5-1.1193-2.5-2.5V3Z" fill="rgba(255,255,255,.9)" stroke-width="0"/><path d="M1,15h3M1,9.9995h3M1,5h3M5,19.5h11c1.3807,0,2.5-1.1193,2.5-2.5V3c0-1.3807-1.1193-2.5-2.5-2.5H5c-1.3807,0-2.5,1.1193-2.5,2.5v14c0,1.3807,1.1193,2.5,2.5,2.5Z" fill="none" stroke="#001531" stroke-linecap="round" stroke-linejoin="round"/><path d="M14.5012,7.6546c.234.2296.234.6019,0,.8315l-3.9333,3.8586c-.2341.2297-.6136.2297-.8477,0l-2.0603-2.0212c-.2341-.2296-.2341-.6019,0-.8315.2341-.2296.6136-.2296.8476,0l1.6364,1.6054,3.5096-3.4429c.234-.2296.6135-.2296.8476,0Z" fill="#001531" stroke-width="0"/></svg>