<svg id="No_Messages" data-name="No Messages" xmlns="http://www.w3.org/2000/svg" xmlns:xlink="http://www.w3.org/1999/xlink" viewBox="0 0 20 20"><defs><linearGradient id="linear-gradient" x1="13.9824" y1="-1036.8684" x2="13.9824" y2="-1049.964" gradientTransform="matrix(1, 0, 0, -1, 0, -1036)" gradientUnits="userSpaceOnUse"><stop offset="0" stop-color="#fff"/><stop offset="1" stop-color="#fff" stop-opacity="0"/></linearGradient></defs><path d="M20,10A10,10,0,1,1,10,0,10,10,0,0,1,20,10Z" fill="#252a3a"/><path d="M20,10A10,10,0,1,1,10,0,10,10,0,0,1,20,10Z" fill="#fff" fill-opacity="0.9"/><path d="M5.9976,5.793v.0058A3.4134,3.4134,0,0,0,2.8228,7.9129a.328.328,0,0,0-.0259.1278v6.1806h8.1945v-6.06a3.1154,3.1154,0,0,1,1.91-1.9684l1.1138-.4Z" fill="#252a3a"/><path d="M5.6428,16.3027a3.8926,3.8926,0,0,0,1.4327,3.16,10.2858,10.2858,0,0,0,2.44.398C9.3037,18.5348,8.3516,16.908,5.6428,16.3027Z" fill="#252a3a"/><path d="M14.0153,5.793H5.9976v.0057A3.4138,3.4138,0,0,0,2.8227,7.9129a.33.33,0,0,0-.0258.1278v6.1806h8.1945v-6.06a3.1154,3.1154,0,0,1,1.91-1.9684Z" fill="#fff" fill-opacity="0.8" fill-rule="evenodd"/><path id="Black_Fills" data-name="Black Fills" d="M10.9764,8.2281a.6014.6014,0,0,1,.046-.23h0a3.2052,3.2052,0,0,1,5.92,0h0a.5994.5994,0,0,1,.0459.23V13.964H10.9764Z" fill="url(#linear-gradient)"/><g id="White_Fill" data-name="White Fill"><path d="M4.1926,11.8129H6.5747a.17.17,0,1,0,0-.34H4.1926a.17.17,0,0,0,0,.34Z" fill="#fff"/><path d="M7.9424,12.6367h-3.75a.17.17,0,0,0,0,.34h3.75a.17.17,0,0,0,0-.34Z" fill="#fff"/><path d="M4.1926,9.09h1.362a.17.17,0,1,0,0-.34H4.1926a.17.17,0,1,0,0,.34Z" fill="#fff"/><path d="M10.0457,3.9429l.3983-.5288a.025.025,0,0,0-.02-.04H8.4065v1.25h2.0224a.025.025,0,0,0,.0212-.0383Z" fill="#fff"/><circle cx="8.3994" cy="9.6406" r="0.375" fill="#fff"/></g><path d="M7.0755,19.4632a3.8926,3.8926,0,0,1-1.4327-3.16c2.7088.6053,3.6609,2.2321,3.8722,3.5585A10.2875,10.2875,0,0,1,7.0755,19.4632Z" fill="#fff" fill-opacity="0.8"/><path d="M10.5369,19.8564c.3351-1.1716,1.3116-2.4,3.82-2.791a3.1522,3.1522,0,0,1-.6964,2.1077A11.3649,11.3649,0,0,1,10.5369,19.8564ZM5.1624,17.7671a2.5732,2.5732,0,0,0,.1731.8337,9.0365,9.0365,0,0,0,3.82,1.2333C8.6269,18.8056,7.4993,17.8579,5.1624,17.7671Z" fill="#252a3a" fill-rule="evenodd"/><path d="M9.9043,19.75V14.229H8.76v3.67q.1211.1455.2239.2958a4.0154,4.0154,0,0,1,.6387,1.5488Q9.7629,19.7483,9.9043,19.75Zm-.539-.02a3.7621,3.7621,0,0,0-.5877-1.3941,4.8746,4.8746,0,0,0-3.0261-1.88,2.7582,2.7582,0,0,0,.2256,1.2574A4.4715,4.4715,0,0,1,8.669,18.9418a3.4709,3.4709,0,0,1,.568.7788Zm-.432-.0374a3.2075,3.2075,0,0,0-.4438-.5765,4.1382,4.1382,0,0,0-2.3885-1.132,4.7574,4.7574,0,0,0,.6739.9895q.153.1746.3228.3371a9.6945,9.6945,0,0,0,1.8356.3816Zm-2.35-.5576a4.9192,4.9192,0,0,1-.78-1.1927q-.2435-.0291-.5089-.0439a2.5455,2.5455,0,0,0,.1923.747,9.7043,9.7043,0,0,0,1.0969.4893Zm-1.4281-.672a9.7493,9.7493,0,1,1,8.8427.4323,3.0978,3.0978,0,0,0,.4833-1.84l-.0113-.1337-.1325.0206a4.9235,4.9235,0,0,0-3.329,1.6953l-.0323.0427V14.2285h6.4933a.125.125,0,0,0,0-.25h-.2307v-5.75a.8524.8524,0,0,0-.065-.3264A3.42,3.42,0,0,0,13.5914,5.793H8.5244V4.749h1.9045a.15.15,0,0,0,.127-.23l-.3585-.57.3465-.46a.15.15,0,0,0-.12-.24h-1.9V2.7422a.125.125,0,0,0-.25,0V5.793H5.9976v.0057A3.4138,3.4138,0,0,0,2.8227,7.9129a.33.33,0,0,0-.0258.1278v6.1806h.0058v.0072H8.51v3.3951A5.6241,5.6241,0,0,0,5.671,16.18l-.131-.03-.02.1326a2.8321,2.8321,0,0,0,.1757,1.3955q-.2541-.0258-.529-.0366l-.134-.0053.0042.1341A2.6288,2.6288,0,0,0,5.1552,18.463Zm8.4249.6087a3.0884,3.0884,0,0,0,.6592-1.86A4.596,4.596,0,0,0,11.2067,18.79a3.1959,3.1959,0,0,0-.2306.3449v.5669a9.6867,9.6867,0,0,0,2.6039-.63Zm-2.854.6517v-.0473l-.0169.0485Zm-.2849.0168a3.5865,3.5865,0,0,1,.2849-.6713v-4.84h-.5678v5.52q.1418-.0024.2829-.0089ZM20,10A10,10,0,1,1,10,0,10,10,0,0,1,20,10ZM8.2744,6.043H6.2476v.0038L6,6.0487A3.1636,3.1636,0,0,0,3.0531,8.01a.0786.0786,0,0,0-.0062.0306v5.9306H9.9083v-.0006h.8181V8.2281a.85.85,0,0,1,.0651-.3264,3.4144,3.4144,0,0,1,1.2617-1.554,3.3588,3.3588,0,0,1,.549-.3047H8.5244V9.0281a.625.625,0,1,1-.25,0Zm.2571-1.544v-1h1.692l-.3295.4376.3538.5624Zm8.4572,9.465H10.9914V8.1611a3.1156,3.1156,0,0,1,1.1545-1.5733,3.2135,3.2135,0,0,1,4.7969,1.41.6032.6032,0,0,1,.0459.23ZM4.1926,12.3867a.42.42,0,0,0,0,.84h3.75a.42.42,0,0,0,0-.84Zm-.17.42a.17.17,0,0,1,.17-.17h3.75a.17.17,0,0,1,0,.34h-3.75a.17.17,0,0,1-.17-.17Zm-.25-1.164a.42.42,0,0,1,.42-.42H6.5747a.42.42,0,1,1,0,.84H4.1926a.42.42,0,0,1-.42-.42Zm.42-.17a.17.17,0,1,0,0,.34H6.5747a.17.17,0,1,0,0-.34H4.1926Zm0-2.9727a.42.42,0,1,0,0,.84h1.362a.42.42,0,1,0,0-.84Zm-.17.42a.17.17,0,0,1,.17-.17h1.362a.17.17,0,1,1,0,.34H4.1926a.17.17,0,0,1-.17-.17ZM8.4,10.0155a.375.375,0,1,0-.375-.375.375.375,0,0,0,.375.375Z" fill="#252a3a" fill-rule="evenodd"/></svg>