<?xml version="1.0" encoding="UTF-8"?><svg id="Icon" xmlns="http://www.w3.org/2000/svg" viewBox="0 0 20 20"><path id="Solid_Fill" d="M2.382,2h15.2358c1.0474,0,1.9045,.8998,1.9045,1.9996V15.9974c0,1.0998-.8571,1.9997-1.9045,1.9997H2.382c-1.0475,0-1.9045-.8999-1.9045-1.9997V3.9996c0-1.0998,.857-1.9996,1.9045-1.9996Z" fill="#001531"/><path id="Opacity_Fill" d="M2.382,2h15.2358c1.0474,0,1.9045,.8998,1.9045,1.9996V15.9974c0,1.0998-.8571,1.9997-1.9045,1.9997H2.382c-1.0475,0-1.9045-.8999-1.9045-1.9997V3.9996c0-1.0998,.857-1.9996,1.9045-1.9996Z" fill="rgba(255,255,255,.9)"/><path id="Outline" d="M19.9999,15.9979c0,1.3768-1.0708,2.5011-2.3821,2.5011H2.3821c-1.3112,0-2.3821-1.1243-2.3821-2.5011V3.9983C.0009,2.6224,1.0714,1.499,2.3821,1.499h15.2357c1.3076,0,2.3761,1.1181,2.3821,2.4896V15.9979ZM.9748,3.7529c.1134-.7067,.7037-1.2509,1.4072-1.2509h15.2357c.7036,0,1.2939,.5443,1.4073,1.251l-9.0251,6.6333L.9748,3.7529Zm-.0196,1.2098l8.7709,6.4464c.1644,.1209,.3833,.1209,.5478,0l8.7708-6.4464V15.9979c0,.8229-.6432,1.4982-1.4269,1.4982H2.3821c-.7837,0-1.4269-.6753-1.4269-1.4982V4.9627Z" fill="#001531" fill-rule="evenodd"/></svg>