<?xml version="1.0" encoding="UTF-8"?><svg id="Layer_1" xmlns="http://www.w3.org/2000/svg" viewBox="0 0 20 20"><path d="M18.7106,13.7892c.5078-1.1623.7894-2.4458.7894-3.7951C19.5,4.7507,15.2467.5,10,.5S.5,4.7507.5,9.9941s4.2533,9.4942,9.5,9.4942c1.3435,0,2.6219-.2787,3.7804-.7815.604.4957,1.3771.7932,2.2196.7932,1.933,0,3.5-1.566,3.5-3.4978,0-.8396-.296-1.6101-.7894-2.213Z" fill="#001531" stroke-width="0"/><path d="M18.7106,13.7892c.5078-1.1623.7894-2.4458.7894-3.7951C19.5,4.7507,15.2467.5,10,.5S.5,4.7507.5,9.9941s4.2533,9.4942,9.5,9.4942c1.3435,0,2.6219-.2787,3.7804-.7815.604.4957,1.3771.7932,2.2196.7932,1.933,0,3.5-1.566,3.5-3.4978,0-.8396-.296-1.6101-.7894-2.213Z" fill="rgba(255,255,255,.9)" stroke-width="0"/><path d="M13.7455,18.7331c-1.1492.4936-2.4154.7669-3.7455.7669C4.7533,19.5.5,15.2467.5,10S4.7533.5,10,.5s9.5,4.2533,9.5,9.5c0,1.3705-.2902,2.6733-.8126,3.8502M19.5,16c0,1.933-1.567,3.5-3.5,3.5s-3.5-1.567-3.5-3.5,1.567-3.5,3.5-3.5,3.5,1.567,3.5,3.5Z" fill="none" stroke="#001531"/></svg>