<?xml version="1.0" encoding="UTF-8"?><svg id="Layer_1" xmlns="http://www.w3.org/2000/svg" viewBox="0 0 20 20"><path d="M18.9998,3.6671c-.0296-1.7509-4.0476-3.1671-8.9998-3.1671S1.0298,1.9162,1.0002,3.6671l-.0002.0195v12.6458s0,3.1676,9,3.1676,9-3.1676,9-3.1676V3.6866l-.0002-.0195Z" fill="#001531" stroke-width="0"/><path d="M18.9998,3.667c-.0296-1.7509-4.0476-3.167-8.9998-3.167S1.0298,1.9161,1.0002,3.667l-.0002.0195v12.6453s0,3.1674,9,3.1674,9-3.1674,9-3.1674V3.6865l-.0002-.0195Z" fill="rgba(255,255,255,.9)" stroke-width="0"/><path d="M1,3.667v6.3329M1,9.9999s0,3.1662,9,3.1662,9-3.1662,9-3.1662M1,9.9999v6.3329s0,3.1674,9,3.1674,9-3.1674,9-3.1674v-6.3329M19,9.9999V3.667M19,3.6865c0,1.7598-4.0294,3.1865-9,3.1865S1,5.4463,1,3.6865,5.0294.5,10,.5s9,1.4266,9,3.1865Z" fill="none" stroke="#001531" stroke-linecap="round" stroke-linejoin="round"/></svg>