<svg id="VM_Warning_Icon" data-name="VM Warning Icon" xmlns="http://www.w3.org/2000/svg" viewBox="0 0 20 20"><path id="Black_Fill" data-name="Black Fill" d="M10.8874.1685,18.9621,3.25A1.57,1.57,0,0,1,20,4.7382a21.3476,21.3476,0,0,1-1.1922,6.8271c-1.4176,3.7046-4.7333,7.4781-8.6694,8.4138a.7844.7844,0,0,1-.3889-.0075,13.5546,13.5546,0,0,1-8.6534-8.4063A22.0762,22.0762,0,0,1,0,4.732,1.5767,1.5767,0,0,1,1.0375,3.25L9.0527.1705A2.5671,2.5671,0,0,1,10.8874.1685Z" fill="#252a3a"/><path id="Grey_Fill" data-name="Grey Fill" d="M10.8874.1685,18.9621,3.25A1.57,1.57,0,0,1,20,4.7382a21.3476,21.3476,0,0,1-1.1922,6.8271c-1.4176,3.7046-4.7333,7.4781-8.6694,8.4138a.7844.7844,0,0,1-.3889-.0075,13.5546,13.5546,0,0,1-8.6534-8.4063A22.0762,22.0762,0,0,1,0,4.732,1.5767,1.5767,0,0,1,1.0375,3.25L9.0527.1705A2.5671,2.5671,0,0,1,10.8874.1685Z" fill="#fff" fill-opacity="0.9"/><path id="Outlines" d="M10.5825.9532l8.0747,3.0815a.73.73,0,0,1,.4942.6863,20.5229,20.5229,0,0,1-1.1373,6.5461c-1.3527,3.5352-4.4876,7.0319-8.0547,7.89a12.7176,12.7176,0,0,1-8.0652-7.8761,21.255,21.255,0,0,1-1.0457-6.56.7362.7362,0,0,1,.4956-.6871L9.3594.9546A1.7115,1.7115,0,0,1,10.5825.9532Zm.3049-.7847L18.9621,3.25A1.57,1.57,0,0,1,20,4.7382a21.3476,21.3476,0,0,1-1.1922,6.8271c-1.4176,3.7046-4.7333,7.4781-8.6694,8.4138a.7844.7844,0,0,1-.3889-.0075,13.5546,13.5546,0,0,1-8.6534-8.4063A22.0762,22.0762,0,0,1,0,4.732,1.5767,1.5767,0,0,1,1.0375,3.25L9.0527.1705A2.5671,2.5671,0,0,1,10.8874.1685ZM9.1185,12.67a1.2137,1.2137,0,0,1,.8789-.3258,1.2148,1.2148,0,0,1,.8756.3226,1.1164,1.1164,0,0,1-.0032,1.5953l-.0033.0033-.0034.0031a1.2408,1.2408,0,0,1-.8657.3024,1.2408,1.2408,0,0,1-.8657-.3024l-.0071-.0065-.0068-.0068A1.1313,1.1313,0,0,1,9.1185,12.67Zm-.0241-2.1289-.0631-3.972A1.022,1.022,0,0,1,10.0242,5.43a1.0022,1.0022,0,0,1,.9665,1.14l-.0679,3.9719a.8549.8549,0,0,1-.8986.95A.8774.8774,0,0,1,9.0944,10.5412Z" fill="#252a3a" fill-rule="evenodd"/></svg>