<svg id="Lock" xmlns="http://www.w3.org/2000/svg" viewBox="0 0 20 20"><path d="M10,0A6,6,0,0,0,4,6V8.5029a2,2,0,0,0-2,2V18a2,2,0,0,0,2,2H16a2,2,0,0,0,2-2V10.5029a2,2,0,0,0-2-2V6A6,6,0,0,0,10,0Z" fill="#252a3a" fill-rule="evenodd"/><path d="M10,0A6,6,0,0,0,4,6V8.5029a2,2,0,0,0-2,2V18a2,2,0,0,0,2,2H16a2,2,0,0,0,2-2V10.5029a2,2,0,0,0-2-2V6A6,6,0,0,0,10,0Z" fill="#fff" fill-opacity="0.9" fill-rule="evenodd"/><path d="M4.8,8.5029H15.2V6A5.2,5.2,0,1,0,4.8,6Zm-.8,0a2,2,0,0,0-2,2V18a2,2,0,0,0,2,2H16a2,2,0,0,0,2-2V10.5029a2,2,0,0,0-2-2V6A6,6,0,0,0,4,6Zm-1.2,2a1.2,1.2,0,0,1,1.2-1.2H16a1.2,1.2,0,0,1,1.2,1.2h0V18A1.2,1.2,0,0,1,16,19.2H4A1.2,1.2,0,0,1,2.8,18h0Z" fill="#252a3a" fill-rule="evenodd"/><path d="M8.6875,13.7737a1.3131,1.3131,0,0,1,2.625,0,1.2658,1.2658,0,0,1-.6563,1.1025v.489a.6565.6565,0,0,1-1.3124,0v-.489A1.2658,1.2658,0,0,1,8.6875,13.7737Z" fill="#252a3a" fill-rule="evenodd"/></svg>