<?xml version="1.0" encoding="UTF-8"?><svg id="Layer_1" xmlns="http://www.w3.org/2000/svg" viewBox="0 0 20 20"><path d="M8.5906.8805l-6.4273,3.7395c-.8745.5094-1.4134,1.4512-1.4134,2.4711v9.83c0,1.4224,1.1409,2.5769,2.5492,2.5778l1.875.0011c.9517.0011,1.7225-.7775,1.7225-1.7378v-3.4303c0-1.0158.8155-1.8395,1.8212-1.8395h2.5644c1.0057,0,1.8211.8237,1.8211,1.8395v3.4303c0,.9603.7718,1.7389,1.7226,1.7378l1.875-.0011c1.4082-.0009,2.5491-1.1554,2.5491-2.5778V7.0911c0-1.0199-.5389-1.9617-1.4134-2.4711L11.4093.8805c-.8724-.5074-1.9461-.5074-2.8187,0Z" fill="#001531" fill-rule="evenodd" stroke-width="0"/><path d="M8.5906.8805l-6.4273,3.7395c-.8745.5094-1.4134,1.4512-1.4134,2.4711v9.83c0,1.4224,1.1409,2.5769,2.5492,2.5778l1.875.0011c.9517.0011,1.7225-.7775,1.7225-1.7378v-3.4303c0-1.0158.8155-1.8395,1.8212-1.8395h2.5644c1.0057,0,1.8211.8237,1.8211,1.8395v3.4303c0,.9603.7718,1.7389,1.7226,1.7378l1.875-.0011c1.4082-.0009,2.5491-1.1554,2.5491-2.5778V7.0911c0-1.0199-.5389-1.9617-1.4134-2.4711L11.4093.8805c-.8724-.5074-1.9461-.5074-2.8187,0Z" fill="rgba(255,255,255,.9)" fill-rule="evenodd" stroke-width="0"/><path d="M8.5906.8805l-6.4273,3.7395c-.8745.5094-1.4134,1.4512-1.4134,2.4711v9.83c0,1.4224,1.1409,2.5769,2.5492,2.5778l1.875.0011c.9517.0011,1.7225-.7775,1.7225-1.7378v-3.4303c0-1.0158.8155-1.8395,1.8212-1.8395h2.5644c1.0057,0,1.8211.8237,1.8211,1.8395v3.4303c0,.9603.7718,1.7389,1.7225,1.7378l1.8751-.0011c1.4082-.0009,2.5491-1.1554,2.5491-2.5778V7.0911c0-1.0199-.5389-1.9617-1.4134-2.4711L11.4093.8805c-.8724-.5074-1.9461-.5074-2.8187,0Z" fill="none" stroke="#001531" stroke-linecap="round" stroke-linejoin="round"/></svg>