<?xml version="1.0" encoding="UTF-8"?><svg id="Icon" xmlns="http://www.w3.org/2000/svg" viewBox="0 0 20 20"><path id="Solid_Fill" d="M10.001,19.4737c5.2322,0,9.4737-4.2415,9.4737-9.4737S15.2332,.5264,10.001,.5264,.5273,4.7679,.5273,10s4.2415,9.4737,9.4737,9.4737Z" fill="#001531"/><path id="Opacity_Fill" d="M10.001,19.4737c5.2322,0,9.4737-4.2415,9.4737-9.4737S15.2332,.5264,10.001,.5264,.5273,4.7679,.5273,10s4.2415,9.4737,9.4737,9.4737Z" fill="rgba(255,255,255,.9)"/><g id="Outline"><path d="M12.4287,9.9995c0-1.3403-1.0865-2.4269-2.4269-2.4269s-2.4268,1.0865-2.4268,2.4269,1.0865,2.4269,2.4268,2.4269,2.4269-1.0865,2.4269-2.4269Zm-3.6842,0c0-.6943,.5629-1.2573,1.2573-1.2573s1.2573,.5629,1.2573,1.2573-.5629,1.2574-1.2573,1.2574-1.2573-.563-1.2573-1.2574Z" fill="#001531" fill-rule="evenodd"/><path d="M10.7497,4.3269c.0006-.323-.2608-.5853-.5837-.5858-2.0586-.0035-4.498,1.3284-5.5276,3.4767-.1396,.2913-.0167,.6405,.2746,.7801,.2912,.1396,.6405,.0167,.7801-.2746,.8208-1.7125,2.8298-2.8154,4.4709-2.8126,.3229,.0005,.5852-.2609,.5857-.5838Z" fill="#001531" fill-rule="evenodd"/><path d="M15.249,12.1276c-.2863-.1495-.6395-.0386-.789,.2477-.8792,1.6834-2.9247,2.7167-4.5647,2.6576-.3228-.0116-.5939,.2406-.6055,.5634-.0117,.3227,.2406,.5938,.5634,.6055,2.0572,.0741,4.5409-1.1735,5.6435-3.2851,.1495-.2863,.0386-.6396-.2477-.7891Z" fill="#001531" fill-rule="evenodd"/><path d="M10,0C4.4772,0,0,4.4772,0,10s4.4772,10,10,10,10-4.4772,10-10S15.5228,0,10,0Zm0,18.9474C5.0585,18.9474,1.0526,14.9415,1.0526,10S5.0585,1.0526,10,1.0526s8.9474,4.0059,8.9474,8.9474-4.0059,8.9474-8.9474,8.9474Z" fill="#001531" fill-rule="evenodd"/></g></svg>
