<svg width="20" height="20" viewBox="0 0 20 20" fill="none" xmlns="http://www.w3.org/2000/svg">
<g clip-path="url(#clip0_9266_239072)">
<path d="M7.16904 0.464844H12.8252C13.3459 0.464844 13.7679 0.891821 13.7679 1.41853V2.36914H15.6567C16.1568 2.36914 16.6363 2.57009 16.9899 2.92779C17.3435 3.28549 17.5421 3.77064 17.5421 4.2765V17.628C17.5421 18.1339 17.3435 18.6191 16.9899 18.9768C16.6363 19.3345 16.1568 19.5354 15.6567 19.5354H4.34438C3.84434 19.5354 3.36478 19.3345 3.0112 18.9768C2.65762 18.6191 2.45898 18.1339 2.45898 17.628V4.2765C2.45898 3.77064 2.65762 3.28549 3.0112 2.92779C3.36478 2.57009 3.84434 2.36914 4.34438 2.36914H6.22635V1.41853C6.22635 0.891821 6.64841 0.464844 7.16904 0.464844Z" fill="#E8E7E9"/>
<path d="M13.5389 9.41001C13.7593 9.19379 13.7593 8.84323 13.5389 8.62701C13.3185 8.41079 12.9611 8.41079 12.7407 8.62701L9.43606 11.8689L7.89509 10.3572C7.67469 10.141 7.31735 10.141 7.09694 10.3572C6.87654 10.5734 6.87654 10.924 7.09694 11.1402L9.03699 13.0434C9.25739 13.2597 9.61474 13.2597 9.83514 13.0434L13.5389 9.41001Z" fill="#180B25"/>
<path fill-rule="evenodd" clip-rule="evenodd" d="M5.76946 1.41745V1.9062H4.3448C3.72318 1.9062 3.12702 2.15601 2.68747 2.60069C2.24791 3.04536 2.00098 3.64847 2.00098 4.27733V17.6289C2.00098 18.2577 2.24791 18.8608 2.68747 19.3055C3.12702 19.7502 3.72318 20 4.3448 20H15.6572C16.2788 20 16.8749 19.7502 17.3145 19.3055C17.754 18.8608 18.001 18.2577 18.001 17.6289V4.27733C18.001 3.64847 17.754 3.04536 17.3145 2.60069C16.8749 2.15601 16.2788 1.9062 15.6572 1.9062H14.2279V1.41745C14.2279 0.634613 13.6006 0 12.8268 0H7.17058C6.39677 0 5.76946 0.634613 5.76946 1.41745ZM7.17058 0.927535C6.90313 0.927535 6.68631 1.14688 6.68631 1.41745V2.32319C6.68784 2.33857 6.68862 2.35418 6.68862 2.36997C6.68862 2.38575 6.68784 2.40136 6.68631 2.41674V3.32481C6.68631 3.59538 6.90313 3.81473 7.17058 3.81473H12.8268C13.0942 3.81473 13.311 3.59538 13.311 3.32481V1.41745C13.311 1.14688 13.0942 0.927535 12.8268 0.927535H7.17058ZM4.3448 2.83373H5.76946V3.32481C5.76946 4.10765 6.39677 4.74226 7.17058 4.74226H12.8268C13.6006 4.74226 14.2279 4.10765 14.2279 3.32481V2.83373H15.6572C16.0356 2.83373 16.3986 2.98583 16.6662 3.25655C16.9338 3.52728 17.0841 3.89446 17.0841 4.27733V17.6289C17.0841 18.0117 16.9338 18.3789 16.6662 18.6496C16.3986 18.9204 16.0356 19.0725 15.6572 19.0725H4.3448C3.96634 19.0725 3.60339 18.9204 3.33578 18.6496C3.06817 18.3789 2.91783 18.0117 2.91783 17.6289V4.27733C2.91783 3.89446 3.06817 3.52728 3.33578 3.25655C3.60339 2.98583 3.96634 2.83373 4.3448 2.83373Z" fill="#180B25"/>
</g>
<defs>
<clipPath id="clip0_9266_239072">
<rect width="20" height="20" fill="white"/>
</clipPath>
</defs>
</svg>
