<?xml version="1.0" encoding="UTF-8"?><svg id="Layer_1" xmlns="http://www.w3.org/2000/svg" viewBox="0 0 20 20"><path d="M.5,4.0001C.5,2.6194,1.6193,1.5001,3,1.5001h4.688c.953,0,1.8494.4527,2.4148,1.2199l.5415.7345c.1885.2557.4872.4066.8049.4066h5.5508c1.3807,0,2.5,1.1193,2.5,2.5v9.6389c0,1.3807-1.1193,2.5-2.5,2.5H3c-1.3807,0-2.5-1.1193-2.5-2.5V4.0001Z" fill="#001531" stroke-width="0"/><path d="M.5,4.0001C.5,2.6194,1.6193,1.5001,3,1.5001h4.688c.953,0,1.8494.4527,2.4148,1.2199l.5415.7345c.1885.2557.4872.4066.8049.4066h5.5508c1.3807,0,2.5,1.1193,2.5,2.5v9.6389c0,1.3807-1.1193,2.5-2.5,2.5H3c-1.3807,0-2.5-1.1193-2.5-2.5V4.0001Z" fill="rgba(255,255,255,.9)" stroke-width="0"/><path d="M.5,4.0001C.5,2.6194,1.6193,1.5001,3,1.5001h4.688c.953,0,1.8494.4527,2.4148,1.2199l.5415.7345c.1885.2557.4872.4066.8049.4066h5.5508c1.3807,0,2.5,1.1193,2.5,2.5v9.6389c0,1.3807-1.1193,2.5-2.5,2.5H3c-1.3807,0-2.5-1.1193-2.5-2.5V4.0001Z" fill="none" stroke="#001531"/><path d="M9.0005,9.5077c.8975,0,1.625-.7275,1.625-1.6249s-.7275-1.6249-1.625-1.6249-1.6249.7275-1.6249,1.6249.7275,1.6249,1.6249,1.6249Z" fill="#001531" stroke-width="0"/><path d="M12.5004,9.5082c.6213,0,1.1249-.5037,1.1249-1.1249s-.5036-1.125-1.1249-1.125-1.125.5037-1.125,1.125.5037,1.1249,1.125,1.1249Z" fill="#001531" stroke-width="0"/><path d="M13.4005,10.2303h-1.8451c-.0808-.1302-.2235-.2183-.388-.2224h-4.5834c-.2592.0064-.4642.2215-.4582.4807v2.8847c-.0362,1.5555,1.1945,2.8463,2.7499,2.8844,1.0504-.0257,1.9525-.6226,2.4166-1.4866.2467.1334.5292.2091.8293.2091h.0082c.9642,0,1.7457-.7816,1.7457-1.7457v-2.5292c0-.2623-.2126-.475-.475-.475Z" fill="#001531" stroke-width="0"/></svg>