<?xml version="1.0" encoding="UTF-8"?><svg id="Layer_1" xmlns="http://www.w3.org/2000/svg" viewBox="0 0 20 20"><path d="M.5,4.0001C.5,2.6194,1.6193,1.5001,3,1.5001h4.688c.953,0,1.8494.4527,2.4148,1.2199l.5415.7345c.1885.2557.4872.4066.8049.4066h5.5508c1.3807,0,2.5,1.1193,2.5,2.5v9.6389c0,1.3807-1.1193,2.5-2.5,2.5H3c-1.3807,0-2.5-1.1193-2.5-2.5V4.0001Z" fill="#001531" stroke-width="0"/><path d="M.5,4.0001C.5,2.6194,1.6193,1.5001,3,1.5001h4.688c.953,0,1.8494.4527,2.4148,1.2199l.5415.7345c.1885.2557.4872.4066.8049.4066h5.5508c1.3807,0,2.5,1.1193,2.5,2.5v9.6389c0,1.3807-1.1193,2.5-2.5,2.5H3c-1.3807,0-2.5-1.1193-2.5-2.5V4.0001Z" fill="rgba(255,255,255,.9)" stroke-width="0"/><path d="M.5,4.0001C.5,2.6194,1.6193,1.5001,3,1.5001h4.688c.953,0,1.8494.4527,2.4148,1.2199l.5415.7345c.1885.2557.4872.4066.8049.4066h5.5508c1.3807,0,2.5,1.1193,2.5,2.5v9.6389c0,1.3807-1.1193,2.5-2.5,2.5H3c-1.3807,0-2.5-1.1193-2.5-2.5V4.0001Z" fill="none" stroke="#001531"/><path d="M5,11.25c0,2.7573,2.2431,5,5,5s5-2.2427,5-5c0-.7691-.1745-1.4982-.4861-2.1497-.0136-.0456-.0348-.0879-.0621-.1255-.8294-1.6163-2.5135-2.7248-4.4518-2.7248s-3.6218,1.1082-4.4514,2.7242c-.0276.0379-.0491.0806-.0628.1266-.3114.6514-.4859,1.3803-.4859,2.1492ZM12.2215,9.6388h1.6175c.1574.3737.2618.775.3036,1.1945-.0097-.0007-.0196-.0011-.0295-.0011h-1.7816c-.015-.4171-.0525-.8166-.11-1.1934ZM12.0517,8.8021h1.3142c-.4729-.6485-1.1285-1.1558-1.8903-1.4455.2351.3928.4308.8823.5761,1.4455ZM8.5244,7.3567c-.7618.2897-1.4173.7969-1.8902,1.4454h1.314c.1453-.5631.341-1.0527.5761-1.4454ZM8.8493,8.8021c.3049-1.0384.7735-1.6246,1.1507-1.6246s.8457.5862,1.1506,1.6246h-2.3013ZM8.6595,9.6388h2.6809c.0611.3635.1031.7624.1197,1.1934h-2.9202c.0166-.431.0586-.8299.1196-1.1934ZM7.7785,9.6388h-1.6174c-.1574.3737-.2618.775-.3037,1.1945.0097-.0007.0196-.0011.0295-.0011h1.7816c.015-.4171.0525-.8166.11-1.1934ZM7.6686,11.669h-1.7817c-.0099,0-.0196-.0004-.0293-.0011.042.4195.1465.8208.3041,1.1945h1.6172c-.0576-.3768-.0951-.7763-.1102-1.1934ZM8.5399,11.669c.0167.431.0587.83.1198,1.1934h2.6805c.0611-.3634.1032-.7624.1198-1.1934h-2.9201ZM12.3314,11.669c-.0151.4171-.0526.8166-.1102,1.1934h1.6172c.1575-.3737.2621-.775.3041-1.1945-.0097.0007-.0195.0011-.0294.0011h-1.7817ZM11.1502,13.6991h-2.3004c.3049,1.0376.7733,1.6233,1.1502,1.6233s.8453-.5857,1.1502-1.6233ZM7.9488,13.6991h-1.3136c.4729.648,1.1283,1.1548,1.8897,1.4442-.2351-.3924-.4308-.8815-.5761-1.4442ZM11.475,15.1434c.2351-.3924.4308-.8816.5762-1.4443h1.3137c-.473.648-1.1283,1.1548-1.8899,1.4443Z" fill="#001531" fill-rule="evenodd" stroke-width="0"/></svg>