<?xml version="1.0" encoding="UTF-8"?><svg id="Layer_1" xmlns="http://www.w3.org/2000/svg" viewBox="0 0 20 20"><path d="M10.8652.4143l7.8728,3.0044c.6112.2333,1.0251.8021,1.0117,1.451-.0303,1.4677-.2248,4.2063-1.1624,6.6564-1.3822,3.612-4.6149,7.2911-8.4527,8.2034-.1248.0296-.2555.0268-.3791-.0073-4.1746-1.1487-7.1916-4.7645-8.4371-8.1961C.4377,9.0993.2698,6.3382.2501,4.8637c-.0086-.6462.4034-1.2116,1.0114-1.4451L9.0764.4163c.5753-.221,1.213-.2217,1.7888-.002Z" fill="#001531" stroke-width="0"/><path d="M10.8652.4143l7.8728,3.0044c.6112.2333,1.0251.8021,1.0117,1.451-.0303,1.4677-.2248,4.2063-1.1624,6.6564-1.3822,3.612-4.6149,7.2911-8.4527,8.2034-.1248.0296-.2555.0268-.3791-.0073-4.1746-1.1487-7.1916-4.7645-8.4371-8.1961C.4377,9.0993.2698,6.3382.2501,4.8637c-.0086-.6462.4034-1.2116,1.0114-1.4451L9.0764.4163c.5753-.221,1.213-.2217,1.7888-.002Z" fill="rgba(255,255,255,.9)" stroke-width="0"/><path d="M11.0213.1929c-.6762-.2581-1.4249-.2572-2.1006.0023L1.3063,3.1205C.5344,3.4171-.0112,4.1464.0002,5.002c.0194,1.4535.1837,4.2112,1.0708,6.6556,1.2539,3.455,4.2965,7.1248,8.5581,8.2975l.1327-.482-.1326.482c.2001.0551.4128.0602.6177.0114,3.9508-.9391,7.2029-4.6831,8.5873-8.3008.9444-2.468,1.1356-5.2047,1.1655-6.6541.0177-.8609-.5314-1.5952-1.3074-1.8913L11.0213.1929ZM9.639,1.0292c-.1221.0214-.2425.0546-.3596.0996L1.6649,4.054c-.4129.1586-.6702.531-.6648.9347.0189,1.4198.1817,4.0429,1.0109,6.3277,1.1259,3.1024,3.7847,6.3377,7.4217,7.5351l1.9643-8.0127c.0465-.1897-.0217-.389-.1746-.5105l-3.5228-2.7998c-.5567-.4424-.7262-1.215-.406-1.8499l2.3454-4.6495ZM10.4566,18.8747c3.3393-1.0069,6.1893-4.2887,7.4435-7.5664.8827-2.3066,1.0706-4.9065,1.0997-6.3173.0083-.4038-.249-.778-.6641-.9364l-7.6334-2.9131-2.5158,4.9875c-.1067.2116-.0502.4691.1353.6166l3.5228,2.7998c.4586.3645.6631.9625.5236,1.5315l-1.9116,7.7978Z" fill="#001531" fill-rule="evenodd" stroke-width="0"/></svg>