<?xml version="1.0" encoding="UTF-8"?><svg id="Layer_1" xmlns="http://www.w3.org/2000/svg" viewBox="0 0 30 30"><path d="M3,5.0296C3,2.6665,4.8962.7509,7.2353.7509h11.1472c.4959-.0162.9752.1818,1.3178.5444l3.2596,3.4495,3.4985,3.6847c.3476.366.5416.8536.5416,1.3608v15.1809c0,2.3631-1.8962,4.2787-4.2353,4.2787H7.2353c-2.3391,0-4.2353-1.9156-4.2353-4.2787V5.0296Z" fill="#001531" stroke-width="0"/><path d="M3,5.0296C3,2.6665,4.8962.7509,7.2353.7509h11.1472c.4959-.0162.9752.1818,1.3178.5444l3.2596,3.4495,3.4985,3.6847c.3476.366.5416.8536.5416,1.3608v15.1809c0,2.3631-1.8962,4.2787-4.2353,4.2787H7.2353c-2.3391,0-4.2353-1.9156-4.2353-4.2787V5.0296Z" fill="rgba(255,255,255,.9)" stroke-width="0"/><path d="M20.0611.9491c-.4371-.4625-1.0505-.7164-1.6862-.6982H6.75C4.4024.2509,2.5,2.1556,2.5,4.5041v20.9927c0,2.3486,1.9024,4.2532,4.25,4.2532h16.5c2.3476,0,4.25-1.9046,4.25-4.2532v-15.7064c0-.6355-.2439-1.2468-.6814-1.7076l-3.4953-3.6813-.0008-.0009-3.2614-3.4515ZM6.75,1.2509h11.1325v5.5369c0,1.934,1.5666,3.5026,3.5,3.5026h5.1175v15.2064c0,1.7971-1.4555,3.2532-3.25,3.2532H6.75c-1.7945,0-3.25-1.4561-3.25-3.2532V4.5041c0-1.7971,1.4555-3.2532,3.25-3.2532ZM26.0934,8.7713c.1427.1503.2509.3274.3196.5191h-5.0305c-1.3803,0-2.5-1.12-2.5-2.5026V1.3327c.1694.0654.3241.1682.4517.3032l3.2623,3.4523.0008.0009,3.4961,3.6822ZM9.6094,14.6432c-.3314,0-.6.2686-.6.6s.2686.6.6.6h8.4844c.3313,0,.6-.2687.6-.6s-.2687-.6-.6-.6h-8.4844ZM9.6094,19.9576c-.3314,0-.6.2686-.6.6s.2686.6.6.6h10.7929c.3314,0,.6-.2686.6-.6s-.2686-.6-.6-.6h-10.7929Z" fill="#001531" fill-rule="evenodd" stroke-width="0"/></svg>