<?xml version="1.0" encoding="UTF-8"?><svg id="Layer_1" xmlns="http://www.w3.org/2000/svg" viewBox="0 0 20 20"><path d="M.5,4.0001C.5,2.6194,1.6193,1.5001,3,1.5001h4.688c.953,0,1.8494.4527,2.4148,1.2199l.5415.7345c.1885.2557.4872.4066.8049.4066h5.5508c1.3807,0,2.5,1.1193,2.5,2.5v9.6389c0,1.3807-1.1193,2.5-2.5,2.5H3c-1.3807,0-2.5-1.1193-2.5-2.5V4.0001Z" fill="#001531" stroke-width="0"/><path d="M.5,4.0001C.5,2.6194,1.6193,1.5001,3,1.5001h4.688c.953,0,1.8494.4527,2.4148,1.2199l.5415.7345c.1885.2557.4872.4066.8049.4066h5.5508c1.3807,0,2.5,1.1193,2.5,2.5v9.6389c0,1.3807-1.1193,2.5-2.5,2.5H3c-1.3807,0-2.5-1.1193-2.5-2.5V4.0001Z" fill="rgba(255,255,255,.9)" stroke-width="0"/><path d="M3,2.0001h4.688c.7942,0,1.5412.3773,2.0124,1.0166l.5414.7345c.2827.3836.7309.61,1.2074.61h5.5508c1.1046,0,2,.8954,2,2v9.6389c0,1.1045-.8954,2-2,2H3c-1.1046,0-2-.8955-2-2V4.0001c0-1.1046.8954-2,2-2ZM7.688,1H3c-1.6568,0-3,1.3432-3,3.0001v11.9999c0,1.6568,1.3431,3,3,3h14c1.6569,0,3-1.3432,3-3V6.3611c0-1.6569-1.3431-3-3-3h-5.5508c-.1588,0-.3082-.0755-.4025-.2033l-.5414-.7345c-.6597-.895-1.7055-1.4233-2.8173-1.4233ZM13.0712,6.7539c.6194,0,1.2653.0794,1.853.2647.397.1323.7411.2912,1.0588.5294v7.7294c0,.1324-.1324.2647-.2647.2647-.053,0-.0794,0-.1324-.0264-.7411-.3971-1.6411-.5559-2.5147-.5559-.9,0-2.197.3441-2.9117.7941-.7677-.5823-1.8794-.7941-2.9118-.7941-.7676,0-1.8.2382-2.5147.5823-.0265,0-.0463.0067-.0662.0133-.0199.0066-.0397.0132-.0662.0132-.1323,0-.2647-.1323-.2647-.2647v-7.7559c.7676-.5823,1.8794-.7941,2.9118-.7941s2.1441.2118,2.9118.7941c.7676-.5823,1.8794-.7941,2.9117-.7941ZM13.0712,13.901c.6353,0,1.2706.0794,1.853.2647v-6.0883c-.5824-.1853-1.2177-.2647-1.853-.2647-.9,0-2.197.3441-2.9117.7941v6.0883c.7147-.45,2.0117-.7941,2.9117-.7941Z" fill="#001531" fill-rule="evenodd" stroke-width="0"/></svg>