<?xml version="1.0" encoding="UTF-8"?><svg id="Layer_1" xmlns="http://www.w3.org/2000/svg" xmlns:xlink="http://www.w3.org/1999/xlink" viewBox="0 0 20 20"><defs><clipPath id="clippath"><rect width="20" height="20" fill="none"/></clipPath></defs><g clip-path="url(#clippath)"><g><path d="M10,1l2.9355,5.9243,6.5645,.9558-4.75,4.6089,1.121,6.511-5.871-3.0757-5.871,3.0757,1.121-6.511L.5,7.8801l6.5645-.9558L10,1Z" fill="#e8e7e9"/><path d="M10,.5c.163,0,.3119,.0922,.384,.2379l2.8581,5.7714,6.3916,.9312c.1612,.0235,.2951,.1362,.3454,.2907,.0503,.1545,.0082,.3241-.1086,.4374l-4.6245,4.4896,1.0914,6.3427c.0276,.1601-.0385,.322-.1704,.4175-.1319,.0955-.3067,.1081-.451,.0324l-5.716-2.9962-5.716,2.9962c-.1443,.0757-.3191,.0631-.451-.0324-.1319-.0955-.1979-.2574-.1704-.4175l1.0914-6.3427L.1295,8.1687c-.1167-.1133-.1588-.2829-.1086-.4374,.0503-.1545,.1842-.2672,.3454-.2907l6.3915-.9312L9.616,.7379c.0722-.1457,.221-.2379,.384-.2379Zm0,1.3913l-2.5736,5.197c-.0623,.1259-.1827,.2131-.3221,.2334l-5.7559,.8386,4.1646,4.0431c.101,.0981,.1471,.2394,.1233,.3779l-.9827,5.7114,5.1472-2.6981c.1248-.0654,.2738-.0654,.3986,0l5.1472,2.6981-.9827-5.7114c-.0239-.1385,.0222-.2798,.1233-.3779l4.1646-4.0431-5.756-.8386c-.1393-.0203-.2597-.1076-.3221-.2334L10,1.8913Z" fill="#180b25" fill-rule="evenodd"/></g></g></svg>