<svg width="20" height="20" viewBox="0 0 20 20" fill="none" xmlns="http://www.w3.org/2000/svg">
<g clip-path="url(#clip0_9266_239078)">
<path d="M18.9265 11.8115L11.8166 18.9215C11.6324 19.1059 11.4136 19.2522 11.1729 19.352C10.9321 19.4518 10.674 19.5031 10.4134 19.5031C10.1528 19.5031 9.89471 19.4518 9.65394 19.352C9.41318 19.2522 9.19445 19.1059 9.01026 18.9215L0.816101 10.7369C0.608715 10.5297 0.492188 10.2486 0.492188 9.95552V1.60143C0.492188 0.991508 0.986625 0.49707 1.59654 0.49707H9.95101C10.2439 0.49707 10.5248 0.613422 10.7319 0.820529L18.9265 9.01514C19.2959 9.38673 19.5032 9.88939 19.5032 10.4133C19.5032 10.9373 19.2959 11.4399 18.9265 11.8115Z" fill="#E8E7E9"/>
<path d="M5.66442 6.8933C6.39111 6.8933 6.98021 6.3042 6.98021 5.57751C6.98021 4.85082 6.39111 4.26172 5.66442 4.26172C4.93773 4.26172 4.34863 4.85082 4.34863 5.57751C4.34863 6.3042 4.93773 6.8933 5.66442 6.8933Z" fill="#180B25"/>
<path fill-rule="evenodd" clip-rule="evenodd" d="M1.59644 0C0.712052 0 -0.00488281 0.716935 -0.00488281 1.60132V9.95541C-0.00488281 10.3804 0.164082 10.788 0.464791 11.0884L8.65877 19.2728C8.88907 19.5033 9.16253 19.6862 9.46353 19.8109C9.76462 19.9358 10.0874 20 10.4133 20C10.7392 20 11.062 19.9358 11.3631 19.8109C11.6642 19.6861 11.9377 19.5032 12.1681 19.2726L19.2789 12.1618C19.7408 11.6971 20.0001 11.0685 20.0001 10.4132C20.0001 9.75799 19.7408 9.12937 19.2789 8.66467L11.0832 0.469015C10.7829 0.16871 10.3756 0 9.9509 0H1.59644ZM0.989039 1.60132C0.989039 1.26586 1.26098 0.993922 1.59644 0.993922H9.9509C10.112 0.993922 10.2665 1.05791 10.3804 1.17182L18.5743 9.36573C18.8509 9.64417 19.0062 10.0207 19.0062 10.4132C19.0062 10.8057 18.8506 11.1826 18.574 11.4611L11.4649 18.5702C11.3268 18.7084 11.1629 18.818 10.9825 18.8928C10.802 18.9676 10.6086 19.0061 10.4133 19.0061C10.218 19.0061 10.0246 18.9676 9.84414 18.8928C9.66371 18.818 9.49939 18.708 9.36135 18.5698L1.16719 10.3852C1.05313 10.2712 0.989039 10.1166 0.989039 9.95541V1.60132Z" fill="#180B25"/>
</g>
<defs>
<clipPath id="clip0_9266_239078">
<rect width="20" height="20" fill="white"/>
</clipPath>
</defs>
</svg>
