<?xml version="1.0" encoding="UTF-8"?><svg id="Layer_1" xmlns="http://www.w3.org/2000/svg" viewBox="0 0 20 20"><path d="M6.3601.5c-1.873,0-3.4952,1.2997-3.9037,3.1276L.25,13.5h.0061c-.1658.4692-.2561.974-.2561,1.5,0,2.4853,2.0147,4.5,4.5,4.5h11c2.4853,0,4.5-2.0147,4.5-4.5,0-.526-.0902-1.0308-.2561-1.5h.0061l-2.066-9.8233c-.3894-1.8513-2.0226-3.1767-3.9144-3.1767h-7.4095Z" fill="#001531" stroke-width="0"/><path d="M6.3601.5c-1.873,0-3.4952,1.2997-3.9037,3.1276L.25,13.5h.0061c-.1658.4692-.2561.974-.2561,1.5,0,2.4853,2.0147,4.5,4.5,4.5h11c2.4853,0,4.5-2.0147,4.5-4.5,0-.526-.0902-1.0308-.2561-1.5h.0061l-2.066-9.8233c-.3894-1.8513-2.0226-3.1767-3.9144-3.1767h-7.4095Z" fill="rgba(255,255,255,.9)" stroke-width="0"/><path d="M19.5,14.5549l-2.188-11.1288c-.2766-1.4068-1.5099-2.4213-2.9437-2.4213H5.7689c-1.4204,0-2.6461.9961-2.9366,2.3865L.5,14.5549M4.5,19h11c2.2091,0,4-1.7909,4-4s-1.7909-4-4-4H4.5c-2.2091,0-4,1.7909-4,4s1.7909,4,4,4Z" fill="none" stroke="#001531"/><circle cx="12.5" cy="15" r="1" fill="#001531" stroke-width="0"/><path d="M7,14.5h-3.5c-.2761,0-.5.2239-.5.5s.2239.5.5.5h3.5c.2761,0,.5-.2239.5-.5s-.2239-.5-.5-.5Z" fill="#001531" stroke-width="0"/><circle cx="16" cy="15" r="1" fill="#001531" stroke-width="0"/></svg>