<svg id="Icon" xmlns="http://www.w3.org/2000/svg" viewBox="0 0 20 20"><path id="Black_Fill" data-name="Black Fill" d="M11.7133.5363,2.37,11.2129a.319.319,0,0,0,.24.5291H7.5007a.2126.2126,0,0,1,.2126.2126v7.3a.319.319,0,0,0,.5583.211L17.6327,8.8452a.319.319,0,0,0-.2393-.53H12.4849a.2126.2126,0,0,1-.2126-.2127V.7464A.319.319,0,0,0,11.7133.5363Z" fill="#252a3a"/><path id="Gray_Fill" data-name="Gray Fill" d="M11.7133.5363,2.37,11.2129a.319.319,0,0,0,.24.5291H7.5007a.2126.2126,0,0,1,.2126.2126v7.3a.319.319,0,0,0,.5583.211L17.6327,8.8452a.319.319,0,0,0-.2393-.53H12.4849a.2126.2126,0,0,1-.2126-.2127V.7464A.319.319,0,0,0,11.7133.5363Z" fill="#fff" fill-opacity="0.9"/><path id="Outlines" d="M11.8454,1.0287,2.8424,11.3161H7.4991a.6379.6379,0,0,1,.6379.6379v7.0188L17.1563,8.74h-4.673a.6379.6379,0,0,1-.6379-.638ZM11.3916.2556a.7443.7443,0,0,1,1.3044.49V7.8894h4.6958A.7442.7442,0,0,1,17.95,9.1258L8.589,19.7464a.7443.7443,0,0,1-1.3026-.4922V12.1667H2.608a.7443.7443,0,0,1-.56-1.2345Z" fill="#252a3a" fill-rule="evenodd"/></svg>