<?xml version="1.0" encoding="UTF-8"?><svg id="Layer_1" xmlns="http://www.w3.org/2000/svg" viewBox="0 0 20 20"><path d="M2.7954,16.7209c2.508.1805,4.6915,1.2048,5.9784,1.9493.761.4398,1.6915.4398,2.4524,0,1.287-.7445,3.4704-1.7688,5.9784-1.9493,1.2827-.0922,2.2954-1.1176,2.2954-2.4014V3.4212c0-1.4457-.824-2.6038-2.7062-2.3973-2.3345.2553-4.3516,1.2079-5.5676,1.9123-.7609.4399-1.6915.4399-2.4524,0-1.216-.7044-3.2331-1.657-5.5675-1.9123C1.408.8277.5,1.9755.5,3.4212v10.8983c0,1.2838,1.0127,2.3092,2.2954,2.4014Z" fill="#001531" stroke-width="0"/><path d="M2.7954,16.7209c2.508.1805,4.6915,1.2048,5.9784,1.9493.761.4398,1.6915.4398,2.4524,0,1.287-.7445,3.4704-1.7688,5.9784-1.9493,1.2827-.0922,2.2954-1.1176,2.2954-2.4014V3.4212c0-1.4457-.824-2.6038-2.7062-2.3973-2.3345.2553-4.3516,1.2079-5.5676,1.9123-.7609.4399-1.6915.4399-2.4524,0-1.216-.7044-3.2331-1.657-5.5675-1.9123C1.408.8277.5,1.9755.5,3.4212v10.8983c0,1.2838,1.0127,2.3092,2.2954,2.4014Z" fill="rgba(255,255,255,.9)" stroke-width="0"/><path d="M18.454,1.9238c-.3302-.303-.8124-.4757-1.4145-.4101-3.0484.3322-5.2595,1.6723-5.5642,1.867-.2779.1776-.6238.3048-.9959.3659v14.7082c.0828-.0182.1529-.0411.2175-.067.1423-.0569.2625-.1278.4438-.2348.0629-.0371.1331-.0785.2142-.1252,1.3056-.7521,3.7418-1.6633,5.8457-1.8182,1.051-.0773,1.8018-.9677,1.8018-1.7367V3.3003c0-.6009-.2166-1.0721-.5484-1.3765ZM9.4794,18.4204V3.7328c-.4361-.0893-.8541-.2724-1.1009-.4298-.1187-.0757-.7687-.4385-1.6851-.8219-.9142-.3825-2.0606-.7714-3.1784-.921-.7744-.1036-1.4193.007-1.8487.2809-.4005.2555-.6784.6927-.6681,1.4275.0092.6568.0047,5.6151.0018,8.7656-.001,1.0655-.0018,1.9242-.0018,2.3398,0,.5676.2695,1.022.6419,1.3465.3867.3369.8318.4879,1.0884.4879.5174,0,1.502.1636,2.5803.4616,1.0877.3005,2.3281.7532,3.3517,1.3613.2603.1546.5338.3023.8188.3892ZM19.1301,1.187c.5613.515.8723,1.2652.8723,2.1133v11.1726c0,1.3361-1.1993,2.6215-2.7284,2.7341-1.9275.1418-4.2195.9958-5.42,1.6873-.0527.0304-.1058.0618-.1595.0936-.1991.1178-.4061.2403-.6259.3283-.3062.1226-.6371.1838-1.0892.1838-.7663,0-1.417-.3639-1.8296-.6091-.9194-.5462-2.0674-.9699-3.1072-1.2572-1.0492-.2898-1.9314-.4254-2.314-.4254-.548,0-1.218-.2745-1.7453-.734C.4418,16.0025-.0016,15.2896-.0016,14.3739-.0016,13.9529-.0008,13.0851.0001,12.0105.003,8.8595.0075,3.931-.0016,3.2826c-.0146-1.0409.405-1.8221,1.1303-2.2847.6963-.4441,1.6054-.5512,2.5191-.4289,1.2397.1659,2.477.5902,3.4317.9896.9526.3986,1.6568.7865,1.8367.9012.225.1435.7091.3276,1.0632.3276.3893,0,.7378-.1089.9573-.2492.3672-.2346,2.7294-1.6627,5.9945-2.0185.8597-.0937,1.6361.151,2.1989.6673ZM3.5537,6.6332c.1018-.2567.3924-.3823.6491-.2805l2.2711.9004c.2567.1018.3823.3924.2805.6491-.1018.2567-.3924.3823-.6491.2805l-2.2711-.9004c-.2567-.1018-.3823-.3924-.2805-.6491ZM3.5537,11.3039c.1018-.2567.3924-.3823.6491-.2806l2.2711.9004c.2567.1018.3823.3924.2805.6491-.1018.2567-.3924.3823-.6491.2805l-2.2711-.9003c-.2567-.1018-.3823-.3924-.2805-.6491Z" fill="#001531" fill-rule="evenodd" stroke-width="0"/></svg>