<?xml version="1.0" encoding="UTF-8"?><svg id="Layer_1" xmlns="http://www.w3.org/2000/svg" viewBox="0 0 20 20"><path d="M14.4542,6.8337h3.0535c.8236,0,1.4923.6296,1.4923,1.405v9.8564c0,.7763-.6687,1.4049-1.4923,1.4049H2.4924c-.8247,0-1.4924-.6286-1.4924-1.4049V4.9624c0-.7754.6676-1.405,1.4924-1.405h5.2342v-1.6525c0-.7754.6687-1.405,1.4934-1.405h3.7418c.8237,0,1.4924.6296,1.4924,1.405v4.9287ZM14.4542,6.8337v12.6663V6.8337Z" fill="#001531" stroke-width="0"/><path d="M14.4542,6.8337h3.0535c.8236,0,1.4923.6296,1.4923,1.405v9.8564c0,.7763-.6687,1.4049-1.4923,1.4049H2.4924c-.8247,0-1.4924-.6286-1.4924-1.4049V4.9624c0-.7754.6676-1.405,1.4924-1.405h5.2342v-1.6525c0-.7754.6687-1.405,1.4934-1.405h3.7418c.8237,0,1.4924.6296,1.4924,1.405v4.9287ZM14.4542,6.8337v12.6663V6.8337Z" fill="rgba(255,255,255,.9)" stroke-width="0"/><path d="M8.2265,1.905c0-.471.4157-.905.9935-.905h3.7418c.5764,0,.9924.4337.9924.905v17.095H2.4924c-.5774,0-.9924-.4327-.9924-.9049V4.9624c0-.4715.4152-.905.9924-.905h5.2342c.2761,0,.5-.2239.5-.5v-1.6525ZM2.4924,20h15.0153c1.0707,0,1.9923-.8242,1.9923-1.9049v-9.8564c0-1.0796-.9214-1.905-1.9923-1.905h-2.5535V1.905c0-1.0795-.9214-1.905-1.9924-1.905h-3.7418c-1.0718,0-1.9934.8252-1.9934,1.905v1.1525H2.4924c-1.0723,0-1.9924.8256-1.9924,1.905v13.1327c0,1.0805.9203,1.9049,1.9924,1.9049ZM17.5077,7.3337h-2.5535v11.6663h2.5535c.5765,0,.9923-.4329.9923-.9049v-9.8564c0-.4713-.416-.905-.9923-.905ZM6.2207,7.49c-.0789-.4066-.4725-.6723-.8791-.5935-.4066.0789-.6723.4725-.5935.8791l.0022.0113c.0789.4066.4725.6723.8791.5935.4066-.0789.6723-.4725.5935-.8791l-.0022-.0113ZM10.7056,7.4928c-.0773-.4069-.4699-.6741-.8768-.5968-.4069.0773-.6742.4699-.5969.8768l.0021.0113c.0773.4069.4699.6742.8768.5969.4069-.0773.6741-.4699.5968-.8768l-.0021-.0113ZM6.2207,11.3577c-.0789-.4067-.4725-.6724-.8791-.5935-.4066.0789-.6723.4725-.5935.8791l.0022.0113c.0789.4066.4725.6723.8791.5934.4066-.0788.6723-.4724.5935-.8791l-.0022-.0112ZM10.7056,11.3605c-.0773-.4069-.4699-.6741-.8768-.5968-.4069.0773-.6742.4698-.5969.8768l.0021.0112c.0773.407.4699.6742.8768.5969.4069-.0773.6741-.4699.5968-.8768l-.0021-.0113ZM6.2207,15.1433c-.0789-.4066-.4725-.6723-.8791-.5934-.4066.0788-.6723.4724-.5935.8791l.0022.0112c.0789.4067.4725.6724.8791.5935.4066-.0789.6723-.4725.5935-.8791l-.0022-.0113ZM10.7056,15.1462c-.0773-.407-.4699-.6742-.8768-.5969-.4069.0773-.6742.4699-.5969.8768l.0021.0113c.0773.4069.4699.6741.8768.5968.4069-.0773.6741-.4698.5968-.8768l-.0021-.0112Z" fill="#001531" fill-rule="evenodd" stroke-width="0"/></svg>