<?xml version="1.0" encoding="UTF-8"?><svg id="Layer_1" xmlns="http://www.w3.org/2000/svg" viewBox="0 0 21 20"><path d="M8.34,12.8423v3.7894c0,.7537,.3043,1.4766,.8458,2.0096,.5416,.533,1.2762,.8324,2.0421,.8324l3.8506-8.5261V.5267H4.2199c-.4643-.0052-.9149,.155-1.2687,.4509-.3538,.2959-.587,.7078-.6566,1.1596L.9661,10.6634c-.0419,.2715-.0233,.5488,.0545,.8126,.0778,.2637,.213,.5077,.3961,.715,.1831,.2072,.4099,.3728,.6645,.4853,.2546,.1124,.5311,.1691,.8101,.166h5.4486ZM15.0785,.5267h2.5702c.5449-.0095,1.0743,.1782,1.4877,.5275,.4135,.3493,.6823,.8358,.7553,1.3672v6.6315c-.073,.5314-.3418,1.0179-.7553,1.3672-.4134,.3492-.9428,.537-1.4877,.5275h-2.5702" fill="#180b25"/><path d="M8.34,12.8423v3.7894c0,.7537,.3043,1.4766,.8458,2.0096,.5416,.533,1.2762,.8324,2.0421,.8324l3.8506-8.5261V.5267H4.2199c-.4643-.0052-.9149,.155-1.2687,.4509-.3538,.2959-.587,.7078-.6566,1.1596L.9661,10.6634c-.0419,.2715-.0233,.5488,.0545,.8126,.0778,.2637,.213,.5077,.3961,.715,.1831,.2072,.4099,.3728,.6645,.4853,.2546,.1124,.5311,.1691,.8101,.166h5.4486ZM15.0785,.5267h2.5702c.5449-.0095,1.0743,.1782,1.4877,.5275,.4135,.3493,.6823,.8358,.7553,1.3672v6.6315c-.073,.5314-.3418,1.0179-.7553,1.3672-.4134,.3492-.9428,.537-1.4877,.5275h-2.5702" fill="rgba(255,255,255,.9)"/><path d="M18.7967,1.4562c-.3153-.2664-.7205-.4106-1.1388-.4033l-.0092,.0002h-2.0439s0,9.3681,0,9.3681h2.0531c.4183,.0073,.8235-.1368,1.1388-.4032,.3065-.2589,.5071-.6152,.5686-1.0037V2.4599c-.0615-.3885-.2621-.7448-.5686-1.0037Zm-4.2446,9.378V1.053H4.214c-.3398-.0038-.6683,.1135-.9251,.3283-.2566,.2147-.4242,.5119-.4741,.836L1.4863,10.7435s0-.0001,0,0c-.03,.1948-.0167,.3941,.0392,.5835,.0559,.1895,.1532,.3655,.2857,.5154,.1325,.15,.2971,.2704,.4827,.3524,.1857,.082,.3876,.1234,.5916,.1211h5.4544c.2907,0,.5263,.2356,.5263,.5263v3.7894c0,.6115,.2467,1.1996,.6887,1.6345,.3643,.3585,.8366,.5886,1.3433,.6586l3.6538-8.0905Zm.8661,.6396l-3.7107,8.2165c-.0851,.1885-.2728,.3097-.4796,.3097-.9029,0-1.7704-.3529-2.4113-.9836-.6412-.631-1.003-1.4887-1.003-2.3848v-3.2631H2.8942c-.353,.0035-.7029-.0683-1.0256-.2108-.3236-.143-.6125-.3537-.8463-.6183-.2338-.2646-.4068-.5766-.5065-.9146-.0997-.338-.1236-.6935-.0699-1.0417L1.7744,2.057s0,.0001,0,0c.0894-.5793,.3883-1.106,.8391-1.4831C3.0634,.1975,3.6348-.0055,4.2226,.0003h13.4218c.6696-.0105,1.3213,.2206,1.8316,.6518,.5118,.4323,.8461,1.0361,.9371,1.6976,.0032,.0238,.0049,.0477,.0049,.0717v6.6315c0,.024-.0017,.0479-.0049,.0717-.091,.6615-.4253,1.2652-.9371,1.6976-.5104,.4311-1.162,.6622-1.8317,.6517h-2.2261Z" fill="#180b25" fill-rule="evenodd"/></svg>