<?xml version="1.0" encoding="UTF-8"?><svg id="Layer_1" xmlns="http://www.w3.org/2000/svg" viewBox="0 0 20 20"><path d="M16.493,18.8996H3.2149c-1.1784,0-2.7149-.965-2.7149-2.6813v-7.5605c0-1.0497.7084-1.5549,1.4853-1.2826.5921.2075.6325.4706,1.2867.5698.7331.1111,1.8681-.7207,2.1573-.7207.2313,0,.5575.1684.5795.2859,0-1.9995-.0157-4.2568-.0157-4.6155,0-1.0249,1.0108-1.422,1.6247-1.048.1634.0995.3799.188.6657.3408.3303.1765.7926.258,1.2255.0666.7087-.3133,1.2265-.5564,1.8989-.8498.9267-.4044,1.834-.3633,2.4157-.1254.3635.1487,1.4408.6541,1.9223.8615.23.0991.787.3878,1.4956.0588.2002-.0929.3642-.1998.7322-.3838.6985-.3494,1.5264.2093,1.5264,1.0904v12.1489c0,3.136-2.0367,3.7044-3.007,3.845Z" fill="#001531" stroke-width="0"/><path d="M16.493,18.8996H3.2149c-1.1784,0-2.7149-.965-2.7149-2.6813v-7.5605c0-1.0497.7084-1.5549,1.4853-1.2826.5921.2075.6325.4706,1.2867.5698.7331.1111,1.8681-.7207,2.1573-.7207.2313,0,.5575.1684.5795.2859,0-1.9995-.0157-4.2568-.0157-4.6155,0-1.0249,1.0108-1.422,1.6247-1.048.1634.0995.3799.188.6657.3408.3303.1765.7926.258,1.2255.0666.7087-.3133,1.2265-.5564,1.8989-.8498.9267-.4044,1.834-.3633,2.4157-.1254.3635.1487,1.4408.6541,1.9223.8615.23.0991.787.3878,1.4956.0588.2002-.0929.3642-.1998.7322-.3838.6985-.3494,1.5264.2093,1.5264,1.0904v12.1489c0,3.136-2.0367,3.7044-3.007,3.845Z" fill="rgba(255,255,255,.9)" stroke-width="0"/><path d="M11.2078.946c1.0413-.4544,2.0892-.4227,2.805-.1299.1961.0802.6328.279,1.0576.4724.3431.1562.6785.3088.8732.3927.0143.0062.029.0126.0441.0192.2433.1064.5872.257,1.0432.0453.0824-.0382.1586-.0799.2735-.1428.1131-.0619.2528-.1383.4455-.2347,1.095-.5477,2.2501.359,2.2501,1.5376v12.1489c0,1.6875-.5542,2.7603-1.3104,3.4221-.7371.645-1.6019.842-2.1249.9178l-.0356.0051H3.2149c-1.3798,0-3.2149-1.1196-3.2149-3.1813v-7.5605c0-.634.2162-1.183.6354-1.5246.426-.3472.9843-.4159,1.5153-.2298.3103.1088.5111.2387.6543.3314.0235.0152.0455.0295.0662.0424.1223.0767.2315.1364.4758.1734.0806.0122.2086.0017.3909-.0514.177-.0516.3693-.1324.566-.2252.1243-.0586.2203-.1069.3154-.1547.0751-.0378.1497-.0753.2373-.1174.0829-.0399.17-.0798.2517-.1103.0679-.0254.189-.0673.321-.0673.0263,0,.0526.0011.0787.0031-.0013-.7519-.0042-1.5011-.0071-2.1379-.0016-.3457-.0032-.6588-.0045-.9213-.002-.3882-.0034-.6655-.0034-.7734,0-1.429,1.4498-2.0447,2.3848-1.475.0584.0356.1324.0727.2456.1278.0102.005.0206.01.0313.0152.1022.0497.2259.1098.3644.1838.2291.1224.5277.1652.7876.0503.3083-.1363.5885-.263.8637-.3875.339-.1533.6704-.3032,1.0374-.4633ZM5.5087,7.743c-.0095-.0033-.0189-.0062-.0282-.0088-.0084-.0023-.016-.0042-.0229-.0056-.0385.0145-.0929.0386-.1676.0746-.0464.0223-.1133.0557-.1889.0935-.1174.0586-.2558.1277-.3707.1819-.2148.1013-.4618.2076-.7128.2807-.2457.0716-.5345.1234-.8205.08-.4099-.0621-.648-.1836-.8575-.3151-.0309-.0194-.0596-.0378-.0869-.0554-.1366-.0877-.2405-.1544-.4327-.2218-.246-.0862-.4303-.0385-.5527.0613-.1292.1053-.2672.3338-.2672.7495v7.5605c0,1.3709,1.2379,2.1813,2.2149,2.1813,1.5034,0,2.2899-1.1625,2.2899-2.3118,0-1.0371.0009-2.3903.0018-3.8199l.0002-.2596c.0009-1.4397.0019-2.9416.0019-4.2653ZM5.6166,18.3996h10.8395c.4452-.0679,1.0646-.2289,1.575-.6755.5047-.4416.9689-1.221.9689-2.6695V2.9057c0-.5836-.5008-.7943-.8027-.6433-.1754.0877-.3017.1568-.4126.2175l-.01.0055c-.1056.0578-.2085.1142-.3227.1672-.8761.4067-1.5961.0845-1.8586-.033-.0171-.0076-.0322-.0144-.0454-.0201-.2464-.1061-.5991-.2672-.943-.4242-.392-.1789-.7725-.3526-.9709-.4338-.4475-.1831-1.2142-.2336-2.0263.1209-.3713.1621-.6853.3041-1.0126.4522-.272.1231-.5532.2503-.8841.3966-.6059.2679-1.2319.1477-1.6633-.0829-.1207-.0645-.2278-.1165-.3309-.1667-.0104-.005-.0207-.0101-.031-.0151-.1074-.0522-.2233-.1091-.3283-.173-.2926-.1782-.8645.0002-.8645.621,0,.1056.0014.3778.0033.7617.0013.263.0029.5783.0045.9285.0039.8594.0078,1.9244.0078,2.9253,0,1.3792-.001,2.974-.002,4.4988l-.0002.2566c-.0009,1.4308-.0018,2.7848-.0018,3.8222,0,.815-.2987,1.6733-.8882,2.3118ZM5.4884,7.7182s-.0008.0003-.0024.0006l.0024-.0006Z" fill="#001531" fill-rule="evenodd" stroke-width="0"/><path d="M9.6025,8.1488c0-.3314.2686-.6.6-.6h2.8556c.3314,0,.6.2686.6.6s-.2686.6-.6.6h-2.8556c-.3313,0-.6-.2686-.6-.6ZM9.6025,12.171c0-.3314.2686-.6.6-.6h5.593c.3314,0,.6.2686.6.6s-.2686.6-.6.6h-5.593c-.3313,0-.6-.2686-.6-.6Z" fill="#001531" fill-rule="evenodd" stroke-width="0"/></svg>