<?xml version="1.0" encoding="UTF-8"?><svg id="Layer_1" xmlns="http://www.w3.org/2000/svg" viewBox="0 0 20 20"><path d="M17.775,5.5323C16.6451,2.2621,14.5987.0444,13.2039.5797c-.1325.0508-.2544.1248-.3654.2197l-.0058-.0162S4.0342,6.1447,2.9853,6.8268c-1.0489.6812-1.9399,2.642-1.2311,4.5172.7088,1.8753,2.4815,2.8257,3.7402,2.6992,1.2587-.1264,11.5057-1.5469,11.5057-1.5469l-.0014-.004c.1018-.0113.201-.0351.2972-.072,1.3949-.5342,1.6091-3.6188.4792-6.8879Z" fill="#001531" stroke-width="0"/><path d="M11.5962,13.2529l-4.5024.6428,1.622,4.1627c.4478,1.1492,1.7518,1.707,2.8922,1.2373,1.1048-.4552,1.6456-1.708,1.2189-2.8241l-1.2306-3.2187Z" fill="#001531" stroke-width="0"/><path d="M17.775,5.5323C16.6451,2.2621,14.5987.0444,13.2039.5797c-.1325.0508-.2544.1248-.3654.2197l-.0058-.0162S4.0342,6.1447,2.9853,6.8268c-1.0489.6812-1.9399,2.642-1.2311,4.5172.7088,1.8753,2.4815,2.8257,3.7402,2.6992,1.2587-.1264,11.5057-1.5469,11.5057-1.5469l-.0014-.004c.1018-.0113.201-.0351.2972-.072,1.3949-.5342,1.6091-3.6188.4792-6.8879Z" fill="rgba(255,255,255,.9)" stroke-width="0"/><path d="M11.5962,13.2529l-4.5024.6428,1.622,4.1627c.4478,1.1492,1.7518,1.707,2.8922,1.2373,1.1048-.4552,1.6456-1.708,1.2189-2.8241l-1.2306-3.2187Z" fill="rgba(255,255,255,.9)" stroke-width="0"/><path d="M17,12.5201s-10.247,1.4233-11.5057,1.55c-1.2586.1267-3.0314-.8255-3.7402-2.7045-.7088-1.8789.1822-3.8437,1.2311-4.5262C4.0342,6.1559,12.8327.7838,12.8327.7838M7.0938,13.9223l1.622,4.1709c.4478,1.1515,1.7518,1.7105,2.8922,1.2398,1.1048-.456,1.6456-1.7113,1.2189-2.8297l-1.2306-3.2251-4.5024.6441ZM17.775,5.5423c1.1299,3.2757.9157,6.3664-.4792,6.9017-1.3949.5363-3.4414-1.6857-4.5712-4.9615-1.1298-3.2768-.9146-6.3664.4793-6.9027,1.3948-.5363,3.4412,1.6857,4.5711,4.9625Z" fill="none" stroke="#001531" stroke-linecap="round" stroke-linejoin="round"/></svg>