<svg id="Copy" xmlns="http://www.w3.org/2000/svg" viewBox="0 0 20 20"><path d="M2.5107,17.4326V2.5678A2.1176,2.1176,0,0,1,4.6281.45h7.7892l5.0721,5.24V17.4325A2.1179,2.1179,0,0,1,15.3715,19.55H4.6284a2.1175,2.1175,0,0,1-2.1177-2.1173Z" fill="#252a3a"/><path d="M2.5107,17.4326V2.5678A2.1176,2.1176,0,0,1,4.6281.45h7.7892l5.0721,5.24V17.4325A2.1179,2.1179,0,0,1,15.3715,19.55H4.6284a2.1175,2.1175,0,0,1-2.1177-2.1173Z" fill="#fff" fill-opacity="0.9"/><path d="M2.8486,2.5479A1.6986,1.6986,0,0,1,4.5472.8493h7.5187V4.6168A1.4862,1.4862,0,0,0,13.552,6.1031h3.5994v11.349a1.6986,1.6986,0,0,1-1.6986,1.6986H4.5472a1.6986,1.6986,0,0,1-1.6986-1.6986h0ZM16.574,5.2538l-3.6588-3.78v3.143a.637.637,0,0,0,.637.637H16.574ZM4.5472,0A2.5479,2.5479,0,0,0,1.9993,2.5479h0V17.4521A2.5479,2.5479,0,0,0,4.5472,20H15.4526a2.5479,2.5479,0,0,0,2.5479-2.5479V5.6785a.4247.4247,0,0,0-.1195-.2954L12.7957.1293A.4248.4248,0,0,0,12.4906,0ZM5.8563,10.165A.7075.7075,0,0,1,6.624,9.54h5.2126a.7075.7075,0,0,1,.7677.625.7074.7074,0,0,1-.7677.625H6.624A.7074.7074,0,0,1,5.8563,10.165Zm.0059,3.5384a.7062.7062,0,0,1,.7677-.6217l6.7458-.0065a.7065.7065,0,0,1,.7677.6218.7064.7064,0,0,1-.7677.6217L6.63,14.3252A.7064.7064,0,0,1,5.8622,13.7034Z" fill="#252a3a" fill-rule="evenodd"/></svg>