<?xml version="1.0" encoding="UTF-8"?><svg id="Layer_1" xmlns="http://www.w3.org/2000/svg" viewBox="0 0 20 20"><g><path d="M7.372,9.3417c1.9379,0,3.5088-1.5956,3.5088-3.564s-1.5709-3.5639-3.5088-3.5639-3.5089,1.5956-3.5089,3.5639,1.571,3.564,3.5089,3.564Z" fill="#001531"/><path d="M13.2725,12.8465c-.658-.6684-1.5505-1.0439-2.4811-1.0439H3.9844c-.9306,0-1.8231,.3755-2.4811,1.0439-.658,.6683-1.0277,1.5748-1.0277,2.52v2.6508H14.3003v-2.6508c-.0001-.9452-.3697-1.8517-1.0278-2.52Z" fill="#001531"/><path d="M13.3879,2.3245v6.9051c.7548-.1962,1.6708-.6437,2.1485-1.2689,.4777-.6251,.737-1.394,.737-2.1853s-.2593-1.5602-.737-2.1853c-.4777-.6251-1.3937-1.0693-2.1485-1.2656Z" fill="#001531"/><polygon points="16.7191 11.6008 16.7191 18.0159 19.3507 18.0159 19.3507 13.7392 16.7191 11.6008" fill="#001531"/></g><g><path d="M7.372,9.3417c1.9379,0,3.5088-1.5956,3.5088-3.564s-1.5709-3.5639-3.5088-3.5639-3.5089,1.5956-3.5089,3.5639,1.571,3.564,3.5089,3.564Z" fill="rgba(255,255,255,.9)"/><path d="M13.2725,12.8465c-.658-.6684-1.5505-1.0439-2.4811-1.0439H3.9844c-.9306,0-1.8231,.3755-2.4811,1.0439-.658,.6683-1.0277,1.5748-1.0277,2.52v2.6508H14.3003v-2.6508c-.0001-.9452-.3697-1.8517-1.0278-2.52Z" fill="rgba(255,255,255,.9)"/><path d="M13.3879,2.3245v6.9051c.7548-.1962,1.6708-.6437,2.1485-1.2689,.4777-.6251,.737-1.394,.737-2.1853s-.2593-1.5602-.737-2.1853c-.4777-.6251-1.3937-1.0693-2.1485-1.2656Z" fill="rgba(255,255,255,.9)"/><polygon points="16.7191 11.6008 16.7191 18.0159 19.3507 18.0159 19.3507 13.7392 16.7191 11.6008" fill="rgba(255,255,255,.9)"/></g><g><path d="M7.3682,9.9986c2.3254,0,4.2105-1.9027,4.2105-4.2498S9.6936,1.499,7.3682,1.499,3.1575,3.4017,3.1575,5.7488s1.8852,4.2498,4.2106,4.2498Zm0-7.4886c1.7722,0,3.2089,1.45,3.2089,3.2388s-1.4367,3.2388-3.2089,3.2388-3.209-1.4501-3.209-3.2388,1.4367-3.2388,3.209-3.2388Z" fill="#001531"/><path d="M10.8198,11.2649H3.9172c-1.0389,0-2.0353,.4261-2.7699,1.1847s-1.1473,1.7875-1.1473,2.8603v2.7084c0,.2657,.2086,.4811,.4659,.4811s.4659-.2154,.4659-.4811v-2.7084c0-.8176,.3146-1.6017,.8745-2.1797,.5599-.5782,1.3192-.903,2.111-.903h6.9026c.7917,0,1.5511,.3248,2.111,.903,.5599,.5781,.8744,1.3622,.8744,2.1797v2.7084c0,.2657,.2086,.4811,.4659,.4811s.466-.2154,.466-.4811v-2.7084c0-1.0728-.4127-2.1017-1.1474-2.8603-.7346-.7586-1.731-1.1847-2.7699-1.1847Z" fill="#001531"/><path d="M16.1467,3.0693c-.5895-.7665-1.415-1.3132-2.3463-1.5539-.2755-.0712-.5561,.0966-.6266,.3746-.0706,.2781,.0956,.5612,.3711,.6324,.7098,.1834,1.3389,.6,1.7882,1.1842,.4492,.5842,.6931,1.3027,.6931,2.0421s-.2439,1.458-.6931,2.0422c-.4493,.5841-1.0784,1.0008-1.7882,1.1842-.2755,.0712-.4417,.3544-.3711,.6324,.0705,.2781,.3511,.4458,.6266,.3746,.9313-.2407,1.7568-.7874,2.3463-1.5539,.5895-.7665,.9094-1.7092,.9094-2.6796s-.3199-1.913-.9094-2.6795Z" fill="#001531"/><path d="M19.1634,12.6912c-.5406-.7083-1.2975-1.2142-2.1519-1.4383-.2533-.0664-.5117,.0883-.5771,.3456-.0654,.2573,.0869,.5197,.3403,.5861,.6511,.1708,1.228,.5565,1.64,1.0963,.4119,.5397,.6357,1.2035,.6364,1.8864v2.8508c0,.2657,.2121,.4811,.4737,.4811s.4737-.2154,.4737-.4811v-2.8515c-.0007-.8963-.2944-1.7669-.835-2.4753Z" fill="#001531"/></g></svg>