<?xml version="1.0" encoding="UTF-8"?><svg id="Layer_1" xmlns="http://www.w3.org/2000/svg" viewBox="0 0 20 20"><path d="M4.13,2.088c.1521-.9163.9427-1.588,1.869-1.588h8.002c.9264,0,1.7169.6717,1.869,1.588l.6827,4.112h1.4999c.5232,0,.9474.4253.9474.95v2.375c0,.3728-.2142.6955-.5259.851l-1.0386,7.4858c-.1303.9392-.9311,1.6382-1.8766,1.6382H4.4411c-.9456,0-1.7464-.699-1.8767-1.6382l-1.0386-7.4858c-.3117-.1555-.5259-.4782-.5259-.851v-2.375c0-.5247.4241-.95.9474-.95h1.4999l.6827-4.112Z" fill="#001531" stroke-width="0"/><path d="M4.13,2.088c.1521-.9163.9427-1.588,1.869-1.588h8.002c.9264,0,1.7169.6717,1.869,1.588l.6827,4.112h1.4999c.5232,0,.9474.4253.9474.95v2.375c0,.3728-.2142.6955-.5259.851l-1.0386,7.4858c-.1303.9392-.9311,1.6382-1.8766,1.6382H4.4411c-.9456,0-1.7464-.699-1.8767-1.6382l-1.0386-7.4858c-.3117-.1555-.5259-.4782-.5259-.851v-2.375c0-.5247.4241-.95.9474-.95h1.4999l.6827-4.112Z" fill="rgba(255,255,255,.9)" stroke-width="0"/><path d="M6.0082,1.4766c-.4492,0-.8342.3258-.9085.7728l-.5729,3.4488h10.9448l-.5831-3.4513c-.0754-.4458-.4599-.7703-.9081-.7703h-7.9722ZM16.4858,5.6981l-.6113-3.6179c-.1563-.925-.9559-1.6037-1.8941-1.6037h-7.9722c-.9402,0-1.7409.6815-1.895,1.6089l-.6002,3.6127h-1.092c-1.0623,0-1.9211.8632-1.9211,1.925v1.805c0,.6976.4619,1.2886,1.0976,1.4799l.9633,6.9545c.1317.9507.9428,1.6604,1.9028,1.6604h11.0728c.9599,0,1.7711-.7097,1.9028-1.6604l.9632-6.9545c.6356-.1913,1.0976-.7823,1.0976-1.4799v-1.805c0-1.0618-.8588-1.925-1.9211-1.925h-1.0931ZM17.3839,10.9731H2.6161l.9352,6.7522c.0635.4583.4537.7976.9123.7976h11.0728c.4586,0,.8488-.3393.9122-.7976l.9353-6.7522ZM2.4211,6.6981c-.5074,0-.9211.4128-.9211.925v1.805c0,.3023.244.545.5421.545h15.9158c.2981,0,.5421-.2427.5421-.545v-1.805c0-.5122-.4137-.925-.9211-.925H2.4211Z" fill="#001531" fill-rule="evenodd" stroke-width="0"/></svg>