<?xml version="1.0" encoding="UTF-8"?><svg id="Layer_1" xmlns="http://www.w3.org/2000/svg" viewBox="0 0 20 20"><path d="M10.6354,1.38l-.7768,1.4049c-.4303.7779-.2939,1.7458.3353,2.3739l.2994.2995-8.0936,1.3389c-.5499.0972-.941.5644-.9265,1.121.0525,1.9805.0447,6.6712-.9332,10.1795-.1129.4135.0224.8058.2928,1.0762.2638.2638.6561.3991,1.0696.2862,3.5161-.9712,8.199-.9869,10.1862-.9265.5499.0078,1.0159-.3834,1.1143-.9333l1.3387-8.0927.2984.2984c.6281.6281,1.5971.7645,2.3739.3342l1.4048-.7768c.9925-.5488,1.1825-1.8955.3801-2.6969L13.3323,1c-.8014-.8025-2.1482-.6125-2.6969.38Z" fill="#001531" stroke-width="0"/><path d="M10.6354,1.38l-.7768,1.4049c-.4303.7779-.2939,1.7458.3353,2.3739l.2994.2995-8.0936,1.3389c-.5499.0972-.941.5644-.9265,1.121.0525,1.9805.0447,6.6712-.9332,10.1795-.1129.4135.0224.8058.2928,1.0762.2638.2638.6561.3991,1.0696.2862,3.5161-.9712,8.199-.9869,10.1862-.9265.5499.0078,1.0159-.3834,1.1143-.9333l1.3387-8.0927.2984.2984c.6281.6281,1.5971.7645,2.3739.3342l1.4048-.7768c.9925-.5488,1.1825-1.8955.3801-2.6969L13.3323,1c-.8014-.8025-2.1482-.6125-2.6969.38Z" fill="rgba(255,255,255,.9)" stroke-width="0"/><path d="M11.9462,1.026c-.388.0677-.717.283-.8731.574l-.0015.0028-.7953,1.4594c-.3663.8286-.0336,1.4076.1479,1.6201l.4252.4252,4.0577,4.0465.443.443.0054.0058c.0527.0562.2594.1967.5771.2599.2992.0595.6579.0417,1.0213-.1541,1.074-.5787,1.4377-.7921,1.6069-.9034.2629-.1729.4131-.4836.4333-.8471.021-.3762-.1038-.696-.2503-.8425l-.0029-.0029c-1.041-1.0582-2.7475-2.7571-4.0851-4.0887-.7944-.7908-1.4586-1.4521-1.7761-1.7727-.1961-.1956-.5426-.2935-.9335-.2252ZM9.5048,5.118c-.3226-.4937-.6312-1.3789-.1327-2.4834l.0077-.0171.8121-1.4904s.0005-.0009.0008-.0014c.3323-.6179.962-.9766,1.5814-1.0848.6166-.1077,1.3263.0165,1.8136.5041l.0017.0016c.3039.3069.9592.9594,1.7478,1.7445,1.3445,1.3386,3.0765,3.0629,4.1152,4.1188.3993.4004.5723,1.028.5402,1.6037-.0328.5891-.2869,1.2354-.8822,1.627-.2122.1396-.6155.3735-1.6821.9482-.5988.3226-1.2002.352-1.6907.2545-.3229-.0642-.618-.1878-.8449-.337l-1.1562,6.8589c-.0282.4195-.1742.87-.5131,1.206-.3609.3577-.8753.5209-1.4966.4518-.4868-.0541-2.1623-.0372-4.1219.1049-1.9518.1415-4.1061.4017-5.5505.8107-.715.2024-1.3116-.1189-1.5924-.4134-.2188-.2296-.5969-.8116-.4168-1.4902.9332-3.5219,1.0303-8.2879.9447-9.5569-.0781-.5902-.0013-1.138.3128-1.5593.3185-.4272.8091-.6292,1.355-.6735l6.8471-1.1273ZM14.018,9.6796l-3.6933-3.6831-7.5482,1.2428-.0226.0016c-.3652.0265-.5518.1446-.6495.2757-.1036.139-.1832.3938-.1215.843l.0023.0164.0012.0165c.0929,1.3218-.002,6.2215-.9723,9.8905l4.6457-4.6457c-.2199-.3474-.3437-.7576-.3437-1.1992,0-1.2427,1.0074-2.25,2.25-2.25s2.25,1.0073,2.25,2.25-1.0074,2.25-2.25,2.25c-.4384,0-.8501-.1295-1.1964-.3466l-4.6492,4.6493c.0202-.0037.0407-.0084.0615-.0143,1.548-.4383,3.7876-.7036,5.7506-.8459,1.9552-.1417,3.7155-.1669,4.3047-.1014.3781.0421.5737-.0607.6821-.1682.1224-.1212.2064-.3216.2204-.5797l.0015-.0282,1.2767-7.5735ZM7.5661,11.1881c-.6904,0-1.25.5596-1.25,1.25,0,.3513.1362.6567.3639.8816.2287.2259.5468.3684.8861.3684.6904,0,1.25-.5597,1.25-1.25s-.5597-1.25-1.25-1.25Z" fill="#001531" fill-rule="evenodd" stroke-width="0"/></svg>