<svg id="Icon" xmlns="http://www.w3.org/2000/svg" viewBox="0 0 20 20"><path id="Black_Fill" data-name="Black Fill" d="M2.1263,2.873H6.9252c.4679,0,1.065.5807,1.32.946l.7278.7152h6.5194A1.8112,1.8112,0,0,1,17.3635,6.12v9.4138a1.8053,1.8053,0,0,1-1.8679,1.5782H2.1311A1.6375,1.6375,0,0,1,.44,15.5334V4.4512A1.6388,1.6388,0,0,1,2.1263,2.873Z" fill="#252a3a"/><path id="Gray_Fill" data-name="Gray Fill" d="M2.1263,2.873H6.9252c.4679,0,1.065.5807,1.32.946l.7278.7152h6.5194A1.8112,1.8112,0,0,1,17.3635,6.12v9.4138a1.8053,1.8053,0,0,1-1.8679,1.5782H2.1311A1.6375,1.6375,0,0,1,.44,15.5334V4.4512A1.6388,1.6388,0,0,1,2.1263,2.873Z" fill="#fff" fill-opacity="0.9"/><path id="Outline" d="M1.9276,3.2683A1.1807,1.1807,0,0,0,.7664,4.4613v8.7633l1.39-3.9041A2.4286,2.4286,0,0,1,4.4429,7.7042l12.5875,0V6.1249a1.1816,1.1816,0,0,0-1.1682-1.1965H8.7532L7.51,3.795l-.0272-.0426a1.0988,1.0988,0,0,0-.3888-.3381,1.0732,1.0732,0,0,0-.4879-.146ZM1.9321,17.497H14.0472V17.5h1.1233a2.8369,2.8369,0,0,0,2.7055-1.99l2.082-6.6352a.9.9,0,0,0-.8564-1.17H17.7968V6.1249A1.949,1.949,0,0,0,15.8622,4.16H9.05l-.9527-.8683a1.8886,1.8886,0,0,0-.6341-.5508A1.8286,1.8286,0,0,0,6.6058,2.5H1.9276A1.948,1.948,0,0,0,0,4.4613V15.5358A1.9465,1.9465,0,0,0,1.9321,17.497Z" fill="#252a3a" fill-rule="evenodd"/></svg>