<?xml version="1.0" encoding="UTF-8"?><svg id="Layer_1" xmlns="http://www.w3.org/2000/svg" viewBox="0 0 20 20"><path d="M10,19.5c5.2467,0,9.5-4.2533,9.5-9.5S15.2467.5,10,.5.5,4.7533.5,10s4.2533,9.5,9.5,9.5Z" fill="#001531" stroke-width="0"/><path d="M10,19.5c5.2467,0,9.5-4.2533,9.5-9.5S15.2467.5,10,.5.5,4.7533.5,10s4.2533,9.5,9.5,9.5Z" fill="rgba(255,255,255,.9)" stroke-width="0"/><path d="M19.5,10c0,5.2467-4.2533,9.5-9.5,9.5S.5,15.2467.5,10,4.7533.5,10,.5s9.5,4.2533,9.5,9.5Z" fill="none" stroke="#001531" stroke-linecap="round" stroke-linejoin="round"/><path d="M5,7.3074c.863-1.8152,3.1822-3.1197,5-3M15,12.6922c-.863,1.8151-3.1822,3.1197-5,3M12,9.9999c0,1.1046-.8954,2-2,2s-2-.8954-2-2,.8954-2,2-2,2,.8954,2,2Z" fill="none" stroke="#001531" stroke-linecap="round" stroke-width="1.1"/></svg>