<?xml version="1.0" encoding="UTF-8"?><svg id="Layer_1" xmlns="http://www.w3.org/2000/svg" viewBox="0 0 20 20"><path d="M8.7874,18.2568c-.2014-.4991-1.1612-3.0038-1.7048-4.3683l-1.7323.1994c-1.1764.1168-3.2724-1.0885-3.7329-3.1583-.3505-1.575.0435-3.277,1.723-4.3307.5527-.3468,6.0539-3.7263,9.0603-5.5489.0535-.0324.2181-.125.2698-.1564,1.2274-1.0685,3.2049-.0454,4.9245,4.1026,1.1647,2.8094,1.5261,7.7531-.893,7.5236-.129.0931-.2967.0894-.3241.0931l-4.7634.6459c.2009.5433.6725,1.8577,1.2317,3.2929.3669.9419-.0479,2.2298-1.0985,2.7259-1.2807.6046-2.5968-.1197-2.9604-1.0208Z" fill="#001531" stroke-width="0"/><path d="M8.7874,18.2568c-.2014-.4991-1.1612-3.0038-1.7048-4.3683l-1.7323.1994c-1.1764.1168-3.2724-1.0885-3.7329-3.1583-.3505-1.575.0435-3.277,1.723-4.3307.5527-.3468,6.0539-3.7263,9.0603-5.5489.0535-.0324.2181-.125.2698-.1564,1.2274-1.0685,3.2049-.0454,4.9245,4.1026,1.1647,2.8094,1.5261,7.7531-.893,7.5236-.129.0931-.2967.0894-.3241.0931l-4.7634.6459c.2009.5433.6725,1.8577,1.2317,3.2929.3669.9419-.0479,2.2298-1.0985,2.7259-1.2807.6046-2.5968-.1197-2.9604-1.0208Z" fill="rgba(255,255,255,.9)" stroke-width="0"/><path d="M15.2467.5873c.969.7197,1.9369,2.11,2.8106,4.2175.6077,1.4658,1.0049,3.4765.9351,5.1141-.0347.8132-.1867,1.5961-.5386,2.1765-.1799.2966-.4196.5525-.7327.722-.273.1477-.5788.2171-.9081.2095-.0839.0352-.1617.0541-.2213.0649-.0532.0097-.0992.0142-.1317.0167-.0118.0009-.0224.0015-.0298.002l-4.1318.5602c.2434.6657.6049,1.6493,1.0141,2.6995.4561,1.1707-.0476,2.7442-1.3509,3.3595-1.5532.7333-3.1717-.1312-3.6375-1.2858-.0834-.2069-.3062-.7817-.576-1.4775-.3147-.8118-.6932-1.7884-.9887-2.5374l-1.3592.1565c-.7545.0749-1.695-.2659-2.484-.8565-.804-.6019-1.5252-1.5168-1.7864-2.6908-.3857-1.7333.048-3.6725,1.9453-4.8628.5561-.3489,6.0599-3.73,9.0668-5.5529.0324-.0196.0912-.0533.1413-.082l.0048-.0028c.0362-.0208.0682-.0391.0917-.0527C12.7642.1637,13.2241-.013,13.73.0007c.5139.014,1.0269.2228,1.5167.5866ZM11.6244,2.107c-3.0849,1.8778-7.527,4.6075-8.0179,4.9154-1.4616.917-1.8159,2.3817-1.5006,3.7985.1993.8958.7564,1.6185,1.4096,2.1075.6664.4989,1.3601.7026,1.7824.6622l1.7241-.1985c.6747-.0883,1.4806-.2021,2.3495-.3249.6965-.0985,1.4335-.2026,2.1759-.3039l3.5879-.4865c-.6358-.5117-1.1504-1.2009-1.5534-1.8614-.5978-.9797-1.0163-2.0105-1.2493-2.5846-.0359-.0883-.0673-.1658-.0944-.2306-.3765-.9024-.6537-2.3443-.7072-3.6794-.0253-.632-.0015-1.2609.0934-1.8139ZM16.7795,12.0245c.1999.0143.3488-.0234.4657-.0866.1255-.068.2453-.1826.3536-.361.2242-.3699.3627-.9554.3945-1.7006.0631-1.4791-.3028-3.345-.8597-4.6886-.846-2.0406-1.7267-3.2358-2.4831-3.7976-.373-.277-.6919-.3828-.9477-.3898-.2443-.0066-.4756.0751-.6948.2628-.1452.1427-.2896.4413-.3828.9289-.0913.4779-.12,1.0643-.095,1.6888.0504,1.2569.3135,2.5735.6309,3.3344.0302.0723.0641.1557.1018.2485.236.58.6214,1.5275,1.1726,2.4309.6461,1.0589,1.4368,1.9146,2.344,2.1299ZM7.783,14.2991c.2835.7214.6152,1.5774.8953,2.3003.2664.6875.4861,1.2545.5732,1.4703.2612.6475,1.2751,1.2318,2.2832.7558.7981-.3769,1.1239-1.3792.8461-2.0923-.4483-1.1506-.8413-2.2259-1.0827-2.8862-.0047-.0129-.0093-.0256-.0139-.0381-.5973.0825-1.1925.1666-1.7629.2471-.6183.0874-1.2074.1706-1.7382.2431Z" fill="#001531" fill-rule="evenodd" stroke-width="0"/></svg>