<?xml version="1.0" encoding="UTF-8"?><svg id="Layer_1" xmlns="http://www.w3.org/2000/svg" viewBox="0 0 20 20"><path d="M0,5c0-1.6568,1.3431-3,3-3h3.7358c.9497,0,1.8434.4496,2.4093,1.2123l.4494.6057c.1886.2542.4865.4041.803.4041h4.6025c1.6569,0,3,1.3432,3,3v7.7778c0,1.6568-1.3431,3-3,3H3c-1.6568,0-3-1.3432-3-3V5Z" fill="#001531" stroke-width="0"/><path d="M0,5c0-1.6568,1.3431-3,3-3h3.7358c.9497,0,1.8434.4496,2.4093,1.2123l.4494.6057c.1886.2542.4865.4041.803.4041h4.6025c1.6569,0,3,1.3432,3,3v7.7778c0,1.6568-1.3431,3-3,3H3c-1.6568,0-3-1.3432-3-3V5Z" fill="rgba(255,255,255,.9)" stroke-width="0"/><path d="M16.9878,7c.0081.073.0122.1471.0122.2222v.7778H3.8523c-.6955,0-1.545.5717-1.7571,1.2617l-1.0952,3.372v-7.6337c0-1.1046.8954-2,2-2h3.7358c.6332,0,1.2289.2997,1.6062.8082l.4494.6057c.3773.5085.973.8082,1.6061.8082h4.6025c1.0295,0,1.8773.7778,1.9878,1.7778ZM18.2793,15.6907l1.6366-5.1079c.3615-1.157-.4774-2.5828-1.8503-2.5828h-.0656v-.7778c0-1.6568-1.3431-3-3-3h-4.6025c-.3165,0-.6144-.1499-.803-.4041l-.4494-.6057c-.0707-.0953-.1466-.1858-.227-.2711-.5631-.597-1.3512-.9413-2.1822-.9413h-3.7358c-1.6568,0-3,1.3432-3,3v10c0,1.6568,1.3432,3,3,3h12.2346c1.3883,0,2.6182-.9328,3.0447-2.3093Z" fill="#001531" fill-rule="evenodd" stroke-width="0"/></svg>