<?xml version="1.0" encoding="UTF-8"?><svg id="Layer_2" xmlns="http://www.w3.org/2000/svg" viewBox="0 0 20 20"><g id="Layer_1-2"><path d="M10.8874,.1685l8.0747,3.0815c.6269,.2392,1.0513,.8226,1.0376,1.4883-.0311,1.5053-.2306,4.3141-1.1922,6.8271-1.4176,3.7046-4.7333,7.4781-8.6695,8.4138-.128,.0304-.262,.0274-.3888-.0075-4.2816-1.1782-7.376-4.8867-8.6534-8.4063C.1925,9.0762,.0203,6.2443,.0001,4.732c-.0088-.6628,.4137-1.2426,1.0373-1.4822L9.0527,.1705c.59-.2267,1.2441-.2274,1.8347-.002Z" fill="#e8e7e9"/><g><path d="M18.9621,3.25L10.8874,.1685c-.5906-.2254-1.2447-.2247-1.8347,.002L1.0375,3.2498C.4139,3.4894-.0087,4.0692,.0001,4.732c.0202,1.5123,.1923,4.3442,1.0957,6.8333,1.2773,3.5196,4.3718,7.2281,8.6534,8.4063,.1268,.0349,.2608,.0378,.3889,.0075,3.9361-.9357,7.2518-4.7092,8.6694-8.4138,.9616-2.5129,1.1611-5.3217,1.1922-6.8271,.0137-.6656-.4107-1.249-1.0376-1.4882Zm-.948,8.0171c-1.3527,3.5352-4.4876,7.0319-8.0547,7.8897-3.9417-1.0922-6.8568-4.5464-8.0651-7.8761-.855-2.3558-1.0259-5.0756-1.0457-6.5598-.0038-.2875,.1791-.5654,.4957-.6871L9.3594,.9546c.3934-.1511,.8294-.1516,1.2231-.0014l8.0747,3.0815c.3182,.1214,.5001,.4003,.4942,.6863-.0305,1.4733-.2272,4.1679-1.1373,6.546Z" fill="#180b25"/><path d="M11.0514,6.4268c-.1777-.4453-.6087-.7374-1.0881-.7374-.4835,0-.9172,.2969-1.0922,.7476l-2.2297,5.744c-.1884,.4853,.1696,1.0084,.6902,1.0084,.3117,0,.59-.1953,.6962-.4883l.4401-1.2154h2.9877l.466,1.2163c.1124,.2935,.3942,.4874,.7086,.4874,.5366,0,.9036-.5418,.7048-1.0401l-2.2836-5.7226Zm-2.1196,3.7954l1.0095-2.7831,1.03,2.7831h-2.0395Z" fill="#180b25"/></g></g></svg>