<?xml version="1.0" encoding="UTF-8"?><svg id="Layer_1" xmlns="http://www.w3.org/2000/svg" viewBox="0 0 20 20"><path d="M2.5,3c0-1.3807,1.1193-2.5,2.5-2.5h11c1.3807,0,2.5,1.1193,2.5,2.5v14c0,1.3807-1.1193,2.5-2.5,2.5H5c-1.3807,0-2.5-1.1193-2.5-2.5V3Z" fill="#001531" stroke-width="0"/><path d="M2.5,3c0-1.3807,1.1193-2.5,2.5-2.5h11c1.3807,0,2.5,1.1193,2.5,2.5v14c0,1.3807-1.1193,2.5-2.5,2.5H5c-1.3807,0-2.5-1.1193-2.5-2.5V3Z" fill="rgba(255,255,255,.9)" stroke-width="0"/><path d="M1,15h3M1,9.9995h3M1,5h3M5,19.5h11c1.3807,0,2.5-1.1193,2.5-2.5V3c0-1.3807-1.1193-2.5-2.5-2.5H5c-1.3807,0-2.5,1.1193-2.5,2.5v14c0,1.3807,1.1193,2.5,2.5,2.5Z" fill="none" stroke="#001531" stroke-linecap="round" stroke-linejoin="round"/><path d="M7.5412,14.5c-.0614-.3584-.036-.7297-.036-1.0918,0-1.3642,1.09-2.4702,2.4346-2.4702h2.3706c1.3445,0,2.4345,1.106,2.4345,2.4702,0,.3621.0253.7334-.036,1.0918M13.6996,8.1398c0,1.4579-1.1648,2.6397-2.6016,2.6397s-2.6016-1.1818-2.6016-2.6397,1.1648-2.6398,2.6016-2.6398,2.6016,1.1819,2.6016,2.6398Z" fill="none" stroke="#001531" stroke-linecap="round" stroke-linejoin="round"/></svg>