<svg id="Icons" xmlns="http://www.w3.org/2000/svg" xmlns:xlink="http://www.w3.org/1999/xlink" viewBox="0 0 20 20"><defs><clipPath id="clip-path"><rect id="Fill" width="20" height="20" fill="none"/></clipPath></defs><g id="Group"><g clip-path="url(#clip-path)"><g id="Outlines"><path d="M3.11,13.7325V6.2682A3.158,3.158,0,0,1,6.2682,3.11h7.4643A3.1579,3.1579,0,0,1,16.89,6.2682v7.4643A3.1578,3.1578,0,0,1,13.7325,16.89H6.2682A3.1579,3.1579,0,0,1,3.11,13.7325Z" fill="#252a3a"/><path d="M3.11,13.7325V6.2682A3.158,3.158,0,0,1,6.2682,3.11h7.4643A3.1579,3.1579,0,0,1,16.89,6.2682v7.4643A3.1578,3.1578,0,0,1,13.7325,16.89H6.2682A3.1579,3.1579,0,0,1,3.11,13.7325Z" fill="#fff" fill-opacity="0.9"/><path d="M6.4482,0a.5263.5263,0,0,1,.5263.5263V2.69h2.5V.5263a.5263.5263,0,1,1,1.0526,0V2.69h2.5V.5263a.5264.5264,0,0,1,1.0527,0v2.18a3.58,3.58,0,0,1,3.2159,3.2149h2.1785a.5263.5263,0,0,1,0,1.0526H17.3126v2.5h2.1609a.5263.5263,0,0,1,0,1.0526H17.3126v2.5h2.1618a.5263.5263,0,0,1,0,1.0526H17.296a3.58,3.58,0,0,1-3.216,3.2161v2.1786a.5264.5264,0,0,1-1.0527,0V17.3116h-2.5v2.1621a.5263.5263,0,0,1-1.0526,0V17.3116h-2.5v2.1621a.5263.5263,0,0,1-1.0526,0V17.2949A3.58,3.58,0,0,1,2.707,14.079H.5263a.5263.5263,0,0,1,0-1.0526H2.69v-2.5H.5263a.5263.5263,0,1,1,0-1.0526H2.69v-2.5H.5263a.5263.5263,0,0,1,0-1.0526H2.7071A3.58,3.58,0,0,1,5.9219,2.7061V.5263A.5263.5263,0,0,1,6.4482,0ZM3.5325,6.2684A2.7369,2.7369,0,0,1,6.2693,3.5315h7.4644a2.7369,2.7369,0,0,1,2.7368,2.7369v7.4643A2.7368,2.7368,0,0,1,13.7337,16.47H6.2693a2.7368,2.7368,0,0,1-2.7368-2.7368Zm4.9353.7267A1.4737,1.4737,0,0,0,6.9941,8.4688v3.0623a1.4737,1.4737,0,0,0,1.4737,1.4736H11.53a1.4737,1.4737,0,0,0,1.4737-1.4736V8.4688A1.4737,1.4737,0,0,0,11.53,6.9951ZM7.8362,8.4688a.6316.6316,0,0,1,.6316-.6316H11.53a.6316.6316,0,0,1,.6316.6316v3.0623a.6315.6315,0,0,1-.6316.6315H8.4678a.6315.6315,0,0,1-.6316-.6315Z" fill="#252a3a" fill-rule="evenodd"/></g></g></g></svg>