<svg width="20" height="20" viewBox="0 0 20 20" fill="none" xmlns="http://www.w3.org/2000/svg">
<path d="M17.0167 0.351562H2.98617C2.65834 0.351562 2.39258 0.617321 2.39258 0.94515V19.0562C2.39258 19.3841 2.65834 19.6498 2.98617 19.6498H17.0167C17.3445 19.6498 17.6102 19.3841 17.6102 19.0562V0.94515C17.6102 0.617321 17.3445 0.351562 17.0167 0.351562Z" fill="#E8E7E9"/>
<path fill-rule="evenodd" clip-rule="evenodd" d="M2.74277 0.944465C2.74277 0.810419 2.85143 0.701754 2.98548 0.701754H4.01693V4.24113C4.01693 4.65562 4.47379 4.90745 4.82425 4.68615L5.9768 3.95837L7.0912 4.67899C7.44139 4.90545 7.90331 4.65407 7.90331 4.23703V0.701754H17.016C17.15 0.701754 17.2587 0.810419 17.2587 0.944465V19.0555C17.2587 19.1896 17.15 19.2982 17.016 19.2982H2.98548C2.85143 19.2982 2.74277 19.1896 2.74277 19.0555V0.944465ZM7.20155 0.701754H4.71868V3.92286L5.79171 3.24529C5.90731 3.1723 6.05478 3.17309 6.16958 3.24733L7.20155 3.91466V0.701754ZM2.98548 0C2.46387 0 2.04102 0.422851 2.04102 0.944465V19.0555C2.04102 19.5772 2.46387 20 2.98548 20H17.016C17.5376 20 17.9604 19.5772 17.9604 19.0555V0.944465C17.9604 0.422852 17.5376 0 17.016 0H2.98548ZM4.39385 7.56293C4.20006 7.56293 4.04297 7.72003 4.04297 7.91381C4.04297 8.10759 4.20006 8.26469 4.39385 8.26469H15.6081C15.8019 8.26469 15.959 8.10759 15.959 7.91381C15.959 7.72003 15.8019 7.56293 15.6081 7.56293H4.39385ZM4.04297 10.2597C4.04297 10.0659 4.20006 9.90885 4.39385 9.90885H15.6081C15.8019 9.90885 15.959 10.0659 15.959 10.2597C15.959 10.4535 15.8019 10.6106 15.6081 10.6106H4.39385C4.20006 10.6106 4.04297 10.4535 4.04297 10.2597ZM4.39385 12.398C4.20006 12.398 4.04297 12.5551 4.04297 12.7489C4.04297 12.9427 4.20006 13.0998 4.39385 13.0998H15.6081C15.8019 13.0998 15.959 12.9427 15.959 12.7489C15.959 12.5551 15.8019 12.398 15.6081 12.398H4.39385ZM4.04297 15.3096C4.04297 15.1159 4.20006 14.9588 4.39385 14.9588H15.6081C15.8019 14.9588 15.959 15.1159 15.959 15.3096C15.959 15.5034 15.8019 15.6605 15.6081 15.6605H4.39385C4.20006 15.6605 4.04297 15.5034 4.04297 15.3096Z" fill="#180B25"/>
</svg>
