<?xml version="1.0" encoding="UTF-8"?><svg id="Layer_1" xmlns="http://www.w3.org/2000/svg" viewBox="0 0 20 20"><path d="M13.1006,0h-6.2011c-.6649,0-1.3038.2638-1.7741.7351L.7351,5.1254c-.4703.4703-.7351,1.1081-.7351,1.773v6.2022c0,.6648.2649,1.3037.7351,1.774l4.3903,4.3903c.4703.4702,1.1092.7351,1.7741.7351h6.2011c.6658,0,1.3037-.2649,1.774-.7351l4.3914-4.3903c.4702-.4703.734-1.1092.734-1.774v-6.2022c0-.6649-.2638-1.3027-.734-1.773L14.8746.7351c-.4703-.4713-1.1082-.7351-1.774-.7351Z" fill="#001531" stroke-width="0"/><path d="M13.1006,0h-6.2011c-.6649,0-1.3038.2638-1.7741.7351L.7351,5.1254c-.4703.4703-.7351,1.1081-.7351,1.773v6.2022c0,.6648.2649,1.3037.7351,1.774l4.3903,4.3903c.4703.4702,1.1092.7351,1.7741.7351h6.2011c.6658,0,1.3037-.2649,1.774-.7351l4.3914-4.3903c.4702-.4703.734-1.1092.734-1.774v-6.2022c0-.6649-.2638-1.3027-.734-1.773L14.8746.7351c-.4703-.4713-1.1082-.7351-1.774-.7351Z" fill="rgba(255,255,255,.9)" stroke-width="0"/><path d="M5.8325,1.4422l.0008-.0008c.2819-.2825.6658-.4414,1.0661-.4414h6.2011c.4011,0,.784.1588,1.066.4414l.0009.0009,4.3914,4.3901h0c.2823.2826.441.6659.441,1.0659v6.2022c0,.4004-.159.7847-.441,1.0668h0l-4.3914,4.3903h0c-.283.2831-.6667.4423-1.0668.4423h-6.2011c-.3993,0-.784-.1593-1.0669-.4422h0S1.4423,14.1675,1.4423,14.1675h0c-.2829-.2829-.4422-.6675-.4422-1.0669v-6.2022c0-.3989.159-.7826.4422-1.0659h0S5.8325,1.4422,5.8325,1.4422ZM20,6.8984c0-.6649-.2638-1.3027-.734-1.773L14.8746.7351c-.4703-.4713-1.1082-.7351-1.774-.7351h-6.2011c-.6649,0-1.3038.2638-1.7741.7351L.7351,5.1254c-.4703.4703-.7351,1.1081-.7351,1.773v6.2022c0,.6648.2649,1.3037.7351,1.774l4.3903,4.3903c.4703.4702,1.1092.7351,1.7741.7351h6.2011c.6658,0,1.3037-.2649,1.774-.7351l4.3914-4.3903c.4702-.4703.734-1.1092.734-1.774v-6.2022ZM10.75,6.25c0-.4142-.3358-.75-.75-.75s-.75.3358-.75.75v3.9923c0,.4142.3358.75.75.75s.75-.3358.75-.75v-3.9923ZM10.75,13.7011c0-.4142-.3358-.75-.75-.75s-.75.3358-.75.75v.0489c0,.4142.3358.75.75.75s.75-.3358.75-.75v-.0489Z" fill="#001531" fill-rule="evenodd" stroke-width="0"/></svg>