<?xml version="1.0" encoding="UTF-8"?><svg id="Layer_1" xmlns="http://www.w3.org/2000/svg" viewBox="0 0 20 20"><path d="M19.3485,17.2502c-.3451-.5182-4.4639-4.7082-4.4639-4.7082l-.5044,.5041-1.2421-1.2728c.9504-1.2346,1.5216-2.7755,1.5216-4.4531C14.6597,3.2773,11.378,0,7.3298,0S0,3.2773,0,7.3202s3.2817,7.3202,7.3298,7.3202c1.6887,0,3.2395-.576,4.4789-1.5344l1.2549,1.2558-.5001,.4998c1.6057,1.6072,4.2422,4.2023,4.5214,4.4157,.2791,.2134,1.1023,.629,1.9033-.1727,.7159-.7166,.7055-1.3361,.3603-1.8543Z" fill="#e8e7e9"/><path d="M19.7004,17.0166c-.0624-.0936-.1852-.238-.3266-.3973-.149-.168-.341-.3772-.5593-.6111-.4371-.4682-.9861-1.0425-1.5231-1.5992-.5372-.557-1.0635-1.0976-1.4554-1.4989-.1959-.2006-.3584-.3665-.4718-.4823l-.1781-.1814c-.0789-.0803-.1866-.1258-.2991-.1263-.1126-.0005-.2206,.044-.3003,.1236l-.2203,.2201-.9876-1.0121c.807-1.1761,1.2809-2.5981,1.2809-4.1315C14.6597,3.2773,11.378,0,7.3298,0S0,3.2773,0,7.3202s3.2817,7.3202,7.3298,7.3202c1.5441,0,2.9748-.4792,4.1562-1.2935l.9976,.9983-.2181,.218c-.0793,.0793-.1239,.1868-.1239,.299,0,.1122,.0445,.2198,.1237,.2991,.804,.8047,1.8656,1.8564,2.7614,2.7338,.4479,.4386,.8551,.8345,1.1682,1.1345,.3012,.2885,.5405,.5129,.6341,.5845,.1823,.1392,.5319,.3399,.9748,.3794,.465,.0414,.9942-.0995,1.4835-.5892,.3994-.3997,.6371-.8132,.6976-1.2411,.0615-.4347-.0684-.8221-.2844-1.1465ZM.8446,7.3202C.8446,3.7461,3.7463,.8454,7.3298,.8454s6.4852,2.9007,6.4852,6.4748-2.9017,6.4748-6.4852,6.4748S.8446,10.8943,.8446,7.3202Zm11.2765,5.537l.0686-.0676c.1893-.1678,.369-.3452,.54-.5316l.1656-.1631,.9085,.931-.7576,.757-.9252-.9258Zm6.5689,5.9492c-.3118,.3121-.5947,.3642-.8113,.3449-.2386-.0213-.4401-.1351-.5371-.2092,0,0-.0013-.0011-.0044-.0035l-.0118-.0099c-.0101-.0086-.0229-.0198-.0389-.0339-.0319-.0284-.0729-.0658-.1227-.1119-.0996-.0923-.2298-.2157-.3849-.3642-.3099-.2968-.7145-.6902-1.1614-1.1279-.7864-.7703-1.7012-1.6754-2.4559-2.4285l1.7204-1.7191c.0976,.0997,.216,.2206,.35,.3579,.3912,.4005,.9162,.9398,1.4518,1.4951,.5359,.5556,1.0812,1.126,1.5135,1.5892,.2162,.2317,.4028,.435,.545,.5953,.15,.1689,.2313,.2689,.2553,.3047,.129,.1938,.1769,.3752,.1509,.559-.0269,.1905-.142,.4451-.4585,.7619Z" fill="#180b25" fill-rule="evenodd"/></svg>