<?xml version="1.0" encoding="UTF-8"?><svg id="Layer_1" xmlns="http://www.w3.org/2000/svg" viewBox="0 0 20 20"><path d="M.75,7.0082v9.8936c0,1.0859.8311,2.5982,2.5637,2.5982h1.8951c1.1875,0,1.6909-1.0902,1.6909-1.7311,0-1.1202.0035-3.2477.0035-3.538,0-.4947.4062-1.7412,1.9501-1.7412h2.4518c1.0887,0,1.795,1.0199,1.795,1.7412v3.5419c0,1.1991,1.0462,1.7114,1.5608,1.7272h2.0681c1.7482,0,2.507-1.6608,2.507-2.3748.0315-2.919,0-8.9678,0-10.0894,0-1.3062-.9081-2.1046-1.3715-2.3887-.3824-.2345-5.6583-3.319-6.5164-3.7948-.8161-.4525-1.8701-.4871-2.7003.0004-1.7639,1.0352-5.5286,3.1942-6.5087,3.7991-.956.5901-1.3891,1.5787-1.3891,2.3563Z" fill="#001531" stroke-width="0"/><path d="M.75,7.0082v9.8936c0,1.0859.8311,2.5982,2.5637,2.5982h1.8951c1.1875,0,1.6909-1.0902,1.6909-1.7311,0-1.1202.0035-3.2477.0035-3.538,0-.4947.4062-1.7412,1.9501-1.7412h2.4518c1.0887,0,1.795,1.0199,1.795,1.7412v3.5419c0,1.1991,1.0462,1.7114,1.5608,1.7272h2.0681c1.7482,0,2.507-1.6608,2.507-2.3748.0315-2.919,0-8.9678,0-10.0894,0-1.3062-.9081-2.1046-1.3715-2.3887-.3824-.2345-5.6583-3.319-6.5164-3.7948-.8161-.4525-1.8701-.4871-2.7003.0004-1.7639,1.0352-5.5286,3.1942-6.5087,3.7991-.956.5901-1.3891,1.5787-1.3891,2.3563Z" fill="rgba(255,255,255,.9)" stroke-width="0"/><path d="M11.1056,1.2897c-.6761-.3749-1.5409-.3955-2.2046-.0057-.6674.3917-1.613.9395-2.5851,1.5027-1.6161.9363-3.3058,1.9152-3.9142,2.2907-.802.495-1.1518,1.3188-1.1518,1.9308v9.8936c0,.4287.1685.9652.5177,1.3879.3381.4095.8422.7103,1.546.7103h1.8951c.4195,0,.7035-.1846.8961-.4322.2055-.2643.2948-.5888.2948-.7989,0-.5604.0009-1.3727.0018-2.0808.0003-.2309.0006-.4507.0008-.6471.0005-.4063.0009-.7125.0009-.8101,0-.3512.1343-.8976.5035-1.3657.3881-.4922,1.0196-.8755,1.9466-.8755h2.4518c.7108,0,1.2873.335,1.6763.7644.3802.4197.6187.9704.6187,1.4768v3.5419c0,.4363.1839.7311.4132.9281.2434.2091.5214.2928.6569.2991h2.0588c.6953,0,1.1881-.3235,1.5204-.7342.3486-.4307.4866-.9163.4866-1.1406v-.0054c.0243-2.247.0111-6.3497.0038-8.6297-.0021-.6785-.0038-1.1955-.0038-1.4542,0-1.0564-.7388-1.7208-1.1328-1.9624-.3762-.2306-5.6458-3.3115-6.4976-3.7837ZM8.3947.4216c.9966-.5852,2.2398-.5365,3.1958-.0064.8645.4793,6.1467,3.5675,6.5354,3.8058.5326.3266,1.6101,1.2588,1.6101,2.8149,0,.2544.0016.7661.0038,1.4392.0073,2.276.0205,6.3968-.0038,8.653-.0009.4896-.2423,1.1899-.7093,1.7669-.4841.5983-1.2449,1.1051-2.2977,1.1051h-2.0681l-.0153-.0002c-.3815-.0117-.8792-.1927-1.2839-.5404-.4225-.3629-.7616-.9238-.7616-1.6866v-3.5419c0-.2149-.1147-.5348-.3598-.8054-.2363-.2609-.5573-.4358-.9352-.4358h-2.4518c-.6169,0-.9605.2399-1.1615.4947-.2199.2788-.2887.603-.2887.7465,0,.0982-.0004.4056-.0009.8125-.0002.1963-.0005.4157-.0008.6459-.0009.7083-.0018,1.5199-.0018,2.0796,0,.4308-.1624.9718-.5054,1.4128-.356.4578-.9174.8183-1.6855.8183h-1.8951c-1.0287,0-1.8065-.4553-2.3171-1.0735-.4996-.6048-.7466-1.3674-.7466-2.0247V7.0082c0-.9433.5165-2.0967,1.6265-2.7818.6188-.382,2.3399-1.3791,3.9684-2.3226.9653-.5593,1.8982-1.0998,2.5498-1.4822Z" fill="#001531" fill-rule="evenodd" stroke-width="0"/></svg>