<?xml version="1.0" encoding="UTF-8"?><svg id="Layer_1" xmlns="http://www.w3.org/2000/svg" viewBox="0 0 20 20"><path d="M.4062,10.3741c0-2.764,1.954-4.3871,4.3717-4.409,0-1.7384,1.3649-5.2151,5.2179-5.2151s5.218,3.4767,5.218,5.2151c2.4176.022,4.3705,1.645,4.3705,4.409,0,1.7877-1.0616,3.3307-2.5913,4.0225-.6529.2602-1.2957.3557-1.7837.3557h-2.5615c.0156.1171.0237.2365.0237.3579,0,1.4779-1.1975,2.6757-2.6767,2.6757-1.4778,0-2.6774-1.1978-2.6774-2.6757,0-.1214.0081-.2408.0237-.3579h-2.5665c-.4868,0-1.1286-.0999-1.7726-.3613-1.5309-.6907-2.5958-2.2292-2.5958-4.0169Z" fill="#001531" fill-rule="evenodd" stroke-width="0"/><path d="M.4062,10.3741c0-2.764,1.954-4.3871,4.3717-4.409,0-1.7384,1.3649-5.2151,5.2179-5.2151s5.218,3.4767,5.218,5.2151c2.4176.022,4.3705,1.645,4.3705,4.409,0,1.7877-1.0616,3.3307-2.5913,4.0225-.6529.2602-1.2957.3557-1.7837.3557h-2.5615c.0156.1171.0237.2365.0237.3579,0,1.4779-1.1975,2.6757-2.6767,2.6757-1.4778,0-2.6774-1.1978-2.6774-2.6757,0-.1214.0081-.2408.0237-.3579h-2.5665c-.4868,0-1.1286-.0999-1.7726-.3613-1.5309-.6907-2.5958-2.2292-2.5958-4.0169Z" fill="rgba(255,255,255,.9)" fill-rule="evenodd" stroke-width="0"/><path d="M10,.3467c-2.0824,0-3.5158.9477-4.4145,2.1331-.7465.9847-1.1273,2.1351-1.2273,3.0505-1.1266.1018-2.1563.5359-2.9361,1.2788-.891.8488-1.4221,2.0692-1.4221,3.561,0,1.9734,1.1768,3.6709,2.8662,4.4324.2517.1135.5478.0014.6613-.2503.1135-.2518.0014-.5479-.2503-.6613-1.3444-.6061-2.2771-1.9553-2.2771-3.5208,0-1.2432.4364-2.1935,1.1119-2.837.6798-.6476,1.6355-1.0162,2.7236-1.0259.2744-.0025.4955-.2256.4955-.5,0-.7549.3045-1.9381,1.0514-2.9232.7314-.9648,1.8825-1.7373,3.6176-1.7373s2.8862.7725,3.6176,1.7373c.7469.9852,1.0515,2.1684,1.0515,2.9232,0,.276.2236.4998.4995.5,1.0868.0009,2.0409.3686,2.72,1.018.6753.6458,1.1114,1.6011,1.1114,2.8449,0,1.5654-.9336,2.9147-2.2772,3.5208-.2518.1136-.3638.4097-.2502.6614.1135.2517.4096.3637.6613.2502,1.6882-.7615,2.8661-2.4588,2.8661-4.4324,0-1.4911-.5299-2.7162-1.4203-3.5677-.7792-.7451-1.8092-1.1801-2.9382-1.2753-.1006-.9149-.4813-2.0638-1.227-3.0473-.8987-1.1854-2.3322-2.1331-4.4145-2.1331ZM6.8683,14.6397c.0783-.4867.2674-.9363.5406-1.3222l-.6141-.6031c-.2011-.1975-.204-.5206-.0065-.7217.1975-.2011.5206-.204.7217-.0065l.6143.6034c.3952-.2901.8601-.4908,1.3648-.5723v-.8566c0-.2818.2285-.5103.5103-.5103s.5103.2285.5103.5103v.857c.5202.0843.9977.2952,1.4001.6l.6223-.5932c.204-.1944.527-.1867.7215.0173.1945.204.1867.5271-.0173.7215l-.622.593c.2584.3771.4374.8129.513,1.2834h.8624c.2818,0,.5103.2287.5103.5107s-.2285.5107-.5103.5107h-.8635c-.0789.4846-.2676.9322-.5396,1.3166l.6139.6038c.2009.1977.2036.5208.0059.7217-.1976.201-.5207.2036-.7217.006l-.6137-.6037c-.3942.2892-.8578.4895-1.3613.5711v.8635c0,.2818-.2285.5103-.5103.5103s-.5103-.2285-.5103-.5103v-.8631c-.5209-.0841-.9993-.2953-1.4026-.6006l-.6235.5952c-.2039.1946-.5269.1871-.7215-.0168-.1946-.2038-.1871-.5269.0168-.7215l.6237-.5953c-.2574-.3754-.4362-.8089-.5125-1.2769h-.859c-.2819,0-.5103-.2286-.5103-.5107s.2285-.5107.5103-.5107h.8579ZM7.8517,15.1072c.0211-1.1538.9515-2.0851,2.1035-2.1092.0155.0014.0312.0021.0471.0021.0157,0,.0312-.0007.0465-.0021.5805.0127,1.1039.2552,1.4832.6403.0073.0088.0149.0174.0229.0257.008.0085.0163.0166.0248.0243.3539.3832.5701.8957.5701,1.459,0,.5801-.2293,1.1064-.6022,1.493l-.0069.0067-.0077.0076-.01.0104-.0042.0046c-.3886.3879-.9251.6277-1.5178.6277-1.1712,0-2.1249-.938-2.1491-2.1044.0011-.0139.0017-.028.0017-.0422,0-.0147-.0006-.0292-.0018-.0435Z" fill="#001531" fill-rule="evenodd" stroke-width="0"/></svg>