<svg id="Layer_1" data-name="Layer 1" xmlns="http://www.w3.org/2000/svg" viewBox="0 0 20 20"><path d="M2.1663,2.0254H7.4236a1.7863,1.7863,0,0,1,1.3475.74l1.2322,1.12H17.826a1.7567,1.7567,0,0,1,1.7434,1.77V16.2026a1.7569,1.7569,0,0,1-1.7407,1.7718H2.1713A1.7541,1.7541,0,0,1,.4307,16.2069h0V3.7931A1.7557,1.7557,0,0,1,2.1663,2.0254Z" fill="#252a3a"/><path d="M2.1663,2.0254H7.4236a1.7863,1.7863,0,0,1,1.3475.74l1.2322,1.12H17.826a1.7567,1.7567,0,0,1,1.7434,1.77V16.2026a1.7569,1.7569,0,0,1-1.7407,1.7718H2.1713A1.7541,1.7541,0,0,1,.4307,16.2069h0V3.7931A1.7557,1.7557,0,0,1,2.1663,2.0254Z" fill="#fff" fill-opacity="0.9"/><path d="M17.8259,3.4554H10.17L9.0992,2.4821a2.1228,2.1228,0,0,0-.7126-.6174,2.0588,2.0588,0,0,0-.963-.27H2.1663A2.1863,2.1863,0,0,0,0,3.7931V16.2066a2.1846,2.1846,0,0,0,2.1708,2.1983H17.8287A2.1874,2.1874,0,0,0,20,16.2025V5.6578a2.1875,2.1875,0,0,0-2.1723-2.2024Zm1.3129,12.7471a1.3263,1.3263,0,0,1-1.31,1.3412H2.1713a1.3234,1.3234,0,0,1-1.31-1.3367h0V3.7931A1.3251,1.3251,0,0,1,2.1663,2.456H7.4236a1.21,1.21,0,0,1,.5483.1636,1.2328,1.2328,0,0,1,.4369.379l.0306.0477,1.3974,1.27h7.9891a1.3261,1.3261,0,0,1,1.3129,1.3392v10.547Z" fill="#252a3a" fill-rule="evenodd"/><path d="M14.4518,8.7746A4.999,4.999,0,0,0,5.5486,8.774a.4235.4235,0,0,0-.0628.1266A5,5,0,1,0,14.5139,8.9.4176.4176,0,0,0,14.4518,8.7746Zm-1.0859-.1727H12.0517a5.5169,5.5169,0,0,0-.5761-1.4455A4.1855,4.1855,0,0,1,13.3659,8.6019ZM10,6.9773c.377,0,.8457.5862,1.1506,1.6246H8.8493C9.1542,7.5635,9.6229,6.9773,10,6.9773Zm-1.4756.1792a5.5165,5.5165,0,0,0-.5762,1.4454H6.6342A4.1838,4.1838,0,0,1,8.5244,7.1565ZM6.1611,9.4386H7.7785a10.3976,10.3976,0,0,0-.11,1.1935H5.8869l-.0295.001A4.13,4.13,0,0,1,6.1611,9.4386Zm.0006,3.2236a4.13,4.13,0,0,1-.3042-1.1945l.0294.0011H7.6686a10.3959,10.3959,0,0,0,.11,1.1934Zm.4735.8367H7.9488a5.5156,5.5156,0,0,0,.5762,1.4442A4.1844,4.1844,0,0,1,6.6352,13.4989ZM10,15.1222c-.3769,0-.8453-.5857-1.15-1.6233h2.3C10.8453,14.5365,10.3769,15.1222,10,15.1222Zm1.34-2.46H8.66a9.42,9.42,0,0,1-.12-1.1934h2.92A9.3819,9.3819,0,0,1,11.34,12.6622Zm-2.8-2.03a9.3853,9.3853,0,0,1,.12-1.1935h2.68a9.3853,9.3853,0,0,1,.12,1.1935Zm2.9351,4.3111a5.5162,5.5162,0,0,0,.5762-1.4443H13.365a4.1854,4.1854,0,0,1-1.89,1.4442Zm2.3634-2.281H12.2212a10.3959,10.3959,0,0,0,.11-1.1934h1.7817l.0294-.0011a4.1325,4.1325,0,0,1-.3039,1.1944Zm.2747-2.03H12.3315a10.3976,10.3976,0,0,0-.11-1.1935H13.839a4.1294,4.1294,0,0,1,.3036,1.1945Z" fill="#252a3a" fill-rule="evenodd"/></svg>