<?xml version="1.0" encoding="UTF-8"?><svg id="Layer_1" xmlns="http://www.w3.org/2000/svg" viewBox="0 0 20 20"><path d="M19.4295,2.3333c-.1746-.6128-.6583-1.0917-1.2771-1.2645-.2461-.0688-.5471-.0688-1.149-.0688s-.9029,0-1.149.0688c-.6189.1729-1.1025.6517-1.2771,1.2645-.0695.2437-.0695.5417-.0695,1.1376v7.5515c0,.596,0,.8939.0695,1.1376.1746.6129.6582,1.0917,1.2771,1.2647.2462.0687.5471.0687,1.149.0687s.9029,0,1.149-.0687c.6188-.173,1.1025-.6519,1.2771-1.2647.0694-.2437.0694-.5416.0694-1.1376V3.4709c0-.5959,0-.8939-.0694-1.1376Z" fill="#001531" stroke-width="0"/><path d="M4.4055,1.1414c-1.2458.1369-2.6843,1.0809-3.1942,2.4534-.7548,2.0317-.9066,4.9466-.4661,6.4767.2112.7339.6962,1.3609,1.3568,1.754.7222.4297,1.7304.4297,3.8521.4297.9703,0,1.3732.4094,1.0417,1.5896-.4468,1.5915-.8831,4.5924.8257,5.0842.7661.2206,1.6195-.0897,2.1069-.7054,1.0277-1.2986,2.0446-2.6062,3.0613-3.9137.505-.6494,1.0101-1.2989,1.5165-1.9472V3.0735c-1.1507-1.1456-2.668-1.8633-4.2972-1.9529-1.773-.0975-4.1212-.1641-5.8036.0208Z" fill="#001531" stroke-width="0"/><path d="M19.4295,2.3333c-.1746-.6128-.6583-1.0917-1.2771-1.2645-.2461-.0688-.5471-.0688-1.149-.0688s-.9029,0-1.149.0688c-.6189.1729-1.1025.6517-1.2771,1.2645-.0695.2437-.0695.5417-.0695,1.1376v7.5515c0,.596,0,.8939.0695,1.1376.1746.6129.6582,1.0917,1.2771,1.2647.2462.0687.5471.0687,1.149.0687s.9029,0,1.149-.0687c.6188-.173,1.1025-.6519,1.2771-1.2647.0694-.2437.0694-.5416.0694-1.1376V3.4709c0-.5959,0-.8939-.0694-1.1376Z" fill="rgba(255,255,255,.9)" stroke-width="0"/><path d="M4.4055,1.1414c-1.2458.1369-2.6843,1.0809-3.1942,2.4534-.7548,2.0317-.9066,4.9466-.4661,6.4767.2112.7339.6962,1.3609,1.3568,1.754.7222.4297,1.7304.4297,3.8521.4297.9703,0,1.3732.4094,1.0417,1.5896-.4468,1.5915-.8831,4.5924.8257,5.0842.7661.2206,1.6195-.0897,2.1069-.7054,1.0277-1.2986,2.0446-2.6062,3.0613-3.9137.505-.6494,1.0101-1.2989,1.5165-1.9472V3.0735c-1.1507-1.1456-2.668-1.8633-4.2972-1.9529-1.773-.0975-4.1212-.1641-5.8036.0208Z" fill="rgba(255,255,255,.9)" stroke-width="0"/><path d="M14.5063,12.3627c-1.5258,1.9535-3.0395,3.917-4.5779,5.8609-.4874.6157-1.3408.926-2.1069.7054-1.7088-.4918-1.2726-3.4927-.8257-5.0842.3314-1.1802-.0715-1.5896-1.0418-1.5896-2.1217,0-3.1298,0-3.8521-.4297-.6606-.3931-1.1456-1.0201-1.3568-1.754-.4405-1.5302-.2887-4.4451.4661-6.4767.51-1.3725,1.9484-2.3165,3.1942-2.4534,1.6824-.1849,4.0306-.1182,5.8036-.0207,1.6292.0896,3.1465.8073,4.2972,1.9529M17.0034,13.4934c.6019,0,.9029,0,1.149-.0687.6188-.173,1.1025-.6519,1.2771-1.2647.0694-.2437.0694-.5416.0694-1.1376V3.4709c0-.5959,0-.8939-.0694-1.1376-.1746-.6128-.6583-1.0917-1.2771-1.2645-.2461-.0688-.5471-.0688-1.149-.0688s-.9029,0-1.149.0688c-.6189.1729-1.1025.6518-1.2771,1.2645-.0695.2437-.0695.5417-.0695,1.1376v7.5515c0,.596,0,.8939.0695,1.1376.1746.6128.6582,1.0917,1.2771,1.2647.2461.0687.547.0687,1.149.0687Z" fill="none" stroke="#001531" stroke-linecap="round" stroke-linejoin="round"/></svg>