<?xml version="1.0" encoding="UTF-8"?><svg id="Layer_1" xmlns="http://www.w3.org/2000/svg" viewBox="0 0 20 20"><path d="M2.54,10.4363L6.6863.8982c.0931-.2392.3345-.3982.6048-.3982h5.5585c.4445,0,.7554.4145.6073.8097l-2.4582,5.439c-.1481.3952.1628.8097.6074.8097h5.2486c.5537,0,.8493.6149.4845,1.0075l-9.9655,10.7239c-.449.4832-1.2825.0641-1.107-.5567l1.8997-6.7165c.109-.3856-.1992-.7638-.6224-.7638H3.1448c-.4478,0-.759-.4201-.6048-.8165Z" fill="#001531" stroke-width="0"/><path d="M2.54,10.4363L6.6863.8982c.0931-.2392.3345-.3982.6048-.3982h5.5585c.4445,0,.7554.4145.6073.8097l-2.4582,5.439c-.1481.3952.1628.8097.6074.8097h5.2486c.5537,0,.8493.6149.4845,1.0075l-9.9655,10.7239c-.449.4832-1.2825.0641-1.107-.5567l1.8997-6.7165c.109-.3856-.1992-.7638-.6224-.7638H3.1448c-.4478,0-.759-.4201-.6048-.8165Z" fill="rgba(255,255,255,.9)" stroke-width="0"/><path d="M7.2874,1c-.0784,0-.1255.0455-.1387.0795-.0024.006-.0048.0121-.0074.018L3.0031,10.623c-.0077.0237-.0047.0469.0143.0726.0217.0293.0633.0572.1263.0572h4.3964c.7139,0,1.3128.6572,1.1029,1.3999h0l-1.8985,6.7165c-.0095.0337-.0033.0469.0004.0543.0069.0136.0256.0368.0623.0552.0365.0184.0757.0243.1081.0199.0276-.0038.0573-.0155.0886-.0492l.366.3404-.366-.3404,9.9592-10.7239h0c.0216-.0233.0255-.0396.0267-.0483.0015-.0112.0001-.0271-.0088-.0456-.0167-.0346-.0569-.0732-.136-.0732h-5.2453c-.7488,0-1.3606-.7226-1.0749-1.4852.0039-.0103.008-.0204.0126-.0304l2.4469-5.4176c.0058-.0223.0021-.0443-.0161-.0685-.0218-.0291-.0634-.0567-.1258-.0567h-5.555ZM6.2215.7064c.1755-.4382.6079-.7064,1.0659-.7064h5.555c.7487,0,1.3604.7227,1.0748,1.4852-.0039.0103-.0081.0204-.0126.0304l-2.4469,5.4176c-.0059.0222-.0021.0442.0161.0685.0218.0291.0634.0567.1259.0567h5.2453c.9271,0,1.5538,1.0903.8502,1.8479,0,0,0,0,0,0l-9.9591,10.7239c-.3988.4294-.9689.4477-1.3778.2419-.4122-.2074-.7409-.6896-.5754-1.2751l.4793.1356-.4793-.1356,1.8985-6.7165h0c.0067-.0237.0036-.048-.0181-.0745-.0226-.0278-.0639-.0532-.1231-.0532H3.1438c-.754,0-1.3676-.7327-1.0701-1.4978.0024-.006.0048-.012.0074-.018L6.2215.7064Z" fill="#001531" fill-rule="evenodd" stroke-width="0"/></svg>