<svg id="Layer_1" data-name="Layer 1" xmlns="http://www.w3.org/2000/svg" viewBox="0 0 20 20"><path d="M3.118,13.7306a2.915,2.915,0,0,0,2.9337.0131,2.5061,2.5061,0,0,0-.1843-3.7692,4.6929,4.6929,0,0,0-.539-.4066C4.739,9.1641,4.1079,8.7318,4.405,7.92c.4941-.6385,1.2243-.3755,1.8607-.1463.0959.0346.19.0684.28.0982l-.0181-.7856q-.0093-.399-.0185-.7971l-.086-.0127a3.36,3.36,0,0,0-2.4142.231,2.5578,2.5578,0,0,0,.0887,4.026c.0654.0489.1358.0994.2089.1518.617.4423,1.42,1.0179.9338,1.87-.7031.6228-1.5755-.0478-2.1652-.504C3.0934,12.6134,3.106,13.172,3.118,13.7306ZM0,17.4911.0227,2.51,10.7.4766V19.5242ZM17.7808,7.8668a1.7749,1.7749,0,0,1,.3762-.04,1.9279,1.9279,0,0,1,0,3.8521,1.7862,1.7862,0,0,1-.3587-.037A5.1986,5.1986,0,0,1,15.2378,14.54a2.04,2.04,0,0,1,.016.242,1.8861,1.8861,0,0,1-1.843,1.9262,1.7833,1.7833,0,0,1-1.1411-.4157V13.2713a1.7851,1.7851,0,0,1,1.1411-.4154,1.8186,1.8186,0,0,1,1.5158.8318,4.3075,4.3075,0,0,0,2.0807-2.4315A1.979,1.979,0,0,1,16.9926,8.26a4.3024,4.3024,0,0,0-2.066-2.3894,1.8185,1.8185,0,0,1-1.5155.8318A1.7846,1.7846,0,0,1,12.27,6.2867V3.2661A1.7843,1.7843,0,0,1,13.4111,2.85a1.886,1.886,0,0,1,1.843,1.9258,2.0458,2.0458,0,0,1-.0163.2424A5.194,5.194,0,0,1,17.7808,7.8668Z" fill="#252a3a" fill-rule="evenodd"/></svg>