<?xml version="1.0" encoding="UTF-8"?><svg id="Icon" xmlns="http://www.w3.org/2000/svg" viewBox="0 0 20 20"><path id="Solid_Fill" d="M6.2047,.833h7.59l5.3716,5.3717v7.59l-5.3716,5.3716H6.2047L.833,13.7947V6.2047L6.2047,.833Z" fill="#001531"/><path id="Opacity_Fill" d="M6.2047,.833h7.59l5.3716,5.3717v7.59l-5.3716,5.3716H6.2047L.833,13.7947V6.2047L6.2047,.833Z" fill="rgba(255,255,255,.9)"/><g id="Outline"><path d="M9.9957,12.4248c-.3171,0-.6526,.0826-.9092,.337-.2256,.2245-.3356,.5121-.3356,.8203s.1093,.5951,.3349,.8196l.007,.007,.0073,.0068c.2574,.2388,.5878,.3127,.8956,.3127s.6381-.074,.8956-.3127l.0035-.0034,.0035-.0033c.2322-.2229,.3484-.512,.3484-.8268,0-.3133-.1151-.6012-.3452-.8236-.2561-.2518-.5901-.3337-.9058-.3337Z" fill="#001531" fill-rule="evenodd"/><path d="M10.0235,11.5419c.5976,0,.9206-.3848,.9295-.9824l.0703-4.1089c.0097-.6482-.3516-1.1789-.9998-1.1789-.6478,0-1.0362,.5311-1.0272,1.1788l.0653,4.1089c.0083,.5981,.3638,.9824,.9619,.9824Z" fill="#001531" fill-rule="evenodd"/><path d="M19.8485,5.7084L14.2916,.1515c-.097-.097-.2286-.1515-.3657-.1515H6.0742c-.1372,0-.2687,.0545-.3658,.1515L.1515,5.7084c-.097,.097-.1515,.2286-.1515,.3658v7.8517c0,.1371,.0545,.2687,.1515,.3657l5.5569,5.5569c.097,.097,.2286,.1515,.3658,.1515h7.8517c.1371,0,.2687-.0545,.3657-.1515l5.5569-5.5569c.097-.097,.1515-.2286,.1515-.3657V6.0742c0-.1372-.0545-.2687-.1515-.3658Zm-.883,8.0032l-5.2539,5.2539H6.2884L1.0345,13.7116V6.2884L6.2884,1.0345h7.4232l5.2539,5.2539v7.4232Z" fill="#001531" fill-rule="evenodd"/></g></svg>