<svg width="20" height="20" viewBox="0 0 20 20" fill="none" xmlns="http://www.w3.org/2000/svg">
<g clip-path="url(#clip0_9266_239076)">
<path d="M13.2685 11.6334C14.9324 10.5535 16.0338 8.67315 16.0338 6.53426C16.0338 3.18437 13.3321 0.46875 9.99933 0.46875C6.66657 0.46875 3.96484 3.18437 3.96484 6.53426C3.96484 8.67589 5.06909 10.5583 6.73652 11.6376L6.73345 11.6376L5.69035 19.5314L10.0007 16.9319L14.311 19.5314L13.2685 11.6334Z" fill="#E8E7E9"/>
<path d="M10.0001 8.16325L9.00846 8.70841C8.67555 8.89142 8.45733 8.72485 8.52079 8.33791L8.71018 7.18325L7.90791 6.36552C7.63858 6.091 7.72265 5.8225 8.09419 5.76605L9.20289 5.59759L9.69872 4.54704C9.86518 4.19436 10.1354 4.19499 10.3015 4.54704L10.7973 5.59759L11.906 5.76605C12.2783 5.8226 12.3612 6.09149 12.0923 6.36552L11.2901 7.18325L11.4794 8.33791C11.543 8.72555 11.3241 8.89109 10.9918 8.70841L10.0001 8.16325Z" fill="#180B25"/>
<path fill-rule="evenodd" clip-rule="evenodd" d="M13.7692 11.8575C15.4227 10.6731 16.501 8.72981 16.501 6.53342C16.501 2.92511 13.5908 0 10.001 0C6.41113 0 3.50098 2.92511 3.50098 6.53342C3.50098 8.73138 4.58078 10.6758 6.23627 11.8601L5.23055 19.471C5.20702 19.6491 5.28703 19.825 5.43643 19.9236C5.58583 20.0223 5.77824 20.0262 5.93152 19.9338L10.0024 17.4787L14.0732 19.9338C14.2265 20.0262 14.4189 20.0223 14.5683 19.9237C14.7177 19.825 14.7977 19.6491 14.7742 19.471L13.7692 11.8575ZM10.001 0.935822C6.92532 0.935822 4.43201 3.44195 4.43201 6.53342C4.43201 9.62489 6.92532 12.131 10.001 12.131C11.0967 12.131 12.1185 11.813 12.9799 11.2637C13.0037 11.2447 13.0295 11.2279 13.0569 11.2137C14.5707 10.2131 15.5699 8.49056 15.5699 6.53342C15.5699 3.44195 13.0766 0.935822 10.001 0.935822ZM12.8994 12.383C12.0268 12.8206 11.0425 13.0668 10.001 13.0668C8.9609 13.0668 7.97787 12.8213 7.10615 12.3847L6.28064 18.6319L9.76286 16.5318C9.91028 16.4429 10.0944 16.4429 10.2419 16.5318L13.7242 18.632L12.8994 12.383Z" fill="#180B25"/>
</g>
<defs>
<clipPath id="clip0_9266_239076">
<rect width="20" height="20" fill="white"/>
</clipPath>
</defs>
</svg>
