<?xml version="1.0" encoding="UTF-8"?><svg id="Layer_1" xmlns="http://www.w3.org/2000/svg" viewBox="0 0 25 25"><path d="M17.8125,9.2188c0,1.9395-.6425,3.7289-1.7262,5.167l1.8165,1.8615.6318-.6314s5.1283,5.2171,5.558,5.8623c.4297.6452.4427,1.4165-.4487,2.3087-.9973.9983-2.0222.4807-2.3697.2151-.3476-.2657-3.6303-3.4969-5.6297-5.4981l.6191-.6185-1.8323-1.8336c-1.4458,1.1046-3.2525,1.7608-5.2126,1.7608C4.4725,17.8125.625,13.9649.625,9.2188S4.4725.625,9.2188.625s8.5938,3.8475,8.5938,8.5938Z" fill="#f5f7f9" stroke-width="0"/><path d="M9.2225,1.125C4.7504,1.125,1.125,4.7504,1.125,9.2225s3.6254,8.0975,8.0975,8.0975c1.8272,0,3.5117-.6046,4.8664-1.6248,1.9632-1.4785,3.2311-3.8275,3.2311-6.4727,0-4.4721-3.6254-8.0975-8.0975-8.0975ZM.125,9.2225C.125,4.1981,4.1981.125,9.2225.125s9.0975,4.0731,9.0975,9.0975c0,1.8901-.5766,3.6457-1.5631,5.1001l1.1398,1.213.2033-.2039c.2302-.2308.6311-.2648.8904.0055.6506.6782,4.9478,5.1596,5.4455,5.7377.6535.7589.6351,1.9876-.3772,3.037-.6042.6264-1.2951.8084-1.9007.754-.5768-.0519-1.0717-.3174-1.3405-.5862-.2485-.2485-4.7536-4.6536-5.4431-5.3279-.2666-.2606-.2303-.6589-.0001-.8873l.1937-.1922-1.1775-1.1618c-1.4678,1.0149-3.2491,1.6095-5.168,1.6095C4.1981,18.32.125,14.2469.125,9.2225ZM15.1873,16.0919l1.0881,1.0736.9153-.9209-1.0485-1.1158c-.294.3442-.6133.6662-.9549.9631ZM16.6334,18.2238l-.0024.0024-.2821.2799c1.1943,1.1678,4.945,4.8358,5.1757,5.0665.1001.1001.3751.266.723.2973.3191.0287.7076-.0544,1.0914-.4522.7323-.7592.5865-1.403.3391-1.6903-.4311-.5007-3.9908-4.2183-5.1409-5.418l-.2972.2981-1.6066,1.6163Z" fill="#001531" fill-rule="evenodd" stroke-width="0"/></svg>