<?xml version="1.0" encoding="UTF-8"?><svg id="Layer_1" xmlns="http://www.w3.org/2000/svg" viewBox="0 0 20 20"><path d="M18.7106,13.7892c.5078-1.1623.7894-2.4458.7894-3.7951C19.5,4.7507,15.2467.5,10,.5S.5,4.7507.5,9.9941s4.2533,9.4942,9.5,9.4942c1.3435,0,2.6219-.2787,3.7804-.7815.604.4957,1.3771.7932,2.2196.7932,1.933,0,3.5-1.566,3.5-3.4978,0-.8396-.296-1.6101-.7894-2.213Z" fill="#001531" stroke-width="0"/><path d="M18.7106,13.7892c.5078-1.1623.7894-2.4458.7894-3.7951C19.5,4.7507,15.2467.5,10,.5S.5,4.7507.5,9.9941s4.2533,9.4942,9.5,9.4942c1.3435,0,2.6219-.2787,3.7804-.7815.604.4957,1.3771.7932,2.2196.7932,1.933,0,3.5-1.566,3.5-3.4978,0-.8396-.296-1.6101-.7894-2.213Z" fill="rgba(255,255,255,.9)" stroke-width="0"/><path d="M10,1C5.0294,1,1,5.0294,1,10s4.0294,9,9,9c1.014,0,1.9881-.1675,2.8966-.4761-.5605-.6885-.8966-1.5669-.8966-2.5239,0-2.2091,1.7909-4,4-4,.957,0,1.8354.3361,2.5239.8966.3086-.9085.4761-1.8826.4761-2.8966,0-4.9706-4.0294-9-9-9ZM19.2858,13.7182c.4608-1.15.7142-2.405.7142-3.7182C20,4.4771,15.5228,0,10,0S0,4.4771,0,10s4.4771,10,10,10c1.3131,0,2.5682-.2534,3.7182-.7142.6472.4502,1.4337.7142,2.2818.7142,2.2091,0,4-1.7909,4-4,0-.8481-.264-1.6346-.7142-2.2818ZM16,13c-1.6569,0-3,1.3431-3,3s1.3431,3,3,3,3-1.3431,3-3-1.3431-3-3-3Z" fill="#001531" fill-rule="evenodd" stroke-width="0"/></svg>