<?xml version="1.0" encoding="UTF-8"?><svg id="Layer_1" xmlns="http://www.w3.org/2000/svg" viewBox="0 0 20 20"><path d="M11.7203.6087L2.33,11.203c-.1814.2046-.0342.5249.2412.5249h4.9155c.118,0,.2137.0945.2137.211v7.244c0,.2916.3657.4281.561.2092l9.4079-10.5386c.1825-.2044.0355-.5258-.2405-.5258h-4.9329c-.1181,0-.2138-.0945-.2138-.211V.8171c0-.2922-.3668-.4284-.5618-.2084Z" fill="#001531" stroke-width="0"/><path d="M11.7203.6087L2.33,11.203c-.1814.2046-.0342.5249.2412.5249h4.9155c.118,0,.2137.0945.2137.211v7.244c0,.2916.3657.4281.561.2092l9.4079-10.5386c.1825-.2044.0355-.5258-.2405-.5258h-4.9329c-.1181,0-.2138-.0945-.2138-.211V.8171c0-.2922-.3668-.4284-.5618-.2084Z" fill="rgba(255,255,255,.9)" stroke-width="0"/><path d="M11.7825,1.2924L2.9763,11.2275h4.5107c.3882,0,.7137.3124.7137.711v6.7708l8.8217-9.882h-4.5262c-.3882,0-.7137-.3123-.7137-.711V1.2924ZM7.8888,19.0588s.0002-.0002.0002-.0003l-.0002.0003ZM11.3465.2766c.491-.5539,1.436-.226,1.436.5401v7.0105h4.6466c.6949,0,1.0922.8225.6135,1.3588l-9.4078,10.5387c-.492.5512-1.4341.2224-1.4341-.5423v-6.9549H2.5715c-.6936,0-1.0913-.8197-.6154-1.3566L11.3465.2766Z" fill="#001531" fill-rule="evenodd" stroke-width="0"/></svg>