<?xml version="1.0" encoding="UTF-8"?><svg id="Layer_1" xmlns="http://www.w3.org/2000/svg" viewBox="0 0 30 30"><path d="M19.4808,21.4751c.7606-.9779,1.5212-1.9557,2.2838-2.9318v-1.7653c.0009.7339.0099,1.1309.1041,1.4616.262.9191.9876,1.6374,1.9161,1.8968.3693.1031.8208.1031,1.7239.1031s1.3547,0,1.724-.1031c.9285-.2594,1.6541-.9777,1.916-1.8968.1042-.3657.1042-.8126.1042-1.7064V5.206c0-.8938,0-1.3408-.1042-1.7063-.2619-.9192-.9875-1.6375-1.916-1.897-.3693-.103-.8209-.1032-1.724-.1032s-1.3546.0002-1.7239.1032c-.9285.2594-1.6541.9777-1.9161,1.897-.0942.3305-.1032.7276-.1041,1.4615v-.3513c-1.7263-1.7184-4.0028-2.795-6.4472-2.9294-2.6601-.1463-6.1833-.2463-8.7074.031-1.8693.2054-4.0274,1.6212-4.7924,3.6801-1.1327,3.0474-1.3602,7.4198-.6994,9.715.317,1.1008,1.0446,2.0414,2.0357,2.6309,1.0837.6447,2.5963.6447,5.7795.6447,1.4557,0,2.0603.614,1.5631,2.3842-.6705,2.3873-1.3249,6.8885,1.2387,7.6263,1.1495.3308,2.4299-.1345,3.1611-1.0583,1.5392-1.9444,3.0619-3.9019,4.5845-5.8593Z" fill="#001531" stroke-width="0"/><path d="M19.4808,21.4751c.7606-.9779,1.5212-1.9557,2.2838-2.9318v-1.7653c.0009.7339.0099,1.1309.1041,1.4616.262.9191.9876,1.6374,1.9161,1.8968.3693.1031.8208.1031,1.7239.1031s1.3547,0,1.724-.1031c.9285-.2594,1.6541-.9777,1.916-1.8968.1042-.3657.1042-.8126.1042-1.7064V5.206c0-.8938,0-1.3408-.1042-1.7063-.2619-.9192-.9875-1.6375-1.916-1.897-.3693-.103-.8209-.1032-1.724-.1032s-1.3546.0002-1.7239.1032c-.9285.2594-1.6541.9777-1.9161,1.897-.0942.3305-.1032.7276-.1041,1.4615v-.3513c-1.7263-1.7184-4.0028-2.795-6.4472-2.9294-2.6601-.1463-6.1833-.2463-8.7074.031-1.8693.2054-4.0274,1.6212-4.7924,3.6801-1.1327,3.0474-1.3602,7.4198-.6994,9.715.317,1.1008,1.0446,2.0414,2.0357,2.6309,1.0837.6447,2.5963.6447,5.7795.6447,1.4557,0,2.0603.614,1.5631,2.3842-.6705,2.3873-1.3249,6.8885,1.2387,7.6263,1.1495.3308,2.4299-.1345,3.1611-1.0583,1.5392-1.9444,3.0619-3.9019,4.5845-5.8593Z" fill="rgba(255,255,255,.9)" stroke-width="0"/><path d="M13.6765,27.6818c.4575-.2561.8146-.612,1.003-.859l.0038-.005,6.6826-8.5341c-.0473-.2044-.0725-.4215-.0748-.5935-.0438-3.2575-.0312-8.4794-.0244-11.2988.0014-.5779.0026-1.0549.003-1.3933v-.0918c-.5726-.7128-1.4084-1.3174-2.3414-1.7766-.9861-.4852-2.0476-.7917-2.9513-.8956-.9351-.1075-2.7431-.1757-4.5687-.1858-1.8288-.0102-3.623.0382-4.5369.1542-1.7608.2236-3.219,1.2075-3.9857,2.3147-.6401.9244-1.1779,2.7769-1.4471,4.8156-.2678,2.0278-.2526,4.1071.1214,5.4479.5489,1.9676,2.0059,2.9173,3.6155,3.0234.6969.0459,1.5642.063,2.2629.0685.3481.0027.6521.0025.869.0016.1084-.0004.195-.001.2543-.0015l.0679-.0007h.0035c.7174-.0636,1.4504.0548,1.963.4817.5603.4666.734,1.1925.5071,2.0431-.201.7536-.6818,2.5584-.7007,4.2534-.0095.8489.0983,1.6202.3775,2.2053.2678.5613.6923.9558,1.3794,1.1025.5444.1163,1.0633-.0223,1.517-.2763ZM8.6646,18.8718l.0203-.0002.0203-.0019c.5932-.0556,1.022.0619,1.2511.2526.1864.1552.3349.439.1808,1.0169l-.0046.0173c-.2018.7563-.7095,2.6596-.7299,4.4826-.0103.9171.1013,1.864.4749,2.6471.385.8069,1.0466,1.4306,2.0731,1.6499.8489.1813,1.6173-.0474,2.2144-.3817.5918-.3313,1.0482-.7832,1.3076-1.1224l6.3517-8.1117c.2973.4597.7484.899,1.492,1.1801.4976.1881,1.3213.2686,2.0797.2795.7638.011,1.5838-.0473,2.088-.198,1.0098-.3018,2.2543-1.3311,2.2543-3.0227,0-.5387.004-3.3836.0083-6.3411.0043-3.0684.0089-6.2581.0093-7.1197,0-.3743-.1348-.8958-.424-1.3945-.2949-.5086-.7681-1.0245-1.4727-1.3468-.6433-.2943-1.5435-.364-2.3193-.3567-.7936.0075-1.5512.0978-1.9639.1809-.5786.1165-1.0436.4383-1.3807.7857-.3346.3449-.5721.7443-.6858,1.0733-.0634.1837-.1063.3607-.1359.5267-.5895-.5344-1.2843-.9804-2.0038-1.3345-1.0825-.5327-2.2542-.874-3.2786-.9918-.993-.1142-2.8474-.1822-4.6774-.1924-1.8267-.0102-3.6814.0369-4.6684.1622-2.041.2591-3.7529,1.3958-4.6819,2.7375-.782,1.1295-1.3428,3.1826-1.6164,5.2539-.275,2.0822-.2773,4.3172.1496,5.8476.6709,2.4048,2.5099,3.6205,4.5129,3.7525.7268.0479,1.6175.0652,2.3209.0706.3529.0028.661.0026.8809.0017.11-.0004.198-.0011.2586-.0016l.0698-.0006.0247-.0003ZM22.2697,4.7757v.2235c-.0004.3404-.0016.8194-.003,1.3991-.0068,2.8214-.0194,8.0302.0243,11.2784.0022.165.0423.4003.0934.5323.212.5483.509,1.0624,1.2855,1.3559.3223.1218.9942.2043,1.7405.215.7409.0107,1.4349-.0509,1.7872-.1562.7033-.2102,1.5407-.9261,1.5407-2.0646,0-.5375.004-3.3854.0083-6.3451.0043-3.0686.0089-6.2574.0093-7.116M22.2697,4.7757c.015-.1016.0213-.2074.0259-.301.0018-.0367.0033-.0721.0048-.1073.0035-.0793.0069-.1571.0128-.2434.0166-.2397.0505-.4936.1415-.7573.0621-.1797.2174-.455.4583-.7033.2385-.2458.532-.4357.8604-.5018.3447-.0694,1.0389-.1543,1.7759-.1613.755-.0071,1.4643.0696,1.8939.2661.4843.2215.8134.5765,1.0236.9391.2158.3722.289.7223.2891.8926" fill="#001531" fill-rule="evenodd" stroke-width="0"/></svg>