<?xml version="1.0" encoding="UTF-8"?><svg id="Icon" xmlns="http://www.w3.org/2000/svg" viewBox="0 0 20 20"><path id="Solid_Fill" d="M18.9265,11.8115l-7.1099,7.11c-.1842,.1844-.403,.3307-.6437,.4305-.2408,.0998-.4989,.1511-.7595,.1511s-.5187-.0513-.7595-.1511c-.2408-.0998-.4595-.2461-.6437-.4305L.8161,10.7369c-.2074-.2072-.3239-.4883-.3239-.7814V1.6014C.4922,.9915,.9866,.4971,1.5965,.4971H9.951c.2929,0,.5738,.1164,.7809,.3235l8.1946,8.1946c.3694,.3716,.5767,.8743,.5767,1.3982s-.2073,1.0266-.5767,1.3982Z" fill="#001531"/><path id="Opacity_Fill" d="M18.9265,11.8115l-7.1099,7.11c-.1842,.1844-.403,.3307-.6437,.4305-.2408,.0998-.4989,.1511-.7595,.1511s-.5187-.0513-.7595-.1511c-.2408-.0998-.4595-.2461-.6437-.4305L.8161,10.7369c-.2074-.2072-.3239-.4883-.3239-.7814V1.6014C.4922,.9915,.9866,.4971,1.5965,.4971H9.951c.2929,0,.5738,.1164,.7809,.3235l8.1946,8.1946c.3694,.3716,.5767,.8743,.5767,1.3982s-.2073,1.0266-.5767,1.3982Z" fill="rgba(255,255,255,.9)"/><g id="Outline"><circle cx="5.6644" cy="5.5775" r="1.3158" fill="#001531"/><path d="M19.2789,8.6647L11.0832,.469c-.3003-.3003-.7076-.469-1.1323-.469H1.5964C.712,0-.0049,.7169-.0049,1.6013V9.9554c0,.425,.1689,.8326,.4697,1.133l8.194,8.1844c.2303,.2305,.5038,.4134,.8047,.5381,.3011,.1249,.6239,.1891,.9498,.1891s.6487-.0642,.9498-.1891c.3011-.1248,.5746-.3077,.805-.5383l7.1108-7.1108c.4619-.4647,.7212-1.0933,.7212-1.7486s-.2593-1.2838-.7212-1.7485Zm-.705,2.7964l-7.1091,7.1091c-.1381,.1382-.302,.2478-.4824,.3226-.1805,.0748-.3739,.1133-.5692,.1133s-.3887-.0385-.5692-.1133c-.1804-.0748-.3447-.1848-.4828-.323L1.1672,10.3852c-.1141-.114-.1782-.2686-.1782-.4298V1.6013c0-.3354,.272-.6074,.6074-.6074H9.9509c.1611,0,.3156,.064,.4294,.1779l8.1939,8.1939c.2766,.2784,.4319,.655,.4319,1.0475s-.1556,.7694-.4323,1.0479Z" fill="#001531" fill-rule="evenodd"/></g></svg>