<?xml version="1.0" encoding="UTF-8"?><svg id="Layer_1" xmlns="http://www.w3.org/2000/svg" viewBox="0 0 20 20"><path d="M8.9324,1.9548c.0953-.2731.534-.2731.6294,0,1.304,3.7356,4.2449,6.6765,7.9804,7.9805.2731.0954.2731.534,0,.6294-3.7355,1.304-6.6764,4.2449-7.9804,7.9805-.0953.2731-.534.2731-.6294,0-1.304-3.7356-4.2449-6.6765-7.9805-7.9805-.2731-.0954-.2731-.534,0-.6294,3.7356-1.304,6.6765-4.2449,7.9805-7.9805Z" fill="#001531" stroke-width="0"/><path d="M8.9324,1.9548c.0953-.2731.534-.2731.6294,0,1.304,3.7356,4.2449,6.6765,7.9804,7.9805.2731.0954.2731.534,0,.6294-3.7355,1.304-6.6764,4.2449-7.9804,7.9805-.0953.2731-.534.2731-.6294,0-1.304-3.7356-4.2449-6.6765-7.9805-7.9805-.2731-.0954-.2731-.534,0-.6294,3.7356-1.304,6.6765-4.2449,7.9805-7.9805Z" fill="rgba(255,255,255,.9)" stroke-width="0"/><path d="M17,.5c0,1.3779,1.5842,3,3,3-1.4703,0-3,1.6053-3,3,0-1.4038-1.625-3-3-3,1.4295,0,3-1.6221,3-3ZM.6293,10.6843c.0769.0286.1534.0579.2297.0878l.0325.0128c3.5734,1.4133,6.4074,4.2473,7.8207,7.8207l.0128.0325c.0299.0762.0592.1528.0878.2297.0332.0893.0656.179.0971.2692.1021.2926.5721.2926.6743,0,.0315-.0902.0639-.1799.0971-.2692.0286-.0769.0579-.1535.0878-.2297l.0128-.0325c1.4132-3.5734,4.2473-6.4074,7.8206-7.8207l.0326-.0128c.0762-.0299.1527-.0592.2296-.0878.0893-.0333.1791-.0657.2693-.0972.2926-.1021.2926-.5721,0-.6742-.0902-.0315-.18-.0639-.2693-.0971-.0769-.0286-.1534-.0579-.2296-.0878l-.0326-.0128c-3.5733-1.4133-6.4074-4.2473-7.8206-7.8207l-.0128-.0325c-.0299-.0762-.0592-.1528-.0878-.2297-.0332-.0893-.0656-.1791-.0971-.2693-.1021-.2926-.5721-.2926-.6743,0-.0315.0902-.0639.18-.0971.2693-.0286.0769-.0579.1534-.0878.2297l-.0128.0325c-1.4133,3.5734-4.2473,6.4074-7.8207,7.8207l-.0325.0128c-.0762.0299-.1528.0592-.2297.0878-.0893.0332-.1791.0656-.2693.0971-.2926.1021-.2926.5721,0,.6742.0902.0315.18.0639.2693.0972ZM9.2471,17.3286c-1.4727-3.1026-3.976-5.6059-7.0786-7.0786,3.1027-1.4727,5.6059-3.9759,7.0786-7.0786,1.4727,3.1027,3.9759,5.6059,7.0786,7.0786-3.1027,1.4727-5.6059,3.976-7.0786,7.0786Z" fill="#001531" fill-rule="evenodd" stroke-width="0"/></svg>