<?xml version="1.0" encoding="UTF-8"?><svg id="Layer_1" xmlns="http://www.w3.org/2000/svg" viewBox="0 0 20 20"><g><ellipse cx="10" cy="4.9713" rx="4.5638" ry="4.4693" fill="#001531"/><path d="M16.8172,13.4234c-.7489-.9439-1.7646-1.4742-2.8237-1.4742H6.007c-1.0591,0-2.0748,.5303-2.8237,1.4742s-1.1696,2.224-1.1696,3.5589v2.5165h15.9731v-2.5165c0-1.3349-.4207-2.615-1.1696-3.5589Z" fill="#001531"/></g><g><ellipse cx="10" cy="4.9713" rx="4.5638" ry="4.4693" fill="rgba(255,255,255,.9)"/><path d="M16.8172,13.4234c-.7489-.9439-1.7646-1.4742-2.8237-1.4742H6.007c-1.0591,0-2.0748,.5303-2.8237,1.4742s-1.1696,2.224-1.1696,3.5589v2.5165h15.9731v-2.5165c0-1.3349-.4207-2.615-1.1696-3.5589Z" fill="rgba(255,255,255,.9)"/></g><g><path d="M9.9937,9.9442c2.7727,0,5.0203-2.2261,5.0203-4.9721S12.7664,0,9.9937,0,4.9734,2.2261,4.9734,4.9721s2.2476,4.9721,5.0203,4.9721Zm0-8.9386c2.2119,0,4.005,1.7759,4.005,3.9665s-1.7931,3.9666-4.005,3.9666-4.0049-1.7759-4.0049-3.9666,1.7931-3.9665,4.0049-3.9665Z" fill="#001531"/><path d="M17.2214,13.1138c-.8293-1.0453-1.986-1.6685-3.2291-1.6685H6.0057c-1.2431,0-2.3997,.6231-3.2291,1.6685-.827,1.0424-1.2776,2.4346-1.2776,3.8674v2.5165c0,.2777,.2299,.5028,.5134,.5028s.5134-.2251,.5134-.5028v-2.5165c0-1.2369,.3909-2.4051,1.0616-3.2504,.6684-.8425,1.5432-1.2798,2.4183-1.2798h7.9866c.8751,0,1.7499,.4374,2.4183,1.2798,.6707,.8453,1.0616,2.0135,1.0616,3.2504v2.5165c0,.2777,.2298,.5028,.5134,.5028s.5134-.2251,.5134-.5028v-2.5165c0-1.4328-.4505-2.825-1.2776-3.8674Z" fill="#001531"/></g></svg>