<?xml version="1.0" encoding="UTF-8"?><svg id="Layer_1" xmlns="http://www.w3.org/2000/svg" viewBox="0 0 20 20"><path d="M4.6768,18.3411l-.8195.3841c-.8615.4036-1.8584-.2116-1.8573-1.1462l.0105-12.9369C2.0105,2.0848,3.4648.5,6.0724.5h7.8721c2.6148,0,4.0366,1.5848,4.0366,4.1421l.0189,12.9338c.0011.9357-.9958,1.5519-1.8584,1.1472l-.8131-.381c-.4891-.2301-1.0546-.2465-1.5572-.0452l-2.3148.9244c-.9328.3718-1.979.3718-2.9119-.001l-2.3106-.9234c-.5026-.2013-1.0682-.1849-1.5572.0442Z" fill="#001531" stroke-width="0"/><path d="M4.6768,18.3411l-.8195.3841c-.8615.4036-1.8584-.2116-1.8573-1.1462l.0105-12.9369C2.0105,2.0848,3.4648.5,6.0724.5h7.8721c2.6148,0,4.0366,1.5848,4.0366,4.1421l.0189,12.9338c.0011.9357-.9958,1.5519-1.8584,1.1472l-.8131-.381c-.4891-.2301-1.0546-.2465-1.5572-.0452l-2.3148.9244c-.9328.3718-1.979.3718-2.9119-.001l-2.3106-.9234c-.5026-.2013-1.0682-.1849-1.5572.0442Z" fill="rgba(255,255,255,.9)" stroke-width="0"/><path d="M4.6768,18.3411l-.8195.3841c-.8615.4036-1.8584-.2116-1.8573-1.1462l.0105-12.9369C2.0105,2.0848,3.4648.5,6.0724.5h7.8721c2.6148,0,4.0366,1.5848,4.0366,4.1421l.0189,12.9338c.0011.9357-.9958,1.5519-1.8584,1.1472l-.8131-.381c-.4891-.2301-1.0546-.2465-1.5572-.0452l-2.3148.9244c-.9328.3718-1.979.3718-2.9119-.001l-2.3106-.9234c-.5026-.2013-1.0682-.1849-1.5572.0442Z" fill="none" stroke="#001531" stroke-linecap="round" stroke-linejoin="round"/><path d="M11.9571,7.0644h-2.8367c-.843,0-1.5266.6693-1.5266,1.4956,0,.8251.6837,1.4944,1.5266,1.4944h1.7455c.8441,0,1.5279.6692,1.5279,1.4955,0,.8251-.6838,1.4944-1.5279,1.4944h-3.2722M10.0078,13.0488v1.255M10.0078,5.8027v1.2664" fill="none" stroke="#001531" stroke-linecap="round" stroke-linejoin="round" stroke-width="1.1"/></svg>