<svg id="No_Data" data-name="No Data" xmlns="http://www.w3.org/2000/svg" viewBox="0 0 20 20"><path d="M20,10A10,10,0,1,1,10,0,10,10,0,0,1,20,10Z" fill="#252a3a"/><path d="M20,10A10,10,0,1,1,10,0,10,10,0,0,1,20,10Z" fill="#fff" fill-opacity="0.9"/><path d="M2,15.6836V12.273L4.6975,8.4822a.75.75,0,0,1,.6111-.3152h9.447a.75.75,0,0,1,.616.3221L18,12.273v3.44a9.3065,9.3065,0,0,1-3.368,3.0046c-1.46.7051-1.6907.9063-4.6235,1.1791a9.7713,9.7713,0,0,1-4.6044-1.176C3.7733,17.9972,2,16.0978,2,15.6836Z" fill="#fff"/><path d="M17.75,12.2725H13.6022a.75.75,0,0,0-.75.75v.471a.75.75,0,0,1-.75.75H7.8978a.75.75,0,0,1-.75-.75v-.471a.75.75,0,0,0-.75-.75H2.25a.25.25,0,0,0-.25.25v3.0422c0,.4142,2.1741,3.1267,4.8861,3.7819a8.363,8.363,0,0,0,3.1234.5485,9.1126,9.1126,0,0,0,2.9679-.4541C15.5945,18.6285,18,16.1863,18,15.5985v-3.076A.25.25,0,0,0,17.75,12.2725Z" fill="#252a3a"/><path d="M16.7347,11.6364,14.8728,9.0076a.7352.7352,0,0,0-.6-.31H5.7269a.7347.7347,0,0,0-.5995.31L3.2653,11.6364Z" fill="#252a3a"/><path d="M2,15.5647V12.5225a.25.25,0,0,1,.25-.25H6.3978a.75.75,0,0,1,.75.75v.471a.75.75,0,0,0,.75.75h4.2044a.75.75,0,0,0,.75-.75v-.471a.75.75,0,0,1,.75-.75H17.75a.25.25,0,0,1,.25.25v3.076c0,.5878-2.4055,3.03-5.0226,3.8425a9.1126,9.1126,0,0,1-2.9679.4541,8.361,8.361,0,0,1-3.1234-.5485C4.1741,18.6914,2,15.9789,2,15.5647Z" fill="#fff" fill-opacity="0.8"/><path d="M11.0312,16.542H8.9688a.3139.3139,0,0,1-.0592-.625.3081.3081,0,0,1,.0592,0h2.0624a.3139.3139,0,0,1,.0592.625A.3081.3081,0,0,1,11.0312,16.542Z" fill="#fff"/><path d="M5.0259,8.9835a.75.75,0,0,1,.612-.3165h8.7243a.75.75,0,0,1,.6121.3165L16.875,11.667H3.125Z" fill="#fff" fill-opacity="0.9"/><path d="M10,19.75a9.7364,9.7364,0,0,0,7.875-4V12.5225a.1251.1251,0,0,0-.113-.1245h-4.16a.625.625,0,0,0-.625.625v.471a.8752.8752,0,0,1-.875.875H7.8978a.8752.8752,0,0,1-.875-.875v-.471a.625.625,0,0,0-.625-.625H2.238a.1251.1251,0,0,0-.113.1245V15.75A9.7364,9.7364,0,0,0,10,19.75Zm8.125-7.2029v2.8443a9.75,9.75,0,1,0-16.25,0V12.5225a.3707.3707,0,0,1,.0031-.0483,1,1,0,0,1,.1821-.5014L4.5956,8.41a.8751.8751,0,0,1,.713-.3677h9.447a.875.875,0,0,1,.7186.3758l2.4721,3.5588a1,1,0,0,1,.1766.5063.3814.3814,0,0,1,.0021.04ZM10,20A10,10,0,1,0,0,10,10,10,0,0,0,10,20ZM4.7993,8.5546a.625.625,0,0,1,.5093-.2626h9.447a.6251.6251,0,0,1,.5133.2684l2.4918,3.5872H13.6022a.8749.8749,0,0,0-.875.8748v.4712a.625.625,0,0,1-.625.625H7.8978a.625.625,0,0,1-.625-.625v-.471a.8749.8749,0,0,0-.8748-.875H2.2427ZM8.5514,16.641a.6118.6118,0,0,0,.4174.151h2.0624a.6118.6118,0,0,0,.4174-.151.5683.5683,0,0,0,.02-.8034h0l-.02-.02a.6124.6124,0,0,0-.4174-.1509H8.9688a.6124.6124,0,0,0-.4174.1509.5683.5683,0,0,0-.02.8034h0Zm2.48-.099H8.9688a.3139.3139,0,0,1-.0592-.625.3081.3081,0,0,1,.0592,0h2.0624a.3139.3139,0,0,1,.0592.625.3081.3081,0,0,1-.0592,0Z" fill="#252a3a" fill-rule="evenodd"/></svg>