<?xml version="1.0" encoding="UTF-8"?><svg id="Layer_1" xmlns="http://www.w3.org/2000/svg" viewBox="0 0 20 20"><path d="M.4102,10.3838c0-2.764,1.954-4.387,4.3717-4.409,0-1.7383,1.3649-5.2151,5.2179-5.2151s5.218,3.4767,5.218,5.2151c2.4177,.022,4.3706,1.645,4.3706,4.409,0,1.7878-1.0617,3.3307-2.5914,4.0225-.6529,.2602-1.2957,.3558-1.7837,.3558h-2.5615c.0156,.117,.0237,.2365,.0237,.3578,0,1.478-1.1975,2.6758-2.6767,2.6758-1.4778,0-2.6774-1.1978-2.6774-2.6758,0-.1213,.0081-.2408,.0237-.3578h-2.5665c-.4868,0-1.1286-.1-1.7726-.3613-1.5309-.6908-2.5958-2.2292-2.5958-4.017Z" fill="#001531" fill-rule="evenodd"/><path d="M.4102,10.3838c0-2.764,1.954-4.387,4.3717-4.409,0-1.7383,1.3649-5.2151,5.2179-5.2151s5.218,3.4767,5.218,5.2151c2.4177,.022,4.3706,1.645,4.3706,4.409,0,1.7878-1.0617,3.3307-2.5914,4.0225-.6529,.2602-1.2957,.3558-1.7837,.3558h-2.5615c.0156,.117,.0237,.2365,.0237,.3578,0,1.478-1.1975,2.6758-2.6767,2.6758-1.4778,0-2.6774-1.1978-2.6774-2.6758,0-.1213,.0081-.2408,.0237-.3578h-2.5665c-.4868,0-1.1286-.1-1.7726-.3613-1.5309-.6908-2.5958-2.2292-2.5958-4.017Z" fill="rgba(255,255,255,.9)" fill-rule="evenodd"/><path d="M10.0005,.3506c-2.0695,0-3.49,.9414-4.3815,2.1185-.7643,1.0092-1.1427,2.1933-1.2283,3.1132-1.1485,.0882-2.1966,.5221-2.9843,1.2733-.8792,.8384-1.4064,2.046-1.4064,3.5299,0,1.955,1.1649,3.6366,2.8376,4.3913,.2069,.0934,.4503,.0015,.5437-.2052,.0934-.2067,.0014-.4499-.2054-.5433-1.389-.6268-2.3539-2.0222-2.3539-3.6428,0-1.2801,.4497-2.2661,1.152-2.9357,.7058-.673,1.6942-1.0526,2.8125-1.0627,.2255-.002,.4072-.1853,.4072-.4106,0-.7829,.3139-1.999,1.0808-3.0117,.7542-.9959,1.9427-1.7929,3.7261-1.7929s2.972,.7969,3.7262,1.7929c.7669,1.0126,1.0808,2.2287,1.0808,3.0117,0,.2253,.1818,.4086,.4072,.4106,1.1183,.0102,2.1064,.3897,2.8119,1.0627,.702,.6696,1.1515,1.6556,1.1515,2.9358,0,1.6216-.9626,3.0211-2.3499,3.6485-.2068,.0935-.2985,.3368-.2049,.5434,.0935,.2067,.337,.2984,.5438,.2048,1.6723-.7562,2.8329-2.4427,2.8329-4.3967,0-1.4838-.527-2.6915-1.4058-3.5299-.7875-.7512-1.8354-1.1851-2.9838-1.2733-.0856-.92-.464-2.104-1.2283-3.1132-.8915-1.1771-2.312-2.1185-4.3816-2.1185Zm-2.1651,14.73c.0212-1.1605,.9577-2.0973,2.1173-2.1216,.0156,.0015,.0314,.0022,.0473,.0022,.0158,0,.0315-.0007,.0469-.0021,.5842,.0127,1.1112,.2567,1.4929,.644,.0073,.0088,.015,.0174,.0231,.0259,.0081,.0085,.0164,.0166,.0249,.0244,.3563,.3855,.5739,.901,.5739,1.4675,0,.5835-.2308,1.1129-.6062,1.5018l-.007,.0067-.0076,.0076-.0101,.0105-.0043,.0046c-.3912,.3902-.9311,.6314-1.5278,.6314-1.1789,0-2.1388-.9435-2.1633-2.1168,.0011-.0139,.0017-.0281,.0017-.0424,0-.0147-.0006-.0293-.0018-.0437Zm-.9871-.47c.0788-.4895,.2692-.9418,.5441-1.3299l-.6181-.6067c-.2024-.1986-.2053-.5236-.0065-.7259,.1988-.2022,.524-.2052,.7264-.0065l.6184,.6069c.3978-.2918,.8658-.4937,1.3738-.5757v-.8615c0-.2835,.23-.5134,.5137-.5134s.5137,.2299,.5137,.5134v.8619c.5236,.0848,1.0043,.2969,1.4094,.6035l.6263-.5966c.2053-.1956,.5305-.1878,.7262,.0174,.1958,.2052,.188,.5301-.0173,.7257l-.6262,.5964c.2601,.3794,.4403,.8178,.5164,1.291h.8681c.2837,0,.5137,.23,.5137,.5137s-.23,.5137-.5137,.5137h-.8692c-.0794,.4874-.2693,.9376-.5432,1.3242l.618,.6074c.2022,.1988,.2049,.5238,.006,.7259-.199,.2021-.5242,.2048-.7265,.006l-.6177-.6072c-.3968,.2909-.8634,.4924-1.3703,.5745v.8685c0,.2835-.23,.5133-.5137,.5133s-.5137-.2298-.5137-.5133v-.8681c-.5243-.0847-1.0059-.297-1.4118-.6042l-.6276,.5987c-.2052,.1958-.5304,.1882-.7263-.0168-.1959-.2051-.1883-.53,.0169-.7258l.6278-.5988c-.2591-.3775-.4391-.8136-.5159-1.2843h-.8647c-.2837,0-.5137-.23-.5137-.5137s.23-.5137,.5137-.5137h.8636Z" fill="#001531" fill-rule="evenodd"/></svg>