<?xml version="1.0" encoding="UTF-8"?><svg id="Layer_1" xmlns="http://www.w3.org/2000/svg" viewBox="0 0 20 20"><path d="M.0176,3.2894C.0208,1.7193,1.2068.3116,2.7462.0465,3.0619-.0087,6.7645-.0011,8.2964,0c1.5157.0011,2.8076.5464,3.8778,1.6155,2.2725,2.2701,4.5427,4.5424,6.8097,6.8169,1.3415,1.345,1.36,3.4095.0238,4.7589-1.9276,1.9476-3.8649,3.8856-5.8097,5.8149-1.347,1.3363-3.4097,1.319-4.7546-.0238-2.293-2.2886-4.5859-4.5771-6.8691-6.8754-.8832-.8894-1.4043-1.9639-1.52-3.2202C-.0386,7.8827.0154,4.1496.0176,3.2894Z" fill="#001531" fill-rule="evenodd" stroke-width="0"/><path d="M.0176,3.2894C.0208,1.7193,1.2068.3116,2.7462.0465,3.0619-.0087,6.7645-.0011,8.2964,0c1.5157.0011,2.8076.5464,3.8778,1.6155,2.2725,2.2701,4.5427,4.5424,6.8097,6.8169,1.3415,1.345,1.36,3.4095.0238,4.7589-1.9276,1.9476-3.8649,3.8856-5.8097,5.8149-1.347,1.3363-3.4097,1.319-4.7546-.0238-2.293-2.2886-4.5859-4.5771-6.8691-6.8754-.8832-.8894-1.4043-1.9639-1.52-3.2202C-.0386,7.8827.0154,4.1496.0176,3.2894Z" fill="rgba(255,255,255,.9)" fill-rule="evenodd" stroke-width="0"/><path d="M14,11l-3,3M.5167,3.6259c.0031-1.4915,1.1297-2.8289,2.5922-3.0808.2999-.0524,3.8174-.0452,5.2727-.0442,1.4399.001,2.6672.5191,3.6839,1.5347,2.1588,2.1566,4.3155,4.3153,6.4692,6.4761,1.2745,1.2778,1.292,3.2391.0226,4.5209-1.8312,1.8503-3.6717,3.6914-5.5192,5.5242-1.2797,1.2695-3.2392,1.253-4.5168-.0226-2.1783-2.1742-4.3566-4.3483-6.5257-6.5317-.8391-.8448-1.3341-1.8656-1.444-3.0591-.0883-.9539-.037-4.5003-.0349-5.3176ZM7.825,6.1666c-.004.9048-.7601,1.6487-1.674,1.6467-.9079-.002-1.6639-.7591-1.6588-1.6608.0061-.9412.751-1.675,1.6983-1.671.8987.003,1.6386.7651,1.6345,1.6851Z" fill="none" stroke="#001531" stroke-linecap="round" stroke-linejoin="round"/></svg>