<?xml version="1.0" encoding="UTF-8"?><svg id="Layer_1" xmlns="http://www.w3.org/2000/svg" viewBox="0 0 20 20"><path d="M.5,4.0001C.5,2.6194,1.6193,1.5001,3,1.5001h4.688c.953,0,1.8494.4527,2.4148,1.2199l.5415.7345c.1885.2557.4872.4066.8049.4066h5.5508c1.3807,0,2.5,1.1193,2.5,2.5v9.6389c0,1.3807-1.1193,2.5-2.5,2.5H3c-1.3807,0-2.5-1.1193-2.5-2.5V4.0001Z" fill="#001531" stroke-width="0"/><path d="M.5,4.0001C.5,2.6194,1.6193,1.5001,3,1.5001h4.688c.953,0,1.8494.4527,2.4148,1.2199l.5415.7345c.1885.2557.4872.4066.8049.4066h5.5508c1.3807,0,2.5,1.1193,2.5,2.5v9.6389c0,1.3807-1.1193,2.5-2.5,2.5H3c-1.3807,0-2.5-1.1193-2.5-2.5V4.0001Z" fill="rgba(255,255,255,.9)" stroke-width="0"/><path d="M3,2.0001h4.688c.7942,0,1.5412.3773,2.0124,1.0166l.5414.7345c.2827.3836.7309.61,1.2074.61h5.5508c1.1046,0,2,.8954,2,2v9.6389c0,1.1045-.8954,2-2,2H3c-1.1046,0-2-.8955-2-2V4.0001c0-1.1046.8954-2,2-2ZM7.688,1H3c-1.6568,0-3,1.3432-3,3.0001v11.9999c0,1.6568,1.3431,3,3,3h14c1.6569,0,3-1.3432,3-3V6.3611c0-1.6569-1.3431-3-3-3h-5.5508c-.1588,0-.3082-.0755-.4025-.2033l-.5414-.7345c-.6597-.895-1.7055-1.4233-2.8173-1.4233ZM10,16.25c-2.7569,0-5-2.2427-5-5,0-.7689.1745-1.4978.4859-2.1492.0137-.046.0351-.0887.0628-.1266.8295-1.6159,2.5135-2.7242,4.4514-2.7242s3.6224,1.1085,4.4518,2.7248c.0273.0376.0485.0799.0621.1255.3116.6515.4861,1.3806.4861,2.1497,0,2.7573-2.2427,5-5,5ZM13.839,9.6388h-1.6175c.0575.3768.095.7763.11,1.1934h1.7816c.0099,0,.0198.0004.0295.0011-.0418-.4195-.1462-.8208-.3036-1.1945ZM13.3659,8.8021h-1.3142c-.1453-.5632-.341-1.0527-.5761-1.4455.7618.2897,1.4174.7969,1.8903,1.4455ZM6.6342,8.8021c.4729-.6485,1.1284-1.1557,1.8902-1.4454-.2351.3927-.4309.8823-.5761,1.4454h-1.314ZM10,7.1775c-.3771,0-.8458.5862-1.1507,1.6246h2.3013c-.3049-1.0384-.7736-1.6246-1.1506-1.6246ZM11.3404,9.6388h-2.6809c-.061.3635-.103.7624-.1196,1.1934h2.9202c-.0166-.431-.0586-.8299-.1197-1.1934ZM6.1611,9.6388h1.6174c-.0575.3768-.095.7763-.11,1.1934h-1.7816c-.0099,0-.0198.0004-.0295.0011.0419-.4195.1463-.8208.3037-1.1945ZM5.8869,11.669h1.7817c.0151.4171.0526.8166.1102,1.1934h-1.6172c-.1576-.3737-.2621-.775-.3041-1.1945.0097.0007.0195.0011.0293.0011ZM8.6597,12.8624c-.0611-.3634-.1031-.7624-.1198-1.1934h2.9201c-.0166.431-.0587.83-.1198,1.1934h-2.6805ZM12.2212,12.8624c.0576-.3768.0951-.7763.1102-1.1934h1.7817c.0099,0,.0197-.0004.0294-.0011-.042.4195-.1466.8208-.3041,1.1945h-1.6172ZM10,15.3224c-.3769,0-.8453-.5857-1.1502-1.6233h2.3004c-.3049,1.0376-.7733,1.6233-1.1502,1.6233ZM6.6352,13.6991h1.3136c.1453.5627.341,1.0518.5761,1.4442-.7615-.2894-1.4168-.7962-1.8897-1.4442ZM12.0512,13.6991c-.1454.5627-.3411,1.0519-.5762,1.4443.7616-.2895,1.4169-.7963,1.8899-1.4443h-1.3137Z" fill="#001531" fill-rule="evenodd" stroke-width="0"/></svg>