<svg width="20" height="20" viewBox="0 0 20 20" fill="none" xmlns="http://www.w3.org/2000/svg">
<path d="M2.51074 17.4326V2.56782C2.51074 1.39829 3.45884 0.450195 4.62837 0.450195H12.4173L17.4894 5.69009L17.4892 17.4326C17.4891 18.6021 16.541 19.5502 15.3715 19.5502H4.62837C3.45884 19.5502 2.51074 18.6021 2.51074 17.4326Z" fill="#E8E7E9"/>
<path fill-rule="evenodd" clip-rule="evenodd" d="M9.2972 6.53451C9.57334 6.53451 9.7972 6.75836 9.7972 7.03451V7.74707H11.6034C11.8795 7.74707 12.1034 7.97093 12.1034 8.24707C12.1034 8.52321 11.8795 8.74707 11.6034 8.74707H9.7972V10.8415H10.4983C11.0412 10.8415 11.5619 11.0572 11.9459 11.4411C12.3298 11.825 12.5455 12.3457 12.5455 12.8887C12.5455 13.4316 12.3298 13.9523 11.9459 14.3363C11.5619 14.7202 11.0412 14.9359 10.4983 14.9359H9.7972V15.9557C9.7972 16.2318 9.57334 16.4557 9.2972 16.4557C9.02106 16.4557 8.7972 16.2318 8.7972 15.9557V14.9359H6.74078C6.46463 14.9359 6.24078 14.712 6.24078 14.4359C6.24078 14.1597 6.46463 13.9359 6.74078 13.9359H8.7972V11.8415H8.28798C7.74503 11.8415 7.22431 11.6258 6.84039 11.2419C6.45646 10.8579 6.24078 10.3372 6.24078 9.79427C6.24078 9.25132 6.45646 8.73061 6.84039 8.34668C7.22431 7.96276 7.74503 7.74707 8.28798 7.74707H8.7972V7.03451C8.7972 6.75836 9.02106 6.53451 9.2972 6.53451ZM8.28798 8.74707H8.7972V10.8415H8.28798C8.01024 10.8415 7.74388 10.7311 7.54749 10.5348C7.35111 10.3384 7.24078 10.072 7.24078 9.79427C7.24078 9.51654 7.35111 9.25018 7.54749 9.05379C7.74388 8.8574 8.01024 8.74707 8.28798 8.74707ZM9.7972 13.9359V11.8415H10.4983C10.776 11.8415 11.0424 11.9518 11.2387 12.1482C11.4351 12.3446 11.5455 12.6109 11.5455 12.8887C11.5455 13.1664 11.4351 13.4328 11.2387 13.6292C11.0424 13.8255 10.776 13.9359 10.4983 13.9359H9.7972Z" fill="#180B25"/>
<path fill-rule="evenodd" clip-rule="evenodd" d="M1.99902 2.5479C1.99902 1.14073 3.13976 0 4.54692 0H12.4903C12.6053 0 12.7154 0.0466585 12.7954 0.129303L17.8809 5.3831C17.9576 5.46231 18.0005 5.56822 18.0005 5.67845L18.0003 17.4521C18.0002 18.8593 16.8595 20 15.4524 20H4.54692C3.13975 20 1.99902 18.8593 1.99902 17.4521V2.5479ZM4.54692 0.849298C3.60881 0.849298 2.84832 1.60979 2.84832 2.5479V17.4521C2.84832 18.3902 3.60881 19.1507 4.54692 19.1507H15.4524C16.3905 19.1507 17.151 18.3902 17.151 17.4521L17.1512 6.1031H13.5519C12.7311 6.1031 12.0657 5.43767 12.0657 4.61682V0.849298H4.54692ZM12.915 1.47391L16.5738 5.2538H13.5519C13.2002 5.2538 12.915 4.96861 12.915 4.61682V1.47391Z" fill="#180B25"/>
</svg>
