<svg id="Restore_Folder" data-name="Restore Folder" xmlns="http://www.w3.org/2000/svg" viewBox="0 0 20 20"><path d="M2.1663,2.0254H7.4236a1.7863,1.7863,0,0,1,1.3475.74l1.2322,1.12H17.826a1.7567,1.7567,0,0,1,1.7434,1.77V16.2026a1.7569,1.7569,0,0,1-1.7407,1.7718H2.1713A1.7541,1.7541,0,0,1,.4307,16.2069h0V3.7931A1.7557,1.7557,0,0,1,2.1663,2.0254Z" fill="#252a3a"/><path d="M2.1663,2.0254H7.4236a1.7863,1.7863,0,0,1,1.3475.74l1.2322,1.12H17.826a1.7567,1.7567,0,0,1,1.7434,1.77V16.2026a1.7569,1.7569,0,0,1-1.7407,1.7718H2.1713A1.7541,1.7541,0,0,1,.4307,16.2069h0V3.7931A1.7557,1.7557,0,0,1,2.1663,2.0254Z" fill="#fff" fill-opacity="0.9"/><g id="Lines"><path d="M17.8259,3.4554H10.17L9.0992,2.4821a2.1228,2.1228,0,0,0-.7126-.6174,2.0588,2.0588,0,0,0-.963-.27H2.1663A2.1863,2.1863,0,0,0,0,3.7931V16.2066a2.1846,2.1846,0,0,0,2.1708,2.1983H17.8287A2.1874,2.1874,0,0,0,20,16.2025V5.6578a2.1875,2.1875,0,0,0-2.1723-2.2024Zm1.3129,12.7471a1.3263,1.3263,0,0,1-1.31,1.3412H2.1713a1.3234,1.3234,0,0,1-1.31-1.3367h0V3.7931A1.3251,1.3251,0,0,1,2.1663,2.456H7.4236a1.21,1.21,0,0,1,.5483.1636,1.2328,1.2328,0,0,1,.4369.379l.0306.0477,1.3974,1.27h7.9891a1.3261,1.3261,0,0,1,1.3129,1.3392v10.547Z" fill="#252a3a"/><path d="M11.5415,6.8969a4.705,4.705,0,0,0-3.1826.1765,4.6093,4.6093,0,0,0-1.4606.9851V7.4736a.5483.5483,0,0,0-1.0964,0V9.6142a.5229.5229,0,0,0,.1613.3786.5531.5531,0,0,0,.3892.1571H8.5405a.5359.5359,0,0,0,.03-1.0714H7.8126A3.2219,3.2219,0,0,1,8.91,8.3115a3.2927,3.2927,0,0,1,2.2277-.1236,3.2154,3.2154,0,0,1,1.7762,1.32,3.0921,3.0921,0,0,1,.4734,2.1309A3.13,3.13,0,0,1,12.3312,13.56a3.2809,3.2809,0,0,1-4.1863.0714,3.1565,3.1565,0,0,1-.9292-1.2286.83.83,0,0,0-.87-.5387.6131.6131,0,0,0-.5087.79,4.5,4.5,0,0,0,1.429,2.0188,4.6869,4.6869,0,0,0,5.98-.102,4.4714,4.4714,0,0,0,1.5087-2.744,4.4178,4.4178,0,0,0-.6763-3.0442A4.5941,4.5941,0,0,0,11.5415,6.8969Z" fill="#252a3a"/></g></svg>