<?xml version="1.0" encoding="UTF-8"?><svg id="Layer_1" xmlns="http://www.w3.org/2000/svg" viewBox="0 0 20 20"><path d="M2.54,10.4363L6.6863.8982c.0931-.2392.3345-.3982.6048-.3982h5.5585c.4445,0,.7554.4145.6073.8097l-2.4582,5.439c-.1481.3952.1628.8097.6074.8097h5.2486c.5537,0,.8493.6149.4845,1.0075l-9.9655,10.7239c-.449.4832-1.2825.0641-1.107-.5567l1.8997-6.7165c.109-.3856-.1992-.7638-.6224-.7638H3.1448c-.4478,0-.759-.4201-.6048-.8165Z" fill="#001531" stroke-width="0"/><path d="M2.54,10.4363L6.6863.8982c.0931-.2392.3345-.3982.6048-.3982h5.5585c.4445,0,.7554.4145.6073.8097l-2.4582,5.439c-.1481.3952.1628.8097.6074.8097h5.2486c.5537,0,.8493.6149.4845,1.0075l-9.9655,10.7239c-.449.4832-1.2825.0641-1.107-.5567l1.8997-6.7165c.109-.3856-.1992-.7638-.6224-.7638H3.1448c-.4478,0-.759-.4201-.6048-.8165Z" fill="rgba(255,255,255,.9)" stroke-width="0"/><path d="M2.54,10.4363L6.6863.8982c.0931-.2392.3345-.3982.6048-.3982h5.5585c.4445,0,.7554.4145.6073.8097l-2.4582,5.439c-.1481.3952.1628.8097.6074.8097h5.2486c.5537,0,.8493.6149.4845,1.0075l-9.9655,10.7239c-.449.4832-1.2825.0641-1.107-.5567l1.8997-6.7165c.109-.3856-.1992-.7638-.6224-.7638H3.1448c-.4478,0-.759-.4201-.6048-.8165Z" fill="none" stroke="#001531" stroke-linecap="round" stroke-linejoin="round"/></svg>