<?xml version="1.0" encoding="UTF-8"?><svg id="Layer_1" xmlns="http://www.w3.org/2000/svg" viewBox="0 0 20 20"><path d="M10.0637,.0997c.0033,0,.0066-.0001,.0099-.0001,.0824,0,.1653,.0099,.2463,.0301l.0026,.0007c.0431,.0111,.0812,.0244,.1144,.0376,.0487,.0177,.0919,.039,.1298,.0609l.0175,.0102,7.5239,4.0725c.1335,.0723,.2146,.2139,.2094,.3656l-.2006,5.7982c-.0002,.0066-.0006,.0133-.0012,.0199-.2385,2.8116-1.7389,5.3633-4.0791,6.939-.0001,0,.0001-.0001,0,0l-3.3639,2.2741-.0025,.0021c-.0111,.0089-.0226,.0172-.0345,.0249-.0126,.0081-.0273,.0171-.0437,.0261-.0304,.0198-.061,.0347-.0902,.0458-.0145,.0062-.0309,.0127-.049,.0188-.0234,.0097-.0455,.0177-.066,.0245l-.01,.0034-.02,.0059-.0023,.0007c-.0414,.0123-.084,.0215-.1276,.027-.0491,.0079-.0992,.012-.15,.0118h-.0012c-.0532,.0008-.1063-.0032-.1585-.0117-.0418-.0053-.0845-.0141-.1274-.0271l-.0182-.0053c-.0069-.002-.0139-.0042-.0207-.0066l-.002-.0007c-.0148-.0052-.0456-.016-.0785-.0309-.0173-.0074-.0332-.0151-.0479-.0229-.0229-.0102-.0437-.0216-.0624-.0336-.0208-.0112-.0403-.0233-.0586-.0359-.0053-.0036-.0105-.0074-.0155-.0113l-.0072-.0055-3.3678-2.2768s.0001,0,0,0c-2.3403-1.5758-3.84-4.1277-4.0786-6.9392l-.0008-.0091-.3541-5.7139c-.0096-.1555,.0718-.3024,.2088-.3765L9.563,.2378l.0171-.0096c.0397-.0228,.082-.0426,.1254-.0587,.0365-.0146,.074-.027,.1115-.0371l.0068-.0018c.0748-.0187,.1557-.0304,.24-.0309Zm.4099,18.7778l3.1153-2.1061c2.1367-1.4385,3.5081-3.7675,3.7288-6.3337l.1917-5.5404L10.4736,1.089V18.8775ZM9.6701,1.0895L2.4918,4.9744l.3381,5.4544c.2193,2.5685,1.5897,4.8993,3.7278,6.3388l3.1123,2.1041V1.0895Z" fill="#180b25" fill-rule="evenodd"/></svg>