<svg id="Layer_1" data-name="Layer 1" xmlns="http://www.w3.org/2000/svg" viewBox="0 0 20 20"><path d="M18.56,4.8291A10,10,0,1,0,6.1739,19.2367l.1247-.2975-.1234.298H6.1746a9.8233,9.8233,0,0,0,3.826.763A9.9993,9.9993,0,0,0,20,10.0012V9.96A9.998,9.998,0,0,0,18.56,4.8291ZM10,19.3548H9.999a9.1755,9.1755,0,0,1-3.5757-.7131l-.0012-.0006A9.3538,9.3538,0,1,1,19.3547,9.9619v.0393A9.3543,9.3543,0,0,1,10,19.3548Z" fill="#252a3a" fill-rule="evenodd"/><path d="M13.6265,12.221a2.1673,2.1673,0,0,0-2.4566.7306l-3.659-2.15A2.1737,2.1737,0,0,0,7.5186,9.22l3.6872-2.1241a2.16,2.16,0,1,0-.33-.5724L7.1891,8.6478a2.1651,2.1651,0,1,0-.0133,2.7213l3.68,2.1625a2.1673,2.1673,0,1,0,2.7707-1.3106ZM12.1672,4.4246a1.5057,1.5057,0,0,1,.7282-.1881h0A1.5054,1.5054,0,1,1,11.6029,6.514l-.0115-.0217-.0132-.0211a1.5059,1.5059,0,0,1,.589-2.0466Zm-5.37,6.3365-.0013.0023-.001.0017a1.5584,1.5584,0,1,1,.0023-.004Zm7.3862,4.23a1.4939,1.4939,0,0,1-2.6347-1.4071h0l.0128-.02a.3263.3263,0,0,0,.0225-.046,1.4939,1.4939,0,0,1,2.5994,1.4732h0Z" fill="#252a3a" fill-rule="evenodd"/></svg>