<svg id="Console" xmlns="http://www.w3.org/2000/svg" viewBox="0 0 20 20"><path d="M18.56,4.8291A9.9981,9.9981,0,0,0,.686,13.6328l-.0037.0037.0828.1993a9.9406,9.9406,0,0,0,.4587.95c.0311.057.0683.1105.1005.167a9.9972,9.9972,0,0,0,.5541.862c.0337.047.059.099.0935.1455.0358.0481.08.0889.1164.1363a9.9623,9.9623,0,0,0,.6478.7591c.0515.0546.0986.1132.1513.1665a9.9806,9.9806,0,0,0,.8862.7923c.0842.0671.1727.1277.2591.1921q.3636.2708.7513.5085c.1043.0638.2073.1282.314.1883A10.006,10.006,0,0,0,6.12,19.21c.0185.0078.0353.019.0539.0267v-.001l.0012.0006v.0009H6.1745l.02.0073.1819.0752.007-.0069A9.8182,9.8182,0,0,0,10.0006,20,9.9994,9.9994,0,0,0,20,10.0012V9.96A9.999,9.999,0,0,0,18.56,4.8291Zm-6.0947,7.4782-.15.15a3.3735,3.3735,0,0,1-.3436.2819,3.329,3.329,0,0,1-1.95.65A3.3782,3.3782,0,0,1,6.6435,10.011h0V9.9973a3.3087,3.3087,0,0,1,.9091-2.3179l-.0111-.0108.1423-.1422a3.3808,3.3808,0,0,1,4.7963,4.766l-.0149.0149Zm-6.26-.7a3.9812,3.9812,0,0,0,4.59,2.3821l-4.56,4.5593a9.3341,9.3341,0,0,1-.8756-.4338c-.0747-.0427-.1456-.0908-.219-.1355q-.3844-.2341-.7443-.5037c-.0774-.058-.1559-.1144-.2314-.1746a9.358,9.358,0,0,1-.8193-.7325c-.0439-.0444-.0834-.0929-.1264-.1382a9.3526,9.3526,0,0,1-.6229-.73c-.0582-.0755-.1168-.1505-.1727-.2278a9.3817,9.3817,0,0,1-.6054-.9418c-.0168-.03-.03-.063-.0468-.0936-.1166-.2162-.2116-.4422-.3107-.6664L5.9866,9.2453a3.97,3.97,0,0,0,.2183,2.3618Zm13.15-1.6059A9.3543,9.3543,0,0,1,10,19.3548H9.999a9.1671,9.1671,0,0,1-3.112-.5455l5.8974-5.8967-.0061-.006.1431-.1431A4.0261,4.0261,0,0,0,7.2274,7.07h0l-.15.15c-.0377.0377-.0647.0838-.1008.1229l-5.78,5.7791a9.3477,9.3477,0,1,1,18.1577-3.16Z" fill="#252a3a" fill-rule="evenodd"/></svg>