<svg xmlns="http://www.w3.org/2000/svg" viewBox="0 0 20.0001 20"><g id="Layer_2" data-name="Layer 2"><g id="Layer_1-2" data-name="Layer 1"><path d="M10,7.1364A2.8632,2.8632,0,1,0,12.863,10,2.8632,2.8632,0,0,0,10,7.1364Zm0,5.06A2.1965,2.1965,0,1,1,12.1963,10,2.1964,2.1964,0,0,1,10,12.196Z" fill="#001531" fill-rule="evenodd"/><path d="M16.6266,7.55A7.0621,7.0621,0,0,0,15.44,5.484a.3332.3332,0,0,0-.3706-.1l-1.6839.6145A5.2318,5.2318,0,0,0,11.7712,5.06l-.3075-1.7528a.3332.3332,0,0,0-.2724-.271,6.6408,6.6408,0,0,0-2.3823,0,.3332.3332,0,0,0-.2725.271L8.229,5.06a5.2341,5.2341,0,0,0-1.6147.9382L4.9305,5.3839a.3332.3332,0,0,0-.3706.1A7.06,7.06,0,0,0,3.3736,7.55a.3334.3334,0,0,0,.0986.3712L4.8388,9.0657a5.1159,5.1159,0,0,0,0,1.8682L3.4722,12.0785a.3332.3332,0,0,0-.0986.3711A7.0611,7.0611,0,0,0,4.56,14.5156a.3332.3332,0,0,0,.3706.1l1.6838-.6144A5.2358,5.2358,0,0,0,8.229,14.94l.3075,1.7528a.3332.3332,0,0,0,.2725.271,6.6408,6.6408,0,0,0,2.3823,0,.3332.3332,0,0,0,.2724-.271l.3075-1.7528a5.2335,5.2335,0,0,0,1.6147-.9381l1.6839.6144a.3334.3334,0,0,0,.3706-.1,7.0608,7.0608,0,0,0,1.1862-2.066.3333.3333,0,0,0-.0985-.3711l-1.3667-1.1446a5.1159,5.1159,0,0,0,0-1.8682l1.3667-1.1445A.3335.3335,0,0,0,16.6266,7.55ZM14.5814,8.6819a.3333.3333,0,0,0-.1114.3274,4.4867,4.4867,0,0,1,0,1.981.3335.3335,0,0,0,.1114.3275l1.3352,1.1181a6.3887,6.3887,0,0,1-.8434,1.4715l-1.6449-.6a.3332.3332,0,0,0-.3393.0673,4.57,4.57,0,0,1-1.7121.9945.3334.3334,0,0,0-.2282.26l-.3,1.7126a5.8052,5.8052,0,0,1-1.6964,0l-.3-1.7126a.3331.3331,0,0,0-.2281-.26,4.5691,4.5691,0,0,1-1.712-.9945.3336.3336,0,0,0-.34-.0673l-1.6447.6a6.3923,6.3923,0,0,1-.8434-1.4715l1.3351-1.1181A.3333.3333,0,0,0,5.53,10.99a4.4867,4.4867,0,0,1,0-1.981.333.333,0,0,0-.1114-.3274L4.0837,7.5637A6.3913,6.3913,0,0,1,4.927,6.0923l1.6448.6a.3336.3336,0,0,0,.34-.0674,4.5681,4.5681,0,0,1,1.7119-.9945.333.333,0,0,0,.2282-.26l.3-1.7127a5.8052,5.8052,0,0,1,1.6964,0l.3,1.7127a.333.333,0,0,0,.2284.26,4.5685,4.5685,0,0,1,1.7118.9945.3337.3337,0,0,0,.34.0674l1.6447-.6a6.399,6.399,0,0,1,.8434,1.4714Z" fill="#001531" fill-rule="evenodd"/><path d="M20,9.96A10,10,0,1,0,6.1746,19.237,9.8224,9.8224,0,0,0,10.0005,20a10,10,0,0,0,10-9.9988v-.04Zm-.6452.0412A9.3543,9.3543,0,0,1,10,19.3548H9.999a9.1755,9.1755,0,0,1-3.5757-.7131l-.0012-.0006A9.3537,9.3537,0,1,1,19.3547,9.9619Z" fill="#001531" fill-rule="evenodd"/></g></g></svg>