<svg xmlns="http://www.w3.org/2000/svg" viewBox="0 0 20 20"><g id="Layer_2" data-name="Layer 2"><g id="Layer_1-2" data-name="Layer 1"><path d="M16.0873,8.1059H10.7542l1.5031-4.8178a.3334.3334,0,0,0-.5532-.3357L3.6778,10.93a.3334.3334,0,0,0,.235.57H8.9665l-1.63,5.213a.3333.3333,0,0,0,.553.336l8.4331-8.3726a.3333.3333,0,0,0-.2348-.57ZM8.3738,15.6277l1.3643-4.3621a.3334.3334,0,0,0-.3181-.4329H4.721L11.22,4.373,9.9827,8.34a.3333.3333,0,0,0,.3182.4326h4.9775Z" fill="#001531" fill-rule="evenodd"/><path d="M10,0A10,10,0,1,0,20,10,10,10,0,0,0,10,0Zm0,19.3548A9.3549,9.3549,0,1,1,19.3548,10,9.3548,9.3548,0,0,1,10,19.3548Z" fill="#001531" fill-rule="evenodd"/></g></g></svg>