<svg id="Layer_1" data-name="Layer 1" xmlns="http://www.w3.org/2000/svg" viewBox="0 0 20 20"><path d="M10,0A10,10,0,1,0,20,10,10,10,0,0,0,10,0Zm0,19.3548A9.3549,9.3549,0,1,1,19.3548,10v0A9.3548,9.3548,0,0,1,10,19.3548Z" fill="#252a3a" fill-rule="evenodd"/><path d="M13.0721,5.1594a6.018,6.018,0,0,0-2.4783-.7041l1.32-1.0782a.3227.3227,0,1,0-.4082-.5L9.1927,4.767l1.8892,2.3169a.3226.3226,0,1,0,.5-.4078l-1.2883-1.58A5.3676,5.3676,0,1,1,4.865,10.967a.3226.3226,0,0,0-.6429.0547l.0006.0061a6.0208,6.0208,0,1,0,8.8494-5.8684Z" fill="#252a3a" fill-rule="evenodd"/><path d="M8.26,12.8476a3.0815,3.0815,0,0,0,4.98-1.7832.3226.3226,0,0,0-.6329-.1252,2.4364,2.4364,0,0,1-4.78,0,.3226.3226,0,0,0-.6329.1252A3.0811,3.0811,0,0,0,8.26,12.8476Z" fill="#252a3a" fill-rule="evenodd"/></svg>