<svg id="Layer_1" data-name="Layer 1" xmlns="http://www.w3.org/2000/svg" viewBox="0 0 20 20"><path d="M18.6651,5.02h0a.3222.3222,0,0,0-.5066-.0677l-8.18,8.1306L1.842,4.9532a.3227.3227,0,0,0-.5075.0671,10,10,0,1,0,17.3306,0Zm-.5662,9.665h0A9.3529,9.3529,0,0,1,1.6905,5.7138l8.06,8.053a.3225.3225,0,0,0,.4554.0006l8.1035-8.0546a9.3409,9.3409,0,0,1-.21,8.9725Z" fill="#252a3a" fill-rule="evenodd"/><path d="M3.3471,2.9753,9.7429,9.3666a.3225.3225,0,0,0,.456,0l6.3958-6.3913a.3225.3225,0,0,0,.0006-.4561h0l-.0148-.0139a9.97,9.97,0,0,0-13.2192,0,.3225.3225,0,0,0-.0281.4552ZM9.9709.6451a9.3242,9.3242,0,0,1,5.9207,2.1207L9.9709,8.6824,4.05,2.7658A9.3242,9.3242,0,0,1,9.9709.6451Z" fill="#252a3a" fill-rule="evenodd"/></svg>