<svg id="Layer_1" data-name="Layer 1" xmlns="http://www.w3.org/2000/svg" viewBox="0 0 20 20"><path d="M5.8109,3.6646,4.2816,7.9935A.217.217,0,0,0,4.469,8.29H6.621a.2019.2019,0,0,0,.1877-.141l.62-1.7788a.6735.6735,0,0,1,.6257-.47h5.777a.1947.1947,0,0,0,.1529-.0768l1.6992-2.1728a.2208.2208,0,0,0-.1529-.36h-9.22A.5386.5386,0,0,0,5.8109,3.6646ZM8.37,7.362,5.1906,16.4083a.2043.2043,0,0,0,.3405.22l5.27-6.7441a.1947.1947,0,0,1,.1529-.077h2.71a.1943.1943,0,0,0,.1529-.0769L15.4962,7.582a.2208.2208,0,0,0-.1529-.36H8.5573A.2021.2021,0,0,0,8.37,7.362Z" fill="#252a3a" fill-rule="evenodd"/><path d="M6.31,3.5826a.2691.2691,0,0,0-.25.1868l-1.4943,4.23h2.009l.6038-1.7319A.9431.9431,0,0,1,8.0544,5.61h5.7461l1.5854-2.0271ZM5.5609,3.56A.8076.8076,0,0,1,6.31,3h9.22a.5152.5152,0,0,1,.3567.84L14.1881,6.0129a.454.454,0,0,1-.3567.1794H8.0544a.404.404,0,0,0-.3754.2819l-.62,1.7789a.4714.4714,0,0,1-.4379.3289H4.4689a.5061.5061,0,0,1-.4373-.6927ZM8.12,7.2583a.4711.4711,0,0,1,.4375-.3277h6.7862a.5153.5153,0,0,1,.3568.84l-.2039-.1888.2039.1888-1.68,2.1484a.4537.4537,0,0,1-.3568.1794H10.9852l-5.25,6.7185a.4766.4766,0,0,1-.7943-.5124Zm.4835.2549L5.58,16.1158l5.0175-6.4205a.4535.4535,0,0,1,.3568-.1795h2.6789l1.5655-2.0026ZM8.62,7.4666h0L8.5572,7.44l.0625.026Z" fill="#252a3a" fill-rule="evenodd"/></svg>