<?xml version="1.0" encoding="UTF-8"?><svg id="Layer_1" xmlns="http://www.w3.org/2000/svg" viewBox="0 0 20 20"><path d="M.001,.7898C.001,.5548,.1915,.3643,.4265,.3643H19.5754c.2351,0,.4256,.1905,.4256,.4255V6.8477c0,.0277-.0027,.0548-.0077,.081,.005,.0262,.0077,.0533,.0077,.081v6.0579c0,.0142-.0007,.0282-.0021,.042,.0014,.0139,.0021,.0279,.0021,.0421v6.0579c0,.235-.1905,.4255-.4256,.4255H.4265C.1915,19.6351,.001,19.4446,.001,19.2096v-6.0579c0-.0142,.0007-.0282,.0021-.0421-.0014-.0138-.0021-.0278-.0021-.042V7.0097c0-.0277,.0026-.0548,.0077-.081-.0051-.0262-.0077-.0533-.0077-.081V.7898ZM19.1499,6.4221H.852V1.2153H19.1499V6.4221ZM.852,7.4352v5.2068H19.1499V7.4352H.852Zm0,6.142v5.2068H19.1499v-5.2068H.852Z" fill="#180b25" fill-rule="evenodd"/></svg>