<svg id="Layer_1" data-name="Layer 1" xmlns="http://www.w3.org/2000/svg" viewBox="0 0 20 20"><path d="M10,0A10,10,0,1,0,20,10,10,10,0,0,0,10,0Zm0,19.3548A9.3549,9.3549,0,1,1,19.3548,10v0A9.3548,9.3548,0,0,1,10,19.3548Z" fill="#252a3a" fill-rule="evenodd"/><path d="M13.229,4.838H6.7755A1.396,1.396,0,0,0,5.38,6.234v.0042a1.396,1.396,0,0,0,1.396,1.396h6.453a1.396,1.396,0,0,0,1.396-1.396V6.234A1.396,1.396,0,0,0,13.229,4.838Zm.75,1.396v.004a.7507.7507,0,0,1-.75.7508H6.7755a.7508.7508,0,0,1-.7508-.7506V6.234a.7508.7508,0,0,1,.7506-.7508h6.4532a.7508.7508,0,0,1,.7508.7506Z" fill="#252a3a" fill-rule="evenodd"/><path d="M6.776,11.3959h6.453A1.3959,1.3959,0,0,0,14.6245,10V9.9954a1.396,1.396,0,0,0-1.396-1.396H6.7755A1.396,1.396,0,0,0,5.38,9.9954V10A1.3961,1.3961,0,0,0,6.776,11.3959Zm-.7513-1.4a.7508.7508,0,0,1,.7507-.7509h6.4531a.7508.7508,0,0,1,.7508.7508v.0041a.7508.7508,0,0,1-.7508.7508H6.7755A.7508.7508,0,0,1,6.0247,10Z" fill="#252a3a" fill-rule="evenodd"/><path d="M13.2288,12.36H6.7755A1.396,1.396,0,0,0,5.38,13.756v.004a1.3962,1.3962,0,0,0,1.396,1.3959h6.453A1.3961,1.3961,0,0,0,14.625,13.76v-.0042A1.396,1.396,0,0,0,13.2288,12.36Zm.7505,1.3958V13.76a.7508.7508,0,0,1-.7508.7508H6.7755a.7507.7507,0,0,1-.7508-.7506v-.0044a.7507.7507,0,0,1,.75-.7509h6.4533a.7509.7509,0,0,1,.7508.7508Z" fill="#252a3a" fill-rule="evenodd"/></svg>