<svg id="Layer_1" data-name="Layer 1" xmlns="http://www.w3.org/2000/svg" viewBox="0 0 20 20"><path d="M18.1415,12.721A8.3651,8.3651,0,0,0,11.73,6.471a3.4373,3.4373,0,1,0-3.4623,0,8.3653,8.3653,0,0,0-6.41,6.2494v.0007A1.8522,1.8522,0,0,0,3.671,14.9824h.9279v.0137a.5669.5669,0,0,0,.5249.5657l.5462.0439c.0142.059.03.12.0478.1793l.0337.1094v.0013c.0063.0208.0131.04.0175.0528l.001.0015.0093.0273.0031.01a4.1679,4.1679,0,0,0,.181.4528l.0015.0031c.07.1449.1472.2889.2322.4279L5.839,17.29l-.0037.0046a.5717.5717,0,0,0,.0355.767l.5817.5817a.5661.5661,0,0,0,.7728.0332l.4162-.355c.139.0851.283.1624.4279.2323l.0032.0015a4.1708,4.1708,0,0,0,.4445.1783c.0351.0135.0681.0237.0918.0307.0407.0146.0926.0291.11.0339l.0056.0016.0034.001c.06.0178.12.0337.1794.0478l.0439.5464a.567.567,0,0,0,.5656.5248h.8276a.5668.5668,0,0,0,.5656-.5249l.0439-.5463c.0591-.0141.12-.03.1794-.0477l.1094-.0337h.0012c.0208-.0063.04-.0131.0529-.0175l.0019-.0007.0273-.0092.01-.003a4.1889,4.1889,0,0,0,.4528-.1811l.0032-.0015c.1449-.07.2889-.1472.4279-.2323l.4188.3577.0046.0038a.5716.5716,0,0,0,.7669-.0355l.5818-.5817a.566.566,0,0,0,.0331-.773l-.3576-.4189c.085-.1389.1623-.2829.2322-.4278l.0015-.0032a4.1776,4.1776,0,0,0,.1783-.4444c.0135-.0351.0237-.0682.0308-.0918.0145-.0408.029-.0927.0338-.11l.0017-.0056.0009-.0034c.0178-.06.0337-.12.0478-.1794l.5463-.0439A.5668.5668,0,0,0,15.2657,15v-.017h1.0632a1.85,1.85,0,0,0,1.8126-2.262ZM7.2282,3.5173a2.7706,2.7706,0,1,1,2.7745,2.77H9.9954A2.77,2.77,0,0,1,7.2282,3.5173ZM14.0661,14.95h-.0009a.5584.5584,0,0,0-.2164.0622.5141.5141,0,0,0-.1464.1114.4941.4941,0,0,0-.1036.1542l-.0013.0025a.4324.4324,0,0,0-.03.0779l-.0051.02-.0013.0051v.0014l-.0019.0086c-.0153.0688-.0328.1384-.0521.2039-.01.0326-.0141.0479-.0168.058l-.0085.0268-.0082.0238c-.0089.03-.0132.0435-.0179.0553l-.0068.0184a3.4845,3.4845,0,0,1-.1514.3788,4.1345,4.1345,0,0,1-.2293.4155.63.63,0,0,0-.0336.06l-.0008.0016-.0082.0178a.5841.5841,0,0,0-.0415.1374.46.46,0,0,0-.0077.09v.0014a.574.574,0,0,0,.13.363l.3513.4115-.4566.4566-.4041-.345a.525.525,0,0,0-.1636-.0983l-.0282-.01-.0311-.0094a.6062.6062,0,0,0-.1475-.0183h-.0014a.4588.4588,0,0,0-.0875.0073.5073.5073,0,0,0-.1444.0435.3846.3846,0,0,0-.0588.0312h-.0006l-.0016.001-.0121.0073a4.0964,4.0964,0,0,1-.4172.23,3.5007,3.5007,0,0,1-.3747.15c-.02.0062-.0389.0128-.05.0168l-.0274.0092-.1088.0335c-.0644.0191-.1328.0362-.2.0513a.4659.4659,0,0,0-.1161.0391l-.0166.0083a.634.634,0,0,0-.129.0868l-.0187.0173a.5618.5618,0,0,0-.1069.145.5417.5417,0,0,0-.06.22l-.042.5228h-.644l-.0428-.532V18.72a.5573.5573,0,0,0-.0621-.2163.5163.5163,0,0,0-.1115-.1464.4942.4942,0,0,0-.1539-.1035l-.0028-.0014a.4324.4324,0,0,0-.0779-.03l-.02-.0051-.0051-.0013H9.1313l-.0086-.0019c-.0688-.0153-.1384-.0328-.2039-.0521-.0326-.01-.0479-.0141-.058-.0168l-.0267-.0085-.024-.0082c-.03-.0089-.0434-.0132-.0553-.018l-.0183-.0067a3.5049,3.5049,0,0,1-.3788-.1514,4.1345,4.1345,0,0,1-.4155-.2293.63.63,0,0,0-.06-.0336L7.88,17.6889l-.0178-.0083a.5935.5935,0,0,0-.1374-.0414.46.46,0,0,0-.09-.0077H7.6339a.6062.6062,0,0,0-.1288.0139l-.0282.0064a.338.338,0,0,0-.0591.0218.5462.5462,0,0,0-.1542.0942l-.4014.3424-.4567-.4567.3462-.4053.0051-.0063a.5732.5732,0,0,0,.13-.3629v-.0014A.4588.4588,0,0,0,6.88,16.79a.5041.5041,0,0,0-.0435-.1444.3846.3846,0,0,0-.0312-.0588v-.0006l-.0011-.0016-.0072-.012a4.1479,4.1479,0,0,1-.23-.4173,3.48,3.48,0,0,1-.15-.3747c-.0059-.0192-.0121-.0369-.0162-.0485L6.399,15.73l-.009-.027-.0335-.1089c-.0191-.0644-.0362-.1327-.0514-.2a.4683.4683,0,0,0-.0392-.1164l-.0082-.0163a.6268.6268,0,0,0-.0867-.129l-.0173-.0187a.5618.5618,0,0,0-.145-.1069.54.54,0,0,0-.22-.06l-.5187-.042v-.5889H5.2652V14.26l.5323-.0428a.57.57,0,0,0,.51-.4432,3.6649,3.6649,0,0,1,.4884-1.1781.563.563,0,0,0-.0476-.6753l-.3426-.4065.457-.457.4052.3459a.5672.5672,0,0,0,.6738.0469,3.6963,3.6963,0,0,1,1.1813-.4886.57.57,0,0,0,.4432-.51l.0428-.532h.644l.0428.532v.001a.5584.5584,0,0,0,.0622.2164.5141.5141,0,0,0,.1114.1464.4912.4912,0,0,0,.154.1035l.0027.0013a.4324.4324,0,0,0,.0779.03l.02.0051.0051.0012h.0014l.0086.0019c.0688.0153.1384.0327.2039.0521.0326.01.0479.0141.058.0167l.0268.0086.0238.0081c.03.009.0436.0133.0553.018l.0184.0068a3.4845,3.4845,0,0,1,.3788.1514,4.1147,4.1147,0,0,1,.4155.2293.63.63,0,0,0,.06.0336l.0015.0008.0178.0082a.5787.5787,0,0,0,.1373.0415.4683.4683,0,0,0,.09.0077h.0014a.5735.5735,0,0,0,.363-.13l.4115-.3514.4567.4567-.3424.4013a.5271.5271,0,0,0-.0982.1637l-.01.0281-.01.0311a.6061.6061,0,0,0-.0182.1475V12.29a.4672.4672,0,0,0,.0074.0875.5073.5073,0,0,0,.0435.1444.3846.3846,0,0,0,.0312.0588v.0006l.001.0016.0073.0121a4.0964,4.0964,0,0,1,.23.4172,3.48,3.48,0,0,1,.15.3747c.0059.0192.0122.0369.0162.0485l.0007.0019.0092.0274.0335.1088c.019.0644.0362.1327.0513.2A.4673.4673,0,0,0,13.6,13.89l.0083.0166a.6336.6336,0,0,0,.0867.129l.0174.0187a.5618.5618,0,0,0,.145.1069.5417.5417,0,0,0,.22.06l.52.0418v.6449Zm2.5311-.6627a1.1851,1.1851,0,0,1-.2688.0285h-1.063v-.1445a.5667.5667,0,0,0-.5218-.5656l-.5466-.0439c-.0142-.0591-.03-.12-.0478-.1794l-.0336-.1094v-.001c-.0063-.0208-.0131-.04-.0175-.0529l-.0007-.0019L14.088,13.19l-.003-.01a4.1873,4.1873,0,0,0-.1811-.4527l-.0015-.0032c-.07-.1449-.1473-.289-.2323-.4279l.3551-.4162.0036-.0044a.5717.5717,0,0,0-.0355-.767l-.5817-.5817a.5661.5661,0,0,0-.773-.0331l-.4188.3576c-.139-.085-.283-.1624-.4279-.2322l-.0032-.0015a4.1776,4.1776,0,0,0-.4444-.1783c-.0351-.0135-.0682-.0237-.0918-.0308-.0408-.0145-.0927-.029-.11-.0339l-.0056-.0016-.0034-.001c-.06-.0177-.12-.0336-.1794-.0478L10.91,9.7781a.5669.5669,0,0,0-.5656-.5249H9.5167a.5669.5669,0,0,0-.5656.5249l-.0442.5491a4.3647,4.3647,0,0,0-1.2618.5221l-.42-.3582-.0046-.0038a.5715.5715,0,0,0-.7669.0355l-.5817.5817a.5659.5659,0,0,0-.0341.7719l.3565.4229a4.3316,4.3316,0,0,0-.5222,1.26l-.5492.0441a.5667.5667,0,0,0-.5248.5656v.1473H3.6707a1.1855,1.1855,0,0,1-1.1642-1.4417,7.6988,7.6988,0,0,1,7.4891-5.92h.0075a7.7052,7.7052,0,0,1,7.49,5.92,1.183,1.183,0,0,1-.8958,1.4128h0Z" fill="#252a3a" fill-rule="evenodd"/><path d="M10.0025,11.9576h0a2.6944,2.6944,0,1,0,2.6943,2.6945h0a2.6943,2.6943,0,0,0-2.6941-2.6945ZM12.03,14.652a2.0277,2.0277,0,0,1-2.0272,2.028h0A2.0277,2.0277,0,1,1,12.03,14.6518Z" fill="#252a3a" fill-rule="evenodd"/></svg>