<svg id="Layer_1" data-name="Layer 1" xmlns="http://www.w3.org/2000/svg" viewBox="0 0 20 20"><path d="M9.5314.6727a9.3436,9.3436,0,0,1,9.8117,8.8515q.0114.2224.0124.4455v.0393a9.3444,9.3444,0,0,1-9.3423,9.3463h-.001a9.1592,9.1592,0,0,1-3.5709-.7126L6.44,18.6421A9.347,9.347,0,0,1,9.5314.6727Zm5.1632.5087A9.99,9.99,0,0,0,5.2812,18.8051l.0423.0225q.4243.2256.8688.41A9.8082,9.8082,0,0,0,10.0138,20,9.99,9.99,0,0,0,20,10.009V9.9678a9.9917,9.9917,0,0,0-5.3051-8.7864ZM10.0138,20h-.0007v-.3224L10.0142,20Zm-3.8211-.7624H6.1921L6.317,18.94l-.1232.2978Zm3.85-12.2164a.3331.3331,0,0,0,0,.6661,2.1609,2.1609,0,0,1,.8679.1822h0l.0057.0023a2.3134,2.3134,0,0,1,1.1385,1.025.333.333,0,0,0,.5841-.32h0a2.9779,2.9779,0,0,0-1.4633-1.319A2.8242,2.8242,0,0,0,10.0431,7.0212Zm-.9392.447a.3332.3332,0,0,1-.1527.4455h0a2.4837,2.4837,0,0,0-.9422.8922,2.601,2.601,0,0,0-.32.9693,2.6027,2.6027,0,0,0,.1085.9559A2.3394,2.3394,0,0,0,9.98,12.3627a2.2506,2.2506,0,0,0,1.9453-.9342,2.3485,2.3485,0,0,0,.4584-1.3866.3329.3329,0,1,1,.6658,0,3.0148,3.0148,0,0,1-.5956,1.7917l-.0033.0042h0A2.9115,2.9115,0,0,1,9.98,13.0289a3.0039,3.0039,0,0,1-2.8246-2.1218,3.2607,3.2607,0,0,1-.1291-1.1966,3.2621,3.2621,0,0,1,.3958-1.219l.0037-.0069h0A3.137,3.137,0,0,1,8.6585,7.3155.333.333,0,0,1,9.1039,7.4682Zm.2644-2.9977c.0365-.3116.075-.6658.1011-.9093h1.0757c.0175.2112.0427.5086.07.8172a.6692.6692,0,0,0,.5363.5916,4.9861,4.9861,0,0,1,1.6221.6833.6567.6567,0,0,0,.7707-.0569c.2152-.1838.4494-.3881.6181-.5356l.749.7542c-.15.1771-.3595.4274-.5363.6448a.656.656,0,0,0-.0374.7661,5.4165,5.4165,0,0,1,.6681,1.6056.682.682,0,0,0,.59.5419c.2717.0282.5932.0631.8218.0884v1.0976c-.2365.0166-.5686.0408-.8448.0647a.6235.6235,0,0,0-.554.5062,5.61,5.61,0,0,1-.6552,1.6881.6238.6238,0,0,0,.0576.7247c.1971.2309.3974.4635.54.6287l-.7481.7567c-.1656-.14-.3983-.339-.63-.5416a.6521.6521,0,0,0-.7966-.0353,5.4236,5.4236,0,0,1-1.6233.6724.6332.6332,0,0,0-.4977.5579c-.0279.3215-.0516.631-.0675.8493H9.51c-.02-.2354-.0474-.5684-.0723-.8576a.6179.6179,0,0,0-.4993-.5481A5.4645,5.4645,0,0,1,7.28,14.3367a.6362.6362,0,0,0-.7538.0488c-.2281.1953-.4644.3989-.6325.5441l-.7569-.7573c.1422-.17.3435-.4109.5408-.6474a.6335.6335,0,0,0,.0267-.76A5.6023,5.6023,0,0,1,5.0284,11.14a.6639.6639,0,0,0-.5966-.5186c-.2964-.02-.616-.0437-.8431-.0606V9.4764c.2965-.03.7517-.0754,1.0759-.1078A.333.333,0,0,0,4.61,8.7048l-.01.001c-.3247.0324-.78.078-1.0765.1078a.666.666,0,0,0-.5992.6628v1.0842a.6652.6652,0,0,0,.6153.6638c.2257.0169.5435.04.84.0605l.0015.0041a6.268,6.268,0,0,0,.7647,1.8356c-.1935.232-.3887.4656-.5258.63a.653.653,0,0,0,.0392.8805l.7739.7743a.6524.6524,0,0,0,.8881.0326c.1633-.1411.3943-.34.6192-.5329a6.1575,6.1575,0,0,0,1.8384.7638c.0243.283.0509.6013.07.8259a.6527.6527,0,0,0,.65.5988h1.1119a.6543.6543,0,0,0,.652-.6074c.0154-.21.0381-.5083.065-.8194a6.066,6.066,0,0,0,1.8347-.7676c.235.2056.4694.4052.6331.5441a.65.65,0,0,0,.8826-.04l.766-.7749a.6534.6534,0,0,0,.03-.8864c-.1374-.1592-.331-.3839-.5234-.61a6.2936,6.2936,0,0,0,.7175-1.8514c.2675-.0228.5824-.0458.8083-.0615a.6538.6538,0,0,0,.6082-.6522V9.45a.6517.6517,0,0,0-.58-.6485c-.229-.0253-.5582-.0611-.8367-.09L15.6672,8.71a.0339.0339,0,0,1-.0089-.0173A6.0747,6.0747,0,0,0,14.9,6.87c.1742-.2136.38-.46.5269-.6332a.6541.6541,0,0,0-.0354-.8829l-.7651-.77a.653.653,0,0,0-.8939-.0309c-.1664.1457-.3995.3489-.6135.5316a5.6474,5.6474,0,0,0-1.834-.7663l-.0071-.003c-.0277-.3107-.0529-.61-.07-.82a.6532.6532,0,0,0-.6507-.6H9.4583a.6532.6532,0,0,0-.6491.5839c-.0249.2324-.0616.57-.0967.873a5.9954,5.9954,0,0,0-1.8438.7725l-.0024.001H6.8652c-.2186-.1869-.4521-.3885-.618-.532a.6527.6527,0,0,0-.89.0334l-.7662.7707a.653.653,0,0,0-.0326.8853l.7055.8234a.3331.3331,0,1,0,.5129-.425h0L5.77,6.6732l-.6976-.8141.749-.7533c.1668.1442.3988.3444.6159.53a.6649.6649,0,0,0,.7849.0534A5.2966,5.2966,0,0,1,8.87,5a.617.617,0,0,0,.4988-.5289Z" fill="#252a3a" fill-rule="evenodd"/></svg>