<svg id="Layer_1" data-name="Layer 1" xmlns="http://www.w3.org/2000/svg" viewBox="0 0 20 20"><path d="M10,0A10,10,0,1,0,20,10,10,10,0,0,0,10,0Zm0,19.3548A9.3549,9.3549,0,1,1,19.3548,10v0h0A9.3548,9.3548,0,0,1,10,19.3548Z" fill="#252a3a"/><path d="M13.7,8.5522H11.33l1.6474-5.5863a.3226.3226,0,0,0-.5647-.2884L6.0438,10.9251a.3227.3227,0,0,0,.2553.52H8.6685L7.0212,17.027a.3226.3226,0,0,0,.5647.2885L13.955,9.0721a.3225.3225,0,0,0-.255-.52ZM8.1267,15.56l1.2827-4.3467A.3224.3224,0,0,0,9.1,10.8H6.9558l4.9166-6.3666-1.283,4.35a.3227.3227,0,0,0,.2182.4007.327.327,0,0,0,.0912.0131h2.1441Z" fill="#252a3a"/></svg>