<svg id="Layer_1" data-name="Layer 1" xmlns="http://www.w3.org/2000/svg" viewBox="0 0 20 20"><path d="M6.0111,5.8637q-.0521.0215-.1034.0441-.0227.0513-.0441.1033l-.0274.0679q-.0735.1868-.13.3813A4.4784,4.4784,0,0,0,5.8174,9.3l.0054.0142q.0243.0632.05.1256l.0183-.0263q.0336-.0479.0682-.095a5.0416,5.0416,0,0,1,1.2112-1.17q.1358-.0929.2776-.1769.0778-.046.1574-.09.0914-.05.1849-.0956.0461-.0936.0959-.1848.0435-.08.09-.1573.0842-.1418.1773-.2772a5.0345,5.0345,0,0,1,1.164-1.2031q.0468-.0345.0945-.068l.0266-.0185q-.0632-.0266-.1272-.0512l-.0124-.0047a4.4252,4.4252,0,0,0-.6385-.19,4.5043,4.5043,0,0,0-2.2.075q-.1944.0564-.3814.13Zm1.3185-.86q.1878-.0141.3791-.0141a4.9946,4.9946,0,0,1,1.9394.3891q.092.0385.1819.0807l.0226.0107q.0732.0346.1452.0717.0718-.0371.1452-.0717l.0226-.0107q.09-.042.1819-.0807A4.996,4.996,0,0,1,12.2869,4.99q.1913,0,.379.0141a4.9923,4.9923,0,0,1,.8285.1324q.0963.0237.1913.0513-.0567-.0827-.1171-.1626A4.4716,4.4716,0,0,0,6.6437,4.76q-.1134.1287-.2167.2657-.06.08-.1171.1626.0948-.0274.1913-.0514A5.0183,5.0183,0,0,1,7.33,5.0037Zm-1.6427.155q-.0462.0777-.09.1573-.05.0914-.096.1848-.0936.0459-.1848.0956-.08.0434-.1575.09-.1418.084-.2775.1769a5.0119,5.0119,0,0,0,0,8.2752q.1356.0928.2775.1769.0778.046.1575.0894.0912.05.1848.0957.0461.0936.096.1848.0434.08.09.1573.0843.1416.1773.2772a5.0119,5.0119,0,0,0,8.2672,0q.093-.1354.1772-.2772.0463-.0778.09-.1573.05-.0914.096-.1848.0935-.0459.1848-.0957.08-.0432.1575-.0894.1418-.084.2775-.1769a5.0119,5.0119,0,0,0,0-8.2752q-.1356-.0928-.2775-.1769-.0778-.0462-.1575-.09-.0912-.05-.1848-.0956-.0462-.0936-.096-.1848-.0435-.08-.09-.1573-.0842-.1418-.1772-.2772a5.0119,5.0119,0,0,0-8.2672,0Q5.7712,5.0169,5.6869,5.1587Zm8.2975.705-.0679-.0272q-.1867-.0732-.3815-.13a4.4791,4.4791,0,0,0-2.8385.1146l-.0124.0047q-.064.0248-.1272.0512l.0265.0185q.0477.0334.0946.068a5.0416,5.0416,0,0,1,1.1643,1.2036q.093.1355.1773.2772.0462.0778.09.1573.05.0913.0959.1848.0936.0459.1849.0956.08.0434.1574.09.1419.084.2775.1769A5.0387,5.0387,0,0,1,14.0365,9.32q.0346.0471.0682.095l.0183.0263q.0261-.0624.05-.1256l.0054-.0142a4.4332,4.4332,0,0,0,.1891-.6394A4.5034,4.5034,0,0,0,14.29,6.46q-.0567-.1944-.13-.3813l-.0274-.0679q-.0215-.052-.0441-.1033Q14.0365,5.8851,13.9844,5.8637Zm1.0095,1.4647q.0145.1912.0147.3862a4.995,4.995,0,0,1-.3872,1.9348q-.0387.0924-.0809.1828L14.53,9.855q-.0346.0733-.0717.1454.0371.072.0717.1454l.0108.0228q.0421.09.0809.1828a4.995,4.995,0,0,1,.3872,1.9348q0,.1949-.0147.3862a5.0008,5.0008,0,0,1-.1335.8283q-.024.0963-.0517.1912.0828-.0567.1628-.1169a4.4714,4.4714,0,0,0,0-7.1493q-.08-.06-.1628-.1168.0278.0948.0517.1912A5.0019,5.0019,0,0,1,14.9939,7.3284ZM14.132,13.99l.0274-.0679q.0733-.1868.13-.3813a4.4786,4.4786,0,0,0-.1112-2.84l-.0054-.0142q-.0243-.0633-.05-.1256l-.0183.0263q-.0336.0478-.0682.095a5.04,5.04,0,0,1-1.2112,1.1706q-.1356.0929-.2775.1769-.0778.046-.1574.0894-.0914.05-.1849.0957-.046.0935-.0959.1847-.0435.08-.09.1574-.0841.1416-.1773.2772a5.0416,5.0416,0,0,1-1.1643,1.2036q-.0468.0345-.0946.068l-.0265.0185q.0632.0265.1272.0512l.0124.0047a4.4252,4.4252,0,0,0,.6385.19,4.5031,4.5031,0,0,0,2.2-.075q.1945-.0565.3815-.13l.0679-.0272q.0521-.0214.1035-.0441Q14.1107,14.0417,14.132,13.99Zm-1.4661,1.0074q-.1876.0139-.379.0141a4.9946,4.9946,0,0,1-1.9394-.3891q-.092-.0386-.1819-.0807l-.0226-.0107q-.0732-.0347-.1452-.0717-.072.037-.1452.0717l-.0226.0107q-.09.042-.1819.0807a4.9946,4.9946,0,0,1-1.9394.3891q-.1913,0-.3791-.0141a4.99,4.99,0,0,1-.8284-.1324q-.0964-.0239-.1913-.0514.0567.0828.1171.1627a4.4713,4.4713,0,0,0,7.1416,0q.06-.08.1171-.1627-.095.0276-.1913.0514a4.9917,4.9917,0,0,1-.8285.1321Zm-6.6548-.86.068.0272q.1867.0732.3814.13A4.4786,4.4786,0,0,0,9.2991,14.18l.0124-.0047q.064-.0248.1272-.0512l-.0266-.0185q-.0477-.0335-.0945-.068A5.0341,5.0341,0,0,1,8.1533,12.834q-.093-.1354-.1773-.2772-.0462-.0779-.09-.1574-.05-.0912-.0959-.1847-.0936-.0459-.1849-.0957-.08-.0432-.1574-.0894-.1419-.084-.2776-.1769a5.0418,5.0418,0,0,1-1.2111-1.1706q-.0347-.0471-.0682-.095l-.018-.0271q-.0261.0622-.05.1256L5.8171,10.7a4.4332,4.4332,0,0,0-.1891.6394,4.5037,4.5037,0,0,0,.0779,2.201q.0567.1944.13.3813l.0274.0679q.0215.0521.0441.1033.0518.0228.1037.0442Zm-1.01-1.4647q-.0146-.1913-.0146-.3862a4.995,4.995,0,0,1,.3872-1.9348q.0387-.0924.0809-.1828l.0107-.0228q.0348-.0733.0717-.1454-.0369-.072-.0717-.1454l-.0107-.0228q-.0423-.09-.0809-.1828A4.9963,4.9963,0,0,1,4.987,7.7146q0-.195.0146-.3862A4.9917,4.9917,0,0,1,5.1352,6.5q.024-.0963.0516-.1912-.0826.0567-.1628.1168A4.4719,4.4719,0,0,0,4.7483,13.35q.1334.1177.2757.2248.08.06.1628.1169-.0276-.0948-.0516-.1912a4.9905,4.9905,0,0,1-.1336-.8283Zm1.22-2.5641.0055.0085q.0439.069.09.1361A4.4893,4.4893,0,0,0,7.3121,11.29q.08.06.1628.1169-.0277-.095-.0517-.1914a5,5,0,0,1-.1335-.8282Q7.2762,10.1954,7.276,10t.0147-.3861a5.0008,5.0008,0,0,1,.1335-.8283q.024-.0963.0517-.1913-.0828.0567-.1628.1169a4.4892,4.4892,0,0,0-.9955,1.0363q-.0465.0672-.09.1361l-.0055.0085q-.0339.0534-.0664.1079.0321.0548.066.1083ZM8.1526,8.2969l-.0273.0679q-.0735.1867-.13.3813a4.5016,4.5016,0,0,0,0,2.5086q.0569.1944.13.3813l.0273.0679q.0215.052.0442.1033.0513.0227.1034.0441l.0679.0272q.1869.0732.3815.13a4.4988,4.4988,0,0,0,2.4964,0q.1945-.0565.3815-.13l.0679-.0272q.0521-.0214.1034-.0441.0227-.0513.0442-.1033l.0273-.0679q.0735-.1867.13-.3813a4.498,4.498,0,0,0,0-2.5086q-.0567-.1944-.13-.3813l-.0273-.0679q-.0215-.0521-.0442-.1033-.0514-.0227-.1034-.0441l-.0679-.0272q-.1869-.0732-.3815-.13a4.4988,4.4988,0,0,0-2.4964,0q-.1945.0565-.3815.13L8.3,8.15q-.0521.0214-.1034.0441Q8.174,8.245,8.1526,8.2969ZM9.6188,7.29q.1876-.0141.379-.0141t.379.0141a5.0136,5.0136,0,0,1,.8284.1323q.0965.0239.1914.0514-.0567-.0827-.1171-.1626a4.49,4.49,0,0,0-1.03-.9889q-.0667-.0462-.1352-.09l-.0084-.0053q-.0534-.034-.1078-.0665-.0545.0324-.1079.0665l-.0083.0053q-.0686.0438-.1353.09a4.4937,4.4937,0,0,0-1.03.9889q-.06.08-.117.1626.0948-.0274.1914-.0514A5.0065,5.0065,0,0,1,9.6188,7.29Zm3.0861,2.3248q.0146.1911.0146.3861t-.0146.3861a5.01,5.01,0,0,1-.1335.8282q-.024.0965-.0517.1914.0826-.0567.1628-.1169a4.4932,4.4932,0,0,0,.9955-1.0363q.0463-.0672.09-.1361l.0054-.0085q.034-.0534.0665-.1079-.0326-.0544-.0665-.1079l-.0054-.0085q-.044-.069-.09-.1361a4.4932,4.4932,0,0,0-.9955-1.0363q-.08-.06-.1628-.1169.0276.0949.0517.1913a5.0054,5.0054,0,0,1,.1335.8278Zm-2.3281,3.097q-.1876.0139-.379.0141t-.379-.0141A5.007,5.007,0,0,1,8.79,12.579q-.0964-.0238-.1914-.0515.0567.0826.117.1627a4.4979,4.4979,0,0,0,1.03.9889q.0668.0462.1353.09l.0083.0053q.0535.0341.1079.0665.0545-.0325.1078-.0665l.0084-.0053q.0686-.0438.1352-.09a4.4979,4.4979,0,0,0,1.03-.9889q.06-.08.1171-.1627-.0949.0276-.1914.0515a5.0106,5.0106,0,0,1-.8274.1323ZM.5405,10a9.46,9.46,0,1,1,9.46,9.46H10A9.46,9.46,0,0,1,.5405,10ZM10,0A10,10,0,1,0,20,10,10,10,0,0,0,10,0Z" fill="#252a3a" fill-rule="evenodd"/></svg>