<?xml version="1.0" encoding="UTF-8"?><svg id="Layer_1" xmlns="http://www.w3.org/2000/svg" viewBox="0 0 20 20"><path d="M9.9966,1.2987l-3.4212,5.9259h6.8434S9.9966,1.2987,9.9966,1.2987Zm3.4224,6.726H6.5754s3.4217,5.9269,3.4217,5.9269l3.4219-5.9269Zm-4.1158,6.325l-3.42-5.9241-3.4203,5.9241h6.8403Zm-7.1331-1.0928l3.1672-5.4858-3.1672-1.8286v7.3144Zm.4-8.0072l3.1663,1.8281L8.9027,1.5935,2.5701,5.2497Zm.6928,9.9l6.3344,3.6573,.0008-3.6573H3.2629Zm7.1351,0l-.0007,3.6572,6.3351-3.6572h-6.3344Zm8.2252-.4414c.0163,.155-.0595,.308-.1978,.3879l-8.2283,4.75c-.1237,.0714-.2762,.0714-.4,0L1.5701,15.0962c-.1237-.0715-.2-.2035-.2-.3464V5.2497c0-.1429,.0762-.275,.2-.3464L9.7766,.1651c.0748-.049,.1644-.0717,.2536-.0641,.0579,.0048,.1149,.0222,.1669,.0522l8.2283,4.75c.1412,.0815,.2139,.2362,.1978,.3886V14.7083Zm-.8-1.4535V5.9432l-3.166,1.8279,3.166,5.4837Zm-3.7119-4.8292l-3.4203,5.9241h6.8406l-3.4203-5.9241Zm.1465-1.3477l3.167-1.8285L11.0901,1.5925l3.1677,5.4854Z" fill="#180b25" fill-rule="evenodd"/></svg>