<svg id="Layer_1" data-name="Layer 1" xmlns="http://www.w3.org/2000/svg" viewBox="0 0 20 20"><path d="M10,0A10,10,0,1,0,20,10,10,10,0,0,0,10,0Zm0,19.3548A9.3549,9.3549,0,1,1,19.3548,10v0A9.3548,9.3548,0,0,1,10,19.3548Z" fill="#252a3a" fill-rule="evenodd"/><path d="M5.378,12.6453H6.9543A.3227.3227,0,1,0,6.9657,12H6.0232V4.8967h7.9546V12H13.009a.3226.3226,0,1,0-.0114.6451H14.623V4.2515H5.378Z" fill="#252a3a" fill-rule="evenodd"/><path d="M11.3265,7.2738H8.6719a.3226.3226,0,1,0-.0006.6452H11.326a.3226.3226,0,1,0,0-.6452Z" fill="#252a3a" fill-rule="evenodd"/><path d="M11.3214,11.9909H8.6559a.3226.3226,0,1,0-.0114.6451H11.31a.3226.3226,0,0,0,.0114-.6451Z" fill="#252a3a" fill-rule="evenodd"/><path d="M8.6553,14.972H11.31a.3226.3226,0,0,0,0-.6452H8.6559a.3226.3226,0,1,0-.0006.6452Z" fill="#252a3a" fill-rule="evenodd"/><path d="M11.3214,16.6628H8.6559a.3226.3226,0,1,0-.0114.6451H11.31a.3226.3226,0,0,0,.0114-.6451Z" fill="#252a3a" fill-rule="evenodd"/><path d="M8.6553,10.3021H11.31a.3226.3226,0,0,0,0-.6452H8.6559a.3226.3226,0,0,0-.0006.6452Z" fill="#252a3a" fill-rule="evenodd"/></svg>