<svg id="Layer_1" data-name="Layer 1" xmlns="http://www.w3.org/2000/svg" viewBox="0 0 20 20"><path d="M17.0827,2.9422a9.9987,9.9987,0,0,0-14.18,14.1l.0042.01.0082.0034A9.999,9.999,0,0,0,17.0827,2.9422Zm-.73,13.93,0,0a9.3439,9.3439,0,0,1-12.75-.0579L8.2609,12.166a.3226.3226,0,0,0-.4557-.4567L3.1489,16.3552a9.3437,9.3437,0,1,1,13.2039.5165Z" fill="#252a3a" fill-rule="evenodd"/><path d="M9.8942,7.5872a.3226.3226,0,0,0,.3225-.3226v-3.98a.3226.3226,0,0,0-.6451-.0114V7.2646A.3227.3227,0,0,0,9.8942,7.5872Z" fill="#252a3a" fill-rule="evenodd"/><path d="M12.0419,8.2669l.0048-.0048L13.6228,6.686a.3226.3226,0,0,0-.4562-.4562L11.5905,7.8059a.3226.3226,0,0,0,.4514.461Z" fill="#252a3a" fill-rule="evenodd"/><path d="M16.6239,9.6182h-3.98a.3226.3226,0,0,0,0,.6452h3.98a.3226.3226,0,0,0,0-.6452Z" fill="#252a3a" fill-rule="evenodd"/><path d="M7.2055,9.6967H4.4523a.3226.3226,0,0,0,0,.6452H7.2055a.3226.3226,0,0,0,0-.6452Z" fill="#252a3a" fill-rule="evenodd"/><path d="M5.3908,5.0524a.3226.3226,0,0,0-.4554.4571L7.7485,8.3126a.3226.3226,0,1,0,.4554-.4571Z" fill="#252a3a" fill-rule="evenodd"/><path d="M9.9723,12.3809a.3226.3226,0,0,0-.3226.3226v2.9428a.3226.3226,0,0,0,.6452,0V12.7035A.3226.3226,0,0,0,9.9723,12.3809Z" fill="#252a3a" fill-rule="evenodd"/><path d="M13.5829,13.1238l-1.4764-1.4761a.3226.3226,0,1,0-.4611.4514l.0049.0048L13.1267,13.58a.3226.3226,0,0,0,.4611-.4513Z" fill="#252a3a" fill-rule="evenodd"/></svg>