<svg id="Layer_1" data-name="Layer 1" xmlns="http://www.w3.org/2000/svg" viewBox="0 0 20 20"><path d="M10,0A10,10,0,1,0,20,10,10,10,0,0,0,10,0Zm0,19.3548A9.3549,9.3549,0,1,1,19.3548,10v0h0A9.3548,9.3548,0,0,1,10,19.3548Z" fill="#252a3a" fill-rule="evenodd"/><path d="M14.9525,5.2452,12.2187,4.21c-.0136-.0051-.0264.0045-.04.0013a.3154.3154,0,0,0-.1739.0028l-.0083.0027a.2581.2581,0,0,0-.0345.0114L5.0652,6.5029a.3227.3227,0,0,0-.2214.3064v5.6941a.3226.3226,0,0,0,.6451,0V7.0425L11.7831,4.966V15.06L7.7589,13.9a.3226.3226,0,0,0-.1787.62l4.4362,1.2788a.3156.3156,0,0,0,.185-.009c.006-.0019.0117.0028.0177.0005l2.7338-1.04a.3045.3045,0,0,0,.1833-.2969c.0047-.0218.0246-.0362.0246-.0593V5.5468A.3223.3223,0,0,0,14.9525,5.2452Zm-.4368,8.9812-2.0874.794V4.9789l2.0874.7907Z" fill="#252a3a" fill-rule="evenodd"/></svg>