<svg id="Layer_1" data-name="Layer 1" xmlns="http://www.w3.org/2000/svg" viewBox="0 0 20 20"><path d="M16.3089,8.0321v0L14.46,6.566a1.3222,1.3222,0,0,0,.1253-.551A1.3392,1.3392,0,1,0,13.246,7.3541a1.31,1.31,0,0,0,.8-.2931l1.8625,1.4775L15.91,8.54a.9616.9616,0,0,1-1.1813,1.5177l-.0128-.01-2.9218-2.304-.0006.0008L6.6011,3.6383a1.6106,1.6106,0,0,0-1.9939,2.53L9.799,10.2738l5.1916,4.1054a.9686.9686,0,0,1-1.2048,1.5169l-.0009-.0007L8.6064,11.7916l.0013-.0017-2.92-2.3122-.0019-.0015a1.6137,1.6137,0,0,0-2.0035,2.53l1.9538,1.55a1.3222,1.3222,0,0,0-.1245.55,1.3392,1.3392,0,1,0,1.3393-1.3391,1.31,1.31,0,0,0-.8011.2939l-1.9662-1.56a.963.963,0,0,1-.1568-1.351A.973.973,0,0,1,5.288,9.9843l2.9174,2.31-.0013.0016,5.1825,4.1062.002.0016a1.6137,1.6137,0,1,0,2.0031-2.5306L10.1991,9.7669v.0005L5.0067,5.6616,5.0059,5.661a.9634.9634,0,0,1-.1616-1.3527l0,0,.0047-.006L4.85,4.3013a.9628.9628,0,0,1,1.3512-.1568l5.1925,4.1061.1969-.2489-.1959.2484,2.9193,2.3016a1.6082,1.6082,0,0,0,2.26-.2529l0,0,.0076-.01-.2536-.1994.2541.1988A1.6084,1.6084,0,0,0,16.3089,8.0321ZM13.94,6.015a.694.694,0,1,1-.694-.6941.694.694,0,0,1,.694.6941ZM6.8506,13.4127a.694.694,0,1,1-.694.694A.694.694,0,0,1,6.8506,13.4127Z" fill="#252a3a" fill-rule="evenodd"/><path d="M10.001,0a10,10,0,1,0,10,10A10,10,0,0,0,10.001,0Zm0,19.3548A9.3549,9.3549,0,1,1,19.3558,10v0A9.3548,9.3548,0,0,1,10.001,19.3548Z" fill="#252a3a" fill-rule="evenodd"/></svg>