<svg xmlns="http://www.w3.org/2000/svg" viewBox="0 0 20 20"><g id="Layer_2" data-name="Layer 2"><g id="Layer_1-2" data-name="Layer 1"><path d="M15.13,5.21,12.2384,4.1859a.6966.6966,0,0,0-.248-.0116L4.9293,5.7072a.3333.3333,0,0,0-.2626.3258v8.0683a.3333.3333,0,0,0,.6666,0v-7.8l6.3944-1.3881V14.885l-3.282-.6571a.3333.3333,0,0,0-.1309.6537l3.5918.7191a.3318.3318,0,0,0,.1545.0378.3414.3414,0,0,0,.0352-.0018.3331.3331,0,0,0,.1413-.0176l2.8925-1.022a.3333.3333,0,0,0,.2222-.3143V5.5242A.3332.3332,0,0,0,15.13,5.21Zm-.4446,8.8371-2.2913.8095V4.9484l2.2913.8114Z" fill="#001531" fill-rule="evenodd"/><path d="M10,0A10,10,0,1,0,20,10,10,10,0,0,0,10,0Zm0,19.3548A9.3549,9.3549,0,1,1,19.3548,10,9.3548,9.3548,0,0,1,10,19.3548Z" fill="#001531" fill-rule="evenodd"/></g></g></svg>