<?xml version="1.0" encoding="UTF-8"?><svg id="Layer_1" xmlns="http://www.w3.org/2000/svg" viewBox="0 0 20 20"><path d="M10.3891,.5886l-.0225-.0131c-.0225-.0131-.046-.0243-.0712-.033-.0234-.0096-.0469-.0178-.072-.0243-.0487-.0121-.099-.0182-.1494-.0182V19.4999c.0321,.0004,.0643-.0022,.0964-.0078,.0235-.0026,.0469-.0074,.0704-.0144l.0199-.0061c.0182-.006,.0356-.0126,.053-.0204,.0139-.0038,.0269-.0091,.0399-.0152,.0104-.003,.0209-.0082,.0295-.016,.0122-.0057,.0243-.0126,.0365-.0205l.0156-.0126,3.3781-2.2837c2.2399-1.5081,3.6759-3.9503,3.9042-6.6412l.2006-5.7982L10.3891,.5886Z" fill="none" stroke="#180b25" stroke-linecap="round" stroke-linejoin="round"/><path d="M9.9212,.5191c-.0243,.0065-.0486,.0147-.072,.0243-.0243,.0087-.0486,.02-.0712,.033l-.0217,.0121L2.0772,4.7446l.3542,5.714c.2283,2.6909,1.6635,5.1331,3.9034,6.6412l3.3781,2.2837,.0165,.0126c.0113,.0079,.0235,.0148,.0364,.0205,.0086,.0073,.0182,.013,.0295,.0161,.0113,.0069,.0234,.0134,.0364,.0186,.0165,.0078,.0348,.0144,.0521,.0204l.0209,.0061c.0225,.007,.046,.0117,.0704,.0144,.0312,.0056,.0633,.0082,.0954,.0078V.5001c-.0503,0-.1007,.0069-.1492,.0191Z" fill="none" stroke="#180b25" stroke-linecap="round" stroke-linejoin="round"/></svg>