<svg xmlns="http://www.w3.org/2000/svg" viewBox="0 0 20 20"><g id="Layer_2" data-name="Layer 2"><g id="Layer_1-2" data-name="Layer 1"><path d="M10.1985,4.6348h-.1877l1.4128-1.412a.3333.3333,0,1,0-.4711-.4716L8.9733,4.7291a.336.336,0,0,0,.0321.5036l1.9474,1.9491a.3333.3333,0,1,0,.4716-.4712l-1.408-1.4091h.1821a5.3509,5.3509,0,1,1-5.3508,5.3508.3334.3334,0,0,0-.6667,0,6.0175,6.0175,0,1,0,6.0175-6.0175Z" fill="#001531" fill-rule="evenodd"/><path d="M10.1992,14.0085A3.3583,3.3583,0,0,0,13.5578,10.65a.3333.3333,0,0,0-.6666,0,2.6917,2.6917,0,0,1-5.3834,0,.3334.3334,0,0,0-.6667,0A3.3584,3.3584,0,0,0,10.1992,14.0085Z" fill="#001531" fill-rule="evenodd"/><path d="M10,0A10,10,0,1,0,20,10,10,10,0,0,0,10,0Zm0,19.3548A9.3549,9.3549,0,1,1,19.3548,10,9.3548,9.3548,0,0,1,10,19.3548Z" fill="#001531" fill-rule="evenodd"/></g></g></svg>