<?xml version="1.0" encoding="UTF-8"?><svg id="Layer_1" xmlns="http://www.w3.org/2000/svg" viewBox="0 0 20 20"><path d="M10.0626,.0001c.0038,0,.0076-.0001,.0114-.0001,.0904,0,.1814,.0109,.2705,.0331l.0033,.0008c.0475,.0122,.0893,.0268,.1251,.041,.0545,.0199,.1025,.0437,.1443,.0679l.0163,.0095,7.5226,4.0718c.1669,.0903,.2683,.2673,.2617,.457l-.2006,5.7982c-.0003,.0084-.0008,.0167-.0015,.025-.2411,2.8417-1.7576,5.4209-4.123,7.0135h0l-3.3601,2.2716c-.0136,.0109-.0277,.0211-.0424,.0306-.0132,.0085-.0288,.018-.0464,.0279-.0351,.0224-.0703,.0396-.104,.0525-.0153,.0066-.0324,.0133-.0513,.0199-.025,.0102-.0483,.0186-.0697,.0257l-.0125,.0042-.02,.0059-.0029,.0008c-.0459,.0137-.0932,.0239-.1418,.0302-.0534,.0085-.1081,.013-.1637,.0128m.4961-1.3103l2.9593-2.0007c2.1108-1.4211,3.4661-3.7218,3.685-6.2568l.1894-5.476L10.574,1.2572V18.6896ZM10.0626,.0001c-.0928,.0007-.1813,.0136-.2627,.0339l-.0085,.0022c-.0408,.011-.0816,.0245-.1214,.0403-.0481,.0178-.0949,.0398-.1388,.065l-.016,.009L1.8392,4.3049c-.1712,.0927-.2731,.2763-.2611,.4707l.3542,5.7139,.0008,.0113c.2411,2.8417,1.7566,5.4208,4.1219,7.0135h0l3.3656,2.2753,.0049,.0037c.0063,.0049,.0128,.0096,.0194,.0141,.0202,.014,.0418,.0275,.0648,.04,.0209,.0132,.044,.0258,.0692,.0372,.0158,.0083,.033,.0166,.0515,.0246,.0368,.0165,.0706,.0284,.0854,.0335l.0023,.0008c.0085,.003,.0172,.0058,.0259,.0083l.0176,.0052c.0479,.0145,.0953,.0242,.1416,.0301,.0574,.0093,.1161,.0136,.1746,.0128M9.5704,1.2577L2.5959,5.0324l.3341,5.3895c.217,2.5379,1.5713,4.8408,3.6839,6.2631l2.9565,1.9988V1.2577Z" fill="#180b25" fill-rule="evenodd"/></svg>