<?xml version="1.0" encoding="UTF-8"?><svg id="Layer_1" xmlns="http://www.w3.org/2000/svg" viewBox="0 0 20 20"><path d="M7.3581,.8387c-.0831,0-.1574,.0505-.186,.1266-.0018,.0049-.0038,.0098-.0058,.0146L3.124,10.5887c-.0428,.1244,.0522,.2542,.188,.2542H7.6049c.6958,0,1.2026,.6425,1.0233,1.2976h0l-1.8538,6.7727c-.054,.1974,.2024,.3306,.3405,.177l.3238,.2763-.3238-.2763,9.7249-10.8137h0c.1123-.1248,.0213-.3202-.149-.3202h-5.1218c-.731,0-1.2421-.7042-.9986-1.3756,.003-.0083,.0063-.0165,.0098-.0247L12.9722,1.087c.0379-.1229-.0565-.2483-.1898-.2483H7.3581Zm-.9911-.1706c.1553-.4017,.5499-.6681,.9911-.6681h5.4243c.7309,0,1.242,.7043,.9985,1.3756-.003,.0083-.0063,.0165-.0099,.0246l-2.3919,5.469c-.0379,.1228,.0564,.2483,.1899,.2483h5.1218c.9103,0,1.3965,1.0447,.7966,1.7116,0,0,0,0,0,0L7.7625,19.6429c-.7383,.821-2.1086,.1088-1.8199-.9458l.3729,.0969-.3729-.0969,1.8538-6.7727c.0336-.1226-.0613-.2428-.1915-.2428H3.312c-.7362,0-1.2478-.7137-.9943-1.3871,.0018-.0049,.0038-.0098,.0058-.0146L6.367,.6681Z" fill="#001531" fill-rule="evenodd"/></svg>