<svg xmlns="http://www.w3.org/2000/svg" viewBox="0 0 20 20"><g id="Layer_2" data-name="Layer 2"><g id="Layer_1-2" data-name="Layer 1"><path d="M14.75,5.2181H5.5a.3333.3333,0,0,0-.3333.3334V8.4777a.3494.3494,0,0,1,0,.0783v2.9263l.0006.02-.0006.02v2.9263a.3333.3333,0,0,0,.3333.3333h9.25a.3333.3333,0,0,0,.3333-.3333V11.5228l-.0006-.02.0006-.02V8.556a.3344.3344,0,0,1,0-.0783V5.5515A.3333.3333,0,0,0,14.75,5.2181Zm-.3334,8.8976H5.8333v-2.26h8.5833Zm0-2.9668H5.8333v-2.26h8.5833Zm0-3.0045H5.8333v-2.26h8.5833Z" fill="#001531" fill-rule="evenodd"/><path d="M10,0A10,10,0,1,0,20,10,10,10,0,0,0,10,0Zm0,19.3548A9.3549,9.3549,0,1,1,19.3548,10,9.3548,9.3548,0,0,1,10,19.3548Z" fill="#001531" fill-rule="evenodd"/></g></g></svg>