<?xml version="1.0" encoding="UTF-8"?><svg id="Layer_1" xmlns="http://www.w3.org/2000/svg" viewBox="0 0 20 20"><path d="M10,0c5.5228,0,10,4.4771,10,10s-4.4772,10-10,10S0,15.5228,0,10C0,4.4771,4.4771,0,10,0ZM10,.6455C4.8335.6455.6455,4.8335.6455,10c0,5.1665,4.188,9.3545,9.3545,9.3545s9.3545-4.188,9.3545-9.3545S15.1665.6455,10,.6455ZM4.7227,6.4609c.8015-1.3958,2.5767-1.8756,3.9658-1.0713l.0049.0029.0039.0019c1.2728.7428,1.7747,2.3107,1.2266,3.6416l5.5713,3.2354c.1623.0943.2191.3027.127.4668l-1.1739,2.0869c-.0929.1651-.3025.2233-.4668.1299-.1431-.082-.205-.2526-.1562-.4043l.0273-.0635,1.0088-1.791-1.6552-.9609-1.0303,1.831c-.0928.165-.3016.2238-.4658.1309-.1438-.0818-.2062-.2532-.1573-.4053l.0274-.0645,1.0342-1.8359-3.0245-1.7549c-.8624,1.1986-2.5024,1.5697-3.8037.8145-1.3893-.8067-1.8661-2.5921-1.0635-3.9903ZM8.3496,5.9873c-1.0626-.6169-2.4218-.2508-3.0352.8174-.6138,1.0692-.2491,2.4348.8135,3.0518,1.0626.6165,2.4212.2508,3.0352-.8184.611-1.0646.2504-2.4281-.8057-3.0469l-.0078-.0039Z" fill="#001531" stroke-width="0"/></svg>