<svg id="Layer_1" data-name="Layer 1" xmlns="http://www.w3.org/2000/svg" viewBox="0 0 20 20"><path d="M10,0a10,10,0,1,0,.0007,0Zm0,19.3548A9.3392,9.3392,0,0,1,1.6165,5.8674c.0193.0036.0317.0216.052.0216H13.6569L10.4436,9.1022a.3226.3226,0,0,0,.4562.4563h0l3.7633-3.7634a.322.322,0,0,0-.2267-.5513H1.9543a9.3459,9.3459,0,0,1,16.4286,8.8905c-.018-.0031-.0295-.02-.0484-.02H6.3459l3.2079-3.2121a.3225.3225,0,1,0-.4564-.4559h0L5.3406,14.2078a.32.32,0,0,0-.0966.2289v.0008a.32.32,0,0,0,.3181.3218H18.044A9.3419,9.3419,0,0,1,10,19.3548Z" fill="#252a3a" fill-rule="evenodd"/></svg>