<?xml version="1.0" encoding="UTF-8"?><svg id="Layer_1" xmlns="http://www.w3.org/2000/svg" viewBox="0 0 20 20"><path d="M11.783,.2169c.1562,.1563,.1561,.4095-.0002,.5657l-2.1363,2.135h.4441c4.6895,0,8.4911,3.8016,8.4911,8.491s-3.8016,8.491-8.4911,8.491S1.5996,16.098,1.5996,11.4086c0-.2209,.1791-.4,.4-.4s.4,.1791,.4,.4c0,4.2476,3.4434,7.691,7.691,7.691s7.6911-3.4434,7.6911-7.691-3.4434-7.691-7.6911-7.691h-.4398l2.1332,2.135c.1561,.1563,.156,.4095-.0003,.5657-.1563,.1561-.4095,.156-.5657-.0003l-2.7807-2.7832c-.095-.0731-.1563-.188-.1563-.3172,0-.0972,.0347-.1863,.0924-.2557,.0084-.0103,.0175-.0203,.0271-.0299L11.2173,.2167c.1563-.1562,.4095-.1561,.5657,.0002ZM5.7849,11.0071c.2209,0,.4,.179,.4,.3999,.0001,2.157,1.7487,3.9055,3.9056,3.9056,2.1571,.0002,3.9059-1.7484,3.9061-3.9056,0-.2209,.1791-.3999,.4-.3999s.4,.1791,.4,.4c-.0002,2.599-2.1072,4.7057-4.7062,4.7055-2.5987-.0001-4.7053-2.1068-4.7055-4.7055,0-.2209,.1791-.4,.4-.4Z" fill="#180b25" fill-rule="evenodd"/></svg>