<svg id="Layer_1" data-name="Layer 1" xmlns="http://www.w3.org/2000/svg" viewBox="0 0 20 20"><path d="M10,0A10,10,0,1,0,20,10,10,10,0,0,0,10,0Zm0,19.3548h0A9.3549,9.3549,0,1,1,19.3549,10v0A9.3548,9.3548,0,0,1,10,19.3548Z" fill="#252a3a"/><path d="M16.7465,8.6451a8.1027,8.1027,0,0,0-13.3352,0,2.2026,2.2026,0,0,0,0,2.5414,8.1027,8.1027,0,0,0,13.3352.03,2.2226,2.2226,0,0,0,0-2.5713Zm-.5283,2.1826a7.4847,7.4847,0,0,1-12.2786,0,1.6042,1.6042,0,0,1,0-1.8238A7.465,7.465,0,0,1,14.3289,7.1291l.0157.0109a7.5663,7.5663,0,0,1,1.8736,1.8638,1.604,1.604,0,0,1-.03,1.8238Z" fill="#252a3a"/><path d="M10.05,6.7109a3.2094,3.2094,0,1,0,2.2628.9435A3.2094,3.2094,0,0,0,10.05,6.7109Zm1.8112,5.02a2.5794,2.5794,0,1,1,.75-1.8111A2.5793,2.5793,0,0,1,11.8612,11.7309Z" fill="#252a3a"/></svg>