<svg xmlns="http://www.w3.org/2000/svg" viewBox="0 0 20 20"><g id="Layer_2" data-name="Layer 2"><g id="Layer_1-2" data-name="Layer 1"><path d="M14.851,4.819H5.1484a.3334.3334,0,0,0-.3333.3333v7.3121a.3334.3334,0,0,0,.3333.3334H6.8578a.3334.3334,0,0,0,0-.6667H5.4818V5.4857h9.0359v6.6454h-1.38a.3334.3334,0,0,0,0,.6667H14.851a.3334.3334,0,0,0,.3333-.3334V5.1523A.3333.3333,0,0,0,14.851,4.819Z" fill="#001531" fill-rule="evenodd"/><path d="M11.8583,12.1322H8.0137a.3333.3333,0,1,0,0,.6666h3.8446a.3333.3333,0,1,0,0-.6666Z" fill="#001531" fill-rule="evenodd"/><path d="M11.8583,14.5137H8.0137a.3333.3333,0,0,0,0,.6666h3.8446a.3333.3333,0,1,0,0-.6666Z" fill="#001531" fill-rule="evenodd"/><path d="M11.8583,9.75H8.0137a.3334.3334,0,0,0,0,.6667h3.8446a.3334.3334,0,1,0,0-.6667Z" fill="#001531" fill-rule="evenodd"/><path d="M11.8583,7.3679H8.0137a.3333.3333,0,1,0,0,.6666h3.8446a.3333.3333,0,1,0,0-.6666Z" fill="#001531" fill-rule="evenodd"/><path d="M10,0A10,10,0,1,0,20,10,10,10,0,0,0,10,0Zm0,19.3548A9.3549,9.3549,0,1,1,19.3548,10,9.3548,9.3548,0,0,1,10,19.3548Z" fill="#001531" fill-rule="evenodd"/></g></g></svg>