<svg xmlns="http://www.w3.org/2000/svg" viewBox="0 0 20 20"><g id="Layer_2" data-name="Layer 2"><g id="Layer_1-2" data-name="Layer 1"><path d="M10,0A10,10,0,1,0,20,10,10,10,0,0,0,10,0Zm0,19.3548A9.3549,9.3549,0,1,1,19.3548,10,9.3548,9.3548,0,0,1,10,19.3548Z" fill="#001531" fill-rule="evenodd"/><path d="M7.9567,4.65a.336.336,0,0,0-.5736.2376V15.1126a.336.336,0,0,0,.5735.2376l2.8968-2.8966,4.0949,0a.336.336,0,0,0,.2376-.5736Zm2.7575,7.1312a.3362.3362,0,0,0-.2376.0984L8.0551,14.3015V5.6991l6.0821,6.0825Z" fill="#001531" fill-rule="evenodd"/></g></g></svg>