<?xml version="1.0" encoding="UTF-8"?><svg id="Layer_1" xmlns="http://www.w3.org/2000/svg" viewBox="0 0 20 21"><path d="M.5996,2.2428c0-.2209,.1791-.4,.4-.4H18.9995c.2209,0,.4,.1791,.4,.4V7.9371c0,.0261-.0025,.0515-.0073,.0762,.0048,.0246,.0073,.0501,.0073,.0762v5.6944c0,.0133-.0007,.0265-.002,.0395,.0013,.0131,.002,.0262,.002,.0396v5.6943c0,.221-.1791,.4-.4,.4H.9996c-.2209,0-.4-.179-.4-.4v-5.6943c0-.0134,.0007-.0265,.0019-.0396-.0013-.013-.0019-.0262-.0019-.0395v-5.6944c0-.026,.0025-.0515,.0072-.0762-.0048-.0247-.0072-.0501-.0072-.0762V2.2428ZM18.5995,7.5371H1.3996V2.6428H18.5995V7.5371ZM1.3996,8.4895v4.8943H18.5995v-4.8943H1.3996Zm0,5.7734v4.8943H18.5995v-4.8943H1.3996Z" fill="#180b25" fill-rule="evenodd"/></svg>