<svg id="Layer_1" data-name="Layer 1" xmlns="http://www.w3.org/2000/svg" viewBox="0 0 20 20"><path d="M10,0a10,10,0,1,0,9.9987,10.0013h0V10A9.9994,9.9994,0,0,0,10,0Zm9.1551,8.0821L8.0336,18.9044,15.2261,2.7412V2.7405a1.21,1.21,0,0,0,.1018-.4238,9.3562,9.3562,0,0,1,3.827,5.7654ZM10,.6451a9.3126,9.3126,0,0,1,3.38.64L1.7632,5.5654A9.3509,9.3509,0,0,1,10,.6451ZM.6461,10a9.3256,9.3256,0,0,1,.72-3.6008l12.58-4.6353.013-.005a.5958.5958,0,0,1,.4447-.006.5654.5654,0,0,1,.234.723l-.0006.0015L7.3254,18.9091l-.0064.0152c-.0042.0109-.0034.0229-.0069.034A9.3551,9.3551,0,0,1,.6461,10ZM10,19.3548a9.3753,9.3753,0,0,1-1.3868-.114L19.2775,8.863A9.3053,9.3053,0,0,1,10,19.3548Z" fill="#252a3a" fill-rule="evenodd"/></svg>