<?xml version="1.0" encoding="UTF-8"?><svg id="Layer_1" xmlns="http://www.w3.org/2000/svg" viewBox="0 0 20 20"><path d="M0,9.9977C0,4.4745,4.4774-.0029,10.0006-.0029s10.0006,4.4774,10.0006,10.0006-4.4774,10.0006-10.0006,10.0006S0,15.5209,0,9.9977ZM10.0006,.6423C4.8338,.6423,.6452,4.8308,.6452,9.9977s4.1886,9.3554,9.3554,9.3554,9.3554-4.1886,9.3554-9.3554S15.1675,.6423,10.0006,.6423Zm.301,3.0267c-.062,0-.1213,.0079-.1763,.0208l-.0049,.0012c-.0267,.0067-.0535,.015-.0797,.0247-.0314,.0109-.0622,.0244-.0913,.04l-.011,.0057-5.1861,2.624c-.1181,.0597-.189,.1842-.1803,.3163l.2392,3.609,.0007,.008c.164,1.8076,1.1945,3.4399,2.79,4.4441l2.2738,1.4371,.0035,.0025c.0042,.003,.0085,.0059,.0128,.0087,.0135,.0088,.0279,.0171,.043,.0248,.0139,.0082,.0291,.016,.0457,.023,.0105,.0052,.0219,.0103,.0341,.0152,.024,.0102,.0462,.0174,.0562,.0207l.0015,.0005c.0054,.0017,.0108,.0034,.0163,.0048l.012,.0033c.0312,.0089,.062,.0147,.0919,.0183,.0358,.0055,.0722,.0081,.1087,.0079,.0366,.0002,.0726-.0027,.1076-.0085,.0314-.0042,.062-.011,.0915-.0201l.0019-.0006,.0123-.0037,.0084-.0029c.0134-.0046,.0281-.0101,.0438-.0167,.0118-.0042,.0226-.0086,.0321-.0128,.022-.0088,.0449-.0203,.0675-.0352,.0111-.0064,.0208-.0126,.0291-.0181,.0094-.0062,.0185-.0129,.0272-.0201l2.0556-1.4343c1.4535-1.0102,2.382-2.6432,2.5296-4.4386,.0002-.0029,.0004-.0058,.0006-.0087,.0001-.0024,.0002-.0048,.0003-.0073l.1227-3.6622c.0042-.1235-.061-.2389-.1688-.2991l-4.6033-2.5716-.0096-.0058c-.0266-.0159-.0573-.0316-.0925-.0449-.0226-.0093-.0493-.0189-.0799-.027l-.0022-.0006c-.0572-.0147-.1157-.0219-.1738-.0219Zm-5.0566,3.2069l4.7266-2.3916V15.4799l-2.0181-1.2755c-1.4299-.9-2.3383-2.3512-2.4839-3.9413l-.2246-3.3872Zm5.3866-2.3663V15.4499l1.77-1.2351c1.2857-.8934,2.1141-2.3421,2.248-3.9429l.1158-3.4531-4.1338-2.3093Z" fill="#180b25" fill-rule="evenodd"/></svg>