<?xml version="1.0" encoding="UTF-8"?><svg id="Layer_1" xmlns="http://www.w3.org/2000/svg" viewBox="0 0 20 20"><path d="M14.6597,7.3202c0,1.6779-.5653,3.224-1.5161,4.4587l1.2366,1.2672,.5044-.5041s4.1188,4.19,4.4639,4.7082c.3452,.5182,.3556,1.1377-.3603,1.8543-.801,.8017-1.6242,.3861-1.9033,.1727-.2792-.2134-2.9157-2.8085-4.5214-4.4157l.5001-.4998-1.2496-1.2505c-1.2395,.9587-2.7951,1.5292-4.4842,1.5292C3.2817,14.6404,0,11.363,0,7.3202S3.2817,0,7.3298,0s7.3299,3.2774,7.3299,7.3202Z" fill="#e8e7e9" fill-rule="evenodd"/><path d="M7.3298,13.795c3.5835,0,6.4852-2.9007,6.4852-6.4748S10.9133,.8454,7.3298,.8454,.8446,3.7461,.8446,7.3202s2.9017,6.4748,6.4852,6.4748Zm0,.8454c1.5442,0,2.977-.4769,4.1585-1.2913l.9954,.9961-.2182,.2179c-.0793,.0793-.1239,.1868-.1239,.299s.0445,.2198,.1237,.2991c.804,.8047,1.8656,1.8564,2.7614,2.7338,.4479,.4386,.8551,.8345,1.1682,1.1345,.3012,.2885,.5405,.5129,.6341,.5845,.1822,.1392,.5319,.3399,.9748,.3794,.465,.0414,.9942-.0995,1.4834-.5892,.3994-.3997,.6371-.8132,.6976-1.2412,.0615-.4346-.0684-.822-.2844-1.1464-.0624-.0936-.1852-.238-.3266-.3973-.149-.168-.341-.3772-.5593-.6111-.437-.4682-.9861-1.0425-1.5231-1.5992-.5372-.557-1.0635-1.0976-1.4554-1.4989-.1959-.2006-.3584-.3665-.4718-.4823l-.1781-.1814c-.0789-.0803-.1866-.1258-.2991-.1263-.1126-.0005-.2206,.044-.3003,.1236l-.2203,.2201-.986-1.0105c.8071-1.1762,1.2793-2.5996,1.2793-4.1331C14.6597,3.2774,11.378,0,7.3298,0S0,3.2774,0,7.3202s3.2817,7.3202,7.3298,7.3202Zm6.474-1.6144l-.9085-.931-.067,.066c-.2192,.2481-.455,.4813-.7056,.6978l.9235,.9242,.7576-.757Zm-.6422,1.8363l1.7204-1.7191c.0976,.0997,.216,.2206,.35,.3579,.3912,.4005,.9162,.9398,1.4518,1.4951,.5359,.5556,1.0812,1.126,1.5135,1.5892,.2163,.2317,.4028,.435,.545,.5953,.15,.169,.2313,.2689,.2553,.3048,.129,.1938,.1769,.3752,.1509,.559-.0269,.1905-.142,.4451-.4585,.7619-.3118,.3121-.5947,.3642-.8113,.3449-.2386-.0213-.4401-.1351-.5371-.2092-.0002-.0002-.0016-.0013-.0044-.0035l-.0118-.0099c-.0101-.0086-.023-.0198-.0389-.0339-.0319-.0284-.0729-.0658-.1227-.1119-.0996-.0923-.2298-.2157-.3849-.3642-.3099-.2968-.7145-.6902-1.1614-1.1279-.7864-.7703-1.7012-1.6754-2.4559-2.4285Z" fill="#180b25" fill-rule="evenodd"/></svg>