<?xml version="1.0" encoding="UTF-8"?><svg id="Layer_1" xmlns="http://www.w3.org/2000/svg" viewBox="0 0 25 25"><path d="M11.1652,2.4435c.1192-.3414.6676-.3414.7867,0,1.63,4.6694,5.3062,8.3456,9.9757,9.9757.3413.1191.3413.6675,0,.7866-4.6695,1.6301-8.3457,5.3062-9.9757,9.9757-.1191.3413-.6675.3413-.7867,0-1.63-4.6695-5.3061-8.3456-9.9756-9.9757-.3414-.1191-.3414-.6675,0-.7867,4.6694-1.63,8.3456-5.3061,9.9756-9.9756Z" fill="#001531" stroke-width="0"/><path d="M11.1652,2.4435c.1192-.3414.6676-.3414.7867,0,1.63,4.6694,5.3062,8.3456,9.9757,9.9757.3413.1191.3413.6675,0,.7866-4.6695,1.6301-8.3457,5.3062-9.9757,9.9757-.1191.3413-.6675.3413-.7867,0-1.63-4.6695-5.3061-8.3456-9.9756-9.9757-.3414-.1191-.3414-.6675,0-.7867,4.6694-1.63,8.3456-5.3061,9.9756-9.9756Z" fill="rgba(255,255,255,.9)" stroke-width="0"/><path d="M21.25.625c0,1.7224,1.9802,3.75,3.75,3.75-1.8379,0-3.75,2.0066-3.75,3.75,0-1.7547-2.0313-3.75-3.75-3.75,1.7869,0,3.75-2.0276,3.75-3.75ZM11.5589,22.2628c-1.8525-4.2209-5.2292-7.5976-9.4501-9.45,4.2209-1.8525,7.5976-5.2292,9.4501-9.4501,1.8524,4.2209,5.2291,7.5976,9.45,9.4501-4.2209,1.8524-7.5976,5.2291-9.45,9.45ZM11.1374,1.704c.1277-.3657.7152-.3657.8429,0,1.7463,5.0026,5.6847,8.941,10.6873,10.6873.3658.1277.3658.7152,0,.8429-5.0026,1.7463-8.941,5.6847-10.6873,10.6873-.1277.3658-.7152.3658-.8429,0-1.7463-5.0026-5.6847-8.941-10.6873-10.6873-.3657-.1277-.3657-.7152,0-.8429,5.0026-1.7463,8.941-5.6847,10.6873-10.6873Z" fill="#001531" fill-rule="evenodd" stroke-width="0"/></svg>