<?xml version="1.0" encoding="UTF-8"?><svg id="Layer_1" xmlns="http://www.w3.org/2000/svg" viewBox="0 0 21 20"><path d="M12.2597,7.1579V3.3684c0-.7538-.3042-1.4767-.8458-2.0096-.5416-.533-1.2762-.8324-2.0421-.8324l-3.8506,8.5263v10.421h10.8586c.4643,.0052,.9149-.155,1.2687-.4509,.3538-.296,.587-.7078,.6566-1.1596l1.3285-8.5263c.0419-.2716,.0232-.5488-.0546-.8126-.0778-.2638-.2129-.5077-.3961-.715-.1831-.2073-.4099-.3729-.6645-.4853-.2546-.1125-.531-.1691-.8101-.166h-5.4486Zm-6.7385,12.3157H2.6333c-.5106,0-1.0003-.1996-1.3614-.5549-.3611-.3554-.5639-.8373-.5639-1.3398v-6.6315c0-.5026,.2028-.9845,.5639-1.3398,.3611-.3553,.8508-.5549,1.3614-.5549h2.8879" fill="#180b25"/><path d="M12.2597,7.1579V3.3684c0-.7538-.3042-1.4767-.8458-2.0096-.5416-.533-1.2762-.8324-2.0421-.8324l-3.8506,8.5263v10.421h10.8586c.4643,.0052,.9149-.155,1.2687-.4509,.3538-.296,.587-.7078,.6566-1.1596l1.3285-8.5263c.0419-.2716,.0232-.5488-.0546-.8126-.0778-.2638-.2129-.5077-.3961-.715-.1831-.2073-.4099-.3729-.6645-.4853-.2546-.1125-.531-.1691-.8101-.166h-5.4486Zm-6.7385,12.3157H2.6333c-.5106,0-1.0003-.1996-1.3614-.5549-.3611-.3554-.5639-.8373-.5639-1.3398v-6.6315c0-.5026,.2028-.9845,.5639-1.3398,.3611-.3553,.8508-.5549,1.3614-.5549h2.8879" fill="rgba(255,255,255,.9)"/><path d="M8.8921,.3097c.0851-.1885,.2728-.3097,.4797-.3097,.9029,0,1.7704,.3529,2.4113,.9836,.6412,.631,1.003,1.4887,1.003,2.3848v3.2631h4.9195c.353-.0035,.7028,.0683,1.0255,.2109,.3237,.143,.6125,.3537,.8463,.6183,.2338,.2646,.4068,.5766,.5065,.9146,.0997,.338,.1236,.6935,.0699,1.0417l-1.3285,8.5262s0,.0002,0,0c-.0894,.5793-.3882,1.106-.839,1.4831-.45,.3764-1.0214,.5794-1.6092,.5736H2.6332c-.6475,0-1.2702-.2531-1.7306-.7062-.4607-.4533-.721-1.07-.721-1.7149v-6.6315c0-.6448,.2604-1.2615,.721-1.7149,.4604-.4531,1.083-.7061,1.7306-.7061h2.5481L8.8921,.3097Zm-3.8972,9.2692H2.6332c-.3737,0-.7305,.1462-.9922,.4038-.2614,.2573-.4068,.6045-.4068,.9647v6.6315c0,.3602,.1453,.7074,.4068,.9647,.2617,.2576,.6185,.4037,.9922,.4037h2.3616V9.5789Zm1.0526,9.3683h10.3381c.3398,.0038,.6683-.1134,.9252-.3283,.2566-.2147,.4242-.5119,.4741-.836l1.3285-8.5263s0,0,0,0c.03-.1949,.0167-.394-.0392-.5835-.0559-.1896-.1532-.3655-.2857-.5154-.1326-.15-.2972-.2704-.4828-.3524-.1856-.082-.3875-.1234-.5916-.1212h-.0059s-5.4485,0-5.4485,0c-.2907,0-.5263-.2356-.5263-.5263V3.3684c0-.6114-.2468-1.1996-.6888-1.6345-.3642-.3585-.8365-.5886-1.3433-.6586l-3.6538,8.0906v9.7813Z" fill="#180b25" fill-rule="evenodd"/></svg>