<?xml version="1.0" encoding="UTF-8"?><svg id="Layer_2" xmlns="http://www.w3.org/2000/svg" viewBox="0 0 20 20"><g id="Layer_1-2"><path d="M10,0h0c5.5228,0,10,4.4772,10,10h0c0,5.5228-4.4772,10-10,10h0C4.4772,20,0,15.5228,0,10h0C0,4.4772,4.4772,0,10,0Z" fill="#dd4814" stroke-width="0"/><path d="M13.6006,4.4769c.5199.2982.6978.9585.3976,1.4751-.2999.5164-.9644.6933-1.4843.395-.5197-.2981-.6977-.9584-.3976-1.4748.3001-.5166.9646-.6935,1.4843-.3953ZM8.9525,13.0386c.4066.1879.8595.2935,1.3374.2935,1.6586,0,3.0192-1.2635,3.1618-2.8751l1.549.0224c-.0761,1.1898-.5991,2.2582-1.4028,3.0434-.4132-.1552-.8906-.1317-1.3031.1049-.4133.2372-.6725.6369-.7435,1.0707-.4017.1105-.8243.1707-1.2614.1707-.7516,0-1.4618-.1753-2.0926-.4857l.7552-1.3448ZM13.4516,9.8964l1.549-.0225c-.0763-1.1897-.5992-2.258-1.403-3.0432-.4132.1551-.8905.1316-1.3031-.1051-.4132-.237-.6723-.6367-.7434-1.0706-.4016-.1104-.8242-.1707-1.2613-.1707-.7516,0-1.4618.1753-2.0925.4858l.7551,1.3446c.4065-.1879.8594-.2935,1.3374-.2935,1.6586,0,3.0192,1.2637,3.1618,2.8751ZM7.6704,6.2734l.7946,1.3227c-.8162.5709-1.35,1.5136-1.35,2.581s.5338,2.0102,1.35,2.5811l-.7946,1.3227c-.9512-.6315-1.6588-1.5968-1.9526-2.7276.3433-.278.5627-.7014.5627-1.1761s-.2194-.8982-.5627-1.1762c.2939-1.1307,1.0014-2.096,1.9526-2.7275ZM12.5143,14.0042c-.5199.2982-.6979.9584-.3978,1.4748.3001.5166.9645.6936,1.4844.3954.5197-.2982.6978-.9585.3976-1.475-.3-.5164-.9645-.6934-1.4842-.3952ZM4.7539,11.2557c-.6004,0-1.0869-.4834-1.0869-1.0798s.4865-1.08,1.0869-1.08,1.0867.4834,1.0867,1.08-.4865,1.0798-1.0867,1.0798Z" fill="#fff" fill-rule="evenodd" stroke-width="0"/></g></svg>