<?xml version="1.0" encoding="UTF-8"?><svg id="Layer_2" xmlns="http://www.w3.org/2000/svg" viewBox="0 0 20 20"><g id="Layer_1-2"><path d="M10,0h0c5.5228,0,10,4.4772,10,10h0c0,5.5228-4.4772,10-10,10h0C4.4772,20,0,15.5228,0,10h0C0,4.4772,4.4772,0,10,0Z" fill="#0078d6" stroke-width="0"/><path d="M9.3252,6.0788l5.1169-.7468v4.4907l-5.1169.0406v-3.7845ZM8.8592,6.1484l-3.8592.5256.0035,3.2189,3.8573-.022-.0017-3.7225ZM8.8605,14.0242l-.003-3.7258-3.8546-.025.0002,3.2204,3.8574.5304ZM14.4425,14.8031l.0012-4.4705-5.1253-.0084.0072,3.7567,5.117.7222Z" fill="#fff" fill-rule="evenodd" stroke-width="0"/></g></svg>